<?xml version="1.0" encoding="utf-8"?>
<!-- Generator: Adobe Illustrator 16.0.0, SVG Export Plug-In . SVG Version: 6.00 Build 0)  -->
<!DOCTYPE svg PUBLIC "-//W3C//DTD SVG 1.1//EN" "http://www.w3.org/Graphics/SVG/1.1/DTD/svg11.dtd">
<svg version="1.1" xmlns="http://www.w3.org/2000/svg" xmlns:xlink="http://www.w3.org/1999/xlink" x="0px" y="0px" width="64px"
	 height="64px" viewBox="0 0 64 64" enable-background="new 0 0 64 64" xml:space="preserve">
<g>
	<path fill-rule="evenodd" clip-rule="evenodd" fill="none" stroke="#000000" stroke-linejoin="round" stroke-miterlimit="10" d="
		M62.842,13.172c0.175,0.447,0.394,0.883,0.519,1.345c0.221,0.807,0.118,1.608-0.226,2.366c-0.761,1.681-2.115,2.611-3.876,3.004
		c-1.12,0.25-2.227,0.176-3.296-0.245c-1.239-0.488-2.15-1.323-2.632-2.588c-0.011-0.028-0.025-0.054-0.049-0.104
		c-0.472,0.078-0.947,0.153-1.421,0.234c-0.975,0.168-1.948,0.347-2.925,0.501c-0.269,0.042-0.413,0.149-0.515,0.407
		c-0.792,2.018-1.597,4.031-2.402,6.043c-0.611,1.53-1.229,3.058-1.843,4.584c-0.268,0.663-0.77,1.091-1.41,1.369
		c-0.727,0.315-1.651,0.438-2.502,0.331c1.509-3.992,3.014-7.977,4.539-12.012c-4.25,0.731-8.443,1.454-12.665,2.182
		c0.084-0.786,0.276-1.502,0.664-2.167c0.331-0.568,0.764-1.025,1.388-1.245c0.382-0.135,0.79-0.197,1.19-0.273
		c2.122-0.409,4.244-0.811,6.367-1.216c1.365-0.261,2.729-0.527,4.094-0.786c0.195-0.037,0.334-0.095,0.413-0.31
		c0.499-1.361,1.015-2.717,1.53-4.074c0.045-0.117,0.041-0.182-0.077-0.255c-1.104-0.687-1.776-1.7-1.979-2.96
		c-0.404-2.471,0.41-4.494,2.474-5.938c1.132-0.792,2.401-0.995,3.735-0.54c0.463,0.157,0.871,0.416,1.244,0.731
		c0.056,0.048,0.121,0.087,0.181,0.131c0.203,0.245,0.404,0.49,0.607,0.735c0.016,0.042,0.028,0.085,0.051,0.125
		c0.442,0.807,0.627,1.681,0.613,2.593c-0.025,1.515-0.615,2.828-1.456,4.055c-0.906,1.32-1.804,2.646-2.69,3.979
		c-0.175,0.263-0.289,0.567-0.458,0.906c0.207-0.045,0.345-0.057,0.469-0.105c1.002-0.382,2.005-0.76,2.999-1.161
		c1.077-0.435,2.085-1.035,3.213-1.352c1.335-0.376,2.664-0.416,3.983,0.083c0.564,0.212,1.072,0.518,1.541,0.89
		C62.437,12.682,62.64,12.927,62.842,13.172z M60.483,17.049c0.155-0.183,0.325-0.355,0.466-0.551
		c0.663-0.917,0.479-2.019-0.433-2.691c-0.55-0.405-1.173-0.588-1.843-0.591c-1.199-0.006-2.243,0.363-3.003,1.343
		c-0.73,0.944-0.518,2.166,0.479,2.818C57.469,18.241,59.347,17.988,60.483,17.049z M49.076,3.261c-0.238,0.3-0.505,0.58-0.71,0.9
		c-0.658,1.024-0.85,2.125-0.399,3.281c0.264,0.676,0.752,1.128,1.495,1.238c0.593,0.088,1.121-0.116,1.596-0.45
		c0.545-0.38,0.932-0.9,1.19-1.509c0.426-0.999,0.5-2.003-0.015-2.993c-0.309-0.597-0.805-0.952-1.488-1.001
		C50.125,2.681,49.597,2.921,49.076,3.261z"/>
	<g>
		<path fill="none" stroke="#000000" stroke-miterlimit="10" d="M37.972,34.928c0.679-1.688,0.625-3.549-0.174-5.217
			c-0.794-1.667-2.245-2.941-4.037-3.58c-0.41-1.761-1.532-3.292-3.162-4.279c-1.172-0.708-2.524-1.082-3.91-1.082
			c-0.521,0-1.039,0.053-1.546,0.155c-1.354-1.273-3.182-1.992-5.117-1.992H19.97c-1.934,0-3.762,0.718-5.116,1.992
			c-0.508-0.103-1.026-0.155-1.547-0.155c-1.386,0-2.738,0.374-3.909,1.082c-1.63,0.987-2.753,2.518-3.162,4.279
			c-1.793,0.638-3.242,1.913-4.039,3.58c-0.797,1.668-0.851,3.53-0.173,5.217C0.9,36.39,0.435,38.201,0.743,40.007
			c0.306,1.807,1.35,3.393,2.905,4.452c-0.089,1.799,0.575,3.553,1.881,4.903c1.292,1.337,3.106,2.136,5.019,2.22
			c0.365,0.592,0.816,1.12,1.339,1.577v8.851c0,0.778,0.63,1.407,1.406,1.407c0.776,0,1.406-0.629,1.406-1.407v-7.337
			c0.083,0.024,0.167,0.049,0.253,0.07c0.608,0.151,1.234,0.229,1.859,0.229c1.28,0,2.09-0.315,3.187-0.914
			c1.096,0.599,1.907,0.914,3.187,0.914c0.625,0,1.251-0.078,1.86-0.229c0.085-0.021,0.169-0.046,0.253-0.07v7.337
			c0,0.778,0.629,1.407,1.405,1.407c0.776,0,1.408-0.629,1.408-1.407v-8.851c0.521-0.456,0.973-0.985,1.339-1.577
			c1.913-0.084,3.727-0.883,5.017-2.22c1.307-1.351,1.971-3.104,1.883-4.903c1.556-1.06,2.598-2.646,2.905-4.452
			C39.56,38.201,39.097,36.39,37.972,34.928z M37.008,39.625c-0.229,1.358-1.108,2.535-2.406,3.231l-0.725,0.385l0.139,0.811
			c0.231,1.35-0.201,2.707-1.185,3.727c-0.945,0.976-2.304,1.534-3.727,1.534c-0.089,0-0.183-0.003-0.271-0.007l-0.76-0.037
			l-0.326,0.685c-0.608,1.275-1.78,2.271-3.253,2.58c-2.135,0.446-4.212-0.558-4.48-0.694l-0.015-0.007l-0.015,0.007
			c-0.269,0.137-2.346,1.141-4.48,0.693c-1.474-0.31-2.646-1.304-3.252-2.579l-0.327-0.685l-0.759,0.037
			c-0.09,0.004-0.183,0.007-0.273,0.007c-1.424,0-2.781-0.56-3.725-1.534c-0.985-1.02-1.419-2.377-1.188-3.728l0.139-0.81
			l-0.724-0.385c-1.299-0.696-2.176-1.874-2.407-3.231c-0.229-1.345,0.208-2.7,1.198-3.722L4.771,35.3l-0.405-0.739
			c-0.667-1.215-0.709-2.624-0.115-3.868c0.607-1.27,1.795-2.207,3.26-2.57l0.77-0.191l0.088-0.788
			c0.152-1.368,0.956-2.586,2.206-3.342c0.817-0.493,1.76-0.754,2.731-0.754c0.537,0,1.067,0.079,1.577,0.234l0.708,0.215
			l0.484-0.559c0.918-1.06,2.273-1.682,3.738-1.722l0,0c0.061-0.002,0.122-0.003,0.184-0.005c0.061,0.002,0.123,0.003,0.185,0.005
			h-0.001c1.465,0.041,2.819,0.662,3.737,1.722l0.484,0.559l0.709-0.215c0.51-0.155,1.041-0.234,1.576-0.234
			c0.971,0,1.915,0.261,2.731,0.754c1.25,0.755,2.055,1.974,2.206,3.342l0.09,0.788l0.767,0.191c1.465,0.363,2.652,1.3,3.261,2.57
			c0.596,1.244,0.554,2.653-0.115,3.868L35.224,35.3l0.586,0.604C36.8,36.925,37.236,38.281,37.008,39.625z"/>
		<path fill="none" stroke="#000000" stroke-width="0.75" stroke-miterlimit="10" d="M28.139,36.807
			c0.099-0.309,0.147-0.625,0.14-0.952c-0.019-0.792-0.347-1.533-0.931-2.081c-0.438-0.416-0.981-0.689-1.577-0.793
			c-0.508-1.018-1.571-1.667-2.744-1.667c-0.024,0-0.047,0-0.069,0c-0.203,0.004-0.405,0.027-0.602,0.07
			c-0.576-0.625-1.395-0.981-2.266-0.981l-0.045,0l-0.055,0c-0.871,0-1.688,0.356-2.265,0.981c-0.196-0.043-0.398-0.066-0.602-0.07
			c-1.202-0.026-2.293,0.629-2.811,1.667c-0.596,0.104-1.14,0.377-1.579,0.793c-0.583,0.549-0.912,1.289-0.93,2.081
			c-0.006,0.327,0.04,0.644,0.138,0.952c-1.253,0.628-2.407,1.73-3.114,2.987c-0.538,0.956-0.537,2.175,0.003,3.098
			c0.421,0.72,1.098,1.133,1.86,1.133c0.842,0,2.065-0.507,3.268-2.81c0.046,0.234,0.095,0.464,0.144,0.679
			c0.403,1.804,1.151,4.311,2.427,6.026c1.003,1.347,2.183,2.028,3.512,2.028c1.329,0,2.51-0.682,3.512-2.028
			c1.278-1.718,2.026-4.224,2.43-6.026c0.049-0.219,0.096-0.446,0.143-0.679c1.203,2.303,2.426,2.808,3.266,2.81
			c0.761,0,1.44-0.412,1.86-1.132c0.543-0.923,0.543-2.143,0.002-3.099C30.548,38.537,29.394,37.435,28.139,36.807z M11.675,41.476
			c-0.433,0.554-0.793,0.751-0.984,0.751c-0.138,0-0.244-0.131-0.309-0.241c-0.184-0.313-0.238-0.866,0.012-1.313
			c0.811-1.437,2.106-2.239,2.877-2.476C12.776,39.657,12.24,40.757,11.675,41.476z M26.186,36.683c0,0-0.415,0.598-1.501,0.443
			c0.231,0.971-0.723,7.755-2.915,10.134c-0.55,0.601-1.117,0.892-1.729,0.892s-1.178-0.291-1.73-0.892
			c-2.194-2.383-3.079-10.033-3.079-10.033s-1.63-0.031-1.63-1.332c0-0.643,0.578-1.165,1.258-1.165l0.798,0.029l0.169-0.719
			c0.127-0.54,0.644-0.93,1.229-0.93h0.03c0.202,0.005,0.394,0.053,0.57,0.144l0.795,0.404l0.411-0.792
			c0.214-0.41,0.647-0.665,1.132-0.665h0.047h0.048c0.486,0,0.918,0.255,1.13,0.665l0.414,0.792l0.794-0.404
			c0.177-0.091,0.371-0.139,0.57-0.144h0.029c0.587,0,1.102,0.39,1.229,0.928l0.169,0.721l0.742-0.028l0.058-0.001
			c0.679,0,1.244,0.522,1.257,1.164C26.487,36.182,26.382,36.464,26.186,36.683z M29.7,41.985c-0.064,0.11-0.172,0.241-0.309,0.241
			c-0.191,0-0.55-0.197-0.985-0.751c-0.563-0.719-1.102-1.818-1.597-3.277c0.773,0.236,2.069,1.038,2.877,2.476
			C29.938,41.119,29.883,41.672,29.7,41.985z"/>
	</g>
</g>
</svg>
