<?xml version="1.0" encoding="utf-8"?>
<!-- Generator: Adobe Illustrator 16.0.0, SVG Export Plug-In . SVG Version: 6.00 Build 0)  -->
<!DOCTYPE svg PUBLIC "-//W3C//DTD SVG 1.1//EN" "http://www.w3.org/Graphics/SVG/1.1/DTD/svg11.dtd">
<svg version="1.1" xmlns="http://www.w3.org/2000/svg" xmlns:xlink="http://www.w3.org/1999/xlink" x="0px" y="0px" width="64px"
	 height="64px" viewBox="0 0 64 64" enable-background="new 0 0 64 64" xml:space="preserve">
<g>
	<path fill-rule="evenodd" clip-rule="evenodd" d="M30.726,50.187c0-1.807,0-3.613,0-5.483c-5.001-0.57-9.488-2.171-12.629-6.381
		c-1.921-2.575-3.068-5.479-3.605-8.758c3.497,0.029,6.709,0.811,9.689,2.512c3.011,1.719,4.997,4.337,6.531,7.404
		c0-2.023,0-4.047,0-6.131c-4.694-0.513-8.972-1.969-12.12-5.745c-2.146-2.574-3.827-6.507-4.047-9.397
		c3.43,0.034,6.636,0.816,9.611,2.508c3.049,1.733,5.052,4.38,6.628,7.522c0-0.521-0.037-1.044,0.006-1.561
		c0.215-2.584-0.428-4.834-1.861-7.083c-4.021-6.791-2.649-13.749,1.709-19.385c0.167,0.159,0.345,0.301,0.489,0.471
		c3.067,3.642,5,7.72,4.672,12.604c-0.209,3.107-1.363,5.912-2.967,8.559c-0.278,0.461-0.44,1.06-0.457,1.601
		c-0.056,1.807-0.022,3.615,0.033,5.452c1.422-3.247,3.371-6.052,6.457-7.913c3.022-1.821,6.317-2.645,9.988-2.703
		c-0.703,4.204-2.316,7.852-5.388,10.745c-3.083,2.903-6.939,3.997-11.086,4.421c0,2.271,0,4.492,0,6.713
		c3.04-7.243,8.817-10.206,16.499-10.575c-0.748,4.224-2.319,7.872-5.374,10.751c-3.089,2.909-6.934,4.036-11.147,4.443
		c0,2.068,0,4.15,0,6.427c3.122-7.07,8.834-9.775,16.195-10.145c-0.769,4.212-2.318,7.849-5.348,10.728
		c-3.032,2.882-6.827,4.012-10.945,4.469c0,2.585,0,5.129,0,7.744c-0.527,0-0.98,0-1.532,0c0-2.603,0-5.213,0-7.846
		c-4.59-0.582-8.675-2.04-11.722-5.616c-2.145-2.517-3.955-6.701-4.11-9.526C21.784,41.321,27.35,43.776,30.726,50.187z
		 M16.422,19.955c1.151,3.858,2.975,7.179,6.449,9.339c2.197,1.366,4.605,2.124,7.232,2.35
		C28.999,25.381,22.516,19.842,16.422,19.955z M32.891,54.548c7.2-0.718,11.922-4.897,13.621-11.668
		C40.963,42.332,34.136,48.159,32.891,54.548z M16.487,31.317c1.157,6.253,8.069,12.152,13.612,11.617
		C28.36,35.746,22.911,31.737,16.487,31.317z M30.463,54.453c-1.765-6.688-6.29-11.014-13.612-11.686
		C18.443,49.65,23.565,53.909,30.463,54.453z M30.729,2.751c-3.777,5.902-3.352,13.929,0.915,17.965
		C35.453,14.612,35.109,8.272,30.729,2.751z M46.842,31.375c-5.614-0.432-13.633,6.504-13.527,11.703
		C40.128,42.307,45.069,38.578,46.842,31.375z M46.875,19.984c-7.308,0.717-12.017,5.046-13.614,11.719
		C40.127,31.034,45.075,27.097,46.875,19.984z"/>
	<rect x="16.167" y="62.667" fill-rule="evenodd" clip-rule="evenodd" width="30.667" height="1.333"/>
</g>
</svg>
