<?xml version="1.0" encoding="utf-8"?>
<!-- Generator: Adobe Illustrator 16.0.0, SVG Export Plug-In . SVG Version: 6.00 Build 0)  -->
<!DOCTYPE svg PUBLIC "-//W3C//DTD SVG 1.1//EN" "http://www.w3.org/Graphics/SVG/1.1/DTD/svg11.dtd">
<svg version="1.1" xmlns="http://www.w3.org/2000/svg" xmlns:xlink="http://www.w3.org/1999/xlink" x="0px" y="0px" width="64px"
	 height="64px" viewBox="0 0 64 64" enable-background="new 0 0 64 64" xml:space="preserve">
<g>
	<path fill="none" stroke="#231F20" stroke-linejoin="round" stroke-miterlimit="10" d="M62.788,14.243
		c0.19,0.485,0.428,0.958,0.563,1.459c0.239,0.875,0.127,1.745-0.246,2.567c-0.826,1.824-2.295,2.833-4.206,3.26
		c-1.215,0.271-2.416,0.19-3.576-0.267c-1.344-0.53-2.333-1.436-2.855-2.808c-0.012-0.031-0.026-0.059-0.054-0.113
		c-0.511,0.084-1.027,0.166-1.541,0.254c-1.058,0.183-2.114,0.377-3.175,0.543c-0.291,0.046-0.447,0.162-0.559,0.442
		c-0.859,2.189-1.732,4.374-2.605,6.557c-0.663,1.661-1.334,3.318-2,4.975c-0.291,0.719-0.835,1.184-1.53,1.486
		c-0.789,0.341-1.791,0.475-2.716,0.358c1.639-4.332,3.271-8.656,4.926-13.033c-4.611,0.792-9.162,1.577-13.742,2.367
		c0.091-0.853,0.299-1.63,0.72-2.352c0.359-0.616,0.83-1.112,1.505-1.351c0.416-0.146,0.858-0.213,1.292-0.296
		c2.303-0.443,4.605-0.88,6.909-1.319c1.479-0.284,2.962-0.572,4.441-0.854c0.212-0.04,0.362-0.103,0.449-0.336
		c0.541-1.477,1.102-2.948,1.66-4.42c0.049-0.127,0.044-0.198-0.084-0.276c-1.197-0.746-1.926-1.845-2.146-3.212
		c-0.439-2.681,0.444-4.876,2.684-6.443c1.229-0.859,2.605-1.08,4.054-0.586c0.502,0.17,0.944,0.452,1.35,0.793
		c0.06,0.052,0.13,0.094,0.195,0.142c0.22,0.267,0.438,0.532,0.658,0.798c0.018,0.045,0.031,0.092,0.056,0.135
		c0.479,0.876,0.681,1.825,0.666,2.814c-0.028,1.644-0.668,3.069-1.58,4.4c-0.982,1.433-1.957,2.871-2.92,4.318
		c-0.188,0.285-0.313,0.615-0.495,0.983c0.224-0.049,0.374-0.062,0.508-0.114c1.087-0.415,2.175-0.825,3.254-1.26
		c1.169-0.472,2.263-1.123,3.486-1.467c1.449-0.408,2.891-0.451,4.323,0.09c0.611,0.23,1.163,0.563,1.672,0.966
		C62.349,13.711,62.569,13.977,62.788,14.243z M60.228,18.449c0.17-0.198,0.354-0.385,0.507-0.598
		c0.719-0.995,0.52-2.19-0.471-2.919c-0.597-0.44-1.272-0.638-1.999-0.642c-1.301-0.006-2.435,0.394-3.26,1.458
		c-0.792,1.024-0.561,2.35,0.52,3.058C56.958,19.744,58.996,19.468,60.228,18.449z M47.852,3.488
		c-0.259,0.326-0.55,0.63-0.771,0.977c-0.714,1.111-0.923,2.306-0.434,3.56c0.286,0.733,0.816,1.224,1.622,1.344
		c0.644,0.095,1.217-0.126,1.733-0.489c0.591-0.412,1.011-0.977,1.29-1.637c0.462-1.084,0.543-2.174-0.017-3.248
		c-0.334-0.648-0.873-1.034-1.613-1.086C48.988,2.859,48.417,3.12,47.852,3.488z"/>
	<g>
		<path fill="#231F20" d="M21.759,25.926l0.055,0.001l0.124,0.003c1.306,0.037,2.511,0.585,3.308,1.506l0.617,0.712l0.85,0.981
			l1.242-0.376l0.906-0.274c0.462-0.141,0.942-0.212,1.427-0.212c0.872,0,1.719,0.233,2.446,0.672
			c1.058,0.64,1.735,1.649,1.86,2.773l0.113,1.005l0.155,1.381l1.349,0.336l0.98,0.244c1.284,0.318,2.318,1.12,2.835,2.196
			c0.483,1.012,0.45,2.114-0.099,3.111l-0.514,0.942l-0.705,1.293l1.026,1.058l0.746,0.769c0.813,0.839,1.174,1.938,0.99,3.019
			c-0.188,1.115-0.932,2.095-2.038,2.687l-0.923,0.492l-1.273,0.679l0.243,1.423l0.178,1.035c0.186,1.084-0.171,2.186-0.976,3.021
			c-0.828,0.855-2.036,1.346-3.314,1.346c-0.085,0-0.175-0.001-0.249-0.005l-0.968-0.047l-1.33-0.064l-0.573,1.202l-0.415,0.871
			c-0.536,1.123-1.565,1.943-2.751,2.192C26.757,61.966,26.408,62,26.044,62c-1.749,0-3.287-0.777-3.352-0.811l-0.102-0.05
			l-0.086-0.035l-0.771-0.293l-0.75,0.308l-0.076,0.031l-0.073,0.037C20.77,61.221,19.219,62,17.479,62
			c-0.363,0-0.712-0.035-1.035-0.103c-1.191-0.251-2.22-1.069-2.754-2.193l-0.417-0.872L12.7,57.633l-1.328,0.063l-0.956,0.047
			c-0.087,0.004-0.177,0.005-0.263,0.005c-1.276,0-2.483-0.49-3.31-1.343c-0.81-0.839-1.167-1.941-0.982-3.024l0.177-1.032
			l0.244-1.424l-1.274-0.68l-0.921-0.491c-1.106-0.592-1.85-1.572-2.041-2.689c-0.183-1.078,0.179-2.179,0.992-3.018l0.746-0.769
			l1.027-1.059l-0.708-1.295l-0.517-0.943c-0.544-0.992-0.578-2.096-0.096-3.106c0.515-1.077,1.547-1.878,2.833-2.196l0.982-0.244
			L8.657,34.1l0.154-1.385l0.112-1.004c0.125-1.122,0.803-2.131,1.857-2.769c0.731-0.441,1.578-0.674,2.449-0.674
			c0.485,0,0.966,0.071,1.429,0.212l0.903,0.274l1.243,0.377l0.85-0.982l0.616-0.712c0.798-0.921,2.004-1.47,3.328-1.506
			l0.106-0.003L21.759,25.926 M21.759,23.926c-0.079,0.002-0.157,0.003-0.235,0.006c-1.868,0.051-3.594,0.844-4.765,2.195
			l-0.617,0.712l-0.903-0.274c-0.65-0.198-1.326-0.298-2.01-0.298c-1.238,0-2.44,0.333-3.481,0.96
			c-1.594,0.964-2.618,2.517-2.813,4.261l-0.112,1.005l-0.982,0.244C3.975,33.2,2.46,34.394,1.686,36.013
			c-0.756,1.586-0.703,3.382,0.147,4.931l0.516,0.942l-0.746,0.769c-1.263,1.303-1.819,3.029-1.528,4.745
			c0.295,1.73,1.413,3.232,3.069,4.118l0.923,0.492L3.89,53.042c-0.294,1.722,0.259,3.451,1.515,4.752
			c1.203,1.241,2.934,1.954,4.749,1.954c0.114,0,0.233-0.002,0.348-0.007l0.967-0.047l0.417,0.872
			c0.772,1.625,2.266,2.892,4.146,3.288C16.521,63.957,17.008,64,17.479,64c2.15,0,3.981-0.887,4.263-1.03l0.019-0.008l0.02,0.008
			c0.28,0.144,2.112,1.03,4.264,1.03c0.471,0,0.958-0.042,1.447-0.145c1.877-0.396,3.372-1.664,4.147-3.289l0.416-0.872l0.968,0.047
			c0.112,0.005,0.232,0.007,0.346,0.007c1.813,0,3.547-0.711,4.751-1.954c1.255-1.301,1.806-3.03,1.51-4.751l-0.177-1.033
			l0.923-0.492c1.655-0.886,2.776-2.388,3.068-4.118c0.291-1.713-0.265-3.442-1.525-4.743l-0.748-0.771l0.514-0.942
			c0.853-1.549,0.905-3.345,0.147-4.931c-0.778-1.619-2.292-2.813-4.158-3.275l-0.979-0.244l-0.113-1.005
			c-0.193-1.744-1.22-3.297-2.813-4.261c-1.04-0.627-2.244-0.96-3.481-0.96c-0.683,0-1.359,0.101-2.009,0.298l-0.904,0.274
			l-0.617-0.712c-1.17-1.352-2.896-2.143-4.763-2.195h0.001C21.916,23.929,21.836,23.928,21.759,23.926L21.759,23.926z"/>
	</g>
</g>
</svg>
