<?xml version="1.0" encoding="utf-8"?>
<!-- Generator: Adobe Illustrator 16.0.0, SVG Export Plug-In . SVG Version: 6.00 Build 0)  -->
<!DOCTYPE svg PUBLIC "-//W3C//DTD SVG 1.1//EN" "http://www.w3.org/Graphics/SVG/1.1/DTD/svg11.dtd">
<svg version="1.1" xmlns="http://www.w3.org/2000/svg" xmlns:xlink="http://www.w3.org/1999/xlink" x="0px" y="0px" width="64px"
	 height="64px" viewBox="0 0 64 64" enable-background="new 0 0 64 64" xml:space="preserve">
<g>
	<path fill="none" stroke="#231F20" stroke-width="2" stroke-linejoin="round" stroke-miterlimit="10" d="M43.204,51.918
		c3.03-2.84,4.579-6.429,5.348-10.58c-6.864,1.913-13.745,1.719-16.867,8.693c0-2.247,0.672-2.987,0.672-5.028
		c4.213-0.401,8.058-1.512,11.147-4.381c3.055-2.84,4.626-6.438,5.374-10.605c-7.625,1.581-15.472,2.383-17.193,9.658
		c0-2.193,0.694-3.609,0.694-5.848c4.146-0.418,8.003-1.499,11.086-4.361c3.072-2.854,4.686-6.453,5.389-10.599
		c-3.672,0.057-6.967,0.869-9.987,2.666c-3.087,1.835-5.759,2.454-7.181,5.657c-0.055-1.812,0.635-1.448,0.691-3.23
		c0.017-0.533,0.181-1.124,0.457-1.578c1.604-2.611,2.758-5.378,2.967-8.443c0.327-4.818-1.606-8.839-4.673-12.432
		c-0.144-0.169-0.322-0.308-0.489-0.465c-4.358,5.56-5.73,12.422-1.709,19.121c1.433,2.219,2.971,4.479,2.756,7.027
		c-0.043,0.51,0-0.514,0,0c-1.576-3.099-4.48-4.211-7.529-5.921c-2.975-1.668-6.181-2.439-9.611-2.474
		c0.22,2.852,1.901,6.73,4.047,9.269c3.148,3.725,7.426,5.16,12.12,5.666c0,2.056,0.973,3.949,0.973,5.944
		c-0.873-3.298-3.455-6.313-7.504-7.197c-3.701-1.591-6.192-2.449-9.689-2.479c0.537,3.233,1.684,6.098,3.605,8.639
		c3.141,4.153,7.628,5.731,12.629,6.295c0,1.845,0.959,3.317,0.959,5.099c-3.376-6.323-9.901-8.438-16.79-8.741
		c0.155,2.785,1.965,6.913,4.11,9.396c3.047,3.527,7.132,4.966,11.722,5.539c0,1.711,0,3.401,0,5.098h1.532c0-1.667,0-3.326,0-4.997
		C36.377,55.874,40.172,54.761,43.204,51.918z"/>
	<polygon fill="#231F20" points="0,61.322 0,62.667 0,64 0,64.012 64,64.012 64,64 64,62.667 64,61.322 33.583,61.322 
		30.386,61.322 	"/>
</g>
</svg>
