<?xml version="1.0" encoding="utf-8"?>
<!-- Generator: Adobe Illustrator 16.0.0, SVG Export Plug-In . SVG Version: 6.00 Build 0)  -->
<!DOCTYPE svg PUBLIC "-//W3C//DTD SVG 1.1//EN" "http://www.w3.org/Graphics/SVG/1.1/DTD/svg11.dtd">
<svg version="1.1" xmlns="http://www.w3.org/2000/svg" xmlns:xlink="http://www.w3.org/1999/xlink" x="0px" y="0px" width="64px"
	 height="64px" viewBox="0 0 64 64" enable-background="new 0 0 64 64" xml:space="preserve">
<g>
	<path fill="none" d="M46.842,31.375c-5.613-0.432-13.633,6.504-13.527,11.703C40.128,42.307,45.068,38.578,46.842,31.375z"/>
	<path fill="none" d="M16.422,19.955c1.151,3.858,2.975,7.179,6.449,9.339c2.197,1.366,4.605,2.124,7.232,2.35
		C28.999,25.381,22.516,19.842,16.422,19.955z"/>
	<path fill="none" d="M46.875,19.984c-7.309,0.717-12.018,5.046-13.613,11.719C40.127,31.034,45.075,27.097,46.875,19.984z"/>
	<path fill="none" d="M46.512,42.88c-5.549-0.548-12.375,5.279-13.621,11.668C40.091,53.83,44.813,49.65,46.512,42.88z"/>
	<path fill="none" d="M30.729,2.751c-3.777,5.902-3.352,13.929,0.915,17.965C35.453,14.612,35.109,8.272,30.729,2.751z"/>
	<path fill="none" d="M16.851,42.768c1.592,6.883,6.714,11.142,13.612,11.686C28.698,47.766,24.173,43.439,16.851,42.768z"/>
	<path fill="none" d="M16.487,31.317c1.157,6.253,8.069,12.152,13.612,11.617C28.36,35.746,22.911,31.737,16.487,31.317z"/>
	<path fill="#231F20" d="M43.204,51.788c3.03-2.879,4.579-6.517,5.348-10.728c-7.36,0.369-13.073,3.074-16.195,10.145
		c0-2.277,0-4.359,0-6.428c4.213-0.406,8.058-1.533,11.147-4.442c3.055-2.879,4.626-6.526,5.374-10.751
		c-7.683,0.369-13.459,3.332-16.499,10.575c0-2.222,0-4.442,0-6.714c4.146-0.424,8.003-1.518,11.086-4.42
		c3.072-2.893,4.686-6.541,5.389-10.745c-3.672,0.058-6.967,0.882-9.988,2.703c-3.086,1.861-5.035,4.666-6.457,7.913
		c-0.055-1.837-0.089-3.645-0.033-5.452c0.017-0.541,0.18-1.14,0.457-1.601c1.604-2.647,2.758-5.452,2.967-8.559
		C36.127,8.4,34.193,4.322,31.127,0.68c-0.144-0.17-0.322-0.312-0.489-0.471c-4.358,5.636-5.73,12.594-1.709,19.385
		c1.433,2.249,2.076,4.499,1.861,7.083c-0.043,0.517-0.006,1.04-0.006,1.561c-1.576-3.142-3.579-5.789-6.628-7.522
		c-2.975-1.692-6.181-2.474-9.611-2.508c0.22,2.89,1.901,6.823,4.047,9.397c3.148,3.776,7.426,5.232,12.12,5.745
		c0,2.084,0,4.108,0,6.131c-1.534-3.066-3.52-5.685-6.531-7.403c-2.98-1.701-6.192-2.483-9.689-2.512
		c0.537,3.279,1.684,6.183,3.605,8.758c3.141,4.21,7.628,5.811,12.629,6.381c0,1.87,0,3.676,0,5.483
		c-3.376-6.412-8.942-8.867-15.831-9.174c0.155,2.824,1.965,7.008,4.11,9.525c3.047,3.576,7.132,5.034,11.722,5.615
		c0,1.734,0,3.449,0,5.168h1.532c0-1.689,0-3.372,0-5.065C36.377,55.8,40.172,54.67,43.204,51.788z M46.512,42.88
		c-1.699,6.771-6.421,10.95-13.621,11.668C34.137,48.159,40.963,42.332,46.512,42.88z M46.842,31.375
		c-1.773,7.203-6.714,10.932-13.527,11.703C33.209,37.879,41.229,30.943,46.842,31.375z M46.875,19.984
		c-1.8,7.113-6.748,11.05-13.613,11.719C34.857,25.03,39.566,20.701,46.875,19.984z M22.871,29.294
		c-3.474-2.16-5.298-5.481-6.449-9.339c6.094-0.113,12.577,5.426,13.681,11.689C27.476,31.418,25.068,30.66,22.871,29.294z
		 M16.487,31.317c6.424,0.42,11.873,4.429,13.612,11.617C24.556,43.469,17.644,37.57,16.487,31.317z M16.851,42.768
		c7.322,0.672,11.847,4.998,13.612,11.686C23.565,53.909,18.443,49.65,16.851,42.768z M30.729,2.751
		c4.38,5.521,4.724,11.861,0.915,17.965C27.377,16.68,26.952,8.653,30.729,2.751z"/>
	<polygon fill="#231F20" points="16.167,61.322 16.167,62.667 16.167,64 16.167,64.012 46.834,64.012 46.834,64 46.834,62.667 
		46.834,61.322 32.259,61.322 30.727,61.322 	"/>
</g>
</svg>
