<?xml version="1.0" encoding="utf-8"?>
<!-- Generator: Adobe Illustrator 16.0.0, SVG Export Plug-In . SVG Version: 6.00 Build 0)  -->
<!DOCTYPE svg PUBLIC "-//W3C//DTD SVG 1.1//EN" "http://www.w3.org/Graphics/SVG/1.1/DTD/svg11.dtd">
<svg version="1.1" xmlns="http://www.w3.org/2000/svg" xmlns:xlink="http://www.w3.org/1999/xlink" x="0px" y="0px" width="64px"
	 height="64px" viewBox="0 0 64 64" enable-background="new 0 0 64 64" xml:space="preserve">
<path fill-rule="evenodd" clip-rule="evenodd" d="M40.004,63.868c-5.321,0-10.642,0-15.962,0c0-1.629-0.018-3.26,0.005-4.889
	c0.028-2.004,1.172-3.135,3.128-3.135c0.717,0,1.435,0,2.16,0c0-16.088,0-32.083,0-48.092c-4.423,0-8.809,0-13.24,0
	c0.095,0.266,0.167,0.48,0.25,0.693c3.379,8.658,6.761,17.315,10.132,25.979c0.119,0.302,0.201,0.642,0.205,0.964
	c0.02,1.672,0.028,3.343,0.004,5.015c-0.102,7.041-4.965,12.432-11.918,13.225c-6.465,0.735-12.484-3.373-14.187-9.698
	C0.382,43.19,0.256,42.43,0.097,41.68c0-2.298,0-4.596,0-6.895c0.091-0.181,0.199-0.354,0.268-0.542
	C3.918,24.737,7.471,15.23,11.003,5.716c0.189-0.511,0.408-0.69,0.964-0.688c5.548,0.024,11.097,0.015,16.645,0.015
	c0.239,0,0.477,0,0.773,0c0-0.884-0.024-1.655,0.006-2.425c0.036-0.896,0.435-1.604,1.224-2.05c1.879-1.063,4.001,0.14,4.053,2.296
	c0.017,0.702,0.002,1.405,0.002,2.179c0.33,0,0.573,0,0.818,0c5.361,0,10.724,0.007,16.086-0.014
	c0.522-0.001,0.743,0.17,0.932,0.653c3.178,8.177,6.38,16.346,9.568,24.518c0.636,1.629,1.493,3.222,1.803,4.913
	c0.311,1.697,0.08,3.498,0.07,5.253c-0.047,6.97-5.008,12.496-11.894,13.256c-7.798,0.859-14.511-5.038-14.688-12.922
	c-0.036-1.691-0.024-3.386-0.004-5.077c0.006-0.426,0.081-0.875,0.229-1.274c3.195-8.66,6.407-17.314,9.616-25.971
	c0.074-0.202,0.129-0.411,0.193-0.619c-4.275,0-8.483,0-12.691,0c0,16.042,0,32.035,0,48.086c0.675,0,1.315,0,1.955,0
	c1.976,0.002,3.325,1.342,3.336,3.322C40.01,60.733,40.004,62.301,40.004,63.868z M60.736,34.405
	c-3.451-8.897-6.874-17.715-10.358-26.696c-3.485,8.988-6.91,17.813-10.356,26.696C46.95,34.405,53.797,34.405,60.736,34.405z
	 M13.133,7.708C9.651,16.684,6.227,25.512,2.776,34.401c6.933,0,13.774,0,20.711,0C20.041,25.517,16.617,16.69,13.133,7.708z
	 M42.385,39.827c0.092,2.923,0.916,5.434,3.554,6.875c2.92,1.596,5.945,1.559,8.891,0.008c2.572-1.356,3.703-4.541,3.441-6.883
	C53.001,39.827,47.731,39.827,42.385,39.827z M5.233,39.831c-0.223,2.188,0.705,5.626,3.843,7.094
	c2.691,1.262,5.441,1.254,8.129-0.005c2.863-1.341,4.055-4.527,3.827-7.089C15.767,39.831,10.499,39.831,5.233,39.831z
	 M26.724,61.154c3.573,0,7.073,0,10.584,0c0-0.892,0-1.736,0-2.586c-3.557,0-7.068,0-10.584,0
	C26.724,59.454,26.724,60.284,26.724,61.154z"/>
</svg>
