<?xml version="1.0" encoding="utf-8"?>
<!-- Generator: Adobe Illustrator 16.0.0, SVG Export Plug-In . SVG Version: 6.00 Build 0)  -->
<!DOCTYPE svg PUBLIC "-//W3C//DTD SVG 1.1//EN" "http://www.w3.org/Graphics/SVG/1.1/DTD/svg11.dtd">
<svg version="1.1" xmlns="http://www.w3.org/2000/svg" xmlns:xlink="http://www.w3.org/1999/xlink" x="0px" y="0px" width="64px"
	 height="64px" viewBox="0 0 64 64" enable-background="new 0 0 64 64" xml:space="preserve">
<g>
	<path fill="none" stroke="#231F20" stroke-linejoin="round" stroke-miterlimit="10" d="M60.742,15.222
		c-0.265-0.553-0.643-1.053-0.964-1.576c-0.313-0.262-0.623-0.523-0.938-0.788c-0.677-0.36-1.386-0.629-2.149-0.766
		c-1.776-0.324-3.441,0.034-5.039,0.816c-1.347,0.661-2.479,1.649-3.736,2.446c-1.162,0.737-2.338,1.444-3.511,2.158
		c-0.145,0.089-0.318,0.137-0.565,0.24c0.132-0.467,0.207-0.876,0.366-1.246c0.808-1.886,1.634-3.765,2.47-5.638
		c0.774-1.741,1.216-3.533,0.897-5.448C47.38,4.269,46.942,3.208,46.2,2.292c-0.039-0.043-0.064-0.095-0.094-0.144
		c-0.313-0.261-0.623-0.523-0.935-0.787c-0.087-0.042-0.179-0.077-0.258-0.123c-0.543-0.309-1.118-0.542-1.736-0.634
		c-1.789-0.264-3.339,0.286-4.585,1.544c-2.268,2.299-2.826,5.036-1.744,8.058c0.546,1.541,1.627,2.661,3.176,3.273
		c0.167,0.063,0.188,0.145,0.158,0.302c-0.334,1.831-0.673,3.658-0.984,5.489c-0.054,0.289-0.215,0.395-0.452,0.487
		c-1.659,0.642-3.317,1.292-4.976,1.938c-2.584,1.001-5.165,1.999-7.746,3.004c-0.487,0.189-0.985,0.361-1.436,0.619
		c-0.734,0.421-1.175,1.098-1.461,1.89c-0.334,0.928-0.411,1.873-0.334,2.882c0.01-0.003,0.02-0.006,0.03-0.007
		c5.141-1.89,10.25-3.768,15.426-5.666c-0.902,4.951-1.791,9.845-2.683,14.748c0.254,0.404,0.457,0.842,0.608,1.297
		c0.808-0.154,1.589-0.438,2.211-0.854c0.741-0.498,1.275-1.152,1.459-2.051c0.421-2.066,0.848-4.135,1.262-6.204
		c0.55-2.722,1.098-5.445,1.63-8.172c0.068-0.349,0.226-0.516,0.555-0.632c1.199-0.419,2.384-0.869,3.571-1.308
		c0.579-0.211,1.161-0.417,1.737-0.623c0.044,0.058,0.066,0.086,0.088,0.12c0.898,1.483,2.239,2.324,3.913,2.655
		c1.445,0.282,2.856,0.12,4.21-0.454c2.132-0.903,3.62-2.389,4.193-4.683C61.261,17.221,61.207,16.187,60.742,15.222z
		 M41.872,11.079c-0.959,0.033-1.681-0.426-2.17-1.215c-0.833-1.353-0.846-2.785-0.255-4.228c0.185-0.45,0.458-0.865,0.688-1.3
		c0.578-0.547,1.185-0.972,1.979-1.057c0.868-0.099,1.579,0.236,2.105,0.917c0.878,1.127,1.017,2.412,0.712,3.77
		c-0.185,0.825-0.553,1.571-1.151,2.176C43.261,10.674,42.644,11.053,41.872,11.079z M58.161,18.276
		c-0.131,0.279-0.305,0.535-0.46,0.802c-1.215,1.446-3.524,2.2-5.388,1.416c-1.409-0.591-1.959-2.083-1.259-3.441
		c0.732-1.411,1.967-2.118,3.48-2.388c0.843-0.15,1.669-0.064,2.457,0.321C58.298,15.621,58.783,16.965,58.161,18.276z"/>
	<path fill="#231F20" d="M50.807,38.132L49.9,37.197l0.623-1.142c1.035-1.879,1.096-4.053,0.178-5.977
		c-0.941-1.962-2.777-3.408-5.039-3.969l-1.188-0.295l-1.662-0.956c-0.021,0.355-0.094,0.715-0.172,1.078
		c-0.092,0.43-0.131,0.819-0.307,1.196c0.422,0.215,0.703,0.354,0.744,0.354c2.797,0,4.586,1.556,5.383,3.549
		c0.014,0.03,0.035,0.057,0.051,0.086c0.25,0.522,0.363,1.062,0.373,1.604c0.111,0.933,0.033,1.89-0.234,2.785
		c-0.242,0.937-0.66,1.818-1.305,2.534l0.813,0.838l0.906,0.933c0.984,1.016,1.42,2.348,1.199,3.66
		c-0.227,1.352-1.129,2.538-2.471,3.256l-1.121,0.596l-1.541,0.822l0.295,1.728l0.217,1.253c0.225,1.313-0.207,2.65-1.184,3.659
		c-1.004,1.038-2.467,1.633-4.018,1.633c-0.102,0-0.213-0.002-0.301-0.005l-1.174-0.058l-1.613-0.077l-0.693,1.456l-0.502,1.057
		c-0.652,1.361-1.898,2.354-3.334,2.657c-0.394,0.081-0.816,0.122-1.258,0.122c-2.119,0-3.983-0.942-4.063-0.982l-0.125-0.061
		l-0.103-0.044l-0.937-0.354l-0.908,0.374l-0.091,0.038l-0.089,0.045c-0.077,0.04-1.957,0.984-4.066,0.984
		c-0.44,0-0.863-0.042-1.255-0.125c-1.443-0.304-2.689-1.294-3.337-2.657l-0.506-1.057l-0.694-1.453l-1.61,0.076l-1.159,0.058
		c-0.105,0.004-0.214,0.004-0.318,0.004c-1.546,0-3.009-0.593-4.012-1.628c-0.982-1.015-1.415-2.352-1.191-3.663l0.215-1.251
		l0.296-1.727L6.07,47.328l-1.116-0.595c-1.341-0.718-2.242-1.905-2.474-3.26c-0.222-1.307,0.217-2.642,1.203-3.657l0.904-0.933
		l1.245-1.283l-0.858-1.569l-0.626-1.145c-0.66-1.2-0.701-2.539-0.116-3.762c0.625-1.306,1.875-2.277,3.434-2.661l1.19-0.296
		l1.638-0.407l0.187-1.678l0.135-1.217c0.152-1.359,0.974-2.583,2.251-3.356c0.886-0.534,1.912-0.817,2.968-0.817
		c0.588,0,1.171,0.086,1.732,0.257l1.095,0.333l1.507,0.457l1.03-1.19l0.747-0.863c0.967-1.116,2.429-1.782,4.034-1.825l0.127-0.004
		l0.068-0.002l0.066,0.001l0.149,0.004c1.584,0.044,3.044,0.709,4.011,1.825l0.748,0.863l1.091,1.234
		c1.25-0.531,2.182-0.924,3.172-1.172l-2.432-1.648l-0.747-0.863c-1.417-1.639-3.51-2.597-5.772-2.661h0.002
		c-0.097-0.005-0.194-0.006-0.288-0.009c-0.095,0.002-0.19,0.004-0.286,0.008c-2.263,0.062-4.355,1.022-5.775,2.66l-0.748,0.863
		l-1.095-0.332c-0.788-0.24-1.606-0.361-2.436-0.361c-1.5,0-2.957,0.403-4.219,1.164c-1.932,1.168-3.174,3.051-3.409,5.164
		l-0.136,1.219l-1.19,0.294c-2.262,0.563-4.098,2.01-5.036,3.972c-0.916,1.924-0.852,4.098,0.178,5.977l0.626,1.142l-0.905,0.931
		c-1.53,1.581-2.205,3.672-1.852,5.753c0.357,2.096,1.712,3.916,3.719,4.99l1.119,0.596l-0.214,1.251
		c-0.356,2.087,0.313,4.183,1.835,5.761c1.459,1.504,3.557,2.367,5.757,2.367c0.138,0,0.283-0.001,0.421-0.008l1.172-0.058
		l0.506,1.058c0.936,1.97,2.746,3.505,5.025,3.983C20.024,63.947,20.614,64,21.186,64c2.605,0,4.825-1.075,5.167-1.248l0.022-0.011
		l0.024,0.011C26.739,62.926,28.96,64,31.567,64c0.571,0,1.163-0.052,1.753-0.177c2.275-0.479,4.088-2.016,5.027-3.985l0.504-1.058
		l1.176,0.058c0.133,0.007,0.277,0.008,0.418,0.008c2.195,0,4.299-0.861,5.758-2.367c1.52-1.578,2.188-3.674,1.828-5.759
		l-0.213-1.253l1.117-0.596c2.006-1.074,3.365-2.895,3.719-4.99C53.008,41.805,52.336,39.709,50.807,38.132z"/>
</g>
</svg>
