<?xml version="1.0" encoding="utf-8"?>
<!-- Generator: Adobe Illustrator 16.0.0, SVG Export Plug-In . SVG Version: 6.00 Build 0)  -->
<!DOCTYPE svg PUBLIC "-//W3C//DTD SVG 1.1//EN" "http://www.w3.org/Graphics/SVG/1.1/DTD/svg11.dtd">
<svg version="1.1" xmlns="http://www.w3.org/2000/svg" xmlns:xlink="http://www.w3.org/1999/xlink" x="0px" y="0px" width="64px"
	 height="64px" viewBox="0 0 64 64" enable-background="new 0 0 64 64" xml:space="preserve">
<g>
	<path d="M31.922,63.968c-8.014,0-16.03-0.086-24.042,0.03c-5.161,0.076-7.924-3.8-7.879-7.844C0.1,47.266,3.416,39.393,7.985,31.88
		c3.25-5.345,7.056-10.267,11.791-14.526c2.104-1.894,4.293-2.915,7.306-2.73c4.106,0.252,8.242,0.023,12.363,0.097
		c0.791,0.014,1.709,0.301,2.343,0.754c5.116,3.664,9.01,8.391,12.42,13.499c3.295,4.935,6.131,10.1,7.964,15.711
		c1.367,4.188,2.098,8.504,1.738,12.885c-0.32,3.908-3.367,6.388-7.449,6.394c-8.179,0.009-16.357,0.002-24.538,0.002
		C31.922,63.966,31.922,63.967,31.922,63.968z M31.994,61.313c8.048,0,16.098-0.094,24.145,0.045
		c3.393,0.06,5.215-2.352,5.146-4.957c-0.089-3.391-0.455-6.744-1.44-10.01c-1.634-5.41-4.311-10.369-7.381-15.134
		c-3.22-4.996-6.947-9.596-11.756-13.319c-0.604-0.468-1.212-0.657-1.979-0.651c-4.023,0.029-8.053,0.118-12.07-0.021
		c-1.871-0.065-3.237,0.499-4.585,1.662c-4.378,3.78-7.927,8.194-10.939,13.003c-2.853,4.553-5.367,9.277-6.911,14.415
		c-1.009,3.359-1.418,6.805-1.449,10.293c-0.022,2.565,1.933,4.764,4.979,4.717C15.831,61.232,23.913,61.313,31.994,61.313z"/>
	<path d="M32.421,0.009c3.396,0.001,6.789,0.019,10.185-0.007c1.682-0.013,3.063,0.49,3.871,1.965
		c0.795,1.457,0.529,2.838-0.431,4.18c-1.547,2.159-3.049,4.348-4.526,6.55c-0.336,0.5-0.719,0.634-1.295,0.633
		c-5.24-0.016-10.48-0.02-15.722,0.004c-0.63,0.003-1.014-0.157-1.364-0.679c-1.46-2.175-2.952-4.333-4.474-6.469
		c-0.972-1.365-1.282-2.777-0.435-4.265c0.832-1.46,2.233-1.933,3.907-1.92C25.565,0.026,28.993,0.008,32.421,0.009z M32.369,2.64
		c0,0.001,0,0.003,0,0.004c-3.492,0-6.985-0.019-10.478,0.025c-0.425,0.005-1.039,0.252-1.214,0.566
		C20.5,3.551,20.625,4.173,20.853,4.52c1.245,1.894,2.545,3.756,3.877,5.595c0.199,0.274,0.673,0.514,1.021,0.517
		c4.383,0.033,8.765,0.036,13.146-0.01c0.395-0.004,0.916-0.312,1.149-0.632c1.269-1.729,2.491-3.489,3.661-5.28
		c0.266-0.404,0.509-1.121,0.313-1.424c-0.24-0.366-0.957-0.611-1.471-0.62C39.157,2.614,35.764,2.64,32.369,2.64z"/>
	<ellipse cx="20.898" cy="55.358" rx="4.672" ry="4.476"/>
	<ellipse cx="32.347" cy="55.358" rx="4.674" ry="4.476"/>
	<ellipse cx="43.786" cy="55.358" rx="4.67" ry="4.476"/>
	<ellipse cx="25.951" cy="44.449" rx="4.672" ry="4.473"/>
	<ellipse cx="38.481" cy="44.449" rx="4.67" ry="4.473"/>
	<ellipse cx="32.347" cy="33.975" rx="4.67" ry="4.475"/>
</g>
</svg>
