<?xml version="1.0" encoding="utf-8"?>
<!-- Generator: Adobe Illustrator 16.0.0, SVG Export Plug-In . SVG Version: 6.00 Build 0)  -->
<!DOCTYPE svg PUBLIC "-//W3C//DTD SVG 1.1//EN" "http://www.w3.org/Graphics/SVG/1.1/DTD/svg11.dtd">
<svg version="1.1" xmlns="http://www.w3.org/2000/svg" xmlns:xlink="http://www.w3.org/1999/xlink" x="0px" y="0px" width="64px"
	 height="64px" viewBox="0 0 64 64" enable-background="new 0 0 64 64" xml:space="preserve">
<g>
	<path fill="#231F20" d="M37.09,43.107H17.545c-0.747,0-1.359,0.449-1.359,0.996s0.613,0.994,1.359,0.994H37.09
		c0.746,0,1.357-0.447,1.357-0.994S37.836,43.107,37.09,43.107z"/>
	<path fill="#231F20" d="M37.09,53.057H17.545c-0.747,0-1.359,0.447-1.359,0.994c0,0.549,0.613,0.994,1.359,0.994H37.09
		c0.746,0,1.357-0.445,1.357-0.994C38.449,53.504,37.836,53.057,37.09,53.057z"/>
	<path fill="#231F20" d="M37.09,33.158H17.545c-0.747,0-1.359,0.447-1.359,0.994c0,0.549,0.613,0.996,1.359,0.996H37.09
		c0.746,0,1.357-0.446,1.357-0.996C38.447,33.605,37.836,33.158,37.09,33.158z"/>
	<path fill="none" d="M38.448,24.207c0,0.548-0.611,0.995-1.359,0.995h-0.646l-4.472,4.396c-0.234,0.23-0.545,0.352-0.862,0.352
		c-0.155,0-0.316-0.032-0.466-0.095c-0.454-0.182-0.753-0.622-0.753-1.104V25.2H17.547c-0.746,0-1.359-0.447-1.359-0.995
		c0-0.547,0.612-0.995,1.359-0.995H29.89v-8.953H13.214c-0.745,0-1.209-0.586-1.026-1.297l0.948-3.729
		c-0.109,0.02-0.213,0.049-0.329,0.049L3.382,9.278c-0.748,0-1.359,0.604-1.359,1.335v50.058c0,0.735,0.611,1.337,1.359,1.337H43.16
		c0.744,0,1.359-0.602,1.359-1.337h0.002V23.962h-6.141C38.409,24.041,38.448,24.119,38.448,24.207z"/>
	<path fill="none" d="M32.327,2.398v23.46l0.669-0.658l0.174-0.171l1.678-1.648l0.174-0.17l1.317-1.294
		c0.228-0.229,0.536-0.354,0.858-0.354h24.365L61.561,2.398H32.327z"/>
	<path fill="#231F20" d="M62.781,0H31.108c-0.671,0-1.219,0.539-1.219,1.199v3.104h-0.202c-0.746,0-1.357-0.602-1.357-1.336V1.66
		c0-0.735-0.612-1.335-1.36-1.335h-7.399c-0.748,0-1.358,0.6-1.358,1.335v1.308c0,0.734-0.612,1.336-1.358,1.336h-1.108
		c-0.747,0-1.506,0.584-1.688,1.297L13.58,7.488c-0.223-0.117-0.479-0.199-0.772-0.199H1.36C0.615,7.289,0,7.892,0,8.625v54.038
		C0,63.398,0.615,64,1.36,64h43.822c0.75,0,1.359-0.602,1.359-1.337V23.958h16.24c0.674,0,1.219-0.535,1.219-1.197V1.199
		C63.998,0.54,63.453,0,62.781,0z M14.776,10.97l0.859-3.377c0.181-0.713,0.938-1.3,1.688-1.3h1.552
		c0.749,0,1.358-0.602,1.358-1.335V3.65c0-0.733,0.615-1.335,1.36-1.335h3.354c0.746,0,1.358,0.602,1.358,1.335v1.308
		c0,0.733,0.611,1.335,1.358,1.335h1.552c0.233,0,0.459,0.071,0.674,0.171v5.799H15.804C15.059,12.263,14.595,11.681,14.776,10.97z
		 M44.521,60.671H44.52c0,0.735-0.615,1.337-1.359,1.337H3.382c-0.748,0-1.359-0.602-1.359-1.337V10.613
		c0-0.731,0.611-1.335,1.359-1.335l9.425,0.002c0.116,0,0.22-0.029,0.329-0.049l-0.948,3.729c-0.183,0.711,0.281,1.297,1.026,1.297
		H29.89v8.953H17.547c-0.747,0-1.359,0.448-1.359,0.995c0,0.548,0.613,0.995,1.359,0.995H29.89v3.551
		c0,0.482,0.299,0.922,0.753,1.104c0.15,0.063,0.311,0.095,0.466,0.095c0.317,0,0.628-0.122,0.862-0.352l4.472-4.396h0.646
		c0.748,0,1.359-0.447,1.359-0.995c0-0.088-0.039-0.166-0.067-0.245h6.141V60.671z M37.197,21.563c-0.322,0-0.631,0.125-0.858,0.354
		l-1.317,1.294l-0.174,0.17l-1.678,1.648L32.996,25.2l-0.669,0.658V2.398h29.233l0.002,19.165H37.197z"/>
	<path fill="none" d="M32.327,2.398v23.46l0.669-0.658l0.174-0.171l1.678-1.648l0.174-0.17l1.317-1.294
		c0.228-0.229,0.536-0.354,0.858-0.354h24.365L61.561,2.398H32.327z"/>
	<path fill="#231F20" d="M44.314,11.629l-4.039,4.473c-0.199,0.223-0.479,0.334-0.756,0.334c-0.224,0-0.443-0.07-0.631-0.221
		l-2.525-1.986c-0.438-0.34-0.506-0.965-0.159-1.396c0.351-0.428,0.983-0.499,1.421-0.153l1.777,1.396l3.404-3.766
		c0.366-0.408,1.008-0.444,1.424-0.084C44.646,10.593,44.684,11.221,44.314,11.629z"/>
	<path fill="#231F20" d="M56.068,11.629l-4.039,4.473c-0.199,0.223-0.479,0.334-0.756,0.334c-0.224,0-0.443-0.07-0.631-0.221
		l-2.525-1.986c-0.438-0.34-0.506-0.965-0.159-1.396c0.351-0.428,0.983-0.499,1.421-0.153l1.777,1.396l3.404-3.766
		c0.366-0.408,1.008-0.444,1.424-0.084C56.4,10.593,56.438,11.221,56.068,11.629z"/>
</g>
</svg>
