<?xml version="1.0" encoding="utf-8"?>
<!-- Generator: Adobe Illustrator 16.0.0, SVG Export Plug-In . SVG Version: 6.00 Build 0)  -->
<!DOCTYPE svg PUBLIC "-//W3C//DTD SVG 1.1//EN" "http://www.w3.org/Graphics/SVG/1.1/DTD/svg11.dtd">
<svg version="1.1" xmlns="http://www.w3.org/2000/svg" xmlns:xlink="http://www.w3.org/1999/xlink" x="0px" y="0px" width="64px"
	 height="64px" viewBox="0 0 64 64" enable-background="new 0 0 64 64" xml:space="preserve">
<g>
	<g>
		<g>
			<g>
				<g>
					<path fill="#231F20" d="M59.738,25.103c0.027,0.167,0.027,0.357,0.027,0.544l0.037,32.21c0.002,1.168,0.004,2.335-0.006,3.493
						c-0.006,1.238-0.672,2.581-2.516,2.638C56.965,63.996,56.646,64,56.33,64c-0.799-0.003-1.6-0.026-2.4-0.055
						c-0.854-0.029-1.547-0.517-1.947-1.348l-39.367-0.029c-0.344,0.752-1.019,1.405-2.372,1.402h-0.2
						c-0.368-0.022-0.737-0.021-1.104-0.021H7.938c-0.344-0.001-0.676-0.001-1.012-0.012c-1.345-0.049-2.214-1.002-2.225-2.418
						l-0.007-5.271L4.692,54.22c0-0.286-0.016-5.719-0.008-7.084c0.006-2.227,0.003-4.441-0.008-6.668l-0.002-2.332
						c-0.001-0.06-0.01-0.389-0.018-0.863c-0.045-1.85-0.098-3.887-0.089-4.51c0.028-2.552,0.059-5.096,0.09-7.648
						c0.024-1.315,0.917-2.285,2.186-2.343c0.667-0.02,1.335-0.029,2.002-0.028c0.577,0.001,1.155,0.008,1.732,0.022
						c1.186,0.032,2.149,1.042,2.183,2.299c0.008,0.314,0.018,0.633,0.017,0.949l38.875,0.038c-0.002-0.178-0.002-0.355,0.008-0.544
						c0.012-1.583,1.09-2.669,2.67-2.698c0.379-0.007,0.762-0.01,1.145-0.01c0.617,0.001,1.232,0.011,1.854,0.024
						C58.559,22.868,59.609,23.858,59.738,25.103z M57.949,57.856L57.91,25.686c-0.002-0.129-0.002-0.217-0.01-0.296
						c-0.023-0.11-0.268-0.357-0.607-0.356c-0.635-0.021-1.262-0.032-1.891-0.033c-0.346,0-0.689,0.003-1.037,0.009
						c-0.314,0.01-0.852,0.079-0.85,0.533c0,0.336,0,0.683,0.002,1.039l-0.002,0.584c0.002,0.604-0.416,1.097-0.926,1.096
						l-40.334-0.05c-0.459,0-0.778-0.14-1.021-0.437c-0.16-0.188-0.343-0.523-0.327-1.059c0.015-0.523,0.015-1.048-0.003-1.573
						c-0.008-0.028-0.125-0.168-0.368-0.178c-0.528-0.014-1.058-0.021-1.586-0.022c-0.683,0-1.366,0.011-2.048,0.037
						c-0.184,0.001-0.383,0.07-0.384,0.179C6.479,27.7,6.45,30.252,6.42,32.795c-0.007,0.634,0.054,3.097,0.089,4.423
						c0.009,0.514,0.019,0.881,0.019,0.92l0.011,2.335c0.003,2.224,0.005,4.45,0,6.679c-0.008,1.364,0.016,6.788,0.018,7.073
						L6.55,56.252l0.015,5.271c0.026,0.129,0.134,0.208,0.409,0.219c0.318,0.011,0.637,0.011,0.962,0.011l1.001,0.002
						c0.385-0.001,0.777,0,1.171,0.019l0.133,0.001c0.719,0,0.762-0.208,0.811-0.504c0.082-0.493,0.434-0.852,0.859-0.881
						l0.142-0.009c0.127-0.009,0.26-0.018,0.385-0.018l39.676,0.039c0.268,0.003,1.084,0,1.455,1.049
						c0.057,0.171,0.16,0.287,0.418,0.298c0.723,0.029,1.443,0.051,2.162,0.05c0.359,0.001,0.721-0.005,1.078-0.017
						c0.713-0.019,0.719-0.286,0.717-0.455C57.953,60.181,57.951,59.015,57.949,57.856"/>
				</g>
			</g>
		</g>
		<g>
			<g>
				<g>
					<path fill="#231F20" d="M16.552,36.193c0.169,0.108,0.227,0.357,0.135,0.545c-0.06,0.147-0.218,0.335-0.351,0.339l-1.011-0.042
						c-1.428-0.052-2.857-0.101-4.285-0.174c-0.25-0.009-0.636-0.335-0.636-0.712c0.007-0.871,0.023-1.73,0.056-2.67l0.016-0.763
						c0.008-0.147,0.074-0.28,0.183-0.347c0.05-0.033,0.109-0.051,0.169-0.051c0.061,0.001,0.12,0.018,0.174,0.052l1.24,0.853
						C13.71,34.232,15.139,35.213,16.552,36.193z M11.096,36c1.372,0.102,2.733,0.151,4.095,0.203
						c-1.079-0.744-2.176-1.497-3.294-2.262l-0.744-0.513v0.079C11.127,34.379,11.103,35.19,11.096,36"/>
				</g>
			</g>
		</g>
		<g>
			<g>
				<g>
					<path fill="#231F20" d="M49.043,57.415c0.127,0.157,0.166,0.396,0.092,0.595c-0.066,0.205-0.242,0.335-0.426,0.334
						l-36.476-0.037c-0.928,0-1.278-0.109-1.279-1.268l-0.008-6.934c-0.001-0.297,0.19-0.545,0.442-0.556l0.166-0.008
						c0.21-0.011,0.385-0.02,0.562-0.021l2.112,0.003c1.095,0.002,2.188,0.003,3.283-0.007l15.338,0.023
						c1.162,0.003,2.324,0.004,3.484,0.015c0.461,0,1.277,0.516,1.283,0.516c1.49,0.94,2.932,1.852,4.359,2.754
						c2.248,1.417,4.473,2.814,6.807,4.312l0.176,0.179L49.043,57.415z M12.232,57.209l34.782,0.035
						c-1.832-1.159-3.639-2.298-5.471-3.447c-1.428-0.902-2.875-1.814-4.365-2.756c-0.232-0.156-0.717-0.384-0.852-0.387
						c-1.162-0.011-2.316-0.013-3.475-0.013l-15.339-0.017l-0.084-0.01c-1.069,0.008-2.13,0.007-3.199,0.006l-2.113-0.003
						l-0.242,0.011l0.008,6.41v0.167C11.98,57.21,12.106,57.21,12.232,57.209"/>
				</g>
			</g>
		</g>
		<g>
			<g>
				<g>
					<path fill="#231F20" d="M56.236,52.404c0.191,0.001,0.344,0.188,0.342,0.413l0.008,4.998c-0.002,0.139-0.059,0.276-0.166,0.356
						l-0.176,0.048l-0.17-0.05l-7.672-4.905c-0.172-0.098-0.236-0.337-0.152-0.533c0.049-0.151,0.215-0.338,0.348-0.339
						L56.236,52.404z M55.891,57.122l-0.002-3.898l-6.104-0.005L55.891,57.122"/>
				</g>
			</g>
		</g>
		<g>
			<g>
				<g>
					<path fill="#231F20" d="M55.232,30.666c0.26,0,0.467,0.246,0.467,0.544l0.01,6.896c-0.002,0.298-0.199,0.545-0.449,0.553
						l-0.129,0.011l-0.24,0.012l-26.493-0.038c-0.435,0-0.885-0.118-1.196-0.318c-2.617-1.653-5.217-3.318-7.817-4.983l-2.25-1.437
						l-0.158-0.12l-0.202-0.139c-0.174-0.118-0.268-0.377-0.207-0.613c0.048-0.238,0.232-0.406,0.44-0.405L55.232,30.666z
						 M54.781,37.58l-0.008-5.818l-35.958-0.035l1.011,0.644c2.601,1.665,5.201,3.33,7.809,4.983
						c0.185,0.109,0.486,0.189,0.761,0.188L54.781,37.58"/>
				</g>
			</g>
		</g>
		<g>
			<g>
				<g>
					<path fill="#231F20" d="M55.693,41.879c0.252,0.001,0.461,0.247,0.461,0.556l0.004,6.885c0.004,0.276-0.162,0.513-0.396,0.543
						c-0.08,0.021-0.141,0.031-0.207,0.031l-10.98-0.022c-0.273,0.001-11.469-6.887-11.619-7.152
						c-0.102-0.17-0.11-0.388-0.034-0.565c0.081-0.188,0.242-0.295,0.415-0.295L55.693,41.879z M55.234,48.793l-0.008-5.816
						l-20.076-0.02c2.869,1.792,8.748,5.401,9.516,5.815L55.234,48.793"/>
				</g>
			</g>
		</g>
		<g>
			<g>
				<g>
					<path fill="#231F20" d="M33.591,46.499c0.101,0.168,0.11,0.387,0.032,0.575c-0.082,0.178-0.239,0.297-0.407,0.295L10.85,47.345
						c-0.25,0.001-0.46-0.246-0.46-0.553l-0.007-6.896c0-0.257,0.157-0.485,0.367-0.533c0.075-0.021,0.149-0.042,0.242-0.039
						l4.895,0.004h0.059l6.023,0.019C22.245,39.347,33.43,46.23,33.591,46.499z M11.316,46.24l20.077,0.019
						c-2.868-1.793-8.745-5.401-9.515-5.816l-5.99-0.016l-0.051,0.001l-4.527-0.004L11.316,46.24"/>
				</g>
			</g>
		</g>
	</g>
	<g>
		<path fill="#202020" d="M47.025,3.301l12.686,6.707l-12.694,6.673l-0.01-0.733l-0.026-1.972l-1.972-0.001l-25.88-0.02
			l-1.962-0.001l-0.039,1.961L17.112,16.7L4.308,10.008l12.739-6.697v0.77v2.001l2.001-0.001l25.971-0.01l1.978-0.001l0.021-1.978
			L47.025,3.301 M45.061,0l-0.043,4.071l-25.971,0.01V0L0,10.013l19.047,9.956l0.081-4.013l25.879,0.02l0.054,3.994L64,10.013
			L45.061,0L45.061,0z"/>
	</g>
</g>
</svg>
