<?xml version="1.0" encoding="utf-8"?>
<!-- Generator: Adobe Illustrator 16.0.0, SVG Export Plug-In . SVG Version: 6.00 Build 0)  -->
<!DOCTYPE svg PUBLIC "-//W3C//DTD SVG 1.1//EN" "http://www.w3.org/Graphics/SVG/1.1/DTD/svg11.dtd">
<svg version="1.1" xmlns="http://www.w3.org/2000/svg" xmlns:xlink="http://www.w3.org/1999/xlink" x="0px" y="0px" width="64px"
	 height="64px" viewBox="0 0 64 64" enable-background="new 0 0 64 64" xml:space="preserve">
<g>
	<path fill="none" d="M4.762,17.678c1.757,0,3.481,0,5.221,0c0-0.645,0-1.249,0-1.896c-0.787,0-1.552,0-2.315,0
		c0-0.427,0-0.81,0-1.224c0.792,0,1.547,0,2.313,0c0-0.634,0-1.236,0-1.881c-0.788,0-1.553,0-2.327,0c0-0.418,0-0.793,0-1.21
		c0.787,0,1.552,0,2.326,0c0-0.645,0-1.248,0-1.894c-0.79,0-1.555,0-2.326,0c0.001-0.419,0-0.794,0.001-1.21
		c0.787,0,1.554,0,2.323,0c0-0.645,0-1.247,0.001-1.875c-0.783,0-1.54,0-2.321,0c0-0.414,0-0.8,0-1.228c0.786,0,1.553,0,2.32,0
		c0-0.646,0-1.248,0-1.888c-1.753,0-3.479,0-5.214,0c0-0.42,0-0.803,0-1.219c1.76,0,3.486,0,5.213,0c0-0.502,0-0.969,0-1.446
		c-3.09,0-6.15,0-9.237,0C0.738,17.631,0.738,34.511,0.738,51.388c3.098,0.001,6.168,0.001,9.235,0.001c0-0.495,0-0.962,0-1.462
		c-1.756,0-3.482,0-5.223,0c0-0.41,0-0.781,0-1.207c1.757,0,3.493,0,5.222,0c0-0.654,0-1.256,0-1.887
		c-0.786,0.001-1.542,0.001-2.316,0c0-0.414,0-0.799,0-1.228c0.793,0,1.56,0,2.316,0c0-0.644,0-1.245,0-1.874
		c-0.788,0-1.544,0-2.315,0c0-0.416,0-0.801,0-1.228c0.795,0,1.562,0,2.314,0c0-0.644,0-1.248,0-1.876c-0.789,0-1.544,0-2.312,0
		c0-0.415,0-0.8,0-1.225c0.797,0,1.563,0,2.311,0c0-0.647,0-1.25,0-1.882c-0.788,0.001-1.543,0.001-2.308,0.001
		c0-0.415,0-0.798,0-1.21c0.788,0,1.544,0,2.31,0c0-0.644,0-1.258,0-1.909c-1.76,0-3.487,0-5.216,0c0.001-0.411,0.001-0.784,0-1.188
		c1.756,0,3.483,0,5.227,0c0-0.639,0-1.242,0-1.894c-0.784,0-1.549,0-2.331,0c0-0.422,0-0.795,0-1.213c0.788,0,1.555,0,2.329,0
		c0-0.648,0-1.252,0-1.902c-0.788,0-1.554,0-2.324,0c0-0.42,0-0.792,0-1.211c0.793,0,1.559,0,2.318,0c0-0.652,0-1.256,0-1.909
		c-0.79,0-1.554,0-2.328,0c0-0.413,0-0.775,0-1.197c0.79-0.001,1.564-0.001,2.325,0c0-0.666,0-1.269,0-1.902
		c-0.788,0-1.544,0-2.307,0c0-0.417,0-0.8,0-1.214c0.79,0,1.545,0,2.319-0.001c0-0.636,0-1.24,0-1.893
		c-1.756-0.001-3.492-0.001-5.224-0.001C4.762,18.46,4.762,18.089,4.762,17.678z"/>
	<path fill="none" d="M61.282,59.249c-0.503,0-0.959,0-1.481,0c0-1.757,0-3.493,0-5.222c-0.803,0-1.541,0-2.315,0
		c0.001,0.786,0.001,1.542,0,2.316c-0.509,0-0.981,0-1.507,0c0-0.793,0-1.56,0-2.316c-0.79,0-1.528,0-2.301,0
		c0,0.788,0,1.544,0,2.315c-0.51,0-0.982,0-1.507,0c0-0.795,0-1.562,0-2.314c-0.79,0-1.531,0-2.303,0c0,0.789,0,1.544,0,2.312
		c-0.509,0-0.981,0-1.503,0c0-0.797,0-1.563,0-2.311c-0.794,0-1.534,0-2.31,0c0.001,0.788,0.001,1.543,0.001,2.308
		c-0.509,0-0.979,0-1.484,0c0-0.788,0-1.544,0-2.31c-0.791,0-1.544,0-2.344,0c0,1.76,0,3.487,0,5.216
		c-0.505-0.001-0.963-0.001-1.459,0c0-1.756,0-3.483,0-5.227c-0.784,0-1.524,0-2.324,0c0,0.784,0,1.549,0,2.331
		c-0.518,0-0.976,0-1.488,0c0-0.788,0-1.555,0-2.329c-0.797,0-1.538,0-2.336,0c0,0.788,0,1.554,0,2.324c-0.516,0-0.972,0-1.486,0
		c0-0.793,0-1.559,0-2.318c-0.8,0-1.542,0-2.344,0c0,0.79,0,1.554,0,2.328c-0.506,0-0.951,0-1.469,0c0-0.79,0-1.564,0-2.325
		c-0.816,0-1.556,0-2.334,0c0,0.788,0,1.544,0,2.307c-0.511,0-0.981,0-1.49,0c0-0.79,0-1.545,0-2.319c-0.781,0-1.522,0-2.323,0
		c-0.001,1.756-0.001,3.492-0.001,5.224c-0.515,0-0.97,0-1.474,0c0-1.757,0-3.481,0-5.221c-0.791,0-1.532,0-2.326,0
		c0,0.787,0,1.552,0,2.315c-0.524,0-0.994,0-1.501,0c0-0.792,0-1.547,0-2.313c-0.779,0-1.518,0-2.31,0c0,0.788,0,1.553,0,2.327
		c-0.514,0-0.973,0-1.485,0c0-0.787,0-1.552,0-2.326c-0.792,0-1.531,0-2.324,0c0,0.79,0,1.555,0,2.326
		c-0.514-0.001-0.975,0-1.486-0.001c0-0.787,0-1.554,0-2.323c-0.791,0-1.53,0-2.302-0.001c0,0.783,0,1.54,0,2.321
		c-0.508,0-0.982,0-1.507,0c0-0.786,0-1.553,0-2.32c-0.792,0-1.532,0-2.317,0c0,1.753,0,3.479,0,5.214c-0.516,0-0.985,0-1.497,0
		c0-1.76,0-3.486,0-5.213c-0.617,0-1.19,0-1.774,0c0,3.09,0,6.15,0,9.237c20.771,0.001,41.49,0.001,62.206,0.001
		c0-3.098,0-6.168,0-9.235c-0.607,0-1.18,0-1.794,0C61.282,55.782,61.282,57.509,61.282,59.249z"/>
	<g>
		<path fill-rule="evenodd" clip-rule="evenodd" d="M60.301,58.749v-4.964h0.481v4.964H60.301z M41.27,58.742v-4.957h0.459v4.957
			H41.27z M22.199,58.738v-4.954h0.475l-0.001,4.954H22.199z M3.145,58.736l0-4.952h0.496v4.952H3.145z M29.822,55.853v-2.068h0.469
			v2.068H29.822z M37.457,55.848v-2.063h0.488v2.063H37.457z M14.576,55.847v-2.063h0.485v2.063H14.576z M10.766,55.846l0-2.062
			h0.485v2.063L10.766,55.846z M56.479,55.844v-2.059h0.507v2.059H56.479z M52.671,55.843v-2.058h0.507v2.058H52.671z
			 M33.635,55.843v-2.058h0.486v2.058H33.635z M6.958,55.843v-2.059h0.507v2.059H6.958z M48.865,55.84v-2.055h0.503v2.055H48.865z
			 M45.072,55.837v-2.052h0.483l0.001,2.052H45.072z M25.998,55.834l0-2.05h0.491v2.05H25.998z M18.372,55.833v-2.049h0.501v2.049
			H18.372z"/>
		<path d="M0,53.284c0,3.597,0,7.146,0,10.715C21.358,63.999,42.679,64,64,64c0-3.571,0-7.144,0.001-10.715
			C42.668,53.285,21.334,53.284,0,53.284L0,53.284z M21.699,59.238c0.504,0,0.959,0,1.474,0c0-1.731,0-3.468,0.001-5.224
			c0.801,0,1.542,0,2.323,0c0,0.774,0,1.529,0,2.319c0.509,0,0.979,0,1.49,0c0-0.763,0-1.519,0-2.307c0.778,0,1.518,0,2.334,0
			c0,0.761,0,1.535,0,2.325c0.518,0,0.962,0,1.469,0c0-0.774,0-1.538,0-2.328c0.803,0,1.544,0,2.344,0c0,0.76,0,1.525,0,2.318
			c0.515,0,0.971,0,1.486,0c0-0.771,0-1.536,0-2.324c0.798,0,1.539,0,2.336,0c0,0.774,0,1.541,0,2.329c0.513,0,0.971,0,1.488,0
			c0-0.782,0-1.547,0-2.331c0.8,0,1.54,0,2.324,0c0,1.743,0,3.471,0,5.227c0.248-0.001,0.486-0.001,0.727-0.001
			c0.239,0,0.48,0,0.732,0.001c0-1.729,0-3.456,0-5.216c0.8,0,1.553,0,2.344,0c0,0.766,0,1.521,0,2.31c0.506,0,0.976,0,1.484,0
			c0-0.765,0-1.52-0.001-2.308c0.775,0,1.516,0,2.31,0c0,0.748,0,1.514,0,2.311c0.521,0,0.994,0,1.503,0c0-0.768,0-1.522,0-2.312
			c0.771,0,1.513,0,2.303,0c0,0.753,0,1.52,0,2.314c0.524,0,0.997,0,1.507,0c0-0.771,0-1.527,0-2.315c0.772,0,1.511,0,2.301,0
			c0,0.757,0,1.523,0,2.316c0.525,0,0.998,0,1.507,0c0.001-0.774,0.001-1.53,0-2.316c0.774,0,1.513,0,2.315,0
			c0,1.729,0,3.465,0,5.222c0.522,0,0.979,0,1.481,0c0-1.74,0-3.467,0-5.223c0.614,0,1.187,0,1.794,0c0,3.067,0,6.138,0,9.235
			c-20.716,0-41.435,0-62.206-0.001c0-3.087,0-6.147,0-9.237c0.584,0,1.158,0,1.774,0c0,1.727,0,3.453,0,5.213
			c0.511,0,0.981,0,1.497,0c0-1.734,0-3.461,0-5.214c0.785,0,1.524,0,2.317,0c0,0.768,0,1.534,0,2.32c0.525,0,0.999,0,1.507,0
			c0-0.781,0-1.538,0-2.321c0.771,0.001,1.511,0.001,2.302,0.001c0,0.77,0,1.536,0,2.323c0.511,0.001,0.972,0,1.486,0.001
			c0-0.771,0-1.536,0-2.326c0.793,0,1.532,0,2.324,0c0,0.774,0,1.539,0,2.326c0.512,0,0.972,0,1.485,0c0-0.774,0-1.539,0-2.327
			c0.792,0,1.531,0,2.31,0c0,0.767,0,1.521,0,2.313c0.507,0,0.977,0,1.501,0c0-0.764,0-1.528,0-2.315c0.794,0,1.535,0,2.326,0
			C21.699,55.757,21.699,57.481,21.699,59.238L21.699,59.238z"/>
	</g>
	<g>
		<path fill-rule="evenodd" clip-rule="evenodd" d="M5.251,49.427V49.22h4.964v0.207H5.251z M8.156,46.333v-0.228h2.059v0.228
			L8.81,46.334L8.156,46.333z M8.157,43.231v-0.228h2.058v0.228H8.157z M8.16,40.128v-0.225h2.055v0.225H8.16z M8.163,36.813h2.052
			v0.209l-2.052,0.001V36.813z M5.257,33.903v-0.188h4.958v0.188H5.257z M8.152,30.821v-0.213h2.063v0.213H8.152z M8.157,27.706
			v-0.211h2.058v0.211H8.157z M8.147,24.586v-0.197l2.068,0.001v0.196H8.147z M8.166,21.487v-0.214l2.049-0.001v0.215H8.166z
			 M5.262,18.379v-0.201l4.954,0v0.201L5.262,18.379z M8.167,15.283V15.06h2.048v0.224H8.167z M8.153,12.178v-0.21h2.063v0.21H8.153
			z M8.154,9.074v-0.21l2.062,0v0.21H8.154z M8.157,5.989V5.761h2.059v0.228H8.157z M5.264,2.874V2.654l4.952,0v0.219H5.264z"/>
		<path d="M0.001,0C0.001,17.4,0,34.771,0,52.141c3.571,0,7.144,0,10.715,0.001c0-17.38,0.001-34.761,0.001-52.141
			C7.119,0,3.57,0,0.001,0L0.001,0z M9.974,51.389c-3.067,0-6.138,0-9.235-0.001c0-16.877,0-33.756,0.001-50.679
			c3.087,0,6.147,0,9.237,0c0,0.477,0,0.943,0,1.446c-1.727,0-3.453,0-5.213,0c0,0.417,0,0.799,0,1.219c1.734,0,3.461,0,5.214,0
			c0,0.64,0,1.242,0,1.888c-0.768,0-1.534,0-2.32,0c0,0.428,0,0.814,0,1.228c0.781,0,1.538,0,2.321,0
			C9.978,7.118,9.978,7.72,9.978,8.364c-0.77,0-1.536,0-2.323,0c-0.001,0.417,0,0.792-0.001,1.21c0.771,0,1.536,0,2.326,0
			c0,0.646,0,1.249,0,1.894c-0.774,0-1.539,0-2.326,0c0,0.417,0,0.792,0,1.21c0.387,0,0.772,0,1.158,0c0.387,0,0.775,0,1.169,0
			c0,0.645,0,1.248,0,1.881c-0.767,0-1.521,0-2.313,0c0,0.414,0,0.796,0,1.224c0.764,0,1.528,0,2.315,0c0,0.647,0,1.251,0,1.896
			c-1.739,0-3.464,0-5.221,0c0,0.411,0,0.782,0,1.201c1.731,0,3.468,0,5.224,0.001c0,0.652,0,1.256,0,1.893
			c-0.774,0.001-1.529,0.001-2.319,0.001c0,0.414,0,0.797,0,1.214c0.763,0,1.519,0,2.307,0c0,0.633,0,1.236,0,1.902
			c-0.38,0-0.764,0-1.151,0c-0.388,0-0.779,0-1.174,0c0,0.421,0,0.784,0,1.197c0.774,0,1.538,0,2.328,0c0,0.653,0,1.257,0,1.909
			c-0.76,0-1.525,0-2.318,0c0,0.419,0,0.791,0,1.211c0.771,0,1.536,0,2.324,0c0,0.65,0,1.254,0,1.902c-0.774,0-1.541,0-2.329,0
			c0,0.418,0,0.791,0,1.213c0.782,0,1.547,0,2.331,0c0,0.651,0,1.255,0,1.894c-1.743,0-3.471,0-5.227,0
			c0.001,0.404,0.001,0.777,0,1.188c1.729,0,3.456,0,5.216,0c0,0.651,0,1.266,0,1.909c-0.766,0-1.521,0-2.31,0
			c0,0.412,0,0.795,0,1.21c0.765,0,1.52,0,2.308-0.001c0,0.632,0,1.234,0,1.882c-0.748,0-1.514,0-2.311,0c0,0.425,0,0.81,0,1.225
			c0.768,0,1.522,0,2.312,0c0,0.628,0,1.232,0,1.876c-0.753,0-1.52,0-2.314,0c0,0.427,0,0.812,0,1.228c0.771,0,1.527,0,2.315,0
			c0,0.629,0,1.23,0,1.874c-0.757,0-1.523,0-2.316,0c0,0.429,0,0.813,0,1.228c0.387,0.001,0.77,0.001,1.154,0.001
			s0.77,0,1.163-0.001c0,0.631,0,1.232,0,1.887c-1.729,0-3.465,0-5.222,0c0,0.426,0,0.797,0,1.207c1.74,0,3.467,0,5.223,0
			C9.974,50.427,9.974,50.894,9.974,51.389L9.974,51.389z"/>
	</g>
</g>
</svg>
