<?xml version="1.0" encoding="utf-8"?>
<!-- Generator: Adobe Illustrator 16.0.0, SVG Export Plug-In . SVG Version: 6.00 Build 0)  -->
<!DOCTYPE svg PUBLIC "-//W3C//DTD SVG 1.1//EN" "http://www.w3.org/Graphics/SVG/1.1/DTD/svg11.dtd">
<svg version="1.1" xmlns="http://www.w3.org/2000/svg" xmlns:xlink="http://www.w3.org/1999/xlink" x="0px" y="0px" width="64px"
	 height="64px" viewBox="0 0 64 64" enable-background="new 0 0 64 64" xml:space="preserve">
<g>
	<path fill-rule="evenodd" clip-rule="evenodd" fill="#231F20" d="M0,13.805c0.476-1.004,1.257-1.257,2.249-1.223
		c1.719,0.06,3.441,0.002,5.161,0.024c1.132,0.014,1.829,0.952,1.601,2.098C8.86,15.463,8.22,15.988,7.373,16
		c-1.175,0.017-2.351,0.005-3.526,0.005c-0.691,0-0.692,0-0.692,0.752c0,1.185,0.01,2.371-0.005,3.555
		c-0.005,0.364,0.109,0.493,0.443,0.477c0.476-0.022,0.954-0.019,1.43,0.003c0.611,0.028,1.066,0.502,1.084,1.094
		c0.018,0.59-0.415,1.091-1.031,1.156c-0.321,0.034-0.646,0.016-0.97,0.018c-0.3,0.002-0.6,0-0.947,0
		c0,1.406-0.009,2.718,0.017,4.03c0.002,0.104,0.235,0.278,0.37,0.29c0.458,0.037,0.919-0.001,1.379,0.02
		c0.723,0.033,1.198,0.51,1.183,1.159c-0.015,0.625-0.491,1.083-1.187,1.111C4.46,29.689,4,29.686,3.54,29.673
		c-0.285-0.008-0.392,0.115-0.389,0.425c0.01,1.167,0.012,2.333-0.002,3.5c-0.004,0.351,0.127,0.448,0.427,0.436
		c0.459-0.02,0.92-0.015,1.379-0.001c0.684,0.02,1.16,0.493,1.151,1.127c-0.008,0.626-0.455,1.073-1.125,1.099
		c-0.459,0.018-0.92,0.021-1.379,0c-0.323-0.015-0.459,0.095-0.454,0.469c0.016,1.148,0.013,2.297,0.001,3.444
		c-0.003,0.331,0.101,0.472,0.413,0.461c0.459-0.016,0.92-0.019,1.38,0.004c0.701,0.034,1.165,0.497,1.165,1.127
		c-0.001,0.639-0.456,1.093-1.161,1.125c-0.476,0.021-0.956-0.021-1.429,0.025c-0.13,0.013-0.344,0.24-0.347,0.373
		c-0.027,1.185-0.01,2.37-0.02,3.556c-0.003,0.327,0.14,0.413,0.407,0.407c0.477-0.009,0.955-0.017,1.431,0.006
		c0.668,0.029,1.107,0.482,1.117,1.114c0.009,0.62-0.482,1.112-1.147,1.131c-0.46,0.013-0.92,0.018-1.38-0.001
		c-0.298-0.012-0.433,0.083-0.429,0.434c0.013,1.167,0.012,2.333,0,3.5c-0.003,0.312,0.096,0.431,0.383,0.42
		c0.459-0.016,0.92-0.016,1.38,0c0.713,0.023,1.204,0.509,1.192,1.16c-0.011,0.646-0.512,1.114-1.219,1.126
		c-0.558,0.009-1.115,0.002-1.729,0.002c0,1.41-0.001,2.756,0.001,4.102c0,0.389,0.277,0.307,0.481,0.309
		c1.277,0.008,2.556-0.013,3.833,0.017c0.903,0.021,1.568,0.757,1.584,1.676c0.016,0.906-0.649,1.718-1.535,1.733
		c-1.992,0.036-3.986,0.025-5.979,0.005C0.763,63.973,0.35,63.367,0,62.706C0,46.405,0,30.105,0,13.805z"/>
	<path fill-rule="evenodd" clip-rule="evenodd" fill="#231F20" d="M56.321,3.443c-1.489,0-2.899,0-4.387,0
		c0,0.667,0.004,1.309-0.002,1.95c-0.004,0.549-0.199,0.971-0.708,1.158c-0.666,0.245-1.307-0.236-1.347-1.052
		c-0.032-0.661-0.007-1.326-0.007-2.013c-0.146-0.03-0.242-0.065-0.337-0.066c-1.091-0.004-2.181,0.006-3.271-0.009
		c-0.311-0.004-0.426,0.115-0.416,0.451c0.016,0.518,0.02,1.038-0.006,1.555c-0.038,0.77-0.416,1.191-1.028,1.191
		c-0.612,0-0.993-0.423-1.03-1.191c-0.025-0.536,0.011-1.075-0.026-1.609c-0.009-0.137-0.188-0.371-0.293-0.373
		c-1.207-0.026-2.414-0.017-3.71-0.017c0,0.725,0.061,1.412-0.024,2.076c-0.046,0.351-0.287,0.746-0.549,0.97
		c-0.325,0.279-0.793,0.225-1.081-0.105c-0.212-0.244-0.357-0.627-0.392-0.965c-0.061-0.619-0.018-1.251-0.018-1.928
		c-1.328,0-2.611,0-3.99,0c0,0.589,0.059,1.2-0.021,1.79c-0.054,0.405-0.206,0.908-0.478,1.143
		c-0.638,0.551-1.514,0.045-1.597-0.871c-0.042-0.459-0.015-0.925-0.018-1.388c-0.001-0.217,0-0.435,0-0.688
		c-1.336,0-2.62,0-3.977,0c0,0.594,0.024,1.165-0.009,1.731c-0.019,0.323-0.074,0.673-0.215,0.949
		c-0.209,0.41-0.597,0.524-1.02,0.447c-0.457-0.084-0.749-0.39-0.811-0.874c-0.061-0.473-0.045-0.958-0.058-1.439
		c-0.006-0.256-0.001-0.512-0.001-0.81c-1.336,0-2.618,0-3.966,0c0,0.622,0.002,1.228,0,1.833c-0.002,0.562-0.177,1.028-0.69,1.243
		c-0.695,0.291-1.36-0.219-1.412-1.093c-0.032-0.535,0.011-1.075-0.022-1.61c-0.009-0.143-0.172-0.392-0.268-0.394
		c-1.24-0.027-2.48-0.018-3.793-0.018c0,0.475,0,0.895,0,1.315c-0.001,1.111-0.028,2.223,0.005,3.333
		c0.029,0.99-0.783,1.793-1.606,1.779c-0.867-0.015-1.511-0.768-1.516-1.799c-0.01-2.093-0.011-4.186,0.001-6.278
		c0.006-1.048,0.633-1.715,1.604-1.761c0.102-0.005,0.205-0.003,0.307-0.003c14.481,0,28.962,0.001,43.443-0.003
		c0.71,0,1.333,0.166,1.672,0.906c0.131,0.287,0.209,0.633,0.212,0.953c0.019,2.037,0.017,4.074,0.007,6.111
		c-0.005,1.098-0.657,1.86-1.567,1.872c-0.881,0.011-1.58-0.831-1.584-1.922C56.317,6.443,56.321,4.966,56.321,3.443z"/>
	<g>
		<g>
			<path fill="#231F20" d="M26.184,54.99c-4.316-6.225-5.571-14.66-5.666-15.275l0,0c-0.045-0.227-0.6-3.157-0.6-6.923l0,0
				c0.004-3.996,0.613-8.979,3.264-12.632l0,0c0.052-0.063,4.389-6.424,12.009-6.447l0,0c0.363,0,0.658,0.337,0.658,0.755l0,0
				c0,0.414-0.295,0.752-0.658,0.752l0,0c-6.06-0.013-9.952,4.528-10.801,5.64l0,0c-0.123,0.157-0.172,0.23-0.186,0.247l0,0
				c-2.352,3.207-2.979,7.854-2.972,11.684l0,0c0,1.862,0.143,3.523,0.286,4.712l0,0c0.146,1.188,0.285,1.891,0.285,1.891l0,0
				l0.008,0.052c0.002,0,0.073,0.513,0.247,1.409l0,0c0.179,0.897,0.459,2.161,0.874,3.616l0,0c0.827,2.91,2.189,6.573,4.28,9.575
				l0,0c0.226,0.326,0.18,0.803-0.105,1.062l0,0c-0.12,0.113-0.265,0.168-0.408,0.168l0,0C26.506,55.277,26.314,55.176,26.184,54.99
				L26.184,54.99z"/>
		</g>
		<g>
			<path fill="#231F20" d="M43.129,55.109c-0.284-0.259-0.331-0.729-0.103-1.06l0,0c3.14-4.502,4.624-10.5,5.152-13.193l0,0
				c0.175-0.896,0.243-1.408,0.243-1.408l0,0l0.013-0.054c0-0.001,0.137-0.702,0.28-1.889l0,0c0.145-1.188,0.29-2.847,0.29-4.712
				l0,0c0.002-3.829-0.624-8.476-2.986-11.699l0,0c0,0-0.052-0.074-0.172-0.23l0,0c-0.12-0.157-0.304-0.382-0.543-0.659l0,0
				c-0.488-0.552-1.215-1.293-2.155-2.032l0,0c-1.889-1.48-4.631-2.947-8.1-2.947l0,0c-0.363,0-0.658-0.339-0.658-0.753l0,0
				c0-0.417,0.294-0.755,0.658-0.755l0,0c7.619,0.022,11.954,6.382,11.997,6.431l0,0c2.663,3.668,3.271,8.651,3.275,12.646l0,0
				c-0.002,3.778-0.561,6.718-0.604,6.928l0,0c-0.093,0.629-1.355,9.057-5.664,15.271l0,0l0,0c-0.131,0.188-0.32,0.284-0.515,0.284
				l0,0C43.396,55.277,43.252,55.222,43.129,55.109L43.129,55.109z"/>
		</g>
		<g>
			<path fill="#231F20" d="M26.997,55.165c-0.296-0.195-0.372-0.578-0.163-0.857l0,0c2.546-3.411,2.877-11.954,2.873-13.785l0,0
				c0-0.573-0.029-0.883-0.029-0.883l0,0l-0.001-0.038c-0.097-4.003-1.852-6.746-3.815-8.621l0,0
				c-1.963-1.87-4.143-2.84-4.991-3.164l0,0c-0.243-0.093-0.364-0.131-0.38-0.136l0,0c-0.002,0-0.128-0.044-0.387-0.115l0,0
				c-0.257-0.073-0.634-0.169-1.105-0.27l0,0c-0.941-0.196-2.252-0.393-3.703-0.393l0,0c-2.216,0-4.737,0.456-6.875,2.019l0,0
				c0,0.003,0,0-0.016,0.017l0,0c-0.019,0.01-0.046,0.032-0.082,0.062l0,0c-0.07,0.058-0.165,0.149-0.259,0.262l0,0
				c-0.189,0.229-0.349,0.526-0.347,0.844l0,0c0,0.088,0.012,0.183,0.04,0.288l0,0l0.017,0.079c0,0,0,0.007,0.014,0.063l0,0
				c0.015,0.054,0.036,0.14,0.077,0.249l0,0c0.079,0.215,0.225,0.514,0.478,0.823l0,0c0.511,0.616,1.429,1.305,3.335,1.5l0,0
				l0.072,0.013c0.001-0.002,0.113,0.024,0.358,0.053l0,0c0.245,0.029,0.604,0.057,1.046,0.057l0,0
				c1.735-0.006,4.636-0.438,6.924-3.094l0,0l0.001,0.002c0.226-0.266,0.64-0.311,0.925-0.093l0,0
				c0.282,0.212,0.325,0.602,0.099,0.864l0,0c-2.609,3.032-5.997,3.561-7.95,3.553l0,0c-0.892,0-1.501-0.101-1.653-0.132l0,0
				c-2.189-0.219-3.504-1.107-4.203-1.973l0,0c-0.636-0.782-0.791-1.503-0.822-1.689l0,0C6.423,30.474,6.4,30.287,6.4,30.107l0,0
				c0.039-1.408,1.199-2.128,1.227-2.166l0,0c2.433-1.775,5.269-2.267,7.668-2.267l0,0c3.155,0.002,5.603,0.84,5.628,0.847l0,0
				c0.05,0.016,2.471,0.775,4.95,2.785l0,0c2.471,1.998,5.002,5.294,5.117,10.246l0,0c0.007,0.079,0.033,0.425,0.033,0.969l0,0
				c-0.006,1.952-0.312,10.712-3.109,14.487l0,0c-0.127,0.172-0.333,0.269-0.54,0.269l0,0C27.243,55.277,27.113,55.24,26.997,55.165
				L26.997,55.165z"/>
		</g>
		<g>
			<path fill="#231F20" d="M11.645,32.415c-0.988-0.442-1.458-1.175-1.436-1.813l0,0c0.016-0.741,0.447-1.174,0.497-1.241l0,0
				c1.52-1.497,4.227-1.696,6.436-1.719l0,0c1.918,0,3.471,0.218,3.491,0.22l0,0v0.001c0.358,0.051,0.605,0.365,0.553,0.699l0,0
				c-0.005,0.026-0.011,0.051-0.018,0.079l0,0c0.062,0.038,0.118,0.089,0.166,0.151l0,0c0.209,0.279,0.139,0.662-0.157,0.857l0,0
				c-3.773,2.488-6.381,3.031-7.922,3.031l0,0C12.263,32.682,11.728,32.454,11.645,32.415L11.645,32.415z M12.25,31.319
				c0.032,0.015,0.086,0.029,0.171,0.051l0,0c0.168,0.037,0.444,0.082,0.833,0.082l0,0c1.141,0,3.297-0.374,6.591-2.438l0,0
				c-0.116-0.012-0.243-0.023-0.385-0.036l0,0c-0.597-0.054-1.418-0.107-2.319-0.105l0,0c-2.091-0.022-4.574,0.346-5.446,1.295l0,0
				c-0.002,0.007-0.007,0.013-0.016,0.021l0,0c-0.018,0.023-0.043,0.059-0.067,0.105l0,0c-0.051,0.09-0.092,0.21-0.09,0.31l0,0
				c0.017,0.148,0.009,0.354,0.704,0.708l0,0C12.231,31.313,12.238,31.316,12.25,31.319L12.25,31.319z"/>
		</g>
		<g>
			<path fill="#231F20" d="M42.356,55.009c-2.797-3.773-3.103-12.535-3.107-14.486l0,0c0-0.545,0.023-0.897,0.029-0.971l0,0
				c0.117-4.953,2.646-8.249,5.119-10.246l0,0c2.479-2.01,4.897-2.768,4.932-2.779l0,0c0.044-0.015,2.487-0.852,5.645-0.854l0,0
				c2.397,0,5.233,0.493,7.65,2.258l0,0c0.041,0.048,1.202,0.768,1.24,2.177l0,0c0,0.18-0.02,0.373-0.072,0.567l0,0
				c-0.035,0.197-0.193,0.912-0.821,1.684l0,0c-0.697,0.864-2.014,1.753-4.206,1.973l0,0c-0.15,0.029-0.761,0.132-1.651,0.132l0,0
				c-1.956,0.009-5.344-0.521-7.95-3.552l0,0l0,0c-0.229-0.264-0.185-0.653,0.099-0.865l0,0c0.281-0.213,0.696-0.171,0.925,0.092
				l0,0c2.289,2.656,5.188,3.088,6.925,3.094l0,0c0.439,0,0.801-0.027,1.045-0.057l0,0c0.246-0.028,0.355-0.053,0.357-0.053l0,0
				l0.07-0.014c3.297-0.353,3.761-2.169,3.893-2.573l0,0c0.016-0.057,0.018-0.063,0.018-0.063l0,0l0.017-0.079
				c0.026-0.103,0.038-0.199,0.038-0.287l0,0c0.025-0.549-0.546-1.081-0.686-1.17l0,0c-0.018-0.016-0.018-0.016-0.034-0.026l0,0
				c-2.121-1.551-4.64-2.006-6.857-2.006l0,0c-2.18,0-4.035,0.444-4.807,0.662l0,0c-0.259,0.074-0.388,0.116-0.402,0.121l0,0
				c0,0-0.119,0.037-0.36,0.131l0,0c-0.242,0.094-0.591,0.241-1.021,0.445l0,0c-0.845,0.409-1.985,1.049-3.124,1.971l0,0
				c-2.277,1.858-4.554,4.797-4.664,9.369l0,0l-0.001,0.038c0.001,0.002-0.029,0.314-0.029,0.883l0,0
				c-0.007,1.828,0.324,10.372,2.874,13.786l0,0c0.205,0.28,0.13,0.661-0.168,0.857l0,0c-0.114,0.073-0.244,0.11-0.373,0.11l0,0
				C42.688,55.277,42.483,55.182,42.356,55.009L42.356,55.009z"/>
		</g>
		<g>
			<path fill="#231F20" d="M57.014,32.682c-1.541,0-4.149-0.543-7.919-3.031l0,0c-0.296-0.196-0.368-0.579-0.158-0.857l0,0
				c0.047-0.062,0.103-0.115,0.164-0.151l0,0c-0.006-0.026-0.014-0.052-0.018-0.079l0,0c-0.054-0.335,0.195-0.648,0.556-0.701l0,0
				c0.018,0,1.573-0.22,3.491-0.22l0,0c2.21,0.021,4.915,0.222,6.452,1.732l0,0c0.036,0.057,0.467,0.487,0.482,1.229l0,0
				c0.02,0.638-0.45,1.37-1.439,1.813l0,0c-0.081,0.039-0.614,0.265-1.603,0.265l0,0C57.019,32.682,57.016,32.682,57.014,32.682
				L57.014,32.682z M57.014,31.451c0.639,0,0.968-0.115,1.025-0.137l0,0c0.696-0.355,0.693-0.562,0.708-0.709l0,0
				c0.01-0.152-0.117-0.366-0.162-0.419l0,0c-0.002-0.006-0.006-0.008-0.008-0.011l0,0l0,0l-0.001-0.002
				c-0.903-0.959-3.368-1.323-5.446-1.298l0,0c-0.907-0.002-1.735,0.05-2.337,0.105l0,0c-0.137,0.011-0.259,0.022-0.368,0.036l0,0
				C53.717,31.076,55.873,31.451,57.014,31.451L57.014,31.451z"/>
		</g>
		<g>
			<path fill="#231F20" d="M27.227,20.299c0-0.339,0.294-0.615,0.657-0.615l0,0c0.363,0,0.658,0.277,0.658,0.615l0,0
				c0.004,0.426,0.313,0.664,0.549,0.664l0,0c0.235,0,0.542-0.24,0.547-0.664l0,0c0-0.339,0.295-0.615,0.659-0.615l0,0
				c0.362,0,0.658,0.277,0.658,0.615l0,0c-0.002,0.99-0.767,1.885-1.862,1.896l0,0C27.992,22.182,27.229,21.29,27.227,20.299
				L27.227,20.299z"/>
		</g>
		<g>
			<path fill="#231F20" d="M32.039,19.834c0-0.342,0.292-0.618,0.656-0.618l0,0c0.359,0,0.656,0.277,0.656,0.618l0,0
				c0.004,0.427,0.313,0.664,0.546,0.664l0,0c0.236,0,0.545-0.238,0.551-0.664l0,0c0-0.342,0.293-0.618,0.657-0.618l0,0
				c0.36,0,0.656,0.277,0.656,0.618l0,0c-0.002,0.99-0.768,1.886-1.863,1.895l0,0C32.801,21.716,32.039,20.823,32.039,19.834
				L32.039,19.834z"/>
		</g>
		<g>
			<path fill="#231F20" d="M29.641,20.12c-0.009-0.075-0.011-0.14-0.011-0.198l0,0c-0.004-0.913,0.661-1.76,1.684-1.858l0,0l0,0
				c0.064-0.008,0.117-0.008,0.155-0.008l0,0c1.023,0.013,1.791,0.801,1.882,1.74l0,0l0,0c0.033,0.339-0.234,0.636-0.596,0.668l0,0
				c-0.361,0.031-0.683-0.219-0.716-0.558l0,0c-0.038-0.4-0.35-0.629-0.571-0.617l0,0c-0.011-0.003-0.011-0.002-0.011-0.002l0,0
				l-0.03,0.003c-0.22,0.01-0.479,0.246-0.485,0.633l0,0c0,0.026,0,0.049,0.004,0.068l0,0c0.038,0.339-0.224,0.642-0.586,0.676l0,0
				c-0.021,0.002-0.047,0.003-0.069,0.003l0,0C29.963,20.669,29.676,20.436,29.641,20.12L29.641,20.12z"/>
		</g>
		<g>
			<path fill="#231F20" d="M28.177,57.916c0-1.135,0.98-2.053,2.192-2.053l0,0c1.212,0,2.19,0.918,2.192,2.053l0,0
				c0,1.137-0.981,2.05-2.192,2.05l0,0C29.158,59.967,28.177,59.05,28.177,57.916L28.177,57.916z M29.492,57.916
				c0.001,0.453,0.393,0.818,0.877,0.818l0,0c0.485,0,0.876-0.365,0.878-0.818l0,0c-0.001-0.453-0.393-0.819-0.878-0.821l0,0
				C29.885,57.097,29.493,57.463,29.492,57.916L29.492,57.916z"/>
		</g>
		<g>
			<path fill="#231F20" d="M30.366,62.759c-0.206,0-0.355-0.014-0.436-0.022l0,0c-2.649-0.07-4.585-2.41-4.604-4.767l0,0
				c0-1.057,0.404-2.032,1.074-2.784l0,0c0.852-0.959,2.144-1.573,3.584-1.573l0,0c0.961,0,1.86,0.276,2.601,0.743l0,0h0.002
				c0.299,0.188,0.38,0.57,0.178,0.852l0,0c-0.205,0.282-0.613,0.355-0.913,0.167l0,0c-0.536-0.336-1.174-0.532-1.869-0.532l0,0
				c-1.035,0-1.958,0.436-2.572,1.131l0,0c-0.483,0.543-0.77,1.234-0.77,1.997l0,0c-0.004,0.867,0.384,1.776,1.01,2.448l0,0
				c0.625,0.673,1.455,1.091,2.332,1.091l0,0l0.116,0.012c0.001,0,0.001,0.002,0.05,0.005l0,0c0.046,0.002,0.121,0.009,0.217,0.009
				l0,0c0.406,0,1.178-0.084,1.962-0.642l0,0c1.187-0.859,2.038-1.006,2.541-0.999l0,0c0.1,0,0.176,0.006,0.213,0.006l0,0
				c0.362,0,0.655,0.273,0.655,0.614l0,0c0,0.338-0.293,0.614-0.655,0.614l0,0c-0.09,0-0.153-0.001-0.213-0.001l0,0
				c-0.27,0.011-0.669,0-1.745,0.746l0,0c-1.067,0.759-2.145,0.891-2.746,0.891l0,0C30.374,62.759,30.369,62.759,30.366,62.759
				L30.366,62.759z"/>
		</g>
		<g>
			<path fill="#231F20" d="M30.834,62.399L30.834,62.399c-0.155-0.311-0.015-0.673,0.316-0.817l0,0
				c0.326-0.144,0.714-0.019,0.872,0.287l0,0c0,0,0.003,0.01,0.008,0.017l0,0c0.011,0.02,0.03,0.052,0.062,0.092l0,0
				c0.063,0.081,0.164,0.192,0.313,0.315l0,0c0.3,0.226,0.768,0.469,1.584,0.473l0,0l1.097,0.005c0.36,0,0.658,0.274,0.658,0.613
				l0,0c0,0.34-0.298,0.616-0.658,0.616l0,0h-1.097c-0.003,0-0.008,0-0.011,0l0,0C31.703,63.994,30.862,62.49,30.834,62.399
				L30.834,62.399z"/>
		</g>
		<g>
			<path fill="#231F20" d="M39.322,20.299c0-0.339,0.291-0.615,0.655-0.615l0,0c0.362,0,0.656,0.277,0.656,0.615l0,0
				c0.006,0.426,0.314,0.664,0.547,0.664l0,0c0.238,0,0.543-0.24,0.547-0.664l0,0c0-0.339,0.295-0.615,0.659-0.615l0,0
				c0.362,0,0.657,0.277,0.657,0.615l0,0c-0.004,0.99-0.768,1.885-1.864,1.896l0,0C40.087,22.182,39.322,21.29,39.322,20.299
				L39.322,20.299z"/>
		</g>
		<g>
			<path fill="#231F20" d="M34.513,19.834c0-0.342,0.295-0.618,0.656-0.618l0,0c0.363,0,0.66,0.277,0.66,0.618l0,0
				c0.003,0.427,0.313,0.664,0.543,0.664l0,0c0.239,0,0.542-0.238,0.55-0.664l0,0c0-0.342,0.29-0.618,0.655-0.618l0,0
				c0.361,0,0.658,0.277,0.658,0.618l0,0c-0.001,0.99-0.765,1.886-1.865,1.895l0,0C35.278,21.716,34.515,20.823,34.513,19.834
				L34.513,19.834z"/>
		</g>
		<g>
			<path fill="#231F20" d="M39.929,20.668c-0.365-0.025-0.633-0.321-0.604-0.661l0,0c0-0.034,0.004-0.062,0.004-0.083l0,0
				c-0.004-0.385-0.265-0.623-0.509-0.636l0,0c0,0.002,0,0.002-0.002,0l0,0c-0.004,0-0.008,0-0.016,0.002l0,0
				c-0.219-0.016-0.528,0.214-0.57,0.618l0,0c-0.033,0.339-0.354,0.588-0.714,0.558l0,0c-0.362-0.029-0.628-0.33-0.596-0.669l0,0
				c0.09-0.938,0.857-1.726,1.88-1.739l0,0c0.048,0,0.109,0,0.159,0.008l0,0c1.022,0.095,1.685,0.945,1.682,1.857l0,0
				c0,0.062-0.002,0.125-0.008,0.183l0,0c-0.025,0.318-0.313,0.563-0.653,0.563l0,0C39.964,20.668,39.945,20.668,39.929,20.668
				L39.929,20.668z"/>
		</g>
		<g>
			<path fill="#231F20" d="M37.715,57.916c0-1.135,0.979-2.053,2.19-2.053l0,0c1.211,0,2.189,0.918,2.189,2.053l0,0
				c0,1.137-0.982,2.05-2.189,2.05l0,0C38.695,59.967,37.715,59.05,37.715,57.916L37.715,57.916z M39.905,58.734
				c0.485,0,0.876-0.365,0.876-0.816l0,0c0-0.455-0.393-0.821-0.876-0.823l0,0c-0.485,0.002-0.879,0.368-0.879,0.823l0,0
				C39.027,58.369,39.42,58.734,39.905,58.734L39.905,58.734z"/>
		</g>
		<g>
			<path fill="#231F20" d="M37.151,61.868c-1.077-0.75-1.479-0.738-1.744-0.75l0,0c-0.062,0-0.127,0.002-0.215,0.002l0,0
				c-0.36,0-0.658-0.276-0.658-0.613l0,0c0-0.343,0.296-0.615,0.658-0.615l0,0c0.038,0,0.113-0.005,0.215-0.007l0,0
				c0.498-0.008,1.354,0.14,2.539,1.003l0,0c0.784,0.554,1.557,0.64,1.963,0.64l0,0c0.096,0,0.169-0.005,0.218-0.009l0,0
				c0.046-0.002,0.053-0.007,0.053-0.007l0,0l0.112-0.01c0.879,0,1.706-0.416,2.338-1.09l0,0c0.62-0.671,1.012-1.581,1.01-2.448l0,0
				c0-0.764-0.288-1.452-0.771-1.999l0,0c-0.615-0.692-1.537-1.131-2.574-1.131l0,0c-0.692,0-1.331,0.198-1.866,0.534l0,0v0.001
				c-0.302,0.187-0.712,0.116-0.912-0.17l0,0c-0.206-0.28-0.124-0.665,0.178-0.852l0,0c0.739-0.469,1.637-0.744,2.6-0.744l0,0
				c1.44,0,2.733,0.615,3.584,1.576l0,0c0.671,0.753,1.074,1.728,1.074,2.784l0,0c-0.018,2.357-1.955,4.695-4.604,4.765l0,0
				c-0.082,0.013-0.232,0.024-0.434,0.024l0,0c-0.009,0-0.011,0-0.015,0l0,0C39.298,62.759,38.219,62.624,37.151,61.868
				L37.151,61.868z"/>
		</g>
		<g>
			<path fill="#231F20" d="M34.533,63.38c0-0.342,0.296-0.618,0.658-0.618l0,0h1.096c1.497-0.003,1.927-0.855,1.966-0.894l0,0v0.001
				c0.155-0.302,0.542-0.431,0.869-0.288l0,0c0.328,0.146,0.47,0.51,0.317,0.818l0,0c-0.027,0.092-0.873,1.599-3.154,1.595l0,0
				H35.19C34.829,63.994,34.533,63.718,34.533,63.38L34.533,63.38z M38.249,61.877L38.249,61.877L38.249,61.877L38.249,61.877
				L38.249,61.877L38.249,61.877z"/>
		</g>
	</g>
</g>
</svg>
