<?xml version="1.0" encoding="utf-8"?>
<!-- Generator: Adobe Illustrator 16.0.0, SVG Export Plug-In . SVG Version: 6.00 Build 0)  -->
<!DOCTYPE svg PUBLIC "-//W3C//DTD SVG 1.1//EN" "http://www.w3.org/Graphics/SVG/1.1/DTD/svg11.dtd">
<svg version="1.1" id="Capa_1" xmlns="http://www.w3.org/2000/svg" xmlns:xlink="http://www.w3.org/1999/xlink" x="0px" y="0px"
	 width="64px" height="64px" viewBox="0 0 64 64" enable-background="new 0 0 64 64" xml:space="preserve">
<g>
	<path d="M0,53.285C0,56.881,0,60.43,0,64c21.357,0,42.68,0,64,0c0-3.57,0-7.145,0.001-10.715C42.668,53.285,21.334,53.285,0,53.285
		z M63.075,63.26c-20.716,0-41.435,0-62.206,0c0-3.088,0-6.148,0-9.238c0.584,0,1.158,0,1.774,0c0,1.729,0,3.453,0,5.213
		c0.511,0,0.981,0,1.497,0c0-1.732,0-3.461,0-5.213c0.785,0,1.524,0,2.317,0c0,0.768,0,1.533,0,2.32c0.525,0,0.999,0,1.507,0
		c0-0.781,0-1.539,0-2.322c0.771,0.002,1.511,0.002,2.302,0.002c0,0.77,0,1.535,0,2.322c0.511,0.002,0.972,0,1.486,0.002
		c0-0.771,0-1.537,0-2.326c0.793,0,1.532,0,2.324,0c0,0.773,0,1.539,0,2.326c0.512,0,0.972,0,1.485,0c0-0.775,0-1.539,0-2.328
		c0.792,0,1.531,0,2.31,0c0,0.768,0,1.521,0,2.314c0.507,0,0.977,0,1.501,0c0-0.766,0-1.529,0-2.316c0.794,0,1.535,0,2.326,0
		c0.001,1.742,0.001,3.465,0.001,5.223c0.504,0,0.959,0,1.474,0c0-1.73,0-3.469,0.001-5.225c0.801,0,1.542,0,2.323,0
		c0,0.775,0,1.529,0,2.32c0.509,0,0.979,0,1.489,0c0-0.764,0-1.52,0-2.309c0.779,0,1.519,0,2.334,0c0,0.762,0,1.535,0,2.326
		c0.519,0,0.963,0,1.47,0c0-0.773,0-1.539,0-2.328c0.803,0,1.544,0,2.344,0c0,0.76,0,1.525,0,2.318c0.515,0,0.972,0,1.486,0
		c0-0.771,0-1.537,0-2.324c0.798,0,1.539,0,2.336,0c0,0.773,0,1.541,0,2.328c0.513,0,0.971,0,1.487,0c0-0.781,0-1.547,0-2.33
		c0.801,0,1.541,0,2.324,0c0,1.742,0,3.471,0,5.227c0.248,0,0.486,0,0.728,0c0.239,0,0.479,0,0.731,0c0-1.729,0-3.455,0-5.217
		c0.801,0,1.553,0,2.344,0c0,0.768,0,1.521,0,2.311c0.507,0,0.977,0,1.484,0c0-0.766,0-1.52,0-2.309c0.774,0,1.516,0,2.309,0
		c0,0.748,0,1.516,0,2.313c0.521,0,0.994,0,1.504,0c0-0.77,0-1.523,0-2.313c0.771,0,1.513,0,2.303,0c0,0.752,0,1.52,0,2.314
		c0.523,0,0.997,0,1.507,0c0-0.771,0-1.527,0-2.316c0.772,0,1.511,0,2.302,0c0,0.758,0,1.523,0,2.316c0.524,0,0.998,0,1.506,0
		c0.002-0.773,0.002-1.529,0-2.316c0.774,0,1.514,0,2.315,0c0,1.73,0,3.467,0,5.223c0.522,0,0.979,0,1.481,0c0-1.74,0-3.467,0-5.223
		c0.613,0,1.187,0,1.794,0C63.075,57.092,63.075,60.164,63.075,63.26z"/>
	<path d="M10.716,0.001C7.119,0,3.57,0,0.001,0C0.001,17.4,0,34.771,0,52.141c3.57,0,7.145,0,10.715,0.002
		C10.715,34.762,10.716,17.381,10.716,0.001z M9.986,20.774c-0.774,0.001-1.529,0.001-2.319,0.001c0,0.414,0,0.797,0,1.214
		c0.763,0,1.519,0,2.308,0c0,0.633,0,1.236,0,1.902c-0.381,0-0.765,0-1.151,0c-0.388,0-0.779,0-1.175,0c0,0.421,0,0.784,0,1.197
		c0.774,0,1.539,0,2.328,0c0,0.653,0,1.257,0,1.909c-0.76,0-1.524,0-2.317,0c0,0.419,0,0.791,0,1.211c0.771,0,1.536,0,2.323,0
		c0,0.65,0,1.254,0,1.902c-0.773,0-1.541,0-2.328,0c0,0.418,0,0.791,0,1.213c0.781,0,1.547,0,2.33,0c0,0.651,0,1.255,0,1.894
		c-1.742,0-3.471,0-5.227,0c0.001,0.404,0.001,0.777,0,1.188c1.729,0,3.456,0,5.217,0c0,0.651,0,1.266,0,1.909
		c-0.767,0-1.521,0-2.311,0c0,0.412,0,0.795,0,1.209c0.766,0,1.52,0,2.309,0c0,0.631,0,1.233,0,1.881c-0.748,0-1.515,0-2.312,0
		c0,0.426,0,0.811,0,1.226c0.769,0,1.522,0,2.312,0c0,0.628,0,1.231,0,1.876c-0.752,0-1.52,0-2.313,0c0,0.428,0,0.813,0,1.229
		c0.771,0,1.526,0,2.315,0c0,0.629,0,1.229,0,1.873c-0.758,0-1.523,0-2.316,0c0,0.43,0,0.813,0,1.229
		c0.387,0.001,0.77,0.001,1.154,0.001c0.383,0,0.77,0,1.162-0.001c0,0.631,0,1.232,0,1.887c-1.729,0-3.465,0-5.222,0
		c0,0.426,0,0.797,0,1.207c1.74,0,3.468,0,5.224,0c-0.002,0.497-0.002,0.965-0.002,1.459c-3.067,0-6.139,0-9.236,0
		c0-16.878,0-33.757,0.001-50.68c3.087,0,6.146,0,9.236,0c0,0.477,0,0.943,0,1.446c-1.727,0-3.453,0-5.213,0
		c0,0.417,0,0.799,0,1.219c1.734,0,3.461,0,5.215,0c0,0.64,0,1.242,0,1.888c-0.769,0-1.535,0-2.32,0c0,0.428,0,0.814,0,1.228
		c0.781,0,1.537,0,2.32,0c0,0.628,0,1.229,0,1.874c-0.771,0-1.537,0-2.324,0c0,0.417,0,0.792,0,1.21c0.771,0,1.535,0,2.326,0
		c0,0.646,0,1.249,0,1.894c-0.774,0-1.539,0-2.326,0c0,0.417,0,0.792,0,1.21c0.387,0,0.771,0,1.158,0s0.774,0,1.168,0
		c0,0.646,0,1.248,0,1.881c-0.767,0-1.521,0-2.313,0c0,0.414,0,0.796,0,1.224c0.764,0,1.527,0,2.314,0c0,0.647,0,1.251,0,1.896
		c-1.738,0-3.463,0-5.221,0c0,0.411,0,0.782,0,1.201c1.731,0,3.469,0,5.225,0.001C9.986,19.533,9.986,20.137,9.986,20.774z"/>
</g>
</svg>
