<?xml version="1.0" encoding="utf-8"?>
<!-- Generator: Adobe Illustrator 16.0.0, SVG Export Plug-In . SVG Version: 6.00 Build 0)  -->
<!DOCTYPE svg PUBLIC "-//W3C//DTD SVG 1.1//EN" "http://www.w3.org/Graphics/SVG/1.1/DTD/svg11.dtd">
<svg version="1.1" id="Capa_1" xmlns="http://www.w3.org/2000/svg" xmlns:xlink="http://www.w3.org/1999/xlink" x="0px" y="0px"
	 width="64px" height="64px" viewBox="0 0 64 64" enable-background="new 0 0 64 64" xml:space="preserve">
<g>
	<g>
		<path fill="#231F20" d="M4.002,63.996c-0.357,0-0.692-0.139-0.943-0.389l0,0c-0.252-0.251-0.391-0.587-0.391-0.938l0,0v-8.004
			c0-0.352,0.143-0.691,0.391-0.942l0,0c0.248-0.248,0.592-0.39,0.943-0.39l0,0h7.999c0.356,0,0.69,0.139,0.942,0.39l0,0
			c0.252,0.251,0.388,0.587,0.388,0.942l0,0v8.004c0,0.351-0.137,0.687-0.388,0.938l0,0c-0.255,0.25-0.587,0.389-0.942,0.389l0,0
			H4.002L4.002,63.996z M12,62.668v-1.34V62.668L12,62.668z M5.334,61.33h5.334v-5.334H5.334V61.33L5.334,61.33z"/>
	</g>
	<g>
		<path fill="#231F20" d="M20,63.996c-0.355,0-0.691-0.139-0.943-0.389l0,0c-0.252-0.251-0.39-0.587-0.39-0.938l0,0V44.004
			c0-0.354,0.143-0.695,0.39-0.943l0,0c0.248-0.249,0.592-0.391,0.943-0.391l0,0h7.999c0.354,0,0.69,0.14,0.942,0.391l0,0
			c0.252,0.25,0.389,0.585,0.389,0.943l0,0V62.67c0,0.352-0.137,0.688-0.389,0.938l0,0c-0.252,0.25-0.588,0.39-0.942,0.39l0,0H20
			V63.996z M28,62.668v-1.34V62.668L28,62.668z M21.334,61.33h5.334V45.332h-5.334V61.33L21.334,61.33z"/>
	</g>
	<g>
		<path fill="#231F20" d="M36.002,63.996c-0.358,0-0.692-0.139-0.945-0.389l0,0c-0.25-0.251-0.391-0.587-0.391-0.938l0,0V30.668
			c0-0.352,0.143-0.695,0.391-0.943l0,0c0.248-0.246,0.59-0.387,0.945-0.387l0,0h7.996c0.357,0,0.691,0.136,0.944,0.389l0,0
			c0.25,0.251,0.388,0.587,0.388,0.941l0,0V62.67c0,0.35-0.138,0.686-0.388,0.937l0,0c-0.253,0.25-0.587,0.39-0.944,0.39l0,0H36.002
			L36.002,63.996z M43.998,62.668v-1.34V62.668L43.998,62.668z M37.33,61.33h5.336V32H37.33V61.33L37.33,61.33z"/>
	</g>
	<g>
		<path fill="#231F20" d="M52,63.996c-0.358,0-0.695-0.139-0.945-0.389l0,0c-0.252-0.251-0.387-0.587-0.387-0.938l0,0V17.335
			c0-0.353,0.139-0.695,0.387-0.941l0,0c0.248-0.251,0.593-0.388,0.945-0.388l0,0h8c0.354,0,0.69,0.135,0.939,0.388l0,0
			c0.251,0.25,0.391,0.583,0.391,0.941l0,0V62.67c0,0.35-0.14,0.686-0.391,0.937l0,0c-0.251,0.25-0.585,0.39-0.939,0.39l0,0H52
			L52,63.996z M60,62.668v-1.34V62.668L60,62.668z M53.332,61.33h5.336V18.669h-5.336V61.33L53.332,61.33z"/>
	</g>
	<g>
		<path fill="#231F20" d="M1.335,64C0.597,64,0,63.4,0,62.666l0,0c0-0.736,0.599-1.334,1.336-1.334l0,0h61.33
			c0.736,0,1.334,0.598,1.334,1.334l0,0C64,63.4,63.402,64,62.666,64l0,0H1.335L1.335,64z"/>
	</g>
	<g>
		<path fill="#231F20" d="M2.988,50.2c-0.479-0.557-0.416-1.397,0.146-1.88l0,0l55.996-48c0.562-0.48,1.402-0.41,1.881,0.143l0,0
			c0.479,0.563,0.416,1.405-0.143,1.884l0,0l-56.002,48c-0.251,0.213-0.558,0.318-0.862,0.318l0,0
			C3.627,50.666,3.251,50.508,2.988,50.2L2.988,50.2z"/>
	</g>
	<g>
		<path fill="#231F20" d="M58.666,9.336V2.668H52c-0.738,0-1.336-0.599-1.336-1.332l0,0c0-0.737,0.598-1.335,1.336-1.335l0,0h7.998
			c0.354,0,0.692,0.14,0.941,0.391l0,0c0.253,0.25,0.391,0.585,0.391,0.943l0,0v7.997c0,0.736-0.598,1.336-1.332,1.336l0,0
			C59.262,10.669,58.666,10.072,58.666,9.336L58.666,9.336z"/>
	</g>
</g>
</svg>
