<?xml version="1.0" encoding="utf-8"?>
<!-- Generator: Adobe Illustrator 16.0.0, SVG Export Plug-In . SVG Version: 6.00 Build 0)  -->
<!DOCTYPE svg PUBLIC "-//W3C//DTD SVG 1.1//EN" "http://www.w3.org/Graphics/SVG/1.1/DTD/svg11.dtd">
<svg version="1.1" id="Capa_1" xmlns="http://www.w3.org/2000/svg" xmlns:xlink="http://www.w3.org/1999/xlink" x="0px" y="0px"
	 width="64px" height="64px" viewBox="0 0 64 64" enable-background="new 0 0 64 64" xml:space="preserve">
<g>
	<g>
		<path fill="#231F20" d="M32.609,3c6.754,0,12.686,0.47,16.271,1.29c0.045,0.01,0.091,0.019,0.136,0.026
			C49.539,4.557,49.997,5.048,50,5.727l0,0c0,0.112-0.003,0.164,0,0.164c0,0,0.001,0,0.001-0.002
			c-0.015,0.054-0.028,0.105-0.042,0.158c-0.175,0.753-0.918,1.301-1.725,1.301L44.83,7.301c-0.014,0-0.028,0-0.042,0
			c-1.235,0-2.349,0.76-2.796,1.915c-1.318,3.398-0.506,6.785,2.283,9.577c0.074,0.091,0.154,0.18,0.24,0.262
			c3.266,3.161,5.063,7.328,5.063,11.733V58.63l-0.161,0.64C49.047,60.309,48.027,61,46.854,61H17.137
			c-1.15,0-2.155-0.666-2.544-1.674L14.41,58.4V30.79c0-4.406,1.799-8.573,5.066-11.732c0.087-0.084,0.168-0.174,0.243-0.267
			c2.764-2.765,3.584-6.125,2.308-9.503c-0.441-1.167-1.558-1.939-2.806-1.939h-3.392c-0.87,0-1.618-0.553-1.779-1.313
			c-0.012-0.058-0.026-0.113-0.041-0.169c-0.104-0.38,0.324-1.266,0.782-1.449c0.051-0.021,0.102-0.042,0.151-0.065
			c0.11-0.052,0.202-0.09,0.276-0.116C19.249,3.472,25.887,3,32.609,3 M32.609,0c-6.875,0-13.806,0.48-18.123,1.32
			c-0.282,0.08-0.551,0.188-0.813,0.313c-1.857,0.745-3.067,3.159-2.559,5.023c0.446,2.106,2.385,3.692,4.714,3.692h3.392
			c0.892,2.36,0.276,4.541-1.846,6.537l0.016,0.017c-3.687,3.564-5.98,8.474-5.98,13.889v27.907l0.28,1.418
			C12.416,62.355,14.56,64,17.138,64h29.715c2.571,0,4.726-1.645,5.445-3.885l0.279-1.113V30.789c0-5.415-2.291-10.32-5.977-13.889
			l0.014-0.017c-2.139-2.014-2.749-4.207-1.827-6.584l3.403,0.047c2.299,0,4.207-1.548,4.688-3.619
			c0.103-0.347,0.118-0.663,0.118-1.002l0,0c0,0,0-0.002,0-0.01c-0.01-2.092-1.473-3.839-3.469-4.397c0.018,0.046,0,0,0.018,0.046
			C45.42,0.42,39.041,0,32.609,0L32.609,0z M52.998,4.804c0,0,0.001,0.813,0.002,0.913c0,0.003,0,0.007,0,0.011
			C52.999,5.035,52.998,4.804,52.998,4.804L52.998,4.804z"/>
	</g>
	<g>
		<path fill="#231F20" d="M26.744,31.295v9.035l10.248-10.688c0.492-0.516,0.911-0.896,1.257-1.143s0.806-0.369,1.38-0.369
			c0.75,0,1.356,0.22,1.819,0.659s0.694,0.976,0.694,1.608c0,0.762-0.393,1.518-1.178,2.268l-6.346,6.012l7.313,10.477
			c0.516,0.727,0.902,1.362,1.16,1.907s0.387,1.075,0.387,1.591c0,0.574-0.226,1.072-0.677,1.494s-1.063,0.633-1.837,0.633
			c-0.727,0-1.318-0.155-1.775-0.466s-0.844-0.724-1.16-1.239s-0.598-0.984-0.844-1.406l-6.17-9.492l-4.271,4.096v5.326
			c0,1.078-0.246,1.878-0.738,2.399s-1.125,0.782-1.898,0.782c-0.445,0-0.873-0.117-1.283-0.352s-0.727-0.551-0.949-0.949
			c-0.164-0.328-0.264-0.709-0.299-1.143s-0.053-1.061-0.053-1.881v-19.16c0-1.055,0.231-1.846,0.694-2.373s1.093-0.791,1.89-0.791
			c0.785,0,1.421,0.261,1.907,0.782S26.744,30.229,26.744,31.295z"/>
	</g>
</g>
</svg>
