<?xml version="1.0" encoding="utf-8"?>
<!-- Generator: Adobe Illustrator 16.0.0, SVG Export Plug-In . SVG Version: 6.00 Build 0)  -->
<!DOCTYPE svg PUBLIC "-//W3C//DTD SVG 1.1//EN" "http://www.w3.org/Graphics/SVG/1.1/DTD/svg11.dtd">
<svg version="1.1" xmlns="http://www.w3.org/2000/svg" xmlns:xlink="http://www.w3.org/1999/xlink" x="0px" y="0px" width="64px"
	 height="64px" viewBox="0 0 64 64" enable-background="new 0 0 64 64" xml:space="preserve">
<g>
	<path fill="#231F20" d="M37.09,43.107H17.545c-0.747,0-1.359,0.449-1.359,0.996s0.613,0.994,1.359,0.994H37.09
		c0.746,0,1.357-0.447,1.357-0.994S37.836,43.107,37.09,43.107z M37.09,53.057H17.545c-0.747,0-1.359,0.447-1.359,0.994
		c0,0.549,0.613,0.994,1.359,0.994H37.09c0.746,0,1.357-0.445,1.357-0.994C38.449,53.504,37.836,53.057,37.09,53.057z M37.09,33.158
		H17.545c-0.747,0-1.359,0.447-1.359,0.994c0,0.549,0.613,0.996,1.359,0.996H37.09c0.746,0,1.357-0.446,1.357-0.996
		C38.447,33.605,37.836,33.158,37.09,33.158z M42.375,10.784h-6.092v2.395h6.092V10.784z M49.686,10.784h-6.092v2.395h6.092V10.784z
		 M62.781,0H31.108c-0.671,0-1.219,0.539-1.219,1.199v3.104h-0.202c-0.746,0-1.357-0.602-1.357-1.336V1.66
		c0-0.735-0.612-1.335-1.36-1.335h-7.399c-0.748,0-1.358,0.6-1.358,1.335v1.308c0,0.734-0.612,1.336-1.358,1.336h-1.108
		c-0.747,0-1.506,0.584-1.688,1.297L13.58,7.488c-0.223-0.117-0.479-0.199-0.772-0.199H1.36C0.615,7.289,0,7.892,0,8.625v54.038
		C0,63.398,0.615,64,1.36,64h43.822c0.75,0,1.359-0.602,1.359-1.337V23.958h16.24c0.674,0,1.219-0.535,1.219-1.197V1.199
		C63.998,0.54,63.453,0,62.781,0z M14.776,10.97l0.859-3.377c0.181-0.713,0.938-1.3,1.688-1.3h1.552
		c0.749,0,1.358-0.602,1.358-1.335V3.65c0-0.733,0.615-1.335,1.36-1.335h3.354c0.746,0,1.358,0.602,1.358,1.335v1.308
		c0,0.733,0.611,1.335,1.358,1.335h1.552c0.233,0,0.459,0.071,0.674,0.171v5.799H15.804C15.059,12.263,14.595,11.681,14.776,10.97z
		 M44.52,60.671c0,0.735-0.615,1.337-1.36,1.337H3.382c-0.748,0-1.359-0.602-1.359-1.337V10.613c0-0.731,0.611-1.335,1.359-1.335
		l9.425,0.002c0.116,0,0.22-0.029,0.329-0.049l-0.948,3.729c-0.183,0.711,0.281,1.297,1.026,1.297H29.89v8.953H17.547
		c-0.747,0-1.359,0.448-1.359,0.995c0,0.548,0.613,0.995,1.359,0.995H29.89v3.551c0,0.482,0.299,0.922,0.753,1.104
		c0.15,0.063,0.311,0.095,0.466,0.095c0.317,0,0.628-0.122,0.862-0.352l4.472-4.396h0.646c0.748,0,1.359-0.447,1.359-0.995
		c0-0.088-0.039-0.166-0.067-0.245h6.14v36.709H44.52z M61.563,21.563H37.197c-0.322,0-0.631,0.125-0.858,0.354l-1.317,1.294
		l-0.174,0.17l-1.678,1.648L32.996,25.2l-0.669,0.658V2.398h29.233L61.563,21.563L61.563,21.563z"/>
	<rect x="33.667" y="8.5" fill="#FFFFFF" width="17.333" height="6.5"/>
	<g>
		<g>
			<path fill="#231F20" d="M8.457,55.543c0-0.158,0.134-0.286,0.299-0.286l0,0c0.165,0,0.299,0.128,0.299,0.286l0,0
				c0,0.158-0.134,0.286-0.299,0.286l0,0C8.59,55.829,8.457,55.701,8.457,55.543L8.457,55.543z M8.631,55.543
				c0,0.064,0.056,0.117,0.124,0.119l0,0c0.069-0.002,0.124-0.055,0.124-0.119l0,0c0-0.066-0.055-0.119-0.124-0.119l0,0
				C8.687,55.424,8.632,55.477,8.631,55.543L8.631,55.543z"/>
		</g>
		<g>
			<path fill="#231F20" d="M8.615,56.38c-0.256-0.003-0.418-0.175-0.429-0.183l0,0c-0.11-0.119-0.191-0.268-0.19-0.45l0,0
				c0-0.212,0.103-0.456,0.347-0.771l0,0c0.391-0.505,0.872-0.538,0.974-0.536l0,0c0.012,0,0.02,0,0.022,0l0,0
				c0.048,0.003,0.084,0.043,0.08,0.09l0,0c-0.003,0.046-0.045,0.08-0.094,0.077l0,0c0,0-0.001,0-0.009,0l0,0
				c-0.072,0.001-0.482,0.017-0.833,0.469l0,0C8.25,55.374,8.17,55.591,8.17,55.747l0,0c0,0.135,0.055,0.238,0.145,0.337l0,0
				c0,0,0.001,0.002,0.004,0.005l0,0c0.003,0.003,0.009,0.008,0.017,0.014l0,0c0.015,0.013,0.037,0.028,0.064,0.045l0,0
				c0.056,0.032,0.132,0.065,0.214,0.063l0,0c0.061,0,0.126-0.014,0.201-0.062l0,0c0.162-0.104,0.243-0.164,0.31-0.204l0,0
				c0.064-0.044,0.135-0.063,0.212-0.061l0,0c0.049,0,0.088,0.037,0.088,0.083l0,0c0,0.047-0.039,0.084-0.088,0.084l0,0
				c-0.061,0.002-0.063,0.002-0.119,0.034l0,0c-0.054,0.031-0.141,0.098-0.306,0.202l0,0C8.813,56.352,8.709,56.38,8.615,56.38
				L8.615,56.38C8.616,56.38,8.616,56.38,8.615,56.38L8.615,56.38z"/>
		</g>
		<g>
			<path fill="#231F20" d="M7.268,56.59c-0.533-0.427-0.868-1.065-0.867-1.877l0,0c0-0.811,0.306-1.627,0.821-2.246l0,0
				c0.515-0.618,1.247-1.04,2.095-1.04l0,0c0.048,0,0.087,0.038,0.087,0.084l0,0c0,0.045-0.039,0.084-0.087,0.084l0,0
				c-0.785,0-1.468,0.388-1.958,0.976l0,0c-0.49,0.588-0.783,1.372-0.783,2.143l0,0c0,0.769,0.31,1.352,0.805,1.749l0,0
				c0.495,0.397,1.182,0.609,1.936,0.609l0,0l0,0c0.048,0,0.087,0.037,0.087,0.083l0,0c0,0.045-0.039,0.084-0.087,0.084l0,0
				C8.529,57.238,7.802,57.019,7.268,56.59L7.268,56.59z"/>
		</g>
		<g>
			<path fill="#231F20" d="M7,52.83c-0.565-0.583-0.774-1.337-0.776-1.69l0,0c0-0.003,0-0.006,0-0.007l0,0
				c-0.105-0.03-0.182-0.123-0.183-0.233l0,0c0-0.134,0.113-0.24,0.252-0.24l0,0c0.117,0,0.215,0.075,0.243,0.179l0,0
				c0.375,0.014,1.093,0.293,1.668,0.878l0,0l0,0c0.033,0.033,0.031,0.086-0.004,0.118l0,0c-0.035,0.031-0.091,0.03-0.124-0.004l0,0
				c-0.546-0.564-1.275-0.829-1.562-0.825l0,0c-0.019,0-0.034,0.001-0.046,0.002l0,0c-0.029,0.005-0.058-0.005-0.077-0.026l0,0
				c-0.018-0.02-0.025-0.045-0.021-0.069l0,0c0-0.004,0-0.008,0-0.012l0,0c0-0.041-0.034-0.073-0.077-0.073l0,0
				c-0.042,0-0.077,0.032-0.077,0.073l0,0c0,0.041,0.035,0.074,0.077,0.074l0,0c0.004,0,0.008,0,0.012,0.001l0,0
				c0.026-0.004,0.053,0.005,0.072,0.021l0,0c0.021,0.019,0.03,0.047,0.026,0.073l0,0c-0.003,0.019-0.005,0.041-0.005,0.069l0,0
				c-0.002,0.3,0.201,1.038,0.729,1.577l0,0c0.033,0.034,0.031,0.087-0.004,0.118l0,0c-0.017,0.015-0.038,0.022-0.06,0.022l0,0
				C7.041,52.856,7.018,52.849,7,52.83L7,52.83z"/>
		</g>
		<g>
			<path fill="#231F20" d="M7.83,51.991c-0.617-0.528-1.223-0.573-1.417-0.574l0,0c-0.043,0-0.063,0.002-0.063,0.002l0,0l0,0
				c-0.048,0.006-0.092-0.028-0.096-0.075l0,0c-0.005-0.044,0.03-0.086,0.077-0.091l0,0c0.003-0.001,0.032-0.003,0.082-0.003l0,0
				c0.222,0,0.876,0.054,1.534,0.617l0,0c0.036,0.03,0.039,0.083,0.007,0.117l0,0c-0.018,0.02-0.041,0.028-0.065,0.028l0,0
				C7.867,52.013,7.847,52.006,7.83,51.991L7.83,51.991z"/>
		</g>
		<g>
			<path fill="#231F20" d="M9.608,55.543c0-0.158,0.134-0.286,0.298-0.286l0,0c0.166,0,0.299,0.128,0.299,0.286l0,0
				c0,0.158-0.134,0.286-0.299,0.286l0,0C9.742,55.829,9.608,55.701,9.608,55.543L9.608,55.543z M9.907,55.662
				c0.068-0.002,0.124-0.055,0.125-0.119l0,0c-0.001-0.066-0.056-0.119-0.125-0.119l0,0c-0.068,0-0.124,0.054-0.124,0.119l0,0
				C9.783,55.607,9.839,55.66,9.907,55.662L9.907,55.662z"/>
		</g>
		<g>
			<path fill="#231F20" d="M9.75,56.288c-0.166-0.104-0.253-0.17-0.307-0.202l0,0c-0.056-0.031-0.058-0.031-0.119-0.034l0,0
				c-0.048,0-0.087-0.037-0.087-0.084l0,0c0-0.046,0.039-0.083,0.087-0.083l0,0c0.078-0.002,0.148,0.019,0.213,0.061l0,0
				c0.067,0.04,0.147,0.101,0.31,0.205l0,0c0.075,0.047,0.14,0.063,0.201,0.063l0,0c0.144,0.001,0.271-0.1,0.296-0.124l0,0
				c0.001-0.002,0.002-0.002,0.002-0.002l0,0c0.092-0.102,0.146-0.204,0.146-0.338l0,0c0.001-0.158-0.08-0.373-0.312-0.672l0,0
				c-0.351-0.451-0.762-0.469-0.833-0.469l0,0c-0.007,0-0.008,0-0.008,0l0,0l0,0c-0.048,0.004-0.091-0.03-0.094-0.077l0,0
				c-0.003-0.046,0.032-0.086,0.081-0.09l0,0c0.002-0.001,0.01-0.001,0.021-0.001l0,0c0.102-0.002,0.583,0.031,0.974,0.536l0,0
				c0.243,0.314,0.346,0.559,0.347,0.772l0,0c0,0.182-0.082,0.331-0.193,0.451l0,0c-0.007,0.006-0.17,0.177-0.426,0.18l0,0
				c-0.001,0-0.001,0-0.001,0l0,0C9.953,56.38,9.85,56.354,9.75,56.288L9.75,56.288z"/>
		</g>
		<g>
			<path fill="#231F20" d="M9.259,57.154c0-0.046,0.039-0.083,0.087-0.083l0,0c0.754,0,1.441-0.211,1.936-0.609l0,0
				c0.495-0.397,0.804-0.98,0.805-1.749l0,0c0-0.771-0.293-1.555-0.783-2.142l0,0c-0.492-0.589-1.173-0.977-1.958-0.977l0,0
				c-0.048,0-0.087-0.038-0.087-0.084l0,0c0-0.046,0.039-0.083,0.087-0.083l0,0c0.848,0,1.58,0.421,2.095,1.039l0,0
				c0.516,0.619,0.821,1.436,0.821,2.246l0,0c0.001,0.812-0.333,1.45-0.867,1.877l0,0c-0.533,0.429-1.261,0.648-2.048,0.648l0,0l0,0
				C9.298,57.238,9.259,57.201,9.259,57.154L9.259,57.154z"/>
		</g>
		<g>
			<path fill="#231F20" d="M11.54,52.835c-0.036-0.032-0.038-0.085-0.005-0.119l0,0c0.528-0.539,0.731-1.276,0.729-1.576l0,0
				c0-0.029-0.002-0.052-0.004-0.07l0,0c-0.004-0.026,0.006-0.055,0.026-0.073l0,0c0.019-0.017,0.045-0.025,0.071-0.021l0,0
				c0.003,0,0.008,0,0.012,0l0,0c0.042,0,0.078-0.034,0.078-0.074l0,0c0-0.041-0.035-0.074-0.078-0.074l0,0
				c-0.042,0-0.078,0.033-0.078,0.074l0,0c0,0.004,0,0.008,0,0.011l0,0c0.004,0.024-0.003,0.05-0.021,0.069l0,0
				c-0.02,0.021-0.049,0.031-0.079,0.027l0,0c-0.013-0.002-0.028-0.002-0.046-0.002l0,0c-0.286-0.005-1.016,0.26-1.562,0.824l0,0
				l0,0c-0.033,0.034-0.088,0.036-0.124,0.004l0,0c-0.036-0.031-0.037-0.084-0.004-0.118l0,0c0.575-0.585,1.295-0.863,1.668-0.877
				l0,0c0.028-0.104,0.127-0.18,0.243-0.18l0,0c0.139,0,0.252,0.108,0.252,0.241l0,0c0,0.109-0.077,0.202-0.183,0.232l0,0
				c0.001,0.002,0.001,0.004,0.001,0.007l0,0c-0.003,0.354-0.212,1.107-0.776,1.69l0,0c-0.018,0.019-0.041,0.027-0.064,0.027l0,0
				C11.577,52.856,11.556,52.85,11.54,52.835L11.54,52.835z"/>
		</g>
		<g>
			<path fill="#231F20" d="M10.709,51.985c-0.032-0.035-0.029-0.088,0.007-0.118l0,0c0.658-0.563,1.312-0.617,1.534-0.617l0,0
				c0.05,0,0.078,0.003,0.081,0.003l0,0h0c0.047,0.005,0.083,0.047,0.078,0.092l0,0c-0.005,0.046-0.048,0.08-0.096,0.075l0,0
				c0,0-0.02-0.003-0.063-0.003l0,0c-0.195,0.001-0.8,0.046-1.417,0.575l0,0c-0.017,0.014-0.038,0.021-0.059,0.021l0,0
				C10.751,52.013,10.727,52.004,10.709,51.985L10.709,51.985z"/>
		</g>
	</g>
	<g>
		<g>
			<path fill="#231F20" d="M9.247,46.93l-0.582-0.428L8.66,46.498c-0.175-0.146-0.22-0.313-0.218-0.445l0,0
				c0-0.097,0.019-0.178,0.017-0.232l0,0c0-0.01,0-0.019-0.001-0.026l0,0c-0.006-0.062-0.068-0.246-0.152-0.438l0,0
				c-0.083-0.195-0.19-0.408-0.285-0.548l0,0c-0.21-0.311-0.33-0.697-0.332-0.7l0,0c-0.099-0.32-0.132-0.596-0.132-0.82l0,0
				c0-0.25,0.041-0.437,0.076-0.551l0,0c-0.043,0.002-0.096,0.003-0.155,0.003l0,0c-0.251-0.001-0.625-0.021-0.979-0.128l0,0
				c-0.352-0.107-0.692-0.304-0.839-0.664l0,0c-0.013-0.032-0.004-0.068,0.022-0.092l0,0c0.008-0.007,0.221-0.204,0.57-0.205l0,0
				c0.151,0,0.326,0.039,0.51,0.145l0,0l0.005,0.004c0.001,0.002,0.253,0.17,0.434,0.354l0,0c0.095,0.096,0.165,0.205,0.235,0.283
				l0,0c0.072,0.08,0.13,0.119,0.204,0.12l0,0c0.011,0,0.022,0.003,0.031,0.006l0,0c0.053-0.002,0.083-0.005,0.083-0.005l0,0
				c0.032-0.003,0.063,0.011,0.083,0.036l0,0c0.019,0.026,0.021,0.059,0.007,0.086l0,0c0,0.001,0,0.002-0.003,0.008l0,0
				c-0.003,0.006-0.007,0.015-0.011,0.028l0,0c-0.01,0.024-0.023,0.063-0.037,0.115l0,0c-0.027,0.104-0.055,0.257-0.055,0.456l0,0
				c0,0.208,0.031,0.468,0.124,0.771l0,0c0,0,0.029,0.091,0.083,0.221l0,0c0.053,0.13,0.132,0.295,0.228,0.437l0,0
				c0.105,0.156,0.214,0.372,0.301,0.574l0,0c0.086,0.204,0.15,0.382,0.164,0.484l0,0c0.001,0.016,0.002,0.031,0.002,0.047l0,0
				c0,0.082-0.018,0.158-0.017,0.232l0,0c0.002,0.102,0.021,0.196,0.155,0.314l0,0l0.578,0.424l0,0
				c0.002,0.001,0.005,0.002,0.01,0.004l0,0c0.01,0.004,0.024,0.008,0.039,0.008l0,0c0.05,0,0.09,0.038,0.09,0.086l0,0
				c0,0.048-0.041,0.086-0.09,0.086l0,0C9.313,46.975,9.257,46.937,9.247,46.93L9.247,46.93z M6.554,42.446
				c0.257,0.078,0.537,0.108,0.761,0.116l0,0c-0.005-0.004-0.01-0.01-0.015-0.016l0,0c-0.082-0.094-0.15-0.198-0.229-0.276l0,0
				c-0.081-0.082-0.184-0.166-0.266-0.228l0,0c-0.073-0.056-0.129-0.095-0.14-0.103l0,0c-0.157-0.089-0.295-0.118-0.413-0.118l0,0
				c-0.185-0.001-0.327,0.073-0.397,0.121l0,0C5.985,42.2,6.25,42.354,6.554,42.446L6.554,42.446z"/>
		</g>
		<g>
			<path fill="#231F20" d="M9.328,42.525l-0.018-0.97c-0.021,0-0.049,0.001-0.08,0.002l0,0c0,0-0.003,0-0.009,0l0,0
				c-0.14,0.001-0.207-0.088-0.218-0.11l0,0c-0.024-0.034-0.123-0.175-0.157-0.236l0,0c-0.003-0.008-0.01-0.011-0.015-0.012l0,0
				c-0.028,0.006-0.104,0.022-0.187,0.042l0,0c-0.106,0.022-0.228,0.053-0.271,0.067l0,0c-0.051,0.017-0.078,0.046-0.088,0.06l0,0
				l-0.063,0.29c-0.014,0.095-0.088,0.141-0.139,0.164l0,0c-0.055,0.026-0.102,0.033-0.104,0.034l0,0
				c-0.027,0.006-0.053,0.007-0.077,0.007l0,0c-0.15-0.001-0.267-0.072-0.274-0.074l0,0l-0.01-0.007
				c-0.377-0.29-0.903-0.306-0.977-0.305l0,0c-0.006,0-0.008,0-0.008,0l0,0H6.628c-0.008,0-0.017,0-0.027,0l0,0
				c-0.589,0.002-0.734,0.349-0.768,0.43l0,0c-0.004,0.011-0.005,0.015-0.005,0.015l0,0l0,0c-0.013,0.046-0.062,0.074-0.11,0.062
				l0,0c-0.049-0.013-0.079-0.059-0.065-0.104l0,0c0.002-0.009,0.041-0.148,0.18-0.292l0,0c0.139-0.143,0.384-0.281,0.768-0.28l0,0
				c0.009,0,0.02,0,0.031,0l0,0c0.002,0,0.005,0,0.009,0l0,0c0.091,0.001,0.646,0.009,1.084,0.337l0,0
				c0.002,0.001,0.005,0.003,0.009,0.004l0,0c0.01,0.005,0.025,0.012,0.043,0.02l0,0c0.035,0.014,0.083,0.024,0.124,0.024l0,0
				c0.014,0,0.027-0.001,0.043-0.004l0,0c0,0,0.002,0,0.008-0.003l0,0c0.007-0.001,0.018-0.004,0.029-0.008l0,0
				c0.022-0.008,0.047-0.021,0.055-0.03l0,0c0.006-0.007,0.006-0.007,0.006-0.009l0,0l0.001-0.013l0.068-0.308l0.007-0.021
				c0.006-0.011,0.057-0.103,0.193-0.149l0,0c0.12-0.041,0.489-0.117,0.492-0.117l0,0l0.005-0.002c0.004,0,0.01-0.002,0.017-0.002
				l0,0c0.023,0,0.123,0.006,0.179,0.104l0,0c0.013,0.023,0.053,0.084,0.087,0.134l0,0c0.035,0.052,0.065,0.095,0.066,0.095l0,0
				l0.004,0.007l0,0l0,0l0,0c0.001,0.002,0.003,0.003,0.006,0.007l0,0c0.007,0.004,0.019,0.012,0.053,0.014l0,0c0,0,0.003,0,0.005,0
				l0,0c0.114-0.004,0.171-0.004,0.172-0.004l0,0c0.049,0,0.089,0.037,0.09,0.085l0,0l0.019,1.057
				C9.509,42.57,9.47,42.61,9.42,42.61l0,0c0,0-0.001,0-0.001,0l0,0C9.369,42.611,9.329,42.572,9.328,42.525L9.328,42.525z"/>
		</g>
		<g>
			<path fill="#231F20" d="M8.528,46.126c-0.035-0.032-0.035-0.088,0-0.121l0,0c0.035-0.034,0.092-0.034,0.127,0l0,0
				c0.238,0.229,0.519,0.286,0.657,0.301l0,0v-0.153c0-0.048,0.041-0.087,0.09-0.087l0,0c0.05,0,0.09,0.039,0.09,0.087l0,0v0.243
				c0,0.046-0.039,0.084-0.087,0.086l0,0c-0.001,0-0.006,0-0.014,0l0,0C9.309,46.481,8.886,46.465,8.528,46.126L8.528,46.126z"/>
		</g>
		<g>
			<path fill="#231F20" d="M9.145,46.017c-0.214-0.103-0.305-0.265-0.31-0.272l0,0l0,0c-0.024-0.042-0.007-0.094,0.037-0.117l0,0
				c0.044-0.021,0.099-0.006,0.122,0.036l0,0c0,0,0,0,0.002,0.002l0,0c0.002,0.004,0.005,0.01,0.01,0.015l0,0
				c0.009,0.013,0.022,0.03,0.042,0.052l0,0c0.038,0.042,0.097,0.093,0.178,0.132l0,0c0.044,0.021,0.063,0.072,0.041,0.115l0,0
				c-0.016,0.03-0.048,0.047-0.081,0.047l0,0C9.172,46.027,9.158,46.022,9.145,46.017L9.145,46.017z"/>
		</g>
		<g>
			<path fill="#231F20" d="M8.122,41.28c0,0-0.02-0.064-0.059-0.172l0,0c-0.04-0.106-0.098-0.255-0.177-0.419l0,0
				c-0.156-0.33-0.391-0.722-0.69-0.973l0,0c-0.011-0.009-0.045-0.034-0.073-0.071l0,0c-0.011-0.016-0.025-0.032-0.028-0.073l0,0
				c-0.003-0.031,0.024-0.075,0.054-0.088l0,0c0.029-0.016,0.051-0.016,0.073-0.017l0,0C7.268,39.469,7.32,39.479,7.4,39.5l0,0
				c0.019,0.005,0.839,0.246,1.469,1.542l0,0c0.021,0.042,0.001,0.093-0.044,0.113l0,0c-0.045,0.021-0.099,0.001-0.12-0.04l0,0
				c-0.479-0.981-1.053-1.317-1.269-1.415l0,0c0.577,0.58,0.854,1.527,0.858,1.533l0,0l0,0c0.014,0.046-0.013,0.092-0.061,0.105l0,0
				c-0.009,0.003-0.017,0.004-0.025,0.004l0,0C8.169,41.343,8.133,41.317,8.122,41.28L8.122,41.28z"/>
		</g>
		<g>
			<path fill="#231F20" d="M9.316,46.89c0-0.047,0.04-0.087,0.09-0.087l0,0c0.021,0.002,0.042-0.008,0.048-0.011l0,0l0,0
				l0.577-0.424c0.135-0.118,0.154-0.213,0.156-0.315l0,0c0-0.074-0.017-0.149-0.018-0.232l0,0c0-0.014,0-0.03,0.003-0.047l0,0
				c0.013-0.102,0.077-0.279,0.164-0.483l0,0c0.087-0.201,0.195-0.419,0.3-0.575l0,0c0.095-0.14,0.174-0.306,0.227-0.436l0,0
				c0.054-0.129,0.083-0.221,0.083-0.221l0,0c0.094-0.304,0.125-0.563,0.125-0.771l0,0c0-0.351-0.086-0.56-0.104-0.601l0,0
				c-0.002-0.007-0.003-0.007-0.003-0.007l0,0c-0.014-0.028-0.011-0.062,0.008-0.087l0,0c0.019-0.025,0.05-0.04,0.083-0.037l0,0
				c0,0,0.03,0.003,0.083,0.006l0,0c0.009-0.003,0.02-0.006,0.031-0.006l0,0c0.073-0.001,0.131-0.041,0.203-0.12l0,0
				c0.07-0.079,0.14-0.188,0.235-0.283l0,0c0.181-0.184,0.433-0.352,0.435-0.354l0,0l0.006-0.003
				c0.184-0.106,0.358-0.146,0.51-0.146l0,0c0.349,0.002,0.562,0.198,0.57,0.205l0,0c0.026,0.023,0.035,0.061,0.021,0.093l0,0
				C13,42.31,12.66,42.505,12.309,42.611l0,0c-0.353,0.106-0.727,0.128-0.978,0.128l0,0c-0.06,0-0.112-0.002-0.155-0.003l0,0
				c0.035,0.114,0.076,0.302,0.076,0.552l0,0c0,0.225-0.033,0.5-0.132,0.82l0,0c-0.002,0.003-0.122,0.39-0.331,0.7l0,0
				c-0.095,0.141-0.203,0.354-0.285,0.548l0,0c-0.084,0.192-0.146,0.378-0.152,0.438l0,0c-0.001,0.008-0.001,0.017-0.001,0.027l0,0
				c0,0.054,0.017,0.135,0.018,0.231l0,0c0.001,0.133-0.044,0.299-0.219,0.445l0,0l-0.005,0.005L9.56,46.932
				c-0.008,0.005-0.063,0.044-0.153,0.044l0,0C9.356,46.976,9.316,46.938,9.316,46.89L9.316,46.89z M12.003,42.043
				c-0.082,0.063-0.185,0.146-0.267,0.228l0,0c-0.077,0.078-0.146,0.184-0.228,0.276l0,0c-0.005,0.006-0.009,0.012-0.015,0.016l0,0
				c0.224-0.008,0.504-0.038,0.761-0.116l0,0c0.304-0.092,0.569-0.246,0.699-0.503l0,0c-0.019-0.013-0.042-0.027-0.07-0.042l0,0
				c-0.079-0.039-0.191-0.08-0.327-0.08l0,0c-0.119,0.001-0.256,0.03-0.414,0.119l0,0C12.133,41.948,12.077,41.987,12.003,42.043
				L12.003,42.043z"/>
		</g>
		<g>
			<path fill="#231F20" d="M12.981,41.922c0,0-0.001-0.004-0.004-0.015l0,0c-0.005-0.012-0.012-0.028-0.022-0.049l0,0
				c-0.021-0.042-0.057-0.098-0.111-0.153l0,0c-0.11-0.111-0.296-0.227-0.636-0.228l0,0c-0.01,0-0.019,0.001-0.027,0.001l0,0h-0.006
				c0,0-0.002,0-0.008,0l0,0c-0.074-0.002-0.6,0.015-0.977,0.304l0,0l-0.01,0.007c-0.007,0.002-0.123,0.073-0.273,0.075l0,0
				c-0.025,0-0.051-0.002-0.074-0.007l0,0c-0.005-0.001-0.052-0.009-0.108-0.035l0,0c-0.05-0.023-0.125-0.071-0.139-0.165l0,0
				l-0.063-0.289c-0.002-0.004-0.007-0.009-0.012-0.014l0,0c-0.015-0.015-0.039-0.032-0.076-0.046l0,0
				c-0.043-0.015-0.165-0.045-0.271-0.067l0,0c-0.083-0.02-0.158-0.036-0.187-0.042l0,0c-0.004,0.001-0.011,0.004-0.015,0.012l0,0
				c-0.035,0.062-0.134,0.204-0.158,0.237l0,0c-0.012,0.023-0.079,0.11-0.218,0.109l0,0c-0.005,0-0.009,0-0.011,0l0,0
				c-0.112-0.003-0.167-0.003-0.167-0.003l0,0c-0.049,0-0.089-0.039-0.089-0.086l0,0c0-0.049,0.04-0.087,0.089-0.087l0,0
				c0.001,0,0.059,0,0.169,0.004l0,0c0.006,0,0.009,0.001,0.009,0l0,0c0.048-0.002,0.055-0.018,0.059-0.02l0,0l0,0l0.004-0.008
				c0,0,0.031-0.043,0.065-0.094l0,0c0.034-0.051,0.074-0.11,0.088-0.134l0,0c0.056-0.099,0.156-0.105,0.178-0.103l0,0
				c0.007,0,0.012,0,0.016,0l0,0l0.006,0.001c0.002,0.001,0.372,0.078,0.491,0.117l0,0c0.136,0.047,0.188,0.14,0.192,0.149l0,0
				l0.008,0.021l0.068,0.309l0.001,0.012c0,0.002,0.001,0.008,0.019,0.021l0,0c0.017,0.011,0.045,0.021,0.063,0.026l0,0
				c0.013,0.003,0.017,0.004,0.021,0.004l0,0c0.012,0.003,0.025,0.004,0.039,0.004l0,0c0.063,0.002,0.138-0.029,0.167-0.044l0,0
				c0.005-0.002,0.008-0.004,0.01-0.005l0,0c0.439-0.327,0.993-0.335,1.083-0.337l0,0c0.005,0,0.007,0.001,0.01,0.001l0,0
				c0.011-0.001,0.022-0.001,0.031-0.001l0,0c0.385-0.001,0.629,0.139,0.768,0.28l0,0c0.14,0.144,0.178,0.284,0.18,0.293l0,0
				c0.013,0.045-0.017,0.093-0.065,0.104l0,0c-0.007,0.001-0.015,0.003-0.022,0.003l0,0C13.029,41.987,12.992,41.96,12.981,41.922
				L12.981,41.922z"/>
		</g>
		<g>
			<path fill="#231F20" d="M9.403,46.481c-0.049-0.003-0.087-0.04-0.087-0.086l0,0v-0.243c0-0.048,0.04-0.087,0.09-0.087l0,0
				c0.049,0,0.09,0.039,0.09,0.087l0,0v0.153c0.139-0.015,0.42-0.072,0.657-0.301l0,0c0.035-0.034,0.092-0.034,0.127,0l0,0
				c0.036,0.033,0.036,0.089,0,0.121l0,0c-0.357,0.339-0.781,0.355-0.863,0.355l0,0C9.409,46.481,9.404,46.481,9.403,46.481
				L9.403,46.481z"/>
		</g>
		<g>
			<path fill="#231F20" d="M9.543,45.979c-0.022-0.043-0.004-0.094,0.041-0.115l0,0c0.142-0.067,0.216-0.176,0.229-0.198l0,0
				c0.001-0.002,0.001-0.002,0.001-0.002l0,0l0,0c0.024-0.042,0.078-0.058,0.122-0.035l0,0c0.043,0.022,0.061,0.074,0.037,0.116l0,0
				c-0.005,0.008-0.096,0.17-0.31,0.273l0,0c-0.013,0.006-0.026,0.01-0.04,0.01l0,0C9.591,46.027,9.559,46.009,9.543,45.979
				L9.543,45.979z"/>
		</g>
		<g>
			<path fill="#231F20" d="M10.575,41.339c-0.048-0.014-0.076-0.061-0.062-0.105l0,0c0.004-0.006,0.281-0.953,0.858-1.533l0,0
				c-0.01,0.003-0.02,0.01-0.031,0.015l0,0c-0.078,0.038-0.191,0.103-0.324,0.205l0,0c-0.265,0.207-0.609,0.568-0.914,1.193l0,0
				c-0.021,0.043-0.075,0.063-0.12,0.042l0,0c-0.045-0.021-0.064-0.071-0.043-0.114l0,0c0.63-1.295,1.45-1.536,1.469-1.541l0,0
				c0.081-0.022,0.132-0.031,0.178-0.032l0,0c0.022,0.001,0.044,0.001,0.073,0.016l0,0c0.03,0.014,0.057,0.058,0.055,0.089l0,0
				c-0.002,0.041-0.017,0.058-0.027,0.073l0,0c-0.012,0.015-0.023,0.027-0.034,0.037l0,0c-0.018,0.018-0.034,0.029-0.04,0.034l0,0
				c-0.449,0.376-0.75,1.07-0.867,1.392l0,0c-0.039,0.107-0.059,0.171-0.059,0.171l0,0v0.001c-0.011,0.037-0.047,0.063-0.087,0.063
				l0,0C10.592,41.343,10.584,41.342,10.575,41.339L10.575,41.339z M11.539,39.546L11.539,39.546L11.539,39.546L11.539,39.546
				L11.539,39.546z"/>
		</g>
	</g>
	<g>
		<g>
			<g>
				<g>
					<path d="M7.986,36.353c-0.62-0.841-0.8-1.978-0.813-2.062l0,0h0c-0.048-0.252-0.063-0.537-0.063-0.816l0,0
						c0-0.691,0.099-1.354,0.099-1.358l0,0l0,0c0.009-0.061,0.063-0.103,0.12-0.093l0,0c0.057,0.009,0.096,0.067,0.086,0.128l0,0
						c0,0-0.024,0.162-0.048,0.409l0,0c-0.024,0.248-0.048,0.579-0.048,0.913l0,0c0,0.271,0.016,0.543,0.06,0.771l0,0l0,0.006
						c0,0,0.01,0.068,0.035,0.189l0,0c0.026,0.121,0.065,0.291,0.125,0.486l0,0c0.118,0.391,0.313,0.883,0.612,1.286l0,0
						c0.036,0.048,0.028,0.119-0.017,0.157l0,0c-0.02,0.018-0.042,0.025-0.065,0.025l0,0C8.037,36.395,8.006,36.381,7.986,36.353
						L7.986,36.353z"/>
				</g>
			</g>
			<g>
				<g>
					<path d="M8.818,35.15c-0.343-0.371-0.397-0.824-0.396-1.078l0,0c0-0.123,0.013-0.201,0.013-0.207l0,0l0,0
						c0.01-0.061,0.064-0.102,0.121-0.09l0,0c0.057,0.011,0.094,0.068,0.084,0.13l0,0c0,0-0.002,0.013-0.005,0.042l0,0
						C8.632,33.976,8.63,34.02,8.63,34.072l0,0c0,0.222,0.048,0.609,0.335,0.919l0,0c0.041,0.044,0.041,0.115,0,0.159l0,0
						c-0.021,0.021-0.047,0.033-0.074,0.033l0,0C8.865,35.184,8.838,35.172,8.818,35.15L8.818,35.15z"/>
				</g>
			</g>
			<g>
				<g>
					<path d="M8.269,36.697c0-0.193,0.146-0.35,0.324-0.35l0,0c0.179,0,0.324,0.156,0.324,0.35l0,0c0,0.193-0.146,0.351-0.324,0.351
						l0,0C8.415,37.047,8.269,36.891,8.269,36.697L8.269,36.697z M8.478,36.697c0,0.069,0.052,0.124,0.116,0.124l0,0
						c0.064,0,0.116-0.054,0.116-0.124l0,0c0-0.068-0.052-0.124-0.116-0.125l0,0C8.529,36.573,8.478,36.629,8.478,36.697
						L8.478,36.697z"/>
				</g>
			</g>
			<g>
				<g>
					<path d="M8.592,37.508c-0.029,0-0.051-0.003-0.063-0.004l0,0c-0.386-0.013-0.666-0.403-0.669-0.797l0,0
						c0-0.178,0.059-0.342,0.156-0.467l0,0c0.124-0.162,0.313-0.265,0.521-0.265l0,0c0.139,0,0.271,0.046,0.378,0.124l0,0l0,0
						c0.048,0.035,0.061,0.105,0.028,0.156l0,0c-0.032,0.051-0.097,0.065-0.145,0.03l0,0C8.725,36.232,8.635,36.2,8.538,36.2l0,0
						c-0.145,0-0.275,0.071-0.361,0.183l0,0c-0.067,0.088-0.107,0.199-0.107,0.324l0,0c-0.001,0.139,0.054,0.287,0.142,0.396l0,0
						c0.088,0.11,0.205,0.177,0.327,0.177l0,0l0.018,0.002c0,0,0,0,0.006,0.001l0,0c0.006,0.001,0.017,0.001,0.03,0.001l0,0
						c0.057,0,0.165-0.014,0.275-0.104l0,0c0.171-0.143,0.296-0.169,0.37-0.167l0,0c0.015,0,0.025,0,0.031,0.001l0,0
						c0.058,0,0.104,0.05,0.104,0.111l0,0c0,0.063-0.046,0.112-0.104,0.112l0,0c-0.013,0-0.023,0-0.031,0l0,0
						c-0.037,0.002-0.091-0.001-0.244,0.122l0,0c-0.155,0.126-0.313,0.148-0.399,0.148l0,0C8.594,37.508,8.593,37.508,8.592,37.508
						L8.592,37.508z"/>
				</g>
			</g>
			<g>
				<g>
					<path d="M10.823,36.37c-0.045-0.038-0.052-0.109-0.016-0.157l0,0c0.448-0.605,0.661-1.41,0.736-1.772l0,0
						c0.025-0.121,0.036-0.19,0.036-0.19l0,0l0-0.005c0.043-0.228,0.06-0.5,0.06-0.771l0,0c0-0.334-0.024-0.666-0.049-0.913l0,0
						c-0.025-0.184-0.026-0.192-0.048-0.409l0,0c-0.009-0.061-0.009-0.167,0.047-0.177l0.039,0.048
						c0.057-0.011,0.071-0.017,0.08,0.045l0.059,0.265c0,0.003,0.08,0.45,0.08,1.141l0,0c0,0.279-0.016,0.564-0.063,0.814l0,0
						c-0.013,0.077-0.192,1.22-0.814,2.064l0,0c-0.021,0.027-0.051,0.041-0.082,0.041l0,0C10.865,36.395,10.842,36.387,10.823,36.37
						L10.823,36.37z"/>
				</g>
			</g>
			<g>
				<g>
					<path d="M9.989,35.15c-0.041-0.044-0.041-0.115,0-0.159l0,0c0.288-0.31,0.335-0.698,0.335-0.919l0,0
						c0-0.054-0.002-0.097-0.005-0.125l0,0c-0.002-0.029-0.004-0.042-0.004-0.042l0,0l0,0c-0.01-0.062,0.028-0.119,0.084-0.131l0,0
						c0.057-0.011,0.11,0.03,0.121,0.091l0,0c0.001,0.006,0.013,0.084,0.013,0.207l0,0c0,0.254-0.054,0.707-0.396,1.078l0,0
						c-0.021,0.021-0.047,0.033-0.074,0.033l0,0C10.036,35.184,10.01,35.172,9.989,35.15L9.989,35.15z"/>
				</g>
			</g>
			<g>
				<g>
					<path d="M10.038,36.697c0-0.193,0.145-0.35,0.324-0.35l0,0c0.179,0,0.324,0.156,0.324,0.35l0,0
						c0,0.193-0.146,0.351-0.324,0.351l0,0C10.183,37.047,10.038,36.891,10.038,36.697L10.038,36.697z M10.362,36.821
						c0.064,0,0.115-0.054,0.115-0.124l0,0c0-0.068-0.052-0.124-0.115-0.125l0,0c-0.064,0.001-0.115,0.057-0.116,0.125l0,0
						C10.247,36.766,10.298,36.821,10.362,36.821L10.362,36.821z"/>
				</g>
			</g>
			<g>
				<g>
					<path d="M9.961,37.358c-0.153-0.122-0.208-0.12-0.244-0.122l0,0c-0.008,0-0.018,0.001-0.031,0.001l0,0
						c-0.058,0-0.104-0.05-0.104-0.112l0,0c0-0.062,0.047-0.112,0.104-0.112l0,0c0.004,0,0.015-0.001,0.031-0.001l0,0
						c0.074-0.002,0.199,0.024,0.37,0.167l0,0c0.109,0.091,0.218,0.104,0.275,0.104l0,0c0.014,0,0.023-0.001,0.03-0.002l0,0
						c0.006,0,0.006-0.001,0.006-0.001l0,0l0.018-0.002c0.122,0.001,0.238-0.066,0.327-0.176l0,0
						c0.089-0.108,0.143-0.257,0.143-0.397l0,0c0-0.123-0.04-0.234-0.108-0.322l0,0c-0.086-0.111-0.215-0.183-0.361-0.183l0,0
						c-0.098,0-0.187,0.031-0.262,0.086l0,0c-0.048,0.035-0.113,0.021-0.145-0.03l0,0c-0.032-0.053-0.02-0.122,0.028-0.156l0,0
						c0.107-0.078,0.239-0.124,0.378-0.124l0,0c0.209,0,0.397,0.103,0.521,0.265l0,0c0.098,0.125,0.156,0.288,0.156,0.465l0,0
						c-0.003,0.395-0.283,0.786-0.669,0.799l0,0c-0.011,0.001-0.033,0.004-0.063,0.004l0,0c0,0,0,0-0.001,0l0,0
						C10.274,37.508,10.116,37.486,9.961,37.358L9.961,37.358z"/>
				</g>
			</g>
			<g>
				<path d="M7.17,32.467c0,0-0.062-1.72,2.191-1.778c0,0,2.25-0.2,2.425,1.781l-0.209,0.003c0,0-0.056-1.641-2.205-1.606
					c0,0-1.879-0.028-2.001,1.637"/>
			</g>
		</g>
		<g>
			<g>
				<path d="M12.602,32.586l-0.047-0.163l0.042-0.011c0.1-0.026,0.243-0.133,0.29-0.172c0,0,0.2-0.179,0.325-0.482
					c0.166-0.403,0.133-0.827-0.099-1.262c-0.02-0.026-0.157-0.207-0.368-0.325c-0.225-0.125-0.59-0.191-0.902-0.055
					c-0.247,0.108-0.403,0.325-0.454,0.626c-0.013,0.093-0.004,0.201,0.017,0.228l0.009,0.002l0.009,0.005
					c0.017,0.007,0.058,0.014,0.104-0.05c0.027-0.046,0.201-0.322,0.454-0.339c0.136-0.009,0.261,0.058,0.372,0.198
					c0.019,0.023,0.184,0.236,0.091,0.563c-0.135,0.482-1.042,0.294-1.081,0.285l0.04-0.164c0.008,0.001,0.777,0.156,0.867-0.164
					c0.073-0.259-0.058-0.416-0.059-0.417l-0.002-0.002c-0.072-0.091-0.145-0.136-0.216-0.131c-0.138,0.009-0.274,0.192-0.31,0.255
					l-0.004,0.007c-0.111,0.158-0.259,0.145-0.333,0.113c-0.172-0.049-0.149-0.326-0.138-0.411l0-0.002
					c0.075-0.454,0.343-0.661,0.556-0.753c0.321-0.141,0.752-0.117,1.071,0.062c0.264,0.148,0.421,0.372,0.428,0.381l0.005,0.008
					c0.323,0.602,0.235,1.099,0.105,1.409c-0.142,0.338-0.359,0.531-0.368,0.539c-0.021,0.018-0.205,0.169-0.365,0.21L12.602,32.586
					z"/>
			</g>
		</g>
		<g>
			<g>
				<path d="M6.335,32.586l-0.042-0.012c-0.16-0.04-0.343-0.192-0.363-0.209c-0.01-0.009-0.228-0.202-0.37-0.54
					c-0.13-0.311-0.218-0.808,0.105-1.41l0.005-0.008c0.007-0.01,0.165-0.233,0.429-0.381c0.319-0.179,0.75-0.203,1.071-0.062
					c0.212,0.093,0.48,0.299,0.556,0.753v0.002c0.012,0.084,0.035,0.361-0.137,0.411c-0.074,0.032-0.222,0.044-0.333-0.113
					l-0.004-0.007c-0.04-0.068-0.172-0.246-0.311-0.255c-0.071-0.005-0.144,0.04-0.216,0.131L6.723,30.89
					c-0.005,0.006-0.131,0.162-0.059,0.417c0.09,0.321,0.859,0.166,0.866,0.164l0.041,0.165c-0.039,0.008-0.946,0.196-1.081-0.285
					c-0.093-0.327,0.072-0.54,0.091-0.563c0.111-0.14,0.236-0.206,0.373-0.197c0.252,0.017,0.426,0.292,0.454,0.339
					c0.054,0.075,0.102,0.052,0.104,0.05l0.012-0.007l0.007-0.001c0.021-0.027,0.029-0.136,0.017-0.228
					c-0.05-0.301-0.207-0.518-0.454-0.625c-0.312-0.137-0.678-0.071-0.902,0.054c-0.211,0.118-0.348,0.298-0.368,0.325
					c-0.555,1.04,0.22,1.738,0.228,1.744c0.045,0.038,0.188,0.146,0.289,0.171l0.042,0.011L6.335,32.586z"/>
			</g>
		</g>
		<g>
			<g>
				<path d="M9.581,32.363c0,0-0.011,0.041-0.091,0.039c-0.084-0.002-0.089-0.039-0.089-0.039c0-0.908,0-1.497,0-1.497h0.18
					C9.581,30.867,9.581,31.456,9.581,32.363z"/>
			</g>
		</g>
		<g>
			<g>
				<g>
					<path d="M12.942,34.29c-0.231,0-0.486-0.02-0.715-0.087l0,0c-0.228-0.066-0.437-0.182-0.555-0.391l0,0
						c-0.028-0.051-0.013-0.116,0.033-0.146l0,0c0.046-0.03,0.107-0.014,0.135,0.036l0,0c0.077,0.139,0.235,0.237,0.438,0.296l0,0
						c0.203,0.061,0.443,0.08,0.665,0.08l0,0c0.316,0,0.586-0.039,0.667-0.051l0,0c-0.086-0.205-0.185-0.385-0.292-0.541l0,0
						c-0.619-0.912-1.519-1.077-1.596-1.089l0,0c-0.021-0.002-0.041-0.011-0.056-0.025l0,0c0.001,0.001,0.002,0.002,0.003,0.003l0,0
						c-0.003-0.003-0.007-0.006-0.009-0.009l0,0c-0.002-0.002-0.003-0.003-0.005-0.006l0,0c-0.001,0-0.001-0.001-0.002-0.001l0,0
						l0,0l0,0c-0.007-0.009-0.013-0.02-0.017-0.031l0,0c0.001,0.002,0.001,0.003,0.002,0.005l0,0
						c-0.001-0.002-0.002-0.004-0.002-0.006l0,0c0,0,0,0,0,0l0,0c0,0,0-0.001-0.001-0.001l0,0c-0.001-0.005-0.003-0.01-0.003-0.016
						l0,0c0,0.001,0,0.001,0,0.002l0,0c-0.001-0.007-0.002-0.013-0.002-0.021l0,0c0-0.028,0.011-0.055,0.029-0.075l0,0
						c0.018-0.02,0.043-0.031,0.07-0.031l0,0c0,0,0,0,0.001,0l0,0c0.001,0,0.003,0,0.006,0l0,0c0.001,0,0.002,0,0.002,0l0,0
						c0,0,0.001,0,0.002,0l0,0h0.001h0l0.001,0c0.001,0,0.002,0,0.003,0l0,0c0.002,0,0.006,0.001,0.009,0.001l0,0
						c0.009,0.002,0.021,0.004,0.036,0.007l0,0c0.03,0.006,0.074,0.016,0.128,0.031l0,0c0.108,0.029,0.258,0.08,0.43,0.162l0,0
						c0.344,0.164,0.775,0.457,1.127,0.974l0,0c0.125,0.184,0.24,0.396,0.336,0.639l0,0c0.005,0.014,0.008,0.027,0.008,0.042l0,0
						c0,0.01,0,0.045-0.021,0.092l0,0c-0.021,0.045-0.078,0.098-0.149,0.104l0,0C13.617,34.239,13.306,34.29,12.942,34.29
						L12.942,34.29L12.942,34.29L12.942,34.29L12.942,34.29L12.942,34.29L12.942,34.29z M11.724,32.397
						C11.724,32.397,11.724,32.397,11.724,32.397L11.724,32.397L11.724,32.397L11.724,32.397
						C11.724,32.397,11.724,32.397,11.724,32.397L11.724,32.397z M11.721,32.397C11.721,32.397,11.72,32.397,11.721,32.397
						L11.721,32.397L11.721,32.397L11.721,32.397L11.721,32.397C11.721,32.397,11.72,32.397,11.721,32.397L11.721,32.397z
						 M11.707,32.395c-0.004-0.001-0.009-0.002-0.013-0.004l0,0C11.699,32.393,11.703,32.395,11.707,32.395L11.707,32.395z
						 M11.653,32.359L11.653,32.359L11.653,32.359c0,0,0.001,0,0.001,0.001l0,0c0.003,0.004,0.007,0.008,0.011,0.012l0,0
						C11.661,32.368,11.657,32.364,11.653,32.359L11.653,32.359z M11.632,32.312c0.001,0.005,0.003,0.011,0.004,0.017l0,0
						C11.635,32.322,11.633,32.316,11.632,32.312L11.632,32.312z"/>
				</g>
			</g>
			<g>
				<g>
					<path d="M11.701,33.426c-0.039-0.041-0.039-0.109,0-0.15l0,0c0.038-0.041,0.101-0.041,0.139,0l0,0
						c0.312,0.335,0.581,0.432,0.801,0.432l0,0c0.355,0.004,0.615-0.271,0.669-0.338l0,0c0.008-0.01,0.01-0.013,0.01-0.013l0,0
						c0.035-0.046,0.097-0.052,0.139-0.016l0,0c0.042,0.037,0.049,0.104,0.014,0.149l0,0c-0.008,0.008-0.316,0.426-0.832,0.43l0,0
						c-0.001,0-0.002,0-0.003,0l0,0C12.362,33.92,12.038,33.789,11.701,33.426L11.701,33.426z"/>
				</g>
			</g>
		</g>
		<g>
			<g>
				<g>
					<path d="M5.971,34.29c0,0-0.001,0-0.001,0l0,0c-0.363,0-0.675-0.05-0.706-0.054l0,0c-0.071-0.006-0.129-0.059-0.15-0.104l0,0
						c-0.021-0.047-0.021-0.082-0.021-0.092l0,0c0-0.014,0.002-0.028,0.008-0.041l0,0c0.097-0.244,0.211-0.456,0.336-0.64l0,0
						c0.351-0.516,0.783-0.81,1.126-0.974l0,0c0.172-0.082,0.322-0.132,0.43-0.161l0,0c0.054-0.015,0.098-0.024,0.128-0.031l0,0
						c0.015-0.002,0.027-0.005,0.036-0.006l0,0c0.003,0,0.007-0.001,0.009-0.001l0,0c0.002,0,0.002,0,0.003,0l0.001-0.001h0.001h0
						l0,0c0,0,0.002,0,0.002,0l0,0c0,0,0.001,0,0.001,0l0,0c0.003,0,0.005,0,0.006,0l0,0c0.001,0,0.001,0,0.001,0l0,0
						c0.026,0,0.052,0.011,0.07,0.031l0,0c0.018,0.02,0.028,0.047,0.028,0.075l0,0c0,0.007,0,0.014-0.001,0.02l0,0
						c0,0,0-0.001,0-0.002l0,0c-0.001,0.005-0.002,0.01-0.003,0.016l0,0c0,0,0,0.001,0,0.001l0,0c0,0,0,0,0,0l0,0
						c-0.001,0.002-0.002,0.004-0.003,0.007l0,0c0.001-0.002,0.001-0.003,0.002-0.005l0,0c-0.004,0.011-0.009,0.021-0.017,0.031l0,0
						l0,0l0,0c0,0.001-0.001,0.001-0.001,0.002l0,0c-0.002,0.002-0.003,0.003-0.005,0.006l0,0c-0.003,0.003-0.007,0.006-0.01,0.009
						l0,0c0.001-0.001,0.002-0.002,0.003-0.003l0,0c-0.015,0.014-0.034,0.023-0.056,0.025l0,0c-0.077,0.012-0.977,0.178-1.595,1.089
						l0,0c-0.107,0.157-0.206,0.336-0.292,0.543l0,0c0.08,0.01,0.35,0.049,0.667,0.049l0,0c0.22,0.001,0.461-0.02,0.664-0.079l0,0
						c0.203-0.06,0.361-0.157,0.438-0.296l0,0c0.028-0.051,0.088-0.066,0.135-0.036l0,0c0.046,0.03,0.061,0.095,0.033,0.146l0,0
						c-0.118,0.209-0.327,0.324-0.555,0.392l0,0C6.457,34.271,6.202,34.29,5.971,34.29L5.971,34.29L5.971,34.29L5.971,34.29
						L5.971,34.29L5.971,34.29z M7.189,32.397C7.19,32.397,7.19,32.397,7.189,32.397L7.189,32.397c0.001,0,0.001,0,0.001,0l0,0
						C7.19,32.397,7.19,32.397,7.189,32.397L7.189,32.397z M7.192,32.397c0.001,0,0,0,0.001,0l0,0l0,0l0,0l0,0
						C7.193,32.397,7.193,32.397,7.192,32.397L7.192,32.397z M7.207,32.395c0.003,0,0.008-0.002,0.013-0.004l0,0
						C7.215,32.393,7.21,32.394,7.207,32.395L7.207,32.395z M7.26,32.359c-0.004,0.004-0.008,0.009-0.013,0.013l0,0
						c0.004-0.003,0.008-0.007,0.011-0.012l0,0C7.259,32.36,7.259,32.359,7.26,32.359L7.26,32.359L7.26,32.359L7.26,32.359z
						 M7.281,32.312c0,0.005-0.002,0.01-0.004,0.017l0,0C7.279,32.323,7.279,32.317,7.281,32.312L7.281,32.312z"/>
				</g>
			</g>
			<g>
				<g>
					<path d="M7.213,33.426c0.038-0.041,0.038-0.109,0-0.15l0,0c-0.039-0.041-0.101-0.041-0.14,0l0,0
						c-0.313,0.335-0.581,0.432-0.801,0.432l0,0c-0.355,0.004-0.614-0.271-0.669-0.338l0,0c-0.008-0.01-0.01-0.013-0.01-0.013l0,0
						c-0.035-0.046-0.096-0.052-0.139-0.016l0,0c-0.042,0.037-0.048,0.104-0.014,0.149l0,0c0.008,0.008,0.316,0.426,0.832,0.43l0,0
						c0.001,0,0.002,0,0.002,0l0,0C6.552,33.92,6.876,33.789,7.213,33.426L7.213,33.426z"/>
				</g>
			</g>
		</g>
	</g>
	<g>
		<g>
			<path fill="#231F20" d="M8.387,25.133c-0.661-0.954-0.854-2.248-0.868-2.342l0,0c-0.007-0.035-0.092-0.484-0.092-1.062l0,0
				c0.001-0.612,0.094-1.376,0.5-1.937l0,0c0.008-0.009,0.673-0.985,1.841-0.988l0,0c0.056,0,0.101,0.052,0.101,0.116l0,0
				c0,0.063-0.045,0.115-0.101,0.115l0,0c-0.929-0.002-1.525,0.694-1.656,0.865l0,0c-0.019,0.024-0.026,0.036-0.028,0.038l0,0
				c-0.36,0.492-0.457,1.204-0.456,1.792l0,0c0,0.286,0.022,0.54,0.043,0.722l0,0c0.023,0.182,0.044,0.29,0.044,0.29l0,0
				l0.001,0.008c0,0,0.011,0.079,0.038,0.216l0,0c0.028,0.138,0.071,0.332,0.134,0.554l0,0c0.127,0.446,0.336,1.008,0.656,1.468l0,0
				c0.035,0.05,0.028,0.123-0.016,0.163l0,0c-0.019,0.018-0.041,0.026-0.063,0.026l0,0C8.437,25.178,8.407,25.162,8.387,25.133
				L8.387,25.133z"/>
		</g>
		<g>
			<path fill="#231F20" d="M10.985,25.152c-0.043-0.04-0.051-0.112-0.015-0.163l0,0c0.481-0.69,0.708-1.61,0.79-2.022l0,0
				c0.027-0.138,0.037-0.216,0.037-0.216l0,0l0.002-0.008c0,0,0.021-0.108,0.043-0.29l0,0c0.022-0.183,0.044-0.437,0.044-0.723l0,0
				c0-0.587-0.096-1.299-0.458-1.793l0,0c0,0-0.008-0.012-0.026-0.036l0,0c-0.019-0.024-0.047-0.059-0.083-0.101l0,0
				c-0.075-0.084-0.186-0.198-0.331-0.312l0,0c-0.29-0.227-0.71-0.452-1.242-0.452l0,0c-0.056,0-0.101-0.052-0.101-0.115l0,0
				c0-0.064,0.045-0.116,0.101-0.116l0,0c1.168,0.004,1.833,0.979,1.839,0.986l0,0c0.408,0.563,0.502,1.327,0.502,1.939l0,0
				c0,0.579-0.086,1.03-0.092,1.063l0,0c-0.014,0.096-0.208,1.388-0.868,2.341l0,0l0,0c-0.02,0.028-0.049,0.043-0.079,0.043l0,0
				C11.026,25.178,11.004,25.169,10.985,25.152L10.985,25.152z"/>
		</g>
		<g>
			<path fill="#231F20" d="M8.512,25.16c-0.045-0.03-0.057-0.089-0.025-0.131l0,0c0.39-0.523,0.441-1.833,0.44-2.113l0,0
				c0-0.088-0.004-0.136-0.004-0.136l0,0l0-0.006c-0.015-0.613-0.284-1.034-0.585-1.321l0,0c-0.301-0.287-0.635-0.436-0.765-0.485
				l0,0c-0.037-0.014-0.056-0.02-0.058-0.021l0,0c0,0-0.02-0.007-0.06-0.018l0,0c-0.039-0.011-0.097-0.025-0.169-0.041l0,0
				c-0.145-0.03-0.346-0.06-0.568-0.06l0,0c-0.339,0-0.726,0.07-1.054,0.31l0,0c0,0,0,0-0.002,0.002l0,0
				c-0.003,0.001-0.007,0.005-0.013,0.009l0,0c-0.01,0.009-0.025,0.023-0.04,0.04l0,0c-0.029,0.035-0.054,0.081-0.053,0.129l0,0
				c0,0.014,0.002,0.028,0.006,0.044l0,0l0.002,0.013c0,0,0,0.001,0.002,0.009l0,0c0.002,0.008,0.005,0.021,0.012,0.038l0,0
				c0.012,0.033,0.035,0.079,0.073,0.126l0,0c0.079,0.094,0.219,0.2,0.511,0.23l0,0l0.012,0.002c0,0,0.017,0.004,0.055,0.008l0,0
				c0.038,0.004,0.093,0.009,0.161,0.009l0,0c0.266-0.001,0.71-0.067,1.062-0.475l0,0v0c0.035-0.041,0.098-0.047,0.142-0.014l0,0
				c0.043,0.032,0.05,0.092,0.016,0.133l0,0c-0.4,0.464-0.919,0.545-1.219,0.544l0,0c-0.137,0-0.23-0.016-0.253-0.021l0,0
				c-0.336-0.034-0.538-0.169-0.645-0.302l0,0c-0.098-0.12-0.122-0.23-0.126-0.259l0,0c-0.008-0.029-0.011-0.059-0.011-0.086l0,0
				c0.006-0.216,0.184-0.326,0.188-0.332l0,0c0.373-0.272,0.808-0.348,1.175-0.348l0,0c0.484,0,0.859,0.129,0.863,0.13l0,0
				c0.008,0.003,0.379,0.119,0.759,0.427l0,0c0.379,0.306,0.767,0.812,0.785,1.571l0,0c0.001,0.012,0.005,0.065,0.005,0.148l0,0
				c-0.001,0.299-0.048,1.642-0.477,2.221l0,0c-0.02,0.026-0.051,0.042-0.083,0.042l0,0C8.55,25.178,8.53,25.172,8.512,25.16
				L8.512,25.16z"/>
		</g>
		<g>
			<path fill="#231F20" d="M6.158,21.672c-0.151-0.068-0.223-0.18-0.22-0.278l0,0c0.002-0.113,0.068-0.18,0.076-0.19l0,0
				c0.233-0.229,0.648-0.26,0.987-0.264l0,0c0.294,0,0.532,0.033,0.535,0.034l0,0l0,0c0.055,0.008,0.093,0.056,0.085,0.107l0,0
				c-0.001,0.004-0.002,0.008-0.002,0.012l0,0c0.009,0.005,0.018,0.014,0.025,0.023l0,0c0.032,0.043,0.021,0.102-0.024,0.131l0,0
				c-0.579,0.382-0.979,0.465-1.215,0.465l0,0C6.253,21.713,6.171,21.679,6.158,21.672L6.158,21.672z M6.251,21.504
				c0.005,0.002,0.014,0.004,0.026,0.008l0,0c0.026,0.006,0.068,0.013,0.128,0.013l0,0c0.175,0,0.505-0.058,1.01-0.374l0,0
				c-0.018-0.002-0.037-0.003-0.059-0.005l0,0c-0.092-0.008-0.218-0.017-0.356-0.016l0,0c-0.32-0.003-0.701,0.053-0.835,0.198l0,0
				c0,0.001-0.001,0.002-0.002,0.003l0,0c-0.003,0.003-0.007,0.009-0.01,0.016l0,0c-0.008,0.014-0.014,0.032-0.014,0.047l0,0
				c0.002,0.022,0.001,0.054,0.108,0.109l0,0C6.249,21.503,6.25,21.504,6.251,21.504L6.251,21.504z"/>
		</g>
		<g>
			<path fill="#231F20" d="M10.867,25.136c-0.429-0.578-0.476-1.922-0.477-2.221l0,0c0-0.083,0.003-0.138,0.004-0.149l0,0
				c0.018-0.759,0.406-1.265,0.785-1.571l0,0c0.379-0.308,0.75-0.424,0.756-0.426l0,0c0.007-0.002,0.381-0.131,0.866-0.131l0,0
				c0.367,0,0.802,0.076,1.172,0.346l0,0c0.006,0.007,0.185,0.118,0.19,0.334l0,0c0,0.027-0.003,0.057-0.011,0.086l0,0
				c-0.005,0.031-0.029,0.14-0.126,0.259l0,0c-0.106,0.132-0.309,0.269-0.645,0.302l0,0c-0.023,0.004-0.117,0.02-0.253,0.02l0,0
				c-0.3,0.001-0.819-0.08-1.219-0.544l0,0l0,0c-0.035-0.041-0.028-0.1,0.015-0.132l0,0c0.043-0.033,0.107-0.026,0.142,0.014l0,0
				c0.351,0.407,0.795,0.474,1.062,0.475l0,0c0.067,0,0.123-0.004,0.16-0.009l0,0c0.038-0.004,0.054-0.008,0.055-0.008l0,0
				l0.011-0.002c0.505-0.054,0.577-0.333,0.597-0.395l0,0c0.002-0.008,0.002-0.009,0.002-0.009l0,0l0.003-0.013
				c0.004-0.016,0.006-0.03,0.006-0.043l0,0c0.004-0.084-0.083-0.166-0.105-0.18l0,0c-0.003-0.002-0.003-0.002-0.005-0.004l0,0
				c-0.325-0.238-0.711-0.308-1.051-0.308l0,0c-0.334,0-0.619,0.068-0.737,0.102l0,0c-0.039,0.011-0.059,0.018-0.062,0.019l0,0
				c0,0-0.018,0.006-0.055,0.02l0,0c-0.037,0.014-0.091,0.037-0.156,0.068l0,0c-0.13,0.063-0.304,0.161-0.479,0.302l0,0
				c-0.349,0.285-0.698,0.736-0.715,1.437l0,0l0,0.006c0,0-0.004,0.048-0.004,0.135l0,0c-0.001,0.28,0.05,1.59,0.44,2.114l0,0
				c0.032,0.043,0.02,0.101-0.026,0.131l0,0c-0.017,0.011-0.037,0.017-0.057,0.017l0,0C10.918,25.178,10.887,25.163,10.867,25.136
				L10.867,25.136z"/>
		</g>
		<g>
			<path fill="#231F20" d="M13.114,21.713c-0.236,0-0.636-0.083-1.214-0.465l0,0c-0.045-0.03-0.056-0.089-0.024-0.131l0,0
				c0.007-0.01,0.016-0.018,0.025-0.023l0,0c-0.001-0.004-0.002-0.008-0.002-0.012l0,0c-0.008-0.051,0.03-0.1,0.085-0.107l0,0
				c0.003,0,0.241-0.034,0.535-0.034l0,0c0.339,0.003,0.753,0.034,0.99,0.266l0,0c0.005,0.009,0.071,0.075,0.074,0.188l0,0
				c0.003,0.098-0.069,0.21-0.221,0.278l0,0c-0.013,0.006-0.094,0.041-0.246,0.041l0,0C13.115,21.713,13.114,21.713,13.114,21.713
				L13.114,21.713z M13.114,21.525c0.098,0,0.148-0.018,0.157-0.021l0,0c0.106-0.055,0.106-0.086,0.108-0.108l0,0
				c0.001-0.023-0.018-0.057-0.025-0.064l0,0c0-0.001,0-0.001-0.001-0.002l0,0l0,0h0c-0.138-0.147-0.516-0.203-0.835-0.199l0,0
				c-0.139,0-0.266,0.008-0.358,0.016l0,0c-0.021,0.002-0.04,0.003-0.057,0.005l0,0C12.609,21.467,12.939,21.525,13.114,21.525
				L13.114,21.525z"/>
		</g>
		<g>
			<path fill="#231F20" d="M8.548,19.815c0-0.052,0.045-0.094,0.101-0.094l0,0c0.055,0,0.101,0.042,0.101,0.094l0,0
				c0.001,0.065,0.048,0.102,0.084,0.102l0,0c0.036,0,0.083-0.037,0.084-0.102l0,0c0-0.052,0.045-0.094,0.101-0.094l0,0
				c0.056,0,0.101,0.042,0.101,0.094l0,0c0,0.152-0.118,0.289-0.286,0.291l0,0C8.665,20.104,8.548,19.967,8.548,19.815L8.548,19.815
				z"/>
		</g>
		<g>
			<path fill="#231F20" d="M9.285,19.744c0-0.052,0.045-0.095,0.101-0.095l0,0c0.055,0,0.101,0.042,0.101,0.095l0,0
				c0,0.065,0.048,0.102,0.084,0.102l0,0c0.036,0,0.083-0.036,0.084-0.102l0,0c0-0.052,0.045-0.095,0.101-0.095l0,0
				c0.055,0,0.101,0.042,0.101,0.095l0,0c0,0.152-0.118,0.289-0.286,0.291l0,0C9.402,20.032,9.285,19.895,9.285,19.744L9.285,19.744
				z"/>
		</g>
		<g>
			<path fill="#231F20" d="M8.917,19.788c-0.001-0.012-0.001-0.021-0.001-0.031l0,0c-0.001-0.14,0.101-0.27,0.258-0.285l0,0l0,0
				c0.01-0.001,0.018-0.001,0.024-0.001l0,0c0.157,0.002,0.274,0.123,0.289,0.267l0,0l0,0c0.005,0.052-0.036,0.098-0.091,0.103l0,0
				c-0.056,0.005-0.105-0.034-0.11-0.085l0,0c-0.006-0.061-0.054-0.096-0.088-0.094l0,0c-0.001-0.001-0.001,0-0.001,0l0,0l-0.004,0
				c-0.034,0.001-0.074,0.038-0.075,0.097l0,0c0,0.004,0,0.008,0.001,0.011l0,0c0.006,0.052-0.035,0.098-0.09,0.104l0,0
				c-0.003,0-0.007,0-0.01,0l0,0C8.967,19.872,8.923,19.836,8.917,19.788L8.917,19.788z"/>
		</g>
		<g>
			<path fill="#231F20" d="M8.693,25.582c0-0.174,0.15-0.315,0.336-0.315l0,0c0.186,0,0.336,0.141,0.336,0.315l0,0
				c0,0.174-0.15,0.314-0.336,0.314l0,0C8.844,25.896,8.693,25.756,8.693,25.582L8.693,25.582z M8.895,25.582
				c0,0.069,0.061,0.125,0.135,0.125l0,0c0.074,0,0.134-0.056,0.134-0.125l0,0c0-0.069-0.06-0.125-0.134-0.126l0,0
				C8.955,25.457,8.895,25.513,8.895,25.582L8.895,25.582z"/>
		</g>
		<g>
			<path fill="#231F20" d="M9.029,26.325c-0.032,0-0.055-0.002-0.067-0.003l0,0c-0.406-0.011-0.703-0.37-0.706-0.731l0,0
				c0-0.162,0.062-0.312,0.165-0.426l0,0c0.13-0.147,0.329-0.241,0.549-0.241l0,0c0.147,0,0.285,0.042,0.399,0.114l0,0h0
				c0.046,0.029,0.058,0.087,0.027,0.13l0,0c-0.032,0.043-0.094,0.055-0.141,0.026l0,0c-0.082-0.051-0.18-0.082-0.287-0.082l0,0
				c-0.158,0-0.3,0.067-0.394,0.173l0,0c-0.075,0.083-0.118,0.189-0.118,0.306l0,0c-0.001,0.133,0.059,0.273,0.155,0.376l0,0
				c0.096,0.103,0.223,0.167,0.357,0.167l0,0l0.018,0.002c0,0,0,0,0.007,0l0,0c0.007,0,0.019,0.001,0.033,0.001l0,0
				c0.062,0,0.181-0.013,0.301-0.098l0,0c0.182-0.132,0.313-0.154,0.39-0.153l0,0c0.016,0,0.027,0.001,0.033,0.001l0,0
				c0.056,0,0.101,0.042,0.101,0.094l0,0c0,0.052-0.045,0.094-0.101,0.094l0,0c-0.014,0-0.023,0-0.033,0l0,0
				c-0.041,0.001-0.103,0-0.267,0.115l0,0c-0.164,0.116-0.329,0.136-0.421,0.136l0,0C9.03,26.325,9.029,26.325,9.029,26.325
				L9.029,26.325z"/>
		</g>
		<g>
			<path fill="#231F20" d="M9.101,26.27L9.101,26.27c-0.023-0.048-0.002-0.104,0.048-0.125l0,0c0.05-0.022,0.109-0.003,0.134,0.043
				l0,0c0,0,0,0.001,0.001,0.003l0,0c0.001,0.003,0.004,0.008,0.009,0.014l0,0c0.009,0.013,0.025,0.03,0.047,0.048l0,0
				c0.046,0.035,0.118,0.072,0.243,0.073l0,0l0.168,0.001c0.056,0,0.101,0.042,0.101,0.094l0,0c0,0.052-0.045,0.094-0.101,0.094l0,0
				H9.584c0,0-0.001,0-0.001,0l0,0C9.234,26.514,9.104,26.284,9.101,26.27L9.101,26.27z"/>
		</g>
		<g>
			<path fill="#231F20" d="M10.402,19.815c0-0.052,0.045-0.094,0.101-0.094l0,0c0.055,0,0.101,0.042,0.101,0.094l0,0
				c0.001,0.065,0.048,0.102,0.084,0.102l0,0c0.037,0,0.083-0.037,0.084-0.102l0,0c0-0.052,0.045-0.094,0.101-0.094l0,0
				c0.056,0,0.101,0.042,0.101,0.094l0,0c0,0.152-0.118,0.289-0.286,0.291l0,0C10.519,20.104,10.402,19.967,10.402,19.815
				L10.402,19.815z"/>
		</g>
		<g>
			<path fill="#231F20" d="M9.665,19.744c0-0.052,0.045-0.095,0.101-0.095l0,0c0.056,0,0.101,0.042,0.101,0.095l0,0
				c0,0.065,0.048,0.102,0.083,0.102l0,0c0.037,0,0.083-0.036,0.084-0.102l0,0c0-0.052,0.045-0.095,0.101-0.095l0,0
				c0.056,0,0.101,0.042,0.101,0.095l0,0c0,0.152-0.118,0.289-0.286,0.291l0,0C9.782,20.032,9.665,19.895,9.665,19.744L9.665,19.744
				z"/>
		</g>
		<g>
			<path fill="#231F20" d="M10.495,19.872c-0.056-0.004-0.097-0.049-0.093-0.102l0,0c0-0.005,0-0.009,0-0.013l0,0
				c0-0.059-0.041-0.095-0.078-0.098l0,0c0,0,0,0,0,0l0,0c0,0-0.001,0-0.002,0l0,0c-0.034-0.002-0.081,0.033-0.087,0.095l0,0
				c-0.005,0.052-0.054,0.09-0.109,0.085l0,0c-0.056-0.004-0.097-0.051-0.092-0.103l0,0c0.014-0.144,0.132-0.265,0.289-0.267l0,0
				c0.007,0,0.017,0,0.024,0.001l0,0c0.157,0.014,0.259,0.145,0.258,0.285l0,0c0,0.009,0,0.019-0.001,0.028l0,0
				c-0.003,0.049-0.048,0.086-0.1,0.086l0,0C10.5,19.872,10.497,19.872,10.495,19.872L10.495,19.872z"/>
		</g>
		<g>
			<path fill="#231F20" d="M10.155,25.582c0-0.174,0.15-0.315,0.336-0.315l0,0c0.186,0,0.335,0.141,0.335,0.315l0,0
				c0,0.174-0.151,0.314-0.335,0.314l0,0C10.306,25.896,10.155,25.756,10.155,25.582L10.155,25.582z M10.492,25.708
				c0.074,0,0.134-0.056,0.134-0.125l0,0c0-0.069-0.06-0.125-0.134-0.126l0,0c-0.075,0-0.135,0.057-0.135,0.126l0,0
				C10.357,25.651,10.417,25.708,10.492,25.708L10.492,25.708z"/>
		</g>
		<g>
			<path fill="#231F20" d="M10.069,26.188c-0.166-0.114-0.227-0.112-0.268-0.114l0,0c-0.009,0-0.019,0-0.033,0l0,0
				c-0.055,0-0.101-0.042-0.101-0.094l0,0c0-0.052,0.045-0.094,0.101-0.094l0,0c0.006,0,0.018,0,0.033-0.001l0,0
				c0.077-0.001,0.208,0.021,0.39,0.154l0,0c0.121,0.085,0.239,0.098,0.301,0.098l0,0c0.015,0,0.026-0.001,0.034-0.001l0,0
				c0.007,0,0.008-0.001,0.008-0.001l0,0l0.018-0.001c0.135,0,0.261-0.064,0.358-0.167l0,0c0.095-0.103,0.155-0.243,0.155-0.375l0,0
				c0-0.117-0.044-0.223-0.119-0.306l0,0c-0.094-0.106-0.235-0.174-0.395-0.174l0,0c-0.106,0-0.204,0.031-0.286,0.082l0,0l0,0
				c-0.046,0.029-0.109,0.018-0.14-0.025l0,0c-0.032-0.043-0.019-0.103,0.027-0.131l0,0c0.113-0.072,0.25-0.114,0.398-0.114l0,0
				c0.221,0,0.419,0.094,0.549,0.242l0,0c0.103,0.115,0.165,0.265,0.165,0.427l0,0c-0.002,0.361-0.299,0.72-0.706,0.73l0,0
				c-0.013,0.002-0.036,0.003-0.066,0.003l0,0c-0.001,0-0.002,0-0.002,0l0,0C10.398,26.325,10.233,26.304,10.069,26.188
				L10.069,26.188z"/>
		</g>
		<g>
			<path fill="#231F20" d="M9.667,26.419c0-0.052,0.046-0.094,0.101-0.094l0,0h0.168c0.229,0,0.295-0.131,0.301-0.138l0,0v0
				c0.024-0.046,0.083-0.066,0.133-0.044l0,0c0.05,0.022,0.072,0.078,0.049,0.125l0,0c-0.004,0.014-0.134,0.245-0.484,0.244l0,0
				H9.768C9.713,26.514,9.667,26.472,9.667,26.419L9.667,26.419z M10.237,26.189L10.237,26.189L10.237,26.189L10.237,26.189
				L10.237,26.189L10.237,26.189z"/>
		</g>
	</g>
	<path fill="#231F20" d="M44.314,11.629l-4.039,4.473c-0.199,0.223-0.479,0.334-0.756,0.334c-0.223,0-0.443-0.07-0.631-0.221
		l-2.525-1.986c-0.438-0.34-0.506-0.965-0.159-1.396c0.351-0.428,0.983-0.499,1.421-0.153l1.777,1.396l3.404-3.766
		c0.367-0.408,1.008-0.444,1.424-0.084C44.646,10.593,44.684,11.221,44.314,11.629z"/>
	<path fill="#231F20" d="M56.068,11.629l-4.039,4.473c-0.199,0.223-0.479,0.334-0.756,0.334c-0.223,0-0.443-0.07-0.631-0.221
		l-2.525-1.986c-0.438-0.34-0.506-0.965-0.159-1.396c0.351-0.428,0.983-0.499,1.421-0.153l1.777,1.396l3.404-3.766
		c0.367-0.408,1.008-0.444,1.424-0.084C56.4,10.593,56.438,11.221,56.068,11.629z"/>
</g>
</svg>
