<?xml version="1.0" encoding="utf-8"?>
<!-- Generator: Adobe Illustrator 16.0.0, SVG Export Plug-In . SVG Version: 6.00 Build 0)  -->
<!DOCTYPE svg PUBLIC "-//W3C//DTD SVG 1.1//EN" "http://www.w3.org/Graphics/SVG/1.1/DTD/svg11.dtd">
<svg version="1.1" xmlns="http://www.w3.org/2000/svg" xmlns:xlink="http://www.w3.org/1999/xlink" x="0px" y="0px" width="64px"
	 height="64px" viewBox="0 0 64 64" enable-background="new 0 0 64 64" xml:space="preserve">
<g>
	<path d="M63.162,9.798c0-0.052-0.006-0.103-0.008-0.155v0.351C63.156,9.929,63.162,9.864,63.162,9.798z"/>
	<path fill="#202020" d="M34.467,40.843h15.941c3.523,0,6.379-2.305,6.379-5.146v-8.113H50.41v8.113H34.467v-8.113h-6.375v8.113
		H12.15v-8.113H5.774v8.113c0,2.842,2.854,5.146,6.376,5.146h15.941V64h6.375V40.843z"/>
	<g>
		<g>
			<path fill="#202020" d="M6.728,24.531c-1.248-1.774-1.623-4.186-1.652-4.361l0,0c-0.013-0.065-0.178-0.902-0.185-1.98l0,0
				c-0.007-1.143,0.158-2.572,0.91-3.621l0,0c0.015-0.019,1.244-1.848,3.425-1.869l0,0c0.104,0,0.188,0.095,0.189,0.215l0,0
				c0.001,0.118-0.083,0.215-0.187,0.216l0,0c-1.734,0.009-2.839,1.315-3.08,1.635l0,0c-0.035,0.045-0.049,0.066-0.053,0.072l0,0
				c-0.667,0.922-0.838,2.253-0.828,3.351l0,0c0.003,0.532,0.047,1.008,0.091,1.347l0,0c0.043,0.34,0.085,0.541,0.085,0.541l0,0
				l0.002,0.013c0,0,0.021,0.148,0.073,0.403l0,0c0.054,0.256,0.136,0.618,0.258,1.035l0,0c0.242,0.83,0.639,1.876,1.244,2.731l0,0
				c0.064,0.094,0.052,0.231-0.029,0.304l0,0c-0.034,0.033-0.075,0.048-0.116,0.048l0,0C6.82,24.612,6.765,24.584,6.728,24.531
				L6.728,24.531z"/>
		</g>
		<g>
			<path fill="#202020" d="M11.579,24.533c-0.082-0.074-0.096-0.208-0.031-0.303l0,0c0.89-1.295,1.302-3.016,1.448-3.788l0,0
				c0.049-0.256,0.068-0.403,0.068-0.403l0,0l0.003-0.014c0-0.001,0.039-0.201,0.077-0.542l0,0c0.04-0.339,0.078-0.815,0.075-1.348
				l0,0c-0.007-1.098-0.196-2.426-0.879-3.345l0,0c0,0-0.014-0.021-0.048-0.065l0,0c-0.035-0.044-0.089-0.109-0.158-0.187l0,0
				c-0.142-0.158-0.35-0.369-0.621-0.579l0,0c-0.544-0.419-1.332-0.834-2.324-0.828l0,0c-0.104,0-0.189-0.096-0.19-0.214l0,0
				c0-0.119,0.083-0.216,0.188-0.217l0,0c2.182-0.008,3.434,1.804,3.446,1.818l0,0c0.769,1.044,0.953,2.47,0.963,3.614l0,0
				c0.007,1.083-0.147,1.925-0.16,1.984l0,0c-0.026,0.18-0.37,2.595-1.592,4.383l0,0l0,0c-0.037,0.054-0.092,0.083-0.145,0.082l0,0
				C11.655,24.581,11.613,24.565,11.579,24.533L11.579,24.533z"/>
		</g>
		<g>
			<path fill="#202020" d="M6.961,24.579c-0.085-0.055-0.108-0.164-0.049-0.244l0,0c0.723-0.982,0.8-3.428,0.796-3.951l0,0
				c-0.001-0.165-0.01-0.254-0.01-0.254l0,0v-0.011c-0.036-1.145-0.543-1.926-1.109-2.459l0,0c-0.566-0.532-1.191-0.805-1.435-0.896
				l0,0c-0.07-0.025-0.104-0.036-0.109-0.037l0,0c-0.001,0-0.037-0.013-0.111-0.033l0,0c-0.074-0.02-0.182-0.047-0.316-0.075l0,0
				c-0.27-0.054-0.646-0.108-1.061-0.105l0,0c-0.635,0.004-1.355,0.141-1.964,0.591l0,0c0,0.001,0,0-0.004,0.005l0,0
				c-0.005,0.004-0.013,0.01-0.022,0.018l0,0c-0.021,0.017-0.047,0.043-0.074,0.076l0,0c-0.053,0.065-0.099,0.15-0.098,0.242l0,0
				c0,0.025,0.003,0.054,0.011,0.083l0,0l0.005,0.023c0,0,0,0.001,0.004,0.018l0,0c0.004,0.016,0.011,0.041,0.023,0.071l0,0
				c0.023,0.061,0.065,0.146,0.138,0.235l0,0c0.147,0.175,0.412,0.37,0.957,0.423l0,0l0.021,0.002c0,0,0.032,0.008,0.103,0.014l0,0
				c0.069,0.009,0.172,0.016,0.299,0.015l0,0c0.498-0.005,1.326-0.135,1.976-0.899l0,0v0c0.063-0.077,0.183-0.09,0.265-0.028l0,0
				c0.082,0.06,0.094,0.171,0.03,0.248l0,0c-0.741,0.873-1.709,1.031-2.269,1.033l0,0c-0.255,0.001-0.429-0.026-0.473-0.035l0,0
				c-0.627-0.058-1.005-0.31-1.207-0.556l0,0c-0.183-0.223-0.229-0.429-0.239-0.482l0,0c-0.016-0.056-0.021-0.11-0.022-0.162l0,0
				c0.009-0.403,0.339-0.611,0.347-0.622l0,0c0.693-0.513,1.504-0.659,2.19-0.664l0,0c0.903-0.006,1.605,0.23,1.612,0.23l0,0
				c0.015,0.006,0.71,0.218,1.423,0.789l0,0c0.71,0.568,1.442,1.506,1.483,2.922l0,0c0.003,0.023,0.011,0.123,0.012,0.278l0,0
				c0.002,0.558-0.068,3.066-0.862,4.152l0,0c-0.036,0.05-0.095,0.077-0.154,0.078l0,0C7.032,24.612,6.994,24.602,6.961,24.579
				L6.961,24.579z"/>
		</g>
		<g>
			<path fill="#202020" d="M2.522,18.097c-0.283-0.125-0.419-0.333-0.415-0.517l0,0c0.003-0.211,0.126-0.337,0.141-0.357l0,0
				c0.432-0.43,1.207-0.493,1.839-0.503l0,0c0.549-0.004,0.994,0.056,1,0.056l0,0l0,0c0.102,0.015,0.174,0.104,0.16,0.199l0,0
				c-0.002,0.008-0.003,0.015-0.005,0.022l0,0c0.018,0.012,0.035,0.025,0.048,0.043l0,0c0.061,0.078,0.042,0.189-0.043,0.246l0,0
				c-1.075,0.719-1.821,0.879-2.262,0.882l0,0C2.699,18.172,2.545,18.107,2.522,18.097L2.522,18.097z M2.693,17.782
				c0.009,0.004,0.025,0.009,0.049,0.015l0,0c0.049,0.01,0.128,0.022,0.239,0.021l0,0c0.326-0.001,0.943-0.113,1.882-0.71l0,0
				c-0.033-0.005-0.069-0.008-0.11-0.01l0,0c-0.171-0.015-0.407-0.028-0.665-0.026l0,0c-0.599-0.003-1.309,0.108-1.556,0.381l0,0
				c0,0.002-0.002,0.003-0.005,0.006l0,0c-0.005,0.007-0.013,0.017-0.019,0.03l0,0c-0.014,0.026-0.026,0.06-0.025,0.089l0,0
				c0.005,0.042,0.003,0.102,0.202,0.202l0,0C2.688,17.781,2.689,17.782,2.693,17.782L2.693,17.782z"/>
		</g>
		<g>
			<path fill="#202020" d="M11.356,24.505c-0.807-1.075-0.912-3.583-0.917-4.141l0,0c0-0.156,0.006-0.257,0.007-0.278l0,0
				c0.026-1.418,0.743-2.367,1.447-2.944l0,0c0.706-0.58,1.396-0.801,1.406-0.804l0,0c0.013-0.005,0.71-0.249,1.614-0.256l0,0
				c0.687-0.004,1.5,0.13,2.195,0.632l0,0c0.011,0.014,0.346,0.216,0.359,0.62l0,0c0,0.052-0.006,0.107-0.019,0.163l0,0
				c-0.01,0.057-0.055,0.262-0.233,0.484l0,0c-0.197,0.249-0.572,0.506-1.198,0.573l0,0c-0.043,0.009-0.219,0.04-0.472,0.041l0,0
				c-0.561,0.007-1.532-0.139-2.283-1.001l0,0l0,0c-0.067-0.075-0.055-0.186,0.026-0.248l0,0c0.08-0.061,0.198-0.051,0.264,0.025
				l0,0c0.66,0.756,1.492,0.874,1.988,0.872l0,0c0.127-0.001,0.23-0.01,0.299-0.019l0,0c0.071-0.008,0.102-0.016,0.103-0.016l0,0
				l0.021-0.004c0.944-0.108,1.072-0.628,1.11-0.745l0,0c0.002-0.016,0.004-0.017,0.004-0.017l0,0l0.005-0.023
				c0.007-0.03,0.009-0.058,0.009-0.082l0,0c0.008-0.158-0.158-0.308-0.197-0.334l0,0C16.89,17,16.89,17,16.885,16.997l0,0
				c-0.611-0.44-1.333-0.565-1.968-0.561l0,0c-0.623,0.004-1.154,0.136-1.375,0.199l0,0c-0.074,0.021-0.11,0.034-0.115,0.035l0,0
				c0,0-0.033,0.011-0.103,0.038l0,0c-0.069,0.027-0.168,0.071-0.291,0.129l0,0c-0.241,0.119-0.566,0.305-0.89,0.571l0,0
				c-0.649,0.536-1.294,1.382-1.317,2.691l0,0v0.01c0,0.001-0.009,0.091-0.008,0.253l0,0c0.002,0.522,0.113,2.969,0.85,3.94l0,0
				c0.06,0.078,0.039,0.188-0.047,0.246l0,0c-0.032,0.022-0.068,0.032-0.106,0.033l0,0C11.452,24.582,11.394,24.554,11.356,24.505
				L11.356,24.505z"/>
		</g>
		<g>
			<path fill="#202020" d="M15.509,18.085c-0.441,0.003-1.188-0.147-2.273-0.852l0,0c-0.084-0.056-0.105-0.165-0.047-0.245l0,0
				c0.014-0.019,0.03-0.033,0.047-0.043l0,0c-0.002-0.007-0.004-0.015-0.005-0.023l0,0c-0.017-0.096,0.054-0.186,0.158-0.201l0,0
				c0.005,0,0.45-0.066,0.999-0.07l0,0c0.632,0.002,1.408,0.054,1.851,0.483l0,0c0.009,0.016,0.134,0.138,0.14,0.351l0,0
				c0.008,0.183-0.127,0.394-0.408,0.523l0,0c-0.023,0.01-0.176,0.077-0.458,0.078l0,0C15.511,18.085,15.509,18.085,15.509,18.085
				L15.509,18.085z M15.507,17.733c0.181-0.001,0.276-0.035,0.293-0.041l0,0c0.197-0.104,0.197-0.164,0.201-0.205l0,0
				c0.002-0.043-0.034-0.105-0.048-0.12l0,0c0-0.001-0.001-0.002-0.002-0.003l0,0l0,0v0c-0.26-0.272-0.967-0.372-1.562-0.36l0,0
				c-0.26,0-0.496,0.017-0.668,0.034l0,0c-0.039,0.003-0.074,0.008-0.105,0.011l0,0C14.563,17.632,15.18,17.735,15.507,17.733
				L15.507,17.733z"/>
		</g>
		<g>
			<path fill="#202020" d="M6.959,14.599c-0.001-0.097,0.083-0.177,0.187-0.178l0,0c0.104,0,0.189,0.078,0.189,0.175l0,0
				c0.001,0.122,0.091,0.19,0.158,0.189l0,0c0.067,0,0.155-0.069,0.156-0.191l0,0c-0.001-0.097,0.083-0.176,0.187-0.179l0,0
				c0.104,0,0.189,0.078,0.19,0.176l0,0c0.002,0.282-0.215,0.54-0.529,0.546l0,0C7.182,15.136,6.961,14.882,6.959,14.599
				L6.959,14.599z"/>
		</g>
		<g>
			<path fill="#202020" d="M8.334,14.457c0-0.098,0.083-0.178,0.188-0.179l0,0c0.104-0.001,0.188,0.078,0.189,0.176l0,0
				c0.002,0.123,0.091,0.19,0.158,0.19l0,0c0.067-0.001,0.155-0.07,0.155-0.192l0,0c0-0.097,0.083-0.177,0.188-0.178l0,0
				c0.103,0,0.189,0.078,0.189,0.176l0,0c0.001,0.282-0.216,0.54-0.529,0.546l0,0C8.558,14.994,8.337,14.739,8.334,14.457
				L8.334,14.457z"/>
		</g>
		<g>
			<path fill="#202020" d="M7.649,14.542c-0.002-0.021-0.003-0.041-0.003-0.057l0,0c-0.003-0.262,0.185-0.504,0.478-0.535l0,0l0,0
				c0.019-0.002,0.034-0.002,0.044-0.003l0,0c0.293,0.002,0.515,0.226,0.542,0.495l0,0l0,0c0.01,0.097-0.064,0.183-0.169,0.193l0,0
				c-0.103,0.009-0.195-0.062-0.206-0.159l0,0C8.323,14.362,8.234,14.296,8.17,14.3l0,0c-0.002-0.001-0.002,0-0.002,0l0,0l-0.009,0
				c-0.062,0.004-0.136,0.072-0.136,0.183l0,0c-0.001,0.007,0,0.014,0,0.02l0,0c0.012,0.096-0.063,0.184-0.166,0.195l0,0
				c-0.007,0-0.014,0.001-0.02,0.001l0,0C7.742,14.699,7.661,14.633,7.649,14.542L7.649,14.542z"/>
		</g>
		<g>
			<path fill="#202020" d="M7.304,25.364c-0.001-0.324,0.277-0.59,0.624-0.591l0,0c0.347-0.003,0.628,0.259,0.632,0.583l0,0
				c0.002,0.326-0.278,0.589-0.624,0.591l0,0C7.588,25.95,7.306,25.69,7.304,25.364L7.304,25.364z M7.68,25.363
				c0.001,0.128,0.114,0.232,0.253,0.231l0,0c0.139-0.001,0.25-0.106,0.25-0.235l0,0c-0.001-0.13-0.114-0.234-0.253-0.234l0,0
				C7.791,25.127,7.68,25.232,7.68,25.363L7.68,25.363z"/>
		</g>
		<g>
			<path fill="#202020" d="M7.939,26.747c-0.059,0-0.102-0.003-0.125-0.005l0,0c-0.759-0.015-1.317-0.682-1.327-1.356l0,0
				c-0.002-0.302,0.111-0.583,0.302-0.798l0,0c0.242-0.276,0.61-0.454,1.022-0.458l0,0c0.276-0.001,0.534,0.076,0.746,0.209l0,0
				l0.002-0.002c0.085,0.054,0.109,0.163,0.051,0.245l0,0c-0.058,0.08-0.175,0.103-0.262,0.048l0,0
				c-0.154-0.095-0.336-0.15-0.536-0.148l0,0c-0.296,0.002-0.56,0.128-0.734,0.331l0,0c-0.137,0.155-0.217,0.353-0.215,0.572l0,0
				c0,0.249,0.112,0.508,0.293,0.699l0,0c0.181,0.192,0.419,0.309,0.67,0.307l0,0l0.033,0.004c0.001,0,0,0,0.014,0.002l0,0
				c0.013,0,0.035,0.001,0.063,0.003l0,0c0.115-0.002,0.336-0.028,0.559-0.189l0,0c0.338-0.249,0.582-0.292,0.727-0.291l0,0
				c0.03,0,0.05,0.001,0.06,0.001l0,0c0.104-0.001,0.189,0.076,0.189,0.175l0,0c0,0.097-0.083,0.176-0.187,0.179l0,0
				c-0.026-0.002-0.043-0.002-0.061-0.002l0,0c-0.077,0.005-0.191,0.003-0.497,0.217l0,0c-0.304,0.221-0.612,0.26-0.785,0.261l0,0
				C7.941,26.747,7.94,26.747,7.939,26.747L7.939,26.747z"/>
		</g>
		<g>
			<path fill="#202020" d="M8.072,26.645L8.072,26.645c-0.043-0.091-0.005-0.194,0.09-0.236l0,0
				c0.093-0.041,0.203-0.005,0.249,0.082l0,0c0,0,0,0.001,0.003,0.003l0,0c0.002,0.008,0.009,0.015,0.018,0.026l0,0
				c0.018,0.023,0.046,0.055,0.09,0.089l0,0c0.085,0.065,0.22,0.134,0.454,0.133l0,0l0.314-0.001c0.104,0,0.189,0.077,0.19,0.174
				l0,0c0,0.098-0.084,0.178-0.188,0.179l0,0l-0.314,0.002c0,0-0.002,0-0.003,0l0,0C8.325,27.098,8.081,26.669,8.072,26.645
				L8.072,26.645z"/>
		</g>
		<g>
			<path fill="#202020" d="M10.421,14.575c0-0.097,0.082-0.177,0.186-0.178l0,0c0.104,0,0.189,0.078,0.189,0.175l0,0
				c0.002,0.122,0.092,0.189,0.158,0.189l0,0c0.067-0.001,0.155-0.07,0.156-0.192l0,0c-0.001-0.096,0.083-0.177,0.187-0.177l0,0
				c0.104,0,0.189,0.078,0.189,0.175l0,0c0.001,0.283-0.216,0.54-0.529,0.546l0,0C10.644,15.113,10.423,14.859,10.421,14.575
				L10.421,14.575z"/>
		</g>
		<g>
			<path fill="#202020" d="M9.043,14.452c-0.001-0.098,0.083-0.178,0.187-0.178l0,0c0.104-0.001,0.189,0.079,0.19,0.176l0,0
				c0.002,0.122,0.091,0.189,0.158,0.189l0,0c0.067-0.001,0.155-0.07,0.155-0.192l0,0c0-0.097,0.082-0.178,0.188-0.178l0,0
				c0.104,0,0.188,0.078,0.189,0.176l0,0c0.002,0.283-0.215,0.541-0.531,0.546l0,0C9.266,14.989,9.046,14.735,9.043,14.452
				L9.043,14.452z"/>
		</g>
		<g>
			<path fill="#202020" d="M10.596,14.68c-0.105-0.007-0.181-0.091-0.174-0.188l0,0c0-0.01,0-0.018,0-0.025l0,0
				c-0.002-0.11-0.077-0.178-0.146-0.18l0,0c0,0,0,0-0.001-0.001l0,0c-0.001,0-0.001,0-0.003,0.001l0,0
				c-0.063-0.003-0.151,0.063-0.163,0.178l0,0c-0.009,0.097-0.1,0.169-0.204,0.161l0,0c-0.104-0.007-0.18-0.093-0.171-0.19l0,0
				c0.023-0.269,0.242-0.496,0.535-0.501l0,0c0.015,0,0.031,0,0.046,0.002l0,0c0.293,0.025,0.484,0.267,0.484,0.529l0,0
				c0,0.018,0,0.036-0.001,0.052l0,0c-0.008,0.092-0.089,0.163-0.186,0.163l0,0C10.606,14.68,10.601,14.68,10.596,14.68
				L10.596,14.68z"/>
		</g>
		<g>
			<path fill="#202020" d="M10.034,25.346c-0.003-0.325,0.276-0.59,0.623-0.591l0,0c0.346-0.003,0.628,0.258,0.63,0.583l0,0
				c0.003,0.325-0.277,0.589-0.623,0.591l0,0C10.318,25.932,10.036,25.67,10.034,25.346L10.034,25.346z M10.663,25.577
				c0.138-0.001,0.249-0.107,0.248-0.236l0,0c0-0.131-0.114-0.233-0.252-0.234l0,0c-0.139,0.002-0.25,0.108-0.249,0.237l0,0
				C10.411,25.473,10.523,25.578,10.663,25.577L10.663,25.577z"/>
		</g>
		<g>
			<path fill="#202020" d="M9.88,26.479c-0.31-0.212-0.425-0.208-0.501-0.21l0,0c-0.018,0-0.036,0-0.062,0.001l0,0
				c-0.103,0-0.188-0.079-0.188-0.175l0,0c-0.001-0.098,0.083-0.178,0.187-0.178l0,0c0.01,0,0.032,0,0.061-0.001l0,0
				c0.143-0.004,0.388,0.038,0.729,0.283l0,0c0.226,0.155,0.446,0.18,0.563,0.18l0,0c0.026-0.001,0.048-0.003,0.061-0.004l0,0
				c0.013-0.001,0.016-0.003,0.016-0.003l0,0l0.032-0.003c0.251-0.001,0.488-0.122,0.667-0.316l0,0
				c0.176-0.192,0.286-0.455,0.283-0.702l0,0c0-0.219-0.084-0.416-0.224-0.571l0,0c-0.177-0.197-0.442-0.319-0.739-0.318l0,0
				c-0.198,0.001-0.38,0.058-0.533,0.155l0,0l0,0c-0.086,0.055-0.204,0.036-0.263-0.046l0,0c-0.06-0.079-0.036-0.189,0.049-0.243
				l0,0c0.213-0.137,0.468-0.217,0.744-0.219l0,0c0.412-0.003,0.784,0.171,1.028,0.443l0,0c0.194,0.214,0.313,0.493,0.313,0.795l0,0
				c0,0.675-0.55,1.348-1.309,1.375l0,0c-0.024,0.004-0.066,0.006-0.125,0.008l0,0c-0.002,0-0.003-0.001-0.005,0l0,0
				C10.497,26.729,10.187,26.693,9.88,26.479L9.88,26.479z"/>
		</g>
		<g>
			<path fill="#202020" d="M9.134,26.917c-0.001-0.097,0.083-0.178,0.188-0.179l0,0l0.313-0.003
				c0.428-0.003,0.551-0.249,0.561-0.259l0,0l0,0c0.044-0.087,0.155-0.124,0.249-0.084l0,0c0.094,0.042,0.136,0.144,0.092,0.234l0,0
				c-0.008,0.025-0.248,0.459-0.898,0.462l0,0l-0.315,0.003C9.219,27.092,9.135,27.012,9.134,26.917L9.134,26.917z M10.194,26.48
				L10.194,26.48L10.194,26.48L10.194,26.48L10.194,26.48L10.194,26.48z"/>
		</g>
	</g>
	<g>
		<g>
			<path fill="#202020" d="M51.146,24.554c-1.248-1.773-1.623-4.185-1.652-4.361l0,0c-0.014-0.065-0.178-0.902-0.184-1.98l0,0
				c-0.008-1.143,0.158-2.572,0.91-3.621l0,0c0.014-0.019,1.244-1.848,3.424-1.869l0,0c0.104,0,0.189,0.095,0.189,0.215l0,0
				c0.002,0.118-0.082,0.215-0.188,0.216l0,0c-1.732,0.009-2.838,1.315-3.08,1.635l0,0c-0.035,0.045-0.049,0.066-0.053,0.072l0,0
				c-0.666,0.922-0.838,2.253-0.828,3.351l0,0c0.004,0.532,0.047,1.008,0.092,1.347l0,0c0.043,0.34,0.084,0.541,0.084,0.541l0,0
				l0.004,0.013c0,0,0.021,0.148,0.072,0.403l0,0c0.053,0.256,0.135,0.618,0.258,1.035l0,0c0.242,0.83,0.639,1.876,1.244,2.731l0,0
				c0.064,0.095,0.051,0.231-0.029,0.304l0,0c-0.033,0.033-0.074,0.049-0.115,0.049l0,0C51.238,24.636,51.184,24.609,51.146,24.554
				L51.146,24.554z"/>
		</g>
		<g>
			<path fill="#202020" d="M55.998,24.556c-0.082-0.074-0.098-0.208-0.031-0.303l0,0c0.889-1.294,1.301-3.015,1.447-3.787l0,0
				c0.049-0.256,0.068-0.403,0.068-0.403l0,0l0.002-0.014c0-0.001,0.039-0.201,0.078-0.542l0,0c0.039-0.339,0.078-0.815,0.074-1.348
				l0,0c-0.008-1.098-0.195-2.426-0.879-3.345l0,0c0,0-0.014-0.021-0.049-0.065l0,0c-0.033-0.044-0.088-0.109-0.156-0.187l0,0
				c-0.143-0.158-0.35-0.369-0.621-0.579l0,0c-0.545-0.419-1.332-0.834-2.324-0.828l0,0c-0.104,0-0.189-0.096-0.191-0.214l0,0
				c0-0.119,0.084-0.216,0.188-0.217l0,0c2.182-0.008,3.434,1.804,3.447,1.818l0,0c0.77,1.044,0.953,2.47,0.963,3.614l0,0
				c0.006,1.083-0.146,1.925-0.16,1.984l0,0c-0.025,0.18-0.369,2.595-1.592,4.383l0,0l0,0c-0.037,0.054-0.094,0.082-0.146,0.082l0,0
				C56.074,24.605,56.031,24.589,55.998,24.556L55.998,24.556z"/>
		</g>
		<g>
			<path fill="#202020" d="M51.379,24.603c-0.084-0.055-0.107-0.164-0.049-0.244l0,0c0.725-0.982,0.801-3.428,0.797-3.951l0,0
				c-0.002-0.165-0.01-0.254-0.01-0.254l0,0v-0.011c-0.035-1.145-0.543-1.926-1.109-2.459l0,0c-0.566-0.532-1.189-0.805-1.434-0.896
				l0,0c-0.07-0.025-0.105-0.036-0.109-0.037l0,0c-0.002,0-0.037-0.013-0.111-0.033l0,0c-0.074-0.02-0.182-0.047-0.316-0.075l0,0
				c-0.271-0.054-0.646-0.108-1.063-0.105l0,0c-0.635,0.004-1.355,0.141-1.963,0.591l0,0c0,0.001,0,0-0.006,0.005l0,0
				c-0.004,0.004-0.012,0.01-0.021,0.018l0,0c-0.021,0.017-0.047,0.043-0.074,0.076l0,0c-0.053,0.065-0.1,0.15-0.098,0.242l0,0
				c0,0.025,0.004,0.054,0.012,0.083l0,0l0.004,0.023c0,0,0,0.001,0.004,0.018l0,0c0.006,0.016,0.012,0.041,0.023,0.071l0,0
				c0.023,0.061,0.066,0.146,0.139,0.235l0,0c0.146,0.175,0.412,0.37,0.957,0.423l0,0l0.021,0.002c0,0,0.031,0.008,0.104,0.014l0,0
				c0.068,0.009,0.172,0.016,0.299,0.015l0,0c0.496-0.005,1.326-0.135,1.975-0.899l0,0v0c0.064-0.077,0.184-0.09,0.266-0.028l0,0
				c0.082,0.06,0.094,0.171,0.031,0.248l0,0c-0.742,0.873-1.711,1.031-2.27,1.033l0,0c-0.256,0.001-0.43-0.026-0.473-0.035l0,0
				c-0.627-0.058-1.006-0.31-1.207-0.556l0,0c-0.184-0.223-0.23-0.429-0.24-0.482l0,0c-0.016-0.056-0.021-0.11-0.021-0.162l0,0
				c0.01-0.403,0.34-0.611,0.348-0.622l0,0c0.691-0.513,1.504-0.659,2.189-0.664l0,0c0.904-0.006,1.605,0.23,1.611,0.23l0,0
				c0.016,0.006,0.711,0.218,1.424,0.789l0,0c0.711,0.568,1.441,1.506,1.484,2.922l0,0c0.002,0.023,0.01,0.123,0.012,0.278l0,0
				c0.002,0.558-0.068,3.066-0.863,4.152l0,0c-0.035,0.051-0.094,0.078-0.152,0.078l0,0C51.451,24.636,51.412,24.626,51.379,24.603
				L51.379,24.603z"/>
		</g>
		<g>
			<path fill="#202020" d="M46.941,18.121c-0.283-0.125-0.42-0.333-0.416-0.517l0,0c0.004-0.211,0.127-0.337,0.141-0.357l0,0
				c0.434-0.43,1.207-0.493,1.84-0.503l0,0c0.549-0.004,0.994,0.056,1,0.056l0,0l0,0c0.102,0.015,0.174,0.104,0.16,0.199l0,0
				c-0.002,0.008-0.004,0.015-0.006,0.022l0,0c0.018,0.012,0.035,0.025,0.047,0.043l0,0c0.061,0.078,0.043,0.189-0.043,0.246l0,0
				c-1.074,0.719-1.82,0.879-2.262,0.882l0,0C47.117,18.196,46.965,18.131,46.941,18.121L46.941,18.121z M47.111,17.806
				c0.01,0.004,0.025,0.009,0.049,0.015l0,0c0.049,0.01,0.129,0.022,0.24,0.021l0,0c0.326-0.001,0.941-0.113,1.881-0.71l0,0
				c-0.033-0.005-0.068-0.008-0.109-0.01l0,0c-0.172-0.015-0.408-0.028-0.666-0.026l0,0c-0.598-0.003-1.309,0.108-1.555,0.381l0,0
				c-0.002,0.002-0.004,0.003-0.006,0.006l0,0c-0.006,0.007-0.012,0.017-0.02,0.03l0,0c-0.014,0.026-0.025,0.06-0.025,0.089l0,0
				c0.006,0.042,0.004,0.102,0.203,0.202l0,0C47.105,17.805,47.107,17.806,47.111,17.806L47.111,17.806z"/>
		</g>
		<g>
			<path fill="#202020" d="M55.775,24.529c-0.807-1.074-0.912-3.583-0.918-4.14l0,0c0-0.156,0.006-0.257,0.008-0.278l0,0
				c0.025-1.418,0.742-2.367,1.447-2.944l0,0c0.705-0.58,1.395-0.801,1.404-0.804l0,0c0.014-0.005,0.711-0.249,1.615-0.256l0,0
				c0.688-0.004,1.5,0.13,2.195,0.632l0,0c0.01,0.014,0.346,0.216,0.359,0.62l0,0c0,0.052-0.008,0.107-0.02,0.163l0,0
				c-0.01,0.057-0.055,0.262-0.234,0.484l0,0c-0.195,0.249-0.572,0.506-1.197,0.573l0,0c-0.043,0.009-0.219,0.04-0.473,0.041l0,0
				c-0.561,0.007-1.531-0.139-2.283-1.001l0,0l0,0c-0.066-0.075-0.055-0.186,0.027-0.248l0,0c0.08-0.061,0.197-0.051,0.264,0.025
				l0,0c0.66,0.756,1.492,0.874,1.988,0.872l0,0c0.127-0.001,0.23-0.01,0.299-0.019l0,0c0.072-0.008,0.104-0.016,0.104-0.016l0,0
				l0.02-0.004c0.945-0.108,1.072-0.628,1.111-0.745l0,0c0.002-0.016,0.004-0.017,0.004-0.017l0,0l0.004-0.023
				c0.008-0.03,0.01-0.058,0.01-0.082l0,0c0.008-0.158-0.158-0.308-0.197-0.334l0,0c-0.004-0.005-0.004-0.005-0.01-0.008l0,0
				c-0.609-0.44-1.332-0.565-1.967-0.561l0,0c-0.623,0.004-1.154,0.136-1.375,0.199l0,0c-0.074,0.021-0.109,0.034-0.115,0.035l0,0
				c0,0-0.033,0.011-0.102,0.038l0,0c-0.07,0.027-0.168,0.071-0.291,0.129l0,0c-0.242,0.119-0.566,0.305-0.891,0.571l0,0
				c-0.648,0.536-1.295,1.382-1.318,2.691l0,0v0.01c0,0.001-0.008,0.091-0.008,0.253l0,0c0.004,0.522,0.113,2.969,0.852,3.94l0,0
				c0.059,0.078,0.037,0.189-0.047,0.246l0,0c-0.033,0.023-0.068,0.033-0.107,0.033l0,0C55.871,24.606,55.813,24.578,55.775,24.529
				L55.775,24.529z"/>
		</g>
		<g>
			<path fill="#202020" d="M59.928,18.109c-0.441,0.003-1.188-0.147-2.273-0.852l0,0c-0.084-0.056-0.105-0.165-0.047-0.245l0,0
				c0.014-0.019,0.031-0.033,0.047-0.043l0,0c-0.002-0.007-0.004-0.015-0.004-0.023l0,0c-0.018-0.096,0.055-0.186,0.158-0.201l0,0
				c0.004,0,0.449-0.066,0.998-0.07l0,0c0.633,0.002,1.408,0.054,1.852,0.483l0,0c0.008,0.016,0.133,0.138,0.139,0.351l0,0
				c0.008,0.183-0.127,0.394-0.408,0.523l0,0c-0.023,0.01-0.176,0.077-0.457,0.078l0,0C59.93,18.109,59.928,18.109,59.928,18.109
				L59.928,18.109z M59.926,17.757c0.182-0.001,0.277-0.035,0.293-0.041l0,0c0.197-0.104,0.197-0.164,0.201-0.205l0,0
				c0.002-0.043-0.033-0.105-0.047-0.12l0,0c0-0.001-0.002-0.002-0.002-0.003l0,0l0,0v0c-0.262-0.272-0.969-0.372-1.563-0.36l0,0
				c-0.26,0-0.496,0.017-0.668,0.034l0,0c-0.039,0.003-0.074,0.008-0.105,0.011l0,0C58.98,17.656,59.6,17.759,59.926,17.757
				L59.926,17.757z"/>
		</g>
		<g>
			<path fill="#202020" d="M51.379,14.623c-0.002-0.097,0.082-0.177,0.186-0.178l0,0c0.104,0,0.189,0.078,0.189,0.175l0,0
				c0.002,0.122,0.092,0.19,0.158,0.189l0,0c0.068,0,0.154-0.069,0.156-0.191l0,0c-0.002-0.097,0.084-0.176,0.186-0.179l0,0
				c0.105,0,0.189,0.078,0.191,0.176l0,0c0.002,0.282-0.215,0.54-0.529,0.546l0,0C51.602,15.16,51.381,14.906,51.379,14.623
				L51.379,14.623z"/>
		</g>
		<g>
			<path fill="#202020" d="M52.754,14.48c0-0.098,0.082-0.178,0.188-0.179l0,0c0.104-0.001,0.188,0.078,0.188,0.176l0,0
				c0.004,0.123,0.092,0.19,0.158,0.19l0,0c0.068-0.001,0.156-0.07,0.156-0.192l0,0c0-0.097,0.084-0.177,0.188-0.178l0,0
				c0.104,0,0.189,0.078,0.189,0.176l0,0c0,0.282-0.217,0.54-0.529,0.546l0,0C52.977,15.018,52.756,14.763,52.754,14.48
				L52.754,14.48z"/>
		</g>
		<g>
			<path fill="#202020" d="M52.068,14.566c-0.002-0.021-0.004-0.041-0.004-0.057l0,0c-0.002-0.262,0.186-0.504,0.479-0.535l0,0l0,0
				c0.02-0.002,0.033-0.002,0.043-0.003l0,0c0.293,0.002,0.516,0.226,0.543,0.495l0,0l0,0c0.01,0.097-0.064,0.183-0.17,0.193l0,0
				c-0.102,0.009-0.195-0.062-0.205-0.159l0,0c-0.012-0.114-0.102-0.179-0.166-0.176l0,0c-0.002-0.001-0.002,0-0.002,0l0,0l-0.008,0
				c-0.063,0.004-0.137,0.072-0.137,0.183l0,0c-0.002,0.007,0,0.014,0,0.02l0,0c0.012,0.096-0.063,0.184-0.166,0.195l0,0
				c-0.006,0-0.014,0.001-0.02,0.001l0,0C52.16,14.723,52.08,14.657,52.068,14.566L52.068,14.566z"/>
		</g>
		<g>
			<path fill="#202020" d="M51.723,25.388c-0.002-0.324,0.277-0.59,0.623-0.592l0,0c0.348-0.003,0.629,0.26,0.633,0.584l0,0
				c0.002,0.325-0.279,0.589-0.625,0.591l0,0C52.008,25.974,51.725,25.714,51.723,25.388L51.723,25.388z M52.098,25.386
				c0.002,0.129,0.115,0.232,0.254,0.232l0,0c0.139-0.002,0.25-0.107,0.25-0.235l0,0c-0.002-0.13-0.113-0.234-0.254-0.233l0,0
				C52.209,25.152,52.098,25.255,52.098,25.386L52.098,25.386z"/>
		</g>
		<g>
			<path fill="#202020" d="M52.357,26.771c-0.059,0-0.102-0.004-0.125-0.006l0,0c-0.758-0.015-1.316-0.682-1.326-1.355l0,0
				c-0.002-0.303,0.111-0.583,0.303-0.799l0,0c0.242-0.275,0.609-0.453,1.021-0.457l0,0c0.275-0.002,0.533,0.076,0.746,0.209l0,0
				l0.002-0.002c0.086,0.055,0.109,0.163,0.051,0.245l0,0c-0.057,0.079-0.174,0.103-0.262,0.048l0,0
				c-0.152-0.094-0.336-0.15-0.535-0.148l0,0c-0.297,0.002-0.559,0.129-0.734,0.331l0,0c-0.137,0.155-0.217,0.353-0.215,0.571l0,0
				c0,0.249,0.111,0.509,0.293,0.699l0,0c0.182,0.193,0.42,0.31,0.67,0.307l0,0l0.033,0.004c0,0,0,0.001,0.014,0.003l0,0
				c0.014-0.001,0.035,0.001,0.063,0.003l0,0c0.115-0.002,0.336-0.027,0.559-0.189l0,0c0.34-0.248,0.582-0.291,0.727-0.291l0,0
				c0.031,0,0.051,0.002,0.061,0.002l0,0c0.104-0.002,0.189,0.076,0.189,0.174l0,0c0,0.098-0.082,0.177-0.186,0.18l0,0
				c-0.027-0.003-0.043-0.003-0.063-0.003l0,0c-0.076,0.005-0.191,0.003-0.496,0.217l0,0c-0.305,0.221-0.613,0.261-0.785,0.261l0,0
				C52.359,26.771,52.359,26.771,52.357,26.771L52.357,26.771z"/>
		</g>
		<g>
			<path fill="#202020" d="M52.49,26.668L52.49,26.668c-0.043-0.091-0.004-0.194,0.092-0.236l0,0
				c0.092-0.04,0.203-0.005,0.248,0.081l0,0c0,0,0,0.002,0.004,0.004l0,0c0.002,0.008,0.008,0.015,0.018,0.026l0,0
				c0.018,0.023,0.047,0.055,0.09,0.089l0,0c0.086,0.065,0.221,0.134,0.453,0.133l0,0l0.314-0.001
				c0.104-0.001,0.189,0.077,0.191,0.175l0,0c0,0.098-0.086,0.178-0.188,0.179l0,0l-0.314,0.002c0-0.001-0.002-0.001-0.004-0.001
				l0,0C52.744,27.122,52.5,26.693,52.49,26.668L52.49,26.668z"/>
		</g>
		<g>
			<path fill="#202020" d="M54.84,14.599c0-0.097,0.082-0.177,0.186-0.178l0,0c0.105,0,0.189,0.078,0.189,0.175l0,0
				c0.002,0.122,0.092,0.189,0.158,0.189l0,0c0.068-0.001,0.156-0.07,0.156-0.192l0,0c0-0.096,0.082-0.177,0.188-0.177l0,0
				c0.104,0,0.188,0.078,0.189,0.175l0,0c0,0.283-0.217,0.54-0.529,0.546l0,0C55.063,15.137,54.842,14.883,54.84,14.599
				L54.84,14.599z"/>
		</g>
		<g>
			<path fill="#202020" d="M53.463,14.476c-0.002-0.098,0.082-0.178,0.186-0.178l0,0c0.105-0.001,0.189,0.079,0.191,0.176l0,0
				c0.002,0.122,0.09,0.189,0.156,0.189l0,0c0.068-0.001,0.156-0.07,0.156-0.192l0,0c0-0.097,0.082-0.178,0.188-0.178l0,0
				c0.104,0,0.188,0.078,0.189,0.176l0,0c0.002,0.283-0.215,0.541-0.531,0.546l0,0C53.686,15.013,53.465,14.759,53.463,14.476
				L53.463,14.476z"/>
		</g>
		<g>
			<path fill="#202020" d="M55.014,14.704c-0.104-0.007-0.18-0.091-0.174-0.188l0,0c0-0.01,0-0.018,0-0.025l0,0
				c-0.002-0.11-0.076-0.178-0.146-0.18l0,0c0,0,0,0,0-0.001l0,0c-0.002,0-0.002,0-0.004,0.001l0,0
				c-0.063-0.003-0.15,0.063-0.162,0.178l0,0c-0.01,0.097-0.1,0.169-0.205,0.161l0,0c-0.104-0.007-0.18-0.093-0.17-0.19l0,0
				c0.023-0.269,0.242-0.496,0.535-0.501l0,0c0.014,0,0.031,0,0.045,0.002l0,0c0.293,0.025,0.484,0.267,0.484,0.529l0,0
				c0,0.018,0,0.036-0.002,0.052l0,0c-0.008,0.092-0.088,0.163-0.186,0.163l0,0C55.025,14.704,55.02,14.704,55.014,14.704
				L55.014,14.704z"/>
		</g>
		<g>
			<path fill="#202020" d="M54.453,25.371c-0.004-0.325,0.275-0.59,0.623-0.592l0,0c0.346-0.003,0.629,0.258,0.631,0.583l0,0
				c0.002,0.325-0.277,0.589-0.623,0.591l0,0C54.736,25.957,54.455,25.695,54.453,25.371L54.453,25.371z M55.082,25.601
				c0.139-0.002,0.248-0.107,0.248-0.236l0,0c0-0.131-0.115-0.233-0.252-0.234l0,0c-0.139,0.003-0.25,0.108-0.25,0.238l0,0
				C54.83,25.498,54.941,25.601,55.082,25.601L55.082,25.601z"/>
		</g>
		<g>
			<path fill="#202020" d="M54.299,26.502c-0.309-0.212-0.426-0.208-0.502-0.21l0,0c-0.018,0-0.035,0-0.061,0l0,0
				c-0.104,0.001-0.188-0.078-0.189-0.175l0,0c0-0.098,0.084-0.178,0.188-0.179l0,0c0.01,0,0.031,0,0.061-0.001l0,0
				c0.143-0.004,0.389,0.038,0.729,0.282l0,0c0.227,0.156,0.447,0.18,0.564,0.18l0,0c0.025-0.001,0.047-0.003,0.061-0.004l0,0
				c0.012,0,0.016-0.002,0.016-0.002l0,0l0.031-0.004c0.252-0.001,0.488-0.121,0.668-0.316l0,0c0.176-0.191,0.285-0.454,0.283-0.701
				l0,0c-0.002-0.22-0.086-0.416-0.225-0.572l0,0c-0.178-0.197-0.443-0.318-0.738-0.317l0,0c-0.199,0.001-0.381,0.058-0.533,0.155
				l0,0l0,0c-0.088,0.055-0.205,0.035-0.264-0.047l0,0c-0.061-0.078-0.035-0.189,0.049-0.242l0,0
				c0.213-0.137,0.469-0.217,0.744-0.219l0,0c0.412-0.003,0.785,0.172,1.029,0.443l0,0c0.193,0.214,0.313,0.493,0.313,0.795l0,0
				c0,0.675-0.549,1.348-1.309,1.375l0,0c-0.023,0.004-0.066,0.006-0.125,0.008l0,0c-0.002,0-0.002-0.001-0.004,0l0,0
				C54.916,26.753,54.605,26.716,54.299,26.502L54.299,26.502z"/>
		</g>
		<g>
			<path fill="#202020" d="M53.553,26.941c-0.002-0.097,0.082-0.178,0.188-0.178l0,0l0.313-0.004
				c0.43-0.003,0.551-0.248,0.561-0.258l0,0l0,0c0.045-0.088,0.156-0.125,0.25-0.085l0,0c0.094,0.042,0.135,0.144,0.092,0.233l0,0
				c-0.008,0.025-0.248,0.46-0.898,0.463l0,0l-0.316,0.004C53.639,27.117,53.553,27.037,53.553,26.941L53.553,26.941z
				 M54.613,26.503L54.613,26.503L54.613,26.503L54.613,26.503L54.613,26.503L54.613,26.503z"/>
		</g>
	</g>
	<path fill="#202020" d="M14.189,9.956c-0.394-1.191-0.758-2.294-1.121-3.396C13.033,6.457,13,6.354,12.963,6.25
		c-0.202-0.588-0.652-0.845-1.166-0.666c-0.482,0.168-0.696,0.666-0.513,1.229c0.384,1.182,0.779,2.366,1.166,3.546
		c0.251,0.767,0.499,1.535,0.747,2.304c0.179,0.558,0.635,0.803,1.19,0.612c1.908-0.654,3.813-1.317,5.719-1.984
		c0.569-0.199,0.82-0.659,0.655-1.158c-0.158-0.485-0.646-0.692-1.214-0.499c-1.267,0.429-2.532,0.866-3.874,1.326
		c0.068-0.168,0.102-0.277,0.157-0.377c2.806-5.115,7.079-8.133,12.861-8.597c6.792-0.548,11.958,2.208,15.254,8.151
		c0.621,1.121,0.949,2.41,1.377,3.632c0.213,0.614,0.732,0.917,1.262,0.658c0.42-0.205,0.58-0.617,0.443-1.166
		c-0.6-2.433-1.682-4.627-3.248-6.566c-2.805-3.472-6.406-5.697-10.855-6.352c-6.098-0.9-11.333,1.04-15.716,5.425
		C16,6.977,15.035,8.367,14.189,9.956z"/>
	<rect x="28.092" y="15.317" fill="#202020" width="6.375" height="12.47"/>
</g>
</svg>
