<?xml version="1.0" encoding="utf-8"?>
<!-- Generator: Adobe Illustrator 16.0.0, SVG Export Plug-In . SVG Version: 6.00 Build 0)  -->
<!DOCTYPE svg PUBLIC "-//W3C//DTD SVG 1.1//EN" "http://www.w3.org/Graphics/SVG/1.1/DTD/svg11.dtd">
<svg version="1.1" xmlns="http://www.w3.org/2000/svg" xmlns:xlink="http://www.w3.org/1999/xlink" x="0px" y="0px" width="64px"
	 height="64px" viewBox="0 0 64 64" enable-background="new 0 0 64 64" xml:space="preserve">
<g>
	<g>
		<g>
			<path fill="#231F20" d="M13.905,28.775c-3.036-4.316-3.95-10.185-4.019-10.613l0,0c-0.032-0.159-0.433-2.197-0.45-4.82l0,0
				C9.42,10.559,9.82,7.084,11.651,4.527l0,0c0.036-0.044,3.028-4.496,8.335-4.548l0,0c0.253,0,0.459,0.231,0.461,0.523l0,0
				c0.002,0.288-0.202,0.525-0.456,0.527l0,0c-4.22,0.021-6.911,3.201-7.497,3.979l0,0c-0.086,0.11-0.119,0.161-0.128,0.173l0,0
				c-1.624,2.245-2.04,5.485-2.016,8.154l0,0c0.008,1.297,0.116,2.454,0.222,3.281l0,0c0.105,0.827,0.206,1.317,0.206,1.317l0,0
				l0.006,0.033c0.001,0.001,0.053,0.36,0.178,0.982l0,0c0.129,0.624,0.33,1.504,0.626,2.516l0,0
				c0.589,2.023,1.554,4.569,3.027,6.65l0,0c0.158,0.227,0.128,0.559-0.068,0.74l0,0c-0.083,0.08-0.183,0.117-0.283,0.119l0,0
				C14.131,28.975,13.997,28.908,13.905,28.775L13.905,28.775z"/>
		</g>
		<g>
			<path fill="#231F20" d="M25.711,28.781c-0.2-0.181-0.235-0.508-0.077-0.736l0,0c2.167-3.155,3.171-7.339,3.526-9.219l0,0
				c0.119-0.624,0.165-0.982,0.165-0.982l0,0l0.007-0.036c0-0.002,0.093-0.489,0.187-1.318l0,0c0.095-0.828,0.188-1.985,0.18-3.283
				l0,0c-0.016-2.668-0.475-5.903-2.136-8.137l0,0c0,0-0.036-0.051-0.12-0.16l0,0c-0.084-0.108-0.214-0.265-0.383-0.456l0,0
				c-0.342-0.383-0.851-0.896-1.51-1.407l0,0c-1.322-1.021-3.241-2.031-5.656-2.015l0,0c-0.253,0.002-0.459-0.233-0.462-0.521l0,0
				c-0.001-0.291,0.201-0.527,0.455-0.529l0,0c5.308-0.02,8.358,4.39,8.387,4.424l0,0c1.874,2.542,2.322,6.011,2.343,8.795l0,0
				c0.016,2.633-0.359,4.684-0.389,4.829l0,0c-0.062,0.438-0.901,6.317-3.873,10.666l0,0l0,0c-0.091,0.133-0.225,0.202-0.356,0.201
				l0,0C25.897,28.898,25.796,28.86,25.711,28.781L25.711,28.781z"/>
		</g>
		<g>
			<path fill="#231F20" d="M14.473,28.895c-0.208-0.134-0.264-0.399-0.119-0.595l0,0c1.759-2.389,1.949-8.341,1.937-9.616l0,0
				c-0.002-0.4-0.025-0.617-0.025-0.617l0,0v-0.028c-0.087-2.787-1.323-4.689-2.699-5.985l0,0c-1.376-1.294-2.899-1.958-3.492-2.181
				l0,0C9.905,9.808,9.821,9.783,9.81,9.78l0,0c-0.002,0-0.09-0.03-0.27-0.08l0,0C9.36,9.651,9.097,9.586,8.769,9.518l0,0
				c-0.656-0.13-1.57-0.263-2.582-0.256l0,0c-1.544,0.011-3.298,0.342-4.78,1.439l0,0c0,0.003,0,0-0.01,0.011l0,0
				c-0.014,0.008-0.033,0.024-0.056,0.043l0,0c-0.05,0.042-0.115,0.105-0.18,0.185l0,0c-0.13,0.158-0.241,0.367-0.238,0.588l0,0
				c0,0.062,0.008,0.13,0.028,0.202l0,0l0.013,0.055c0,0,0,0.005,0.01,0.043l0,0c0.01,0.039,0.025,0.1,0.056,0.173l0,0
				c0.056,0.149,0.159,0.356,0.336,0.572l0,0c0.358,0.426,1.002,0.901,2.33,1.028l0,0l0.051,0.009c0-0.001,0.077,0.016,0.25,0.033
				l0,0c0.17,0.021,0.42,0.038,0.728,0.037l0,0c1.21-0.012,3.228-0.328,4.81-2.189l0,0v0.002c0.157-0.187,0.445-0.22,0.644-0.069
				l0,0c0.199,0.147,0.23,0.417,0.074,0.602l0,0c-1.803,2.124-4.161,2.509-5.522,2.511l0,0c-0.62,0.003-1.045-0.061-1.151-0.083l0,0
				C2.054,14.313,1.133,13.7,0.642,13.1l0,0c-0.447-0.542-0.558-1.043-0.581-1.171l0,0c-0.038-0.137-0.053-0.267-0.054-0.392l0,0
				c0.021-0.982,0.826-1.489,0.844-1.515l0,0c1.686-1.249,3.66-1.604,5.331-1.616l0,0c2.199-0.014,3.907,0.559,3.925,0.563l0,0
				c0.036,0.012,1.726,0.529,3.461,1.918l0,0c1.73,1.381,3.509,3.665,3.613,7.112l0,0c0.004,0.056,0.025,0.297,0.027,0.678l0,0
				c0.005,1.357-0.167,7.463-2.098,10.105l0,0c-0.087,0.121-0.23,0.188-0.374,0.189l0,0C14.645,28.973,14.554,28.949,14.473,28.895
				L14.473,28.895z"/>
		</g>
		<g>
			<path fill="#231F20" d="M3.67,13.119c-0.689-0.304-1.021-0.812-1.009-1.257l0,0c0.008-0.517,0.307-0.822,0.342-0.868l0,0
				c1.051-1.048,2.936-1.201,4.476-1.227l0,0c1.335-0.01,2.419,0.136,2.433,0.137l0,0l0,0c0.25,0.034,0.423,0.251,0.388,0.485l0,0
				c-0.004,0.017-0.007,0.035-0.011,0.054l0,0c0.043,0.027,0.083,0.061,0.115,0.105l0,0c0.148,0.192,0.101,0.459-0.105,0.598l0,0
				c-2.616,1.751-4.431,2.141-5.504,2.148l0,0C4.102,13.301,3.728,13.145,3.67,13.119L3.67,13.119z M4.086,12.352
				c0.022,0.01,0.06,0.021,0.119,0.036l0,0c0.118,0.024,0.311,0.054,0.582,0.052l0,0c0.794-0.004,2.294-0.276,4.58-1.729l0,0
				c-0.08-0.008-0.169-0.015-0.268-0.022l0,0c-0.416-0.035-0.989-0.068-1.616-0.063l0,0c-1.458-0.006-3.186,0.264-3.788,0.929l0,0
				c-0.001,0.004-0.005,0.008-0.011,0.014l0,0c-0.013,0.016-0.031,0.041-0.047,0.073l0,0c-0.034,0.063-0.063,0.147-0.062,0.217l0,0
				c0.013,0.102,0.008,0.246,0.493,0.49l0,0C4.073,12.35,4.077,12.351,4.086,12.352L4.086,12.352z"/>
		</g>
		<g>
			<path fill="#231F20" d="M25.171,28.716c-1.966-2.618-2.219-8.721-2.233-10.078l0,0c-0.001-0.379,0.013-0.626,0.017-0.677l0,0
				c0.059-3.45,1.805-5.759,3.519-7.163l0,0c1.716-1.411,3.398-1.95,3.421-1.958l0,0c0.031-0.012,1.731-0.606,3.928-0.622l0,0
				c1.671-0.011,3.647,0.318,5.341,1.538l0,0c0.027,0.033,0.842,0.528,0.874,1.51l0,0c0.002,0.126-0.015,0.261-0.046,0.396l0,0
				c-0.025,0.137-0.133,0.636-0.567,1.177l0,0c-0.479,0.604-1.393,1.231-2.917,1.395l0,0c-0.105,0.021-0.529,0.094-1.15,0.099l0,0
				c-1.361,0.016-3.726-0.338-5.553-2.437l0,0l0,0c-0.164-0.182-0.133-0.454,0.064-0.603l0,0c0.194-0.15,0.484-0.124,0.644,0.059
				l0,0c1.607,1.84,3.63,2.128,4.839,2.124l0,0c0.307-0.002,0.558-0.024,0.728-0.045l0,0c0.171-0.021,0.247-0.039,0.249-0.039l0,0
				l0.049-0.009c2.296-0.26,2.609-1.529,2.701-1.812l0,0c0.007-0.04,0.01-0.043,0.01-0.043l0,0l0.012-0.055
				c0.019-0.073,0.024-0.139,0.024-0.201l0,0c0.017-0.381-0.386-0.749-0.481-0.812l0,0c-0.012-0.01-0.012-0.01-0.022-0.018l0,0
				c-1.487-1.07-3.244-1.377-4.788-1.366l0,0c-1.518,0.01-2.809,0.33-3.345,0.485l0,0c-0.18,0.051-0.269,0.082-0.28,0.085l0,0
				c0,0-0.083,0.027-0.25,0.093l0,0c-0.169,0.067-0.411,0.171-0.708,0.315l0,0c-0.587,0.288-1.379,0.741-2.167,1.388l0,0
				c-1.58,1.305-3.151,3.362-3.207,6.548l0,0v0.026c0.001,0.002-0.021,0.22-0.017,0.617l0,0c0.004,1.272,0.275,7.225,2.068,9.591
				l0,0c0.144,0.19,0.095,0.458-0.113,0.597l0,0c-0.079,0.052-0.169,0.078-0.26,0.079l0,0C25.404,28.9,25.262,28.833,25.171,28.716
				L25.171,28.716z"/>
		</g>
		<g>
			<path fill="#231F20" d="M35.277,13.09c-1.072,0.008-2.894-0.357-5.531-2.074l0,0c-0.207-0.135-0.258-0.401-0.115-0.596l0,0
				c0.033-0.045,0.072-0.081,0.115-0.107l0,0c-0.005-0.017-0.01-0.035-0.012-0.055l0,0c-0.041-0.233,0.132-0.452,0.383-0.49l0,0
				c0.012-0.001,1.095-0.162,2.43-0.169l0,0c1.539,0.003,3.426,0.131,4.505,1.176l0,0c0.022,0.039,0.326,0.337,0.341,0.854l0,0
				c0.018,0.445-0.309,0.956-0.994,1.27l0,0c-0.056,0.027-0.428,0.188-1.114,0.192l0,0C35.282,13.09,35.277,13.09,35.277,13.09
				L35.277,13.09z M35.271,12.233c0.443-0.003,0.674-0.085,0.715-0.099l0,0c0.48-0.252,0.479-0.397,0.488-0.499l0,0
				c0.006-0.104-0.082-0.255-0.115-0.292l0,0c0-0.004-0.004-0.004-0.006-0.006l0,0l0,0v-0.002c-0.633-0.664-2.353-0.905-3.801-0.878
				l0,0c-0.632,0.003-1.208,0.044-1.626,0.085l0,0c-0.095,0.008-0.181,0.016-0.257,0.026l0,0
				C32.975,11.987,34.479,12.238,35.271,12.233L35.271,12.233z"/>
		</g>
		<g>
			<path fill="#231F20" d="M14.469,4.604c-0.001-0.236,0.202-0.43,0.455-0.432l0,0c0.252-0.002,0.459,0.19,0.46,0.426l0,0
				c0.005,0.296,0.221,0.461,0.386,0.46l0,0c0.164-0.001,0.377-0.17,0.378-0.465l0,0c-0.001-0.237,0.203-0.43,0.456-0.433l0,0
				c0.252-0.001,0.46,0.19,0.462,0.426l0,0c0.003,0.69-0.525,1.316-1.289,1.33l0,0C15.011,5.913,14.475,5.294,14.469,4.604
				L14.469,4.604z"/>
		</g>
		<g>
			<path fill="#231F20" d="M17.818,4.258c-0.001-0.239,0.201-0.431,0.455-0.434l0,0c0.251-0.002,0.458,0.19,0.46,0.426l0,0
				c0.005,0.299,0.222,0.462,0.384,0.461l0,0c0.164-0.002,0.378-0.169,0.38-0.466l0,0c-0.001-0.239,0.2-0.432,0.455-0.433l0,0
				c0.251-0.001,0.459,0.189,0.461,0.427l0,0c0.003,0.688-0.526,1.316-1.29,1.329l0,0C18.359,5.566,17.822,4.946,17.818,4.258
				L17.818,4.258z"/>
		</g>
		<g>
			<path fill="#231F20" d="M16.149,4.468c-0.006-0.052-0.008-0.098-0.008-0.138l0,0c-0.008-0.637,0.451-1.229,1.164-1.302l0,0l0,0
				c0.045-0.005,0.081-0.005,0.108-0.007l0,0c0.712,0.005,1.25,0.55,1.319,1.203l0,0l0,0c0.025,0.237-0.161,0.446-0.412,0.47l0,0
				c-0.25,0.023-0.476-0.15-0.501-0.387l0,0c-0.028-0.277-0.247-0.436-0.401-0.427l0,0c-0.007-0.003-0.007-0.001-0.007-0.001l0,0
				L17.39,3.882c-0.154,0.007-0.334,0.174-0.335,0.444l0,0c-0.001,0.018,0,0.034,0.003,0.047l0,0
				c0.028,0.235-0.154,0.447-0.405,0.474l0,0c-0.015,0-0.033,0.003-0.048,0.002l0,0C16.376,4.85,16.175,4.688,16.149,4.468
				L16.149,4.468z"/>
		</g>
		<g>
			<path fill="#231F20" d="M15.308,30.806c-0.005-0.79,0.673-1.435,1.517-1.44l0,0c0.845-0.008,1.531,0.629,1.538,1.419l0,0
				c0.006,0.792-0.676,1.433-1.519,1.438l0,0C16.001,32.231,15.313,31.598,15.308,30.806L15.308,30.806z M16.224,30.8
				c0.003,0.314,0.277,0.567,0.615,0.565l0,0c0.336-0.001,0.609-0.257,0.607-0.572l0,0c-0.002-0.317-0.276-0.57-0.616-0.569l0,0
				C16.493,30.229,16.223,30.483,16.224,30.8L16.224,30.8z"/>
		</g>
		<g>
			<path fill="#231F20" d="M16.855,34.17c-0.144,0-0.249-0.008-0.303-0.013l0,0c-1.847-0.038-3.207-1.659-3.23-3.302l0,0
				c-0.006-0.735,0.271-1.417,0.735-1.941l0,0c0.59-0.672,1.487-1.108,2.49-1.113l0,0c0.67-0.005,1.298,0.181,1.814,0.505l0,0
				l0.005-0.001c0.208,0.129,0.267,0.395,0.126,0.594l0,0c-0.142,0.197-0.425,0.249-0.636,0.119l0,0
				c-0.375-0.233-0.82-0.368-1.304-0.362l0,0c-0.721,0.004-1.361,0.313-1.787,0.801l0,0c-0.334,0.379-0.531,0.861-0.526,1.393l0,0
				c0,0.605,0.275,1.236,0.715,1.702l0,0c0.438,0.468,1.018,0.751,1.629,0.748l0,0l0.08,0.007c0,0,0,0.002,0.035,0.006l0,0
				c0.033,0,0.084,0.004,0.151,0.008l0,0c0.283-0.004,0.82-0.067,1.364-0.459l0,0c0.822-0.605,1.416-0.712,1.765-0.708l0,0
				c0.072-0.002,0.123,0.001,0.148,0.002l0,0c0.253-0.002,0.459,0.186,0.461,0.425l0,0c0.001,0.234-0.201,0.429-0.455,0.432l0,0
				c-0.063-0.002-0.105-0.002-0.148-0.003l0,0c-0.187,0.011-0.467,0.005-1.211,0.528l0,0c-0.741,0.536-1.491,0.633-1.91,0.635l0,0
				C16.86,34.169,16.856,34.17,16.855,34.17L16.855,34.17z"/>
		</g>
		<g>
			<path fill="#231F20" d="M17.179,33.92L17.179,33.92c-0.107-0.221-0.013-0.471,0.219-0.574l0,0c0.225-0.1,0.496-0.014,0.607,0.197
				l0,0c0,0,0.002,0.003,0.006,0.01l0,0c0.006,0.016,0.022,0.035,0.043,0.063l0,0c0.043,0.057,0.115,0.133,0.219,0.216l0,0
				c0.208,0.159,0.535,0.326,1.104,0.325l0,0l0.764-0.003c0.253-0.004,0.461,0.188,0.462,0.423l0,0
				c0.002,0.239-0.204,0.435-0.457,0.437l0,0l-0.763,0.004c-0.001-0.002-0.004-0.002-0.006-0.002l0,0
				C17.793,35.023,17.2,33.979,17.179,33.92L17.179,33.92z"/>
		</g>
		<g>
			<path fill="#231F20" d="M22.896,4.548c-0.002-0.237,0.199-0.43,0.454-0.432l0,0c0.252-0.001,0.459,0.191,0.46,0.425l0,0
				c0.005,0.297,0.222,0.461,0.384,0.461l0,0C24.36,5,24.571,4.832,24.573,4.537l0,0c-0.001-0.236,0.202-0.431,0.456-0.432l0,0
				c0.252-0.002,0.458,0.19,0.46,0.425l0,0c0.002,0.689-0.525,1.316-1.29,1.329l0,0C23.437,5.855,22.899,5.238,22.896,4.548
				L22.896,4.548z"/>
		</g>
		<g>
			<path fill="#231F20" d="M19.542,4.246c-0.001-0.238,0.204-0.432,0.456-0.433l0,0c0.252-0.001,0.46,0.19,0.462,0.427l0,0
				c0.004,0.297,0.221,0.461,0.382,0.46l0,0c0.165-0.001,0.377-0.169,0.38-0.466l0,0c-0.002-0.238,0.199-0.432,0.454-0.433l0,0
				c0.252-0.001,0.459,0.19,0.461,0.428l0,0c0.004,0.688-0.524,1.316-1.29,1.329l0,0C20.084,5.554,19.548,4.935,19.542,4.246
				L19.542,4.246z"/>
		</g>
		<g>
			<path fill="#231F20" d="M23.32,4.802c-0.254-0.016-0.443-0.221-0.424-0.457l0,0c0-0.025,0.001-0.043,0.002-0.059l0,0
				c-0.006-0.268-0.188-0.433-0.359-0.441l0,0c0,0.002,0,0.002-0.001,0l0,0c-0.002,0-0.005,0-0.011,0.002l0,0
				c-0.152-0.009-0.367,0.152-0.395,0.434l0,0c-0.021,0.236-0.244,0.412-0.495,0.392l0,0c-0.253-0.018-0.438-0.227-0.417-0.463l0,0
				c0.058-0.655,0.589-1.207,1.301-1.221l0,0c0.035,0,0.076,0,0.111,0.005l0,0c0.713,0.062,1.179,0.65,1.179,1.287l0,0
				c0,0.042,0,0.086-0.003,0.126l0,0c-0.017,0.222-0.216,0.393-0.454,0.396l0,0C23.343,4.802,23.331,4.802,23.32,4.802L23.32,4.802z
				"/>
		</g>
		<g>
			<path fill="#231F20" d="M21.952,30.762c-0.006-0.791,0.673-1.436,1.517-1.439l0,0c0.843-0.008,1.53,0.626,1.535,1.417l0,0
				c0.006,0.791-0.675,1.433-1.516,1.438l0,0C22.644,32.187,21.957,31.551,21.952,30.762L21.952,30.762z M23.483,31.321
				c0.335-0.002,0.606-0.258,0.604-0.573l0,0c-0.001-0.318-0.277-0.568-0.613-0.57l0,0c-0.338,0.005-0.61,0.263-0.608,0.577l0,0
				C22.869,31.07,23.144,31.324,23.483,31.321L23.483,31.321z"/>
		</g>
		<g>
			<path fill="#231F20" d="M21.578,33.518c-0.754-0.518-1.034-0.506-1.22-0.513l0,0c-0.043,0-0.087,0-0.149,0.002l0,0
				c-0.25,0.001-0.458-0.19-0.46-0.426l0,0c-0.001-0.24,0.204-0.431,0.456-0.432l0,0c0.026,0,0.077-0.002,0.148-0.004l0,0
				c0.348-0.008,0.944,0.091,1.774,0.689l0,0c0.548,0.379,1.087,0.438,1.371,0.436l0,0c0.066-0.002,0.117-0.006,0.151-0.008l0,0
				c0.032-0.003,0.036-0.006,0.036-0.006l0,0l0.079-0.008c0.611-0.003,1.187-0.297,1.623-0.77l0,0
				c0.43-0.468,0.698-1.106,0.691-1.709l0,0c-0.003-0.534-0.206-1.01-0.545-1.389l0,0c-0.433-0.48-1.078-0.778-1.8-0.775l0,0
				c-0.482,0.003-0.926,0.141-1.296,0.378l0,0l0,0c-0.21,0.133-0.497,0.085-0.638-0.112l0,0c-0.144-0.193-0.089-0.462,0.12-0.592
				l0,0c0.515-0.332,1.138-0.527,1.808-0.532l0,0c1.003-0.007,1.909,0.417,2.503,1.079l0,0c0.471,0.521,0.758,1.2,0.762,1.936l0,0
				c0,1.641-1.339,3.281-3.184,3.343l0,0c-0.058,0.008-0.162,0.015-0.302,0.018l0,0c-0.005,0-0.007-0.002-0.011,0l0,0
				C23.078,34.126,22.325,34.039,21.578,33.518L21.578,33.518z"/>
		</g>
		<g>
			<path fill="#231F20" d="M19.761,34.583c-0.002-0.235,0.204-0.431,0.456-0.435l0,0l0.763-0.006
				c1.043-0.009,1.338-0.605,1.364-0.629l0,0l0,0c0.108-0.214,0.376-0.304,0.605-0.207l0,0c0.229,0.104,0.331,0.353,0.225,0.57l0,0
				c-0.02,0.063-0.602,1.119-2.19,1.124l0,0l-0.763,0.008C19.97,35.011,19.763,34.816,19.761,34.583L19.761,34.583z M22.343,33.521
				L22.343,33.521L22.343,33.521L22.343,33.521L22.343,33.521L22.343,33.521z"/>
		</g>
	</g>
	<g>
		<g>
			<path fill="#231F20" d="M37.867,57.791c-3.035-4.316-3.949-10.186-4.02-10.613l0,0c-0.031-0.158-0.433-2.195-0.449-4.82l0,0
				c-0.017-2.782,0.385-6.258,2.215-8.813l0,0c0.035-0.045,3.027-4.496,8.336-4.548l0,0c0.253,0,0.459,0.231,0.461,0.523l0,0
				c0.002,0.288-0.201,0.525-0.455,0.527l0,0c-4.221,0.021-6.911,3.201-7.497,3.979l0,0c-0.086,0.109-0.119,0.16-0.128,0.174l0,0
				c-1.623,2.244-2.039,5.484-2.016,8.154l0,0c0.008,1.297,0.115,2.453,0.221,3.279l0,0c0.105,0.827,0.207,1.317,0.207,1.317l0,0
				l0.006,0.032c0.001,0,0.053,0.359,0.178,0.981l0,0c0.131,0.624,0.33,1.505,0.627,2.517l0,0c0.59,2.022,1.555,4.568,3.027,6.648
				l0,0c0.158,0.229,0.128,0.561-0.068,0.74l0,0c-0.084,0.08-0.184,0.117-0.283,0.119l0,0C38.094,57.99,37.959,57.924,37.867,57.791
				L37.867,57.791z"/>
		</g>
		<g>
			<path fill="#231F20" d="M49.674,57.797c-0.199-0.181-0.234-0.508-0.076-0.736l0,0c2.166-3.153,3.17-7.34,3.525-9.219l0,0
				c0.119-0.624,0.164-0.982,0.164-0.982l0,0l0.008-0.034c0-0.003,0.094-0.49,0.188-1.318l0,0c0.095-0.827,0.188-1.985,0.181-3.282
				l0,0c-0.017-2.67-0.476-5.904-2.138-8.139l0,0c0,0-0.034-0.052-0.118-0.159l0,0c-0.085-0.108-0.216-0.266-0.384-0.456l0,0
				c-0.344-0.383-0.852-0.896-1.512-1.407l0,0c-1.322-1.021-3.24-2.031-5.656-2.015l0,0c-0.252,0.002-0.459-0.233-0.461-0.521l0,0
				c-0.002-0.291,0.201-0.527,0.455-0.529l0,0c5.308-0.02,8.357,4.39,8.387,4.424l0,0c1.873,2.541,2.32,6.011,2.343,8.795l0,0
				c0.017,2.634-0.358,4.685-0.39,4.828l0,0c-0.063,0.438-0.899,6.315-3.873,10.666l0,0l0,0c-0.09,0.133-0.225,0.201-0.354,0.2l0,0
				C49.859,57.914,49.758,57.875,49.674,57.797L49.674,57.797z"/>
		</g>
		<g>
			<path fill="#231F20" d="M38.436,57.91c-0.207-0.135-0.264-0.398-0.119-0.596l0,0c1.76-2.39,1.949-8.342,1.938-9.615l0,0
				c-0.003-0.4-0.024-0.617-0.024-0.617l0,0v-0.027c-0.088-2.787-1.322-4.688-2.699-5.986l0,0c-1.377-1.295-2.898-1.959-3.491-2.182
				l0,0c-0.171-0.063-0.255-0.088-0.267-0.091l0,0c-0.002,0-0.09-0.03-0.271-0.08l0,0c-0.18-0.049-0.442-0.114-0.771-0.183l0,0
				c-0.656-0.131-1.57-0.264-2.582-0.256l0,0c-1.544,0.011-3.298,0.342-4.78,1.438l0,0c0,0.003,0,0-0.01,0.011l0,0
				c-0.014,0.01-0.033,0.024-0.056,0.045l0,0c-0.05,0.041-0.115,0.104-0.18,0.185l0,0c-0.13,0.158-0.241,0.366-0.238,0.588l0,0
				c0,0.062,0.008,0.13,0.028,0.202l0,0l0.013,0.055c0,0,0,0.004,0.01,0.043l0,0c0.01,0.039,0.025,0.1,0.056,0.174l0,0
				c0.056,0.148,0.159,0.355,0.336,0.57l0,0c0.358,0.428,1.002,0.901,2.33,1.029l0,0l0.051,0.008c0,0,0.077,0.018,0.25,0.033l0,0
				c0.17,0.021,0.42,0.039,0.728,0.037l0,0c1.21-0.012,3.228-0.327,4.809-2.188l0,0v0.002c0.156-0.187,0.445-0.22,0.645-0.069l0,0
				c0.199,0.146,0.23,0.418,0.074,0.603l0,0c-1.803,2.124-4.161,2.51-5.522,2.513l0,0c-0.62,0.002-1.045-0.063-1.151-0.085l0,0
				c-1.526-0.141-2.447-0.754-2.938-1.354l0,0c-0.447-0.542-0.558-1.043-0.581-1.171l0,0c-0.038-0.137-0.053-0.269-0.054-0.394l0,0
				c0.021-0.981,0.826-1.487,0.844-1.514l0,0c1.686-1.249,3.66-1.604,5.331-1.616l0,0c2.198-0.014,3.907,0.561,3.924,0.563l0,0
				c0.035,0.013,1.728,0.529,3.462,1.918l0,0c1.729,1.382,3.51,3.664,3.612,7.111l0,0c0.006,0.057,0.025,0.299,0.027,0.678l0,0
				c0.006,1.357-0.166,7.463-2.098,10.105l0,0c-0.088,0.121-0.23,0.188-0.374,0.189l0,0C38.607,57.988,38.516,57.965,38.436,57.91
				L38.436,57.91z"/>
		</g>
		<g>
			<path fill="#231F20" d="M27.633,42.135c-0.689-0.305-1.021-0.812-1.009-1.257l0,0c0.008-0.517,0.307-0.821,0.342-0.868l0,0
				c1.051-1.049,2.936-1.201,4.476-1.227l0,0c1.335-0.01,2.417,0.136,2.433,0.137l0,0l0,0c0.249,0.034,0.423,0.252,0.389,0.485l0,0
				c-0.005,0.017-0.009,0.034-0.013,0.054l0,0c0.043,0.027,0.084,0.063,0.115,0.105l0,0c0.147,0.19,0.102,0.459-0.104,0.598l0,0
				c-2.616,1.751-4.431,2.141-5.504,2.148l0,0C28.064,42.316,27.69,42.16,27.633,42.135L27.633,42.135z M28.049,41.367
				c0.022,0.01,0.06,0.021,0.119,0.035l0,0c0.118,0.024,0.311,0.055,0.582,0.053l0,0c0.794-0.004,2.294-0.275,4.58-1.729l0,0
				c-0.08-0.01-0.169-0.017-0.27-0.023l0,0c-0.416-0.035-0.989-0.068-1.616-0.063l0,0c-1.458-0.007-3.186,0.264-3.788,0.928l0,0
				c-0.001,0.005-0.005,0.009-0.011,0.016l0,0c-0.013,0.016-0.031,0.041-0.047,0.072l0,0c-0.034,0.063-0.063,0.146-0.062,0.217l0,0
				c0.013,0.102,0.008,0.246,0.493,0.49l0,0C28.036,41.365,28.04,41.367,28.049,41.367L28.049,41.367z"/>
		</g>
		<g>
			<path fill="#231F20" d="M49.134,57.73c-1.966-2.617-2.22-8.721-2.233-10.078l0,0c0-0.379,0.014-0.625,0.018-0.676l0,0
				c0.061-3.451,1.807-5.761,3.52-7.164l0,0c1.717-1.41,3.397-1.949,3.422-1.957l0,0c0.031-0.013,1.729-0.605,3.928-0.623l0,0
				c1.672-0.01,3.648,0.318,5.342,1.539l0,0c0.027,0.033,0.842,0.527,0.873,1.51l0,0c0.002,0.126-0.014,0.261-0.045,0.396l0,0
				c-0.025,0.138-0.133,0.636-0.568,1.177l0,0c-0.479,0.604-1.393,1.231-2.916,1.396l0,0c-0.104,0.021-0.531,0.095-1.149,0.099l0,0
				c-1.363,0.017-3.728-0.338-5.556-2.438l0,0l0,0c-0.164-0.182-0.133-0.453,0.064-0.602l0,0c0.193-0.15,0.482-0.125,0.643,0.059
				l0,0c1.607,1.84,3.631,2.128,4.84,2.123l0,0c0.308-0.002,0.558-0.023,0.728-0.045l0,0c0.172-0.021,0.248-0.038,0.25-0.038l0,0
				l0.049-0.009c2.296-0.262,2.609-1.529,2.701-1.813l0,0c0.006-0.039,0.01-0.043,0.01-0.043l0,0l0.011-0.056
				c0.02-0.072,0.024-0.139,0.024-0.2l0,0c0.019-0.382-0.385-0.749-0.479-0.813l0,0c-0.012-0.01-0.012-0.01-0.023-0.018l0,0
				c-1.488-1.07-3.244-1.377-4.789-1.365l0,0c-1.518,0.01-2.809,0.33-3.346,0.484l0,0c-0.18,0.052-0.268,0.082-0.279,0.086l0,0
				c0,0-0.082,0.027-0.25,0.092l0,0c-0.168,0.066-0.41,0.172-0.708,0.314l0,0c-0.587,0.289-1.379,0.742-2.167,1.389l0,0
				c-1.58,1.306-3.15,3.363-3.207,6.549l0,0v0.025c0.001,0.002-0.021,0.221-0.018,0.617l0,0c0.005,1.271,0.275,7.225,2.068,9.59l0,0
				c0.145,0.19,0.094,0.459-0.113,0.598l0,0c-0.078,0.053-0.168,0.078-0.26,0.08l0,0C49.367,57.916,49.225,57.85,49.134,57.73
				L49.134,57.73z"/>
		</g>
		<g>
			<path fill="#231F20" d="M59.24,42.105c-1.072,0.008-2.893-0.357-5.531-2.073l0,0c-0.207-0.136-0.258-0.401-0.115-0.597l0,0
				c0.033-0.045,0.072-0.08,0.115-0.106l0,0c-0.005-0.017-0.01-0.035-0.012-0.056l0,0c-0.041-0.232,0.131-0.451,0.383-0.488l0,0
				c0.012-0.002,1.096-0.162,2.43-0.17l0,0c1.539,0.004,3.426,0.131,4.506,1.176l0,0c0.021,0.039,0.326,0.337,0.34,0.854l0,0
				c0.019,0.445-0.309,0.957-0.994,1.271l0,0c-0.055,0.025-0.428,0.188-1.114,0.191l0,0C59.244,42.105,59.24,42.105,59.24,42.105
				L59.24,42.105z M59.234,41.249c0.442-0.003,0.674-0.085,0.715-0.099l0,0c0.48-0.252,0.479-0.397,0.488-0.5l0,0
				c0.006-0.104-0.082-0.254-0.115-0.291l0,0c0-0.004-0.004-0.006-0.006-0.008l0,0l0,0V40.35c-0.633-0.662-2.353-0.904-3.801-0.877
				l0,0c-0.632,0.002-1.207,0.043-1.627,0.084l0,0c-0.095,0.008-0.181,0.017-0.257,0.025l0,0
				C56.936,41.003,58.439,41.254,59.234,41.249L59.234,41.249z"/>
		</g>
		<g>
			<path fill="#231F20" d="M38.432,33.62c-0.002-0.235,0.201-0.431,0.455-0.433l0,0c0.252-0.002,0.459,0.19,0.461,0.427l0,0
				c0.004,0.296,0.221,0.462,0.385,0.46l0,0c0.164-0.001,0.377-0.17,0.379-0.465l0,0c-0.002-0.237,0.203-0.43,0.455-0.434l0,0
				c0.252-0.001,0.461,0.19,0.463,0.428l0,0c0.003,0.688-0.525,1.314-1.289,1.328l0,0C38.975,34.928,38.438,34.311,38.432,33.62
				L38.432,33.62z"/>
		</g>
		<g>
			<path fill="#231F20" d="M41.779,33.273c0-0.238,0.201-0.432,0.455-0.435l0,0c0.252-0.002,0.459,0.19,0.461,0.427l0,0
				c0.006,0.299,0.223,0.463,0.385,0.463l0,0c0.164-0.004,0.377-0.17,0.379-0.468l0,0c-0.001-0.237,0.201-0.432,0.455-0.433l0,0
				c0.251-0.001,0.459,0.189,0.461,0.427l0,0c0.003,0.688-0.525,1.315-1.289,1.329l0,0C42.32,34.582,41.785,33.962,41.779,33.273
				L41.779,33.273z"/>
		</g>
		<g>
			<path fill="#231F20" d="M40.111,33.482c-0.006-0.051-0.008-0.098-0.008-0.138l0,0c-0.008-0.637,0.451-1.229,1.164-1.302l0,0l0,0
				c0.045-0.005,0.08-0.005,0.107-0.007l0,0c0.712,0.005,1.251,0.549,1.318,1.203l0,0l0,0c0.025,0.237-0.159,0.446-0.411,0.47l0,0
				c-0.25,0.023-0.476-0.15-0.501-0.387l0,0c-0.028-0.277-0.247-0.437-0.401-0.428l0,0c-0.006-0.002-0.006,0-0.006,0l0,0
				l-0.021,0.002C41.2,32.904,41.02,33.07,41.02,33.34l0,0c-0.002,0.018,0,0.034,0.002,0.047l0,0
				c0.028,0.235-0.153,0.447-0.404,0.475l0,0c-0.016,0-0.033,0.003-0.049,0.002l0,0C40.338,33.865,40.139,33.703,40.111,33.482
				L40.111,33.482z"/>
		</g>
		<g>
			<path fill="#231F20" d="M39.27,59.82c-0.004-0.789,0.674-1.435,1.519-1.439l0,0c0.844-0.008,1.53,0.63,1.537,1.42l0,0
				c0.006,0.792-0.677,1.434-1.519,1.438l0,0C39.963,61.246,39.275,60.613,39.27,59.82L39.27,59.82z M40.186,59.816
				c0.004,0.313,0.277,0.565,0.615,0.563l0,0c0.338-0.002,0.609-0.258,0.607-0.571l0,0c-0.002-0.316-0.276-0.57-0.615-0.569l0,0
				C40.455,59.244,40.186,59.498,40.186,59.816L40.186,59.816z"/>
		</g>
		<g>
			<path fill="#231F20" d="M40.816,63.186c-0.144,0-0.248-0.008-0.303-0.013l0,0c-1.847-0.038-3.207-1.659-3.229-3.302l0,0
				c-0.007-0.735,0.271-1.417,0.735-1.941l0,0c0.59-0.672,1.485-1.106,2.488-1.113l0,0c0.672-0.004,1.299,0.183,1.813,0.507l0,0
				l0.007-0.003c0.207,0.131,0.266,0.396,0.125,0.595l0,0c-0.142,0.196-0.425,0.25-0.636,0.119l0,0
				c-0.375-0.232-0.819-0.367-1.305-0.361l0,0c-0.721,0.004-1.361,0.313-1.787,0.802l0,0c-0.334,0.379-0.529,0.86-0.524,1.393l0,0
				c0,0.605,0.274,1.236,0.715,1.701l0,0c0.438,0.468,1.019,0.752,1.63,0.748l0,0l0.08,0.008c0.001,0,0,0.002,0.034,0.006l0,0
				c0.032-0.001,0.085,0.003,0.151,0.007l0,0c0.282-0.004,0.82-0.067,1.363-0.459l0,0c0.822-0.604,1.416-0.712,1.766-0.708l0,0
				c0.072-0.002,0.123,0.002,0.148,0.002l0,0c0.252-0.002,0.459,0.186,0.461,0.426l0,0c0,0.234-0.201,0.43-0.455,0.433l0,0
				c-0.063-0.003-0.105-0.003-0.148-0.003l0,0c-0.187,0.01-0.467,0.005-1.211,0.527l0,0c-0.739,0.536-1.49,0.633-1.909,0.635l0,0
				C40.822,63.186,40.818,63.186,40.816,63.186L40.816,63.186z"/>
		</g>
		<g>
			<path fill="#231F20" d="M41.141,62.936L41.141,62.936c-0.105-0.221-0.012-0.471,0.219-0.574l0,0
				c0.226-0.1,0.496-0.014,0.607,0.197l0,0c0,0,0.002,0.004,0.006,0.01l0,0c0.008,0.017,0.022,0.035,0.045,0.063l0,0
				c0.043,0.058,0.113,0.134,0.219,0.216l0,0c0.209,0.159,0.535,0.326,1.104,0.325l0,0l0.765-0.003
				c0.254-0.003,0.461,0.188,0.463,0.423l0,0c0.002,0.239-0.205,0.435-0.457,0.437l0,0l-0.764,0.004
				c0-0.002-0.005-0.002-0.006-0.002l0,0C41.756,64.04,41.162,62.995,41.141,62.936L41.141,62.936z"/>
		</g>
		<g>
			<path fill="#231F20" d="M46.857,33.563c-0.002-0.236,0.199-0.431,0.453-0.433l0,0c0.254-0.001,0.459,0.19,0.461,0.427l0,0
				c0.006,0.297,0.223,0.461,0.385,0.461l0,0c0.164-0.002,0.377-0.17,0.379-0.466l0,0c-0.002-0.235,0.201-0.431,0.455-0.432l0,0
				c0.252-0.002,0.459,0.188,0.461,0.425l0,0c0.002,0.689-0.525,1.314-1.29,1.329l0,0C47.398,34.871,46.861,34.254,46.857,33.563
				L46.857,33.563z"/>
		</g>
		<g>
			<path fill="#231F20" d="M43.504,33.262c-0.002-0.238,0.203-0.432,0.455-0.434l0,0c0.253-0.001,0.461,0.191,0.463,0.428l0,0
				c0.004,0.297,0.221,0.461,0.383,0.461l0,0c0.164-0.002,0.377-0.17,0.379-0.467l0,0c-0.002-0.236,0.199-0.432,0.455-0.434l0,0
				c0.252,0,0.459,0.19,0.461,0.429l0,0c0.004,0.688-0.524,1.315-1.291,1.329l0,0C44.047,34.57,43.51,33.951,43.504,33.262
				L43.504,33.262z"/>
		</g>
		<g>
			<path fill="#231F20" d="M47.282,33.818c-0.255-0.017-0.442-0.221-0.425-0.457l0,0c0-0.025,0.002-0.045,0.002-0.061l0,0
				c-0.006-0.268-0.188-0.433-0.357-0.439l0,0c0,0.002,0,0.002-0.002-0.002l0,0c-0.002,0-0.004,0-0.01,0.002l0,0
				c-0.152-0.008-0.367,0.152-0.395,0.435l0,0c-0.021,0.236-0.244,0.412-0.496,0.392l0,0c-0.252-0.018-0.438-0.227-0.416-0.463l0,0
				c0.057-0.654,0.588-1.207,1.301-1.221l0,0c0.035,0,0.076,0,0.111,0.005l0,0c0.713,0.062,1.178,0.649,1.178,1.287l0,0
				c0.002,0.042,0,0.087-0.002,0.126l0,0c-0.019,0.223-0.217,0.395-0.453,0.396l0,0C47.307,33.816,47.293,33.816,47.282,33.818
				L47.282,33.818z"/>
		</g>
		<g>
			<path fill="#231F20" d="M45.914,59.777c-0.006-0.791,0.673-1.437,1.518-1.438l0,0c0.842-0.009,1.529,0.626,1.534,1.417l0,0
				c0.007,0.791-0.675,1.434-1.517,1.438l0,0C46.605,61.203,45.92,60.566,45.914,59.777L45.914,59.777z M47.445,60.337
				c0.336-0.003,0.606-0.259,0.604-0.573l0,0c-0.001-0.318-0.277-0.568-0.613-0.57l0,0c-0.338,0.007-0.609,0.264-0.607,0.578l0,0
				C46.832,60.086,47.105,60.34,47.445,60.337L47.445,60.337z"/>
		</g>
		<g>
			<path fill="#231F20" d="M45.541,62.532c-0.754-0.517-1.035-0.505-1.221-0.513l0,0c-0.043,0-0.088,0-0.148,0.002l0,0
				c-0.25,0.002-0.459-0.19-0.461-0.426l0,0c-0.001-0.238,0.204-0.431,0.455-0.433l0,0c0.025,0,0.078-0.002,0.148-0.004l0,0
				c0.349-0.009,0.944,0.091,1.774,0.688l0,0c0.548,0.379,1.086,0.438,1.371,0.437l0,0c0.065-0.002,0.117-0.007,0.149-0.009l0,0
				c0.031-0.002,0.037-0.006,0.037-0.006l0,0l0.078-0.008c0.611-0.003,1.188-0.297,1.623-0.77l0,0
				c0.43-0.469,0.697-1.106,0.69-1.709l0,0c-0.003-0.534-0.206-1.012-0.546-1.391l0,0c-0.432-0.479-1.077-0.777-1.799-0.773l0,0
				c-0.482,0.003-0.926,0.141-1.297,0.377l0,0l0,0c-0.211,0.133-0.496,0.086-0.639-0.111l0,0c-0.145-0.193-0.089-0.462,0.12-0.592
				l0,0c0.517-0.332,1.138-0.527,1.81-0.532l0,0c1.002-0.007,1.908,0.417,2.502,1.079l0,0c0.473,0.521,0.76,1.2,0.763,1.936l0,0
				c0.001,1.642-1.339,3.281-3.185,3.345l0,0c-0.059,0.008-0.162,0.015-0.302,0.019l0,0c-0.006,0-0.008-0.003-0.012,0l0,0
				C47.041,63.143,46.287,63.055,45.541,62.532L45.541,62.532z"/>
		</g>
		<g>
			<path fill="#231F20" d="M43.723,63.6c-0.002-0.236,0.204-0.432,0.457-0.435l0,0l0.764-0.006c1.043-0.009,1.338-0.606,1.363-0.63
				l0,0l0,0c0.108-0.213,0.377-0.303,0.605-0.206l0,0c0.229,0.103,0.33,0.352,0.225,0.569l0,0c-0.02,0.063-0.602,1.119-2.188,1.125
				l0,0l-0.765,0.008C43.932,64.025,43.727,63.832,43.723,63.6L43.723,63.6z M46.305,62.536L46.305,62.536L46.305,62.536
				L46.305,62.536L46.305,62.536L46.305,62.536z"/>
		</g>
	</g>
	<g>
		<path fill="#231F20" d="M38.784,14.406c0,0,0.266,0.191,0.7,0.554c0.422,0.374,1.063,0.875,1.763,1.535
			c0.712,0.651,1.515,1.434,2.345,2.298c0.409,0.438,0.854,0.872,1.266,1.346c0.42,0.468,0.847,0.943,1.271,1.419
			c0.825,0.975,1.653,1.947,2.385,2.898c0.745,0.938,1.371,1.875,1.943,2.646c0.57,0.773,0.969,1.484,1.284,1.951
			c0.299,0.48,0.452,0.771,0.452,0.771l-0.076,0.065c0,0-3.371-3.838-6.742-7.676c-3.333-3.871-6.667-7.742-6.667-7.742
			L38.784,14.406z"/>
	</g>
	<g>
		<path fill="#231F20" d="M22.477,49.698c0,0-0.33-0.296-0.875-0.837c-0.528-0.557-1.338-1.305-2.21-2.282
			c-0.868-0.981-1.943-2.077-2.981-3.341c-1.044-1.26-2.159-2.604-3.273-3.945c-1.054-1.391-2.108-2.781-3.097-4.085
			c-0.991-1.301-1.817-2.595-2.575-3.663c-0.753-1.073-1.3-2.03-1.721-2.671c-0.404-0.654-0.616-1.042-0.616-1.042l0.078-0.063
			c0,0,4.357,5.451,8.714,10.902c4.317,5.481,8.635,10.964,8.635,10.964L22.477,49.698z"/>
	</g>
</g>
</svg>
