<?xml version="1.0" encoding="utf-8"?>
<!-- Generator: Adobe Illustrator 16.0.0, SVG Export Plug-In . SVG Version: 6.00 Build 0)  -->
<!DOCTYPE svg PUBLIC "-//W3C//DTD SVG 1.1//EN" "http://www.w3.org/Graphics/SVG/1.1/DTD/svg11.dtd">
<svg version="1.1" xmlns="http://www.w3.org/2000/svg" xmlns:xlink="http://www.w3.org/1999/xlink" x="0px" y="0px" width="64px"
	 height="64px" viewBox="0 0 64 64" enable-background="new 0 0 64 64" xml:space="preserve">
<g>
	<g>
		<path fill="#231F20" d="M29.774,7.19c0.753,0,1.971,0.824,2.012,1.332c0.427,5.149,1.873,9.879,5.569,13.658
			c1.236,1.262,2.664,2.347,4.065,3.432c4.301,3.327,7.109,7.607,7.198,13.083c0.139,8.501-5.915,17.784-15.747,18.102
			c-0.186,0.006-0.371,0.009-0.557,0.009c-6.017,0-11.987-3.147-14.75-8.416c-1.464-2.794-2.063-6.731-2.063-8.5
			c0.292-7.198,2.763-12.304,5.218-17.278c2.38-4.823,5.22-9.418,7.865-14.112c0.15-0.265,0.56-0.978,0.771-1.173
			C29.46,7.231,29.605,7.19,29.774,7.19 M29.774,5.19L29.774,5.19c-0.686,0-1.298,0.229-1.771,0.664
			c-0.238,0.219-0.543,0.571-1.159,1.661c-0.788,1.398-1.591,2.785-2.395,4.171c-1.879,3.244-3.823,6.598-5.522,10.04
			c-2.395,4.851-5.108,10.349-5.423,18.082l-0.001,0.04v0.041c0,1.955,0.622,6.244,2.291,9.429
			c3.023,5.764,9.508,9.487,16.521,9.487c0.207,0,0.414-0.003,0.621-0.01c11.119-0.359,17.836-10.73,17.683-20.133
			c-0.093-5.688-2.775-10.61-7.975-14.632l-0.248-0.192c-1.309-1.012-2.545-1.968-3.612-3.058
			c-2.963-3.029-4.554-6.977-5.005-12.423C33.629,6.521,31.283,5.19,29.774,5.19L29.774,5.19z"/>
	</g>
	<g>
		<path fill="#231F20" d="M54.211,51.426L12.574,9.782l-2.787,2.79l41.638,41.641L54.211,51.426z"/>
		<g>
			<path fill="#231F20" d="M32,4c15.439,0,28,12.561,28,28c0,15.439-12.561,28-28,28C16.561,60,4,47.439,4,32
				C4,16.561,16.561,4,32,4 M32,0C14.327,0,0,14.327,0,32c0,17.674,14.327,32,32,32s32-14.326,32-32C64,14.327,49.673,0,32,0L32,0z"
				/>
		</g>
	</g>
	<path fill-rule="evenodd" clip-rule="evenodd" fill="none" stroke="#231F20" stroke-linejoin="round" stroke-miterlimit="10" d="
		M22.264,37.204c-3.547,6.648,1.745,16.005,8.922,16.413c1.823,0.104,3.805-0.986,4.413-2.429c0.672-1.59,0.112-3.36-1.625-4.651
		c-0.874-0.648-1.957-1.015-2.849-1.643c-2.381-1.684-3.879-2.7-6.16-4.513C24.249,39.811,22.96,38.178,22.264,37.204z"/>
</g>
</svg>
