<?xml version="1.0" encoding="utf-8"?>
<!-- Generator: Adobe Illustrator 16.0.0, SVG Export Plug-In . SVG Version: 6.00 Build 0)  -->
<!DOCTYPE svg PUBLIC "-//W3C//DTD SVG 1.1//EN" "http://www.w3.org/Graphics/SVG/1.1/DTD/svg11.dtd">
<svg version="1.1" xmlns="http://www.w3.org/2000/svg" xmlns:xlink="http://www.w3.org/1999/xlink" x="0px" y="0px" width="64px"
	 height="64px" viewBox="0 0 64 64" enable-background="new 0 0 64 64" xml:space="preserve">
<g>
	<g>
		<g>
			<g>
				<g>
					<path d="M55.098,21.985c0.021,0.146,0.021,0.314,0.02,0.481l-0.059,28.689c-0.002,1.04-0.004,2.079-0.014,3.112
						c-0.009,1.103-0.569,2.392-2.108,2.698c-0.265,0.051-0.529,0.098-0.793,0.141c-0.667,0.109-1.333,0.199-2.002,0.283
						c-0.71,0.092-1.288-0.246-1.621-0.931l-32.834,5.41c-0.288,0.718-0.853,1.392-1.982,1.577l-0.167,0.027
						c-0.307,0.032-0.613,0.083-0.92,0.134l-0.836,0.137c-0.286,0.048-0.564,0.093-0.843,0.131
						c-1.122,0.141-1.845-0.587-1.849-1.846l0.009-4.696l0.004-1.806c0-0.255,0.003-5.093,0.013-6.31
						c0.011-1.983,0.015-3.957,0.013-5.938l0.004-2.079c0-0.053-0.006-0.344-0.012-0.765c-0.032-1.642-0.07-3.45-0.062-4.006
						c0.032-2.278,0.065-4.548,0.098-6.826c0.023-1.175,0.771-2.162,1.83-2.389c0.556-0.11,1.113-0.21,1.669-0.302
						c0.482-0.079,0.964-0.152,1.446-0.219c0.989-0.136,1.789,0.631,1.814,1.746c0.006,0.28,0.013,0.561,0.012,0.843l32.423-5.334
						c0-0.159,0-0.317,0.008-0.486c0.017-1.412,0.918-2.529,2.235-2.772c0.318-0.059,0.637-0.114,0.955-0.167
						c0.516-0.084,1.029-0.161,1.546-0.235C54.119,20.156,54.995,20.893,55.098,21.985z M53.512,51.41l0.059-28.654
						c0-0.115,0-0.194-0.006-0.263c-0.021-0.094-0.223-0.281-0.509-0.233c-0.526,0.069-1.05,0.146-1.574,0.232
						c-0.288,0.047-0.575,0.098-0.864,0.151c-0.265,0.053-0.711,0.188-0.711,0.593c-0.001,0.299-0.002,0.608-0.002,0.925
						l-0.002,0.52c-0.001,0.538-0.35,1.035-0.775,1.105l-33.643,5.526c-0.383,0.063-0.648-0.017-0.85-0.248
						c-0.132-0.146-0.285-0.42-0.27-0.898c0.015-0.469,0.016-0.936,0.003-1.401c-0.007-0.025-0.104-0.132-0.307-0.108
						c-0.441,0.061-0.882,0.127-1.323,0.2c-0.569,0.094-1.139,0.198-1.708,0.316c-0.153,0.025-0.32,0.114-0.321,0.211
						c-0.04,2.27-0.072,4.548-0.104,6.816c-0.008,0.565,0.036,2.752,0.062,3.928c0.006,0.457,0.013,0.782,0.012,0.817l0.003,2.078
						c-0.004,1.982-0.008,3.965-0.019,5.949c-0.01,1.217-0.006,6.045-0.006,6.299l-0.01,1.807l-0.003,4.695
						c0.021,0.111,0.111,0.167,0.341,0.138c0.265-0.034,0.53-0.078,0.802-0.123l0.836-0.138c0.321-0.053,0.648-0.106,0.976-0.142
						l0.111-0.019c0.599-0.099,0.635-0.29,0.677-0.561c0.071-0.452,0.364-0.818,0.72-0.902l0.118-0.029
						c0.105-0.025,0.216-0.052,0.321-0.069l33.092-5.444c0.224-0.036,0.906-0.149,1.211,0.734c0.048,0.143,0.132,0.233,0.349,0.207
						c0.603-0.075,1.204-0.155,1.804-0.254c0.3-0.05,0.6-0.104,0.899-0.164c0.593-0.115,0.6-0.354,0.6-0.504
						C53.508,53.481,53.51,52.442,53.512,51.41"/>
				</g>
			</g>
		</g>
		<g>
			<g>
				<g>
					<path d="M19.046,37.829c0.14,0.074,0.188,0.286,0.111,0.466c-0.049,0.141-0.182,0.33-0.293,0.349l-0.843,0.104
						c-1.191,0.151-2.383,0.304-3.574,0.438c-0.209,0.026-0.529-0.212-0.528-0.548c0.008-0.776,0.024-1.544,0.054-2.387l0.015-0.68
						c0.007-0.134,0.063-0.258,0.154-0.334c0.042-0.037,0.091-0.061,0.141-0.069c0.05-0.008,0.1-0.001,0.146,0.022l1.03,0.588
						C16.68,36.475,17.87,37.15,19.046,37.829z M14.496,38.41c1.143-0.1,2.278-0.243,3.414-0.385
						c-0.897-0.514-1.809-1.033-2.741-1.559l-0.619-0.355l0,0.07C14.527,36.961,14.504,37.688,14.496,38.41"/>
				</g>
			</g>
		</g>
		<g>
			<g>
				<g>
					<path d="M46.085,52.246c0.104,0.123,0.138,0.33,0.075,0.517c-0.057,0.193-0.203,0.332-0.356,0.357l-30.423,5.005
						c-0.774,0.127-1.066,0.079-1.064-0.952l0.013-6.177c0-0.264,0.161-0.512,0.37-0.555l0.14-0.031
						c0.174-0.037,0.321-0.07,0.467-0.095l1.763-0.29c0.913-0.15,1.825-0.301,2.738-0.459l12.794-2.097
						c0.968-0.159,1.938-0.318,2.906-0.468c0.383-0.063,1.064,0.282,1.071,0.281c1.238,0.633,2.436,1.246,3.625,1.852
						c1.872,0.952,3.724,1.89,5.665,2.9l0.146,0.135L46.085,52.246z M15.383,57.147l29.009-4.772
						c-1.524-0.78-3.027-1.546-4.551-2.316c-1.19-0.606-2.394-1.218-3.633-1.852c-0.194-0.108-0.599-0.244-0.71-0.227
						c-0.969,0.15-1.931,0.309-2.899,0.468l-12.793,2.104l-0.07,0.003c-0.892,0.155-1.777,0.301-2.668,0.447l-1.763,0.29
						l-0.202,0.043l-0.012,5.71l0,0.149C15.173,57.182,15.278,57.164,15.383,57.147"/>
				</g>
			</g>
		</g>
		<g>
			<g>
				<g>
					<path d="M52.099,46.789c0.16-0.026,0.286,0.12,0.285,0.323l-0.009,4.45c-0.001,0.123-0.05,0.255-0.141,0.34l-0.146,0.067
						l-0.14-0.021l-6.388-3.31c-0.139-0.065-0.194-0.267-0.124-0.454c0.042-0.141,0.182-0.33,0.293-0.349L52.099,46.789z
						 M51.798,51.04l0.007-3.472l-5.087,0.837L51.798,51.04"/>
				</g>
			</g>
		</g>
		<g>
			<g>
				<g>
					<path d="M51.322,27.562c0.217-0.035,0.39,0.156,0.39,0.421l-0.013,6.142c-0.001,0.265-0.168,0.512-0.377,0.555l-0.105,0.026
						l-0.201,0.043l-22.097,3.625c-0.362,0.06-0.738,0.017-0.996-0.118c-2.178-1.112-4.342-2.236-6.506-3.359l-1.872-0.97
						l-0.132-0.084l-0.167-0.096c-0.146-0.081-0.223-0.299-0.173-0.518c0.042-0.219,0.196-0.394,0.37-0.422L51.322,27.562z
						 M50.927,33.784l0.011-5.182l-29.992,4.935l0.842,0.434c2.164,1.124,4.328,2.248,6.499,3.361
						c0.153,0.072,0.404,0.101,0.634,0.063L50.927,33.784"/>
				</g>
			</g>
		</g>
		<g>
			<g>
				<g>
					<path d="M51.677,37.488c0.209-0.034,0.383,0.157,0.382,0.431l-0.013,6.132c0,0.247-0.14,0.481-0.335,0.54
						c-0.069,0.028-0.119,0.046-0.174,0.056l-9.156,1.496c-0.23,0.038-9.548-4.551-9.673-4.767
						c-0.084-0.137-0.091-0.329-0.027-0.499c0.07-0.179,0.203-0.297,0.349-0.32L51.677,37.488z M51.273,43.712l0.011-5.181
						l-16.745,2.754c2.388,1.202,7.279,3.603,7.92,3.868L51.273,43.712"/>
				</g>
			</g>
		</g>
		<g>
			<g>
				<g>
					<path d="M33.228,44.656c0.083,0.137,0.09,0.33,0.026,0.507c-0.069,0.171-0.202,0.298-0.342,0.32l-18.654,3.069
						c-0.209,0.034-0.383-0.157-0.382-0.431l0.013-6.141c0-0.229,0.133-0.454,0.308-0.526c0.063-0.028,0.125-0.057,0.202-0.069
						l4.083-0.672l0.049-0.008l5.024-0.817C23.785,39.851,33.096,44.44,33.228,44.656z M14.65,47.502l16.745-2.755
						c-2.387-1.202-7.279-3.604-7.919-3.868l-4.997,0.813l-0.042,0.007l-3.776,0.621L14.65,47.502"/>
				</g>
			</g>
		</g>
	</g>
	<g>
		<g>
			<g>
				<path d="M46.039,18.507c0.032,0.062,0.651,1.244-0.481,1.983l-8.637,4.226l-0.948,0.458c-0.011,0.004-0.202,0.07-0.45-0.056
					c-0.098-0.05-0.199-0.13-0.303-0.25c-0.022-0.021-0.452-0.413-0.411-0.632c0.037-0.222,0.552-2.734,0.579-2.866l-8.038-3.116
					l-8.73-3.382l-0.617,2.885c-0.014,0.023-0.287,0.459-1.231,0.074l-1.059-1.76l-4.197-7.153l-1.21-2.116
					c-0.059-0.084-1.166-1.679,1.46-2.58l7.858-3.826c0.028-0.027,0.555-0.543,1.184-0.223c0.092,0.047,0.185,0.104,0.275,0.188
					c0.728,0.678,0.304,1.312,0.282,1.345l-0.45,2.153l16.768,6.497l0.646-2.927c0.023-0.02,0.469-0.386,0.969-0.131
					c0.165,0.084,0.331,0.236,0.483,0.497C40.401,8.852,45.757,18.024,46.039,18.507z M36.854,24.039l8.472-4.147
					c0.074-0.145,0.042-0.536-0.104-0.812C45.179,19,39.594,9.43,38.982,8.388l-0.054-0.076l-0.401,1.832l-0.315,1.415l-1.132-0.442
					L20.312,4.62l-0.333-0.131l0.086-0.408l0.45-2.153l0.04-0.182l0.077-0.114c0.01-0.063,0.036-0.298-0.29-0.59
					c-0.055-0.057-0.117-0.098-0.178-0.129c-0.062-0.031-0.109-0.046-0.141-0.043l-0.097,0.095L19.7,1.07l-7.865,3.832
					c-0.606,0.219-0.836,0.381-0.878,0.446c-0.125,0.196-0.011,0.638,0.129,0.844l1.231,2.136l4.197,7.153l0.868,1.441l0.39-1.828
					l0.305-1.42l1.143,0.439l8.735,3.384l8.033,3.113l0.332,0.131l-0.086,0.408c-0.184,0.896-0.471,2.306-0.553,2.725
					c0.048,0.082,0.161,0.217,0.271,0.321c0.099,0.117,0.16,0.158,0.201,0.179L36.854,24.039"/>
			</g>
		</g>
	</g>
</g>
</svg>
