<?xml version="1.0" encoding="utf-8"?>
<!-- Generator: Adobe Illustrator 16.0.0, SVG Export Plug-In . SVG Version: 6.00 Build 0)  -->
<!DOCTYPE svg PUBLIC "-//W3C//DTD SVG 1.1//EN" "http://www.w3.org/Graphics/SVG/1.1/DTD/svg11.dtd">
<svg version="1.1" xmlns="http://www.w3.org/2000/svg" xmlns:xlink="http://www.w3.org/1999/xlink" x="0px" y="0px" width="64px"
	 height="64px" viewBox="0 0 64 64" enable-background="new 0 0 64 64" xml:space="preserve">
<g>
	<path fill="#231F20" d="M59.713,49.089c-0.912-0.276-1.842-0.481-2.766-0.709c-3.992-0.979-7.967-2.076-11.987-2.852
		c-1.296-0.252-1.786-0.787-2.094-2.081c-0.398-1.675-0.904-3.327-1.466-4.946c-1.092-3.152-3.627-4.606-6.547-3.845
		c-0.309,0.079-0.613,0.152-1.01,0.251c0-3.73,0.006-7.308-0.004-10.888c-0.009-3.019-0.917-5.666-3.048-7.521
		c-1.256-1.093-2.799-1.771-4.331-2.708c0-1.513,0-3.326,0-5.167c0.666-0.075,1.243-0.142,1.798-0.206c0-2.863,0-5.592,0-8.307
		c-7.58,0-15.056,0-22.567,0c0,2.82,0,5.554,0,8.328c0.612,0.065,1.154,0.124,1.76,0.188c0,1.843,0,3.616,0,5.503
		c-5.456,1.463-7.371,5.793-7.385,9.982c-0.029,9.925-0.077,19.849,0.017,29.77c0.055,5.802,3.532,9.898,8.465,10.02
		c5.596,0.135,11.199,0.124,16.795,0c3.692-0.083,6.434-2.162,7.807-6.031c0.598-1.686,0.638-3.62,0.932-5.43
		c0.111,0.345,0.264,0.772,0.398,1.211c0.554,1.775,1.004,3.603,1.674,5.323c1.136,2.915,4.104,4.255,6.703,3.162
		c1.625-0.688,2.668-2.04,3.342-3.866c0.513,0.107,0.975,0.188,1.431,0.298c3.194,0.782,6.382,1.592,9.58,2.344
		c3.065,0.721,5.929-1.22,6.601-4.418C64.52,53.115,62.829,50.043,59.713,49.089z M8.063,2.039h18v4.801h-18V2.039z M30.412,53.919
		c-0.016,3.712-2.118,6.098-5.429,6.147c-5.336,0.079-10.675,0.077-16.01,0c-3.393-0.047-5.409-2.431-5.417-6.261
		c-0.021-9.869-0.021-19.737,0.002-29.606c0.008-3.736,1.918-5.967,5.191-6.195c1.679-0.118,2.218-0.717,2.251-2.603
		c0.028-1.585,0.006-3.172,0.006-4.834c4.018,0,7.91,0,11.949,0c0,1.636-0.009,3.221,0.002,4.801
		c0.013,1.916,0.52,2.517,2.193,2.636c3.257,0.233,5.25,2.479,5.264,6.164C30.453,34.085,30.457,44.002,30.412,53.919z
		 M42.082,60.477c-1.895,0.645-3.866-0.384-4.59-2.577c-0.861-2.615-1.588-5.286-2.418-8.089c2.468-0.914,4.777-1.771,7.193-2.665
		c0.828,2.858,1.721,5.569,2.385,8.354C45.188,57.743,43.999,59.822,42.082,60.477z M50.475,57.368
		c-1.264-0.311-2.429-0.584-3.584-0.897c-0.172-0.047-0.394-0.247-0.442-0.426c-0.773-2.851-1.523-5.706-2.368-8.896
		c2.727,0.651,5.283,1.262,7.992,1.911C51.531,51.876,51.02,54.542,50.475,57.368z"/>
	<path fill="#231F20" d="M20.483,28.952c-2.401,0-4.655,0-6.99,0c0,1.536,0,2.991,0,4.655c-1.622,0-3.174,0-4.707,0
		c0,2.439,0,4.664,0,7.031c1.55,0,3.036,0,4.676,0c0,1.66,0,3.184,0,4.729c2.417,0,4.674,0,7.112,0c0-1.612,0-3.132,0-4.788
		c1.665,0,3.149,0,4.624,0c0-2.4,0-4.655,0-7.016c-1.591,0-3.083,0-4.715,0C20.483,31.973,20.483,30.488,20.483,28.952z"/>
</g>
</svg>
