<?xml version="1.0" encoding="utf-8"?>
<!-- Generator: Adobe Illustrator 16.0.0, SVG Export Plug-In . SVG Version: 6.00 Build 0)  -->
<!DOCTYPE svg PUBLIC "-//W3C//DTD SVG 1.1//EN" "http://www.w3.org/Graphics/SVG/1.1/DTD/svg11.dtd">
<svg version="1.1" xmlns="http://www.w3.org/2000/svg" xmlns:xlink="http://www.w3.org/1999/xlink" x="0px" y="0px" width="64px"
	 height="64px" viewBox="0 0 64 64" enable-background="new 0 0 64 64" xml:space="preserve">
<g>
	<g>
		<path fill="#231F20" d="M34.225,25.322v6.557c0,1.475,0.007,2.935,0.015,4.388c0.003,0.767,0.007,1.532,0.01,2.298H22.712v-3.711
			v-2h-2h-2.835l-2.575-0.001l-2.577-0.001c-1.435,0-2.869,0.001-4.3,0.006c-3.453,0.006-5.213,1.861-5.232,5.515
			c-0.018,3.474-0.028,7.195,0.008,10.872c0.032,3.018,1.838,5.056,4.496,5.072c3.687,0.021,7.373,0.027,11.076,0.027l6.029-0.004
			c2.029-0.001,4.065-0.003,6.111-0.003h2v-2v-2.428l6.286,3.542l3.208,1.809l-6.052,3.415l-3.37,1.9v-2.372v-2h-2h-1.784
			c-1.921,0-3.843-0.017-5.765-0.033c-1.933-0.017-3.865-0.032-5.798-0.032c-2.979,0-5.432,0.04-7.717,0.125
			c-0.195,0.008-0.386,0.012-0.576,0.012c-3.886,0-6.098-1.588-7.348-5.295V36.217c1.224-3.663,3.38-5.301,6.958-5.301
			c0.286,0,0.585,0.01,0.89,0.031c1.071,0.074,2.205,0.108,3.569,0.108c0.984,0,1.969-0.018,2.954-0.036
			c0.866-0.016,1.732-0.032,2.595-0.035c0.44-0.001,0.85-0.034,1.284-0.07c0.194-0.016,0.399-0.033,0.62-0.047l1.868-0.124v-1.872
			v-3.55H34.225 M36.225,23.322c-5.253,0-10.286,0-15.486,0c0,1.808,0,3.583,0,5.55c-0.695,0.046-1.235,0.112-1.776,0.113
			c-1.847,0.006-3.698,0.07-5.545,0.07c-1.146,0-2.291-0.024-3.432-0.103c-0.35-0.024-0.692-0.036-1.027-0.036
			c-4.309,0-7.407,2.022-8.958,6.986c0,5.132,0,10.263,0,15.395c1.606,5.102,4.837,6.978,9.347,6.978
			c0.215,0,0.432-0.004,0.652-0.013c2.545-0.096,5.094-0.124,7.642-0.124c3.854,0,7.708,0.065,11.563,0.065c0.55,0,1.1,0,1.784,0
			c0,1.979,0,3.754,0,5.797c5.213-2.941,10.22-5.766,15.494-8.741c-5.26-2.964-10.279-5.794-15.566-8.772c0,2.214,0,3.992,0,5.851
			c-4.079,0-8.119,0.007-12.14,0.007c-3.699,0-7.381-0.006-11.064-0.027c-1.58-0.01-2.488-1.198-2.508-3.094
			c-0.036-3.613-0.026-7.228-0.008-10.841c0.013-2.58,0.888-3.521,3.235-3.524c1.432-0.005,2.864-0.006,4.296-0.006
			c1.717,0,3.434,0.002,5.151,0.002c0.904,0,1.808,0,2.835,0c0,2.063,0,3.853,0,5.711c5.204,0,10.272,0,15.541,0
			c0-2.885-0.028-5.754-0.028-8.686C36.225,28.895,36.225,26.158,36.225,23.322L36.225,23.322z"/>
	</g>
	<g>
		<path fill="#231F20" d="M15.455,2v3.855v2h2h1.872c3.475,0,6.95,0.013,10.425,0.026c3.48,0.013,6.96,0.027,10.44,0.027
			c5.808,0,10.557-0.039,14.948-0.121l0.157-0.001c4.892,0,6.656,4.366,6.681,8.104c0.025,3.763,0.014,6.858-0.037,9.741
			c-0.079,4.572-2.421,7.32-6.259,7.352l-0.605,0.002l-0.615-0.001l-0.767-0.001h-2v2v2.402c-1.525-0.891-3.036-1.79-4.516-2.673
			c-1.458-0.869-2.946-1.757-4.45-2.634c1.526-0.894,3.034-1.797,4.512-2.683c1.442-0.864,2.914-1.746,4.396-2.614v2.257v1.883
			l1.88,0.113l0.53,0.035c0.382,0.027,0.69,0.047,0.995,0.05l0.197,0.001c4.837,0,5.507-2.91,5.511-6.054
			c0.004-3.089,0.004-6.178,0-9.267c-0.003-3.204-0.687-6.168-5.625-6.168L39.73,9.63H29.469l-10.262,0h-1.796h-2v2v3.861H3.958V2
			H15.455 M17.455,0C12.289,0,7.123,0,1.958,0c0,5.831,0,11.661,0,17.492c5.1,0,10.2,0,15.453,0c0-1.951,0-3.787,0-5.861
			c0.699,0,1.248,0,1.796,0c6.841,0,13.683,0,20.523,0c5.131,0,10.262,0,15.394,0.001c2.888,0,3.623,0.852,3.626,4.17
			c0.004,3.087,0.004,6.174,0,9.262c-0.004,3.23-0.698,4.056-3.511,4.056c-0.058,0-0.115,0-0.175-0.001
			c-0.404-0.004-0.81-0.044-1.428-0.081c0-0.964,0-1.873,0-2.782c0-0.862,0-1.726,0-2.932c-5.023,2.824-9.857,5.908-14.924,8.755
			c5.041,2.833,9.885,5.894,14.982,8.758c0-2.194,0-3.968,0-5.854c0.517,0,0.962,0.002,1.382,0.002c0.21,0,0.414-0.001,0.618-0.002
			c4.982-0.041,8.147-3.671,8.246-9.316c0.057-3.263,0.059-6.542,0.037-9.789c-0.037-5.516-3.072-10.091-8.681-10.091
			c-0.064,0-0.129,0.001-0.194,0.002c-4.969,0.093-9.94,0.12-14.911,0.12c-6.955,0-13.91-0.053-20.865-0.053
			c-0.597,0-1.193,0-1.872,0C17.455,3.723,17.455,1.861,17.455,0L17.455,0z"/>
	</g>
	<g>
		<path fill="#231F20" d="M62,48.745V62H50.624V48.745H62 M64,46.745c-5.154,0-10.232,0-15.376,0c0,5.81,0,11.495,0,17.255
			c5.185,0,10.259,0,15.376,0C64,58.195,64,52.51,64,46.745L64,46.745z"/>
	</g>
	<g>
		<path fill="#231F20" d="M10.338,12.971c1.888-0.008,3.37-1.572,3.268-3.457c-0.028-0.527-0.184-1.021-0.459-1.472
			c-0.085-0.139-0.081-0.235,0.064-0.317c0.041-0.025,0.076-0.06,0.11-0.093c0.271-0.265,0.271-0.265,0.46,0.057
			c1.467,2.488-0.167,5.692-3.051,5.984c-2.166,0.219-4.097-1.31-4.368-3.464c-0.017-0.141-0.076-0.215-0.196-0.275
			c-0.547-0.274-0.767-0.77-0.851-1.337C5.294,8.46,5.278,8.325,5.234,8.195C5.066,7.679,4.889,7.166,4.731,6.646
			C4.466,5.775,4.93,5.033,5.824,4.883c0.16-0.027,0.31-0.013,0.417,0.132c0.095,0.127,0.115,0.268,0.034,0.41
			C6.185,5.581,6.04,5.65,5.866,5.635C5.686,5.619,5.509,5.539,5.368,5.749C5.217,5.97,5.183,6.195,5.272,6.44
			c0.241,0.671,0.405,1.367,0.759,1.997c0.091,0.16,0.096,0.358,0.191,0.522c0.1,0.166,0.208,0.313,0.433,0.301
			c0.207-0.01,0.332-0.145,0.4-0.312C7.368,8.162,7.741,7.397,8.005,6.59c0.082-0.251,0.106-0.506-0.026-0.754
			C7.881,5.652,7.77,5.549,7.534,5.618C7.295,5.69,7.089,5.559,7.032,5.354c-0.054-0.197,0.085-0.425,0.3-0.488
			c0.045-0.012,0.097-0.021,0.142-0.015C8,4.909,8.601,5.504,8.66,6.026c0.027,0.24-0.027,0.469-0.104,0.693
			C8.419,7.125,8.274,7.53,8.135,7.937c-0.088,0.26-0.167,0.519-0.211,0.795C7.846,9.209,7.64,9.632,7.198,9.888
			C7.05,9.972,7.06,10.093,7.081,10.222C7.331,11.813,8.712,12.979,10.338,12.971z"/>
		<path fill="#231F20" d="M13.399,6.643c0.002,0.598-0.468,1.081-1.05,1.078c-0.578-0.003-1.071-0.502-1.066-1.078
			c0.006-0.574,0.481-1.039,1.066-1.04C12.943,5.603,13.398,6.051,13.399,6.643z"/>
	</g>
	<g>
		<path fill="none" d="M27.254,32.687C27.254,32.688,27.254,32.688,27.254,32.687c-0.036-0.108-0.093-0.234-0.128-0.345
			c-0.73,0.235-1.424,0.458-2.156,0.695c-0.014,0.003-0.027,0.008-0.041,0.013c0.254,0.763,0.477,1.49,0.74,2.204
			c0.221,0.596,0.825,0.876,1.406,0.702c0.586-0.18,0.95-0.745,0.786-1.357C27.691,33.96,27.471,33.334,27.254,32.687z"/>
		<path fill="none" d="M28.413,34.747c0.014,0.049,0.083,0.103,0.134,0.115c0.355,0.084,0.711,0.159,1.098,0.245
			c0.167-0.771,0.323-1.495,0.489-2.264c-0.83-0.177-1.612-0.343-2.448-0.52C27.947,33.192,28.176,33.97,28.413,34.747z"/>
		<path fill="#231F20" d="M32.473,32.852c-0.278-0.076-0.562-0.132-0.846-0.193c-1.221-0.266-2.439-0.564-3.67-0.777
			c-0.318-0.055-0.477-0.163-0.576-0.382c-0.04-0.119-0.079-0.241-0.119-0.36c-0.085-0.3-0.184-0.596-0.293-0.888
			c-0.026-0.08-0.052-0.16-0.083-0.237c-0.004-0.01-0.011-0.021-0.016-0.03c-0.001-0.005-0.003-0.011-0.005-0.016
			c-0.218-0.557-0.622-0.916-1.122-1.045c-0.024-0.006-0.05-0.009-0.073-0.015c-0.07-0.014-0.141-0.027-0.214-0.033
			c-0.044-0.002-0.089-0.001-0.135-0.001c-0.068,0-0.136,0.001-0.205,0.008c-0.021,0.003-0.041,0.006-0.061,0.01
			c-0.065,0.008-0.129,0.014-0.196,0.029c-0.034,0.007-0.07,0.017-0.109,0.025c0,0.006,0,0.014,0,0.021
			c-0.845,0.292-1.283,1.214-0.996,2.128c0.254,0.807,0.719,2.168,0.996,3.015c0,0.002,0,0.004,0,0.004
			c0.167,0.479,0.305,0.97,0.507,1.433c0.348,0.794,1.256,1.159,2.052,0.861c0.498-0.188,0.817-0.555,1.023-1.052
			c0.157,0.027,0.299,0.051,0.437,0.079c0.979,0.215,1.955,0.437,2.934,0.641c0.937,0.195,1.815-0.333,2.02-1.205
			C33.945,33.949,33.428,33.11,32.473,32.852z M27.076,35.955c-0.58,0.174-1.184-0.106-1.405-0.702
			c-0.264-0.714-0.487-1.441-0.741-2.204c0.015-0.005,0.028-0.01,0.041-0.013c0.732-0.237,1.424-0.46,2.156-0.695
			c0.036,0.111,0.093,0.237,0.128,0.346l0,0c0.218,0.647,0.438,1.273,0.607,1.912C28.027,35.21,27.663,35.775,27.076,35.955z
			 M29.646,35.107c-0.387-0.085-0.743-0.158-1.098-0.245c-0.052-0.013-0.12-0.066-0.134-0.115c-0.237-0.777-0.466-1.557-0.726-2.425
			c0.834,0.177,1.618,0.344,2.448,0.521C29.969,33.612,29.813,34.337,29.646,35.107z"/>
	</g>
	<g>
		<rect x="55.219" y="50.656" fill="#231F20" width="2.188" height="9.75"/>
		<rect x="51.438" y="54.438" fill="#231F20" width="9.75" height="2.188"/>
	</g>
</g>
</svg>
