<?xml version="1.0" encoding="utf-8"?>
<!-- Generator: Adobe Illustrator 16.0.0, SVG Export Plug-In . SVG Version: 6.00 Build 0)  -->
<!DOCTYPE svg PUBLIC "-//W3C//DTD SVG 1.1//EN" "http://www.w3.org/Graphics/SVG/1.1/DTD/svg11.dtd">
<svg version="1.1" xmlns="http://www.w3.org/2000/svg" xmlns:xlink="http://www.w3.org/1999/xlink" x="0px" y="0px" width="64px"
	 height="64px" viewBox="0 0 64 64" enable-background="new 0 0 64 64" xml:space="preserve">
<g>
	<g>
		<path fill="none" d="M32.984,58.203v2.372l3.371-1.9l6.052-3.415l-3.208-1.809l-6.286-3.542v2.428v2h-2
			c-2.046,0-4.082,0.002-6.111,0.003l-6.029,0.004c-3.703,0-7.389-0.006-11.076-0.027c-2.658-0.016-4.464-2.053-4.496-5.071
			c-0.036-3.677-0.026-7.397-0.008-10.872c0.019-3.654,1.779-5.509,5.232-5.516c1.431-0.004,2.865-0.006,4.3-0.006l2.577,0.002
			h2.575h2.835h2v2v3.711H34.25c-0.003-0.766-0.007-1.53-0.01-2.297c-0.008-1.453-0.016-2.914-0.016-4.389v-6.557v-0.001h-11.49
			v3.55v1.872l-1.868,0.124c-0.221,0.014-0.426,0.031-0.62,0.047c-0.434,0.036-0.844,0.069-1.284,0.07
			c-0.863,0.003-1.729,0.019-2.595,0.035c-0.985,0.018-1.97,0.036-2.954,0.036c-1.364,0-2.498-0.034-3.569-0.108
			c-0.305-0.021-0.604-0.031-0.89-0.031c-3.578,0-5.734,1.639-6.958,5.301V50.98c1.25,3.707,3.462,5.295,7.348,5.295
			c0.19,0,0.381-0.004,0.576-0.012c2.285-0.086,4.738-0.125,7.717-0.125c1.933,0,3.865,0.014,5.798,0.031
			c1.922,0.016,3.844,0.033,5.765,0.033h1.784h2V58.203z"/>
		<path fill="#231F20" d="M46.482,55.259c-5.26-2.964-10.278-5.794-15.565-8.772c0,2.215,0,3.992,0,5.852
			c-4.079,0-8.119,0.008-12.14,0.008c-3.699,0-7.381-0.007-11.064-0.027c-1.58-0.01-2.488-1.198-2.508-3.094
			c-0.036-3.613-0.026-7.229-0.008-10.842c0.013-2.58,0.888-3.521,3.235-3.523c1.432-0.006,2.864-0.006,4.296-0.006
			c1.717,0,3.434,0.002,5.151,0.002c0.904,0,1.808,0,2.835,0c0,2.063,0,3.853,0,5.711c5.204,0,10.272,0,15.541,0
			c0-2.885-0.028-5.754-0.028-8.687c-0.002-2.985-0.002-5.722-0.002-8.558c-5.252,0-10.286,0-15.486,0c0,1.808,0,3.583,0,5.55
			c-0.695,0.046-1.235,0.112-1.776,0.113c-1.847,0.006-3.698,0.07-5.545,0.07c-1.146,0-2.291-0.024-3.432-0.103
			c-0.35-0.024-0.692-0.036-1.027-0.036c-4.309,0-7.407,2.022-8.958,6.986c0,5.132,0,10.263,0,15.395
			c1.606,5.102,4.837,6.979,9.347,6.979c0.215,0,0.432-0.004,0.652-0.014c2.545-0.096,5.094-0.123,7.642-0.123
			c3.854,0,7.708,0.064,11.563,0.064c0.55,0,1.1,0,1.784,0c0,1.979,0,3.754,0,5.797C36.202,61.059,41.209,58.234,46.482,55.259z
			 M30.985,56.203h-1.784c-1.921,0-3.843-0.018-5.765-0.033c-1.933-0.018-3.865-0.031-5.798-0.031c-2.979,0-5.432,0.039-7.717,0.125
			c-0.195,0.008-0.386,0.012-0.576,0.012c-3.886,0-6.098-1.588-7.348-5.295V36.217c1.224-3.662,3.38-5.301,6.958-5.301
			c0.286,0,0.585,0.01,0.89,0.031c1.071,0.074,2.205,0.108,3.569,0.108c0.984,0,1.969-0.018,2.954-0.036
			c0.866-0.016,1.732-0.032,2.595-0.035c0.44-0.001,0.85-0.034,1.284-0.07c0.194-0.016,0.399-0.033,0.62-0.047l1.868-0.124v-1.872
			v-3.55h11.49v0.001v6.557c0,1.475,0.008,2.936,0.016,4.389c0.003,0.767,0.007,1.531,0.01,2.297H22.712v-3.711v-2h-2h-2.835h-2.575
			l-2.577-0.002c-1.435,0-2.869,0.002-4.3,0.006c-3.453,0.007-5.213,1.861-5.232,5.516c-0.018,3.475-0.028,7.195,0.008,10.872
			c0.032,3.019,1.838,5.056,4.496,5.071c3.687,0.021,7.373,0.027,11.076,0.027l6.029-0.004c2.029-0.001,4.065-0.003,6.111-0.003h2
			v-2v-2.428l6.286,3.542l3.208,1.809l-6.052,3.415l-3.371,1.9v-2.372v-2H30.985z"/>
	</g>
	<g>
		<path fill="#231F20" d="M15.455,2v3.855v2h2h1.872c3.475,0,6.95,0.013,10.425,0.026c3.48,0.013,6.96,0.027,10.439,0.027
			c5.809,0,10.558-0.039,14.949-0.121l0.156-0.001c4.893,0,6.656,4.366,6.682,8.104c0.024,3.763,0.014,6.858-0.037,9.741
			c-0.08,4.572-2.422,7.32-6.26,7.352l-0.604,0.002h-0.615l-0.767-0.002h-2v2v2.402c-1.525-0.891-3.036-1.79-4.516-2.673
			c-1.459-0.869-2.947-1.757-4.451-2.634c1.526-0.894,3.035-1.797,4.513-2.683c1.442-0.864,2.913-1.746,4.396-2.614v2.257v1.883
			l1.881,0.113l0.529,0.035c0.383,0.027,0.689,0.047,0.995,0.05l0.196,0.001c4.838,0,5.508-2.91,5.512-6.054
			c0.004-3.089,0.004-6.178,0-9.267c-0.003-3.204-0.688-6.168-5.625-6.168L39.73,9.63H29.469H19.207h-1.796h-2v2v3.861H3.958V2
			H15.455 M17.455,0C12.289,0,7.123,0,1.958,0c0,5.831,0,11.661,0,17.492c5.1,0,10.2,0,15.453,0c0-1.951,0-3.787,0-5.861
			c0.699,0,1.248,0,1.796,0c6.841,0,13.684,0,20.523,0c5.131,0,10.262,0,15.394,0.001c2.888,0,3.623,0.852,3.626,4.17
			c0.004,3.087,0.004,6.174,0,9.262c-0.004,3.23-0.698,4.056-3.512,4.056c-0.057,0-0.114,0-0.174-0.001
			c-0.404-0.004-0.811-0.044-1.428-0.081c0-0.964,0-1.873,0-2.782c0-0.862,0-1.726,0-2.932c-5.023,2.824-9.857,5.908-14.925,8.755
			c5.041,2.833,9.886,5.894,14.981,8.758c0-2.194,0-3.968,0-5.854c0.518,0,0.963,0.002,1.383,0.002c0.21,0,0.414,0,0.617-0.002
			c4.982-0.041,8.147-3.67,8.246-9.315c0.058-3.263,0.06-6.542,0.037-9.789c-0.037-5.516-3.072-10.091-8.681-10.091
			c-0.063,0-0.129,0.001-0.194,0.002c-4.969,0.093-9.939,0.12-14.91,0.12c-6.955,0-13.91-0.053-20.865-0.053
			c-0.597,0-1.193,0-1.872,0C17.455,3.723,17.455,1.861,17.455,0L17.455,0z"/>
	</g>
	<g>
		<path fill="#231F20" d="M62,48.745V62H50.624V48.745H62 M64,46.745c-5.154,0-10.232,0-15.376,0c0,5.81,0,11.495,0,17.255
			c5.185,0,10.259,0,15.376,0C64,58.195,64,52.51,64,46.745L64,46.745z"/>
	</g>
	<g>
		<rect x="55.219" y="50.656" fill="#231F20" width="2.188" height="9.75"/>
		<rect x="51.438" y="54.438" fill="#231F20" width="9.75" height="2.188"/>
	</g>
	<g>
		<rect x="27.023" y="27.125" fill="#231F20" width="2.188" height="9.75"/>
		<rect x="23.242" y="30.906" fill="#231F20" width="9.75" height="2.188"/>
	</g>
	<g>
		<rect x="8.594" y="4.031" fill="#231F20" width="2.188" height="9.75"/>
		<rect x="4.813" y="7.813" fill="#231F20" width="9.75" height="2.188"/>
	</g>
</g>
</svg>
