<?xml version="1.0" encoding="utf-8"?>
<!-- Generator: Adobe Illustrator 16.0.0, SVG Export Plug-In . SVG Version: 6.00 Build 0)  -->
<!DOCTYPE svg PUBLIC "-//W3C//DTD SVG 1.1//EN" "http://www.w3.org/Graphics/SVG/1.1/DTD/svg11.dtd">
<svg version="1.1" xmlns="http://www.w3.org/2000/svg" xmlns:xlink="http://www.w3.org/1999/xlink" x="0px" y="0px" width="64px"
	 height="64px" viewBox="0 0 64 64" enable-background="new 0 0 64 64" xml:space="preserve">
<g>
	<polygon fill="#231F20" points="7.252,50.751 7.252,48.751 29.252,48.751 29.252,50.751 	"/>
	<polygon fill="#231F20" points="7.252,55.001 7.252,53.001 11.253,53.001 11.253,55.001 	"/>
	<polygon fill="#231F20" points="0,64 0,6.998 14,6.998 14,9 1.999,8.998 1.999,61.998 44,61.998 44,9 32,9 32,6.998 46,6.998 
		46,64 	"/>
	<path id="_x3C_Trazado_x3E_" fill="#231F20" d="M11.719,14L14.22,4h3.781V0H28v4h3.777l2.505,10H11.719L11.719,14z M30.188,6
		h-4.189V1.998H20V6h-4.22l-1.5,6l0,0h17.439l-1.5-6H27"/>
	<g>
		<path fill="#231F20" d="M47.4,60.994c7.851-0.035,14.017-6.537,13.595-14.379c-0.118-2.188-0.767-4.246-1.914-6.121
			c-0.356-0.582-0.334-0.975,0.265-1.322c0.172-0.1,0.316-0.25,0.461-0.391c1.125-1.1,1.125-1.1,1.916,0.242
			c6.1,10.348-0.701,23.68-12.695,24.891c-9.006,0.908-17.036-5.449-18.167-14.41c-0.073-0.58-0.313-0.887-0.815-1.141
			c-2.273-1.146-3.188-3.205-3.542-5.564c-0.085-0.564-0.151-1.123-0.329-1.666c-0.702-2.148-1.44-4.285-2.098-6.445
			c-1.101-3.622,0.831-6.71,4.544-7.334c0.661-0.111,1.294-0.054,1.733,0.547c0.391,0.535,0.482,1.114,0.142,1.707
			c-0.373,0.65-0.975,0.94-1.7,0.875c-0.752-0.068-1.487-0.399-2.072,0.474c-0.618,0.924-0.764,1.853-0.396,2.875
			c1,2.787,1.684,5.69,3.158,8.303c0.378,0.668,0.398,1.496,0.799,2.177c0.409,0.692,0.867,1.299,1.794,1.254
			c0.861-0.043,1.381-0.603,1.66-1.299c1.31-3.273,2.857-6.449,3.955-9.806c0.343-1.045,0.44-2.106-0.107-3.143
			c-0.404-0.763-0.867-1.196-1.852-0.903c-0.987,0.294-1.854-0.247-2.086-1.098c-0.224-0.815,0.354-1.767,1.248-2.032
			c0.188-0.056,0.4-0.086,0.595-0.064c2.182,0.243,4.679,2.721,4.931,4.89c0.114,0.996-0.113,1.949-0.428,2.879
			c-0.572,1.692-1.178,3.377-1.758,5.067c-0.37,1.08-0.693,2.16-0.881,3.308c-0.321,1.983-1.18,3.741-3.021,4.805
			c-0.613,0.354-0.568,0.853-0.484,1.396C34.889,56.18,40.633,61.023,47.4,60.994z"/>
		<path fill="#231F20" d="M60.132,34.672c0.013,2.488-1.946,4.498-4.366,4.484c-2.402-0.014-4.453-2.088-4.434-4.48
			c0.021-2.388,1.999-4.32,4.43-4.323C58.234,30.349,60.121,32.213,60.132,34.672z"/>
	</g>
	<polygon fill="#231F20" points="7.252,46.605 7.252,44.605 11.253,44.605 11.253,46.605 	"/>
	<polygon fill="#231F20" points="7.252,42.876 7.252,40.876 25,40.876 25,42.876 	"/>
	<polygon fill="#231F20" points="7.252,38.473 7.252,36.473 11.253,36.473 11.253,38.473 	"/>
	<polygon fill="#231F20" points="7.252,34.741 7.252,32.741 23.001,32.741 23.001,34.741 	"/>
	<polygon fill="#231F20" points="7.252,30.876 7.252,28.876 11.253,28.876 11.253,30.876 	"/>
	<polygon fill="#231F20" points="7.252,27.146 7.252,25.146 25,25.146 25,27.146 	"/>
	<polygon fill="#231F20" points="7.252,20.251 7.252,18.251 29.252,18.251 29.252,20.251 	"/>
	<polygon fill="#231F20" points="7.252,23.501 7.252,21.501 11.253,21.501 11.253,23.501 	"/>
</g>
</svg>
