<?xml version="1.0" encoding="utf-8"?>
<!-- Generator: Adobe Illustrator 16.0.0, SVG Export Plug-In . SVG Version: 6.00 Build 0)  -->
<!DOCTYPE svg PUBLIC "-//W3C//DTD SVG 1.1//EN" "http://www.w3.org/Graphics/SVG/1.1/DTD/svg11.dtd">
<svg version="1.1" xmlns="http://www.w3.org/2000/svg" xmlns:xlink="http://www.w3.org/1999/xlink" x="0px" y="0px" width="64px"
	 height="64px" viewBox="0 0 64 64" enable-background="new 0 0 64 64" xml:space="preserve">
<g>
	<path fill-rule="evenodd" clip-rule="evenodd" fill="#231F20" d="M7.452,19.633c0-1.679,0-3.257,0-4.896
		c-0.606-0.058-1.148-0.109-1.76-0.167c0-2.469,0-4.901,0-7.41c7.511,0,14.987,0,22.567,0c0,2.416,0,4.843,0,7.391
		c-0.555,0.057-1.132,0.116-1.798,0.183c0,1.637,0,3.25,0,4.596c1.532,0.833,3.075,1.437,4.331,2.409
		c2.131,1.65,3.039,4.005,3.048,6.691c0.01,3.185,0.004,6.369,0.004,9.687c0.396-0.087,0.701-0.152,1.009-0.222
		c2.921-0.679,5.456,0.614,6.548,3.42c0.561,1.44,1.067,2.909,1.465,4.401c0.308,1.15,0.798,1.626,2.094,1.85
		c4.021,0.691,7.995,1.667,11.987,2.538c0.924,0.2,1.854,0.384,2.766,0.631c3.116,0.848,4.806,3.581,4.098,6.588
		c-0.673,2.846-3.535,4.571-6.601,3.931c-3.199-0.67-6.386-1.39-9.58-2.086c-0.456-0.098-0.918-0.169-1.431-0.264
		c-0.674,1.624-1.717,2.829-3.342,3.439c-2.599,0.972-5.567-0.22-6.702-2.813c-0.671-1.531-1.121-3.156-1.675-4.736
		c-0.135-0.389-0.286-0.77-0.398-1.077c-0.294,1.61-0.334,3.331-0.932,4.831c-1.372,3.441-4.114,5.292-7.806,5.365
		c-5.596,0.11-11.199,0.12-16.795,0c-4.933-0.108-8.41-3.752-8.465-8.914c-0.094-8.826-0.046-17.655-0.017-26.485
		C0.081,24.787,1.996,20.935,7.452,19.633z M11.006,16.462c0,1.479,0.022,2.891-0.006,4.301c-0.033,1.678-0.572,2.211-2.251,2.316
		c-3.273,0.203-5.183,2.187-5.191,5.512C3.535,37.37,3.535,46.15,3.556,54.93c0.008,3.408,2.024,5.528,5.417,5.57
		c5.335,0.069,10.674,0.07,16.01,0c3.311-0.044,5.413-2.166,5.429-5.469c0.045-8.823,0.041-17.646,0.002-26.469
		c-0.014-3.278-2.007-5.276-5.264-5.484c-1.673-0.106-2.18-0.64-2.193-2.345c-0.011-1.406-0.002-2.815-0.002-4.271
		C18.916,16.462,15.024,16.462,11.006,16.462z M35.074,51.376c0.83,2.493,1.557,4.869,2.418,7.197
		c0.724,1.95,2.695,2.866,4.59,2.292c1.917-0.581,3.105-2.431,2.57-4.428c-0.663-2.477-1.557-4.888-2.385-7.432
		C39.852,49.801,37.542,50.563,35.074,51.376z M52.072,50.709c-2.708-0.577-5.265-1.121-7.992-1.7
		c0.845,2.836,1.595,5.378,2.368,7.914c0.049,0.159,0.271,0.337,0.443,0.379c1.155,0.278,2.32,0.521,3.583,0.798
		C51.019,55.585,51.531,53.214,52.072,50.709z"/>
	<path fill-rule="evenodd" clip-rule="evenodd" fill="#231F20" d="M13.469,38.358c0-1.665,0-3.12,0-4.656c2.335,0,4.589,0,6.99,0
		c0,1.536,0,3.021,0,4.612c1.632,0,3.124,0,4.715,0c0,2.361,0,4.616,0,7.016c-1.475,0-2.959,0-4.624,0c0,1.656,0,3.176,0,4.788
		c-2.438,0-4.695,0-7.112,0c0-1.546,0-3.069,0-4.729c-1.64,0-3.126,0-4.676,0c0-2.367,0-4.592,0-7.031
		C10.295,38.358,11.847,38.358,13.469,38.358z"/>
</g>
</svg>
