<?xml version="1.0" encoding="utf-8"?>
<!-- Generator: Adobe Illustrator 16.0.0, SVG Export Plug-In . SVG Version: 6.00 Build 0)  -->
<!DOCTYPE svg PUBLIC "-//W3C//DTD SVG 1.1//EN" "http://www.w3.org/Graphics/SVG/1.1/DTD/svg11.dtd">
<svg version="1.1" xmlns="http://www.w3.org/2000/svg" xmlns:xlink="http://www.w3.org/1999/xlink" x="0px" y="0px" width="64px"
	 height="64px" viewBox="0 0 64 64" enable-background="new 0 0 64 64" xml:space="preserve">
<g>
	<g>
		<g>
			<path fill="#231F20" d="M59.364,1L59.364,1c0.192,0,0.396,0.021,0.609,0.061c0.997,0.188,1.884,0.783,2.434,1.635
				c0.472,0.731,0.629,1.553,0.443,2.314c-0.128,0.526-0.396,1.023-0.718,1.331c-6.185,5.923-12.5,11.916-18.606,17.712
				l-2.355,2.235l-0.113-0.118l-3.408-3.537c6.62-6.932,13.238-13.859,19.861-20.791C58.05,1.276,58.656,1,59.364,1 M59.363,0
				c-1.047,0-1.893,0.434-2.577,1.154c-6.741,7.056-13.48,14.109-20.221,21.167c-0.122,0.127-0.228,0.266-0.285,0.334
				c1.625,1.685,3.221,3.342,4.832,5.015c0.121-0.091,0.223-0.157,0.311-0.241c7.142-6.779,14.288-13.553,21.401-20.365
				c0.479-0.457,0.832-1.134,0.998-1.817c0.556-2.279-1.175-4.701-3.664-5.168C59.881,0.025,59.616,0,59.363,0L59.363,0z"/>
		</g>
		<g>
			<path fill="#231F20" d="M35.804,25.096l1.44,1.46l1.072,1.087c-0.258,0.251-0.517,0.504-0.777,0.759l-1.24,1.212l-0.133,0.133
				c-0.049,0.05-0.097,0.102-0.165,0.159l-0.12,0.103c-0.569,0.485-1.637,1.396-1.232,2.855c-2.006,0.781-4.039,1.583-6.063,2.383
				c-1.413,0.558-2.821,1.113-4.214,1.659c3.482-3.619,7.017-7.261,10.447-10.796L35.804,25.096 M35.815,23.683
				c-0.091,0.083-0.208,0.181-0.317,0.292c-4.343,4.476-8.691,8.949-13.011,13.448c-0.274,0.286-0.4,1.1-0.549,1.505h0
				c4.571-1.77,9.417-3.717,14.08-5.522c-1.016-1.457-0.139-2.074,0.636-2.742c0.119-0.099,0.227-0.22,0.341-0.331
				c0.925-0.906,1.851-1.807,2.737-2.677C38.405,26.312,37.125,25.009,35.815,23.683L35.815,23.683z M21.922,38.916
				c0,0,0.004,0.004,0.017,0.013l0,0C21.93,38.922,21.922,38.916,21.922,38.916L21.922,38.916z M21.938,38.929
				c0.014,0.01,0.019,0.014,0.019,0.014C21.958,38.942,21.948,38.936,21.938,38.929L21.938,38.929z"/>
		</g>
	</g>
	<g>
		<path fill="#231F20" d="M16.733,26.435c0.022,0.021,0.048,0.049,0.077,0.083c0.283,0.332,0.654,0.579,0.981,0.797
			c0.213,0.142,0.61,0.407,0.657,0.522c0,0.001,0,0.139-0.227,0.457c-1.149,1.614-2.408,3.581-3.032,5.938
			c-0.022,0.083-0.055,0.174-0.088,0.27c-0.175,0.502-0.44,1.26-0.034,1.985c0.262,0.47,0.729,0.78,1.387,0.924
			c6.055,1.328,8.312,5.832,9.839,12.186c0.811,3.371,0.683,6.481-0.378,9.245c-1.075,2.801-3.015,4.162-5.931,4.162
			c-0.199,0-0.403-0.006-0.611-0.019c-7.842-0.466-16.833-9.172-17.49-16.938c-0.176-2.094,0.278-3.796,1.313-4.922
			c0.989-1.076,2.536-1.646,4.474-1.646c0.256,0,0.522,0.01,0.793,0.03c0.472,0.158,0.893,0.236,1.283,0.236
			c2.28,0,2.547-2.471,2.635-3.283c0.354-3.295,1.621-6.387,3.874-9.454C16.491,26.687,16.64,26.52,16.733,26.435 M16.742,25.378
			c-0.482,0-0.898,0.5-1.293,1.039c-2.188,2.978-3.668,6.269-4.062,9.939c-0.164,1.514-0.587,2.39-1.641,2.39
			c-0.303,0-0.659-0.073-1.076-0.224c-0.344-0.028-0.677-0.043-1-0.043c-4.625,0-7.183,2.894-6.783,7.651
			c0.702,8.29,10.055,17.354,18.427,17.852c0.228,0.014,0.451,0.021,0.67,0.021c3.33,0,5.627-1.577,6.865-4.804
			c1.237-3.221,1.197-6.594,0.417-9.837c-1.43-5.948-3.658-11.406-10.597-12.929c-1.317-0.288-0.681-1.304-0.512-1.948
			c0.547-2.067,1.642-3.874,2.879-5.611c1.275-1.794-0.751-2.167-1.465-3.004C17.271,25.519,16.998,25.378,16.742,25.378
			L16.742,25.378z"/>
	</g>
	<path fill="#231F20" d="M9.747,41.277c-0.244,0.123-0.636,0.254-0.932,0.499c-1.77,1.489-2.163,9.341-0.564,10.995
		c0.444,0.453,0.961,0.765,1.615,0.502c0.802-0.326,1.006-0.999,0.757-1.744c-0.938-2.826-0.595-5.562,0.426-8.291
		C11.435,42.209,11.115,41.455,9.747,41.277z"/>
	<g>
		<path fill="#231F20" d="M21.279,30.751c0.05,0.016,0.17,0.066,0.376,0.231c0.993,0.792,1.053,0.981,0.534,1.686
			c-0.735,1.004-1.272,2.199-1.631,3.635c-0.157-0.07-0.312-0.139-0.465-0.205c-0.956-0.422-1.859-0.818-2.776-1.193
			c-0.032-0.012-0.061-0.023-0.086-0.035c0.019,0.002,0.038,0.004,0.057,0.006c0.11,0.012,0.214,0.018,0.313,0.018
			c1.56,0,2.021-1.225,2.326-2.033c0.147-0.391,0.286-0.759,0.491-0.951c0.236-0.223,0.407-0.494,0.558-0.733
			C21.061,31.041,21.197,30.826,21.279,30.751 M21.255,29.994c-0.649,0-0.877,0.922-1.351,1.368c-0.891,0.835-0.648,2.78-2.303,2.78
			c-0.076,0-0.155-0.004-0.239-0.014c-0.24-0.023-0.438-0.074-0.599-0.074c-0.218,0-0.371,0.094-0.469,0.469
			c-0.166,0.633,0.223,0.871,0.746,1.078c1.296,0.529,2.572,1.109,4.057,1.754c0.296-1.592,0.815-3.039,1.698-4.246
			c0.971-1.317,0.263-1.968-0.671-2.714C21.763,30.108,21.483,29.994,21.255,29.994L21.255,29.994z"/>
	</g>
</g>
</svg>
