<?xml version="1.0" encoding="utf-8"?>
<!-- Generator: Adobe Illustrator 16.0.0, SVG Export Plug-In . SVG Version: 6.00 Build 0)  -->
<!DOCTYPE svg PUBLIC "-//W3C//DTD SVG 1.1//EN" "http://www.w3.org/Graphics/SVG/1.1/DTD/svg11.dtd">
<svg version="1.1" xmlns="http://www.w3.org/2000/svg" xmlns:xlink="http://www.w3.org/1999/xlink" x="0px" y="0px" width="64px"
	 height="64px" viewBox="0 0 64 64" enable-background="new 0 0 64 64" xml:space="preserve">
<g>
	<g>
		<path fill="#231F20" d="M46.468,2c0.653,0.075,1.429,0.299,2.195,0.636c2.41,1.059,3.876,2.816,4.48,5.369
			c0.364,1.553,1.228,2.417,2.8,2.805c4.493,1.104,6.441,5.163,5.994,8.421c-0.592,4.33-3.614,7.126-7.7,7.126
			c-0.19,0-0.382-0.006-0.578-0.019c-0.905-0.057-1.893-0.366-3.035-0.725c-0.616-0.193-1.253-0.393-1.95-0.577l-1.102-0.291
			l-0.813,0.8c-0.49,0.483-1.007,0.986-1.541,1.506c-1.354,1.32-2.89,2.817-4.357,4.333c-0.494,0.51-0.894,0.69-1.526,0.69
			l-0.117-0.002c-0.85-0.029-1.776-0.043-2.916-0.043c-0.592,0-1.184,0.003-1.775,0.007c-0.584,0.004-1.168,0.007-1.751,0.007
			c-0.286,0-0.57-0.001-0.856-0.003l-0.011-1.311c-0.019-1.964-0.038-3.994,0.047-5.962c0.01-0.232,0.17-0.654,0.393-0.914
			c1.558-1.814,3.233-3.609,4.852-5.346l0.763-0.819c1.111-1.194,1.301-2.501,0.563-3.889c-1.298-2.431-1.346-5.18-0.132-7.542
			c1.166-2.268,3.298-3.817,5.698-4.148l0.026,0c0.156-0.003,0.392-0.008,0.666-0.065c0.284-0.004,0.546-0.013,0.808-0.023
			C45.873,2.013,46.152,2.002,46.468,2 M46.568,0c-0.76,0-1.316,0.047-2.076,0.048c-0.167,0.085-0.428,0.051-0.604,0.073
			c-6.347,0.836-10.609,8.1-7.127,14.623c0.383,0.72,0.197,1.09-0.263,1.584c-1.912,2.055-3.841,4.098-5.668,6.225
			c-0.481,0.559-0.843,1.403-0.874,2.132c-0.107,2.469-0.054,4.946-0.037,7.42c0.01,1.554,0.382,1.925,1.95,1.937
			c0.302,0.002,0.603,0.003,0.905,0.003c1.175,0,2.351-0.014,3.526-0.014c0.949,0,1.898,0.009,2.847,0.042
			c0.063,0.002,0.125,0.003,0.187,0.003c1.205,0,2.111-0.419,2.963-1.299c2.011-2.077,4.104-4.072,5.865-5.806
			c2.009,0.531,3.671,1.257,5.37,1.364c0.237,0.015,0.472,0.022,0.704,0.022c5.059,0,8.957-3.553,9.682-8.855
			c0.565-4.118-1.833-9.242-7.498-10.635c-0.821-0.202-1.136-0.491-1.33-1.319c-0.748-3.156-2.644-5.434-5.623-6.743
			C48.573,0.412,47.553,0.094,46.568,0L46.568,0z"/>
	</g>
	<g>
		<path fill="#231F20" d="M23.704,32.135L23.704,32.135c0.024,0.011,0.041,0.019,0.049,0.021c0.015,0.045,0.045,0.167,0.041,0.415
			c-0.019,1.265-0.015,2.513-0.011,3.835c0.002,0.57,0.004,1.152,0.004,1.75v2h2c0.522,0,1.032,0.002,1.532,0.004
			c0.488,0.002,0.968,0.003,1.442,0.003c0.676,0,1.341-0.003,2.008-0.015l0.258-0.003c0.427,0,0.604,0.033,0.673,0.054
			c0.01,0.017,0.022,0.042,0.038,0.077c0.009,0.022,0.016,0.04,0.021,0.054c-0.075,0.124-0.284,0.344-0.625,0.656
			c-1.454,1.334-2.905,2.624-4.185,3.762l-1.267,1.128l-0.851,0.762l0.222,1.119c0.204,1.026,0.421,1.947,0.613,2.76
			c0.36,1.523,0.644,2.727,0.671,3.854c0.096,3.927-2.951,7.116-7.245,7.584c-0.269,0.029-0.543,0.044-0.814,0.044
			c-3.455,0-6.463-2.284-7.317-5.553c-0.488-1.876-1.513-2.912-3.43-3.464c-2.945-0.849-4.719-2.805-5.417-5.943
			C2.105,46.982,2.1,46.917,2.094,46.85c-0.019-0.206-0.041-0.443-0.093-0.693c0.001-0.238,0.005-0.434,0.009-0.629
			c0.004-0.218,0.008-0.436,0.01-0.703c0.056-0.27,0.071-0.516,0.084-0.715C2.108,44.054,2.11,44,2.11,43.987
			c0.723-3.759,3.988-6.486,7.763-6.486c1.229,0,2.43,0.285,3.571,0.851c0.701,0.347,1.309,0.508,1.913,0.508
			c1.292,0,2.155-0.738,2.691-1.292c1.005-1.036,2.085-2.063,3.129-3.055c0.724-0.688,1.447-1.375,2.159-2.076
			C23.525,32.25,23.645,32.168,23.704,32.135 M23.687,30.121c-0.654,0-1.221,0.364-1.756,0.891c-1.76,1.734-3.6,3.39-5.319,5.163
			c-0.445,0.46-0.815,0.685-1.255,0.685c-0.296,0-0.624-0.102-1.027-0.301c-1.458-0.723-2.976-1.059-4.457-1.058
			c-4.572,0-8.783,3.202-9.726,8.108c-0.052,0.269-0.026,0.695-0.125,0.953C0.021,45.324,0,45.654,0,46.416
			c0.101,0.255,0.094,0.756,0.154,1.02c0.844,3.801,3.075,6.389,6.823,7.469c1.19,0.343,1.731,0.826,2.048,2.045
			c1.122,4.299,5.068,7.05,9.252,7.05c0.342,0,0.687-0.019,1.031-0.056c5.346-0.582,9.15-4.612,9.028-9.621
			c-0.049-2.016-0.738-4.014-1.322-6.955c1.438-1.286,3.474-3.076,5.47-4.907c0.849-0.776,1.661-1.614,1.097-2.957
			c-0.508-1.208-1.48-1.357-2.555-1.357c-0.097,0-0.196,0.001-0.294,0.003c-0.654,0.012-1.308,0.015-1.972,0.015
			c-0.961,0-1.943-0.007-2.974-0.007c0-1.967-0.02-3.762,0.007-5.555c0.017-1.051-0.313-1.889-1.313-2.31
			C24.201,30.174,23.938,30.121,23.687,30.121L23.687,30.121z"/>
	</g>
	<path fill="none" stroke="#231F20" stroke-miterlimit="10" d="M17.804,30.575c-0.251,1.09-1.338,1.771-2.428,1.519L4.34,29.553
		c-1.09-0.251-1.771-1.338-1.519-2.428l0,0c0.251-1.09,1.338-1.771,2.428-1.519l11.035,2.541
		C17.375,28.397,18.055,29.484,17.804,30.575L17.804,30.575z"/>
	<path fill="none" stroke="#231F20" stroke-miterlimit="10" d="M22.504,25.457c-0.725,0.853-2.003,0.956-2.855,0.229l-8.624-7.339
		c-0.852-0.725-0.955-2.002-0.229-2.855l0,0c0.725-0.852,2.002-0.955,2.855-0.229l8.624,7.338
		C23.126,23.327,23.229,24.604,22.504,25.457L22.504,25.457z"/>
	<path fill="none" stroke="#231F20" stroke-miterlimit="10" d="M27.264,21.598c-1.091,0.247-2.176-0.438-2.422-1.53L22.344,9.023
		c-0.247-1.091,0.438-2.175,1.529-2.422l0,0c1.091-0.247,2.175,0.437,2.421,1.529l2.5,11.045
		C29.04,20.266,28.355,21.351,27.264,21.598L27.264,21.598z"/>
	<path fill="none" stroke="#231F20" stroke-miterlimit="10" d="M44.949,34.248c0.251-1.092,1.338-1.772,2.429-1.52l11.035,2.541
		c1.09,0.25,1.771,1.338,1.519,2.428l0,0c-0.25,1.09-1.338,1.771-2.429,1.52l-11.035-2.541
		C45.378,36.424,44.698,35.338,44.949,34.248L44.949,34.248z"/>
	<path fill="none" stroke="#231F20" stroke-miterlimit="10" d="M40.249,39.365c0.726-0.852,2.003-0.955,2.854-0.229l8.623,7.339
		c0.854,0.725,0.955,2.002,0.229,2.854l0,0c-0.726,0.853-2.003,0.955-2.854,0.229l-8.625-7.338
		C39.626,41.496,39.523,40.217,40.249,39.365L40.249,39.365z"/>
	<path fill="none" stroke="#231F20" stroke-miterlimit="10" d="M35.488,43.225c1.092-0.246,2.177,0.438,2.423,1.53l2.498,11.044
		c0.247,1.092-0.438,2.176-1.529,2.422l0,0c-1.091,0.247-2.176-0.438-2.421-1.529L33.96,45.646
		C33.713,44.557,34.396,43.471,35.488,43.225L35.488,43.225z"/>
</g>
</svg>
