<?xml version="1.0" encoding="utf-8"?>
<!-- Generator: Adobe Illustrator 16.0.0, SVG Export Plug-In . SVG Version: 6.00 Build 0)  -->
<!DOCTYPE svg PUBLIC "-//W3C//DTD SVG 1.1//EN" "http://www.w3.org/Graphics/SVG/1.1/DTD/svg11.dtd">
<svg version="1.1" xmlns="http://www.w3.org/2000/svg" xmlns:xlink="http://www.w3.org/1999/xlink" x="0px" y="0px" width="64px"
	 height="64px" viewBox="0 0 64 64" enable-background="new 0 0 64 64" xml:space="preserve">
<g>
	<path fill-rule="evenodd" clip-rule="evenodd" fill="#231F20" d="M36.225,31.879c0-2.984,0-5.721,0-8.557
		c-5.254,0-10.286,0-15.486,0c0,1.808,0,3.583,0,5.55c-0.695,0.046-1.235,0.112-1.776,0.113c-2.993,0.01-5.995,0.172-8.977-0.033
		c-4.845-0.333-8.314,1.6-9.986,6.95c0,5.132,0,10.263,0,15.395c1.683,5.344,5.148,7.148,9.999,6.965
		c6.395-0.24,12.802-0.059,19.204-0.059c0.55,0,1.1,0,1.784,0c0,1.978,0,3.754,0,5.797c5.213-2.941,10.22-5.766,15.494-8.741
		c-5.26-2.964-10.28-5.794-15.567-8.772c0,2.213,0,3.992,0,5.85c-7.83,0-15.517,0.025-23.204-0.021
		c-1.58-0.009-2.488-1.198-2.508-3.094c-0.036-3.613-0.026-7.227-0.008-10.84c0.013-2.58,0.888-3.52,3.235-3.525
		c3.149-0.01,6.299-0.003,9.448-0.003c0.904,0,1.808,0,2.835,0c0,2.063,0,3.852,0,5.71c5.204,0,10.272,0,15.541,0
		C36.253,37.68,36.225,34.811,36.225,31.879L36.225,31.879z M30.86,34.71c-1.573,0-3.229,0-4.974,0c0-1.822,0-3.604,0-5.615
		c1.689,0,3.265,0,4.974,0C30.86,30.912,30.86,32.738,30.86,34.71z"/>
	<path fill-rule="evenodd" clip-rule="evenodd" fill="#231F20" d="M55.104,5.788C43.182,6.011,31.253,5.855,19.327,5.855
		c-0.597,0-1.193,0-1.872,0c0-2.132,0-3.994,0-5.855C12.289,0,7.123,0,1.958,0c0,5.831,0,11.661,0,17.492c5.1,0,10.2,0,15.453,0
		c0-1.951,0-3.787,0-5.861c0.699,0,1.248,0,1.796,0c11.972,0,23.944-0.002,35.917,0.001c2.887,0,3.623,0.852,3.626,4.17
		c0.004,3.087,0.004,6.174,0,9.262c-0.004,3.296-0.726,4.089-3.686,4.055c-0.404-0.004-0.809-0.044-1.427-0.081
		c0-0.964,0-1.873,0-2.782c0-0.862,0-1.726,0-2.932c-5.023,2.824-9.857,5.908-14.924,8.755l0,0
		c5.041,2.833,9.884,5.893,14.983,8.758c0-2.194,0-3.968,0-5.854c0.775,0,1.388,0.004,1.999,0c4.983-0.041,8.148-3.672,8.246-9.317
		c0.057-3.263,0.059-6.542,0.037-9.789C63.941,10.298,60.837,5.681,55.104,5.788z M12.164,11.541c-1.685,0-3.255,0-4.921,0
		c0-1.858,0-3.63,0-5.544c1.611,0,3.217,0,4.921,0C12.164,7.805,12.164,9.577,12.164,11.541z"/>
	<path fill-rule="evenodd" clip-rule="evenodd" fill="#231F20" d="M64,46.745C64,52.51,64,58.196,64,64c-5.117,0-10.191,0-15.376,0
		c0-5.76,0-11.446,0-17.255C53.767,46.745,58.845,46.745,64,46.745z M53.87,58.189c1.703,0,3.306,0,4.89,0c0-1.973,0-3.792,0-5.606
		c-1.698,0-3.271,0-4.89,0C53.87,54.505,53.87,56.328,53.87,58.189z"/>
	<rect x="4.625" y="3.625" fill-rule="evenodd" clip-rule="evenodd" fill="#FFFFFF" width="9.938" height="10.063"/>
	<g>
		<path fill="#231F20" d="M9.672,11.514c1.458-0.006,2.603-1.214,2.524-2.67c-0.022-0.407-0.143-0.789-0.355-1.137
			c-0.066-0.107-0.062-0.181,0.049-0.245c0.032-0.019,0.059-0.046,0.085-0.072c0.209-0.205,0.209-0.205,0.356,0.044
			c1.133,1.922-0.13,4.397-2.357,4.622c-1.672,0.169-3.164-1.012-3.374-2.675C6.587,9.272,6.542,9.215,6.449,9.168
			C6.027,8.956,5.857,8.573,5.792,8.135C5.776,8.03,5.764,7.926,5.73,7.825C5.6,7.427,5.463,7.03,5.341,6.629
			C5.136,5.956,5.495,5.383,6.185,5.267c0.123-0.021,0.24-0.01,0.322,0.102c0.073,0.099,0.089,0.207,0.026,0.317
			c-0.069,0.12-0.181,0.174-0.315,0.162c-0.14-0.012-0.276-0.074-0.385,0.088C5.717,6.107,5.69,6.28,5.759,6.47
			c0.186,0.518,0.313,1.056,0.586,1.542c0.07,0.124,0.074,0.277,0.148,0.404C6.57,8.544,6.654,8.657,6.827,8.648
			c0.16-0.008,0.256-0.112,0.309-0.241C7.378,7.8,7.666,7.209,7.87,6.586c0.063-0.194,0.082-0.391-0.02-0.583
			C7.774,5.861,7.688,5.781,7.506,5.835C7.322,5.89,7.162,5.789,7.118,5.631C7.077,5.479,7.184,5.303,7.35,5.254
			c0.035-0.01,0.075-0.016,0.11-0.012C7.866,5.287,8.33,5.747,8.376,6.15c0.021,0.185-0.021,0.362-0.08,0.535
			C8.19,6.999,8.078,7.312,7.97,7.626C7.902,7.827,7.842,8.027,7.807,8.24c-0.06,0.369-0.219,0.695-0.561,0.893
			C7.132,9.198,7.14,9.291,7.156,9.391C7.349,10.62,8.416,11.52,9.672,11.514z"/>
		<path fill="#231F20" d="M12.036,6.626c0.002,0.462-0.361,0.835-0.811,0.833c-0.446-0.003-0.827-0.388-0.823-0.833
			c0.004-0.443,0.371-0.802,0.823-0.803C11.684,5.823,12.035,6.169,12.036,6.626z"/>
	</g>
	<rect x="23.24" y="26.969" fill-rule="evenodd" clip-rule="evenodd" fill="#FFFFFF" width="9.938" height="10.063"/>
	<g>
		<path fill="none" d="M27.086,31.997C27.086,31.998,27.086,31.998,27.086,31.997c-0.027-0.083-0.071-0.179-0.098-0.264
			c-0.558,0.18-1.087,0.35-1.646,0.53c-0.011,0.003-0.021,0.007-0.031,0.01c0.194,0.583,0.364,1.138,0.565,1.683
			c0.169,0.455,0.63,0.67,1.073,0.536c0.448-0.137,0.726-0.568,0.601-1.036C27.42,32.969,27.252,32.491,27.086,31.997z"/>
		<path fill="none" d="M27.971,33.57c0.011,0.037,0.063,0.078,0.103,0.088c0.271,0.065,0.543,0.122,0.838,0.188
			c0.128-0.589,0.247-1.143,0.374-1.729c-0.634-0.135-1.231-0.262-1.869-0.397C27.615,32.383,27.79,32.977,27.971,33.57z"/>
		<path fill="#231F20" d="M31.072,32.123c-0.213-0.058-0.43-0.101-0.646-0.148c-0.933-0.203-1.863-0.431-2.803-0.593
			c-0.243-0.042-0.364-0.124-0.44-0.292c-0.03-0.091-0.06-0.184-0.09-0.275c-0.065-0.229-0.141-0.455-0.224-0.678
			c-0.02-0.061-0.04-0.122-0.063-0.181c-0.003-0.008-0.008-0.016-0.012-0.023c-0.001-0.004-0.002-0.008-0.004-0.012
			c-0.166-0.425-0.475-0.699-0.857-0.798c-0.018-0.005-0.038-0.007-0.056-0.011c-0.053-0.011-0.107-0.021-0.163-0.025
			c-0.034-0.002-0.068-0.001-0.103-0.001c-0.052,0-0.104,0.001-0.157,0.007c-0.016,0.002-0.031,0.004-0.046,0.007
			c-0.05,0.006-0.099,0.011-0.15,0.022c-0.026,0.006-0.054,0.013-0.083,0.019c0,0.005,0,0.011,0,0.016
			c-0.645,0.223-0.98,0.927-0.761,1.625c0.194,0.616,0.549,1.656,0.761,2.302c0,0.002,0,0.003,0,0.004
			c0.127,0.365,0.232,0.74,0.387,1.094c0.266,0.605,0.959,0.885,1.567,0.657c0.38-0.143,0.624-0.424,0.781-0.804
			c0.12,0.021,0.228,0.039,0.334,0.061c0.747,0.164,1.493,0.333,2.24,0.489c0.716,0.149,1.386-0.254,1.543-0.92
			C32.196,32.961,31.801,32.321,31.072,32.123z M26.95,34.492c-0.443,0.134-0.904-0.081-1.073-0.536
			c-0.201-0.545-0.371-1.101-0.565-1.683c0.011-0.003,0.021-0.007,0.031-0.01c0.559-0.18,1.087-0.35,1.646-0.53
			c0.027,0.085,0.071,0.181,0.098,0.265c0,0,0,0,0,0c0.166,0.494,0.334,0.972,0.464,1.459C27.676,33.924,27.398,34.355,26.95,34.492
			z M28.912,33.846c-0.295-0.065-0.567-0.122-0.838-0.188c-0.04-0.01-0.092-0.051-0.103-0.088c-0.181-0.594-0.356-1.188-0.554-1.851
			c0.637,0.135,1.235,0.262,1.869,0.397C29.159,32.703,29.04,33.257,28.912,33.846z"/>
	</g>
	<rect x="51.344" y="50.342" fill-rule="evenodd" clip-rule="evenodd" fill="#FFFFFF" width="9.938" height="10.063"/>
	<path fill="#231F20" d="M55.12,54.164c0-0.567,0-1.063,0-1.586c0.795,0,1.563,0,2.38,0c0,0.523,0,1.028,0,1.571
		c0.557,0,1.064,0,1.606,0c0,0.804,0,1.571,0,2.389c-0.503,0-1.008,0-1.574,0c0,0.564,0,1.082,0,1.631c-0.831,0-1.6,0-2.423,0
		c0-0.526,0-1.045,0-1.61c-0.558,0-1.064,0-1.592,0c0-0.807,0-1.564,0-2.395C54.039,54.164,54.567,54.164,55.12,54.164z"/>
</g>
</svg>
