<?xml version="1.0" encoding="utf-8"?>
<!-- Generator: Adobe Illustrator 16.0.0, SVG Export Plug-In . SVG Version: 6.00 Build 0)  -->
<!DOCTYPE svg PUBLIC "-//W3C//DTD SVG 1.1//EN" "http://www.w3.org/Graphics/SVG/1.1/DTD/svg11.dtd">
<svg version="1.1" xmlns="http://www.w3.org/2000/svg" xmlns:xlink="http://www.w3.org/1999/xlink" x="0px" y="0px" width="64px"
	 height="64px" viewBox="0 0 64 64" enable-background="new 0 0 64 64" xml:space="preserve">
<g>
	<path fill-rule="evenodd" clip-rule="evenodd" fill="#231F20" d="M42.736,32.358c-1.496-1.554-2.978-3.093-4.488-4.658
		c0.054-0.063,0.153-0.191,0.266-0.31c6.259-6.554,12.519-13.106,18.78-19.659c0.789-0.83,1.809-1.251,3.133-0.999
		c2.311,0.434,3.919,2.684,3.403,4.8c-0.154,0.634-0.482,1.263-0.928,1.688c-6.606,6.327-13.244,12.618-19.877,18.915
		C42.944,32.212,42.849,32.274,42.736,32.358z"/>
	<path fill-rule="evenodd" clip-rule="evenodd" fill="#231F20" d="M24.928,42.817c0.138-0.377,0.255-1.134,0.51-1.398
		c4.012-4.18,8.051-8.334,12.084-12.491c0.102-0.104,0.211-0.195,0.295-0.272c1.216,1.231,2.406,2.441,3.638,3.69
		c-0.824,0.809-1.683,1.645-2.542,2.487c-0.107,0.103-0.206,0.216-0.317,0.308c-0.719,0.62-1.533,1.193-0.591,2.547
		C33.675,39.364,29.174,41.173,24.928,42.817C24.873,42.776,24.988,42.859,24.928,42.817z"/>
</g>
<g>
	<path fill-rule="evenodd" clip-rule="evenodd" fill="#231F20" d="M8.164,40.171c1.744,0.631,2.344-0.203,2.541-2.026
		c0.368-3.432,1.752-6.51,3.799-9.296c0.565-0.77,1.176-1.458,1.985-0.512c0.667,0.783,2.563,1.132,1.37,2.81
		c-1.157,1.624-2.181,3.315-2.693,5.247c-0.158,0.604-0.753,1.553,0.479,1.823c6.49,1.424,8.574,6.529,9.911,12.092
		c0.729,3.033,0.767,6.188-0.39,9.2c-1.234,3.216-3.593,4.68-7.047,4.473c-7.83-0.465-16.578-8.942-17.234-16.695
		C0.484,42.526,3.251,39.761,8.164,40.171z M12.872,41.229c-0.228,0.115-0.595,0.237-0.872,0.467
		c-1.655,1.392-2.023,8.736-0.528,10.282c0.415,0.425,0.899,0.716,1.511,0.47c0.75-0.305,0.941-0.934,0.708-1.631
		c-0.877-2.643-0.556-5.202,0.399-7.754C14.45,42.1,14.151,41.394,12.872,41.229z M2.04,46.579
		c-0.017,0.955-0.252,1.811,0.557,1.988c1.104,0.24,0.965-0.791,1.157-1.462c0.199-0.708,0.562-1.384,0.667-2.104
		c0.153-1.054,2.5-1.942,0.836-2.854c-1.304-0.713-1.86,1.354-2.494,2.38C2.338,45.219,2.206,46.084,2.04,46.579z"/>
	<path fill-rule="evenodd" clip-rule="evenodd" fill="#231F20" d="M8.599,35.992c0.745-1.27,0.354-2.18,0.163-3.066
		c-0.158-0.735-0.583-1.538,0.512-1.836c0.612-0.166,1.417-0.368,1.896-0.111c0.964,0.518,0.164,1.315-0.027,1.97
		c-0.343,1.169-0.709,2.336-1.141,3.477c-0.385,1.01,0.285,2.729-1.572,2.792c-1.546,0.054-3.237,0.529-4.079-1.724
		c-0.459-1.227-1.63-2.369-2.762-3.122c-1.92-1.279-1.082-2.469-0.208-3.702c1.351-1.899,2.021,0.132,2.812,0.643
		C5.928,32.438,7.043,34.234,8.599,35.992z"/>
	<path fill-rule="evenodd" clip-rule="evenodd" fill="#231F20" d="M20.588,39.08c-1.389-0.604-2.582-1.146-3.794-1.64
		c-0.49-0.195-0.853-0.416-0.698-1.009c0.161-0.613,0.473-0.42,0.999-0.369c1.794,0.18,1.506-1.771,2.377-2.588
		c0.598-0.563,0.777-1.939,2.076-0.904c0.874,0.697,1.536,1.307,0.628,2.539C21.35,36.238,20.865,37.591,20.588,39.08z"/>
	<path fill-rule="evenodd" clip-rule="evenodd" fill="none" d="M12.872,41.229c1.279,0.165,1.578,0.871,1.218,1.834
		c-0.955,2.552-1.276,5.111-0.399,7.754c0.233,0.697,0.042,1.326-0.708,1.631c-0.611,0.246-1.096-0.045-1.511-0.47
		C9.977,50.432,10.345,43.087,12,41.695C12.277,41.466,12.645,41.344,12.872,41.229z"/>
	<path fill-rule="evenodd" clip-rule="evenodd" fill="#FFFFFF" d="M2.04,46.579c0.167-0.495,0.299-1.36,0.722-2.051
		c0.634-1.026,1.19-3.093,2.494-2.38c1.663,0.911-0.684,1.8-0.836,2.854c-0.105,0.72-0.467,1.396-0.667,2.104
		c-0.191,0.671-0.053,1.702-1.157,1.462C1.788,48.39,2.023,47.534,2.04,46.579z"/>
</g>
</svg>
