<?xml version="1.0" encoding="utf-8"?>
<!-- Generator: Adobe Illustrator 16.0.0, SVG Export Plug-In . SVG Version: 6.00 Build 0)  -->
<!DOCTYPE svg PUBLIC "-//W3C//DTD SVG 1.1//EN" "http://www.w3.org/Graphics/SVG/1.1/DTD/svg11.dtd">
<svg version="1.1" xmlns="http://www.w3.org/2000/svg" xmlns:xlink="http://www.w3.org/1999/xlink" x="0px" y="0px" width="64px"
	 height="64px" viewBox="0 0 64 64" enable-background="new 0 0 64 64" xml:space="preserve">
<g>
	<polygon fill="#231F20" points="16.252,50.751 16.252,48.751 38.252,48.751 38.252,50.751 	"/>
	<polygon fill="#231F20" points="16.252,55.001 16.252,53.001 20.253,53.001 20.253,55.001 	"/>
	<polygon fill="#231F20" points="9,64 9,6.998 23,6.998 23,9 10.999,8.998 10.999,61.998 53,61.998 53,9 41,9 41,6.998 55,6.998 
		55,64 	"/>
	<path id="_x3C_Trazado_x3E_" fill="#231F20" d="M20.719,14L23.22,4h3.781V0H37v4h3.777l2.505,10H20.719L20.719,14z M39.188,6
		h-4.189V1.998H29V6h-4.22l-1.5,6l0,0h17.439l-1.5-6H36"/>
	<polygon fill="#231F20" points="16.252,46.606 16.252,44.606 20.253,44.606 20.253,46.606 	"/>
	<polygon fill="#231F20" points="16.252,30.876 16.252,28.876 20.253,28.876 20.253,30.876 	"/>
	<polygon fill="#231F20" points="16.252,27.146 16.252,25.146 34,25.146 34,27.146 	"/>
	<polygon fill="#231F20" points="16.252,20.251 16.252,18.251 38.252,18.251 38.252,20.251 	"/>
	<polygon fill="#231F20" points="16.252,23.501 16.252,21.501 20.253,21.501 20.253,23.501 	"/>
	<path fill-rule="evenodd" clip-rule="evenodd" fill="#231F20" d="M39.485,35.771c-0.385,1.288-0.772,2.574-1.158,3.863
		c-0.282,0.938-0.672,1.235-1.641,1.238c-1.39,0.002-2.777,0.012-4.165-0.009c-0.37-0.004-0.577,0.112-0.755,0.447
		c-0.725,1.356-1.49,2.69-2.225,4.042c-0.266,0.487-0.587,0.845-1.198,0.772c-0.535-0.063-0.934-0.452-1.084-1.098
		c-0.611-2.605-1.214-5.213-1.819-7.818c-0.021-0.089-0.048-0.174-0.102-0.363c-0.119,0.193-0.205,0.303-0.259,0.425
		c-0.413,0.917-0.834,1.832-1.221,2.76c-0.193,0.462-0.509,0.71-0.994,0.711c-2.338,0.008-4.677,0.016-7.015-0.002
		c-0.679-0.005-1.11-0.512-1.101-1.198c0.009-0.698,0.461-1.169,1.195-1.176c1.521-0.016,3.042-0.008,4.563-0.005
		c1.423,0.003,1.42,0.003,1.967-1.305c0.631-1.506,1.264-3.009,1.9-4.514c0.277-0.654,0.742-1.014,1.254-0.99
		c0.532,0.025,1.025,0.514,1.189,1.209c0.636,2.696,1.266,5.395,1.9,8.093c0.034,0.139,0.086,0.273,0.159,0.502
		c0.436-0.78,0.838-1.467,1.206-2.171c0.308-0.59,0.768-0.843,1.427-0.832c1.313,0.019,2.625-0.021,3.937,0.019
		c0.538,0.016,0.788-0.131,0.948-0.677c0.766-2.582,1.582-5.151,2.381-7.725c0.25-0.809,0.686-1.154,1.369-1.087
		c0.574,0.055,0.902,0.457,1.027,1.242c0.646,4.07,1.293,8.139,1.942,12.208c0.013,0.09,0.049,0.175,0.126,0.441
		c0.174-0.447,0.295-0.745,0.405-1.046c0.308-0.836,0.619-1.672,0.918-2.513c0.203-0.572,0.598-0.856,1.201-0.856
		c0.609,0.001,1.219-0.015,1.824,0.002c0.73,0.019,1.198,0.481,1.213,1.165c0.016,0.73-0.434,1.188-1.201,1.225
		c-1.125,0.052-1.125,0.052-1.494,1.106c-0.715,2.044-1.435,4.082-2.138,6.129c-0.194,0.567-0.552,0.901-1.153,0.938
		c-0.643,0.038-1.055-0.331-1.177-1.063c-0.463-2.75-0.918-5.505-1.377-8.258c-0.212-1.27-0.429-2.537-0.645-3.806
		C39.575,35.789,39.531,35.779,39.485,35.771z"/>
</g>
</svg>
