<?xml version="1.0" encoding="utf-8"?>
<!-- Generator: Adobe Illustrator 16.0.0, SVG Export Plug-In . SVG Version: 6.00 Build 0)  -->
<!DOCTYPE svg PUBLIC "-//W3C//DTD SVG 1.1//EN" "http://www.w3.org/Graphics/SVG/1.1/DTD/svg11.dtd">
<svg version="1.1" xmlns="http://www.w3.org/2000/svg" xmlns:xlink="http://www.w3.org/1999/xlink" x="0px" y="0px" width="64px"
	 height="64px" viewBox="0 0 64 64" enable-background="new 0 0 64 64" xml:space="preserve">
<g>
	<g>
		<path fill="#231F20" d="M45.324,2c4.458,0,8.666,1.745,11.849,4.914c5.002,4.971,6.313,12.158,3.483,18.595H47.1l-3.261-6.168
			l-0.064-0.129c-0.345-0.688-1.044-1.105-1.789-1.105c-0.152,0-0.306,0.017-0.46,0.054c-0.724,0.171-1.277,0.723-1.468,1.413
			l-3.485,7.503l-5.02-10.443c-0.335-0.696-1.039-1.133-1.802-1.133c-0.053,0-0.107,0.002-0.161,0.006
			c-0.825,0.066-1.523,0.633-1.758,1.426l-2.738,9.254c-0.371-0.421-0.912-0.678-1.5-0.678H3.449
			C0.62,19.07,1.93,11.884,6.934,6.913C10.116,3.745,14.323,2,18.781,2c4.481,0,8.688,1.763,11.848,4.964
			c0.375,0.381,0.888,0.595,1.423,0.595c0.535,0,1.047-0.214,1.423-0.595C36.635,3.763,40.843,2,45.324,2 M45.324,0
			c-4.808,0-9.611,1.851-13.272,5.56C28.392,1.851,23.589,0,18.781,0C13.993,0,9.2,1.835,5.523,5.496
			c-5.896,5.857-7.177,14.611-3.332,22.014h21.403l1.538,5.6L29.75,17.5l6.854,14.257l5.382-11.587v-0.064l0.064,0.129l3.845,7.274
			h16.021c3.846-7.403,2.562-16.156-3.332-22.014C54.905,1.834,50.113,0,45.324,0L45.324,0z"/>
	</g>
	<g>
		<path fill="#231F20" d="M42.332,33.058c0.295,0.737,1.016,1.259,1.858,1.259h0.067h12.127L38.55,52.15l-6.854,6.854L21.689,48.998
			L7.008,34.316h12.01l4.27,11.688c0.288,0.789,1.039,1.313,1.878,1.313c0.003,0,0.007,0,0.01,0
			c0.843-0.004,1.594-0.537,1.875-1.333l3.618-10.221l3.422,6.053c0.355,0.628,1.021,1.016,1.741,1.016c0.006,0,0.012,0,0.017,0
			c0.728-0.006,1.394-0.406,1.741-1.046L42.332,33.058 M42.366,28.804l-6.533,12.029l-5.583-9.875l-5.083,14.36l-4.75-13.002H2.449
			c0.608,0.743,1.216,1.486,1.891,2.161c9.524,9.523,24.721,24.723,27.355,27.355c2.634-2.633,17.899-17.9,27.356-27.355
			c0.675-0.675,1.351-1.418,1.891-2.161H44.258H44.19v-0.067L42.366,28.804L42.366,28.804z"/>
	</g>
</g>
</svg>
