<?xml version="1.0" encoding="utf-8"?>
<!-- Generator: Adobe Illustrator 16.0.0, SVG Export Plug-In . SVG Version: 6.00 Build 0)  -->
<!DOCTYPE svg PUBLIC "-//W3C//DTD SVG 1.1//EN" "http://www.w3.org/Graphics/SVG/1.1/DTD/svg11.dtd">
<svg version="1.1" xmlns="http://www.w3.org/2000/svg" xmlns:xlink="http://www.w3.org/1999/xlink" x="0px" y="0px" width="64px"
	 height="64px" viewBox="0 0 64 64" enable-background="new 0 0 64 64" xml:space="preserve">
<g>
	<path fill-rule="evenodd" clip-rule="evenodd" fill="#231F20" d="M46.569,0c0.984,0.094,2.004,0.412,2.899,0.805
		c2.979,1.309,4.875,3.587,5.623,6.743c0.194,0.828,0.508,1.117,1.33,1.319c5.665,1.393,8.063,6.517,7.498,10.635
		c-0.758,5.546-4.988,9.178-10.386,8.833c-1.699-0.107-3.361-0.833-5.37-1.364c-1.761,1.734-3.854,3.729-5.865,5.807
		c-0.896,0.924-1.851,1.34-3.149,1.295c-2.424-0.084-4.853-0.012-7.279-0.031c-1.568-0.012-1.94-0.383-1.95-1.937
		c-0.017-2.474-0.07-4.951,0.037-7.42c0.031-0.729,0.393-1.573,0.874-2.132c1.827-2.127,3.756-4.17,5.668-6.225
		c0.46-0.494,0.646-0.864,0.263-1.584c-3.482-6.523,0.78-13.787,7.127-14.623c0.175-0.022,0.436,0.012,0.603-0.073
		C45.252,0.047,45.809,0,46.569,0z M33.807,30.165c1.396,0,2.539-0.071,3.671,0.019c1.182,0.094,2.041-0.275,2.875-1.141
		c1.91-1.984,3.934-3.861,5.911-5.781c1.442-1.4,2.2-1.434,3.801-0.126c1.761,1.439,3.747,1.805,5.879,1.124
		c2.838-0.907,4.581-3.785,4.148-6.688c-0.431-2.899-2.935-5.081-5.927-5.167c-2.057-0.06-2.479-0.555-2.634-2.645
		c-0.068-0.921-0.292-1.896-0.706-2.714c-1.582-3.122-5.605-4.156-8.563-2.288c-3.069,1.938-3.744,6.039-1.477,8.958
		c1.49,1.917,1.473,2.32-0.164,4.1c-2.027,2.204-4.062,4.402-6.071,6.621c-0.306,0.338-0.686,0.766-0.709,1.171
		C33.755,27.063,33.807,28.527,33.807,30.165z"/>
	<path fill-rule="evenodd" clip-rule="evenodd" fill="#231F20" d="M0.021,44.563c0.099-0.259,0.073-0.685,0.125-0.953
		c1.249-6.496,8.222-10.004,14.183-7.052c1.005,0.497,1.539,0.385,2.283-0.383c1.719-1.772,3.559-3.429,5.319-5.163
		c0.74-0.729,1.539-1.145,2.549-0.72c1,0.421,1.33,1.259,1.313,2.309c-0.027,1.794-0.007,3.588-0.007,5.555
		c1.744,0,3.345,0.021,4.946-0.008c1.188-0.021,2.296,0.038,2.849,1.355c0.563,1.343-0.248,2.181-1.097,2.957
		c-1.996,1.831-4.032,3.621-5.47,4.907c0.584,2.942,1.273,4.94,1.322,6.955c0.122,5.009-3.682,9.039-9.028,9.622
		c-4.55,0.496-9.069-2.344-10.283-6.995c-0.317-1.218-0.858-1.702-2.048-2.045c-3.748-1.08-5.979-3.668-6.823-7.469
		C0.094,47.172,0.101,46.671,0,46.416C0,45.654,0.021,45.324,0.021,44.563z M21.885,36.646c-1.648,1.553-2.955,2.796-4.274,4.024
		c-1.51,1.404-2.158,1.416-3.803,0.108c-2.167-1.724-5.057-1.871-7.287-0.371c-2.18,1.466-3.201,4.146-2.516,6.602
		c0.763,2.739,2.985,4.469,5.838,4.547c1.956,0.054,2.485,0.59,2.54,2.568c0.076,2.731,1.736,4.941,4.305,5.733
		c2.479,0.764,5.123-0.124,6.697-2.248c1.533-2.069,1.548-5.066,0.034-7.195c-1.695-2.387-1.682-2.483,0.361-4.652
		c1.079-1.146,2.135-2.313,3.418-3.706c-1.395,0-2.388-0.005-3.38,0.001c-1.285,0.008-1.939-0.613-1.935-1.91
		C21.888,39.122,21.885,38.095,21.885,36.646z"/>
	<path fill-rule="evenodd" clip-rule="evenodd" fill="#231F20" d="M17.804,30.575c-0.251,1.09-1.338,1.771-2.428,1.519L4.34,29.553
		c-1.09-0.251-1.771-1.338-1.519-2.428l0,0c0.251-1.09,1.338-1.771,2.428-1.519l11.035,2.541
		C17.375,28.397,18.055,29.484,17.804,30.575L17.804,30.575z"/>
	<path fill-rule="evenodd" clip-rule="evenodd" fill="#231F20" d="M22.504,25.457c-0.725,0.853-2.003,0.956-2.855,0.229
		l-8.624-7.339c-0.852-0.725-0.955-2.002-0.229-2.855l0,0c0.725-0.852,2.002-0.955,2.855-0.229l8.624,7.338
		C23.126,23.327,23.229,24.604,22.504,25.457L22.504,25.457z"/>
	<path fill-rule="evenodd" clip-rule="evenodd" fill="#231F20" d="M27.264,21.598c-1.091,0.247-2.176-0.438-2.422-1.53L22.344,9.023
		c-0.247-1.091,0.437-2.175,1.529-2.422l0,0c1.091-0.247,2.175,0.437,2.421,1.529l2.5,11.045
		C29.04,20.266,28.355,21.351,27.264,21.598L27.264,21.598z"/>
	<path fill-rule="evenodd" clip-rule="evenodd" fill="#231F20" d="M44.949,34.248c0.251-1.092,1.338-1.772,2.429-1.52l11.035,2.541
		c1.09,0.25,1.77,1.338,1.519,2.428l0,0c-0.251,1.09-1.338,1.771-2.429,1.52l-11.035-2.541
		C45.378,36.424,44.698,35.338,44.949,34.248L44.949,34.248z"/>
	<path fill-rule="evenodd" clip-rule="evenodd" fill="#231F20" d="M40.249,39.365c0.725-0.852,2.003-0.955,2.855-0.229l8.623,7.338
		c0.853,0.725,0.955,2.003,0.229,2.855l0,0c-0.725,0.852-2.003,0.955-2.854,0.229l-8.625-7.338
		C39.626,41.496,39.523,40.217,40.249,39.365L40.249,39.365z"/>
	<path fill-rule="evenodd" clip-rule="evenodd" fill="#231F20" d="M35.489,43.225c1.091-0.246,2.176,0.438,2.422,1.53l2.498,11.044
		c0.247,1.091-0.438,2.175-1.529,2.422l0,0c-1.091,0.247-2.176-0.438-2.421-1.529L33.96,45.646
		C33.713,44.557,34.397,43.471,35.489,43.225L35.489,43.225z"/>
</g>
</svg>
