<?xml version="1.0" encoding="utf-8"?>
<!-- Generator: Adobe Illustrator 16.0.0, SVG Export Plug-In . SVG Version: 6.00 Build 0)  -->
<!DOCTYPE svg PUBLIC "-//W3C//DTD SVG 1.1//EN" "http://www.w3.org/Graphics/SVG/1.1/DTD/svg11.dtd">
<svg version="1.1" id="Capa_1" xmlns="http://www.w3.org/2000/svg" xmlns:xlink="http://www.w3.org/1999/xlink" x="0px" y="0px"
	 width="64px" height="64px" viewBox="0 0 64 64" enable-background="new 0 0 64 64" xml:space="preserve">
<g>
	<path fill="none" stroke="#231F20" stroke-width="2" stroke-miterlimit="10" d="M1.332,32.002c0-16.939,13.73-30.667,30.667-30.67
		l0,0v0.433v0.428c-8.231,0-15.68,3.336-21.078,8.73l0,0C5.526,16.32,2.192,23.767,2.192,32.001l0,0
		c0,8.229,3.334,15.681,8.729,21.074l0,0c5.398,5.395,12.847,8.729,21.078,8.729l0,0c8.233,0,15.683-3.336,21.077-8.729l0,0
		c5.396-5.396,8.73-12.847,8.73-21.074l0,0c0-8.233-3.334-15.681-8.73-21.077l0,0c-5.396-5.395-12.844-8.73-21.077-8.73l0,0V1.765
		V1.332c16.938,0.003,30.669,13.731,30.669,30.67l0,0c0,16.938-13.73,30.666-30.669,30.666l0,0
		C15.062,62.668,1.332,48.938,1.332,32.002L1.332,32.002z"/>
	<path fill="none" stroke="#231F20" stroke-width="2" stroke-miterlimit="10" d="M41.768,38.798
		c-3.238,3.833-5.319,9.11-5.516,14.979l0,0C46.35,51.8,54.041,43.046,54.241,32.437l0,0C49.393,32.572,45.007,34.962,41.768,38.798
		L41.768,38.798z"/>
	<path fill="none" stroke="#231F20" stroke-width="2" stroke-miterlimit="10" d="M27.748,53.773
		c-0.195-5.865-2.273-11.145-5.514-14.978l0,0c-3.241-3.836-7.63-6.226-12.479-6.362l0,0C9.963,43.044,17.652,51.8,27.748,53.773
		L27.748,53.773z"/>
	<path fill="none" stroke="#231F20" stroke-miterlimit="10" d="M27.789,32.002c0-2.327,1.886-4.211,4.21-4.211l0,0
		c2.325,0,4.213,1.884,4.213,4.211l0,0c0,2.324-1.886,4.208-4.213,4.208l0,0v-0.429v-0.434c0.928,0,1.765-0.371,2.37-0.979l0,0
		c0.604-0.607,0.979-1.443,0.979-2.367l0,0c0-0.929-0.377-1.761-0.979-2.369l0,0c-0.605-0.606-1.442-0.98-2.37-0.98l0,0
		c-0.927,0-1.761,0.374-2.368,0.98l0,0c-0.608,0.608-0.979,1.441-0.979,2.369l0,0c0,0.926,0.371,1.76,0.979,2.367l0,0
		c0.607,0.605,1.441,0.979,2.368,0.979l0,0v0.435v0.429C29.675,36.21,27.789,34.324,27.789,32.002L27.789,32.002z"/>
	<path fill="none" stroke="#231F20" stroke-miterlimit="10" d="M10.706,24.872c-0.138,0-0.271-0.07-0.351-0.183l0,0
		c-0.08-0.114-0.1-0.263-0.054-0.394l0,0c3.197-8.944,11.667-15.401,21.697-15.403l0,0v0.432v0.429
		c-9.437,0-17.438,5.942-20.671,14.258l0,0h41.342C49.438,15.695,41.436,9.753,31.998,9.753l0,0V9.324V8.891
		c10.031,0.002,18.501,6.459,21.695,15.403l0,0c0.049,0.131,0.027,0.28-0.053,0.393l0,0c-0.082,0.114-0.213,0.183-0.351,0.183l0,0
		H10.706V24.872z"/>
</g>
</svg>
