<?xml version="1.0" encoding="utf-8"?>
<!-- Generator: Adobe Illustrator 16.0.0, SVG Export Plug-In . SVG Version: 6.00 Build 0)  -->
<!DOCTYPE svg PUBLIC "-//W3C//DTD SVG 1.1//EN" "http://www.w3.org/Graphics/SVG/1.1/DTD/svg11.dtd">
<svg version="1.1" id="Capa_1" xmlns="http://www.w3.org/2000/svg" xmlns:xlink="http://www.w3.org/1999/xlink" x="0px" y="0px"
	 width="64px" height="64px" viewBox="0 0 64 64" enable-background="new 0 0 64 64" xml:space="preserve">
<path fill="#231F20" d="M57.314,44.123c-1.806-1.68-4.98-6.021-5.438-11.654c-0.116-1.438-0.217-2.838-0.313-4.196
	c-0.617-8.56-1.104-15.321-4.356-20.364c-2.812-4.37-6.168-6.798-10.79-7.7C32,0,34.073,0,32,0c-2.074,0,0,0-4.417,0.209
	c-4.618,0.902-7.977,3.331-10.791,7.699c-3.249,5.049-3.739,11.82-4.357,20.392c-0.098,1.35-0.198,2.74-0.313,4.17
	c-0.453,5.637-3.627,9.977-5.433,11.653C4.349,46.299,4,49.734,4,51.588c0,1.074,0.852,1.945,1.903,1.945h19.426v3.646
	c0,3.762,2.994,6.82,6.671,6.82c3.68,0,6.671-3.061,6.671-6.82v-3.646h19.427c1.049,0,1.902-0.871,1.902-1.945
	C60,49.32,59.534,46.186,57.314,44.123z M34.866,57.18c0,1.615-1.285,2.93-2.865,2.93c-1.581,0-2.865-1.313-2.865-2.93v-3.646h5.729
	L34.866,57.18L34.866,57.18z M7.985,49.643C8.169,48.691,8.534,47.666,9.25,47c0.612-0.566,5.992-5.785,6.666-14.213
	c0.116-1.438,0.217-2.841,0.315-4.2c0.578-8.011,1.036-14.336,3.741-18.541c2.905-4.507,6.237-6.29,11.882-6.36
	c0.021,0,0.042-0.001,0.062-0.002c0.104,0.002,0.133,0.002,0.179,0c0.02,0.001,0.039,0.001,0.059,0.002
	c5.645,0.07,8.974,1.854,11.874,6.361c2.709,4.199,3.164,10.515,3.74,18.512c0.1,1.368,0.2,2.779,0.316,4.229
	c0.686,8.424,6.059,13.645,6.67,14.211c0.715,0.666,1.079,1.691,1.262,2.645H7.985V49.643z"/>
</svg>
