<?xml version="1.0" encoding="utf-8"?>
<!-- Generator: Adobe Illustrator 16.0.0, SVG Export Plug-In . SVG Version: 6.00 Build 0)  -->
<!DOCTYPE svg PUBLIC "-//W3C//DTD SVG 1.1//EN" "http://www.w3.org/Graphics/SVG/1.1/DTD/svg11.dtd">
<svg version="1.1" xmlns="http://www.w3.org/2000/svg" xmlns:xlink="http://www.w3.org/1999/xlink" x="0px" y="0px" width="64px"
	 height="64px" viewBox="0 0 64 64" enable-background="new 0 0 64 64" xml:space="preserve">
<g>
	<g>
		<path fill="#231F20" d="M56.27,7.227c1.141,1.057,2.144,2.025,2.771,2.712c0.23,0.251,0.356,0.406,0.419,0.49
			c0.093,0.269,0.207,0.495,0.304,0.686c0.198,0.39,0.198,0.39,0.022,0.743c-0.399,0.805-1.64,2.339-5.236,5.047
			c-3.717,2.657-5.048,4.29-4.91,6.024c0.127,1.593,1.462,2.256,1.964,2.506c0.036,0.018,0.07,0.034,0.103,0.051
			c0.819,0.608,1.674,0.829,2.577,1.063c0.329,0.085,0.696,0.18,1.114,0.308c1.341,0.597,5.729,4.572,6.493,6.401
			c-0.106,0.014-0.238,0.023-0.398,0.023c-2.206,0-5.981-1.703-8.118-4.241c-0.283-0.383-0.539-0.733-0.772-1.052
			c-1.748-2.392-2.626-3.592-4.311-3.592c-0.701,0-1.277,0.258-1.649,0.453c-1.581,0.828-2.99,1.821-2.869,4.846l0.012,0.278
			c0.374,8.908-0.097,10.921-0.236,11.312c-0.673,0.9-3.124,2.936-4.695,4.129l-0.791,0.6v0.994v9.762l-3.779,5.189h-2.195l-2,0.01
			H29.72l-3.777-5.191v-9.764V46.02l-0.791-0.6c-1.572-1.191-4.023-3.227-4.697-4.127c-0.141-0.391-0.609-2.406-0.236-11.316
			l0.012-0.278c0.121-3.02-1.287-4.014-2.875-4.846c-0.371-0.193-0.945-0.449-1.643-0.449c-1.686,0-2.512,1.13-4.32,3.607
			c-0.23,0.314-0.482,0.66-0.762,1.038c-2.137,2.538-5.913,4.24-8.119,4.24c-0.16,0-0.293-0.01-0.4-0.025
			c0.766-1.828,5.15-5.8,6.492-6.397c0.416-0.127,0.783-0.222,1.11-0.306c0.906-0.235,1.763-0.457,2.583-1.065
			c0.031-0.017,0.066-0.033,0.102-0.051c0.503-0.25,1.838-0.914,1.965-2.507c0.139-1.735-1.192-3.368-4.87-5.996
			c-3.638-2.736-4.877-4.27-5.276-5.074c-0.176-0.353-0.176-0.353,0.023-0.742c0.098-0.194,0.215-0.425,0.309-0.703
			c0.376-0.515,1.588-1.709,3.186-3.188c0.104,0.71,0.283,1.333,0.473,1.842c1.813,4.859,7.478,8.123,11.632,8.123
			c1.695,0,3.171-0.512,4.269-1.483c3.324-2.945,6.561-3.174,7.474-3.174c0.112,0,0.2,0.003,0.261,0.006l0.145,0.008l0.145-0.013
			c0.041-0.003,0.143-0.01,0.293-0.01c0.912,0,4.147,0.229,7.471,3.173c1.094,0.971,2.57,1.484,4.271,1.484
			c4.155,0,9.82-3.265,11.632-8.125C55.985,8.559,56.166,7.936,56.27,7.227 M51.163,0.031L51.163,0.031L51.163,0.031L51.163,0.031z
			 M51.163,0.031c8.1,7.011-1.051,15.161-6.999,15.161c-1.149,0-2.181-0.304-2.942-0.98c-3.777-3.346-7.481-3.678-8.799-3.678
			c-0.24,0-0.402,0.012-0.469,0.018c-0.086-0.005-0.212-0.01-0.374-0.01c-1.319,0-5.024,0.332-8.8,3.677
			c-0.764,0.675-1.793,0.98-2.942,0.98c-5.948,0-15.097-8.147-7.001-15.161c-0.012,0.01-9.857,8.413-10.152,9.639
			c-0.299,1.229-2.887,2.475,5.605,8.863c6.395,4.571,3.537,4.795,2.854,5.32c-0.748,0.576-1.656,0.641-3.172,1.108
			c-1.514,0.467-9.104,6.912-7.828,9.304c0.371,0.697,1.237,1.018,2.367,1.018c2.771,0,7.133-1.926,9.692-5.003
			c2.101-2.847,2.729-3.882,3.509-3.882c0.217,0,0.445,0.081,0.721,0.224c1.264,0.663,1.875,1.08,1.799,2.991
			c-0.078,1.911-0.517,11.227,0.527,12.74c1.045,1.516,5.184,4.654,5.184,4.654v10.414l4.76,6.541h3.385v-0.01H35.3l4.762-6.539
			V47.008c0,0,4.135-3.139,5.181-4.654c1.046-1.512,0.606-10.83,0.528-12.74c-0.076-1.913,0.537-2.332,1.799-2.992
			c0.275-0.144,0.505-0.225,0.722-0.225c0.78,0,1.408,1.036,3.51,3.881c2.56,3.079,6.923,5.004,9.691,5.004
			c1.131,0,1.995-0.32,2.364-1.016c1.278-2.394-6.313-8.838-7.828-9.308c-1.512-0.468-2.422-0.531-3.17-1.107
			c-0.683-0.525-3.541-0.748,2.854-5.319c8.49-6.389,5.903-7.636,5.606-8.863c-0.051-0.195-0.344-0.579-0.805-1.081
			C58.115,5.963,51.177,0.043,51.163,0.031L51.163,0.031z M12.837,0.038h0.005H12.837z M12.837,0.038L12.837,0.038L12.837,0.038z"/>
	</g>
</g>
</svg>
