<?xml version="1.0" encoding="utf-8"?>
<!-- Generator: Adobe Illustrator 16.0.0, SVG Export Plug-In . SVG Version: 6.00 Build 0)  -->
<!DOCTYPE svg PUBLIC "-//W3C//DTD SVG 1.1//EN" "http://www.w3.org/Graphics/SVG/1.1/DTD/svg11.dtd">
<svg version="1.1" id="Capa_1" xmlns="http://www.w3.org/2000/svg" xmlns:xlink="http://www.w3.org/1999/xlink" x="0px" y="0px"
	 width="64px" height="64px" viewBox="0 0 64 64" enable-background="new 0 0 64 64" xml:space="preserve">
<g>
	<polygon fill="#231F20" points="25.002,25.002 25.002,23 47.002,23 47.002,25.002 	"/>
	<polygon fill="#231F20" points="25.002,35.002 25.002,33 47.002,33 47.002,35.002 	"/>
	<polygon fill="#231F20" points="25.002,45.001 25.002,43.001 47.002,43.001 47.002,45.001 	"/>
	<polygon fill="#231F20" points="25.002,55.001 25.002,53.001 47.002,53.001 47.002,55.001 	"/>
	<polygon fill="#231F20" points="16.999,25 16.999,23 21,23 21,25 	"/>
	<polygon fill="#231F20" points="16.999,35 16.999,33 21,33 21,35 	"/>
	<polygon fill="#231F20" points="16.999,45.001 16.999,43 21,43 21,45.001 	"/>
	<polygon fill="#231F20" points="16.999,55.001 16.999,53.001 21,53.001 21,55.001 	"/>
	<polygon fill="#231F20" points="9,64 9,6.998 23,6.998 23,9 10.999,8.998 10.999,61.998 53,61.998 53,9 41,9 41,6.998 55,6.998 
		55,64 	"/>
	<path id="_x3C_Trazado_x3E_" fill="#231F20" d="M20.719,14L23.22,4h3.781V0H37v4h3.778l2.504,10H20.719L20.719,14z M39.188,6h-4.19
		V1.998H29V6h-4.22l-1.5,6l0,0h17.439l-1.5-6H36"/>
</g>
</svg>
