<?xml version="1.0" encoding="utf-8"?>
<!-- Generator: Adobe Illustrator 16.0.0, SVG Export Plug-In . SVG Version: 6.00 Build 0)  -->
<!DOCTYPE svg PUBLIC "-//W3C//DTD SVG 1.1//EN" "http://www.w3.org/Graphics/SVG/1.1/DTD/svg11.dtd">
<svg version="1.1" id="Capa_1" xmlns="http://www.w3.org/2000/svg" xmlns:xlink="http://www.w3.org/1999/xlink" x="0px" y="0px"
	 width="64px" height="64px" viewBox="0 0 64 64" enable-background="new 0 0 64 64" xml:space="preserve">
<path fill="#231F20" d="M44.31,27.174c-2.016-5.074-6.852-8.354-12.318-8.354c-1.674,0-3.328,0.315-4.897,0.942
	c-3.292,1.308-5.873,3.825-7.274,7.074c-1.399,3.257-1.447,6.86-0.135,10.147c2.018,5.08,6.856,8.36,12.315,8.36
	c1.681,0,3.331-0.32,4.905-0.949C43.692,41.688,47.018,33.964,44.31,27.174 M35.637,41.216c-1.169,0.465-2.394,0.699-3.637,0.699
	c-4.049,0-7.638-2.432-9.138-6.2c-0.966-2.44-0.937-5.111,0.106-7.523c1.035-2.415,2.952-4.277,5.393-5.248
	c1.17-0.467,2.393-0.699,3.631-0.699c4.052,0,7.638,2.429,9.141,6.197C43.138,33.476,40.674,39.206,35.637,41.216 M49.526,59.327
	c0.313-0.729,0.322-1.524,0.032-2.256l-1.979-4.97c1.545-1.185,2.945-2.543,4.187-4.063l4.823,2.072
	c1.466,0.637,3.262-0.093,3.88-1.549l3.077-7.143c0.643-1.494-0.047-3.234-1.545-3.887l-4.732-2.035
	c0.289-2.051,0.319-4.115,0.104-6.162l4.761-1.897c0.734-0.291,1.307-0.852,1.622-1.574c0.315-0.728,0.323-1.528,0.03-2.263
	l-2.877-7.231c-0.588-1.48-2.34-2.245-3.838-1.651l-4.765,1.9c-1.202-1.575-2.586-2.998-4.134-4.254l2.061-4.793
	c0.313-0.721,0.321-1.523,0.032-2.26c-0.29-0.734-0.85-1.312-1.577-1.621l-7.143-3.073c-1.454-0.631-3.255,0.085-3.885,1.545
	L35.61,6.922c-2.012-0.277-4.042-0.312-6.062-0.1l-1.982-4.974C26.971,0.366,25.218-0.386,23.73,0.2L16.5,3.08
	c-0.729,0.289-1.306,0.852-1.62,1.58c-0.311,0.727-0.32,1.528-0.026,2.258l1.979,4.971c-1.637,1.253-3.114,2.695-4.4,4.313
	l-5.02-2.158C5.959,13.416,4.16,14.13,3.53,15.591l-3.077,7.146c-0.641,1.496,0.054,3.234,1.548,3.881l5.109,2.201
	c-0.251,1.944-0.276,3.899-0.072,5.833l-5.175,2.066c-0.733,0.288-1.31,0.848-1.621,1.57c-0.312,0.733-0.323,1.535-0.03,2.27
	l2.878,7.23c0.591,1.478,2.353,2.239,3.836,1.646l5.178-2.062c1.229,1.604,2.646,3.061,4.239,4.338l-2.169,5.05
	c-0.314,0.725-0.322,1.524-0.036,2.262c0.295,0.731,0.853,1.31,1.58,1.623l7.149,3.079c1.464,0.621,3.258-0.098,3.881-1.555
	l2.187-5.084c1.973,0.261,3.964,0.289,5.923,0.08l1.981,4.979c0.455,1.128,1.533,1.854,2.748,1.854c0.373,0,0.741-0.068,1.088-0.207
	l7.229-2.883C48.637,60.618,49.216,60.056,49.526,59.327 M46.206,57.9l-6.358,2.532l-2.81-7.052l-1.355,0.217
	c-2.451,0.403-5,0.368-7.481-0.097l-1.347-0.256l-3.067,7.139l-6.281-2.704l3.058-7.108l-1.119-0.804
	c-2.101-1.508-3.888-3.341-5.316-5.444l-0.774-1.135l-7.256,2.889l-2.534-6.354l7.256-2.893L10.6,35.475
	c-0.395-2.437-0.366-4.926,0.083-7.396l0.249-1.343l-7.147-3.072l2.702-6.287l7.096,3.053l0.803-1.126
	c1.504-2.121,3.353-3.934,5.491-5.39l1.132-0.774l-2.807-7.05l6.358-2.531l2.805,7.052l1.359-0.221
	c2.496-0.403,5.089-0.366,7.603,0.121l1.354,0.263l2.936-6.825l6.281,2.703l-2.94,6.847l1.11,0.807
	c2.049,1.486,3.806,3.29,5.215,5.362l0.773,1.137l6.846-2.726l2.529,6.352l-6.848,2.727l0.223,1.358
	c0.415,2.55,0.37,5.137-0.134,7.694l-0.269,1.358l6.809,2.925l-2.707,6.285l-6.857-2.953l-0.809,1.105
	c-1.477,2.025-3.26,3.759-5.307,5.148l-1.139,0.771L46.206,57.9z"/>
</svg>
