<?xml version="1.0" encoding="utf-8"?>
<!-- Generator: Adobe Illustrator 16.0.0, SVG Export Plug-In . SVG Version: 6.00 Build 0)  -->
<!DOCTYPE svg PUBLIC "-//W3C//DTD SVG 1.1//EN" "http://www.w3.org/Graphics/SVG/1.1/DTD/svg11.dtd">
<svg version="1.1" xmlns="http://www.w3.org/2000/svg" xmlns:xlink="http://www.w3.org/1999/xlink" x="0px" y="0px" width="64px"
	 height="64px" viewBox="0 0 64 64" enable-background="new 0 0 64 64" xml:space="preserve">
<g>
	<g>
		<path fill="#231F20" d="M11.139,1.778v9.308H1.786V1.778H11.139 M12.924,0H0v12.863h12.925L12.924,0L12.924,0z"/>
	</g>
	<g>
		<path fill="#231F20" d="M62.213,1.778v9.308h-9.354V1.778H62.213 M64,0H51.074v12.863H64V0L64,0z"/>
	</g>
	<g>
		<path fill="#231F20" d="M11.139,52.911v9.312H1.786v-9.312H11.139 M12.924,51.134H0V64h12.925L12.924,51.134L12.924,51.134z"/>
	</g>
	<g>
		<path fill="#231F20" d="M8.299,6.556c0,0.978-0.804,1.778-1.786,1.778H6.347c-0.982,0-1.786-0.8-1.786-1.778V6.388
			c0-0.978,0.804-1.778,1.786-1.778h0.166c0.982,0,1.786,0.8,1.786,1.778V6.556z"/>
	</g>
	<g>
		<path fill="#231F20" d="M59.533,6.556c0,0.978-0.803,1.778-1.786,1.778H57.58c-0.982,0-1.786-0.8-1.786-1.778V6.388
			c0-0.978,0.804-1.778,1.786-1.778h0.167c0.983,0,1.786,0.8,1.786,1.778V6.556z"/>
	</g>
	<g>
		<path fill="#231F20" d="M8.299,57.648c0,0.979-0.804,1.777-1.786,1.777H6.347c-0.982,0-1.786-0.8-1.786-1.777V57.48
			c0-0.978,0.804-1.776,1.786-1.776h0.166c0.982,0,1.786,0.8,1.786,1.776V57.648z"/>
	</g>
	<g>
		<rect x="12.791" y="12.834" fill="#231F20" width="7.838" height="7.801"/>
		<rect x="12.924" y="35.846" fill="#231F20" width="7.838" height="7.801"/>
		<rect x="44.419" y="35.555" fill="#231F20" width="7.837" height="7.803"/>
		<rect x="28.479" y="35.458" fill="#231F20" width="7.835" height="7.801"/>
		<rect x="28.479" y="51.134" fill="#231F20" width="7.835" height="7.8"/>
		<rect x="12.924" y="51.134" fill="#231F20" width="7.837" height="7.8"/>
		<rect x="20.799" y="4.4" fill="#231F20" width="7.874" height="7.801"/>
		<rect x="28.672" y="4.4" fill="#231F20" width="7.838" height="7.801"/>
		<rect x="44.419" y="20.073" fill="#231F20" width="7.837" height="7.803"/>
		<rect x="52.012" y="12.515" fill="#231F20" width="7.838" height="7.803"/>
		<rect x="52.293" y="27.717" fill="#231F20" width="7.836" height="7.801"/>
		<rect x="52.293" y="43.268" fill="#231F20" width="7.836" height="7.799"/>
		<rect x="44.488" y="51.035" fill="#231F20" width="7.837" height="7.802"/>
		<rect x="28.479" y="19.977" fill="#231F20" width="7.835" height="7.802"/>
		<rect x="20.703" y="27.815" fill="#231F20" width="7.837" height="7.799"/>
		<rect x="5.148" y="27.815" fill="#231F20" width="7.839" height="7.799"/>
		<rect x="5.148" y="20.073" fill="#231F20" width="7.839" height="7.803"/>
		<rect x="36.447" y="12.236" fill="#231F20" width="7.839" height="7.802"/>
	</g>
</g>
</svg>
