<?xml version="1.0" encoding="utf-8"?>
<!-- Generator: Adobe Illustrator 16.0.0, SVG Export Plug-In . SVG Version: 6.00 Build 0)  -->
<!DOCTYPE svg PUBLIC "-//W3C//DTD SVG 1.1//EN" "http://www.w3.org/Graphics/SVG/1.1/DTD/svg11.dtd">
<svg version="1.1" xmlns="http://www.w3.org/2000/svg" xmlns:xlink="http://www.w3.org/1999/xlink" x="0px" y="0px" width="64px"
	 height="64px" viewBox="0 0 64 64" enable-background="new 0 0 64 64" xml:space="preserve">
<g>
	<g>
		<path fill="#231F20" d="M32.063,3c1.07,0,1.07,0,1.289,0.017c0.361,0.028,1.025,0.08,3.447,0.181
			c4.422,0.791,7.498,2.74,10.264,6.493c3.216,4.356,3.743,10.74,4.411,18.825c0.111,1.369,0.227,2.781,0.361,4.231
			c0.577,6.196,4.306,11.256,7.324,13.706c1.292,1.047,1.772,2.654,1.915,4.08H39.701h-3v3v3.646c0,2.106-2.081,3.819-4.639,3.819
			s-4.639-1.713-4.639-3.819v-3.646v-3h-3H3.055c0.139-1.321,0.593-3.008,1.913-4.079c3.02-2.447,6.749-7.506,7.32-13.709
			c0.125-1.352,0.234-2.668,0.341-3.949l0.021-0.25c0.668-8.096,1.196-14.491,4.413-18.857c2.729-3.699,5.901-5.707,10.265-6.491
			c2.421-0.102,3.084-0.153,3.445-0.181C30.992,3,30.992,3,32.063,3 M32.063,0c-2.375,0,0,0-5.058,0.209
			C21.716,1.111,17.87,3.54,14.648,7.908c-3.72,5.049-4.281,11.82-4.989,20.392c-0.112,1.35-0.227,2.74-0.359,4.17
			c-0.519,5.638-4.153,9.978-6.221,11.653C0.4,46.299,0,49.734,0,51.588c0,1.074,0.976,1.945,2.179,1.945h22.245v3.646
			c0,3.762,3.428,6.819,7.639,6.819c4.214,0,7.639-3.062,7.639-6.819v-3.646h22.246c1.201,0,2.178-0.871,2.178-1.945
			c0-2.268-0.533-5.402-3.075-7.465c-2.069-1.68-5.703-6.021-6.228-11.654c-0.134-1.438-0.248-2.838-0.358-4.196
			c-0.707-8.56-1.265-15.321-4.988-20.364c-3.22-4.37-7.063-6.798-12.355-7.7C32.063,0,34.437,0,32.063,0L32.063,0z"/>
	</g>
</g>
</svg>
