<?xml version="1.0" encoding="utf-8"?>
<!-- Generator: Adobe Illustrator 16.0.0, SVG Export Plug-In . SVG Version: 6.00 Build 0)  -->
<!DOCTYPE svg PUBLIC "-//W3C//DTD SVG 1.1//EN" "http://www.w3.org/Graphics/SVG/1.1/DTD/svg11.dtd">
<svg version="1.1" id="Capa_1" xmlns="http://www.w3.org/2000/svg" xmlns:xlink="http://www.w3.org/1999/xlink" x="0px" y="0px"
	 width="64px" height="64px" viewBox="0 0 64 64" enable-background="new 0 0 64 64" xml:space="preserve">
<path fill="#231F20" d="M63.583,0.461c-0.377-0.408-0.969-0.561-1.5-0.395L44.937,5.375c-0.049,0.012-0.096,0.021-0.141,0.041
	l-0.018,0.008c-0.344,0.106-0.584,0.347-0.771,0.642L7.703,42.73l-7.267,7.343c-0.581,0.582-0.581,1.526,0,2.11l11.267,11.383
	c0.277,0.277,0.648,0.438,1.041,0.434c0.395,0.006,0.772-0.152,1.052-0.434l6.425-6.489c0.124-0.071,0.255-0.136,0.362-0.248
	l36.678-37.042c0.377-0.169,0.695-0.451,0.834-0.844l5.822-16.955C64.103,1.457,63.974,0.865,63.583,0.461z M45.231,9.173
	c0.028-0.033,3.172,3.084,3.205,3.044l6.149,6.217L20.16,53.206l-9.265-9.361L45.231,9.173z M12.744,60.391l-9.168-9.263
	l4.629-4.674l9.173,9.266L12.744,60.391z M56.136,15.503l-7.939-8.011l6.457-2l3.654,3.693L56.136,15.503z"/>
</svg>
