<?xml version="1.0" encoding="utf-8"?>
<!-- Generator: Adobe Illustrator 16.0.0, SVG Export Plug-In . SVG Version: 6.00 Build 0)  -->
<!DOCTYPE svg PUBLIC "-//W3C//DTD SVG 1.1//EN" "http://www.w3.org/Graphics/SVG/1.1/DTD/svg11.dtd">
<svg version="1.1" id="Capa_1" xmlns="http://www.w3.org/2000/svg" xmlns:xlink="http://www.w3.org/1999/xlink" x="0px" y="0px"
	 width="64px" height="64px" viewBox="0 0 64 64" enable-background="new 0 0 64 64" xml:space="preserve">
<path fill="#231F20" d="M59.409-0.001H4.598c-2.532,0-4.593,1.842-4.593,4.107v0.62C0.001,4.774,0.001,4.821,0.001,4.857v5.821
	c0,0.042,0,0.084,0.005,0.131v8.958c0,2.266,2.063,4.106,4.593,4.106h8.197c2.53,0,4.593-1.84,4.593-4.106v-4.228h5.824v32.9h-6.476
	c-2.425,0-4.397,1.765-4.397,3.934v7.677c0,2.17,1.974,3.937,4.397,3.937h7.878c0.147,0.032-0.158,0,0,0h14.559
	c0.155,0-0.142,0.032,0,0h7.69c2.424,0,4.4-1.767,4.4-3.937v-7.677c0-2.169-1.977-3.934-4.4-3.934h-6.27v-32.9h6.023v4.228
	c0,2.266,2.061,4.106,4.598,4.106h8.193c2.529,0,4.59-1.84,4.59-4.106V4.104C63.997,1.841,61.939-0.001,59.409-0.001 M61.603,20.952
	c0,0.43-0.391,0.777-0.87,0.777H49.888c-0.48,0-0.869-0.348-0.869-0.777v-5.89c0-0.918-0.833-1.665-1.863-1.665h-7.099
	c-1.028,0-1.86,0.747-1.86,1.665v33.859c0,0.918,0.832,1.665,1.86,1.665h8.134c0.374,0,0.672,0.269,0.672,0.604v10.047
	c0,0.331-0.299,0.601-0.672,0.601h-9.462c-0.151,0-0.745-0.05-0.89-0.017H25.093c-0.146-0.033,0.139,0.017-0.02,0.017H15.41
	c-0.37,0-0.671-0.27-0.671-0.601V51.19c0-0.335,0.301-0.604,0.671-0.604h8.338c1.029,0,1.864-0.746,1.864-1.664V15.062
	c0-0.918-0.837-1.666-1.864-1.666h-6.897c-1.027,0-1.858,0.747-1.858,1.666v5.889c0,0.43-0.393,0.777-0.868,0.777H3.272
	c-0.476,0-0.864-0.348-0.864-0.777V10.74c0-0.039-0.003-0.083-0.012-0.13V4.93c0.009-0.047,0.012-0.095,0.012-0.132V2.921
	c0-0.43,0.391-0.778,0.864-0.778h57.461c0.48,0,0.87,0.351,0.87,0.778L61.603,20.952L61.603,20.952z"/>
</svg>
