<?xml version="1.0" encoding="utf-8"?>
<!-- Generator: Adobe Illustrator 16.0.0, SVG Export Plug-In . SVG Version: 6.00 Build 0)  -->
<!DOCTYPE svg PUBLIC "-//W3C//DTD SVG 1.1//EN" "http://www.w3.org/Graphics/SVG/1.1/DTD/svg11.dtd">
<svg version="1.1" xmlns="http://www.w3.org/2000/svg" xmlns:xlink="http://www.w3.org/1999/xlink" x="0px" y="0px" width="64px"
	 height="64px" viewBox="96 96 64 64" enable-background="new 96 96 64 64" xml:space="preserve">
<g>
	<path d="M104.723,101.608c-0.181,1.206-0.049,2.439,0.405,3.668c1.648,4.455,6.869,7.447,10.71,7.447
		c1.447,0,2.693-0.421,3.602-1.218c3.49-3.062,6.855-3.392,8.141-3.392c0.137,0,0.244,0.004,0.316,0.008l0.07,0.004l0.07-0.006
		c0.055-0.004,0.188-0.013,0.386-0.013c1.284,0,4.648,0.331,8.14,3.392c0.909,0.797,2.154,1.218,3.602,1.218
		c3.843,0,9.063-2.993,10.711-7.447c0.454-1.227,0.586-2.458,0.406-3.661c1.741,1.55,3.522,3.191,4.5,4.25
		c0.408,0.441,0.549,0.646,0.589,0.71c0.073,0.253,0.187,0.476,0.288,0.674c0.369,0.721,1.057,2.063-5.522,6.965
		c-3.298,2.333-4.601,3.807-4.499,5.09c0.081,1.028,0.982,1.472,1.415,1.685c0.078,0.038,0.151,0.07,0.199,0.102
		c0.678,0.516,1.423,0.707,2.284,0.927c0.353,0.09,0.749,0.191,1.2,0.329c0.974,0.303,6.063,4.456,7.113,7.029
		c0.182,0.445,0.166,0.684,0.127,0.755c-0.161,0.299-0.716,0.479-1.484,0.479c-2.429,0-6.519-1.749-8.907-4.575
		c-0.288-0.387-0.549-0.739-0.785-1.06c-1.698-2.3-2.334-3.161-3.509-3.161c-0.475,0-0.88,0.178-1.183,0.335
		c-1.431,0.743-2.435,1.457-2.337,3.891l0.011,0.25c0.427,9.991-0.226,11.541-0.36,11.749c-0.782,1.122-3.847,3.542-4.961,4.379
		l-0.399,0.301v0.499v9.979l-4.267,5.801h-2.707l-1,0.009h-1.879l-4.265-5.801v-9.982v-0.5l-0.4-0.3
		c-1.116-0.838-4.182-3.257-4.962-4.377c-0.188-0.291-0.77-1.995-0.364-11.695l0.013-0.307c0.098-2.433-0.907-3.146-2.337-3.889
		c-0.301-0.156-0.706-0.334-1.181-0.334c-1.174,0-1.811,0.862-3.513,3.167c-0.235,0.318-0.494,0.669-0.78,1.053
		c-2.388,2.825-6.479,4.574-8.908,4.574c-0.77,0-1.325-0.18-1.487-0.479c-0.038-0.07-0.053-0.308,0.128-0.753
		c1.05-2.573,6.137-6.725,7.111-7.028c0.451-0.138,0.847-0.239,1.199-0.329c0.864-0.222,1.61-0.413,2.279-0.923
		c0.056-0.037,0.13-0.069,0.208-0.107c0.433-0.213,1.334-0.657,1.417-1.685c0.102-1.283-1.201-2.758-4.479-5.077
		c-6.601-4.915-5.912-6.257-5.542-6.978c0.103-0.201,0.218-0.426,0.292-0.686C99.977,105.97,102.084,103.961,104.723,101.608
		 M147.164,96.708L147.164,96.708L147.164,96.708L147.164,96.708z M147.164,96.708c8.1,6.941-1.05,15.008-6.999,15.008
		c-1.149,0-2.18-0.301-2.942-0.97c-3.778-3.313-7.482-3.64-8.799-3.64c-0.241,0-0.402,0.011-0.469,0.017
		c-0.086-0.005-0.212-0.01-0.374-0.01c-1.32,0-5.024,0.328-8.8,3.64c-0.763,0.668-1.793,0.97-2.942,0.97
		c-5.948,0-15.097-8.066-7.001-15.008c-0.007,0.006-9.857,8.327-10.152,9.541c-0.299,1.217-2.887,2.45,5.605,8.774
		c6.395,4.525,3.537,4.746,2.854,5.265c-0.748,0.57-1.657,0.634-3.173,1.098c-1.513,0.462-9.104,6.842-7.827,9.211
		c0.37,0.688,1.237,1.005,2.367,1.005c2.771,0,7.132-1.906,9.692-4.953c2.101-2.817,2.73-3.842,3.509-3.842
		c0.217,0,0.445,0.08,0.721,0.222c1.263,0.656,1.874,1.07,1.798,2.961c-0.077,1.892-0.516,11.113,0.528,12.612
		c1.044,1.5,5.184,4.606,5.184,4.606v10.311l4.759,6.473h3.385v-0.009h3.213l4.761-6.473v-10.308c0,0,4.135-3.106,5.181-4.606
		c1.046-1.498,0.607-10.721,0.528-12.612c-0.076-1.893,0.538-2.307,1.799-2.962c0.275-0.143,0.505-0.222,0.722-0.222
		c0.78,0,1.408,1.025,3.51,3.842c2.56,3.046,6.922,4.953,9.691,4.953c1.131,0,1.995-0.317,2.365-1.005
		c1.278-2.371-6.313-8.75-7.828-9.214c-1.512-0.463-2.423-0.526-3.171-1.096c-0.682-0.52-3.541-0.74,2.855-5.265
		c8.49-6.325,5.903-7.559,5.607-8.774c-0.051-0.194-0.345-0.573-0.805-1.07C154.115,102.579,147.171,96.714,147.164,96.708
		L147.164,96.708z M108.837,96.715L108.837,96.715L108.837,96.715z"/>
</g>
</svg>
