<?xml version="1.0" encoding="utf-8"?>
<!-- Generator: Adobe Illustrator 16.0.0, SVG Export Plug-In . SVG Version: 6.00 Build 0)  -->
<!DOCTYPE svg PUBLIC "-//W3C//DTD SVG 1.1//EN" "http://www.w3.org/Graphics/SVG/1.1/DTD/svg11.dtd">
<svg version="1.1" xmlns="http://www.w3.org/2000/svg" xmlns:xlink="http://www.w3.org/1999/xlink" x="0px" y="0px" width="64px"
	 height="64px" viewBox="0 0 64 64" enable-background="new 0 0 64 64" xml:space="preserve">
<g>
	<g>
		<g>
			<path fill="#231F20" d="M45.721,36.941c-0.52-0.522-0.52-1.365,0-1.885l0,0l8-8c0.521-0.52,1.367-0.52,1.889,0l0,0
				c0.519,0.519,0.519,1.363,0,1.889l0,0l-8.002,7.997c-0.26,0.264-0.602,0.393-0.942,0.393l0,0
				C46.324,37.334,45.98,37.205,45.721,36.941L45.721,36.941z"/>
		</g>
		<g>
			<path fill="#231F20" d="M53.721,36.941l-8-7.997c-0.52-0.526-0.52-1.37,0-1.889l0,0c0.521-0.52,1.366-0.52,1.887,0l0,0l8.002,8
				c0.519,0.52,0.519,1.361,0,1.885l0,0c-0.262,0.264-0.603,0.393-0.944,0.393l0,0C54.325,37.334,53.982,37.205,53.721,36.941
				L53.721,36.941z"/>
		</g>
	</g>
	<g>
		<g>
			<path fill="#231F20" d="M8.39,52.943c-0.521-0.521-0.521-1.367,0-1.889l0,0l7.999-7.998c0.522-0.521,1.364-0.521,1.886,0l0,0
				c0.521,0.521,0.521,1.365,0,1.887l0,0l-8.001,8c-0.262,0.26-0.602,0.392-0.943,0.392l0,0C8.993,53.333,8.65,53.203,8.39,52.943
				L8.39,52.943z"/>
		</g>
		<g>
			<path fill="#231F20" d="M16.39,52.943l-7.999-8c-0.521-0.521-0.521-1.364,0-1.887l0,0c0.521-0.521,1.364-0.521,1.885,0l0,0
				l8.001,7.998c0.521,0.521,0.521,1.366,0,1.889l0,0c-0.263,0.26-0.602,0.392-0.942,0.392l0,0
				C16.992,53.333,16.651,53.203,16.39,52.943L16.39,52.943z"/>
		</g>
	</g>
	<g>
		<g>
			<path fill="#231F20" d="M27.055,52.943c-0.52-0.521-0.52-1.367,0-1.889l0,0l8.001-7.998c0.519-0.521,1.363-0.521,1.885,0l0,0
				c0.521,0.521,0.521,1.365,0,1.887l0,0l-8,8c-0.261,0.26-0.601,0.392-0.941,0.392l0,0C27.658,53.333,27.316,53.203,27.055,52.943
				L27.055,52.943z"/>
		</g>
		<g>
			<path fill="#231F20" d="M35.057,52.943l-8-8c-0.52-0.521-0.52-1.364,0-1.887l0,0c0.521-0.521,1.364-0.521,1.886,0l0,0
				l8.001,7.998c0.52,0.521,0.52,1.366,0,1.889l0,0c-0.262,0.26-0.604,0.392-0.943,0.392l0,0
				C35.656,53.333,35.316,53.203,35.057,52.943L35.057,52.943z"/>
		</g>
	</g>
	<g>
		<g>
			<path fill="#231F20" d="M27.054,36.941c-0.521-0.522-0.521-1.365,0-1.885l0,0l8-8c0.523-0.52,1.367-0.52,1.889,0l0,0
				c0.52,0.519,0.52,1.363,0,1.889l0,0l-8.001,7.997c-0.261,0.264-0.601,0.393-0.94,0.393l0,0
				C27.658,37.334,27.316,37.205,27.054,36.941L27.054,36.941z"/>
		</g>
		<g>
			<path fill="#231F20" d="M35.055,36.941l-3.999-4c-0.52-0.521-0.52-1.366,0-1.884l0,0c0.52-0.52,1.364-0.52,1.883,0l0,0l4.002,4
				c0.521,0.52,0.521,1.361,0,1.885l0,0c-0.262,0.264-0.603,0.393-0.942,0.393l0,0C35.657,37.334,35.314,37.205,35.055,36.941
				L35.055,36.941z"/>
		</g>
	</g>
	<g>
		<path fill="#231F20" d="M42.667,14.667V3.999C42.667,1.792,44.451,0,46.665,0l0,0c2.211,0,3.998,1.792,4.001,3.999l0,0v10.669
			c-0.003,2.208-1.79,3.996-4.001,3.999l0,0C44.451,18.663,42.667,16.876,42.667,14.667L42.667,14.667z M46.665,16
			c0.735-0.003,1.332-0.599,1.333-1.333l0,0V3.999c-0.001-0.733-0.598-1.331-1.333-1.333l0,0c-0.733,0.002-1.331,0.6-1.333,1.333
			l0,0v10.669C45.333,15.401,45.932,15.998,46.665,16L46.665,16z"/>
	</g>
	<g>
		<path fill="#231F20" d="M38.665,10.667c-0.735,0-1.333-0.595-1.333-1.332l0,0C37.332,8.594,37.93,8,38.665,8l0,0h5.333
			c0.736,0,1.335,0.594,1.335,1.335l0,0c0,0.735-0.599,1.332-1.335,1.332l0,0H38.665L38.665,10.667z"/>
	</g>
	<path fill="#231F20" d="M62.665,63.998H1.333c-0.355,0-0.691-0.135-0.942-0.391l0,0C0.138,63.357,0,63.025,0,62.667l0,0V33.334
		c0-0.734,0.597-1.333,1.334-1.333l0,0c0.736,0,1.331,0.599,1.331,1.333l0,0v28.002h58.668V10.667H49.331
		c-0.735,0-1.332-0.599-1.332-1.333l0,0c0-0.738,0.597-1.335,1.332-1.335l0,0h13.337c0.35,0,0.693,0.146,0.941,0.395l0,0
		C63.857,8.64,64,8.982,64,9.335l0,0v53.334c0,0.353-0.139,0.69-0.391,0.94l0,0C63.357,63.861,63.023,64,62.667,64l0,0h-0.003
		L62.665,63.998L62.665,63.998z"/>
	<path fill="#231F20" d="M46.665,53.333c-0.354,0-0.69-0.138-0.942-0.392l0,0c-0.25-0.252-0.39-0.586-0.39-0.944l0,0V44
		c0-0.354,0.142-0.693,0.39-0.945l0,0c0.248-0.244,0.592-0.392,0.942-0.392l0,0h8c0.356,0,0.692,0.142,0.942,0.396l0,0
		c0.25,0.252,0.392,0.586,0.392,0.941l0,0v7.998c0,0.357-0.14,0.693-0.392,0.945l0,0c-0.25,0.252-0.586,0.392-0.942,0.392l0,0h-8
		V53.333z M54.665,51.998v-1.331V51.998L54.665,51.998z M47.997,50.665h5.336l-0.002-5.331h-5.334V50.665L47.997,50.665z"/>
	<path fill="#231F20" d="M0,17.333C0,7.761,7.758,0,17.332,0l0,0c9.574,0,17.332,7.761,17.332,17.333l0,0
		c0,9.572-7.758,17.333-17.332,17.333l0,0C7.758,34.666,0,26.907,0,17.333L0,17.333z M2.666,17.333
		C2.68,25.431,9.234,31.986,17.333,32l0,0c8.103-0.014,14.65-6.569,14.668-14.667l0,0c-0.019-8.099-6.566-14.65-14.669-14.667l0,0
		C9.234,2.682,2.68,9.234,2.666,17.333L2.666,17.333z"/>
	<path fill="#231F20" d="M6.667,18.666c-0.736,0-1.335-0.596-1.335-1.333l0,0c0-0.735,0.599-1.332,1.335-1.332l0,0h10.667
		c0.733,0,1.332,0.596,1.332,1.332l0,0c0,0.737-0.599,1.333-1.332,1.333l0,0H6.667L6.667,18.666z"/>
	<path fill="#231F20" d="M15.999,17.333V6.666c0-0.735,0.596-1.332,1.335-1.332l0,0c0.733,0,1.332,0.596,1.332,1.332l0,0v10.667
		c0,0.737-0.599,1.333-1.332,1.333l0,0C16.594,18.666,15.999,18.07,15.999,17.333L15.999,17.333z"/>
</g>
</svg>
