<?xml version="1.0" encoding="utf-8"?>
<!-- Generator: Adobe Illustrator 16.0.0, SVG Export Plug-In . SVG Version: 6.00 Build 0)  -->
<!DOCTYPE svg PUBLIC "-//W3C//DTD SVG 1.1//EN" "http://www.w3.org/Graphics/SVG/1.1/DTD/svg11.dtd">
<svg version="1.1" xmlns="http://www.w3.org/2000/svg" xmlns:xlink="http://www.w3.org/1999/xlink" x="0px" y="0px" width="64px"
	 height="64px" viewBox="0 0 64 64" enable-background="new 0 0 64 64" xml:space="preserve">
<g>
	<path fill-rule="evenodd" clip-rule="evenodd" d="M-88.886-70.5c-2.313-0.03-4.61-0.164-6.868-0.727
		c-0.969-0.241-1.621-0.763-2.038-1.638c-0.716-1.496-1.085-3.079-1.307-4.698c-0.359-2.629-0.252-5.247,0.256-7.853
		c0.064-0.329,0.213-0.566,0.471-0.786c2.432-2.072,5.335-2.974,8.497-3.265c2.475-0.227,4.894,0.098,7.305,0.604
		c0.526,0.111,0.845,0.372,1.093,0.817c1.196,2.152,1.69,4.426,1.232,6.848c-0.187,0.986,0.104,1.928,0.15,2.891
		c0.054,1.123,0.049,2.236-0.104,3.345c-0.042,0.303-0.095,0.605-0.16,0.908c-0.379,1.757-1.483,2.733-3.278,3.08
		C-85.373-70.637-87.12-70.492-88.886-70.5z"/>
	<path d="M-92.202-30.956c0.166,0.008,0.324,0.027,0.48,0.051c0.258-0.057,0.533-0.09,0.819-0.107
		c0.103-0.027,0.201-0.058,0.307-0.078c-0.134,0.013-0.267,0.028-0.402,0.034c0.553-0.103,1.095-0.231,1.629-0.397
		c0.014-0.004,0.028-0.012,0.042-0.018c0.008-0.002,0.016-0.002,0.024-0.004c0.181-0.057,0.366-0.101,0.543-0.174
		c0.415-0.173,0.681-0.43,0.789-0.875c0.189-0.763,0.326-1.531,0.35-2.317c0.071-2.484-0.394-4.896-1.019-7.289
		c-0.116-0.443-0.338-0.621-0.782-0.659c-1.274-0.104-2.527-0.34-3.758-0.677c-1.838-0.504-3.581-1.19-4.932-2.572
		c-0.197-0.202-0.316-0.2-0.485,0.025c-0.473,0.636-0.992,1.235-1.537,1.815c-0.162,0.172-0.206,0.384-0.232,0.604
		c-0.195,1.657-0.242,3.312-0.007,4.967c0.308,2.157,0.999,4.176,2.308,5.971c0.212,0.292,0.522,0.519,0.623,0.881
		c0.382,0.218,0.74,0.441,1.212,0.511c1.555,0.228,3.112,0.317,4.683,0.264C-91.766-30.979-91.984-30.974-92.202-30.956z"/>
	<path d="M-87.272-34.062c-0.029,0.559-0.139,1.096-0.337,1.619c0.412-0.374,0.84-0.726,1.361-0.945
		c1.494-0.629,2.716-1.006,4.348-1.148c0.101-0.009,0.201-0.007,0.302-0.007c0.302-1.166,0.365-2.359,0.233-3.569
		c-0.078-0.726-0.128-1.455,0.173-2.131c0.208-0.471,0.045-0.704-0.358-0.893c-0.13-0.063-0.261-0.124-0.396-0.177
		c-1.828-0.722-3.763-1.01-5.692-1.314c-0.708-0.112-0.704-0.106-0.556,0.557C-87.603-39.433-87.128-36.779-87.272-34.062z"/>
	<path fill-rule="evenodd" clip-rule="evenodd" d="M-101.111-59.634c1.19-0.024,2.426-0.151,3.637-0.447
		c0.298-0.071,0.476-0.051,0.561,0.294c1.253,5.064,0.619,9.83-2.391,14.214c-0.791,1.151-1.745,2.172-2.871,3.037
		c-0.562,0.432-1.164,0.788-1.844,1.019c-1.225,0.415-2.409,0.911-3.5,1.601c-0.255,0.161-0.402,0.133-0.5-0.157
		c-0.564-1.667-0.628-3.314,0.159-4.944c0.159-0.331,0.363-0.464,0.748-0.432c0.614,0.051,1.221-0.062,1.829-0.157
		c0.369-0.059,0.484-0.246,0.451-0.585c-0.087-0.87-0.388-1.676-0.738-2.472c-0.835-1.894-1.997-3.616-3.018-5.414
		c-0.054-0.094-0.104-0.194-0.168-0.283c-0.616-0.865-0.618-1.659,0.014-2.583c0.693-1.012,1.196-2.147,1.751-3.244
		c0.178-0.354,0.352-0.447,0.743-0.299C-104.617-59.872-102.909-59.658-101.111-59.634z"/>
	<path fill-rule="evenodd" clip-rule="evenodd" d="M-86.796-61.61c1.633,0.008,3.254,0.147,4.872,0.371
		c0.403,0.055,0.585,0.216,0.597,0.631c0.058,2.221,0.139,4.442,0.209,6.666c0.033,1.031,0.059,2.063,0.094,3.098
		c0.01,0.286-0.052,0.461-0.408,0.365c-2.754-0.742-5.519-0.52-8.31-0.179c-2.063,0.255-4.085-0.117-6.019-0.886
		c-0.307-0.121-0.402-0.291-0.354-0.61c0.388-2.574,0.229-5.119-0.49-7.627c-0.098-0.339,0.057-0.443,0.346-0.528
		c1.674-0.491,3.387-0.801,5.118-1.017C-89.7-61.509-88.252-61.608-86.796-61.61z"/>
	<path fill-rule="evenodd" clip-rule="evenodd" d="M-97.139-63.83c-0.046-2.15,0.295-3.768,0.491-5.399
		c0.072-0.599,0.082-1.192-0.064-1.775c-0.093-0.369,0.006-0.409,0.344-0.307c1.205,0.366,2.434,0.625,3.688,0.788
		c2.53,0.327,5.057,0.267,7.58-0.065c1.059-0.139,2.106-0.327,3.136-0.601c0.299-0.079,0.506-0.083,0.484,0.315
		c-0.014,0.264,0.047,0.53,0.05,0.796c0.031,2.537,0.09,5.074,0.01,7.611c-0.005,0.156-0.016,0.314-0.017,0.469
		c-0.001,0.354-0.134,0.51-0.535,0.43c-1.991-0.399-4.009-0.44-6.031-0.378c-2.807,0.085-5.555,0.547-8.253,1.289
		c-0.422,0.116-0.599,0.087-0.659-0.394C-97.054-62.139-97.106-63.232-97.139-63.83z"/>
	<path fill-rule="evenodd" clip-rule="evenodd" d="M-80.351-44.969c-0.01,1.146-0.128,2.28-0.315,3.412
		c-0.062,0.363-0.145,0.486-0.544,0.24c-0.812-0.504-1.748-0.728-2.677-0.939c-1.813-0.415-3.661-0.587-5.507-0.791
		c-2.871-0.318-5.633-0.971-8.004-2.698c-0.104-0.076-0.196-0.165-0.302-0.237c-0.356-0.246-0.407-0.512-0.214-0.92
		c0.611-1.298,1.108-2.643,1.491-4.021c0.117-0.422,0.276-0.508,0.705-0.339c1.637,0.635,3.338,1.004,5.108,0.919
		c1.144-0.056,2.281-0.222,3.423-0.308c1.831-0.134,3.646-0.057,5.435,0.403c0.531,0.136,0.8,0.408,0.91,0.943
		C-80.544-47.872-80.36-46.432-80.351-44.969z"/>
	<path fill-rule="evenodd" clip-rule="evenodd" d="M-101.233-60.062c-1.642,0.068-3.248-0.241-4.817-0.778
		c-0.459-0.155-0.617-0.367-0.577-0.892c0.197-2.623,0.056-5.227-0.657-7.781c-0.121-0.434-0.396-0.786-0.649-1.146
		c-0.617-0.876-1.105-1.803-1.321-2.853c-0.108-0.528-0.043-0.58,0.499-0.418c1.466,0.436,2.941,0.847,4.399,1.309
		c1.552,0.492,3.159,0.612,4.766,0.753c0.658,0.058,1.317,0.136,1.978,0.163c0.416,0.018,0.553,0.223,0.607,0.578
		c0.151,0.988,0.065,1.971-0.077,2.948c-0.216,1.488-0.397,2.976-0.355,4.484c0.025,0.926,0.103,1.843,0.283,2.75
		c0.064,0.316-0.015,0.451-0.35,0.518C-98.726-60.183-99.954-60.019-101.233-60.062z"/>
	<path fill-rule="evenodd" clip-rule="evenodd" d="M-110.565-78.772c0.008-0.138,0.02-0.326,0.034-0.513
		c0.025-0.349,0.196-0.563,0.558-0.672c3.192-0.968,6.011-2.585,8.585-4.634c0.546-0.436,1.099-0.88,1.771-1.138
		c0.476-0.183,0.552-0.13,0.46,0.352c-0.376,1.981-0.482,3.98-0.396,5.989c0.108,2.503,0.637,4.907,1.922,7.112
		c0.155,0.267,0.172,0.397-0.211,0.371c-3.526-0.25-6.992-0.778-10.292-2.093c-0.6-0.239-1.018-0.617-1.327-1.164
		C-110.089-76.277-110.558-77.43-110.565-78.772z"/>
	<path fill-rule="evenodd" clip-rule="evenodd" d="M-94.35-93.773c2.662-0.02,5.052-0.055,7.407-0.517
		c0.265-0.051,0.457,0.011,0.578,0.223c0.582,1.024,1.477,1.731,2.437,2.405c0.728,0.512,1.192,1.267,1.556,2.065
		c0.052,0.112,0.156,0.242,0.075,0.352c-0.11,0.148-0.271,0.029-0.4-0.003c-3.15-0.782-6.313-0.879-9.496-0.189
		c-2.188,0.476-4.197,1.337-6.03,2.586c-1.037,0.706-2.26,1.076-3.329,1.724c-0.175,0.106-0.303,0.015-0.418-0.114
		c-1.439-1.606-2.348-3.472-2.882-5.522c-0.092-0.354,0.143-0.426,0.394-0.521c2.303-0.875,4.655-1.604,7.014-2.318
		C-96.324-93.941-95.197-93.685-94.35-93.773z"/>
	<path fill-rule="evenodd" clip-rule="evenodd" d="M-113.074-80.151c0.121-2.746,1.113-5.158,2.977-7.226
		c1.234-1.37,2.686-2.479,4.354-3.317c0.339-0.17,0.481-0.108,0.559,0.259c0.437,2.06,1.456,3.839,2.86,5.416
		c0.265,0.296,0.257,0.459-0.038,0.717c-1.421,1.241-3.06,2.144-4.787,2.9c-1.666,0.729-3.384,1.326-5.141,1.814
		C-113.068-79.372-113.085-79.386-113.074-80.151z"/>
	<path fill-rule="evenodd" clip-rule="evenodd" d="M-97.446-31.778c0.054,0.106,0.213,0.155,0.157,0.381
		c-0.965-0.321-1.927-0.621-2.875-0.96c-1.076-0.385-2.132-0.82-3.137-1.365c-0.564-0.308-1.199-0.195-1.8-0.272
		c-0.285-0.039-0.526-0.098-0.75-0.271c-1.574-1.231-2.277-2.8-1.992-4.764c0.042-0.287,0.183-0.48,0.426-0.644
		c0.981-0.655,2.036-1.165,3.191-1.439c1.321-0.315,2.328-1.047,3.14-2.071c0.083-0.108,0.137-0.252,0.338-0.301
		c0.078,0.243,0.024,0.49,0.003,0.729c-0.204,2.254-0.052,4.477,0.625,6.649c0.518,1.658,1.301,3.172,2.681,4.334L-97.446-31.778z"
		/>
</g>
<path fill-rule="evenodd" clip-rule="evenodd" fill="none" stroke="#FFFFFF" stroke-miterlimit="10" d="M-99.099-77.563"/>
<path fill-rule="evenodd" clip-rule="evenodd" fill="none" d="M-76.47-103.922c-0.056,1.836,0.139,3.745-0.854,5.375
	c-2.562,4.198-4.296,8.609-4.337,13.624c-0.014,1.734-0.773,3.603-2.711,3.663c-2.477,0.078-2.1-2.216-2.073-3.745
	c0.146-8.242-1.445-16.21-3.384-24.161c-0.582-2.388-0.567-4.945-0.634-7.43c-0.072-2.693,0.705-5.043,3.754-5.669
	c3.049-0.626,5.229,0.743,6.472,3.462C-78.079-114.082-76.532-109.182-76.47-103.922z"/>
<path fill-rule="evenodd" clip-rule="evenodd" fill="none" d="M-90.301-56.569c-0.417,3.123-0.826,6.247-1.253,9.369
	c-0.214,1.563-0.721,3.011-2.493,3.32c-1.913,0.334-3.277-0.72-3.974-2.354c-2.632-6.167-3.725-12.744-4.77-19.305
	c-0.353-2.217,1.294-2.703,3.233-2.652c6.531,0.174,8.441,1.966,8.935,8.597c0.074,0.992,0.01,1.994,0.01,2.992
	C-90.508-56.592-90.404-56.58-90.301-56.569z"/>
<path fill-rule="evenodd" clip-rule="evenodd" fill="none" d="M-79.755,155.752c-2.622-0.805-3.979-3.048-5.242-5.331
	c-3.658-6.611-5.349-14.326-11.363-19.634c-1.542-1.36-1.148-3.421,0.26-4.936c1.691-1.821,3.507-3.845,6.151-3.796
	c2.336,0.044,2.561,2.405,2.799,4.131c1.299,9.415,3.498,18.546,7.876,27.061C-78.902,153.971-78.734,154.829-79.755,155.752z"/>
<path fill-rule="evenodd" clip-rule="evenodd" fill="none" d="M-65.422,181.417c0.057-2.323,0.384-5.34,3.919-4.421
	c2.989,0.778,6.949-1.328,8.886,2.316c0.699,1.316-7.206,7.492-9.363,7.543C-64.19,186.907-65.37,185.154-65.422,181.417z"/>
<path fill-rule="evenodd" clip-rule="evenodd" fill="none" d="M182.313-12.845c-0.798,5.826-2.232,9.949-7.461,11.358
	c-3.275,0.883-5.969,2.803-8.737,4.681c-3.04,2.063-6.276,0.53-5.249-2.489c2.483-7.306,1.646-16.056,9.146-21.381
	c2.417-1.717,3.788-2.551,5.255,0.604c0.817,1.756,2.445,2.659,4.047,3.569C181.168-15.448,182.449-14.03,182.313-12.845z"/>
<path fill-rule="evenodd" clip-rule="evenodd" fill="none" d="M143.421-75.26c0.077,6.826-0.948,8.074-5.353,6.899
	c-2.779-0.741-3.905-2.518-3.342-5.117c0.445-2.056,1.346-4.05,2.29-5.949c0.854-1.717,1.741-3.986,4.224-3.35
	c2.135,0.547,2.02,2.761,2.166,4.552C143.487-77.242,143.421-76.248,143.421-75.26z"/>
<path fill-rule="evenodd" clip-rule="evenodd" fill="none" d="M174.515-46.655c0.073-4.989,6.521-9.85,11.313-8.553
	c1.242,0.336,2.111,1.022,2.314,2.306c0.229,1.447-0.304,2.796-1.564,3.411c-3.309,1.614-6.459,3.381-8.926,6.201
	c-0.544,0.622-1.438,1.06-2.211,0.373C174.324-43.911,174.59-45.348,174.515-46.655z"/>
<g>
	<path fill-rule="evenodd" clip-rule="evenodd" d="M26.819,12.437c0.325-0.097,0.432,0.137,0.608,0.204
		c0.259,0.099,0.532,0.201,0.752-0.009c0.344-0.33,0.619-0.702,1.155-0.26c0.175,0.145,0.345-0.131,0.424-0.315
		c0.253-0.589,0.141-1.15-0.195-1.664c-0.465-0.712-0.975-1.395-1.427-2.115c-0.637-1.014-1.082-2.067-0.539-3.3
		c0.099-0.224,0.021-0.529,0.016-0.797c-0.009-0.397,0.052-0.75,0.402-1.011c0.377-0.281,0.337-0.603-0.006-0.89
		c-0.542-0.453-0.445-1.044-0.313-1.613c0.092-0.393,0.428-0.565,0.817-0.559c0.36,0.006,0.674,0.164,0.771,0.53
		c0.153,0.573,0.234,1.156-0.303,1.609c-0.368,0.311-0.372,0.628-0.003,0.944c0.051,0.043,0.134,0.079,0.147,0.131
		c0.171,0.678,0.697,1.009,1.23,1.351c0.174,0.112,0.378,0.349,0.181,0.565c-0.202,0.222-0.345-0.057-0.481-0.176
		c-0.326-0.281-0.624-0.422-0.944,0.022c-0.133,0.185-0.369,0.294-0.591,0.26c-0.559-0.09-0.619,0.235-0.629,0.67
		c-0.015,0.584,0.181,1.1,0.447,1.6c0.392,0.735,0.909,1.383,1.385,2.06c0.601,0.854,0.91,1.75,0.432,2.772
		c-0.148,0.316-0.034,0.562,0.249,0.657c1.653,0.556,2.151,1.884,2.52,3.459c0.479,2.05,1.595,3.78,3.442,4.852
		c1.638,0.949,2.687,2.282,3.161,4.12c0.129,0.496,0.339,0.976,0.56,1.441c0.452,0.955,0.36,1.872-0.114,2.778
		c-0.344,0.655-0.699,1.303-1.044,1.956c-0.629,1.191-0.693,2.473-0.681,3.793c0.026,2.678,0.896,5.215,1.188,7.847
		c0.237,2.145,0.416,4.293,0.474,6.447c0.067,2.49,0.233,4.983,0.015,7.476c-0.051,0.573,0.063,1.063,0.54,1.434
		c0.296,0.232,0.324,0.566,0.264,0.921c-0.158,0.924-0.608,1.624-1.464,2.034c-0.905,0.435-1.859,0.729-2.806,1.049
		c-0.491,0.168-0.908-0.037-1.314-0.295c-1.167-0.74-2.364-1.415-3.647-1.938c-1.215-0.495-2.304-0.418-3.363,0.434
		c-1.063,0.854-2.051,1.786-3.049,2.712c-0.338,0.313-0.66,0.631-1.157,0.284c-0.584-0.406-0.831-0.989-0.6-1.546
		c0.417-1,1.083-1.853,1.651-2.764c0.914-1.465,1.508-3.02,1.243-4.778c-0.212-1.403-0.277-2.813-0.357-4.226
		c-0.196-3.434,0.439-6.748,1.363-10.027c1.214-4.309,2.032-8.702,2.441-13.157c0.419-4.56-0.203-9.003-1.819-13.299
		C27.616,13.48,27.207,12.991,26.819,12.437z M37.464,31.336c0.019-0.16-0.152-0.352-0.399-0.494
		c-0.213-0.123-0.43-0.245-0.538-0.481c-0.195-0.425-0.378-0.313-0.699-0.082c-0.999,0.719-0.888,1.899-1.218,2.884
		c-0.137,0.407,0.294,0.614,0.698,0.336c0.369-0.254,0.728-0.513,1.164-0.632C37.167,32.678,37.358,32.122,37.464,31.336z
		 M32.287,22.917c0-0.133,0.009-0.268-0.002-0.4c-0.02-0.242-0.004-0.54-0.289-0.614c-0.33-0.085-0.448,0.221-0.562,0.452
		c-0.126,0.255-0.246,0.525-0.306,0.802c-0.075,0.351,0.075,0.59,0.445,0.69C32.16,24.006,32.297,23.837,32.287,22.917z
		 M36.426,26.775c0.011,0.176-0.025,0.37,0.124,0.504c0.103,0.093,0.222,0.034,0.294-0.05c0.328-0.38,0.748-0.619,1.188-0.836
		c0.167-0.083,0.238-0.265,0.208-0.46c-0.027-0.173-0.143-0.266-0.308-0.311C37.294,25.447,36.437,26.102,36.426,26.775z"/>
	<g>
		<path fill="#FFFFFF" d="M37.868,41.52c0,0-0.371-0.164-0.934-0.385c-0.558-0.23-1.308-0.519-2.067-0.772
			c-0.379-0.128-0.765-0.234-1.124-0.343c-0.366-0.082-0.708-0.158-1.001-0.223c-0.599-0.068-0.999-0.114-0.999-0.114
			s0.4-0.021,1.017-0.025c0.303,0.044,0.655,0.096,1.033,0.151c0.368,0.1,0.764,0.197,1.152,0.316
			c0.767,0.274,1.516,0.589,2.049,0.883C37.532,41.292,37.868,41.52,37.868,41.52z"/>
	</g>
	<g>
		<path fill="#FFFFFF" d="M37.365,42.44c0,0-0.371-0.164-0.934-0.385c-0.558-0.23-1.308-0.519-2.067-0.772
			c-0.379-0.128-0.765-0.234-1.124-0.343c-0.366-0.082-0.708-0.158-1-0.223c-0.6-0.068-1-0.114-1-0.114s0.4-0.021,1.017-0.025
			c0.303,0.044,0.655,0.096,1.033,0.151c0.368,0.1,0.764,0.197,1.152,0.316c0.767,0.274,1.516,0.589,2.049,0.883
			C37.029,42.213,37.365,42.44,37.365,42.44z"/>
	</g>
	<g>
		<path fill="#FFFFFF" d="M36.606,43.36c0,0-0.371-0.164-0.934-0.384c-0.559-0.23-1.309-0.519-2.067-0.772
			c-0.38-0.127-0.765-0.234-1.125-0.343c-0.366-0.081-0.708-0.157-1-0.222c-0.599-0.068-0.999-0.114-0.999-0.114
			s0.4-0.021,1.016-0.025c0.303,0.044,0.656,0.096,1.034,0.15c0.367,0.1,0.764,0.197,1.152,0.316
			c0.766,0.274,1.516,0.589,2.049,0.883C36.271,43.133,36.606,43.36,36.606,43.36z"/>
	</g>
	<g>
		<path fill="#FFFFFF" d="M36.375,44.282c0,0-0.371-0.164-0.934-0.384c-0.559-0.231-1.309-0.52-2.067-0.772
			c-0.38-0.128-0.765-0.235-1.124-0.344c-0.366-0.081-0.708-0.157-1.001-0.222c-0.599-0.068-0.999-0.114-0.999-0.114
			s0.4-0.021,1.016-0.025c0.303,0.044,0.656,0.096,1.034,0.15c0.368,0.1,0.764,0.197,1.152,0.317
			c0.766,0.274,1.516,0.588,2.049,0.883C36.039,44.055,36.375,44.282,36.375,44.282z"/>
	</g>
	<g>
		<path fill="#FFFFFF" d="M37.868,46.142c0,0-0.447-0.256-1.134-0.601c-0.337-0.187-0.745-0.371-1.176-0.581
			c-0.424-0.226-0.905-0.399-1.371-0.605c-0.229-0.113-0.477-0.179-0.71-0.27c-0.236-0.085-0.469-0.168-0.693-0.248
			c-0.462-0.119-0.894-0.229-1.264-0.324c-0.762-0.086-1.271-0.143-1.271-0.143s0.128-0.001,0.353-0.003
			c0.224,0.004,0.55-0.017,0.939,0.006c0.379,0.076,0.829,0.146,1.303,0.256c0.23,0.076,0.468,0.155,0.71,0.235
			c0.238,0.087,0.493,0.148,0.727,0.259c0.95,0.408,1.872,0.876,2.522,1.296C37.462,45.825,37.868,46.142,37.868,46.142z"/>
	</g>
	<g>
		<path fill="#FFFFFF" d="M37.353,47.063c0,0-0.447-0.256-1.134-0.601c-0.337-0.187-0.745-0.371-1.176-0.581
			c-0.424-0.226-0.905-0.399-1.371-0.605c-0.229-0.113-0.477-0.179-0.71-0.27c-0.236-0.085-0.469-0.168-0.694-0.248
			c-0.462-0.119-0.894-0.229-1.263-0.324c-0.762-0.086-1.271-0.143-1.271-0.143s0.128-0.001,0.353-0.003
			c0.224,0.004,0.55-0.017,0.939,0.006c0.379,0.076,0.829,0.146,1.303,0.255c0.23,0.077,0.468,0.156,0.71,0.236
			c0.238,0.087,0.493,0.148,0.727,0.259c0.95,0.408,1.872,0.876,2.522,1.296C36.946,46.746,37.353,47.063,37.353,47.063z"/>
	</g>
	<g>
		<path fill="#FFFFFF" d="M37.868,48.092c0,0-0.447-0.256-1.134-0.601c-0.337-0.187-0.745-0.371-1.176-0.581
			c-0.424-0.226-0.905-0.399-1.371-0.605c-0.229-0.113-0.477-0.179-0.71-0.27c-0.236-0.085-0.469-0.168-0.693-0.248
			c-0.462-0.119-0.894-0.229-1.264-0.324c-0.762-0.086-1.271-0.143-1.271-0.143s0.128-0.001,0.353-0.003
			c0.224,0.004,0.55-0.017,0.939,0.006c0.379,0.076,0.829,0.146,1.303,0.255c0.23,0.077,0.468,0.156,0.71,0.236
			c0.238,0.087,0.493,0.148,0.727,0.259c0.95,0.408,1.872,0.876,2.522,1.296C37.462,47.775,37.868,48.092,37.868,48.092z"/>
	</g>
	<g>
		<path fill="#FFFFFF" d="M36.714,48.169c0,0-0.384-0.156-0.965-0.365c-0.58-0.21-1.356-0.482-2.149-0.68
			c-0.788-0.217-1.597-0.342-2.208-0.347c-0.611-0.008-1.018,0.096-1.018,0.096s0.099-0.032,0.271-0.088
			c0.171-0.065,0.429-0.114,0.742-0.148c0.313-0.019,0.682-0.027,1.071,0.021c0.389,0.05,0.801,0.122,1.205,0.226
			c0.806,0.218,1.582,0.518,2.141,0.792C36.362,47.948,36.714,48.169,36.714,48.169z"/>
	</g>
	<g>
		<path fill="#FFFFFF" d="M37.19,49.513c0,0-0.442-0.168-1.112-0.389c-0.67-0.223-1.566-0.508-2.479-0.707
			c-0.909-0.22-1.84-0.337-2.54-0.326c-0.347,0.021-0.644,0.019-0.843,0.07c-0.204,0.036-0.32,0.057-0.32,0.057
			s0.113-0.035,0.31-0.098c0.196-0.072,0.49-0.127,0.846-0.17c0.356-0.026,0.776-0.041,1.222,0.002
			c0.445,0.048,0.917,0.117,1.38,0.222c0.926,0.22,1.824,0.531,2.475,0.819C36.778,49.278,37.19,49.513,37.19,49.513z"/>
	</g>
	<g>
		<path fill="#FFFFFF" d="M36.96,50.963c0,0-0.442-0.168-1.112-0.389c-0.67-0.223-1.566-0.508-2.479-0.707
			c-0.909-0.22-1.84-0.337-2.54-0.326c-0.347,0.021-0.644,0.02-0.843,0.071c-0.204,0.036-0.32,0.057-0.32,0.057
			s0.113-0.036,0.31-0.098c0.196-0.072,0.49-0.128,0.846-0.171c0.356-0.025,0.776-0.04,1.222,0.003
			c0.444,0.047,0.917,0.116,1.38,0.221c0.926,0.22,1.824,0.532,2.475,0.819C36.548,50.729,36.96,50.963,36.96,50.963z"/>
	</g>
	<g>
		<path fill="#FFFFFF" d="M36.96,52.091c0,0-0.442-0.168-1.112-0.389c-0.67-0.222-1.566-0.507-2.48-0.706
			c-0.909-0.22-1.839-0.337-2.539-0.326c-0.347,0.021-0.644,0.02-0.843,0.07c-0.204,0.036-0.32,0.057-0.32,0.057
			s0.113-0.035,0.31-0.098c0.196-0.072,0.49-0.127,0.846-0.17c0.356-0.026,0.776-0.041,1.222,0.002
			c0.444,0.047,0.917,0.117,1.38,0.221c0.926,0.22,1.824,0.532,2.475,0.819C36.548,51.857,36.96,52.091,36.96,52.091z"/>
	</g>
	<path fill-rule="evenodd" clip-rule="evenodd" fill="#FFFFFF" d="M24.563,62.543c0,0,3.5-4.434,3.25-6.08
		c-0.25-1.646,0.705,2.217,0.705,2.217L24.563,62.543z"/>
	<path fill-rule="evenodd" clip-rule="evenodd" fill="#FFFFFF" d="M30.145,56.78c0,0,2.25,1.394,3.063,1.329
		c0.813-0.063,2.063-1.329,2.375-1.329s0.188,2.379,0,2.52c-0.188,0.14-1.873,0.429-2.624,0
		C32.207,58.869,30.145,56.78,30.145,56.78z"/>
	<path fill-rule="evenodd" clip-rule="evenodd" fill="#FFFFFF" d="M36.606,55.729l-0.231-1.141L37,52.816c0,0,0.23-1.52,0.365-1.837
		c0.135-0.316,1.947-0.696,2.01,0c0.063,0.697-0.688,2.66-0.688,2.66l-0.819,1.52C37.868,55.159,36.65,54.02,36.606,55.729z"/>
	<g>
		<path fill="#FFFFFF" d="M36.96,53.91c0,0-0.442-0.168-1.112-0.39s-1.566-0.507-2.479-0.706c-0.909-0.22-1.84-0.338-2.54-0.327
			c-0.347,0.021-0.644,0.02-0.843,0.071c-0.204,0.036-0.32,0.057-0.32,0.057s0.113-0.035,0.31-0.098
			c0.196-0.072,0.49-0.128,0.846-0.171c0.356-0.025,0.776-0.04,1.222,0.003c0.444,0.047,0.917,0.117,1.38,0.221
			c0.927,0.221,1.824,0.532,2.475,0.819C36.548,53.676,36.96,53.91,36.96,53.91z"/>
	</g>
</g>
</svg>
