<?xml version="1.0" encoding="utf-8"?>
<!-- Generator: Adobe Illustrator 16.0.0, SVG Export Plug-In . SVG Version: 6.00 Build 0)  -->
<!DOCTYPE svg PUBLIC "-//W3C//DTD SVG 1.1//EN" "http://www.w3.org/Graphics/SVG/1.1/DTD/svg11.dtd">
<svg version="1.1" xmlns="http://www.w3.org/2000/svg" xmlns:xlink="http://www.w3.org/1999/xlink" x="0px" y="0px" width="64px"
	 height="64px" viewBox="0 0 64 64" enable-background="new 0 0 64 64" xml:space="preserve">
<g>
	<g>
		<path d="M17.669,2.108c-0.001,1.108-0.002,2.216-0.004,3.325c-0.006,4.29-0.012,8.725,0.013,13.091
			c0.008,1.227-0.411,2.392-1.401,3.896c-1.188,1.807-2.822,3.437-5.298,5.288c-0.777,0.582-1.562,1.153-2.347,1.726
			c-0.788,0.574-1.576,1.148-2.354,1.73c-1.955,1.459-3.097,3.31-3.393,5.498c-0.487,3.564,0.326,6.33,2.485,8.456
			c1.243,1.221,2.834,1.905,4.728,2.035c0.279,0.02,0.557,0.03,0.834,0.03c1.157,0,2.198-0.179,3.179-0.546
			c2.566-0.958,3.88-2.767,4.017-5.528c0.025-0.492,0.038-0.986,0.051-1.48c0.021-0.808,0.042-1.569,0.114-2.314
			c0.07-0.718,0.211-1.342,0.428-1.881c-0.042,0.249-0.075,0.501-0.097,0.757c-0.077,0.897-0.086,1.777-0.096,2.627
			c-0.005,0.516-0.011,1.032-0.032,1.548c-0.068,1.62-0.337,2.891-0.844,3.996c-0.832,1.807-2.211,2.873-4.339,3.355
			c-0.37,0.084-0.776,0.14-1.207,0.2c-0.164,0.022-0.327,0.045-0.491,0.069h-1.243c-0.198-0.032-0.397-0.061-0.596-0.09
			c-0.488-0.07-0.949-0.138-1.338-0.25c-3.268-0.947-5.256-3.023-6.078-6.348c-0.82-3.315-0.265-6.219,1.697-8.875
			c0.905-1.226,2.12-2.193,3.19-2.979c0.569-0.418,1.108-0.855,1.629-1.278l0.164-0.133c1.883-1.538,2.041-4.522,1.007-6.232
			c-0.33-0.55-0.797-1.031-1.474-1.513c-0.386-0.275-0.764-0.461-1.097-0.625c-0.122-0.06-0.244-0.119-0.369-0.188
			c-0.129-0.07-0.305-0.166-0.369-0.688c-0.048-0.4-0.055-0.83-0.055-1.161C6.683,12.962,6.683,8.295,6.684,3.631V2.108H17.669
			 M19.647,0.108c-4.989,0-9.958,0-14.964,0c0,0.191,0,0.358,0,0.524c0,5.664-0.001,11.332,0.004,16.997
			c0,0.467,0.013,0.938,0.069,1.399c0.117,0.949,0.526,1.731,1.401,2.206c0.419,0.229,0.873,0.408,1.259,0.683
			c0.348,0.249,0.702,0.551,0.919,0.913c0.515,0.852,0.545,2.755-0.557,3.655c-0.565,0.458-1.128,0.918-1.713,1.349
			c-1.345,0.987-2.615,2.049-3.614,3.402c-2.357,3.191-2.967,6.752-2.03,10.543c0.985,3.985,3.484,6.635,7.462,7.788
			c0.754,0.218,1.549,0.285,2.325,0.419c0.521,0,1.039,0,1.56,0c0.664-0.104,1.333-0.171,1.988-0.319
			c2.602-0.59,4.577-2.002,5.713-4.469c0.691-1.506,0.957-3.111,1.025-4.749c0.058-1.362,0.006-2.73,0.123-4.087
			c0.184-2.122,1.259-3.775,2.926-5.063c0.259-0.201,0.516-0.402,0.775-0.603c-0.014-0.044-0.025-0.088-0.038-0.133
			c-0.886,0.107-1.784,0.142-2.65,0.332c-3.509,0.769-5.027,3.151-5.327,6.225c-0.126,1.29-0.107,2.593-0.172,3.889
			c-0.087,1.765-0.756,3.022-2.719,3.755c-0.805,0.301-1.634,0.42-2.48,0.42c-0.23,0-0.462-0.009-0.694-0.025
			c-1.328-0.091-2.512-0.53-3.466-1.467c-1.913-1.884-2.25-4.233-1.905-6.759c0.241-1.776,1.206-3.119,2.608-4.166
			c1.558-1.165,3.146-2.292,4.703-3.458c2.205-1.647,4.238-3.459,5.771-5.79c1.008-1.533,1.742-3.106,1.73-5.007
			c-0.034-6.029-0.01-12.059-0.008-18.09C19.67,0.322,19.657,0.221,19.647,0.108L19.647,0.108z"/>
	</g>
	<g>
		<path d="M39.658,24.188c0.019,0,0.037,0.001,0.051,0.003c0.146,0.016,0.294,0.023,0.441,0.023c0.132,0,0.263-0.006,0.394-0.013
			l0.087-0.004l0.047-0.001h0.005c0.162,0,0.408,0.042,0.866,0.347c0.158,0.128,0.54,0.416,1.115,0.5l0.428,0.063
			c0.503,0.075,1.022,0.153,1.59,0.181c0.411,0.02,0.824,0.029,1.237,0.029c0.433,0,0.865-0.01,1.295-0.027
			c0.255-0.01,0.503-0.029,0.744-0.051c-0.67,0.317-1.125,0.894-1.248,1.622c-0.112,0.756,0.168,1.543,0.727,2.048
			c0.353,0.321,0.709,0.638,1.064,0.956c0.549,0.489,1.098,0.978,1.632,1.48c0.389,0.366,0.701,0.91,1.063,1.539l0.114,0.197
			c0.22,0.383,0.45,0.725,0.673,1.055c0.112,0.168,0.226,0.334,0.333,0.502c0.615,0.967,1.395,1.706,2.081,2.358
			c0.242,0.229,0.483,0.458,0.717,0.698c0.412,0.424,0.854,0.761,1.243,1.059c0.138,0.106,0.276,0.212,0.415,0.324l0.649,0.519
			c0.445,0.356,0.891,0.713,1.334,1.075l0.413,0.335c0.478,0.386,0.928,0.75,1.356,1.131c0.411,0.365,0.839,0.752,1.24,1.153
			c-0.191,0.175-0.405,0.36-0.648,0.563c-0.133,0.111-0.32,0.235-0.518,0.366l-0.252,0.169c-0.167,0.114-0.333,0.229-0.499,0.345
			c-0.401,0.28-0.782,0.546-1.157,0.77c-0.069,0.024-0.228,0.061-0.335,0.086l-0.122,0.028c-0.495,0.113-1.078,0.241-1.656,0.33
			c-0.19,0.029-0.421,0.042-0.688,0.056c-0.092,0.006-0.185,0.011-0.279,0.017c-0.239-0.021-0.482-0.038-0.728-0.055
			c-0.605-0.041-1.177-0.079-1.678-0.192c-0.832-0.188-1.606-0.211-2.188-0.211c-0.277,0-0.554,0.006-0.831,0.013
			c-0.244,0.006-0.489,0.012-0.734,0.012c-0.117,0-0.234-0.001-0.35-0.005c-0.103-0.003-0.205-0.005-0.308-0.005
			c-0.438,0-0.847,0.028-1.243,0.056c-0.345,0.023-0.671,0.046-0.971,0.046c-0.626,0-1.274-0.054-1.962-0.11l-0.119-0.01
			l-0.255-0.021c-0.439-0.033-0.854-0.065-1.181-0.147c-0.235-0.059-0.573-0.236-0.9-0.407L42.1,44.946
			c-0.048-0.026-0.175-0.124-0.267-0.195c-0.114-0.088-0.229-0.175-0.335-0.25c-0.559-0.4-1.096-0.484-1.448-0.484
			c-0.431,0-1.502,0.136-2.147,1.379c-0.326,0.62-0.378,1.191-0.412,1.569l-0.01,0.109c-0.012,0.109-0.082,0.331-0.144,0.527
			c-0.053,0.166-0.105,0.333-0.147,0.489c-0.037,0.134-0.072,0.267-0.107,0.4c-0.048,0.185-0.095,0.369-0.151,0.551
			c-0.104,0.328-0.21,0.653-0.316,0.979c-0.098,0.301-0.196,0.602-0.291,0.899c-0.049,0.154-0.092,0.312-0.135,0.469
			c-0.033,0.123-0.063,0.247-0.105,0.362c-0.147,0.405-0.324,0.852-0.556,1.407l-0.125,0.307c-0.143,0.35-0.276,0.68-0.422,0.949
			c-0.272,0.502-0.565,0.995-0.875,1.517c-0.155,0.262-0.31,0.523-0.462,0.786c-0.548,0.94-1.236,1.79-2.05,2.527
			c-0.582,0.529-1.29,1.057-2.237,1.663c-0.171,0.11-0.467,0.22-0.78,0.334c-0.212,0.079-0.425,0.157-0.626,0.242
			c-0.759,0.315-1.564,0.483-2.452,0.513c-0.058-0.34-0.11-0.672-0.142-0.994c-0.062-0.616-0.114-1.233-0.167-1.85l-0.09-1.039
			c-0.022-0.246-0.048-0.491-0.073-0.736c-0.051-0.49-0.099-0.954-0.116-1.398c-0.021-0.534-0.021-1.069-0.021-1.605
			c0-0.431,0-0.862-0.01-1.288c-0.008-0.434-0.129-0.776-0.208-0.981c-0.003-2.973-0.003-5.943,0.002-8.919
			c0.094-0.193,0.244-0.55,0.244-1.01c0.002-0.253-0.003-0.506-0.008-0.76c-0.004-0.222-0.009-0.444-0.007-0.673
			c0.001-0.285,0.015-0.575,0.042-0.878c0.04-0.479,0.091-0.96,0.15-1.435c0.014-0.111,0.037-0.222,0.058-0.332
			c0.026-0.137,0.052-0.272,0.074-0.409c0.02-0.128,0.035-0.256,0.049-0.385c0.008-0.068,0.015-0.138,0.023-0.189l0.072-0.41
			c0.034-0.191,0.068-0.383,0.101-0.581c0.017-0.105,0.029-0.211,0.04-0.316c0.004-0.036,0.007-0.071,0.014-0.112
			c0.026-0.152,0.06-0.303,0.094-0.452c0.028-0.076,0.054-0.153,0.074-0.23l0.006-0.024l0.006-0.024
			c0.048-0.204,0.093-0.41,0.138-0.616c0.084-0.39,0.164-0.759,0.267-1.085c0.229-0.729,0.509-1.517,0.856-2.407
			c0.012-0.031,0.023-0.057,0.033-0.078c0.069-0.034,0.162-0.075,0.236-0.107l0.191-0.085c0.476-0.217,0.958-0.422,1.439-0.627
			l0.384-0.164l0.432-0.183c0.252-0.106,0.503-0.212,0.761-0.327c0.68-0.306,1.357-0.618,2.035-0.93l0.125-0.058l0.425-0.194
			c0.445-0.202,0.905-0.411,1.366-0.649c0.595-0.307,1.171-0.631,1.728-0.945l0.405-0.228l0.238-0.133
			c0.417-0.233,0.849-0.474,1.287-0.754c0.44-0.282,0.905-0.594,1.329-1.026C39.558,24.188,39.623,24.188,39.658,24.188
			 M53.98,21.376c-0.1,0-0.216,0.037-0.342,0.113c-0.442,0.266-0.896,0.52-1.36,0.742c-0.379,0.181-0.779,0.321-1.178,0.458
			c-0.551,0.19-1.102,0.39-1.699,0.393c-0.13,0.001-0.26,0.021-0.39,0.034c-0.626,0.061-1.25,0.152-1.876,0.176
			c-0.405,0.016-0.812,0.025-1.217,0.025c-0.381,0-0.762-0.008-1.142-0.026c-0.616-0.03-1.227-0.142-1.838-0.227
			c-0.073-0.011-0.138-0.085-0.203-0.131c-0.624-0.425-1.288-0.736-2.054-0.736c-0.048,0-0.096,0.001-0.144,0.003
			c-0.129,0.006-0.259,0.015-0.389,0.015c-0.073,0-0.146-0.003-0.22-0.011c-0.093-0.01-0.184-0.015-0.272-0.015
			c-0.666,0-1.214,0.28-1.701,0.775c-0.285,0.291-0.637,0.523-0.982,0.745c-0.464,0.296-0.946,0.558-1.425,0.826
			c-0.688,0.386-1.371,0.778-2.071,1.14c-0.56,0.29-1.139,0.541-1.711,0.804c-0.715,0.329-1.429,0.658-2.145,0.981
			c-0.385,0.171-0.774,0.329-1.162,0.496c-0.622,0.266-1.248,0.528-1.864,0.809c-0.337,0.154-0.7,0.291-0.969,0.529
			c-0.237,0.21-0.405,0.532-0.523,0.833c-0.326,0.835-0.633,1.68-0.902,2.536c-0.189,0.6-0.297,1.225-0.443,1.84
			c-0.015,0.056-0.048,0.108-0.061,0.164c-0.051,0.228-0.104,0.454-0.144,0.685c-0.027,0.151-0.034,0.304-0.058,0.457
			c-0.053,0.324-0.115,0.648-0.169,0.973c-0.032,0.198-0.044,0.397-0.076,0.596c-0.042,0.271-0.107,0.535-0.141,0.804
			c-0.063,0.505-0.117,1.012-0.159,1.519c-0.031,0.344-0.048,0.688-0.049,1.034c-0.004,0.475,0.018,0.952,0.015,1.427
			c0,0.098-0.073,0.195-0.11,0.291c-0.048,0.125-0.133,0.25-0.133,0.378c-0.007,3.148-0.006,6.296-0.003,9.445
			c0,0.104,0.021,0.208,0.048,0.31c0.049,0.182,0.157,0.358,0.16,0.539c0.021,0.977-0.006,1.956,0.031,2.933
			c0.029,0.747,0.129,1.491,0.196,2.236c0.087,0.969,0.162,1.94,0.259,2.909c0.043,0.443,0.117,0.885,0.193,1.323
			c0.06,0.347,0.14,0.687,0.221,1.028c0.014,0.063,0.071,0.119,0.111,0.175c0.199,0.272,0.5,0.245,0.779,0.259
			C24.855,63.995,25.039,64,25.222,64c1.201,0,2.37-0.202,3.496-0.67c0.578-0.242,1.204-0.407,1.724-0.743
			c0.874-0.56,1.732-1.167,2.498-1.863c0.957-0.867,1.777-1.875,2.433-3.002c0.456-0.785,0.934-1.557,1.366-2.354
			c0.249-0.461,0.436-0.958,0.637-1.443c0.205-0.492,0.404-0.987,0.587-1.488c0.107-0.297,0.172-0.608,0.268-0.909
			c0.199-0.63,0.411-1.254,0.609-1.887c0.104-0.334,0.184-0.676,0.277-1.014c0.122-0.449,0.307-0.891,0.354-1.348
			c0.033-0.332,0.04-0.643,0.202-0.95c0.104-0.201,0.228-0.312,0.378-0.312c0.086,0,0.18,0.035,0.284,0.11
			c0.282,0.199,0.539,0.436,0.841,0.593c0.451,0.236,0.916,0.486,1.404,0.608c0.568,0.143,1.17,0.173,1.759,0.221
			c0.746,0.062,1.496,0.127,2.243,0.127c0.737,0,1.477-0.102,2.214-0.102c0.08,0,0.161,0.001,0.241,0.004
			c0.139,0.005,0.277,0.006,0.416,0.006c0.521,0,1.043-0.024,1.565-0.024c0.582,0,1.165,0.031,1.749,0.162
			c0.929,0.21,1.906,0.213,2.818,0.302c0.464-0.033,0.883-0.038,1.296-0.102c0.603-0.093,1.202-0.221,1.799-0.357
			c0.339-0.08,0.703-0.149,0.996-0.322c0.619-0.366,1.202-0.797,1.798-1.203c0.312-0.212,0.636-0.411,0.924-0.651
			c0.445-0.372,0.881-0.756,1.287-1.169c0.146-0.147,0.241-0.382,0.282-0.591c0.104-0.489-0.04-0.964-0.363-1.313
			c-0.549-0.592-1.146-1.139-1.752-1.676c-0.592-0.526-1.216-1.018-1.833-1.521c-0.66-0.539-1.329-1.068-1.994-1.603
			c-0.497-0.401-1.035-0.764-1.479-1.219c-0.867-0.893-1.864-1.668-2.544-2.735c-0.315-0.494-0.666-0.969-0.958-1.478
			c-0.451-0.781-0.88-1.577-1.541-2.198c-0.89-0.836-1.816-1.636-2.72-2.458c-0.065-0.059-0.107-0.188-0.095-0.273
			c0.01-0.058,0.131-0.118,0.211-0.142c0.146-0.041,0.308-0.032,0.444-0.091c0.406-0.176,0.793-0.403,1.208-0.555
			c0.891-0.325,1.605-0.904,2.258-1.555c0.375-0.372,0.695-0.811,0.968-1.264c0.238-0.396,0.385-0.851,0.55-1.29
			c0.048-0.127,0.032-0.284,0.021-0.426C54.322,21.531,54.185,21.376,53.98,21.376L53.98,21.376z"/>
	</g>
</g>
</svg>
