<?xml version="1.0" encoding="utf-8"?>
<!-- Generator: Adobe Illustrator 16.0.0, SVG Export Plug-In . SVG Version: 6.00 Build 0)  -->
<!DOCTYPE svg PUBLIC "-//W3C//DTD SVG 1.1//EN" "http://www.w3.org/Graphics/SVG/1.1/DTD/svg11.dtd">
<svg version="1.1" xmlns="http://www.w3.org/2000/svg" xmlns:xlink="http://www.w3.org/1999/xlink" x="0px" y="0px" width="64px"
	 height="64px" viewBox="0 0 64 64" enable-background="new 0 0 64 64" xml:space="preserve">
<g>
	<path fill="#231F20" d="M37.68,48.52c-9.495,0.135-18.371-0.9-27.029-3.543c-1.186-0.36-2.335-0.845-3.5-1.271
		c-3.529-1.296-5.445-3.99-6.4-7.473c-0.934-3.41-0.94-6.874-0.545-10.371c0.335-2.97,1.157-5.729,2.832-8.229
		c3.091-4.612,7.539-6.152,12.839-5.604c5.192,0.536,9.922,2.583,14.611,4.723c1.413,0.646,2.851,1.241,4.239,1.934
		c2.9,1.444,6.082,1.74,9.189,2.346c4.439,0.867,8.881,1.719,13.064,3.528c1.112,0.482,2.188,1.028,3.164,1.754
		c0.983,0.735,1.819,1.612,2.219,2.799c1.018,3.023,1.738,6.101,1.676,9.325c-0.094,4.764-2.475,7.609-7.156,8.448
		C50.379,48.048,43.826,48.643,37.68,48.52z M1.592,28.425c-0.064,0.313-0.106,0.44-0.114,0.569
		c-0.079,1.246,0.093,2.479,0.175,3.718c0.363,5.481,2.835,8.587,8.054,10.271c8.216,2.652,16.675,3.701,25.26,3.941
		c7.09,0.198,14.129-0.393,21.131-1.469c2.229-0.344,4.289-1.063,5.398-3.191c1.566-3.004,1.027-6.119,0.313-9.447
		c-1.541,2.301-3.688,3.322-5.99,4.006c-2.784,0.824-5.661,1.234-8.565,1.318c-10.219,0.301-20.338-0.688-30.334-2.736
		C11.377,34.27,5.83,32.934,1.592,28.425z M42.941,36.58c1.313,0,2.625,0.036,3.938-0.008c2.938-0.098,5.852-0.393,8.682-1.239
		c1.474-0.44,2.9-1.033,3.967-2.149c2.025-2.119,1.955-4.046-0.354-5.639c-0.678-0.468-1.407-0.877-2.157-1.223
		c-4.464-2.051-9.248-2.987-14.025-3.899c-3.426-0.654-6.844-1.221-10.025-2.795c-2.597-1.283-5.268-2.425-7.943-3.541
		c-3.819-1.592-7.773-2.704-11.954-2.592c-6.316,0.17-10.11,5.545-10.995,10.624c-0.503,2.884,1.438,4.598,3.669,5.938
		c2.113,1.271,4.408,2.146,6.782,2.784C22.486,35.521,32.67,36.438,42.941,36.58z"/>
	<path fill="none" stroke="#231F20" stroke-miterlimit="10" d="M14.821,22.704c1.908-0.079,3.799-0.27,5.431-1.389
		c1.146-0.786,1.046-1.736-0.192-2.372c-0.917-0.471-1.93-0.562-2.919-0.603c-1.88-0.077-3.716,0.213-5.384,1.161
		c-0.541,0.308-1.127,0.702-1.085,1.399c0.044,0.743,0.695,1.087,1.307,1.333C12.882,22.597,13.839,22.738,14.821,22.704z"/>
</g>
</svg>
