<?xml version="1.0" encoding="utf-8"?>
<!-- Generator: Adobe Illustrator 16.0.0, SVG Export Plug-In . SVG Version: 6.00 Build 0)  -->
<!DOCTYPE svg PUBLIC "-//W3C//DTD SVG 1.1//EN" "http://www.w3.org/Graphics/SVG/1.1/DTD/svg11.dtd">
<svg version="1.1" xmlns="http://www.w3.org/2000/svg" xmlns:xlink="http://www.w3.org/1999/xlink" x="0px" y="0px" width="64px"
	 height="64px" viewBox="0 0 64 64" enable-background="new 0 0 64 64" xml:space="preserve">
<path fill-rule="evenodd" clip-rule="evenodd" d="M37.68,48.52c-9.495,0.134-18.371-0.901-27.029-3.543
	c-1.186-0.361-2.335-0.845-3.5-1.272c-3.529-1.296-5.445-3.99-6.4-7.473c-0.934-3.41-0.94-6.873-0.545-10.37
	c0.335-2.97,1.157-5.729,2.832-8.229c3.091-4.612,7.539-6.152,12.839-5.604c5.192,0.536,9.922,2.583,14.611,4.723
	c1.413,0.646,2.851,1.241,4.239,1.934c2.9,1.444,6.082,1.74,9.189,2.346c4.439,0.867,8.881,1.719,13.064,3.528
	c1.113,0.482,2.189,1.028,3.164,1.754c0.984,0.735,1.82,1.612,2.219,2.799c1.018,3.023,1.738,6.101,1.676,9.325
	c-0.094,4.763-2.475,7.609-7.156,8.448C50.379,48.048,43.826,48.643,37.68,48.52z M1.592,28.425
	c-0.064,0.313-0.106,0.44-0.114,0.569c-0.079,1.246,0.093,2.479,0.175,3.718c0.363,5.481,2.835,8.587,8.054,10.271
	c8.216,2.652,16.675,3.701,25.26,3.941c7.09,0.198,14.129-0.393,21.131-1.469c2.229-0.343,4.289-1.063,5.398-3.192
	c1.566-3.003,1.027-6.118,0.313-9.446c-1.541,2.3-3.689,3.322-5.99,4.005c-2.785,0.824-5.662,1.234-8.566,1.319
	c-10.219,0.3-20.338-0.688-30.334-2.736C11.377,34.269,5.83,32.934,1.592,28.425z M42.941,36.58c1.313,0,2.625,0.036,3.938-0.008
	c2.938-0.097,5.852-0.392,8.682-1.239c1.473-0.441,2.9-1.033,3.967-2.15c2.025-2.118,1.955-4.046-0.355-5.638
	c-0.678-0.468-1.408-0.877-2.158-1.223c-4.463-2.051-9.248-2.987-14.025-3.899c-3.426-0.654-6.844-1.221-10.025-2.795
	c-2.597-1.283-5.268-2.425-7.943-3.541c-3.819-1.592-7.773-2.704-11.954-2.592C6.752,13.665,2.958,19.04,2.073,24.119
	c-0.503,2.884,1.438,4.598,3.669,5.938c2.113,1.271,4.408,2.146,6.782,2.784C22.486,35.521,32.67,36.437,42.941,36.58z"/>
<path fill-rule="evenodd" clip-rule="evenodd" d="M42.51,35.894c-9.363-0.236-18.641-1.176-27.731-3.547
	c-2.336-0.609-4.625-1.397-6.707-2.675c-0.382-0.234-0.776-0.454-1.134-0.722c-2.832-2.114-3.413-4.374-1.967-7.601
	c2.42-5.405,6.866-7.47,13.244-6.243c3.799,0.731,7.313,2.228,10.8,3.815c1.351,0.614,2.708,1.219,4.025,1.897
	c2.824,1.456,5.947,1.696,8.984,2.287c4.295,0.835,8.639,1.493,12.662,3.358c0.658,0.306,1.293,0.647,1.861,1.11
	c1.877,1.526,1.994,3.538,0.223,5.248c-1.75,1.689-4.027,2.209-6.316,2.591C47.83,35.853,45.176,35.978,42.51,35.894z
	 M14.821,22.704c1.908-0.079,3.799-0.27,5.431-1.389c1.146-0.786,1.046-1.736-0.192-2.372c-0.917-0.471-1.93-0.562-2.919-0.603
	c-1.88-0.077-3.716,0.213-5.384,1.161c-0.541,0.308-1.127,0.702-1.085,1.399c0.044,0.743,0.695,1.087,1.307,1.333
	C12.882,22.597,13.839,22.738,14.821,22.704z"/>
</svg>
