<?xml version="1.0" encoding="utf-8"?>
<!-- Generator: Adobe Illustrator 16.0.0, SVG Export Plug-In . SVG Version: 6.00 Build 0)  -->
<!DOCTYPE svg PUBLIC "-//W3C//DTD SVG 1.1//EN" "http://www.w3.org/Graphics/SVG/1.1/DTD/svg11.dtd">
<svg version="1.1" xmlns="http://www.w3.org/2000/svg" xmlns:xlink="http://www.w3.org/1999/xlink" x="0px" y="0px" width="64px"
	 height="64px" viewBox="0 0 64 64" enable-background="new 0 0 64 64" xml:space="preserve">
<g>
	<path fill="#231F20" d="M3.336,9.006C3.341,9.188,3.351,9.369,3.351,9.55c0,16.755,0,33.511,0.001,50.267
		c0,0.617-0.059,0.57,0.579,0.57c19.836,0,39.672,0,59.51,0.002c0.184,0,0.369,0.006,0.553,0.01c0,1.135-0.004,2.269,0.006,3.401
		c0,0.16-0.134,0.222-0.299,0.191c-0.03-0.005,0.035,0,0,0c-21.135,0-42.267,0-63.401,0.006c-0.245,0-0.3-0.054-0.3-0.294
		C0.007,45.566,0.007,27.432,0,9.295C0,9.054,0.055,8.996,0.3,9C1.312,9.016,2.325,9.006,3.336,9.006z"/>
	<path fill="#231F20" d="M59.561,39.293c0,4.881,0,10.536,0,16.193c0,0.545,0,0.546-0.561,0.546c-4.158,0.001-8.313,0.001-12.471,0
		c-0.562,0-0.562-0.001-0.562-0.546c0-6.973,0.003-13.943-0.006-20.913c-0.002-0.347,0.099-0.589,0.354-0.837
		c1.517-1.446,3.006-2.917,4.507-4.375c2.786-2.704,5.575-5.406,8.364-8.108c0.076-0.073,0.147-0.211,0.25-0.177
		c0.142,0.047,0.069,0.206,0.071,0.313c0.005,3.347-0.017,6.693,0.015,10.04C59.547,33.794,59.538,36.155,59.561,39.293z"/>
	<path fill="#231F20" d="M24.638,44.494c0,3.678,0.001,7.355,0,11.033c0,0.502-0.001,0.505-0.505,0.505
		c-4.82,0.001-9.641,0.001-14.462,0c-0.478,0-0.479-0.003-0.479-0.486c0-3.753,0.005-7.507-0.006-11.26
		c-0.002-0.315,0.104-0.504,0.36-0.687c4.909-3.49,9.812-6.992,14.717-10.49c0.086-0.062,0.177-0.18,0.281-0.129
		c0.141,0.065,0.083,0.229,0.083,0.351c0.003,3.721,0.003,7.44,0.003,11.163C24.631,44.494,24.635,44.494,24.638,44.494z"/>
	<path fill="#231F20" d="M59.564,10.168c0.201-0.032,0.271,0.052,0.244,0.252c-0.266,1.861-0.526,3.723-0.787,5.584
		c-0.209,1.459-0.416,2.919-0.623,4.379c-0.012,0.09,0.019,0.216-0.104,0.244c-0.091,0.021-0.146-0.079-0.206-0.139
		c-1.022-1.05-2.052-2.096-3.063-3.156c-0.184-0.192-0.281-0.22-0.485-0.026c-2.19,2.097-4.388,4.185-6.584,6.274
		c-3.412,3.243-6.819,6.485-10.229,9.725c-0.414,0.395-0.854,0.762-1.223,1.2c-0.113,0.136-0.207,0.103-0.334,0.021
		c-1.381-0.912-2.764-1.822-4.149-2.73c-2.399-1.572-4.803-3.138-7.198-4.716c-0.196-0.128-0.32-0.088-0.487,0.033
		c-3.712,2.692-7.429,5.379-11.144,8.068c-0.876,0.633-1.759,1.258-2.628,1.902c-0.222,0.164-0.335,0.132-0.49-0.079
		c-0.521-0.713-1.06-1.411-1.591-2.116c-0.249-0.33-0.249-0.332,0.105-0.59c2.639-1.905,5.277-3.813,7.917-5.719
		c2.447-1.766,4.894-3.532,7.34-5.299c0.156-0.114,0.323-0.218,0.44-0.377c0.092-0.127,0.208-0.143,0.339-0.054
		c3.062,2.099,6.202,4.079,9.296,6.129c0.584,0.389,1.184,0.765,1.762,1.162c0.19,0.13,0.303,0.113,0.469-0.045
		c1.682-1.613,3.371-3.219,5.061-4.826c3.4-3.234,6.803-6.468,10.207-9.702c0.25-0.238,0.494-0.48,0.757-0.705
		c0.187-0.158,0.177-0.272,0.009-0.442c-0.939-0.951-1.871-1.913-2.803-2.87c-0.066-0.07-0.135-0.139-0.204-0.209
		c-0.144-0.15-0.114-0.239,0.097-0.26c0.574-0.054,1.146-0.11,1.722-0.161c1.646-0.148,3.289-0.294,4.937-0.439
		C57.139,10.375,58.352,10.272,59.564,10.168z"/>
	<path fill="#231F20" d="M28.475,45.646c0-3.271,0-6.543,0-9.814c0-0.074-0.005-0.15,0.002-0.225
		c0.008-0.104-0.043-0.237,0.069-0.295c0.115-0.059,0.199,0.062,0.282,0.119c1.979,1.358,3.955,2.723,5.932,4.084
		c0.704,0.484,1.415,0.961,2.108,1.461c0.229,0.166,0.36,0.125,0.543-0.063c1.403-1.433,2.817-2.854,4.228-4.279
		c0.062-0.062,0.121-0.123,0.187-0.181c0.104-0.094,0.175-0.078,0.185,0.07c0.004,0.086,0.002,0.172,0.004,0.257
		c0,2.042-0.018,4.084,0.008,6.126c0.058,4.211,0.027,8.423,0.045,12.635c0.002,0.502,0,0.502-0.5,0.502c-4.188,0-8.379,0-12.565,0
		c-0.521,0-0.523,0-0.523-0.52C28.475,52.23,28.475,48.938,28.475,45.646z"/>
</g>
</svg>
