<?xml version="1.0" encoding="utf-8"?>
<!-- Generator: Adobe Illustrator 16.0.0, SVG Export Plug-In . SVG Version: 6.00 Build 0)  -->
<!DOCTYPE svg PUBLIC "-//W3C//DTD SVG 1.1//EN" "http://www.w3.org/Graphics/SVG/1.1/DTD/svg11.dtd">
<svg version="1.1" id="Capa_1" xmlns="http://www.w3.org/2000/svg" xmlns:xlink="http://www.w3.org/1999/xlink" x="0px" y="0px"
	 width="64px" height="64px" viewBox="0 0 64 64" enable-background="new 0 0 64 64" xml:space="preserve">
<g>
	<g>
		<path fill="#231F20" d="M37.64,40.619l1.149,0.403V57.75l-6.816,4.087l-6.813-4.085V41.023l1.153-0.404l0.979,1.123
			c1.185,1.388,2.892,2.184,4.683,2.184c1.791,0,3.498-0.796,4.668-2.166L37.64,40.619 M37.024,38.283l-1.888,2.16
			c-0.807,0.944-1.948,1.482-3.162,1.482c-1.21,0-2.355-0.538-3.162-1.482l-1.883-2.16l-2.691,0.944
			c-0.337,0.136-0.743,0.202-1.078,0.202v19.36c0,0.066,0,0.134,0.065,0.134l8.21,4.923C31.604,63.949,31.788,64,31.973,64
			s0.37-0.051,0.538-0.153l8.21-4.923c0,0,0.066-0.067,0.068-0.134V39.43c-0.403,0-0.738-0.066-1.075-0.202L37.024,38.283
			L37.024,38.283z"/>
	</g>
	<g>
		<path fill="#231F20" d="M31.976,2.448l2.053,2.367l0.046,0.053l0.05,0.049c0.629,0.631,1.458,0.978,2.334,0.978
			c0.307,0,0.614-0.043,0.913-0.129l0.052-0.015l0.051-0.018l3.021-1.045l0.613,3.076c0.197,1.191,1.093,2.15,2.354,2.514
			l0.081,0.023l0.082,0.017l3.113,0.622l-1.045,3.032l-0.018,0.049l-0.014,0.05c-0.334,1.162-0.023,2.373,0.832,3.24l0.054,0.055
			l0.059,0.05l2.363,2.054l-2.416,2.057l-0.061,0.052l-0.056,0.056c-0.863,0.862-1.181,2.074-0.848,3.242l0.016,0.052l0.018,0.051
			l1.046,3.033l-3.07,0.615c-1.181,0.196-2.163,1.12-2.515,2.373l-0.021,0.073l-0.015,0.074l-0.624,3.117l-3.021-1.044l-0.053-0.018
			L37.3,33.188c-0.298-0.084-0.604-0.127-0.91-0.127c-0.877,0-1.706,0.346-2.333,0.976l-0.049,0.049l-0.046,0.053l-2.054,2.367
			l-2.056-2.368l-0.045-0.052l-0.049-0.049c-0.627-0.629-1.455-0.976-2.331-0.976c-0.306,0-0.612,0.043-0.909,0.127l-0.053,0.016
			l-0.052,0.018l-3.022,1.043l-0.614-3.074c-0.198-1.198-1.1-2.159-2.368-2.518l-0.075-0.021l-0.076-0.015l-3.11-0.624l1.043-3.034
			l0.018-0.052l0.015-0.052c0.332-1.168,0.015-2.379-0.848-3.24l-0.048-0.048l-0.052-0.045l-2.341-2.039l2.475-2.155l0.056-0.048
			l0.052-0.053c0.859-0.868,1.171-2.08,0.836-3.243l-0.014-0.048l-0.017-0.048l-1.043-3.034l3.073-0.615
			c1.192-0.201,2.151-1.101,2.512-2.363l0.022-0.078l0.016-0.08l0.604-3.032l2.971,1.026l0.052,0.018l0.053,0.015
			c0.297,0.085,0.604,0.128,0.909,0.128c0.878,0,1.708-0.349,2.336-0.981l0.047-0.047l0.044-0.05L31.976,2.448 M31.976,0
			c-0.319,0-0.638,0.135-0.874,0.405L28.41,3.504c-0.25,0.252-0.574,0.391-0.917,0.391c-0.119,0-0.24-0.017-0.361-0.051
			l-3.903-1.349c-0.12-0.036-0.239-0.053-0.356-0.053c-0.539,0-1.014,0.363-1.124,0.861l-0.807,4.045
			c-0.135,0.472-0.474,0.875-0.943,0.943l-4.037,0.808c-0.672,0.134-1.076,0.878-0.874,1.551l1.345,3.909
			c0.136,0.471,0,0.942-0.336,1.282l-3.095,2.694c-0.538,0.473-0.538,1.348-0.134,1.821l3.094,2.695
			c0.337,0.336,0.471,0.807,0.337,1.278l-1.345,3.911c-0.202,0.673,0.202,1.414,0.873,1.549l4.037,0.809
			c0.47,0.133,0.876,0.473,0.942,0.944l0.808,4.042c0.11,0.557,0.634,0.929,1.191,0.929c0.118,0,0.238-0.017,0.355-0.052
			l3.904-1.348c0.121-0.034,0.243-0.051,0.361-0.051c0.342,0,0.666,0.138,0.915,0.388l2.691,3.1c0.235,0.27,0.555,0.405,0.875,0.405
			c0.319,0,0.64-0.136,0.876-0.405l2.688-3.1c0.249-0.25,0.574-0.388,0.917-0.388c0.12,0,0.241,0.017,0.362,0.051l3.901,1.348
			c0.117,0.035,0.237,0.052,0.355,0.052c0.559,0,1.084-0.372,1.193-0.929l0.809-4.042c0.132-0.47,0.47-0.878,0.94-0.944l4.039-0.809
			c0.672-0.135,1.075-0.875,0.873-1.549l-1.349-3.911c-0.134-0.469,0-0.942,0.337-1.278l3.167-2.697
			c0.536-0.472,0.536-1.279,0-1.753l-3.1-2.694c-0.334-0.338-0.47-0.81-0.334-1.282l1.347-3.908
			c0.202-0.673-0.201-1.417-0.874-1.552l-4.04-0.808c-0.469-0.135-0.873-0.472-0.939-0.943l-0.807-4.046
			c-0.112-0.555-0.635-0.927-1.192-0.927c-0.118,0-0.239,0.017-0.357,0.053l-3.9,1.349c-0.121,0.035-0.243,0.052-0.362,0.052
			c-0.343,0-0.668-0.139-0.919-0.391l-2.689-3.099C32.614,0.135,32.295,0,31.976,0L31.976,0z"/>
	</g>
	<g>
		<path fill="#231F20" d="M31.94,14.617l1.005,2.482l0.47,1.161l1.249,0.084l2.53,0.17l-2,1.685l-0.954,0.804l0.302,1.21
			l0.637,2.554l-2.222-1.375l-1.052-0.651l-1.052,0.651l-2.22,1.375l0.639-2.554l0.303-1.211l-0.955-0.804l-1.997-1.68l2.591-0.175
			l1.248-0.084l0.47-1.159L31.94,14.617 M31.939,11.049c-0.404,0-0.808,0.218-0.976,0.655l-1.885,4.645l-4.978,0.336
			c-0.942,0.066-1.347,1.209-0.607,1.815l3.837,3.229l-1.212,4.846c-0.156,0.729,0.374,1.298,0.996,1.298
			c0.182,0,0.37-0.048,0.552-0.155l4.238-2.623l4.241,2.623c0.182,0.107,0.374,0.155,0.56,0.155c0.637,0,1.194-0.569,0.985-1.298
			l-1.209-4.846l3.834-3.229c0.807-0.606,0.404-1.749-0.536-1.815l-4.981-0.336l-1.881-4.645
			C32.748,11.267,32.344,11.049,31.939,11.049L31.939,11.049z"/>
	</g>
</g>
</svg>
