<?xml version="1.0" encoding="utf-8"?>
<!-- Generator: Adobe Illustrator 16.0.0, SVG Export Plug-In . SVG Version: 6.00 Build 0)  -->
<!DOCTYPE svg PUBLIC "-//W3C//DTD SVG 1.1//EN" "http://www.w3.org/Graphics/SVG/1.1/DTD/svg11.dtd">
<svg version="1.1" xmlns="http://www.w3.org/2000/svg" xmlns:xlink="http://www.w3.org/1999/xlink" x="0px" y="0px" width="64px"
	 height="64px" viewBox="0 0 64 64" enable-background="new 0 0 64 64" xml:space="preserve">
<g>
	<g>
		<path fill="#231F20" d="M7.029,31.863c-1.534-2.181-1.996-5.146-2.03-5.363l0,0c-0.017-0.081-0.219-1.11-0.228-2.436l0,0
			c-0.008-1.406,0.194-3.162,1.119-4.455l0,0c0.018-0.022,1.53-2.271,4.212-2.298l0,0c0.127,0,0.231,0.117,0.232,0.264l0,0
			c0.001,0.146-0.102,0.265-0.23,0.266l0,0c-2.132,0.011-3.492,1.618-3.788,2.011l0,0c-0.043,0.056-0.061,0.082-0.065,0.088l0,0
			c-0.82,1.134-1.031,2.771-1.019,4.12l0,0c0.004,0.655,0.059,1.24,0.112,1.658l0,0c0.053,0.418,0.104,0.666,0.104,0.666l0,0
			l0.003,0.017c0,0,0.027,0.182,0.09,0.496l0,0c0.065,0.315,0.167,0.76,0.316,1.271l0,0c0.297,1.022,0.785,2.309,1.53,3.36l0,0
			c0.08,0.114,0.064,0.282-0.035,0.374l0,0c-0.042,0.04-0.093,0.059-0.143,0.06l0,0C7.144,31.964,7.076,31.931,7.029,31.863
			L7.029,31.863z"/>
	</g>
	<g>
		<path fill="#231F20" d="M12.995,31.866c-0.101-0.091-0.119-0.257-0.039-0.372l0,0c1.095-1.594,1.603-3.708,1.782-4.658l0,0
			c0.06-0.315,0.083-0.496,0.083-0.496l0,0l0.004-0.018c0-0.001,0.047-0.248,0.094-0.666l0,0c0.048-0.418,0.095-1.003,0.091-1.659
			l0,0c-0.008-1.348-0.24-2.983-1.08-4.112l0,0c0,0-0.019-0.025-0.061-0.081l0,0c-0.042-0.055-0.108-0.134-0.193-0.23l0,0
			c-0.173-0.194-0.43-0.453-0.763-0.711l0,0c-0.667-0.516-1.637-1.026-2.858-1.018l0,0c-0.127,0.001-0.231-0.118-0.233-0.264l0,0
			c0-0.147,0.102-0.266,0.23-0.267l0,0c2.682-0.01,4.224,2.218,4.238,2.236l0,0c0.947,1.284,1.174,3.037,1.184,4.444l0,0
			c0.008,1.331-0.181,2.367-0.196,2.44l0,0c-0.032,0.222-0.456,3.192-1.957,5.39l0,0l0,0c-0.046,0.067-0.114,0.102-0.18,0.102l0,0
			C13.089,31.925,13.038,31.906,12.995,31.866L12.995,31.866z"/>
	</g>
	<g>
		<path fill="#231F20" d="M7.317,31.924c-0.105-0.068-0.134-0.202-0.061-0.301l0,0c0.889-1.207,0.985-4.215,0.979-4.859l0,0
			c-0.001-0.202-0.013-0.312-0.013-0.312l0,0v-0.014c-0.044-1.409-0.668-2.37-1.364-3.024l0,0c-0.695-0.654-1.465-0.989-1.765-1.102
			l0,0c-0.086-0.033-0.128-0.045-0.134-0.047l0,0c-0.001,0-0.045-0.015-0.136-0.041l0,0C4.733,22.2,4.6,22.167,4.435,22.133l0,0
			C4.103,22.067,3.641,22,3.13,22.003l0,0c-0.78,0.005-1.667,0.172-2.416,0.727l0,0c0,0.001,0,0-0.005,0.005l0,0
			c-0.007,0.004-0.017,0.012-0.029,0.022l0,0c-0.025,0.021-0.058,0.053-0.091,0.093l0,0c-0.065,0.08-0.122,0.186-0.12,0.297l0,0
			c0,0.032,0.004,0.066,0.014,0.103l0,0l0.006,0.028c0,0,0,0.002,0.005,0.021l0,0c0.005,0.02,0.013,0.05,0.028,0.087l0,0
			c0.028,0.075,0.08,0.18,0.17,0.289l0,0c0.181,0.215,0.506,0.456,1.177,0.52l0,0L1.897,24.2c0,0,0.039,0.008,0.126,0.017l0,0
			c0.086,0.011,0.212,0.02,0.368,0.019l0,0c0.611-0.006,1.631-0.166,2.43-1.106l0,0v0.001c0.08-0.095,0.225-0.111,0.326-0.035l0,0
			c0.101,0.074,0.116,0.21,0.037,0.304l0,0c-0.911,1.073-2.103,1.268-2.79,1.269l0,0c-0.313,0.001-0.528-0.031-0.582-0.042l0,0
			c-0.771-0.071-1.237-0.381-1.485-0.685l0,0c-0.226-0.273-0.282-0.527-0.293-0.591l0,0c-0.019-0.069-0.027-0.135-0.027-0.198l0,0
			c0.011-0.496,0.417-0.752,0.427-0.766l0,0c0.852-0.631,1.849-0.811,2.694-0.816l0,0c1.111-0.007,1.974,0.282,1.983,0.284l0,0
			c0.019,0.006,0.872,0.268,1.749,0.969l0,0c0.874,0.698,1.773,1.852,1.826,3.594l0,0c0.002,0.028,0.013,0.15,0.014,0.343l0,0
			c0.002,0.686-0.084,3.771-1.06,5.106l0,0c-0.044,0.061-0.116,0.095-0.189,0.096l0,0C7.403,31.963,7.357,31.951,7.317,31.924
			L7.317,31.924z"/>
	</g>
	<g>
		<path fill="#231F20" d="M1.858,23.952c-0.348-0.154-0.516-0.41-0.51-0.635l0,0c0.004-0.261,0.155-0.415,0.173-0.438l0,0
			c0.531-0.53,1.483-0.607,2.262-0.62l0,0c0.674-0.005,1.222,0.069,1.229,0.069l0,0l0,0c0.126,0.017,0.213,0.127,0.196,0.245l0,0
			C5.206,22.582,5.205,22.59,5.203,22.6l0,0c0.021,0.013,0.042,0.031,0.058,0.053l0,0c0.075,0.097,0.051,0.232-0.053,0.302l0,0
			c-1.322,0.885-2.239,1.082-2.781,1.085l0,0C2.076,24.044,1.887,23.965,1.858,23.952L1.858,23.952z M2.068,23.564
			c0.011,0.005,0.031,0.011,0.061,0.019l0,0c0.06,0.012,0.157,0.027,0.294,0.026l0,0c0.401-0.002,1.159-0.139,2.314-0.874l0,0
			c-0.041-0.004-0.085-0.008-0.136-0.011l0,0c-0.21-0.018-0.5-0.034-0.816-0.032l0,0c-0.737-0.003-1.61,0.134-1.914,0.47l0,0
			c0,0.002-0.002,0.004-0.006,0.007l0,0c-0.006,0.008-0.016,0.021-0.023,0.037l0,0C1.824,23.238,1.81,23.28,1.81,23.315l0,0
			c0.006,0.052,0.004,0.125,0.249,0.248l0,0C2.062,23.563,2.063,23.564,2.068,23.564L2.068,23.564z"/>
	</g>
	<g>
		<path fill="#231F20" d="M12.722,31.833c-0.993-1.323-1.121-4.407-1.128-5.092l0,0c0-0.192,0.007-0.316,0.009-0.342l0,0
			c0.03-1.744,0.912-2.91,1.778-3.62l0,0c0.867-0.713,1.717-0.985,1.729-0.989l0,0c0.016-0.006,0.875-0.306,1.985-0.314l0,0
			c0.844-0.005,1.843,0.161,2.699,0.777l0,0c0.014,0.017,0.425,0.267,0.442,0.763l0,0c0.001,0.063-0.007,0.131-0.023,0.2l0,0
			c-0.013,0.069-0.067,0.321-0.287,0.595l0,0c-0.242,0.305-0.704,0.622-1.474,0.705l0,0c-0.053,0.011-0.267,0.047-0.581,0.05l0,0
			c-0.688,0.008-1.883-0.17-2.806-1.231l0,0l0,0c-0.083-0.092-0.067-0.229,0.032-0.305l0,0c0.098-0.076,0.245-0.063,0.326,0.03l0,0
			c0.812,0.93,1.834,1.075,2.445,1.073l0,0c0.155-0.001,0.282-0.012,0.368-0.023l0,0c0.086-0.011,0.125-0.02,0.125-0.02l0,0
			l0.025-0.005c1.16-0.131,1.318-0.772,1.365-0.916l0,0c0.003-0.02,0.005-0.022,0.005-0.022l0,0l0.006-0.027
			c0.009-0.037,0.012-0.07,0.012-0.102l0,0c0.008-0.193-0.195-0.378-0.243-0.411l0,0c-0.006-0.005-0.006-0.005-0.012-0.009l0,0
			c-0.751-0.541-1.639-0.696-2.419-0.69l0,0c-0.767,0.005-1.419,0.167-1.69,0.245l0,0c-0.09,0.026-0.136,0.042-0.141,0.043l0,0
			c0,0-0.042,0.014-0.126,0.047l0,0c-0.085,0.034-0.208,0.086-0.357,0.159l0,0c-0.297,0.146-0.697,0.375-1.095,0.701l0,0
			c-0.798,0.66-1.592,1.699-1.621,3.309l0,0v0.013c0,0.001-0.011,0.111-0.009,0.312l0,0c0.002,0.643,0.139,3.651,1.045,4.847l0,0
			c0.073,0.096,0.048,0.231-0.057,0.301l0,0c-0.04,0.026-0.085,0.04-0.131,0.04l0,0C12.84,31.926,12.769,31.893,12.722,31.833
			L12.722,31.833z"/>
	</g>
	<g>
		<path fill="#231F20" d="M17.829,23.938c-0.542,0.004-1.462-0.181-2.795-1.048l0,0c-0.104-0.068-0.13-0.203-0.058-0.301l0,0
			c0.017-0.023,0.037-0.041,0.058-0.054l0,0c-0.002-0.009-0.005-0.018-0.006-0.028l0,0c-0.021-0.118,0.067-0.228,0.194-0.248l0,0
			c0.006,0,0.553-0.082,1.228-0.085l0,0c0.778,0.001,1.731,0.066,2.276,0.594l0,0c0.012,0.02,0.165,0.17,0.172,0.432l0,0
			c0.009,0.225-0.156,0.483-0.502,0.642l0,0c-0.028,0.014-0.216,0.095-0.563,0.097l0,0C17.832,23.938,17.829,23.938,17.829,23.938
			L17.829,23.938z M17.826,23.504c0.224-0.001,0.34-0.043,0.361-0.05l0,0c0.243-0.127,0.242-0.2,0.247-0.252l0,0
			c0.003-0.053-0.042-0.129-0.058-0.147l0,0c0-0.002-0.002-0.002-0.003-0.003l0,0l0,0v-0.001c-0.32-0.335-1.189-0.457-1.921-0.444
			l0,0c-0.319,0.001-0.61,0.022-0.821,0.043l0,0c-0.048,0.004-0.091,0.008-0.13,0.013l0,0C16.666,23.38,17.425,23.507,17.826,23.504
			L17.826,23.504z"/>
	</g>
	<g>
		<path fill="#231F20" d="M7.315,19.649c-0.001-0.119,0.102-0.217,0.229-0.218l0,0c0.127-0.001,0.232,0.096,0.232,0.215l0,0
			c0.003,0.149,0.112,0.233,0.195,0.232l0,0c0.083,0,0.19-0.086,0.191-0.235l0,0c0-0.12,0.103-0.217,0.23-0.219l0,0
			c0.127,0,0.232,0.096,0.233,0.215l0,0c0.001,0.349-0.265,0.665-0.651,0.672l0,0C7.588,20.311,7.318,19.998,7.315,19.649
			L7.315,19.649z"/>
	</g>
	<g>
		<path fill="#231F20" d="M9.007,19.475c0-0.121,0.102-0.218,0.23-0.219l0,0c0.127-0.001,0.231,0.096,0.232,0.215l0,0
			c0.002,0.151,0.112,0.233,0.194,0.233l0,0c0.083-0.001,0.191-0.085,0.192-0.235l0,0c0-0.121,0.101-0.218,0.23-0.219l0,0
			c0.126,0,0.232,0.095,0.233,0.216l0,0c0.001,0.348-0.266,0.665-0.652,0.671l0,0C9.28,20.136,9.009,19.822,9.007,19.475
			L9.007,19.475z"/>
	</g>
	<g>
		<path fill="#231F20" d="M8.164,19.581c-0.003-0.026-0.004-0.049-0.004-0.069l0,0c-0.004-0.322,0.228-0.621,0.588-0.658l0,0l0,0
			c0.023-0.002,0.041-0.002,0.055-0.003l0,0c0.36,0.002,0.632,0.278,0.667,0.608l0,0l0,0c0.013,0.12-0.082,0.225-0.208,0.237l0,0
			c-0.126,0.012-0.24-0.076-0.253-0.195l0,0c-0.014-0.14-0.125-0.22-0.203-0.216l0,0c-0.003-0.001-0.003,0-0.003,0l0,0l-0.011,0.001
			c-0.078,0.003-0.168,0.088-0.169,0.225l0,0c0,0.009,0,0.017,0.001,0.023l0,0c0.014,0.119-0.078,0.226-0.205,0.24l0,0
			c-0.007,0-0.017,0.001-0.024,0.001l0,0C8.278,19.774,8.177,19.692,8.164,19.581L8.164,19.581z"/>
	</g>
	<g>
		<path fill="#231F20" d="M7.739,32.89c-0.002-0.399,0.34-0.725,0.767-0.728l0,0c0.427-0.004,0.773,0.317,0.777,0.717l0,0
			c0.003,0.4-0.342,0.724-0.768,0.727l0,0C8.089,33.609,7.741,33.29,7.739,32.89L7.739,32.89z M8.202,32.887
			c0.001,0.158,0.14,0.286,0.311,0.285l0,0c0.169,0,0.308-0.13,0.307-0.289l0,0c-0.001-0.16-0.14-0.288-0.311-0.287l0,0
			C8.337,32.598,8.201,32.727,8.202,32.887L8.202,32.887z"/>
	</g>
	<g>
		<path fill="#231F20" d="M8.521,34.589c-0.073,0-0.126-0.004-0.153-0.006l0,0c-0.933-0.02-1.621-0.839-1.632-1.669l0,0
			c-0.003-0.371,0.137-0.716,0.372-0.98l0,0c0.298-0.34,0.751-0.56,1.258-0.563l0,0c0.338-0.002,0.656,0.091,0.917,0.255l0,0
			l0.002,0c0.105,0.065,0.135,0.199,0.064,0.3l0,0c-0.072,0.1-0.215,0.126-0.322,0.06l0,0c-0.189-0.118-0.414-0.186-0.659-0.183l0,0
			c-0.364,0.002-0.688,0.158-0.903,0.405l0,0c-0.169,0.191-0.269,0.435-0.266,0.704l0,0c0,0.306,0.139,0.624,0.361,0.859l0,0
			c0.222,0.236,0.515,0.38,0.823,0.378l0,0l0.041,0.004c0,0,0,0.001,0.018,0.003l0,0c0.017,0,0.042,0.002,0.076,0.004l0,0
			c0.143-0.002,0.415-0.034,0.689-0.232l0,0c0.416-0.306,0.715-0.359,0.892-0.357l0,0c0.037-0.001,0.063,0,0.075,0.001l0,0
			c0.128-0.001,0.232,0.094,0.233,0.215l0,0c0,0.118-0.102,0.217-0.23,0.218l0,0c-0.032-0.001-0.053-0.001-0.075-0.001l0,0
			c-0.094,0.005-0.236,0.002-0.612,0.267l0,0c-0.374,0.271-0.753,0.319-0.965,0.32l0,0C8.522,34.589,8.521,34.589,8.521,34.589
			L8.521,34.589z"/>
	</g>
	<g>
		<path fill="#231F20" d="M8.684,34.463L8.684,34.463c-0.054-0.111-0.007-0.238,0.11-0.29l0,0c0.114-0.051,0.251-0.007,0.307,0.1
			l0,0c0,0,0.001,0.001,0.003,0.005l0,0c0.003,0.008,0.011,0.018,0.021,0.032l0,0c0.022,0.028,0.058,0.067,0.111,0.109l0,0
			c0.105,0.08,0.271,0.164,0.558,0.164l0,0l0.386-0.002c0.128-0.002,0.233,0.095,0.233,0.214l0,0
			c0.001,0.121-0.103,0.22-0.231,0.221l0,0l-0.386,0.002c0-0.001-0.002-0.001-0.003-0.001l0,0
			C8.994,35.021,8.695,34.492,8.684,34.463L8.684,34.463z"/>
	</g>
	<g>
		<path fill="#231F20" d="M11.573,19.621c-0.001-0.12,0.101-0.217,0.229-0.218l0,0c0.127,0,0.232,0.097,0.232,0.215l0,0
			c0.002,0.15,0.112,0.233,0.194,0.233l0,0c0.084-0.001,0.19-0.086,0.192-0.235l0,0c-0.001-0.12,0.102-0.218,0.23-0.218l0,0
			c0.127-0.001,0.231,0.096,0.232,0.215l0,0c0.001,0.348-0.265,0.665-0.651,0.671l0,0C11.846,20.282,11.574,19.97,11.573,19.621
			L11.573,19.621z"/>
	</g>
	<g>
		<path fill="#231F20" d="M9.878,19.469c0-0.121,0.103-0.218,0.23-0.219l0,0c0.127,0,0.232,0.096,0.233,0.216l0,0
			c0.002,0.15,0.112,0.233,0.193,0.232l0,0c0.083,0,0.191-0.085,0.192-0.236l0,0c-0.001-0.12,0.101-0.218,0.229-0.219l0,0
			c0.128,0,0.232,0.096,0.233,0.216l0,0c0.002,0.348-0.265,0.665-0.652,0.672l0,0C10.152,20.13,9.881,19.817,9.878,19.469
			L9.878,19.469z"/>
	</g>
	<g>
		<path fill="#231F20" d="M11.787,19.75c-0.128-0.008-0.224-0.112-0.214-0.231l0,0c0-0.013,0-0.022,0.001-0.03l0,0
			c-0.003-0.135-0.095-0.219-0.181-0.223l0,0c0,0.001,0,0.001,0,0l0,0c-0.001,0-0.002,0-0.006,0.001l0,0
			c-0.077-0.005-0.185,0.077-0.2,0.219l0,0c-0.01,0.119-0.123,0.208-0.25,0.198l0,0c-0.128-0.009-0.221-0.115-0.21-0.234l0,0
			c0.029-0.331,0.297-0.61,0.657-0.617l0,0c0.018,0,0.039,0,0.056,0.002l0,0c0.36,0.031,0.596,0.329,0.596,0.65l0,0
			c0,0.021,0,0.043-0.001,0.064l0,0c-0.009,0.112-0.109,0.198-0.229,0.2l0,0C11.798,19.75,11.792,19.75,11.787,19.75L11.787,19.75z"
			/>
	</g>
	<g>
		<path fill="#231F20" d="M11.096,32.867c-0.003-0.399,0.34-0.726,0.767-0.727l0,0c0.426-0.004,0.773,0.316,0.775,0.716l0,0
			c0.003,0.399-0.341,0.724-0.766,0.727l0,0C11.445,33.587,11.098,33.266,11.096,32.867L11.096,32.867z M11.869,33.149
			c0.169-0.001,0.307-0.13,0.306-0.289l0,0c-0.001-0.161-0.14-0.287-0.31-0.288l0,0c-0.17,0.002-0.308,0.133-0.307,0.291l0,0
			C11.559,33.022,11.698,33.151,11.869,33.149L11.869,33.149z"/>
	</g>
	<g>
		<path fill="#231F20" d="M10.907,34.26c-0.381-0.262-0.522-0.256-0.617-0.259l0,0c-0.021,0-0.043,0-0.075,0.001l0,0
			c-0.126,0-0.231-0.097-0.232-0.216l0,0c0-0.121,0.104-0.218,0.23-0.218l0,0c0.013,0,0.039-0.001,0.075-0.002l0,0
			c0.176-0.004,0.477,0.046,0.896,0.348l0,0c0.277,0.191,0.549,0.221,0.693,0.221l0,0c0.033-0.002,0.059-0.004,0.076-0.005l0,0
			c0.017-0.001,0.019-0.003,0.019-0.003l0,0l0.04-0.004c0.309-0.001,0.6-0.149,0.82-0.389l0,0c0.217-0.236,0.353-0.559,0.349-0.863
			l0,0c-0.001-0.271-0.104-0.511-0.275-0.702l0,0c-0.219-0.243-0.545-0.393-0.91-0.392l0,0c-0.244,0.001-0.468,0.071-0.655,0.191
			l0,0l0,0c-0.106,0.067-0.251,0.043-0.322-0.057l0,0c-0.073-0.098-0.045-0.233,0.061-0.299l0,0c0.26-0.167,0.575-0.266,0.914-0.269
			l0,0c0.507-0.003,0.965,0.211,1.265,0.545l0,0c0.238,0.263,0.383,0.606,0.385,0.978l0,0c0,0.829-0.677,1.658-1.609,1.689l0,0
			c-0.029,0.004-0.082,0.008-0.153,0.009l0,0c-0.002,0-0.003-0.001-0.005,0l0,0C11.665,34.567,11.284,34.523,10.907,34.26
			L10.907,34.26z"/>
	</g>
	<g>
		<path fill="#231F20" d="M9.989,34.798c-0.001-0.119,0.103-0.218,0.23-0.22l0,0l0.386-0.003c0.527-0.004,0.676-0.306,0.689-0.317
			l0,0l0,0c0.055-0.108,0.19-0.153,0.306-0.104l0,0c0.116,0.052,0.167,0.178,0.114,0.288l0,0c-0.01,0.031-0.304,0.565-1.107,0.567
			l0,0l-0.385,0.004C10.094,35.014,9.99,34.916,9.989,34.798L9.989,34.798z M11.293,34.262L11.293,34.262L11.293,34.262
			L11.293,34.262L11.293,34.262L11.293,34.262z"/>
	</g>
</g>
<g>
	<g>
		<path fill="#231F20" d="M25.881,57.791c-3.035-4.316-3.949-10.186-4.02-10.613l0,0c-0.031-0.158-0.433-2.195-0.449-4.82l0,0
			c-0.017-2.782,0.385-6.258,2.215-8.813l0,0c0.035-0.045,3.027-4.496,8.336-4.548l0,0c0.253,0,0.459,0.231,0.461,0.523l0,0
			c0.002,0.288-0.201,0.525-0.455,0.527l0,0c-4.221,0.021-6.911,3.201-7.497,3.979l0,0c-0.086,0.109-0.119,0.16-0.128,0.174l0,0
			c-1.623,2.244-2.039,5.484-2.016,8.154l0,0c0.008,1.297,0.115,2.453,0.221,3.279l0,0c0.105,0.827,0.207,1.317,0.207,1.317l0,0
			l0.006,0.032c0.001,0,0.053,0.359,0.178,0.981l0,0c0.131,0.624,0.33,1.505,0.627,2.517l0,0c0.59,2.022,1.555,4.568,3.027,6.648
			l0,0c0.158,0.229,0.128,0.561-0.068,0.74l0,0c-0.084,0.08-0.184,0.117-0.283,0.119l0,0C26.107,57.99,25.973,57.924,25.881,57.791
			L25.881,57.791z"/>
	</g>
	<g>
		<path fill="#231F20" d="M37.688,57.797c-0.199-0.181-0.234-0.508-0.076-0.736l0,0c2.166-3.153,3.17-7.34,3.525-9.219l0,0
			c0.119-0.624,0.164-0.982,0.164-0.982l0,0l0.008-0.034c0-0.003,0.094-0.49,0.188-1.318l0,0c0.095-0.827,0.188-1.985,0.181-3.282
			l0,0c-0.017-2.67-0.476-5.904-2.138-8.139l0,0c0,0-0.034-0.052-0.118-0.159l0,0c-0.085-0.108-0.216-0.266-0.384-0.456l0,0
			c-0.344-0.383-0.852-0.896-1.512-1.407l0,0c-1.322-1.021-3.24-2.031-5.656-2.015l0,0c-0.252,0.002-0.459-0.233-0.461-0.521l0,0
			c-0.002-0.291,0.201-0.527,0.455-0.529l0,0c5.308-0.02,8.357,4.39,8.387,4.424l0,0c1.873,2.541,2.32,6.011,2.343,8.795l0,0
			c0.017,2.634-0.358,4.685-0.39,4.828l0,0c-0.063,0.438-0.899,6.315-3.873,10.666l0,0l0,0c-0.09,0.133-0.225,0.201-0.354,0.2l0,0
			C37.873,57.914,37.771,57.875,37.688,57.797L37.688,57.797z"/>
	</g>
	<g>
		<path fill="#231F20" d="M26.449,57.91c-0.207-0.135-0.264-0.398-0.119-0.596l0,0c1.76-2.39,1.949-8.342,1.938-9.615l0,0
			c-0.003-0.4-0.024-0.617-0.024-0.617l0,0v-0.027c-0.088-2.787-1.322-4.688-2.699-5.986l0,0c-1.377-1.295-2.898-1.959-3.491-2.182
			l0,0c-0.171-0.063-0.255-0.088-0.267-0.091l0,0c-0.002,0-0.09-0.03-0.271-0.08l0,0c-0.18-0.049-0.442-0.114-0.771-0.183l0,0
			c-0.656-0.131-1.57-0.264-2.582-0.256l0,0c-1.544,0.011-3.298,0.342-4.78,1.438l0,0c0,0.003,0,0-0.01,0.011l0,0
			c-0.014,0.01-0.033,0.024-0.056,0.045l0,0c-0.05,0.041-0.115,0.104-0.18,0.185l0,0c-0.13,0.158-0.241,0.366-0.238,0.588l0,0
			c0,0.062,0.008,0.13,0.028,0.202l0,0l0.013,0.055c0,0,0,0.004,0.01,0.043l0,0c0.01,0.039,0.025,0.1,0.056,0.174l0,0
			c0.056,0.148,0.159,0.355,0.336,0.57l0,0c0.358,0.428,1.002,0.901,2.33,1.029l0,0l0.051,0.008c0,0,0.077,0.018,0.25,0.033l0,0
			c0.17,0.021,0.42,0.039,0.728,0.037l0,0c1.21-0.012,3.228-0.327,4.809-2.188l0,0v0.002c0.156-0.187,0.445-0.22,0.645-0.069l0,0
			c0.199,0.146,0.23,0.418,0.074,0.603l0,0c-1.803,2.124-4.161,2.51-5.522,2.513l0,0c-0.62,0.002-1.045-0.063-1.151-0.085l0,0
			c-1.526-0.141-2.447-0.754-2.938-1.354l0,0c-0.447-0.542-0.558-1.043-0.581-1.171l0,0c-0.038-0.137-0.053-0.269-0.054-0.394l0,0
			c0.021-0.981,0.826-1.487,0.844-1.514l0,0c1.686-1.249,3.66-1.604,5.331-1.616l0,0c2.198-0.014,3.907,0.561,3.924,0.563l0,0
			c0.035,0.013,1.728,0.529,3.462,1.918l0,0c1.729,1.382,3.51,3.664,3.612,7.111l0,0c0.006,0.057,0.025,0.299,0.027,0.678l0,0
			c0.006,1.357-0.166,7.463-2.098,10.105l0,0c-0.088,0.121-0.23,0.188-0.374,0.189l0,0C26.621,57.988,26.529,57.965,26.449,57.91
			L26.449,57.91z"/>
	</g>
	<g>
		<path fill="#231F20" d="M15.646,42.135c-0.689-0.305-1.021-0.812-1.009-1.257l0,0c0.008-0.517,0.307-0.821,0.342-0.868l0,0
			c1.051-1.049,2.936-1.201,4.476-1.227l0,0c1.335-0.01,2.417,0.136,2.433,0.137l0,0l0,0c0.249,0.034,0.423,0.252,0.389,0.485l0,0
			c-0.005,0.017-0.009,0.034-0.013,0.054l0,0c0.043,0.027,0.084,0.063,0.115,0.105l0,0c0.147,0.19,0.102,0.459-0.104,0.598l0,0
			c-2.616,1.751-4.431,2.141-5.504,2.148l0,0C16.078,42.316,15.704,42.16,15.646,42.135L15.646,42.135z M16.063,41.367
			c0.022,0.01,0.06,0.021,0.119,0.035l0,0c0.118,0.024,0.311,0.055,0.582,0.053l0,0c0.794-0.004,2.294-0.275,4.58-1.729l0,0
			c-0.08-0.01-0.169-0.017-0.27-0.023l0,0c-0.416-0.035-0.989-0.068-1.616-0.063l0,0c-1.458-0.007-3.186,0.264-3.788,0.928l0,0
			c-0.001,0.005-0.005,0.009-0.011,0.016l0,0c-0.013,0.016-0.031,0.041-0.047,0.072l0,0c-0.034,0.063-0.063,0.146-0.062,0.217l0,0
			c0.013,0.102,0.008,0.246,0.493,0.49l0,0C16.05,41.365,16.054,41.367,16.063,41.367L16.063,41.367z"/>
	</g>
	<g>
		<path fill="#231F20" d="M37.147,57.73c-1.966-2.617-2.22-8.721-2.233-10.078l0,0c0-0.379,0.014-0.625,0.018-0.676l0,0
			c0.061-3.451,1.807-5.761,3.52-7.164l0,0c1.717-1.41,3.397-1.949,3.422-1.957l0,0c0.031-0.013,1.729-0.605,3.928-0.623l0,0
			c1.672-0.01,3.648,0.318,5.342,1.539l0,0c0.027,0.033,0.842,0.527,0.873,1.51l0,0c0.002,0.126-0.014,0.261-0.045,0.396l0,0
			c-0.025,0.138-0.133,0.636-0.568,1.177l0,0c-0.479,0.604-1.393,1.231-2.916,1.396l0,0c-0.104,0.021-0.531,0.095-1.149,0.099l0,0
			c-1.363,0.017-3.728-0.338-5.556-2.438l0,0l0,0c-0.164-0.182-0.133-0.453,0.064-0.602l0,0c0.193-0.15,0.482-0.125,0.643,0.059l0,0
			c1.607,1.84,3.631,2.128,4.84,2.123l0,0c0.308-0.002,0.558-0.023,0.728-0.045l0,0c0.172-0.021,0.248-0.038,0.25-0.038l0,0
			l0.049-0.009c2.296-0.262,2.609-1.529,2.701-1.813l0,0c0.006-0.039,0.01-0.043,0.01-0.043l0,0l0.011-0.056
			c0.02-0.072,0.024-0.139,0.024-0.2l0,0c0.019-0.382-0.385-0.749-0.479-0.813l0,0c-0.012-0.01-0.012-0.01-0.023-0.018l0,0
			c-1.488-1.07-3.244-1.377-4.789-1.365l0,0c-1.518,0.01-2.809,0.33-3.346,0.484l0,0c-0.18,0.052-0.268,0.082-0.279,0.086l0,0
			c0,0-0.082,0.027-0.25,0.092l0,0c-0.168,0.066-0.41,0.172-0.708,0.314l0,0c-0.587,0.289-1.379,0.742-2.167,1.389l0,0
			c-1.58,1.306-3.15,3.363-3.207,6.549l0,0v0.025c0.001,0.002-0.021,0.221-0.018,0.617l0,0c0.005,1.271,0.275,7.225,2.068,9.59l0,0
			c0.145,0.19,0.094,0.459-0.113,0.598l0,0c-0.078,0.053-0.168,0.078-0.26,0.08l0,0C37.381,57.916,37.238,57.85,37.147,57.73
			L37.147,57.73z"/>
	</g>
	<g>
		<path fill="#231F20" d="M47.254,42.105c-1.072,0.008-2.893-0.357-5.531-2.073l0,0c-0.207-0.136-0.258-0.401-0.115-0.597l0,0
			c0.033-0.045,0.072-0.08,0.115-0.106l0,0c-0.005-0.017-0.01-0.035-0.012-0.056l0,0c-0.041-0.232,0.131-0.451,0.383-0.488l0,0
			c0.012-0.002,1.096-0.162,2.43-0.17l0,0c1.539,0.004,3.426,0.131,4.506,1.176l0,0c0.021,0.039,0.326,0.337,0.34,0.854l0,0
			c0.019,0.445-0.309,0.957-0.994,1.271l0,0c-0.055,0.025-0.428,0.188-1.114,0.191l0,0C47.258,42.105,47.254,42.105,47.254,42.105
			L47.254,42.105z M47.248,41.249c0.442-0.003,0.674-0.085,0.715-0.099l0,0c0.48-0.252,0.479-0.397,0.488-0.5l0,0
			c0.006-0.104-0.082-0.254-0.115-0.291l0,0c0-0.004-0.004-0.006-0.006-0.008l0,0l0,0V40.35c-0.633-0.662-2.353-0.904-3.801-0.877
			l0,0c-0.632,0.002-1.207,0.043-1.627,0.084l0,0c-0.095,0.008-0.181,0.017-0.257,0.025l0,0
			C44.949,41.003,46.453,41.254,47.248,41.249L47.248,41.249z"/>
	</g>
	<g>
		<path fill="#231F20" d="M26.445,33.62c-0.002-0.235,0.201-0.431,0.455-0.433l0,0c0.252-0.002,0.459,0.19,0.461,0.427l0,0
			c0.004,0.296,0.221,0.462,0.385,0.46l0,0c0.164-0.001,0.377-0.17,0.379-0.465l0,0c-0.002-0.237,0.203-0.43,0.455-0.434l0,0
			c0.252-0.001,0.461,0.19,0.463,0.428l0,0c0.003,0.688-0.525,1.314-1.289,1.328l0,0C26.988,34.928,26.451,34.311,26.445,33.62
			L26.445,33.62z"/>
	</g>
	<g>
		<path fill="#231F20" d="M29.793,33.273c0-0.238,0.201-0.432,0.455-0.435l0,0c0.252-0.002,0.459,0.19,0.461,0.427l0,0
			c0.006,0.299,0.223,0.463,0.385,0.463l0,0c0.164-0.004,0.377-0.17,0.379-0.468l0,0c-0.001-0.237,0.201-0.432,0.455-0.433l0,0
			c0.251-0.001,0.459,0.189,0.461,0.427l0,0c0.003,0.688-0.525,1.315-1.289,1.329l0,0C30.334,34.582,29.799,33.962,29.793,33.273
			L29.793,33.273z"/>
	</g>
	<g>
		<path fill="#231F20" d="M28.125,33.482c-0.006-0.051-0.008-0.098-0.008-0.138l0,0c-0.008-0.637,0.451-1.229,1.164-1.302l0,0l0,0
			c0.045-0.005,0.08-0.005,0.107-0.007l0,0c0.712,0.005,1.251,0.549,1.318,1.203l0,0l0,0c0.025,0.237-0.159,0.446-0.411,0.47l0,0
			c-0.25,0.023-0.476-0.15-0.501-0.387l0,0c-0.028-0.277-0.247-0.437-0.401-0.428l0,0c-0.006-0.002-0.006,0-0.006,0l0,0
			l-0.021,0.002c-0.153,0.008-0.334,0.174-0.334,0.443l0,0c-0.002,0.018,0,0.034,0.002,0.047l0,0
			c0.028,0.235-0.153,0.447-0.404,0.475l0,0c-0.016,0-0.033,0.003-0.049,0.002l0,0C28.352,33.865,28.152,33.703,28.125,33.482
			L28.125,33.482z"/>
	</g>
	<g>
		<path fill="#231F20" d="M27.283,59.82c-0.004-0.789,0.674-1.435,1.519-1.439l0,0c0.844-0.008,1.53,0.63,1.537,1.42l0,0
			c0.006,0.792-0.677,1.434-1.519,1.438l0,0C27.977,61.246,27.289,60.613,27.283,59.82L27.283,59.82z M28.199,59.816
			c0.004,0.313,0.277,0.565,0.615,0.563l0,0c0.338-0.002,0.609-0.258,0.607-0.571l0,0c-0.002-0.316-0.276-0.57-0.615-0.569l0,0
			C28.469,59.244,28.199,59.498,28.199,59.816L28.199,59.816z"/>
	</g>
	<g>
		<path fill="#231F20" d="M28.83,63.186c-0.144,0-0.248-0.008-0.303-0.013l0,0c-1.847-0.038-3.207-1.659-3.229-3.302l0,0
			c-0.007-0.735,0.271-1.417,0.735-1.941l0,0c0.59-0.672,1.485-1.106,2.488-1.113l0,0c0.672-0.004,1.299,0.183,1.813,0.507l0,0
			l0.007-0.003c0.207,0.131,0.266,0.396,0.125,0.595l0,0c-0.142,0.196-0.425,0.25-0.636,0.119l0,0
			c-0.375-0.232-0.819-0.367-1.305-0.361l0,0c-0.721,0.004-1.361,0.313-1.787,0.802l0,0c-0.334,0.379-0.529,0.86-0.524,1.393l0,0
			c0,0.605,0.274,1.236,0.715,1.701l0,0c0.438,0.468,1.019,0.752,1.63,0.748l0,0l0.08,0.008c0.001,0,0,0.002,0.034,0.006l0,0
			c0.032-0.001,0.085,0.003,0.151,0.007l0,0c0.282-0.004,0.82-0.067,1.363-0.459l0,0c0.822-0.604,1.416-0.712,1.766-0.708l0,0
			c0.072-0.002,0.123,0.002,0.148,0.002l0,0c0.252-0.002,0.459,0.186,0.461,0.426l0,0c0,0.234-0.201,0.43-0.455,0.433l0,0
			c-0.063-0.003-0.105-0.003-0.148-0.003l0,0c-0.187,0.01-0.467,0.005-1.211,0.527l0,0c-0.739,0.536-1.49,0.633-1.909,0.635l0,0
			C28.836,63.186,28.832,63.186,28.83,63.186L28.83,63.186z"/>
	</g>
	<g>
		<path fill="#231F20" d="M29.154,62.936L29.154,62.936c-0.105-0.221-0.012-0.471,0.219-0.574l0,0
			c0.226-0.1,0.496-0.014,0.607,0.197l0,0c0,0,0.002,0.004,0.006,0.01l0,0c0.008,0.017,0.022,0.035,0.045,0.063l0,0
			c0.043,0.058,0.113,0.134,0.219,0.216l0,0c0.209,0.159,0.535,0.326,1.104,0.325l0,0l0.765-0.003
			c0.254-0.003,0.461,0.188,0.463,0.423l0,0c0.002,0.239-0.205,0.435-0.457,0.437l0,0l-0.764,0.004c0-0.002-0.005-0.002-0.006-0.002
			l0,0C29.77,64.04,29.176,62.995,29.154,62.936L29.154,62.936z"/>
	</g>
	<g>
		<path fill="#231F20" d="M34.871,33.563c-0.002-0.236,0.199-0.431,0.453-0.433l0,0c0.254-0.001,0.459,0.19,0.461,0.427l0,0
			c0.006,0.297,0.223,0.461,0.385,0.461l0,0c0.164-0.002,0.377-0.17,0.379-0.466l0,0c-0.002-0.235,0.201-0.431,0.455-0.432l0,0
			c0.252-0.002,0.459,0.188,0.461,0.425l0,0c0.002,0.689-0.525,1.314-1.29,1.329l0,0C35.412,34.871,34.875,34.254,34.871,33.563
			L34.871,33.563z"/>
	</g>
	<g>
		<path fill="#231F20" d="M31.518,33.262c-0.002-0.238,0.203-0.432,0.455-0.434l0,0c0.253-0.001,0.461,0.191,0.463,0.428l0,0
			c0.004,0.297,0.221,0.461,0.383,0.461l0,0c0.164-0.002,0.377-0.17,0.379-0.467l0,0c-0.002-0.236,0.199-0.432,0.455-0.434l0,0
			c0.252,0,0.459,0.19,0.461,0.429l0,0c0.004,0.688-0.524,1.315-1.291,1.329l0,0C32.061,34.57,31.523,33.951,31.518,33.262
			L31.518,33.262z"/>
	</g>
	<g>
		<path fill="#231F20" d="M35.296,33.818c-0.255-0.017-0.442-0.221-0.425-0.457l0,0c0-0.025,0.002-0.045,0.002-0.061l0,0
			c-0.006-0.268-0.188-0.433-0.357-0.439l0,0c0,0.002,0,0.002-0.002-0.002l0,0c-0.002,0-0.004,0-0.01,0.002l0,0
			c-0.152-0.008-0.367,0.152-0.395,0.435l0,0c-0.021,0.236-0.244,0.412-0.496,0.392l0,0c-0.252-0.018-0.438-0.227-0.416-0.463l0,0
			c0.057-0.654,0.588-1.207,1.301-1.221l0,0c0.035,0,0.076,0,0.111,0.005l0,0c0.713,0.062,1.178,0.649,1.178,1.287l0,0
			c0.002,0.042,0,0.087-0.002,0.126l0,0c-0.019,0.223-0.217,0.395-0.453,0.396l0,0C35.32,33.816,35.307,33.816,35.296,33.818
			L35.296,33.818z"/>
	</g>
	<g>
		<path fill="#231F20" d="M33.928,59.777c-0.006-0.791,0.673-1.437,1.518-1.438l0,0c0.842-0.009,1.529,0.626,1.534,1.417l0,0
			c0.007,0.791-0.675,1.434-1.517,1.438l0,0C34.619,61.203,33.934,60.566,33.928,59.777L33.928,59.777z M35.459,60.337
			c0.336-0.003,0.606-0.259,0.604-0.573l0,0c-0.001-0.318-0.277-0.568-0.613-0.57l0,0c-0.338,0.007-0.609,0.264-0.607,0.578l0,0
			C34.846,60.086,35.119,60.34,35.459,60.337L35.459,60.337z"/>
	</g>
	<g>
		<path fill="#231F20" d="M33.555,62.532c-0.754-0.517-1.035-0.505-1.221-0.513l0,0c-0.043,0-0.088,0-0.148,0.002l0,0
			c-0.25,0.002-0.459-0.19-0.461-0.426l0,0c-0.001-0.238,0.204-0.431,0.455-0.433l0,0c0.025,0,0.078-0.002,0.148-0.004l0,0
			c0.349-0.009,0.944,0.091,1.774,0.688l0,0c0.548,0.379,1.086,0.438,1.371,0.437l0,0c0.065-0.002,0.117-0.007,0.149-0.009l0,0
			c0.031-0.002,0.037-0.006,0.037-0.006l0,0l0.078-0.008c0.611-0.003,1.188-0.297,1.623-0.77l0,0c0.43-0.469,0.697-1.106,0.69-1.709
			l0,0c-0.003-0.534-0.206-1.012-0.546-1.391l0,0c-0.432-0.479-1.077-0.777-1.799-0.773l0,0c-0.482,0.003-0.926,0.141-1.297,0.377
			l0,0l0,0c-0.211,0.133-0.496,0.086-0.639-0.111l0,0c-0.145-0.193-0.089-0.462,0.12-0.592l0,0c0.517-0.332,1.138-0.527,1.81-0.532
			l0,0c1.002-0.007,1.908,0.417,2.502,1.079l0,0c0.473,0.521,0.76,1.2,0.763,1.936l0,0c0.001,1.642-1.339,3.281-3.185,3.345l0,0
			c-0.059,0.008-0.162,0.015-0.302,0.019l0,0c-0.006,0-0.008-0.003-0.012,0l0,0C35.055,63.143,34.301,63.055,33.555,62.532
			L33.555,62.532z"/>
	</g>
	<g>
		<path fill="#231F20" d="M31.736,63.6c-0.002-0.236,0.204-0.432,0.457-0.435l0,0l0.764-0.006c1.043-0.009,1.338-0.606,1.363-0.63
			l0,0l0,0c0.108-0.213,0.377-0.303,0.605-0.206l0,0c0.229,0.103,0.33,0.352,0.225,0.569l0,0c-0.02,0.063-0.602,1.119-2.188,1.125
			l0,0l-0.765,0.008C31.945,64.025,31.74,63.832,31.736,63.6L31.736,63.6z M34.318,62.536L34.318,62.536L34.318,62.536
			L34.318,62.536L34.318,62.536L34.318,62.536z"/>
	</g>
</g>
<g>
	<g>
		<path fill="#231F20" d="M18.16,14.551c-1.533-2.181-1.996-5.146-2.03-5.363l0,0c-0.017-0.081-0.219-1.11-0.228-2.436l0,0
			c-0.008-1.406,0.193-3.162,1.119-4.455l0,0c0.018-0.022,1.53-2.271,4.212-2.298l0,0c0.128,0,0.231,0.117,0.232,0.264l0,0
			c0.001,0.146-0.102,0.265-0.229,0.266l0,0c-2.133,0.011-3.492,1.618-3.789,2.011l0,0c-0.043,0.056-0.061,0.082-0.064,0.088l0,0
			c-0.82,1.134-1.031,2.771-1.019,4.12l0,0c0.004,0.655,0.059,1.24,0.112,1.658l0,0c0.053,0.418,0.104,0.666,0.104,0.666l0,0
			l0.004,0.017c0,0,0.026,0.182,0.09,0.496l0,0c0.064,0.315,0.166,0.76,0.316,1.271l0,0c0.297,1.022,0.785,2.309,1.529,3.36l0,0
			c0.08,0.114,0.064,0.282-0.035,0.374l0,0c-0.041,0.04-0.092,0.059-0.143,0.06l0,0C18.274,14.652,18.207,14.618,18.16,14.551
			L18.16,14.551z"/>
	</g>
	<g>
		<path fill="#231F20" d="M24.125,14.554c-0.101-0.091-0.118-0.257-0.039-0.372l0,0c1.095-1.594,1.603-3.708,1.782-4.658l0,0
			c0.06-0.315,0.083-0.496,0.083-0.496l0,0l0.004-0.018c0-0.001,0.047-0.248,0.095-0.666l0,0c0.047-0.418,0.095-1.003,0.091-1.659
			l0,0c-0.009-1.348-0.24-2.983-1.079-4.112l0,0c0,0-0.02-0.025-0.062-0.081l0,0c-0.042-0.055-0.108-0.134-0.193-0.23l0,0
			c-0.173-0.194-0.43-0.453-0.763-0.711l0,0c-0.668-0.516-1.638-1.026-2.858-1.018l0,0c-0.128,0.001-0.231-0.118-0.233-0.264l0,0
			c0-0.147,0.102-0.266,0.23-0.267l0,0c2.682-0.01,4.223,2.218,4.237,2.236l0,0c0.947,1.284,1.174,3.037,1.185,4.444l0,0
			c0.008,1.331-0.182,2.367-0.197,2.44l0,0c-0.031,0.222-0.455,3.192-1.957,5.39l0,0l0,0c-0.045,0.067-0.113,0.102-0.18,0.102l0,0
			C24.22,14.613,24.168,14.594,24.125,14.554L24.125,14.554z"/>
	</g>
	<g>
		<path fill="#231F20" d="M18.447,14.611c-0.105-0.068-0.133-0.202-0.061-0.301l0,0c0.889-1.207,0.985-4.215,0.979-4.859l0,0
			C19.365,9.25,19.353,9.14,19.353,9.14l0,0V9.126c-0.044-1.409-0.668-2.37-1.363-3.024l0,0C17.294,5.448,16.525,5.112,16.224,5l0,0
			c-0.086-0.033-0.128-0.045-0.133-0.047l0,0c-0.002,0-0.046-0.015-0.137-0.041l0,0c-0.092-0.025-0.225-0.058-0.39-0.092l0,0
			c-0.332-0.066-0.794-0.133-1.305-0.129l0,0c-0.78,0.005-1.667,0.172-2.415,0.727l0,0c0,0.001,0,0-0.006,0.005l0,0
			c-0.007,0.004-0.017,0.012-0.028,0.022l0,0c-0.024,0.021-0.058,0.053-0.091,0.093l0,0c-0.065,0.08-0.121,0.186-0.12,0.297l0,0
			c0,0.032,0.005,0.066,0.015,0.103l0,0l0.006,0.028c0,0,0,0.002,0.006,0.021l0,0c0.004,0.02,0.012,0.05,0.027,0.087l0,0
			c0.029,0.075,0.08,0.18,0.17,0.289l0,0c0.182,0.215,0.507,0.456,1.178,0.52l0,0l0.025,0.004c0,0,0.039,0.008,0.127,0.017l0,0
			c0.086,0.011,0.212,0.02,0.367,0.019l0,0c0.611-0.006,1.631-0.166,2.431-1.106l0,0v0.001c0.079-0.095,0.226-0.111,0.325-0.035l0,0
			c0.102,0.074,0.117,0.21,0.037,0.304l0,0c-0.91,1.073-2.102,1.268-2.789,1.269l0,0c-0.314,0.001-0.528-0.031-0.582-0.042l0,0
			c-0.771-0.071-1.236-0.381-1.484-0.685l0,0c-0.227-0.273-0.282-0.527-0.294-0.591l0,0c-0.019-0.069-0.026-0.135-0.027-0.198l0,0
			c0.011-0.496,0.417-0.752,0.427-0.766l0,0c0.852-0.631,1.85-0.811,2.693-0.816l0,0c1.111-0.007,1.975,0.282,1.983,0.284l0,0
			c0.019,0.006,0.872,0.268,1.749,0.969l0,0c0.874,0.698,1.773,1.852,1.826,3.594l0,0c0.002,0.028,0.012,0.15,0.014,0.343l0,0
			c0.002,0.686-0.085,3.771-1.061,5.106l0,0c-0.044,0.061-0.116,0.095-0.189,0.096l0,0C18.534,14.651,18.488,14.639,18.447,14.611
			L18.447,14.611z"/>
	</g>
	<g>
		<path fill="#231F20" d="M12.988,6.64c-0.348-0.154-0.516-0.41-0.51-0.635l0,0c0.004-0.261,0.155-0.415,0.174-0.438l0,0
			c0.53-0.53,1.482-0.607,2.262-0.62l0,0c0.674-0.005,1.222,0.069,1.229,0.069l0,0l0,0c0.127,0.017,0.214,0.127,0.196,0.245l0,0
			c-0.002,0.009-0.003,0.018-0.005,0.027l0,0c0.021,0.013,0.041,0.031,0.057,0.053l0,0c0.075,0.097,0.052,0.232-0.053,0.302l0,0
			c-1.321,0.885-2.238,1.082-2.781,1.085l0,0C13.207,6.731,13.017,6.653,12.988,6.64L12.988,6.64z M13.199,6.252
			c0.011,0.005,0.03,0.011,0.061,0.019l0,0c0.059,0.012,0.156,0.027,0.293,0.026l0,0c0.401-0.002,1.16-0.139,2.314-0.874l0,0
			c-0.04-0.004-0.085-0.008-0.135-0.011l0,0c-0.211-0.018-0.5-0.034-0.816-0.032l0,0c-0.737-0.003-1.61,0.134-1.914,0.47l0,0
			C13,5.852,12.999,5.854,12.996,5.856l0,0c-0.007,0.008-0.016,0.021-0.023,0.037l0,0c-0.018,0.032-0.032,0.074-0.031,0.109l0,0
			c0.006,0.052,0.004,0.125,0.248,0.248l0,0C13.192,6.251,13.194,6.251,13.199,6.252L13.199,6.252z"/>
	</g>
	<g>
		<path fill="#231F20" d="M23.853,14.521c-0.994-1.323-1.121-4.407-1.129-5.092l0,0c0-0.192,0.007-0.316,0.009-0.342l0,0
			c0.03-1.744,0.912-2.91,1.778-3.62l0,0c0.867-0.713,1.717-0.985,1.729-0.989l0,0c0.016-0.006,0.875-0.306,1.984-0.314l0,0
			c0.845-0.005,1.844,0.161,2.699,0.777l0,0c0.014,0.017,0.426,0.267,0.441,0.763l0,0c0.002,0.063-0.007,0.131-0.023,0.2l0,0
			c-0.012,0.069-0.066,0.321-0.286,0.595l0,0c-0.242,0.305-0.704,0.622-1.474,0.705l0,0C29.528,7.214,29.314,7.25,29,7.253l0,0
			c-0.688,0.008-1.883-0.17-2.806-1.231l0,0l0,0c-0.083-0.092-0.067-0.229,0.032-0.305l0,0c0.098-0.076,0.244-0.063,0.326,0.03l0,0
			c0.812,0.93,1.834,1.075,2.445,1.073l0,0c0.154-0.001,0.281-0.012,0.367-0.023l0,0c0.086-0.011,0.125-0.02,0.125-0.02l0,0
			l0.025-0.005C30.675,6.642,30.833,6,30.88,5.857l0,0c0.003-0.02,0.004-0.022,0.004-0.022l0,0l0.007-0.027
			c0.009-0.037,0.013-0.07,0.013-0.102l0,0c0.008-0.193-0.195-0.378-0.244-0.411l0,0c-0.006-0.005-0.006-0.005-0.012-0.009l0,0
			c-0.751-0.541-1.639-0.696-2.419-0.69l0,0c-0.767,0.005-1.419,0.167-1.69,0.245l0,0c-0.09,0.026-0.136,0.042-0.141,0.043l0,0
			c0,0-0.043,0.014-0.127,0.047l0,0c-0.086,0.034-0.207,0.086-0.357,0.159l0,0c-0.297,0.146-0.697,0.375-1.096,0.701l0,0
			c-0.798,0.66-1.592,1.699-1.62,3.309l0,0v0.013c0.001,0.001-0.011,0.111-0.009,0.312l0,0c0.002,0.643,0.139,3.651,1.045,4.847l0,0
			c0.073,0.096,0.049,0.231-0.057,0.301l0,0c-0.04,0.026-0.086,0.04-0.131,0.04l0,0C23.97,14.614,23.899,14.58,23.853,14.521
			L23.853,14.521z"/>
	</g>
	<g>
		<path fill="#231F20" d="M28.959,6.625c-0.542,0.004-1.462-0.181-2.795-1.048l0,0c-0.104-0.068-0.13-0.203-0.058-0.301l0,0
			c0.016-0.023,0.036-0.041,0.058-0.054l0,0c-0.003-0.009-0.005-0.018-0.007-0.028l0,0c-0.02-0.118,0.067-0.228,0.194-0.248l0,0
			c0.006,0,0.554-0.082,1.228-0.085l0,0c0.777,0.001,1.731,0.066,2.276,0.594l0,0c0.012,0.02,0.165,0.17,0.173,0.432l0,0
			c0.008,0.225-0.156,0.483-0.503,0.642l0,0c-0.028,0.014-0.216,0.095-0.563,0.097l0,0C28.962,6.625,28.959,6.625,28.959,6.625
			L28.959,6.625z M28.957,6.192c0.225-0.001,0.34-0.043,0.361-0.05l0,0c0.242-0.127,0.242-0.2,0.246-0.252l0,0
			c0.004-0.053-0.041-0.129-0.058-0.147l0,0c0-0.002-0.002-0.002-0.003-0.003l0,0l0,0V5.738c-0.32-0.335-1.189-0.457-1.921-0.444
			l0,0c-0.319,0.001-0.61,0.022-0.821,0.043l0,0c-0.048,0.004-0.092,0.008-0.13,0.013l0,0C27.796,6.067,28.556,6.194,28.957,6.192
			L28.957,6.192z"/>
	</g>
	<g>
		<path fill="#231F20" d="M18.445,2.337c0-0.119,0.102-0.217,0.23-0.218l0,0c0.127-0.001,0.231,0.096,0.232,0.215l0,0
			c0.002,0.149,0.111,0.233,0.195,0.232l0,0c0.082,0,0.189-0.086,0.19-0.235l0,0c-0.001-0.12,0.103-0.217,0.23-0.219l0,0
			c0.127,0,0.232,0.096,0.233,0.215l0,0C19.759,2.677,19.492,2.993,19.106,3l0,0C18.718,2.999,18.449,2.686,18.445,2.337
			L18.445,2.337z"/>
	</g>
	<g>
		<path fill="#231F20" d="M20.137,2.162c-0.001-0.121,0.102-0.218,0.229-0.219l0,0c0.127-0.001,0.232,0.096,0.232,0.215l0,0
			c0.003,0.151,0.113,0.233,0.194,0.233l0,0c0.083-0.001,0.191-0.085,0.192-0.235l0,0c0-0.121,0.101-0.218,0.23-0.219l0,0
			c0.126,0,0.231,0.095,0.232,0.216l0,0c0.002,0.348-0.266,0.665-0.652,0.671l0,0C20.411,2.823,20.139,2.51,20.137,2.162
			L20.137,2.162z"/>
	</g>
	<g>
		<path fill="#231F20" d="M19.294,2.268c-0.004-0.026-0.004-0.049-0.004-0.069l0,0c-0.005-0.322,0.227-0.621,0.588-0.658l0,0l0,0
			c0.022-0.002,0.041-0.002,0.055-0.003l0,0c0.359,0.002,0.631,0.278,0.666,0.608l0,0l0,0c0.013,0.12-0.082,0.225-0.209,0.237l0,0
			c-0.125,0.012-0.24-0.076-0.252-0.195l0,0c-0.015-0.14-0.125-0.22-0.203-0.216l0,0c-0.004-0.001-0.004,0-0.004,0l0,0l-0.01,0.001
			c-0.078,0.003-0.169,0.088-0.17,0.225l0,0c0,0.009,0,0.017,0.002,0.023l0,0c0.014,0.119-0.078,0.226-0.205,0.24l0,0
			c-0.008,0-0.017,0.001-0.023,0.001l0,0C19.409,2.461,19.307,2.379,19.294,2.268L19.294,2.268z"/>
	</g>
	<g>
		<path fill="#231F20" d="M18.869,15.577c-0.002-0.399,0.34-0.725,0.768-0.728l0,0c0.426-0.004,0.773,0.317,0.776,0.717l0,0
			c0.003,0.4-0.342,0.724-0.768,0.727l0,0C19.219,16.297,18.872,15.978,18.869,15.577L18.869,15.577z M19.332,15.574
			c0.002,0.158,0.141,0.286,0.311,0.285l0,0c0.17,0,0.309-0.13,0.307-0.289l0,0c0-0.16-0.139-0.288-0.311-0.287l0,0
			C19.468,15.285,19.332,15.414,19.332,15.574L19.332,15.574z"/>
	</g>
	<g>
		<path fill="#231F20" d="M19.651,17.276c-0.073,0-0.126-0.004-0.153-0.006l0,0c-0.934-0.02-1.621-0.839-1.633-1.669l0,0
			c-0.002-0.371,0.138-0.716,0.372-0.98l0,0c0.298-0.34,0.751-0.56,1.259-0.563l0,0c0.338-0.002,0.655,0.091,0.916,0.255l0,0
			l0.002,0c0.105,0.065,0.135,0.199,0.064,0.3l0,0c-0.072,0.1-0.215,0.126-0.322,0.06l0,0c-0.189-0.118-0.414-0.186-0.658-0.183l0,0
			c-0.364,0.002-0.688,0.158-0.902,0.405l0,0c-0.17,0.191-0.27,0.435-0.267,0.704l0,0c0,0.306,0.14,0.624,0.361,0.859l0,0
			c0.222,0.236,0.515,0.38,0.823,0.378l0,0l0.041,0.004c0,0,0,0.001,0.018,0.003l0,0c0.016,0,0.042,0.002,0.076,0.004l0,0
			c0.143-0.002,0.414-0.034,0.689-0.232l0,0c0.415-0.306,0.715-0.359,0.891-0.357l0,0c0.037-0.001,0.063,0,0.075,0.001l0,0
			c0.128-0.001,0.232,0.094,0.233,0.215l0,0c0,0.118-0.102,0.217-0.23,0.218l0,0c-0.031-0.001-0.053-0.001-0.074-0.001l0,0
			c-0.095,0.005-0.236,0.002-0.612,0.267l0,0c-0.374,0.271-0.753,0.319-0.965,0.32l0,0C19.653,17.276,19.651,17.276,19.651,17.276
			L19.651,17.276z"/>
	</g>
	<g>
		<path fill="#231F20" d="M19.814,17.15L19.814,17.15c-0.054-0.111-0.006-0.238,0.111-0.29l0,0c0.113-0.051,0.25-0.007,0.307,0.1
			l0,0c0,0,0.001,0.001,0.003,0.005l0,0c0.003,0.008,0.011,0.018,0.021,0.032l0,0c0.022,0.028,0.058,0.067,0.11,0.109l0,0
			c0.105,0.08,0.271,0.164,0.559,0.164l0,0l0.386-0.002c0.128-0.002,0.233,0.095,0.233,0.214l0,0c0.001,0.121-0.104,0.22-0.23,0.221
			l0,0l-0.387,0.002c0-0.001-0.002-0.001-0.002-0.001l0,0C20.125,17.708,19.826,17.18,19.814,17.15L19.814,17.15z"/>
	</g>
	<g>
		<path fill="#231F20" d="M22.703,2.309c0-0.12,0.102-0.217,0.23-0.218l0,0c0.127,0,0.231,0.097,0.232,0.215l0,0
			c0.002,0.15,0.111,0.233,0.193,0.233l0,0c0.084-0.001,0.19-0.086,0.191-0.235l0,0c0-0.12,0.103-0.218,0.23-0.218l0,0
			c0.127-0.001,0.231,0.096,0.232,0.215l0,0c0.002,0.348-0.266,0.665-0.651,0.671l0,0C22.976,2.969,22.705,2.657,22.703,2.309
			L22.703,2.309z"/>
	</g>
	<g>
		<path fill="#231F20" d="M21.008,2.156c-0.001-0.121,0.103-0.218,0.23-0.219l0,0c0.128,0,0.232,0.096,0.233,0.216l0,0
			c0.002,0.15,0.111,0.233,0.193,0.232l0,0c0.083,0,0.19-0.085,0.191-0.236l0,0c0-0.12,0.102-0.218,0.229-0.219l0,0
			c0.128,0,0.231,0.096,0.233,0.216l0,0c0.002,0.348-0.266,0.665-0.652,0.672l0,0C21.283,2.817,21.011,2.504,21.008,2.156
			L21.008,2.156z"/>
	</g>
	<g>
		<path fill="#231F20" d="M22.917,2.437c-0.129-0.008-0.225-0.112-0.215-0.231l0,0c0-0.013,0.001-0.022,0.002-0.03l0,0
			c-0.004-0.135-0.096-0.219-0.182-0.223l0,0c0,0.001,0,0.001,0,0l0,0c-0.002,0-0.003,0-0.006,0.001l0,0
			c-0.077-0.005-0.186,0.077-0.2,0.219l0,0c-0.011,0.119-0.123,0.208-0.25,0.198l0,0c-0.128-0.009-0.222-0.115-0.21-0.234l0,0
			c0.028-0.331,0.297-0.61,0.656-0.617l0,0c0.018,0,0.039,0,0.057,0.002l0,0c0.36,0.031,0.596,0.329,0.596,0.65l0,0
			c0,0.021,0,0.043-0.002,0.064l0,0c-0.008,0.112-0.109,0.198-0.229,0.2l0,0C22.929,2.437,22.923,2.437,22.917,2.437L22.917,2.437z"
			/>
	</g>
	<g>
		<path fill="#231F20" d="M22.226,15.555c-0.003-0.399,0.34-0.726,0.767-0.727l0,0c0.426-0.004,0.772,0.316,0.775,0.716l0,0
			c0.003,0.399-0.341,0.724-0.766,0.727l0,0C22.576,16.274,22.228,15.953,22.226,15.555L22.226,15.555z M23,15.837
			c0.17-0.001,0.307-0.13,0.306-0.289l0,0c-0.001-0.161-0.14-0.287-0.31-0.288l0,0c-0.171,0.002-0.309,0.133-0.308,0.291l0,0
			C22.689,15.71,22.829,15.839,23,15.837L23,15.837z"/>
	</g>
	<g>
		<path fill="#231F20" d="M22.037,16.947c-0.381-0.262-0.521-0.256-0.616-0.259l0,0c-0.021,0-0.044,0-0.075,0.001l0,0
			c-0.126,0-0.231-0.097-0.232-0.216l0,0c0-0.121,0.104-0.218,0.23-0.218l0,0c0.014,0,0.039-0.001,0.075-0.002l0,0
			c0.176-0.004,0.477,0.046,0.896,0.348l0,0c0.277,0.191,0.55,0.221,0.693,0.221l0,0c0.033-0.002,0.059-0.004,0.076-0.005l0,0
			c0.017-0.001,0.019-0.003,0.019-0.003l0,0l0.04-0.004c0.309-0.001,0.6-0.149,0.82-0.389l0,0c0.217-0.236,0.352-0.559,0.349-0.863
			l0,0c-0.001-0.271-0.104-0.511-0.275-0.702l0,0c-0.219-0.243-0.545-0.393-0.909-0.392l0,0c-0.244,0.001-0.469,0.071-0.655,0.191
			l0,0l0,0c-0.106,0.067-0.251,0.043-0.322-0.057l0,0c-0.073-0.098-0.045-0.233,0.061-0.299l0,0
			c0.261-0.167,0.575-0.266,0.913-0.269l0,0c0.508-0.003,0.965,0.211,1.266,0.545l0,0c0.238,0.263,0.383,0.606,0.385,0.978l0,0
			c0,0.829-0.677,1.658-1.609,1.689l0,0c-0.029,0.004-0.082,0.008-0.152,0.009l0,0c-0.002,0-0.004-0.001-0.006,0l0,0
			C22.795,17.255,22.415,17.211,22.037,16.947L22.037,16.947z"/>
	</g>
	<g>
		<path fill="#231F20" d="M21.119,17.485c-0.001-0.119,0.104-0.218,0.23-0.22l0,0l0.386-0.003c0.527-0.004,0.677-0.306,0.689-0.317
			l0,0l0,0c0.055-0.108,0.19-0.153,0.306-0.104l0,0c0.115,0.052,0.167,0.178,0.113,0.288l0,0c-0.01,0.031-0.304,0.565-1.106,0.567
			l0,0L21.351,17.7C21.224,17.701,21.121,17.604,21.119,17.485L21.119,17.485z M22.423,16.949L22.423,16.949L22.423,16.949
			L22.423,16.949L22.423,16.949L22.423,16.949z"/>
	</g>
</g>
<g>
	<g>
		<path fill="#231F20" d="M40.942,14.551c-1.533-2.181-1.996-5.146-2.03-5.363l0,0c-0.017-0.081-0.219-1.11-0.228-2.436l0,0
			c-0.008-1.406,0.193-3.162,1.119-4.455l0,0c0.018-0.022,1.53-2.271,4.212-2.298l0,0c0.128,0,0.231,0.117,0.232,0.264l0,0
			c0.001,0.146-0.102,0.265-0.229,0.266l0,0c-2.133,0.011-3.492,1.618-3.789,2.011l0,0c-0.043,0.056-0.061,0.082-0.064,0.088l0,0
			c-0.82,1.134-1.031,2.771-1.019,4.12l0,0c0.004,0.655,0.059,1.24,0.112,1.658l0,0c0.053,0.418,0.104,0.666,0.104,0.666l0,0
			l0.004,0.017c0,0,0.026,0.182,0.09,0.496l0,0c0.064,0.315,0.166,0.76,0.316,1.271l0,0c0.297,1.022,0.785,2.309,1.529,3.36l0,0
			c0.08,0.114,0.064,0.282-0.035,0.374l0,0c-0.041,0.04-0.092,0.059-0.143,0.06l0,0C41.057,14.652,40.989,14.618,40.942,14.551
			L40.942,14.551z"/>
	</g>
	<g>
		<path fill="#231F20" d="M46.908,14.554c-0.101-0.091-0.118-0.257-0.039-0.372l0,0c1.095-1.594,1.603-3.708,1.782-4.658l0,0
			c0.06-0.315,0.083-0.496,0.083-0.496l0,0l0.004-0.018c0-0.001,0.047-0.248,0.095-0.666l0,0c0.047-0.418,0.095-1.003,0.091-1.659
			l0,0c-0.009-1.348-0.24-2.983-1.079-4.112l0,0c0,0-0.02-0.025-0.062-0.081l0,0c-0.042-0.055-0.108-0.134-0.193-0.23l0,0
			c-0.173-0.194-0.43-0.453-0.763-0.711l0,0c-0.668-0.516-1.638-1.026-2.858-1.018l0,0c-0.128,0.001-0.231-0.118-0.233-0.264l0,0
			c0-0.147,0.102-0.266,0.23-0.267l0,0c2.682-0.01,4.223,2.218,4.237,2.236l0,0c0.947,1.284,1.174,3.037,1.185,4.444l0,0
			c0.008,1.331-0.182,2.367-0.197,2.44l0,0c-0.031,0.222-0.455,3.192-1.957,5.39l0,0l0,0c-0.045,0.067-0.113,0.102-0.18,0.102l0,0
			C47.003,14.613,46.951,14.594,46.908,14.554L46.908,14.554z"/>
	</g>
	<g>
		<path fill="#231F20" d="M41.229,14.611c-0.105-0.068-0.133-0.202-0.061-0.301l0,0c0.889-1.207,0.985-4.215,0.979-4.859l0,0
			C42.147,9.25,42.136,9.14,42.136,9.14l0,0V9.126c-0.044-1.409-0.668-2.37-1.363-3.024l0,0C40.077,5.448,39.308,5.112,39.007,5l0,0
			c-0.086-0.033-0.128-0.045-0.133-0.047l0,0c-0.002,0-0.046-0.015-0.137-0.041l0,0c-0.092-0.025-0.225-0.058-0.39-0.092l0,0
			c-0.332-0.066-0.794-0.133-1.305-0.129l0,0c-0.78,0.005-1.667,0.172-2.415,0.727l0,0c0,0.001,0,0-0.006,0.005l0,0
			c-0.007,0.004-0.017,0.012-0.028,0.022l0,0c-0.024,0.021-0.058,0.053-0.091,0.093l0,0c-0.065,0.08-0.121,0.186-0.12,0.297l0,0
			c0,0.032,0.005,0.066,0.015,0.103l0,0l0.006,0.028c0,0,0,0.002,0.006,0.021l0,0c0.004,0.02,0.012,0.05,0.027,0.087l0,0
			c0.029,0.075,0.08,0.18,0.17,0.289l0,0c0.182,0.215,0.507,0.456,1.178,0.52l0,0l0.025,0.004c0,0,0.039,0.008,0.127,0.017l0,0
			c0.086,0.011,0.212,0.02,0.367,0.019l0,0c0.611-0.006,1.631-0.166,2.431-1.106l0,0v0.001c0.079-0.095,0.226-0.111,0.325-0.035l0,0
			c0.102,0.074,0.117,0.21,0.037,0.304l0,0c-0.91,1.073-2.102,1.268-2.789,1.269l0,0c-0.314,0.001-0.528-0.031-0.582-0.042l0,0
			c-0.771-0.071-1.236-0.381-1.484-0.685l0,0c-0.227-0.273-0.282-0.527-0.294-0.591l0,0c-0.019-0.069-0.026-0.135-0.027-0.198l0,0
			c0.011-0.496,0.417-0.752,0.427-0.766l0,0c0.852-0.631,1.85-0.811,2.693-0.816l0,0c1.111-0.007,1.975,0.282,1.983,0.284l0,0
			c0.019,0.006,0.872,0.268,1.749,0.969l0,0c0.874,0.698,1.773,1.852,1.826,3.594l0,0c0.002,0.028,0.012,0.15,0.014,0.343l0,0
			c0.002,0.686-0.085,3.771-1.061,5.106l0,0c-0.044,0.061-0.116,0.095-0.189,0.096l0,0C41.316,14.651,41.271,14.639,41.229,14.611
			L41.229,14.611z"/>
	</g>
	<g>
		<path fill="#231F20" d="M35.771,6.64c-0.348-0.154-0.516-0.41-0.51-0.635l0,0c0.004-0.261,0.155-0.415,0.174-0.438l0,0
			c0.53-0.53,1.482-0.607,2.262-0.62l0,0c0.674-0.005,1.222,0.069,1.229,0.069l0,0l0,0c0.127,0.017,0.214,0.127,0.196,0.245l0,0
			c-0.002,0.009-0.003,0.018-0.005,0.027l0,0c0.021,0.013,0.041,0.031,0.057,0.053l0,0c0.075,0.097,0.052,0.232-0.053,0.302l0,0
			c-1.321,0.885-2.238,1.082-2.781,1.085l0,0C35.989,6.731,35.8,6.653,35.771,6.64L35.771,6.64z M35.981,6.252
			c0.011,0.005,0.03,0.011,0.061,0.019l0,0c0.059,0.012,0.156,0.027,0.293,0.026l0,0c0.401-0.002,1.16-0.139,2.314-0.874l0,0
			c-0.04-0.004-0.085-0.008-0.135-0.011l0,0c-0.211-0.018-0.5-0.034-0.816-0.032l0,0c-0.737-0.003-1.61,0.134-1.914,0.47l0,0
			c-0.001,0.002-0.003,0.004-0.006,0.007l0,0c-0.007,0.008-0.016,0.021-0.023,0.037l0,0c-0.018,0.032-0.032,0.074-0.031,0.109l0,0
			c0.006,0.052,0.004,0.125,0.248,0.248l0,0C35.975,6.251,35.977,6.251,35.981,6.252L35.981,6.252z"/>
	</g>
	<g>
		<path fill="#231F20" d="M46.636,14.521c-0.994-1.323-1.121-4.407-1.129-5.092l0,0c0-0.192,0.007-0.316,0.009-0.342l0,0
			c0.03-1.744,0.912-2.91,1.778-3.62l0,0c0.867-0.713,1.717-0.985,1.729-0.989l0,0c0.016-0.006,0.875-0.306,1.984-0.314l0,0
			c0.845-0.005,1.844,0.161,2.699,0.777l0,0c0.014,0.017,0.426,0.267,0.441,0.763l0,0c0.002,0.063-0.007,0.131-0.023,0.2l0,0
			c-0.012,0.069-0.066,0.321-0.286,0.595l0,0c-0.242,0.305-0.704,0.622-1.474,0.705l0,0c-0.054,0.011-0.268,0.047-0.582,0.05l0,0
			c-0.688,0.008-1.883-0.17-2.806-1.231l0,0l0,0c-0.083-0.092-0.067-0.229,0.032-0.305l0,0c0.098-0.076,0.244-0.063,0.326,0.03l0,0
			c0.812,0.93,1.834,1.075,2.445,1.073l0,0c0.154-0.001,0.281-0.012,0.367-0.023l0,0c0.086-0.011,0.125-0.02,0.125-0.02l0,0
			l0.025-0.005c1.16-0.131,1.318-0.772,1.365-0.916l0,0c0.003-0.02,0.004-0.022,0.004-0.022l0,0l0.007-0.027
			c0.009-0.037,0.013-0.07,0.013-0.102l0,0c0.008-0.193-0.195-0.378-0.244-0.411l0,0c-0.006-0.005-0.006-0.005-0.012-0.009l0,0
			c-0.751-0.541-1.639-0.696-2.419-0.69l0,0c-0.767,0.005-1.419,0.167-1.69,0.245l0,0c-0.09,0.026-0.136,0.042-0.141,0.043l0,0
			c0,0-0.043,0.014-0.127,0.047l0,0c-0.086,0.034-0.207,0.086-0.357,0.159l0,0c-0.297,0.146-0.697,0.375-1.096,0.701l0,0
			c-0.798,0.66-1.592,1.699-1.62,3.309l0,0v0.013c0.001,0.001-0.011,0.111-0.009,0.312l0,0c0.002,0.643,0.139,3.651,1.045,4.847l0,0
			c0.073,0.096,0.049,0.231-0.057,0.301l0,0c-0.04,0.026-0.086,0.04-0.131,0.04l0,0C46.753,14.614,46.682,14.58,46.636,14.521
			L46.636,14.521z"/>
	</g>
	<g>
		<path fill="#231F20" d="M51.742,6.625C51.2,6.629,50.28,6.444,48.947,5.577l0,0c-0.104-0.068-0.13-0.203-0.058-0.301l0,0
			c0.016-0.023,0.036-0.041,0.058-0.054l0,0c-0.003-0.009-0.005-0.018-0.007-0.028l0,0c-0.02-0.118,0.067-0.228,0.194-0.248l0,0
			c0.006,0,0.554-0.082,1.228-0.085l0,0c0.777,0.001,1.731,0.066,2.276,0.594l0,0c0.012,0.02,0.165,0.17,0.173,0.432l0,0
			c0.008,0.225-0.156,0.483-0.503,0.642l0,0c-0.028,0.014-0.216,0.095-0.563,0.097l0,0C51.745,6.625,51.742,6.625,51.742,6.625
			L51.742,6.625z M51.739,6.192c0.225-0.001,0.34-0.043,0.361-0.05l0,0c0.242-0.127,0.242-0.2,0.246-0.252l0,0
			c0.004-0.053-0.041-0.129-0.058-0.147l0,0c0-0.002-0.002-0.002-0.003-0.003l0,0l0,0V5.738c-0.32-0.335-1.189-0.457-1.921-0.444
			l0,0c-0.319,0.001-0.61,0.022-0.821,0.043l0,0c-0.048,0.004-0.092,0.008-0.13,0.013l0,0C50.579,6.067,51.339,6.194,51.739,6.192
			L51.739,6.192z"/>
	</g>
	<g>
		<path fill="#231F20" d="M41.228,2.337c0-0.119,0.102-0.217,0.23-0.218l0,0c0.127-0.001,0.231,0.096,0.232,0.215l0,0
			c0.002,0.149,0.111,0.233,0.195,0.232l0,0c0.082,0,0.189-0.086,0.19-0.235l0,0c-0.001-0.12,0.103-0.217,0.23-0.219l0,0
			c0.127,0,0.232,0.096,0.233,0.215l0,0C42.542,2.677,42.274,2.993,41.889,3l0,0C41.501,2.999,41.231,2.686,41.228,2.337
			L41.228,2.337z"/>
	</g>
	<g>
		<path fill="#231F20" d="M42.92,2.162c-0.001-0.121,0.102-0.218,0.229-0.219l0,0c0.127-0.001,0.232,0.096,0.232,0.215l0,0
			c0.003,0.151,0.113,0.233,0.194,0.233l0,0c0.083-0.001,0.191-0.085,0.192-0.235l0,0c0-0.121,0.101-0.218,0.23-0.219l0,0
			c0.126,0,0.231,0.095,0.232,0.216l0,0c0.002,0.348-0.266,0.665-0.652,0.671l0,0C43.193,2.823,42.922,2.51,42.92,2.162L42.92,2.162
			z"/>
	</g>
	<g>
		<path fill="#231F20" d="M42.077,2.268c-0.004-0.026-0.004-0.049-0.004-0.069l0,0c-0.005-0.322,0.227-0.621,0.588-0.658l0,0l0,0
			c0.022-0.002,0.041-0.002,0.055-0.003l0,0c0.359,0.002,0.631,0.278,0.666,0.608l0,0l0,0c0.013,0.12-0.082,0.225-0.209,0.237l0,0
			c-0.125,0.012-0.24-0.076-0.252-0.195l0,0c-0.015-0.14-0.125-0.22-0.203-0.216l0,0c-0.004-0.001-0.004,0-0.004,0l0,0l-0.01,0.001
			c-0.078,0.003-0.169,0.088-0.17,0.225l0,0c0,0.009,0,0.017,0.002,0.023l0,0c0.014,0.119-0.078,0.226-0.205,0.24l0,0
			c-0.008,0-0.017,0.001-0.023,0.001l0,0C42.191,2.461,42.09,2.379,42.077,2.268L42.077,2.268z"/>
	</g>
	<g>
		<path fill="#231F20" d="M41.651,15.577c-0.002-0.399,0.34-0.725,0.768-0.728l0,0c0.426-0.004,0.773,0.317,0.776,0.717l0,0
			c0.003,0.4-0.342,0.724-0.768,0.727l0,0C42.002,16.297,41.654,15.978,41.651,15.577L41.651,15.577z M42.114,15.574
			c0.002,0.158,0.141,0.286,0.311,0.285l0,0c0.17,0,0.309-0.13,0.307-0.289l0,0c0-0.16-0.139-0.288-0.311-0.287l0,0
			C42.251,15.285,42.114,15.414,42.114,15.574L42.114,15.574z"/>
	</g>
	<g>
		<path fill="#231F20" d="M42.434,17.276c-0.073,0-0.126-0.004-0.153-0.006l0,0c-0.934-0.02-1.621-0.839-1.633-1.669l0,0
			c-0.002-0.371,0.138-0.716,0.372-0.98l0,0c0.298-0.34,0.751-0.56,1.259-0.563l0,0c0.338-0.002,0.655,0.091,0.916,0.255l0,0
			l0.002,0c0.105,0.065,0.135,0.199,0.064,0.3l0,0c-0.072,0.1-0.215,0.126-0.322,0.06l0,0c-0.189-0.118-0.414-0.186-0.658-0.183l0,0
			c-0.364,0.002-0.688,0.158-0.902,0.405l0,0c-0.17,0.191-0.27,0.435-0.267,0.704l0,0c0,0.306,0.14,0.624,0.361,0.859l0,0
			c0.222,0.236,0.515,0.38,0.823,0.378l0,0l0.041,0.004c0,0,0,0.001,0.018,0.003l0,0c0.016,0,0.042,0.002,0.076,0.004l0,0
			c0.143-0.002,0.414-0.034,0.689-0.232l0,0c0.415-0.306,0.715-0.359,0.891-0.357l0,0c0.037-0.001,0.063,0,0.075,0.001l0,0
			c0.128-0.001,0.232,0.094,0.233,0.215l0,0c0,0.118-0.102,0.217-0.23,0.218l0,0c-0.031-0.001-0.053-0.001-0.074-0.001l0,0
			c-0.095,0.005-0.236,0.002-0.612,0.267l0,0c-0.374,0.271-0.753,0.319-0.965,0.32l0,0C42.436,17.276,42.434,17.276,42.434,17.276
			L42.434,17.276z"/>
	</g>
	<g>
		<path fill="#231F20" d="M42.597,17.15L42.597,17.15c-0.054-0.111-0.006-0.238,0.111-0.29l0,0c0.113-0.051,0.25-0.007,0.307,0.1
			l0,0c0,0,0.001,0.001,0.003,0.005l0,0c0.003,0.008,0.011,0.018,0.021,0.032l0,0c0.022,0.028,0.058,0.067,0.11,0.109l0,0
			c0.105,0.08,0.271,0.164,0.559,0.164l0,0l0.386-0.002c0.128-0.002,0.233,0.095,0.233,0.214l0,0c0.001,0.121-0.104,0.22-0.23,0.221
			l0,0l-0.387,0.002c0-0.001-0.002-0.001-0.002-0.001l0,0C42.907,17.708,42.608,17.18,42.597,17.15L42.597,17.15z"/>
	</g>
	<g>
		<path fill="#231F20" d="M45.485,2.309c0-0.12,0.102-0.217,0.23-0.218l0,0c0.127,0,0.231,0.097,0.232,0.215l0,0
			c0.002,0.15,0.111,0.233,0.193,0.233l0,0c0.084-0.001,0.19-0.086,0.191-0.235l0,0c0-0.12,0.103-0.218,0.23-0.218l0,0
			c0.127-0.001,0.231,0.096,0.232,0.215l0,0c0.002,0.348-0.266,0.665-0.651,0.671l0,0C45.759,2.969,45.487,2.657,45.485,2.309
			L45.485,2.309z"/>
	</g>
	<g>
		<path fill="#231F20" d="M43.791,2.156c-0.001-0.121,0.103-0.218,0.23-0.219l0,0c0.128,0,0.232,0.096,0.233,0.216l0,0
			c0.002,0.15,0.111,0.233,0.193,0.232l0,0c0.083,0,0.19-0.085,0.191-0.236l0,0c0-0.12,0.102-0.218,0.229-0.219l0,0
			c0.128,0,0.231,0.096,0.233,0.216l0,0c0.002,0.348-0.266,0.665-0.652,0.672l0,0C44.065,2.817,43.794,2.504,43.791,2.156
			L43.791,2.156z"/>
	</g>
	<g>
		<path fill="#231F20" d="M45.7,2.437c-0.129-0.008-0.225-0.112-0.215-0.231l0,0c0-0.013,0.001-0.022,0.002-0.03l0,0
			c-0.004-0.135-0.096-0.219-0.182-0.223l0,0c0,0.001,0,0.001,0,0l0,0c-0.002,0-0.003,0-0.006,0.001l0,0
			c-0.077-0.005-0.186,0.077-0.2,0.219l0,0c-0.011,0.119-0.123,0.208-0.25,0.198l0,0c-0.128-0.009-0.222-0.115-0.21-0.234l0,0
			c0.028-0.331,0.297-0.61,0.656-0.617l0,0c0.018,0,0.039,0,0.057,0.002l0,0c0.36,0.031,0.596,0.329,0.596,0.65l0,0
			c0,0.021,0,0.043-0.002,0.064l0,0c-0.008,0.112-0.109,0.198-0.229,0.2l0,0C45.712,2.437,45.706,2.437,45.7,2.437L45.7,2.437z"/>
	</g>
	<g>
		<path fill="#231F20" d="M45.009,15.555c-0.003-0.399,0.34-0.726,0.767-0.727l0,0c0.426-0.004,0.772,0.316,0.775,0.716l0,0
			c0.003,0.399-0.341,0.724-0.766,0.727l0,0C45.358,16.274,45.011,15.953,45.009,15.555L45.009,15.555z M45.782,15.837
			c0.17-0.001,0.307-0.13,0.306-0.289l0,0c-0.001-0.161-0.14-0.287-0.31-0.288l0,0c-0.171,0.002-0.309,0.133-0.308,0.291l0,0
			C45.472,15.71,45.611,15.839,45.782,15.837L45.782,15.837z"/>
	</g>
	<g>
		<path fill="#231F20" d="M44.819,16.947c-0.381-0.262-0.521-0.256-0.616-0.259l0,0c-0.021,0-0.044,0-0.075,0.001l0,0
			c-0.126,0-0.231-0.097-0.232-0.216l0,0c0-0.121,0.104-0.218,0.23-0.218l0,0c0.014,0,0.039-0.001,0.075-0.002l0,0
			c0.176-0.004,0.477,0.046,0.896,0.348l0,0c0.277,0.191,0.55,0.221,0.693,0.221l0,0c0.033-0.002,0.059-0.004,0.076-0.005l0,0
			c0.017-0.001,0.019-0.003,0.019-0.003l0,0l0.04-0.004c0.309-0.001,0.6-0.149,0.82-0.389l0,0c0.217-0.236,0.352-0.559,0.349-0.863
			l0,0c-0.001-0.271-0.104-0.511-0.275-0.702l0,0c-0.219-0.243-0.545-0.393-0.909-0.392l0,0c-0.244,0.001-0.469,0.071-0.655,0.191
			l0,0l0,0c-0.106,0.067-0.251,0.043-0.322-0.057l0,0c-0.073-0.098-0.045-0.233,0.061-0.299l0,0
			c0.261-0.167,0.575-0.266,0.913-0.269l0,0c0.508-0.003,0.965,0.211,1.266,0.545l0,0c0.238,0.263,0.383,0.606,0.385,0.978l0,0
			c0,0.829-0.677,1.658-1.609,1.689l0,0c-0.029,0.004-0.082,0.008-0.152,0.009l0,0c-0.002,0-0.004-0.001-0.006,0l0,0
			C45.578,17.255,45.197,17.211,44.819,16.947L44.819,16.947z"/>
	</g>
	<g>
		<path fill="#231F20" d="M43.901,17.485c-0.001-0.119,0.104-0.218,0.23-0.22l0,0l0.386-0.003c0.527-0.004,0.677-0.306,0.689-0.317
			l0,0l0,0c0.055-0.108,0.19-0.153,0.306-0.104l0,0c0.115,0.052,0.167,0.178,0.113,0.288l0,0c-0.01,0.031-0.304,0.565-1.106,0.567
			l0,0L44.134,17.7C44.007,17.701,43.903,17.604,43.901,17.485L43.901,17.485z M45.206,16.949L45.206,16.949L45.206,16.949
			L45.206,16.949L45.206,16.949L45.206,16.949z"/>
	</g>
</g>
<g>
	<g>
		<path fill="#231F20" d="M50.823,32.399c-1.533-2.181-1.996-5.146-2.03-5.363l0,0c-0.017-0.081-0.219-1.11-0.228-2.436l0,0
			c-0.008-1.406,0.193-3.162,1.119-4.455l0,0c0.018-0.022,1.53-2.271,4.212-2.298l0,0c0.128,0,0.231,0.117,0.232,0.264l0,0
			c0.001,0.146-0.102,0.265-0.229,0.266l0,0c-2.133,0.011-3.492,1.618-3.789,2.011l0,0c-0.043,0.056-0.061,0.082-0.064,0.088l0,0
			c-0.82,1.134-1.031,2.771-1.019,4.12l0,0c0.004,0.655,0.059,1.24,0.112,1.658l0,0c0.053,0.418,0.104,0.666,0.104,0.666l0,0
			l0.004,0.017c0,0,0.026,0.182,0.09,0.496l0,0c0.064,0.315,0.166,0.76,0.316,1.271l0,0c0.297,1.022,0.785,2.309,1.529,3.36l0,0
			c0.08,0.114,0.064,0.282-0.035,0.374l0,0c-0.041,0.04-0.092,0.059-0.143,0.06l0,0C50.938,32.5,50.87,32.466,50.823,32.399
			L50.823,32.399z"/>
	</g>
	<g>
		<path fill="#231F20" d="M56.789,32.402c-0.101-0.091-0.118-0.257-0.039-0.372l0,0c1.095-1.594,1.603-3.708,1.782-4.658l0,0
			c0.06-0.315,0.083-0.496,0.083-0.496l0,0l0.004-0.018c0-0.001,0.047-0.248,0.095-0.666l0,0c0.047-0.418,0.095-1.003,0.091-1.659
			l0,0c-0.009-1.348-0.24-2.983-1.079-4.112l0,0c0,0-0.02-0.025-0.062-0.081l0,0c-0.042-0.055-0.108-0.134-0.193-0.23l0,0
			c-0.173-0.194-0.43-0.453-0.763-0.711l0,0c-0.668-0.516-1.638-1.026-2.858-1.018l0,0c-0.128,0.001-0.231-0.118-0.233-0.264l0,0
			c0-0.147,0.102-0.266,0.23-0.267l0,0c2.682-0.01,4.223,2.218,4.237,2.236l0,0c0.947,1.284,1.174,3.037,1.185,4.444l0,0
			c0.008,1.331-0.182,2.367-0.197,2.44l0,0c-0.031,0.222-0.455,3.192-1.957,5.39l0,0l0,0c-0.045,0.067-0.113,0.102-0.18,0.102l0,0
			C56.884,32.461,56.832,32.442,56.789,32.402L56.789,32.402z"/>
	</g>
	<g>
		<path fill="#231F20" d="M51.11,32.459c-0.105-0.068-0.133-0.202-0.061-0.301l0,0c0.889-1.207,0.985-4.215,0.979-4.859l0,0
			c-0.001-0.202-0.013-0.312-0.013-0.312l0,0v-0.014c-0.044-1.409-0.668-2.37-1.363-3.024l0,0c-0.695-0.654-1.465-0.989-1.766-1.102
			l0,0c-0.086-0.033-0.128-0.045-0.133-0.047l0,0c-0.002,0-0.046-0.015-0.137-0.041l0,0c-0.092-0.025-0.225-0.058-0.39-0.092l0,0
			c-0.332-0.066-0.794-0.133-1.305-0.129l0,0c-0.78,0.005-1.667,0.172-2.415,0.727l0,0c0,0.001,0,0-0.006,0.005l0,0
			c-0.007,0.004-0.017,0.012-0.028,0.022l0,0c-0.024,0.021-0.058,0.053-0.091,0.093l0,0c-0.065,0.08-0.121,0.186-0.12,0.297l0,0
			c0,0.032,0.005,0.066,0.015,0.103l0,0l0.006,0.028c0,0,0,0.002,0.006,0.021l0,0c0.004,0.02,0.012,0.05,0.027,0.087l0,0
			c0.029,0.075,0.08,0.18,0.17,0.289l0,0c0.182,0.215,0.507,0.456,1.178,0.52l0,0l0.025,0.004c0,0,0.039,0.008,0.127,0.017l0,0
			c0.086,0.011,0.212,0.02,0.367,0.019l0,0c0.611-0.006,1.631-0.166,2.431-1.106l0,0v0.001c0.079-0.095,0.226-0.111,0.325-0.035l0,0
			c0.102,0.074,0.117,0.21,0.037,0.304l0,0c-0.91,1.073-2.102,1.268-2.789,1.269l0,0c-0.314,0.001-0.528-0.031-0.582-0.042l0,0
			c-0.771-0.071-1.236-0.381-1.484-0.685l0,0c-0.227-0.273-0.282-0.527-0.294-0.591l0,0c-0.019-0.069-0.026-0.135-0.027-0.198l0,0
			c0.011-0.496,0.417-0.752,0.427-0.766l0,0c0.852-0.631,1.85-0.811,2.693-0.816l0,0c1.111-0.007,1.975,0.282,1.983,0.284l0,0
			c0.019,0.006,0.872,0.268,1.749,0.969l0,0c0.874,0.698,1.773,1.852,1.826,3.594l0,0c0.002,0.028,0.012,0.15,0.014,0.343l0,0
			c0.002,0.686-0.085,3.771-1.061,5.106l0,0c-0.044,0.061-0.116,0.095-0.189,0.096l0,0C51.197,32.499,51.151,32.487,51.11,32.459
			L51.11,32.459z"/>
	</g>
	<g>
		<path fill="#231F20" d="M45.651,24.488c-0.348-0.154-0.516-0.41-0.51-0.635l0,0c0.004-0.261,0.155-0.415,0.174-0.438l0,0
			c0.53-0.53,1.482-0.607,2.262-0.62l0,0c0.674-0.005,1.222,0.069,1.229,0.069l0,0l0,0c0.127,0.017,0.214,0.127,0.196,0.245l0,0
			c-0.002,0.009-0.003,0.018-0.005,0.027l0,0c0.021,0.013,0.041,0.031,0.057,0.053l0,0c0.075,0.097,0.052,0.232-0.053,0.302l0,0
			c-1.321,0.885-2.238,1.082-2.781,1.085l0,0C45.87,24.58,45.681,24.501,45.651,24.488L45.651,24.488z M45.862,24.1
			c0.011,0.005,0.03,0.011,0.061,0.019l0,0c0.059,0.012,0.156,0.027,0.293,0.026l0,0c0.401-0.002,1.16-0.139,2.314-0.874l0,0
			c-0.04-0.004-0.085-0.008-0.135-0.011l0,0c-0.211-0.018-0.5-0.034-0.816-0.032l0,0c-0.737-0.003-1.61,0.134-1.914,0.47l0,0
			c-0.001,0.002-0.003,0.004-0.006,0.007l0,0c-0.007,0.008-0.016,0.021-0.023,0.037l0,0c-0.018,0.032-0.032,0.074-0.031,0.109l0,0
			c0.006,0.052,0.004,0.125,0.248,0.248l0,0C45.855,24.099,45.857,24.1,45.862,24.1L45.862,24.1z"/>
	</g>
	<g>
		<path fill="#231F20" d="M56.517,32.369c-0.994-1.323-1.121-4.407-1.129-5.092l0,0c0-0.192,0.007-0.316,0.009-0.342l0,0
			c0.03-1.744,0.912-2.91,1.778-3.62l0,0c0.867-0.713,1.717-0.985,1.729-0.989l0,0c0.016-0.006,0.875-0.306,1.984-0.314l0,0
			c0.845-0.005,1.844,0.161,2.699,0.777l0,0c0.014,0.017,0.426,0.267,0.441,0.763l0,0c0.002,0.063-0.007,0.131-0.023,0.2l0,0
			c-0.012,0.069-0.066,0.321-0.286,0.595l0,0c-0.242,0.305-0.704,0.622-1.474,0.705l0,0c-0.054,0.011-0.268,0.047-0.582,0.05l0,0
			c-0.688,0.008-1.883-0.17-2.806-1.231l0,0l0,0c-0.083-0.092-0.067-0.229,0.032-0.305l0,0c0.098-0.076,0.244-0.063,0.326,0.03l0,0
			c0.812,0.93,1.834,1.075,2.445,1.073l0,0c0.154-0.001,0.281-0.012,0.367-0.023l0,0c0.086-0.011,0.125-0.02,0.125-0.02l0,0
			l0.025-0.005c1.16-0.131,1.318-0.772,1.365-0.916l0,0c0.003-0.02,0.004-0.022,0.004-0.022l0,0l0.007-0.027
			c0.009-0.037,0.013-0.07,0.013-0.102l0,0c0.008-0.193-0.195-0.378-0.244-0.411l0,0c-0.006-0.005-0.006-0.005-0.012-0.009l0,0
			c-0.751-0.541-1.639-0.696-2.419-0.69l0,0c-0.767,0.005-1.419,0.167-1.69,0.245l0,0c-0.09,0.026-0.136,0.042-0.141,0.043l0,0
			c0,0-0.043,0.014-0.127,0.047l0,0c-0.086,0.034-0.207,0.086-0.357,0.159l0,0c-0.297,0.146-0.697,0.375-1.096,0.701l0,0
			c-0.798,0.66-1.592,1.699-1.62,3.309l0,0v0.013c0.001,0.001-0.011,0.111-0.009,0.312l0,0c0.002,0.643,0.139,3.651,1.045,4.847l0,0
			c0.073,0.096,0.049,0.231-0.057,0.301l0,0c-0.04,0.026-0.086,0.04-0.131,0.04l0,0C56.634,32.462,56.563,32.428,56.517,32.369
			L56.517,32.369z"/>
	</g>
	<g>
		<path fill="#231F20" d="M61.623,24.473c-0.542,0.004-1.462-0.181-2.795-1.048l0,0c-0.104-0.068-0.13-0.203-0.058-0.301l0,0
			c0.016-0.023,0.036-0.041,0.058-0.054l0,0c-0.003-0.009-0.005-0.018-0.007-0.028l0,0c-0.02-0.118,0.067-0.228,0.194-0.248l0,0
			c0.006,0,0.554-0.082,1.228-0.085l0,0c0.777,0.001,1.731,0.066,2.276,0.594l0,0c0.012,0.02,0.165,0.17,0.173,0.432l0,0
			c0.008,0.225-0.156,0.483-0.503,0.642l0,0c-0.028,0.014-0.216,0.095-0.563,0.097l0,0C61.626,24.473,61.623,24.473,61.623,24.473
			L61.623,24.473z M61.62,24.04c0.225-0.001,0.34-0.043,0.361-0.05l0,0c0.242-0.127,0.242-0.2,0.246-0.252l0,0
			c0.004-0.053-0.041-0.129-0.058-0.147l0,0c0-0.002-0.002-0.002-0.003-0.003l0,0l0,0v-0.001c-0.32-0.335-1.189-0.457-1.921-0.444
			l0,0c-0.319,0.001-0.61,0.022-0.821,0.043l0,0c-0.048,0.004-0.092,0.008-0.13,0.013l0,0C60.46,23.916,61.22,24.042,61.62,24.04
			L61.62,24.04z"/>
	</g>
	<g>
		<path fill="#231F20" d="M51.108,20.185c0-0.119,0.102-0.217,0.23-0.218l0,0c0.127-0.001,0.231,0.096,0.232,0.215l0,0
			c0.002,0.149,0.111,0.233,0.195,0.232l0,0c0.082,0,0.189-0.086,0.19-0.235l0,0c-0.001-0.12,0.103-0.217,0.23-0.219l0,0
			c0.127,0,0.232,0.096,0.233,0.215l0,0c0.002,0.349-0.266,0.665-0.651,0.672l0,0C51.382,20.847,51.112,20.534,51.108,20.185
			L51.108,20.185z"/>
	</g>
	<g>
		<path fill="#231F20" d="M52.801,20.01c-0.001-0.121,0.102-0.218,0.229-0.219l0,0c0.127-0.001,0.232,0.096,0.232,0.215l0,0
			c0.003,0.151,0.113,0.233,0.194,0.233l0,0c0.083-0.001,0.191-0.085,0.192-0.235l0,0c0-0.121,0.101-0.218,0.23-0.219l0,0
			c0.126,0,0.231,0.095,0.232,0.216l0,0c0.002,0.348-0.266,0.665-0.652,0.671l0,0C53.074,20.671,52.803,20.358,52.801,20.01
			L52.801,20.01z"/>
	</g>
	<g>
		<path fill="#231F20" d="M51.958,20.116c-0.004-0.026-0.004-0.049-0.004-0.069l0,0c-0.005-0.322,0.227-0.621,0.588-0.658l0,0l0,0
			c0.022-0.002,0.041-0.002,0.055-0.003l0,0c0.359,0.002,0.631,0.278,0.666,0.608l0,0l0,0c0.013,0.12-0.082,0.225-0.209,0.237l0,0
			c-0.125,0.012-0.24-0.076-0.252-0.195l0,0c-0.015-0.14-0.125-0.22-0.203-0.216l0,0c-0.004-0.001-0.004,0-0.004,0l0,0l-0.01,0.001
			c-0.078,0.003-0.169,0.088-0.17,0.225l0,0c0,0.009,0,0.017,0.002,0.023l0,0c0.014,0.119-0.078,0.226-0.205,0.24l0,0
			c-0.008,0-0.017,0.001-0.023,0.001l0,0C52.072,20.31,51.971,20.228,51.958,20.116L51.958,20.116z"/>
	</g>
	<g>
		<path fill="#231F20" d="M51.532,33.426c-0.002-0.4,0.34-0.726,0.768-0.729l0,0c0.426-0.004,0.773,0.318,0.776,0.717l0,0
			c0.003,0.4-0.342,0.725-0.768,0.727l0,0C51.883,34.145,51.535,33.826,51.532,33.426L51.532,33.426z M51.995,33.422
			c0.002,0.158,0.141,0.287,0.311,0.285l0,0c0.17,0,0.309-0.129,0.307-0.289l0,0c0-0.16-0.139-0.287-0.311-0.287l0,0
			C52.132,33.133,51.995,33.262,51.995,33.422L51.995,33.422z"/>
	</g>
	<g>
		<path fill="#231F20" d="M52.314,35.125c-0.073,0-0.126-0.004-0.153-0.006l0,0c-0.934-0.02-1.621-0.84-1.633-1.67l0,0
			c-0.002-0.371,0.138-0.715,0.372-0.98l0,0c0.298-0.34,0.751-0.56,1.259-0.563l0,0c0.338-0.002,0.655,0.091,0.916,0.255l0,0
			l0.002,0c0.105,0.065,0.135,0.199,0.064,0.3l0,0c-0.072,0.099-0.215,0.126-0.322,0.06l0,0c-0.189-0.118-0.414-0.186-0.658-0.183
			l0,0c-0.364,0.002-0.688,0.158-0.902,0.405l0,0c-0.17,0.191-0.27,0.434-0.267,0.703l0,0c0,0.307,0.14,0.625,0.361,0.859l0,0
			c0.222,0.236,0.515,0.381,0.823,0.379l0,0l0.041,0.004c0,0,0,0,0.018,0.002l0,0c0.016,0,0.042,0.002,0.076,0.004l0,0
			c0.143-0.002,0.414-0.033,0.689-0.232l0,0c0.415-0.305,0.715-0.359,0.891-0.357l0,0c0.037,0,0.063,0,0.075,0.002l0,0
			c0.128-0.002,0.232,0.094,0.233,0.215l0,0c0,0.117-0.102,0.217-0.23,0.217l0,0c-0.031,0-0.053,0-0.074,0l0,0
			c-0.095,0.004-0.236,0.002-0.612,0.266l0,0c-0.374,0.271-0.753,0.32-0.965,0.32l0,0C52.316,35.125,52.314,35.125,52.314,35.125
			L52.314,35.125z"/>
	</g>
	<g>
		<path fill="#231F20" d="M52.478,34.998L52.478,34.998c-0.054-0.111-0.006-0.238,0.111-0.289l0,0c0.113-0.051,0.25-0.008,0.307,0.1
			l0,0c0,0,0.001,0,0.003,0.004l0,0c0.003,0.008,0.011,0.018,0.021,0.033l0,0c0.022,0.027,0.058,0.066,0.11,0.109l0,0
			c0.105,0.08,0.271,0.164,0.559,0.164l0,0l0.386-0.002c0.128-0.002,0.233,0.094,0.233,0.213l0,0
			c0.001,0.121-0.104,0.221-0.23,0.221l0,0l-0.387,0.002h-0.002l0,0C52.788,35.557,52.489,35.027,52.478,34.998L52.478,34.998z"/>
	</g>
	<g>
		<path fill="#231F20" d="M55.366,20.157c0-0.12,0.102-0.217,0.23-0.218l0,0c0.127,0,0.231,0.097,0.232,0.215l0,0
			c0.002,0.15,0.111,0.233,0.193,0.233l0,0c0.084-0.001,0.19-0.086,0.191-0.235l0,0c0-0.12,0.103-0.218,0.23-0.218l0,0
			c0.127-0.001,0.231,0.096,0.232,0.215l0,0c0.002,0.348-0.266,0.665-0.651,0.671l0,0C55.64,20.817,55.368,20.505,55.366,20.157
			L55.366,20.157z"/>
	</g>
	<g>
		<path fill="#231F20" d="M53.672,20.004c-0.001-0.121,0.103-0.218,0.23-0.219l0,0c0.128,0,0.232,0.096,0.233,0.216l0,0
			c0.002,0.15,0.111,0.233,0.193,0.232l0,0c0.083,0,0.19-0.085,0.191-0.236l0,0c0-0.12,0.102-0.218,0.229-0.219l0,0
			c0.128,0,0.231,0.096,0.233,0.216l0,0c0.002,0.348-0.266,0.665-0.652,0.672l0,0C53.946,20.666,53.675,20.353,53.672,20.004
			L53.672,20.004z"/>
	</g>
	<g>
		<path fill="#231F20" d="M55.581,20.285c-0.129-0.008-0.225-0.112-0.215-0.231l0,0c0-0.013,0.001-0.022,0.002-0.03l0,0
			c-0.004-0.135-0.096-0.219-0.182-0.223l0,0c0,0.001,0,0.001,0,0l0,0c-0.002,0-0.003,0-0.006,0.001l0,0
			c-0.077-0.005-0.186,0.077-0.2,0.219l0,0c-0.011,0.119-0.123,0.208-0.25,0.198l0,0c-0.128-0.009-0.222-0.115-0.21-0.234l0,0
			c0.028-0.331,0.297-0.61,0.656-0.617l0,0c0.018,0,0.039,0,0.057,0.002l0,0c0.36,0.031,0.596,0.329,0.596,0.65l0,0
			c0,0.021,0,0.043-0.002,0.064l0,0c-0.008,0.112-0.109,0.198-0.229,0.2l0,0C55.593,20.285,55.587,20.285,55.581,20.285
			L55.581,20.285z"/>
	</g>
	<g>
		<path fill="#231F20" d="M54.89,33.402c-0.003-0.398,0.34-0.725,0.767-0.727l0,0c0.426-0.004,0.772,0.316,0.775,0.717l0,0
			c0.003,0.398-0.341,0.723-0.766,0.727l0,0C55.239,34.123,54.892,33.801,54.89,33.402L54.89,33.402z M55.663,33.686
			c0.17-0.002,0.307-0.131,0.306-0.289l0,0c-0.001-0.162-0.14-0.287-0.31-0.289l0,0c-0.171,0.002-0.309,0.133-0.308,0.291l0,0
			C55.353,33.559,55.492,33.688,55.663,33.686L55.663,33.686z"/>
	</g>
	<g>
		<path fill="#231F20" d="M54.7,34.795c-0.381-0.262-0.521-0.256-0.616-0.258l0,0c-0.021,0-0.044,0-0.075,0l0,0
			c-0.126,0-0.231-0.096-0.232-0.215l0,0c0-0.121,0.104-0.219,0.23-0.219l0,0c0.014,0,0.039,0,0.075-0.002l0,0
			c0.176-0.004,0.477,0.047,0.896,0.348l0,0c0.277,0.191,0.55,0.221,0.693,0.221l0,0c0.033-0.002,0.059-0.004,0.076-0.004l0,0
			c0.017-0.002,0.019-0.004,0.019-0.004l0,0l0.04-0.004c0.309,0,0.6-0.148,0.82-0.389l0,0c0.217-0.236,0.352-0.559,0.349-0.863l0,0
			c-0.001-0.27-0.104-0.51-0.275-0.701l0,0c-0.219-0.243-0.545-0.394-0.909-0.392l0,0c-0.244,0.001-0.469,0.071-0.655,0.191l0,0l0,0
			c-0.106,0.067-0.251,0.043-0.322-0.057l0,0c-0.073-0.098-0.045-0.233,0.061-0.299l0,0c0.261-0.167,0.575-0.266,0.913-0.269l0,0
			c0.508-0.003,0.965,0.211,1.266,0.545l0,0c0.238,0.263,0.383,0.606,0.385,0.978l0,0c0,0.83-0.677,1.658-1.609,1.689l0,0
			c-0.029,0.004-0.082,0.008-0.152,0.01l0,0c-0.002,0-0.004-0.002-0.006,0l0,0C55.459,35.104,55.078,35.059,54.7,34.795L54.7,34.795
			z"/>
	</g>
	<g>
		<path fill="#231F20" d="M53.782,35.334c-0.001-0.119,0.104-0.219,0.23-0.221l0,0l0.386-0.002c0.527-0.004,0.677-0.307,0.689-0.318
			l0,0l0,0c0.055-0.107,0.19-0.152,0.306-0.104l0,0c0.115,0.051,0.167,0.178,0.113,0.287l0,0c-0.01,0.031-0.304,0.566-1.106,0.568
			l0,0l-0.386,0.004C53.888,35.549,53.784,35.451,53.782,35.334L53.782,35.334z M55.087,34.797L55.087,34.797L55.087,34.797
			L55.087,34.797L55.087,34.797L55.087,34.797z"/>
	</g>
</g>
</svg>
