<?xml version="1.0" encoding="utf-8"?>
<!-- Generator: Adobe Illustrator 16.0.0, SVG Export Plug-In . SVG Version: 6.00 Build 0)  -->
<!DOCTYPE svg PUBLIC "-//W3C//DTD SVG 1.1//EN" "http://www.w3.org/Graphics/SVG/1.1/DTD/svg11.dtd">
<svg version="1.1" id="Capa_1" xmlns="http://www.w3.org/2000/svg" xmlns:xlink="http://www.w3.org/1999/xlink" x="0px" y="0px"
	 width="64px" height="64px" viewBox="0 0 64 64" enable-background="new 0 0 64 64" xml:space="preserve">
<g>
	<g>
		<path fill="#231F20" d="M9.309,25.276c-1.549-0.002-2.8-1.224-2.801-2.735l0,0c0.001-1.511,1.253-2.734,2.801-2.734l0,0h13.372
			c1.547,0,2.799,1.224,2.799,2.734l0,0c0,1.512-1.253,2.733-2.799,2.735l0,0v-0.975v-0.975c0.441-0.003,0.803-0.354,0.805-0.786
			l0,0c0-0.433-0.363-0.782-0.805-0.785l0,0H9.309c-0.443,0.002-0.802,0.354-0.802,0.785l0,0c0,0.433,0.358,0.783,0.802,0.786l0,0
			h13.372v0.975v0.975H9.309L9.309,25.276z"/>
	</g>
	<g>
		<path fill="#231F20" d="M7.333,64C5.49,63.996,4,62.541,4,60.746l0,0h1.999c0,0.717,0.596,1.299,1.333,1.299l0,0h17.305
			c0.735,0,1.331-0.582,1.333-1.299l0,0h1.999c-0.002,1.795-1.492,3.25-3.333,3.254l0,0H7.333L7.333,64z"/>
	</g>
	<g>
		<path fill="#231F20" d="M7.47,29.092c0.745-0.662,1.319-1.731,1.31-2.701l0,0c0-0.588-0.146-1.14-0.401-1.624l0,0l1.775-0.893
			c0.399,0.754,0.623,1.614,0.623,2.517l0,0c-0.012,1.667-0.857,3.142-1.952,4.135l0,0L7.47,29.092L7.47,29.092z"/>
	</g>
	<g>
		<path fill="#231F20" d="M4,60.709V37.326c0-3.307,1.409-6.302,3.672-8.426l0,0l0,0l1.387,1.403C7.171,32.081,6,34.564,6,37.324
			l0,0v23.385H4L4,60.709z"/>
	</g>
	<g>
		<path fill="#231F20" d="M25.97,60.709V37.326c0-2.861-1.256-5.423-3.265-7.21l0,0l1.347-1.445
			c2.406,2.138,3.917,5.229,3.917,8.653l0,0v23.385l0,0H25.97L25.97,60.709z"/>
	</g>
	<g>
		<path fill="#231F20" d="M21.21,26.391c0-0.857,0.202-1.675,0.563-2.399l0,0l1.798,0.85c-0.231,0.469-0.362,0.99-0.362,1.55l0,0
			c0,1.128,0.534,2.128,1.375,2.78l0,0l0,0l-1.243,1.528C22.044,29.695,21.21,28.135,21.21,26.391L21.21,26.391z"/>
	</g>
	<g>
		<path fill="#231F20" d="M41.34,25.276c-1.551-0.002-2.803-1.224-2.803-2.735l0,0c0-1.511,1.254-2.734,2.803-2.734l0,0h13.371
			c1.545,0,2.801,1.224,2.801,2.734l0,0c0,1.512-1.256,2.733-2.801,2.735l0,0v-0.975v-0.975c0.439-0.003,0.801-0.354,0.803-0.786
			l0,0c-0.002-0.433-0.361-0.782-0.803-0.785l0,0H41.34c-0.444,0.002-0.803,0.354-0.803,0.785l0,0c0,0.433,0.357,0.783,0.803,0.786
			l0,0h13.371v0.975v0.975H41.34L41.34,25.276z"/>
	</g>
	<g>
		<path fill="#231F20" d="M39.363,64c-1.842-0.004-3.332-1.459-3.334-3.254l0,0h2c0,0.717,0.596,1.299,1.332,1.299l0,0h17.305
			c0.736,0,1.332-0.582,1.334-1.299l0,0h1.998c-0.002,1.795-1.491,3.25-3.332,3.254l0,0H39.363L39.363,64z"/>
	</g>
	<g>
		<path fill="#231F20" d="M39.5,29.092c0.746-0.662,1.32-1.731,1.311-2.701l0,0c0-0.588-0.146-1.14-0.4-1.624l0,0l1.773-0.893
			c0.4,0.754,0.626,1.614,0.626,2.517l0,0c-0.013,1.667-0.858,3.142-1.954,4.135l0,0L39.5,29.092L39.5,29.092z"/>
	</g>
	<g>
		<path fill="#231F20" d="M36.031,60.709V37.326c-0.002-3.307,1.407-6.302,3.672-8.426l0,0l0,0l1.387,1.403
			c-1.887,1.777-3.061,4.261-3.061,7.021l0,0v23.385H36.031L36.031,60.709z"/>
	</g>
	<g>
		<path fill="#231F20" d="M58,60.709V37.326c0-2.861-1.254-5.423-3.264-7.21l0,0l1.348-1.445C58.486,30.809,60,33.9,60,37.324l0,0
			v23.385l0,0H58L58,60.709z"/>
	</g>
	<g>
		<path fill="#231F20" d="M53.242,26.391c-0.002-0.857,0.199-1.675,0.562-2.399l0,0l1.798,0.85c-0.232,0.469-0.361,0.99-0.361,1.55
			l0,0c0,1.128,0.535,2.128,1.373,2.78l0,0l0,0l-1.242,1.528C54.076,29.695,53.24,28.135,53.242,26.391L53.242,26.391z"/>
	</g>
	<g>
		<path fill="#231F20" d="M25.324,5.471c-1.549,0-2.799-1.224-2.802-2.735l0,0C22.523,1.223,23.775,0,25.324,0l0,0h13.371
			c1.547,0,2.799,1.224,2.799,2.735l0,0c0,1.511-1.254,2.735-2.799,2.735l0,0V4.496V3.52c0.441,0,0.803-0.352,0.803-0.783l0,0
			c0-0.433-0.364-0.782-0.803-0.785l0,0H25.324c-0.443,0.003-0.803,0.353-0.803,0.785l0,0c0,0.433,0.359,0.783,0.803,0.783l0,0
			h13.371v0.976v0.976L25.324,5.471L25.324,5.471z"/>
	</g>
	<g>
		<polyline fill="#231F20" points="26.798,43.879 26.798,42.244 36.97,42.244 36.881,44.195 26.708,44.195 		"/>
	</g>
	<g>
		<path fill="#231F20" d="M23.486,9.286c0.744-0.66,1.317-1.729,1.309-2.7l0,0c0-0.588-0.146-1.138-0.402-1.624l0,0l1.776-0.893
			c0.4,0.754,0.624,1.614,0.624,2.517l0,0c-0.012,1.667-0.857,3.142-1.953,4.138l0,0L23.486,9.286L23.486,9.286z"/>
	</g>
	<g>
		<path fill="#231F20" d="M20.016,20.621v-3.1c0-3.305,1.408-6.303,3.672-8.428l0,0l0,0l1.388,1.405
			c-1.889,1.778-3.061,4.264-3.061,7.024l0,0v3.014"/>
	</g>
	<g>
		<path fill="#231F20" d="M41.984,20.79v-3.268c0-2.861-1.256-5.424-3.263-7.211l0,0l1.345-1.444
			c2.405,2.137,3.918,5.229,3.918,8.654l0,0v3.101"/>
	</g>
	<g>
		<path fill="#231F20" d="M37.226,6.586c-0.001-0.857,0.199-1.675,0.562-2.399l0,0l1.8,0.85c-0.233,0.468-0.363,0.989-0.363,1.549
			l0,0c0,1.129,0.536,2.128,1.374,2.784l0,0l0,0l-1.242,1.526C38.059,9.89,37.225,8.329,37.226,6.586L37.226,6.586z"/>
	</g>
</g>
</svg>
