<?xml version="1.0" encoding="utf-8"?>
<!-- Generator: Adobe Illustrator 16.0.0, SVG Export Plug-In . SVG Version: 6.00 Build 0)  -->
<!DOCTYPE svg PUBLIC "-//W3C//DTD SVG 1.1//EN" "http://www.w3.org/Graphics/SVG/1.1/DTD/svg11.dtd">
<svg version="1.1" xmlns="http://www.w3.org/2000/svg" xmlns:xlink="http://www.w3.org/1999/xlink" x="0px" y="0px" width="64px"
	 height="64px" viewBox="0 0 64 64" enable-background="new 0 0 64 64" xml:space="preserve">
<g>
	<g>
		<path fill="#231F20" d="M25.299,14.904c-1.555,0-2.812-1.258-2.812-2.812l0,0c0-1.556,1.256-2.813,2.812-2.813l0,0h13.422
			c1.551,0,2.809,1.257,2.809,2.813l0,0c0,1.554-1.258,2.812-2.809,2.812l0,0v-1.005v-1.002c0.444-0.003,0.801-0.362,0.805-0.805
			l0,0c-0.004-0.448-0.357-0.806-0.805-0.808l0,0H25.299c-0.447,0.003-0.807,0.363-0.807,0.808l0,0c0,0.445,0.36,0.803,0.807,0.805
			l0,0h13.422v1.002v1.005H25.299L25.299,14.904z"/>
	</g>
	<g>
		<path fill="#231F20" d="M23.316,54.721c-1.853-0.003-3.343-1.5-3.347-3.347l0,0h2.009c0,0.74,0.598,1.34,1.34,1.34l0,0h17.368
			c0.737,0,1.338-0.599,1.338-1.34l0,0h2.011c-0.007,1.847-1.5,3.344-3.349,3.347l0,0H23.316L23.316,54.721z"/>
	</g>
	<g>
		<path fill="#231F20" d="M23.455,18.826c0.746-0.677,1.322-1.777,1.313-2.775l0,0c0-0.604-0.145-1.168-0.403-1.669l0,0l1.781-0.921
			c0.403,0.776,0.628,1.661,0.628,2.589l0,0c-0.01,1.714-0.862,3.233-1.962,4.254l0,0L23.455,18.826L23.455,18.826z"/>
	</g>
	<g>
		<path fill="#231F20" d="M19.97,51.399V27.308c0-3.405,1.418-6.491,3.685-8.68l0,0l0,0l1.393,1.449
			c-1.892,1.829-3.07,4.389-3.07,7.231l0,0v24.091H19.97L19.97,51.399z"/>
	</g>
	<g>
		<path fill="#231F20" d="M42.021,51.442V27.32c0-2.949-1.264-5.593-3.277-7.433l0,0l1.354-1.49c2.416,2.203,3.936,5.39,3.936,8.923
			l0,0v24.122l0,0L42.021,51.442L42.021,51.442z"/>
	</g>
	<g>
		<path fill="#231F20" d="M37.243,16.05c0-0.882,0.202-1.722,0.569-2.469l0,0l1.803,0.876c-0.232,0.48-0.36,1.019-0.36,1.594l0,0
			c0,1.159,0.538,2.188,1.38,2.86l0,0l0,0l-1.252,1.571C38.081,19.446,37.243,17.842,37.243,16.05L37.243,16.05z"/>
	</g>
	<g>
		<g>
			<path fill="#231F20" d="M32,4c15.439,0,28,12.561,28,28c0,15.439-12.561,28-28,28C16.561,60,4,47.439,4,32
				C4,16.561,16.561,4,32,4 M32,0C14.327,0,0,14.327,0,32c0,17.674,14.327,32,32,32s32-14.326,32-32C64,14.327,49.673,0,32,0L32,0z"
				/>
		</g>
	</g>
	
		<rect x="1.552" y="29.655" transform="matrix(-0.7804 -0.6253 0.6253 -0.7804 34.2279 79.0531)" fill="#231F20" width="58.89" height="7.721"/>
</g>
</svg>
