<?xml version="1.0" encoding="utf-8"?>
<!-- Generator: Adobe Illustrator 16.0.0, SVG Export Plug-In . SVG Version: 6.00 Build 0)  -->
<!DOCTYPE svg PUBLIC "-//W3C//DTD SVG 1.1//EN" "http://www.w3.org/Graphics/SVG/1.1/DTD/svg11.dtd">
<svg version="1.1" id="Capa_1" xmlns="http://www.w3.org/2000/svg" xmlns:xlink="http://www.w3.org/1999/xlink" x="0px" y="0px"
	 width="64px" height="64px" viewBox="0 0 64 64" enable-background="new 0 0 64 64" xml:space="preserve">
<g>
	<path fill="#231F20" d="M52.148,39.088c-0.109,0.271-0.373,0.439-0.644,0.439c-0.089,0-0.182-0.019-0.269-0.055l-2.575-1.099
		c-0.356-0.151-0.526-0.572-0.38-0.937c0.148-0.367,0.557-0.541,0.912-0.391l2.576,1.102C52.128,38.303,52.296,38.723,52.148,39.088
		z M53.212,33.605c0,0.395-0.313,0.715-0.698,0.715h-2.789c-0.384,0-0.697-0.32-0.697-0.715c0-0.396,0.313-0.717,0.697-0.717h2.789
		C52.898,32.889,53.212,33.209,53.212,33.605z M48.662,28.828l2.578-1.095c0.354-0.15,0.761,0.022,0.908,0.387
		c0.146,0.367-0.021,0.787-0.379,0.937l-2.576,1.1c-0.088,0.036-0.176,0.053-0.266,0.053c-0.273,0-0.535-0.166-0.646-0.438
		C48.139,29.398,48.307,28.979,48.662,28.828z M42.625,23.399l1.066-2.646c0.146-0.366,0.558-0.54,0.912-0.387
		c0.354,0.152,0.524,0.57,0.377,0.936l-1.065,2.646c-0.115,0.279-0.374,0.444-0.646,0.444c-0.088,0-0.181-0.02-0.269-0.055
		C42.646,24.186,42.477,23.768,42.625,23.399z"/>
	<path fill="#231F20" d="M33.932,20.367c0.354-0.155,0.762,0.021,0.91,0.385l1.066,2.647c0.146,0.368-0.021,0.787-0.379,0.938
		c-0.088,0.035-0.178,0.055-0.271,0.055c-0.272,0-0.53-0.166-0.643-0.444l-1.066-2.646C33.404,20.935,33.574,20.52,33.932,20.367z
		 M25.316,33.605c0-0.396,0.313-0.717,0.698-0.717h2.791c0.384,0,0.699,0.316,0.699,0.717c0,0.395-0.313,0.715-0.699,0.715h-2.791
		C25.629,34.318,25.316,34,25.316,33.605z M29.871,38.377l-2.578,1.098c-0.089,0.035-0.179,0.057-0.27,0.057
		c-0.274,0-0.531-0.167-0.643-0.44c-0.147-0.366,0.021-0.784,0.378-0.938l2.575-1.1c0.357-0.15,0.765,0.021,0.913,0.389
		C30.393,37.807,30.225,38.227,29.871,38.377z M30.246,29.768c-0.112,0.272-0.371,0.438-0.646,0.438
		c-0.087,0-0.177-0.017-0.267-0.053l-2.575-1.099c-0.356-0.152-0.523-0.57-0.377-0.938c0.149-0.362,0.554-0.54,0.912-0.387
		l2.577,1.097C30.225,28.983,30.393,29.4,30.246,29.768z M31.376,26.511l-1.971-2.026c-0.272-0.28-0.272-0.734,0-1.013
		c0.273-0.28,0.713-0.28,0.986,0l1.971,2.027c0.275,0.279,0.275,0.734,0,1.012c-0.137,0.141-0.314,0.209-0.493,0.209
		C31.69,26.72,31.512,26.651,31.376,26.511z"/>
	<path fill="none" d="M34.811,3.964c-0.002-0.63-0.496-1.137-1.104-1.138h-18.4C14.696,2.827,14.2,3.333,14.2,3.964
		c0,0.621,0.496,1.131,1.106,1.133h18.401C34.314,5.094,34.809,4.585,34.811,3.964z"/>
	<path fill="#231F20" d="M56,33.605c0-9.48-7.509-17.196-16.732-17.196c-0.263,0-0.516,0.029-0.771,0.041
		c0.271,0.452,0.521,0.916,0.753,1.395c0.006,0,0.015-0.002,0.021-0.002c8.457,0,15.344,7.071,15.344,15.765
		c0,8.091-5.973,14.771-13.625,15.652v1.451C49.41,49.818,56,42.484,56,33.605z"/>
	<path fill="#231F20" d="M23.924,33.605c0-7.648,5.327-14.033,12.37-15.462c-0.257-0.438-0.538-0.86-0.838-1.268
		c-7.396,1.777-12.927,8.594-12.927,16.729c0,9.121,6.96,16.59,15.708,17.141v-1.436C30.258,48.764,23.924,41.938,23.924,33.605z"/>
	<path fill="#231F20" d="M36.475,33.605c0,1.205,0.733,2.233,1.762,2.658V34.55c-0.221-0.254-0.365-0.58-0.365-0.944
		c0-0.367,0.145-0.694,0.365-0.95v-1.71C37.208,31.369,36.475,32.396,36.475,33.605z"/>
	<path fill="#231F20" d="M40.986,32.752v3.09c0.646-0.523,1.068-1.328,1.068-2.236c0-0.531-0.15-1.022-0.396-1.446l-0.423,0.432
		C41.164,32.664,41.078,32.717,40.986,32.752z"/>
	<path fill="#231F20" d="M41.659,32.157l6.479-6.658c0.274-0.28,0.274-0.731,0-1.015c-0.271-0.28-0.713-0.28-0.982,0l-6.17,6.339
		v0.542C41.256,31.584,41.486,31.851,41.659,32.157z"/>
	<path fill="#231F20" d="M40.986,31.365v1.387c0.092-0.033,0.179-0.088,0.25-0.164l0.423-0.431
		C41.486,31.851,41.256,31.584,40.986,31.365z"/>
	<path fill="#231F20" d="M29.502,33.605c0-0.396-0.313-0.717-0.698-0.717h-2.791c-0.385,0-0.698,0.316-0.698,0.717
		c0,0.395,0.313,0.715,0.698,0.715h2.791C29.189,34.318,29.502,34,29.502,33.605z"/>
	<path fill="#231F20" d="M29.333,37.053l-2.575,1.1c-0.356,0.15-0.525,0.57-0.378,0.938c0.112,0.273,0.369,0.44,0.643,0.44
		c0.09,0,0.181-0.02,0.27-0.057l2.578-1.098c0.354-0.152,0.523-0.572,0.375-0.938C30.098,37.075,29.69,36.9,29.333,37.053z"/>
	<path fill="#231F20" d="M51.771,38.154l-2.574-1.103c-0.356-0.151-0.766,0.021-0.913,0.39c-0.147,0.365,0.022,0.783,0.379,0.938
		l2.577,1.098c0.086,0.035,0.179,0.057,0.268,0.057c0.271,0,0.532-0.168,0.643-0.44C52.296,38.723,52.128,38.303,51.771,38.154z"/>
	<path fill="#231F20" d="M49.025,33.605c0,0.393,0.313,0.715,0.697,0.715h2.789c0.387,0,0.699-0.318,0.699-0.715
		c0-0.396-0.313-0.717-0.699-0.717h-2.789C49.341,32.889,49.025,33.206,49.025,33.605z"/>
	<path fill="#231F20" d="M48.284,29.768c0.108,0.272,0.372,0.438,0.646,0.438c0.088,0,0.178-0.017,0.266-0.053l2.576-1.099
		c0.356-0.149,0.524-0.57,0.379-0.938c-0.146-0.362-0.557-0.537-0.908-0.387l-2.578,1.096
		C48.307,28.979,48.139,29.398,48.284,29.768z"/>
	<path fill="#231F20" d="M43,24.337c0.087,0.035,0.18,0.054,0.27,0.054c0.271,0,0.53-0.165,0.646-0.443l1.067-2.646
		c0.146-0.365-0.021-0.783-0.379-0.936c-0.354-0.153-0.765,0.021-0.91,0.387l-1.066,2.646C42.477,23.768,42.646,24.186,43,24.337z"
		/>
	<path fill="#231F20" d="M34.619,23.947c0.109,0.279,0.369,0.443,0.643,0.443c0.092,0,0.182-0.019,0.271-0.054
		c0.354-0.152,0.523-0.572,0.378-0.938l-1.065-2.647c-0.148-0.363-0.558-0.54-0.91-0.385c-0.356,0.152-0.525,0.566-0.379,0.936
		L34.619,23.947z"/>
	<path fill="#231F20" d="M32.361,25.499l-1.971-2.027c-0.272-0.28-0.712-0.28-0.986,0c-0.272,0.278-0.272,0.73,0,1.013l1.971,2.026
		c0.136,0.141,0.314,0.209,0.492,0.209c0.179,0,0.356-0.068,0.493-0.209C32.635,26.234,32.635,25.779,32.361,25.499z"/>
	<path fill="#231F20" d="M29.871,28.83l-2.577-1.097c-0.358-0.153-0.763,0.022-0.912,0.387c-0.146,0.367,0.021,0.785,0.377,0.937
		l2.575,1.1c0.09,0.036,0.179,0.053,0.267,0.053c0.275,0,0.534-0.166,0.646-0.438C30.393,29.4,30.225,28.983,29.871,28.83z"/>
	<path fill="#231F20" d="M44.846,40.768v2.865h-3.857v1.434h4.554c0.386,0,0.698-0.32,0.698-0.715v-4.303
		c0-0.395-0.313-0.715-0.698-0.715h-4.554v1.434H44.846z"/>
	<path fill="#231F20" d="M33.686,43.633v-2.865h4.551v-1.434h-5.248c-0.385,0-0.697,0.318-0.697,0.715v4.303
		c0,0.394,0.313,0.715,0.697,0.715h5.248v-1.434H33.686z"/>
	<path fill="#231F20" d="M33.706,0h-18.4c-2.128,0-3.852,1.771-3.857,3.964c0.005,1.799,1.18,3.299,2.781,3.782
		c-0.069-0.188-0.116-0.385-0.204-0.562L16.47,5.89c0.316,0.633,0.542,1.317,0.687,2.031h14.697c0.13-0.651,0.329-1.277,0.607-1.859
		l1.245,0.62V6.51V5.096h-18.4C14.696,5.094,14.2,4.585,14.2,3.964c0-0.63,0.496-1.137,1.106-1.138h18.401
		c0.607,0.002,1.104,0.508,1.104,1.138c0,0.621-0.496,1.131-1.104,1.133v1.414v0.171l1.229,0.613
		c-0.066,0.144-0.101,0.302-0.156,0.452c1.604-0.479,2.781-1.982,2.781-3.782C37.563,1.771,35.835,0,33.706,0z"/>
	<path fill="#231F20" d="M36.402,61.148H12.586c-1.015,0-1.833-0.853-1.834-1.9H8c0.003,2.623,2.051,4.749,4.586,4.752H36.4
		c2.529-0.003,4.582-2.13,4.586-4.752h-2.75C38.234,60.297,37.413,61.148,36.402,61.148z"/>
	<path fill="#231F20" d="M14.23,7.746c0.203,0.56,0.346,1.152,0.346,1.789c0.017,1.406-0.775,2.956-1.799,3.911l0.012,0.012
		c0.089-0.095,0.172-0.198,0.265-0.29l1.902,2.029c1.349-1.428,2.356-3.421,2.373-5.662c0-0.552-0.067-1.091-0.172-1.614h-1.851
		C14.93,7.921,14.574,7.848,14.23,7.746z"/>
	<path fill="#231F20" d="M14.025,7.185c0.088,0.177,0.136,0.373,0.205,0.562c0.344,0.102,0.7,0.175,1.076,0.175h1.85
		c-0.145-0.715-0.369-1.398-0.687-2.031L14.025,7.185z"/>
	<path fill="#231F20" d="M12.788,13.458C9.838,16.53,7.997,20.761,8,25.429v34.03h2.751v-34.03c0-4.017,1.613-7.632,4.209-10.217
		l-0.006-0.007c-0.106,0.112-0.207,0.226-0.317,0.331L12.788,13.458z"/>
	<path fill="#231F20" d="M12.788,13.458l1.85,2.068c0.109-0.104,0.21-0.219,0.316-0.33l-1.902-2.029
		C12.959,13.26,12.877,13.362,12.788,13.458z"/>
	<path fill="#231F20" d="M38.564,19.991c0-0.396,0.314-0.717,0.701-0.717c0.389,0,0.697,0.322,0.697,0.717v2.866
		c0,0.396-0.313,0.718-0.697,0.718c-0.387,0-0.701-0.323-0.701-0.718V19.991z"/>
	<path fill="#231F20" d="M36.313,13.582l-1.691,2.196c-0.178-0.146-0.346-0.308-0.512-0.468c0.482,0.488,0.938,1.011,1.348,1.564
		c0.982-0.238,2-0.378,3.04-0.427C37.868,15.413,37.134,14.455,36.313,13.582z"/>
	<path fill="#FFFFFF" d="M33.738,14.933c0.033,0.028,0.059,0.062,0.093,0.092c-0.028-0.031-0.06-0.064-0.085-0.096L33.738,14.933z"
		/>
	<path fill="#231F20" d="M38.236,50.744v8.717h2.75v-8.752c-0.565,0.057-1.143,0.088-1.721,0.088
		C38.917,50.797,38.578,50.766,38.236,50.744z"/>
	<path fill="#231F20" d="M39.268,49.364c-0.351,0-0.688-0.028-1.031-0.056v1.435c0.343,0.021,0.683,0.054,1.031,0.054
		c0.578,0,1.151-0.031,1.721-0.09v-1.451C40.42,49.324,39.848,49.364,39.268,49.364z"/>
	<path fill="#231F20" d="M39.248,17.843c-0.23-0.478-0.48-0.941-0.753-1.395c-1.04,0.05-2.056,0.189-3.04,0.428
		c0.3,0.406,0.581,0.83,0.838,1.267C37.25,17.95,38.236,17.843,39.248,17.843z"/>
	<path fill="#231F20" d="M39.268,32.168c0.77,0,1.394,0.645,1.394,1.438c0,0.787-0.624,1.432-1.394,1.432
		c-0.414,0-0.773-0.189-1.031-0.485v1.714c0.32,0.129,0.668,0.207,1.031,0.207c0.65,0,1.244-0.244,1.721-0.63v-3.09
		c-0.077,0.03-0.16,0.047-0.242,0.047c-0.178,0-0.355-0.065-0.491-0.209c-0.272-0.277-0.272-0.73,0-1.011l0.423-0.434
		c-0.416-0.252-0.894-0.407-1.408-0.407c-0.362,0-0.711,0.077-1.031,0.206v1.71C38.493,32.363,38.854,32.168,39.268,32.168z"/>
	<path fill="#231F20" d="M40.986,30.823l-0.311,0.321c0.106,0.064,0.211,0.14,0.311,0.22V30.823z"/>
	<path fill="#231F20" d="M40.251,32.588c0.138,0.145,0.313,0.211,0.492,0.211c0.083,0,0.166-0.018,0.241-0.049v-1.386
		c-0.1-0.081-0.202-0.155-0.311-0.22l-0.425,0.434C39.979,31.858,39.979,32.312,40.251,32.588z"/>
	<path fill="#231F20" d="M39.268,23.575c0.383,0,0.694-0.321,0.694-0.718v-2.866c0-0.395-0.312-0.717-0.694-0.717
		c-0.387,0-0.701,0.319-0.701,0.717v2.866C38.564,23.251,38.878,23.575,39.268,23.575z"/>
	<rect x="38.236" y="39.336" fill="#231F20" width="2.75" height="1.432"/>
	<rect x="38.236" y="43.633" fill="#231F20" width="2.75" height="1.434"/>
	<path fill="#231F20" d="M36.313,13.582l0.02-0.019c-1.157-0.946-1.893-2.394-1.893-4.03c0-0.637,0.137-1.229,0.34-1.789
		c-0.342,0.104-0.696,0.175-1.071,0.175h-1.853c-0.104,0.523-0.166,1.063-0.166,1.614c-0.001,2.081,0.785,3.972,2.06,5.393
		L35.6,12.84C35.846,13.075,36.078,13.334,36.313,13.582z"/>
	<path fill="#FFFFFF" d="M34.109,15.312c-0.094-0.095-0.183-0.196-0.277-0.287C33.92,15.121,34.014,15.217,34.109,15.312z"/>
	<path fill="#231F20" d="M33.706,6.682v1.24c0.375,0,0.731-0.071,1.071-0.175c0.056-0.15,0.089-0.309,0.154-0.452L33.706,6.682z"/>
	<path fill="#231F20" d="M33.706,6.682l-1.248-0.619c-0.277,0.582-0.476,1.208-0.607,1.859h1.853v-1.24H33.706z"/>
	<path fill="#231F20" d="M36.313,13.582c-0.233-0.249-0.467-0.508-0.717-0.741l-1.851,2.086c0.026,0.031,0.058,0.064,0.086,0.096
		c0.097,0.092,0.185,0.192,0.276,0.287c0.166,0.161,0.334,0.322,0.512,0.468L36.313,13.582z"/>
</g>
</svg>
