<?xml version="1.0" encoding="utf-8"?>
<!-- Generator: Adobe Illustrator 16.0.0, SVG Export Plug-In . SVG Version: 6.00 Build 0)  -->
<!DOCTYPE svg PUBLIC "-//W3C//DTD SVG 1.1//EN" "http://www.w3.org/Graphics/SVG/1.1/DTD/svg11.dtd">
<svg version="1.1" xmlns="http://www.w3.org/2000/svg" xmlns:xlink="http://www.w3.org/1999/xlink" x="0px" y="0px" width="64px"
	 height="64px" viewBox="0 0 64 64" enable-background="new 0 0 64 64" xml:space="preserve">
<g>
	<path fill-rule="evenodd" clip-rule="evenodd" d="M3.336,9.006c0.005,0.182,0.015,0.363,0.015,0.544c0,16.755,0,33.51,0.001,50.266
		c0,0.618-0.059,0.571,0.579,0.571c19.836,0,39.672,0,59.51,0.001c0.184,0,0.37,0.007,0.553,0.011c0,1.134-0.004,2.268,0.006,3.401
		c0,0.16-0.134,0.222-0.299,0.191c-0.03-0.005,0.035,0,0,0c-21.134,0-42.267,0-63.401,0.006c-0.245,0-0.3-0.054-0.3-0.294
		C0.007,45.567,0.007,27.432,0,9.295C0,9.054,0.055,8.996,0.3,9C1.312,9.016,2.325,9.006,3.336,9.006z"/>
	<path fill-rule="evenodd" clip-rule="evenodd" d="M59.561,39.293c0,4.881,0,10.536,0,16.193c0,0.545,0,0.546-0.561,0.546
		c-4.158,0.001-8.313,0.001-12.47,0c-0.562,0-0.562-0.001-0.562-0.546c0-6.972,0.003-13.943-0.006-20.913
		c-0.002-0.347,0.099-0.589,0.355-0.837c1.516-1.446,3.005-2.916,4.506-4.374c2.787-2.704,5.576-5.406,8.365-8.108
		c0.075-0.073,0.147-0.211,0.25-0.177c0.141,0.047,0.069,0.206,0.071,0.313c0.004,3.347-0.017,6.693,0.014,10.04
		C59.547,33.794,59.538,36.155,59.561,39.293z"/>
	<path fill-rule="evenodd" clip-rule="evenodd" d="M24.638,44.494c0,3.678,0.001,7.356,0,11.034c0,0.502-0.001,0.504-0.505,0.504
		c-4.82,0.001-9.641,0.001-14.462,0c-0.478,0-0.479-0.002-0.479-0.486c0-3.753,0.005-7.507-0.006-11.26
		c-0.002-0.315,0.104-0.504,0.36-0.686c4.909-3.491,9.812-6.993,14.717-10.49c0.086-0.062,0.177-0.18,0.281-0.13
		c0.141,0.066,0.083,0.229,0.083,0.351c0.003,3.721,0.003,7.441,0.003,11.163C24.631,44.494,24.635,44.494,24.638,44.494z"/>
	<path fill-rule="evenodd" clip-rule="evenodd" d="M59.564,10.168c0.201-0.032,0.272,0.052,0.245,0.252
		c-0.266,1.861-0.527,3.723-0.788,5.584c-0.208,1.459-0.415,2.919-0.622,4.379c-0.012,0.09,0.018,0.216-0.104,0.244
		c-0.091,0.021-0.146-0.079-0.206-0.139c-1.022-1.05-2.052-2.096-3.063-3.156c-0.184-0.192-0.282-0.22-0.486-0.026
		c-2.19,2.097-4.388,4.185-6.584,6.274c-3.412,3.243-6.819,6.485-10.23,9.724c-0.414,0.395-0.854,0.762-1.222,1.201
		c-0.113,0.135-0.207,0.103-0.334,0.02c-1.381-0.912-2.764-1.822-4.149-2.73c-2.399-1.572-4.803-3.138-7.198-4.716
		c-0.196-0.128-0.32-0.088-0.487,0.033c-3.712,2.692-7.429,5.379-11.144,8.068c-0.876,0.633-1.759,1.258-2.628,1.902
		c-0.222,0.164-0.335,0.132-0.49-0.079c-0.521-0.713-1.06-1.411-1.591-2.116c-0.249-0.33-0.249-0.332,0.105-0.59
		c2.639-1.905,5.277-3.813,7.917-5.719c2.447-1.766,4.894-3.532,7.34-5.299c0.156-0.114,0.323-0.218,0.44-0.377
		c0.092-0.127,0.208-0.143,0.339-0.054c3.062,2.099,6.202,4.079,9.296,6.129c0.584,0.389,1.183,0.765,1.761,1.162
		c0.191,0.13,0.304,0.113,0.469-0.045c1.682-1.613,3.372-3.219,5.061-4.826c3.401-3.234,6.803-6.468,10.207-9.702
		c0.25-0.238,0.494-0.48,0.757-0.705c0.186-0.158,0.176-0.272,0.008-0.442c-0.939-0.951-1.87-1.913-2.802-2.87
		c-0.067-0.07-0.135-0.139-0.204-0.209c-0.144-0.15-0.115-0.239,0.097-0.26c0.574-0.054,1.146-0.11,1.721-0.161
		c1.646-0.148,3.289-0.294,4.936-0.439C57.139,10.375,58.351,10.272,59.564,10.168z"/>
	<path fill-rule="evenodd" clip-rule="evenodd" d="M28.475,45.646c0-3.271,0-6.543,0-9.814c0-0.074-0.005-0.15,0.002-0.224
		c0.008-0.104-0.043-0.238,0.069-0.295c0.115-0.059,0.199,0.061,0.282,0.118c1.979,1.359,3.955,2.723,5.932,4.085
		c0.704,0.484,1.415,0.961,2.108,1.461c0.229,0.165,0.36,0.124,0.543-0.064c1.404-1.432,2.817-2.854,4.228-4.279
		c0.061-0.062,0.121-0.123,0.186-0.181c0.105-0.093,0.175-0.078,0.185,0.071c0.004,0.085,0.002,0.171,0.004,0.256
		c0,2.042-0.018,4.084,0.008,6.126c0.057,4.211,0.027,8.423,0.045,12.635c0.002,0.502,0,0.502-0.5,0.502c-4.189,0-8.379,0-12.566,0
		c-0.521,0-0.523,0-0.523-0.52C28.475,52.23,28.475,48.937,28.475,45.646z"/>
</g>
</svg>
