<?xml version="1.0" encoding="utf-8"?>
<!-- Generator: Adobe Illustrator 16.0.0, SVG Export Plug-In . SVG Version: 6.00 Build 0)  -->
<!DOCTYPE svg PUBLIC "-//W3C//DTD SVG 1.1//EN" "http://www.w3.org/Graphics/SVG/1.1/DTD/svg11.dtd">
<svg version="1.1" xmlns="http://www.w3.org/2000/svg" xmlns:xlink="http://www.w3.org/1999/xlink" x="0px" y="0px" width="64px"
	 height="64px" viewBox="0 0 64 64" enable-background="new 0 0 64 64" xml:space="preserve">
<g>
	<path fill="#202020" d="M58.564,10.63c0.264,1.251,0.529,2.502,0.795,3.753c0.445,2.101,0.892,4.201,1.328,6.304l0.095,0.456
		c0.397,1.911,0.808,3.886,1.146,5.823c0.228,1.304-0.253,1.871-0.699,2.221c-0.833,0.654-1.178,1.402-1.292,2.09
		c-0.475-0.738-1.185-1.261-2.088-1.53c-0.547-0.164-1.145-0.501-1.434-1.758c-0.736-3.207-1.444-6.484-2.129-9.653l-0.675-3.12
		c-0.102-0.464-0.196-0.93-0.291-1.396c-0.13-0.643-0.264-1.302-0.417-1.965c1.069-0.167,2.094-0.417,3.092-0.661
		C56.88,10.978,57.727,10.771,58.564,10.63 M5.502,10.63c0.839,0.142,1.685,0.348,2.57,0.564c0.997,0.243,2.019,0.492,3.09,0.661
		c-0.155,0.669-0.289,1.334-0.421,1.984c-0.093,0.46-0.186,0.92-0.286,1.379l-0.668,3.085c-0.687,3.18-1.397,6.468-2.135,9.683
		c-0.291,1.26-0.888,1.597-1.432,1.76c-0.907,0.271-1.617,0.794-2.09,1.531c-0.114-0.688-0.46-1.437-1.296-2.092
		c-0.443-0.347-0.923-0.913-0.695-2.218c0.364-2.086,0.809-4.212,1.242-6.28c0.457-2.203,0.924-4.404,1.391-6.605
		C5.016,12.931,5.26,11.779,5.502,10.63 M22.161,13.698c0.971,0.013,1.942,0.019,2.913,0.019c0.979,0,1.958-0.006,2.948-0.018
		c-0.002,2.189,0.004,4.379,0.01,6.569c0.009,3.48,0.018,7.079-0.003,10.612c-0.001,0.141-0.106,0.426-0.573,0.953
		c-0.052,0.044-0.221,0.142-0.345,0.213c-0.505,0.292-1.542,0.892-1.959,2.104c-0.216-0.579-0.629-1.189-1.417-1.628
		c-1.051-0.582-1.729-1.417-1.625-3.602c0.171-3.554,0.129-7.138,0.088-10.604C22.18,16.801,22.161,15.238,22.161,13.698
		 M41.905,13.699c0,1.546-0.019,3.116-0.036,4.638c-0.041,3.46-0.083,7.038,0.087,10.584c0.104,2.186-0.574,3.021-1.631,3.606
		c-0.784,0.438-1.195,1.046-1.411,1.624c-0.417-1.213-1.454-1.813-1.959-2.104c-0.124-0.072-0.293-0.169-0.313-0.181
		c-0.497-0.559-0.603-0.844-0.604-0.983c-0.021-3.542-0.012-7.148-0.003-10.635c0.005-2.182,0.011-4.365,0.01-6.548
		c0.982,0.012,1.965,0.018,2.948,0.018C39.96,13.717,40.927,13.711,41.905,13.699 M38.68,43.164c0,0.159,0,0.318,0,0.478
		c-0.01,1.556,0.712,2.529,1.325,3.077c1.413,1.253,2.406,2.54,3.037,3.931c0.713,1.58,1.945,1.751,2.441,1.751
		c0.02,0,0.04-0.001,0.06-0.001c-0.984,0.953-1.434,2.11-1.337,3.444c0.122,1.781-0.281,3.584-1.269,5.675
		C42.715,61.992,42.703,62,42.279,62c-0.007,0-0.015,0-0.022,0c-3.164-0.026-6.508-0.039-10.224-0.039
		c-3.716,0-7.061,0.013-10.253,0.039c-0.416,0-0.424,0-0.652-0.484c-0.987-2.09-1.39-3.892-1.267-5.669
		c0.094-1.339-0.355-2.495-1.338-3.447c0.02,0,0.04,0.001,0.06,0.001c0.498,0,1.731-0.171,2.438-1.747
		c0.632-1.393,1.626-2.681,3.042-3.938c0.608-0.542,1.331-1.516,1.324-3.063c0-0.161,0-0.322,0-0.483
		c0.51,0.863,1.41,1.269,2.266,1.269c0.339,0,0.695-0.06,1.054-0.176c0.975-0.311,1.958-0.482,3.006-0.525
		c0.05-0.002,0.099-0.006,0.147-0.011l0.143,0.004c0.01,0,0.02,0,0.029,0s0.019,0,0.029,0l0.143-0.004
		c0.049,0.005,0.098,0.009,0.148,0.011c1.048,0.043,2.032,0.215,3,0.523c0.365,0.118,0.722,0.178,1.061,0.178
		C37.27,44.437,38.171,44.03,38.68,43.164 M59.251,8.531c-0.094,0-0.194,0.007-0.302,0.021c-2.452,0.309-4.777,1.198-7.242,1.442
		c-0.918,0.09-1.168,0.668-0.936,1.563c0.35,1.349,0.588,2.724,0.886,4.086c0.928,4.267,1.832,8.539,2.809,12.793
		c0.349,1.517,1.181,2.738,2.808,3.226c0.557,0.166,0.941,0.483,1.156,1.049c1.408,3.723,0.621,7.215-2.501,9.785
		c-3.192,2.628-6.538,5.072-9.81,7.61C45.874,50.3,45.665,50.4,45.483,50.4c-0.245,0-0.442-0.184-0.618-0.573
		c-0.816-1.801-2.057-3.295-3.533-4.604c-0.479-0.429-0.656-0.951-0.652-1.568c0.003-2.659,0-5.318-0.004-7.977
		c0-0.558,0.063-1.091,0.624-1.404c2.179-1.206,2.765-3.138,2.654-5.448c-0.25-5.209-0.035-10.422-0.05-15.633
		c-0.004-0.936-0.361-1.502-1.419-1.502c-0.017,0-0.033,0-0.05,0c-1.147,0.019-2.295,0.027-3.442,0.027
		c-1.188,0-2.375-0.009-3.563-0.026c-0.016,0-0.031,0-0.047,0c-0.962,0-1.342,0.4-1.34,1.367c0.008,5.945-0.041,11.892-0.006,17.837
		c0.006,0.855,0.472,1.584,1.109,2.301c0.631,0.707,1.952,0.81,1.946,2.085c-0.012,2.072,0.002,4.146,0.002,6.217
		c-0.002,0.594-0.214,0.939-0.683,0.939c-0.129,0-0.277-0.026-0.446-0.081c-1.179-0.376-2.356-0.57-3.533-0.618V41.72
		c-0.017,0-0.034-0.001-0.052-0.001c-0.116,0-0.232,0.008-0.349,0.01c-0.116-0.002-0.233-0.01-0.349-0.01
		c-0.018,0-0.035,0.001-0.052,0.001v0.018c-1.176,0.048-2.353,0.242-3.532,0.618c-0.169,0.055-0.318,0.081-0.447,0.081
		c-0.469,0-0.682-0.346-0.683-0.939c-0.001-2.071,0.014-4.145,0.002-6.217c-0.007-1.275,1.316-1.378,1.946-2.085
		c0.638-0.717,1.104-1.445,1.11-2.301c0.036-5.945-0.014-11.892-0.006-17.837c0.002-0.966-0.377-1.367-1.338-1.367
		c-0.016,0-0.031,0-0.047,0c-1.188,0.017-2.375,0.026-3.563,0.026c-1.147,0-2.295-0.008-3.442-0.027c-0.017,0-0.034,0-0.05,0
		c-1.059,0-1.416,0.566-1.42,1.502c-0.014,5.211,0.202,10.424-0.049,15.633c-0.111,2.31,0.475,4.242,2.653,5.448
		c0.563,0.313,0.625,0.847,0.625,1.404c-0.003,2.658-0.006,5.317-0.003,7.977c0.003,0.617-0.175,1.14-0.655,1.568
		c-1.474,1.31-2.715,2.804-3.532,4.604c-0.175,0.39-0.372,0.573-0.617,0.573c-0.182,0-0.391-0.101-0.638-0.293
		c-3.269-2.538-6.616-4.982-9.807-7.61c-3.124-2.57-3.91-6.063-2.5-9.785c0.213-0.566,0.597-0.883,1.153-1.049
		c1.629-0.488,2.458-1.709,2.809-3.226c0.977-4.255,1.881-8.526,2.809-12.793c0.296-1.362,0.535-2.737,0.884-4.086
		c0.233-0.895-0.018-1.474-0.934-1.563C9.895,9.75,7.569,8.86,5.117,8.552C5.009,8.538,4.908,8.531,4.815,8.531
		c-0.683,0-0.989,0.36-1.135,1.048c-0.75,3.567-1.517,7.131-2.258,10.702c-0.441,2.11-0.883,4.22-1.253,6.342
		c-0.28,1.606,0.093,3.088,1.433,4.137c0.864,0.677,0.555,1.421,0.392,2.203c-0.654,3.13-0.606,6.173,1.063,9.041
		c0.861,1.477,2.078,2.627,3.413,3.66c3.421,2.64,6.857,5.258,10.305,7.865c0.746,0.566,1.161,1.216,1.093,2.178
		c-0.163,2.352,0.452,4.542,1.454,6.663c0.513,1.09,1.166,1.63,2.46,1.63c0.015,0,0.03,0,0.045,0
		c3.402-0.028,6.805-0.039,10.208-0.039c3.403,0,6.805,0.011,10.207,0.039c0.016,0,0.03,0,0.045,0c1.297,0,1.949-0.54,2.462-1.63
		c1.002-2.121,1.615-4.312,1.454-6.663c-0.069-0.962,0.347-1.611,1.092-2.178c3.447-2.607,6.886-5.226,10.305-7.865
		c1.334-1.033,2.553-2.184,3.413-3.66c1.669-2.868,1.716-5.911,1.062-9.041c-0.162-0.782-0.47-1.526,0.392-2.203
		c1.339-1.049,1.715-2.531,1.435-4.137c-0.37-2.122-0.814-4.232-1.253-6.342c-0.741-3.57-1.509-7.134-2.258-10.702
		C60.24,8.892,59.933,8.531,59.251,8.531L59.251,8.531z"/>
</g>
</svg>
