<?xml version="1.0" encoding="utf-8"?>
<!-- Generator: Adobe Illustrator 16.0.0, SVG Export Plug-In . SVG Version: 6.00 Build 0)  -->
<!DOCTYPE svg PUBLIC "-//W3C//DTD SVG 1.1//EN" "http://www.w3.org/Graphics/SVG/1.1/DTD/svg11.dtd">
<svg version="1.1" xmlns="http://www.w3.org/2000/svg" xmlns:xlink="http://www.w3.org/1999/xlink" x="0px" y="0px" width="64px"
	 height="64px" viewBox="448 248 64 64" enable-background="new 448 248 64 64" xml:space="preserve">
<path d="M488.723,306.755l-8.21,4.91c-0.337,0.205-0.74,0.205-1.075,0l-8.21-4.91c-0.066,0-0.066-0.067-0.066-0.134v-19.313
	c0.335,0,0.741-0.066,1.078-0.201l2.692-0.942l1.882,2.155c0.807,0.941,1.953,1.479,3.163,1.479c1.213,0,2.355-0.537,3.162-1.479
	l1.887-2.155l2.69,0.942c0.337,0.135,0.672,0.201,1.075,0.201v19.313C488.789,306.688,488.723,306.755,488.723,306.755z
	 M495.854,270.958c-0.337,0.336-0.471,0.807-0.337,1.277l1.348,3.904c0.202,0.673-0.201,1.412-0.873,1.546l-4.039,0.808
	c-0.471,0.066-0.808,0.473-0.94,0.943l-0.809,4.035c-0.133,0.673-0.876,1.076-1.549,0.874l-3.901-1.345
	c-0.47-0.133-0.943,0-1.279,0.337l-2.689,3.095c-0.473,0.538-1.28,0.538-1.751,0l-2.691-3.095c-0.336-0.337-0.807-0.47-1.277-0.337
	l-3.904,1.345c-0.673,0.202-1.413-0.201-1.547-0.874l-0.807-4.035c-0.067-0.471-0.473-0.81-0.943-0.943l-4.037-0.808
	c-0.671-0.135-1.075-0.874-0.873-1.546l1.345-3.904c0.134-0.471,0-0.941-0.337-1.277l-3.094-2.691
	c-0.404-0.472-0.404-1.345,0.134-1.818l3.095-2.689c0.336-0.339,0.471-0.81,0.336-1.28l-1.345-3.902
	c-0.202-0.672,0.202-1.415,0.874-1.549l4.037-0.807c0.47-0.067,0.809-0.47,0.943-0.941l0.807-4.039
	c0.134-0.605,0.807-1.009,1.479-0.807l3.904,1.347c0.47,0.134,0.941,0,1.278-0.338l2.692-3.095c0.471-0.538,1.276-0.538,1.749,0
	l2.689,3.095c0.339,0.338,0.811,0.473,1.281,0.338l3.901-1.347c0.672-0.202,1.414,0.202,1.549,0.874l0.807,4.039
	c0.066,0.47,0.471,0.807,0.94,0.941l4.04,0.807c0.672,0.135,1.076,0.876,0.874,1.548l-1.347,3.902c-0.136,0.471,0,0.942,0.334,1.28
	l3.099,2.689c0.537,0.473,0.537,1.28,0,1.751L495.854,270.958z M487.782,264.566l-4.981-0.336l-1.881-4.644
	c-0.34-0.874-1.618-0.874-1.954,0l-1.885,4.644l-4.977,0.336c-0.943,0.067-1.347,1.21-0.608,1.816l3.837,3.229l-1.212,4.846
	c-0.202,0.941,0.742,1.616,1.548,1.143l4.238-2.623l4.241,2.623c0.806,0.473,1.815-0.202,1.545-1.143l-1.209-4.846l3.834-3.229
	C489.125,265.776,488.723,264.633,487.782,264.566z"/>
</svg>
