<?xml version="1.0" encoding="utf-8"?>
<!-- Generator: Adobe Illustrator 16.0.0, SVG Export Plug-In . SVG Version: 6.00 Build 0)  -->
<!DOCTYPE svg PUBLIC "-//W3C//DTD SVG 1.1//EN" "http://www.w3.org/Graphics/SVG/1.1/DTD/svg11.dtd">
<svg version="1.1" xmlns="http://www.w3.org/2000/svg" xmlns:xlink="http://www.w3.org/1999/xlink" x="0px" y="0px" width="64px"
	 height="64px" viewBox="0 0 64 64" enable-background="new 0 0 64 64" xml:space="preserve">
<g>
	<path d="M17.989,1l0.014,0.004c0.109,0.038,0.154,0.241,0.186,0.863c0.08,1.591,0.09,3.028,0.031,4.394
		c-0.023,0.549,0.01,1.346,0.568,1.93c0.554,0.579,1.338,0.646,1.917,0.646c0,0,0.001,0,0.002,0
		c3.201-0.021,6.403-0.027,9.604-0.027c1.788,0,3.575,0.002,5.363,0.003l4.457,0.003c1.686,0.001,1.686,0.001,1.692,1.776
		c0.021,6.306,0.021,12.086-0.002,17.67c-0.006,1.69-0.037,1.69-1.677,1.694c-1.289,0.003-2.58,0.004-3.87,0.004l-2.703-0.001
		l-2.704-0.001H30.5c-0.898,0-1.797,0.003-2.695,0.006c-0.941,0.003-1.882,0.006-2.824,0.006c-1.658,0-3.007-0.01-4.248-0.031
		l-0.093,0c-0.532,0-1.304,0.067-1.858,0.651c-0.422,0.445-0.605,1.077-0.56,1.933c0.071,1.35,0.041,2.711-0.003,3.979l-0.006,0.192
		c-0.018,0.643-0.055,0.962-0.221,1.041c-0.031,0.015-0.047,0.018-0.047,0.019c-0.131-0.022-0.458-0.361-0.615-0.525l-0.177-0.181
		c-1.648-1.656-3.303-3.37-4.903-5.026l-1.541-1.594l-2.326-2.397c-2.045-2.107-4.09-4.215-6.124-6.333
		c-1.674-1.744-1.669-2.923,0.019-4.672c3.487-3.613,6.982-7.219,10.477-10.825l4.125-4.256l0.117-0.123
		c0.104-0.108,0.201-0.211,0.289-0.282c0.074-0.061,0.148-0.124,0.223-0.188C17.651,1.23,17.892,1.023,17.989,1 M17.987,0
		c-0.526,0-0.927,0.434-1.335,0.767c-0.177,0.144-0.331,0.319-0.491,0.484C11.292,6.277,6.417,11.297,1.558,16.333
		c-2.071,2.146-2.075,3.919-0.021,6.059c2.806,2.923,5.633,5.824,8.453,8.734c2.146,2.216,4.279,4.445,6.454,6.63
		c0.423,0.426,0.887,1.001,1.498,1.001c0.15,0,0.31-0.035,0.48-0.116c0.811-0.385,0.769-1.321,0.796-2.101
		c0.046-1.354,0.073-2.715,0.002-4.067c-0.061-1.146,0.361-1.532,1.419-1.532c0.025,0,0.051,0,0.077,0
		c1.421,0.024,2.843,0.031,4.265,0.031c1.84,0,3.68-0.012,5.52-0.012c0.123,0,0.245,0,0.368,0c1.802,0,3.604,0.002,5.407,0.002
		c1.291,0,2.582-0.001,3.873-0.004c2.186-0.005,2.666-0.457,2.674-2.691c0.023-5.893,0.021-11.785,0.002-17.677
		c-0.009-2.379-0.42-2.771-2.691-2.772c-3.274-0.001-6.548-0.007-9.821-0.007c-3.204,0-6.408,0.006-9.611,0.027
		c-0.011,0-0.021,0-0.031,0c-1.104,0-1.5-0.387-1.45-1.533c0.065-1.493,0.044-2.994-0.031-4.487c-0.034-0.67-0.064-1.486-0.86-1.759
		C18.208,0.018,18.095,0,17.987,0L17.987,0z"/>
</g>
<g>
	<path d="M46.045,26.29c0.099,0.046,0.257,0.135,0.482,0.308c0.324,0.249,0.639,0.562,0.903,0.834
		c4.681,4.825,9.357,9.653,14.032,14.486c0.672,0.694,1.245,1.338,1.459,2.194c0.217,0.869-0.02,1.626-0.746,2.381
		c-4.854,5.042-9.914,10.266-15.47,15.971l-0.052,0.053C46.514,62.661,46.185,63,46.078,63c-0.007,0-0.026-0.003-0.092-0.033
		c-0.079-0.083-0.102-0.525-0.114-0.775c-0.081-1.519-0.144-2.886-0.088-4.249c0.024-0.589-0.012-1.443-0.603-2.06
		c-0.586-0.61-1.418-0.681-1.993-0.681H43.14h-0.004c-2.702,0.021-5.666,0.032-9.329,0.032c-1.884,0-3.768-0.003-5.651-0.005
		l-4.176-0.005c-1.161-0.001-1.442-0.111-1.507-0.178c-0.067-0.069-0.181-0.364-0.182-1.566c-0.003-5.986-0.004-11.973,0.001-17.96
		c0.001-1.02,0.1-1.251,0.14-1.301c0.04-0.032,0.245-0.136,1.24-0.138c1.286-0.003,2.573-0.004,3.859-0.004l2.894,0.001l2.896,0.001
		c0.927,0,1.854-0.005,2.781-0.01c0.951-0.006,1.901-0.011,2.853-0.011c1.606,0,2.917,0.016,4.124,0.048l0.157,0.002
		c0.866,0,1.5-0.221,1.937-0.674c0.596-0.62,0.643-1.477,0.616-2.154l-0.007-0.176c-0.059-1.474-0.114-2.867,0.115-4.24
		C45.945,26.572,46.002,26.394,46.045,26.29 M45.919,25.243c-0.522,0-0.847,0.483-1.009,1.458c-0.256,1.534-0.182,3.084-0.121,4.621
		c0.049,1.272-0.313,1.789-1.554,1.789c-0.042,0-0.086-0.001-0.13-0.002c-1.384-0.037-2.768-0.048-4.151-0.048
		c-1.878,0-3.756,0.02-5.634,0.021c-1.93,0-3.859-0.002-5.789-0.002c-1.287,0-2.575,0.001-3.862,0.004
		c-2.036,0.004-2.376,0.35-2.377,2.438c-0.006,5.987-0.004,11.975-0.001,17.962c0.001,2.385,0.349,2.741,2.688,2.743
		c3.276,0.002,6.552,0.01,9.828,0.01c3.112,0,6.226-0.007,9.337-0.032c0.015,0,0.03,0,0.045,0c1.22,0,1.648,0.438,1.597,1.699
		c-0.06,1.445,0.011,2.897,0.088,4.344c0.033,0.637,0.059,1.382,0.777,1.668C45.802,63.974,45.944,64,46.078,64
		c0.554,0,0.97-0.454,1.344-0.838c5.172-5.311,10.332-10.634,15.475-15.976c0.865-0.899,1.328-1.986,0.995-3.317
		c-0.273-1.096-0.972-1.884-1.71-2.646c-4.675-4.833-9.353-9.661-14.033-14.487c-0.319-0.329-0.651-0.654-1.013-0.932
		C46.647,25.431,46.245,25.243,45.919,25.243L45.919,25.243z"/>
</g>
<path fill-rule="evenodd" clip-rule="evenodd" d="M40.964,16.685c-0.027,0.207-0.05,0.414-0.085,0.62
	c-0.186,1.092-0.687,2.02-1.468,2.801c-2.444,2.441-4.887,4.884-7.331,7.327c-0.023,0.023-0.05,0.043-0.099,0.088
	c-0.207-0.214-0.405-0.429-0.612-0.635c-2.27-2.271-4.541-4.542-6.812-6.812c-0.79-0.79-1.269-1.742-1.453-2.841
	c-0.031-0.182-0.046-0.365-0.069-0.547c0-0.176,0-0.351,0-0.527c0.01-0.042,0.025-0.085,0.028-0.127
	c0.041-0.777,0.26-1.506,0.651-2.174c0.813-1.386,2.009-2.238,3.595-2.531c0.214-0.039,0.432-0.06,0.647-0.089
	c0.156,0,0.313,0,0.469,0c0.121,0.012,0.241,0.022,0.362,0.037c0.996,0.12,1.893,0.479,2.673,1.115
	c0.188,0.152,0.363,0.321,0.546,0.485c0.026-0.023,0.047-0.042,0.068-0.063c0.783-0.794,1.719-1.3,2.821-1.486
	c0.225-0.038,0.452-0.059,0.678-0.088c0.146,0,0.293,0,0.439,0c0.047,0.009,0.094,0.021,0.143,0.027
	c0.278,0.041,0.562,0.062,0.835,0.124c1.989,0.451,3.539,2.094,3.884,4.107c0.037,0.21,0.061,0.422,0.09,0.633
	C40.964,16.314,40.964,16.5,40.964,16.685z M32.016,26.533c0.064-0.081,0.107-0.146,0.162-0.201c0.744-0.747,1.49-1.492,2.236-2.236
	c1.515-1.515,3.041-3.019,4.543-4.548c1.106-1.129,1.494-2.5,1.19-4.047c-0.47-2.385-2.836-3.996-5.366-3.43
	c-0.924,0.207-1.689,0.687-2.333,1.371c-0.143,0.151-0.291,0.298-0.451,0.463c-0.241-0.247-0.457-0.487-0.692-0.705
	c-1.168-1.086-2.549-1.471-4.095-1.124c-2.257,0.507-3.695,2.596-3.419,4.888c0.119,0.988,0.521,1.846,1.219,2.549
	c1.932,1.946,3.876,3.88,5.815,5.82C31.21,25.718,31.593,26.107,32.016,26.533z"/>
<path fill-rule="evenodd" clip-rule="evenodd" d="M40.964,42.738c-0.027,0.207-0.05,0.414-0.085,0.62
	c-0.186,1.092-0.687,2.021-1.468,2.802c-2.444,2.44-4.887,4.883-7.331,7.326c-0.023,0.023-0.05,0.043-0.1,0.088
	c-0.206-0.215-0.404-0.429-0.611-0.635c-2.27-2.271-4.541-4.541-6.812-6.813c-0.79-0.789-1.269-1.741-1.453-2.841
	c-0.031-0.182-0.046-0.364-0.069-0.548c0-0.176,0-0.351,0-0.527c0.01-0.041,0.025-0.084,0.028-0.127
	c0.041-0.777,0.26-1.506,0.651-2.174c0.813-1.387,2.009-2.238,3.595-2.531c0.214-0.039,0.432-0.06,0.647-0.089
	c0.156,0,0.313,0,0.469,0c0.121,0.012,0.241,0.022,0.361,0.036c0.996,0.12,1.893,0.479,2.674,1.115
	c0.188,0.152,0.362,0.321,0.545,0.485c0.026-0.023,0.048-0.042,0.068-0.063c0.783-0.794,1.719-1.299,2.821-1.485
	c0.225-0.038,0.452-0.06,0.678-0.088c0.146,0,0.293,0,0.439,0c0.047,0.009,0.094,0.021,0.143,0.027
	c0.278,0.041,0.562,0.062,0.835,0.124c1.989,0.451,3.539,2.094,3.884,4.107c0.037,0.211,0.061,0.422,0.09,0.633
	C40.964,42.367,40.964,42.553,40.964,42.738z"/>
</svg>
