<?xml version="1.0" encoding="utf-8"?>
<!-- Generator: Adobe Illustrator 16.0.0, SVG Export Plug-In . SVG Version: 6.00 Build 0)  -->
<!DOCTYPE svg PUBLIC "-//W3C//DTD SVG 1.1//EN" "http://www.w3.org/Graphics/SVG/1.1/DTD/svg11.dtd">
<svg version="1.1" id="Capa_1" xmlns="http://www.w3.org/2000/svg" xmlns:xlink="http://www.w3.org/1999/xlink" x="0px" y="0px"
	 width="64px" height="64px" viewBox="0 0 64 64" enable-background="new 0 0 64 64" xml:space="preserve">
<path fill="#231F20" d="M19.51,10.371c-10.93,0.021-19.491,8.572-19.511,19.5c0.033,16.582,17.734,33.01,18.5,33.734
	c0.281,0.264,0.649,0.396,1.011,0.395h0.012c0.353,0,0.708-0.131,0.99-0.381C21.279,62.897,38.99,46.74,39.02,29.871
	C38.998,18.944,30.439,10.393,19.51,10.371z M19.517,60.434c-3.745-3.74-16.555-17.616-16.526-30.561
	C3,20.442,10.075,13.369,19.51,13.364c9.436,0.004,16.512,7.078,16.521,16.509C36.059,43.041,23.27,56.74,19.517,60.434z
	 M19.51,22.036c-4.323,0.002-7.841,3.514-7.841,7.837c0,4.319,3.518,7.834,7.841,7.834c4.322,0,7.839-3.516,7.839-7.834h0.002
	C27.349,25.552,23.832,22.038,19.51,22.036z M19.51,35.48c-3.091-0.007-5.601-2.517-5.608-5.607c0.007-3.09,2.517-5.601,5.608-5.604
	c3.091,0.004,5.604,2.515,5.606,5.604C25.114,32.964,22.6,35.474,19.51,35.48z M58.266,19.357c0.057-0.1,0.1-0.21,0.119-0.328
	c0.145-0.881,0.211-1.754,0.211-2.617c0-5.41-2.693-10.565-7.27-13.633C48.598,0.949,45.447-0.003,42.229,0
	c-1.064-0.002-2.141,0.104-3.207,0.316c-4.164,0.82-7.783,3.172-10.22,6.628l-0.653-3.309C28.045,3.137,27.616,2.79,27.12,2.79
	c-0.057,0-0.137,0-0.25,0.028c-0.451,0.088-0.796,0.526-0.796,1.018c0,0.058,0.004,0.139,0.027,0.234l1.104,5.585
	c0,0.009-0.003,0.026-0.003,0.043c0,0.012-0.004,0.091,0.024,0.184c0.044,0.234,0.198,0.475,0.43,0.629l0.02,0.012
	c0.166,0.118,0.374,0.188,0.592,0.188c0.075,0,0.133-0.01,0.177-0.017l5.858-1.153c0.5-0.099,0.846-0.54,0.846-1.029
	c0-0.069-0.01-0.131-0.016-0.186l-0.547,0.095l0.543-0.11c-0.1-0.494-0.533-0.843-1.027-0.843c-0.057,0-0.137,0.003-0.25,0.034
	l-3.344,0.66c2.131-3.023,5.282-5.073,8.918-5.795c0.934-0.181,1.869-0.273,2.803-0.273c2.805,0,5.545,0.827,7.934,2.429
	c3.99,2.67,6.338,7.17,6.338,11.89c0,0.688-0.059,1.377-0.156,2.079c-1.197-0.416-2.486-0.651-3.84-0.655
	c-6.426,0.013-11.482,5.063-11.494,11.49c0.018,1.89,0.416,3.76,1.039,5.547c0.25,0.718,0.543,1.414,0.859,2.101
	c2.949,6.406,8.34,11.369,8.672,11.706l0.5-0.542l-0.5,0.545c0.262,0.233,0.59,0.354,0.922,0.354c0.32,0,0.66-0.112,0.924-0.354
	c0.154-0.157,1.482-1.377,3.146-3.29c0.551-0.638,1.131-1.352,1.729-2.134c2.76-3.619,5.666-8.656,5.701-13.933
	C63.994,25.009,61.705,21.323,58.266,19.357z M57.336,39.856c-0.557,0.821-1.125,1.603-1.684,2.312
	c-1.217,1.556-2.373,2.808-3.139,3.584c-1.672-1.709-5.17-5.68-7.205-10.119c-0.318-0.696-0.594-1.405-0.826-2.116
	c-0.461-1.399-0.744-2.812-0.73-4.192c0.016-5.022,3.727-8.732,8.75-8.751c5.029,0.02,8.738,3.729,8.76,8.751
	C61.287,32.955,59.432,36.744,57.336,39.856z M52.504,24.796c-2.496,0-4.529,2.027-4.531,4.524c0,0.743,0.195,1.43,0.514,2.045
	c0.244,0.481,0.566,0.916,0.961,1.278c0.809,0.742,1.877,1.208,3.057,1.208c0.313,0,0.613-0.031,0.902-0.094
	c0.541-0.109,1.031-0.319,1.479-0.604c1.287-0.799,2.15-2.211,2.152-3.837h-0.002C57.035,26.823,55.006,24.796,52.504,24.796z
	 M54.322,31.177c-0.391,0.376-0.887,0.628-1.449,0.709c-0.119,0.019-0.242,0.037-0.367,0.037c-0.436,0-0.844-0.118-1.205-0.308
	c-0.496-0.266-0.896-0.674-1.139-1.185c-0.166-0.337-0.258-0.71-0.262-1.108c0.004-1.43,1.17-2.599,2.604-2.602
	c1.438,0.003,2.602,1.172,2.604,2.602C55.105,30.049,54.805,30.703,54.322,31.177z"/>
</svg>
