<?xml version="1.0" encoding="utf-8"?>
<!-- Generator: Adobe Illustrator 16.0.0, SVG Export Plug-In . SVG Version: 6.00 Build 0)  -->
<!DOCTYPE svg PUBLIC "-//W3C//DTD SVG 1.1//EN" "http://www.w3.org/Graphics/SVG/1.1/DTD/svg11.dtd">
<svg version="1.1" xmlns="http://www.w3.org/2000/svg" xmlns:xlink="http://www.w3.org/1999/xlink" x="0px" y="0px" width="64px"
	 height="64px" viewBox="0 0 64 64" enable-background="new 0 0 64 64" xml:space="preserve">
<g>
	<g>
		<path fill="#231F20" d="M25.186,13.94c0.686,0,1.278,0.253,1.867,0.801c0.14,0.13,0.271,0.27,0.408,0.413l0.261,0.271l1.434,1.466
			l1.43-1.471l0.171-0.175c0.113-0.115,0.222-0.226,0.334-0.345c0.45-0.479,0.918-0.759,1.471-0.883
			c0.218-0.048,0.437-0.073,0.651-0.073c1.308,0,2.436,0.913,2.684,2.174c0.202,1.027-0.025,1.81-0.737,2.537
			c-1.124,1.146-2.262,2.278-3.399,3.41l-1.44,1.435c-0.389,0.388-0.778,0.777-1.166,1.165l-1.782-1.78
			c-1.425-1.423-2.85-2.846-4.268-4.273c-0.421-0.425-0.662-0.933-0.737-1.555c-0.174-1.444,0.712-2.72,2.106-3.033
			C24.722,13.968,24.961,13.94,25.186,13.94 M25.186,11.94c-0.373,0-0.756,0.044-1.149,0.132c-2.412,0.542-3.948,2.774-3.653,5.223
			c0.127,1.056,0.557,1.973,1.302,2.725c2.064,2.079,4.142,4.145,6.214,6.218c0.411,0.411,0.82,0.828,1.272,1.283
			c0.069-0.086,0.115-0.157,0.173-0.215c0.794-0.798,1.592-1.595,2.389-2.39c1.62-1.619,3.25-3.226,4.854-4.86
			c1.182-1.207,1.598-2.671,1.271-4.325c-0.432-2.202-2.38-3.787-4.646-3.787c-0.356,0-0.72,0.039-1.087,0.121
			c-0.987,0.221-1.805,0.734-2.492,1.465c-0.153,0.162-0.311,0.319-0.482,0.496c-0.258-0.264-0.488-0.521-0.74-0.753
			C27.461,12.39,26.378,11.94,25.186,11.94L25.186,11.94z"/>
	</g>
	<g>
		<path fill="#202020" d="M29.198,40.757c0.066,0,0.131,0.003,0.196,0.008l-0.014,0.028l-0.596,1.194l0.875,1.009l0.923,1.065
			l-0.278,0.453l-0.575,0.938l-0.692,1.128c-0.454-0.48-0.909-0.961-1.363-1.441c-0.428-0.453-0.662-0.785-0.779-1.111
			c-0.249-0.688-0.185-1.44,0.175-2.065c0.357-0.619,0.943-1.031,1.65-1.16C28.884,40.772,29.045,40.757,29.198,40.757
			 M29.198,38.757c-0.273,0-0.551,0.025-0.835,0.077c-2.702,0.49-4.284,3.287-3.349,5.873c0.254,0.704,0.701,1.271,1.207,1.806
			c2.032,2.146,4.058,4.298,6.087,6.446c0.031,0.033,0.067,0.061,0.139,0.123c-0.159-0.577-0.301-1.104-0.454-1.628
			c-0.047-0.162-0.035-0.293,0.055-0.439c0.268-0.438,0.521-0.888,0.778-1.333c0.248-0.426,0.496-0.853,0.746-1.284
			c-0.719-0.639-1.424-1.267-2.137-1.9c0.543-0.886,1.08-1.762,1.618-2.64c-0.63-0.727-1.254-1.445-1.883-2.171
			c0.301-0.603,0.601-1.2,0.896-1.791c-0.013-0.023-0.017-0.037-0.026-0.045c-0.038-0.036-0.076-0.071-0.117-0.104
			C31.099,39.093,30.186,38.757,29.198,38.757L29.198,38.757z"/>
	</g>
	<g>
		<path fill="#202020" d="M36.233,40.826L36.233,40.826c0.971,0,2.137,0.613,2.403,1.962c0.162,0.814-0.036,1.467-0.646,2.115
			c-0.686,0.732-1.374,1.464-2.063,2.194l-0.057-0.06l-0.855-0.891l0.802-1.162l0.816-1.233l-0.904-1.157l-0.922-1.181
			c0.038-0.066,0.076-0.134,0.114-0.2C35.32,40.96,35.769,40.826,36.233,40.826 M36.233,38.826c-0.937,0-1.893,0.297-2.726,0.94
			c-0.051,0.039-0.105,0.081-0.137,0.135c-0.323,0.558-0.643,1.117-0.968,1.685c0.599,0.766,1.184,1.515,1.769,2.264
			c-0.59,0.854-1.17,1.694-1.73,2.505c0.674,0.702,1.327,1.383,1.988,2.07c-0.034,0.055-0.079,0.126-0.126,0.196
			c-0.515,0.785-1.03,1.569-1.542,2.355c-0.04,0.062-0.088,0.146-0.075,0.209c0.126,0.603,0.263,1.203,0.401,1.827
			c0.043-0.04,0.071-0.063,0.096-0.09c0.523-0.555,1.047-1.111,1.57-1.667c1.566-1.661,3.137-3.319,4.697-4.985
			c1.028-1.096,1.44-2.4,1.147-3.873C40.16,40.186,38.24,38.826,36.233,38.826L36.233,38.826z"/>
	</g>
	<g>
		<path fill="#231F20" d="M17.055,3.501l0.112,5.342l0.021,0.979h0.979h22.671v19.133H18.167h-1v1v5.185L2.374,19.372L17.055,3.501
			 M18.003,1.004L1.007,19.377l17.16,18.29v-7.712h23.671V8.822H18.167L18.003,1.004L18.003,1.004z"/>
	</g>
	<g>
		<path fill="#231F20" d="M46.899,29.864l14.794,15.768L47.012,61.503l-0.112-5.342l-0.021-0.979h-0.979h-22.67V36.049h22.67h1v-1
			V29.864 M45.899,27.337v7.712h-23.67v21.133h23.67L46.063,64L63.06,45.627L45.899,27.337L45.899,27.337z"/>
	</g>
</g>
</svg>
