<?xml version="1.0" encoding="utf-8"?>
<!-- Generator: Adobe Illustrator 16.0.0, SVG Export Plug-In . SVG Version: 6.00 Build 0)  -->
<!DOCTYPE svg PUBLIC "-//W3C//DTD SVG 1.1//EN" "http://www.w3.org/Graphics/SVG/1.1/DTD/svg11.dtd">
<svg version="1.1" id="Capa_1" xmlns="http://www.w3.org/2000/svg" xmlns:xlink="http://www.w3.org/1999/xlink" x="0px" y="0px"
	 width="64px" height="64px" viewBox="0 0 64 64" enable-background="new 0 0 64 64" xml:space="preserve">
<g>
	<path fill="#231F20" d="M58.667,39.999c-1.37,0.001-2.751-0.541-3.786-1.608l0,0l-22.88-23.517L9.116,38.391
		C8.08,39.452,6.701,40,5.333,39.999l0,0C3.96,40,2.581,39.458,1.546,38.391l0,0C0.513,37.328-0.003,35.936,0,34.555l0,0
		c-0.003-1.377,0.513-2.771,1.546-3.834l0,0l29.5-30.316C31.295,0.142,31.638,0,32.001,0l0,0c0.359,0,0.701,0.142,0.953,0.404l0,0
		l29.497,30.314c1.034,1.062,1.552,2.453,1.549,3.834l0,0c0.003,1.377-0.515,2.773-1.549,3.836l0,0
		c-1.031,1.061-2.403,1.609-3.772,1.609l0,0C58.674,39.999,58.67,39.999,58.667,39.999L58.667,39.999z M32.954,12.033l23.841,24.498
		c0.529,0.539,1.194,0.798,1.873,0.801l0,0c0.675-0.003,1.347-0.262,1.871-0.801l0,0c0.53-0.542,0.796-1.254,0.796-1.977l0,0
		c0-0.727-0.27-1.439-0.793-1.979l0,0L32.001,3.245L3.459,32.577c-0.527,0.539-0.793,1.252-0.795,1.978l0,0
		c0.002,0.726,0.269,1.437,0.795,1.978l0,0c0.529,0.543,1.197,0.798,1.874,0.801l0,0c0.675-0.003,1.345-0.262,1.873-0.801l0,0
		l23.839-24.498c0.25-0.259,0.593-0.404,0.956-0.404l0,0C32.36,11.629,32.702,11.774,32.954,12.033L32.954,12.033z"/>
	<path fill="#231F20" d="M14.575,64H9.333c-0.357,0-0.693-0.137-0.943-0.391l0,0c-0.252-0.249-0.394-0.586-0.394-0.942l0,0L8,36.257
		c0-0.737,0.593-1.332,1.333-1.332l0,0c0.734,0,1.333,0.595,1.333,1.332l0,0l-0.003,25.074h3.912h38.758V36.5
		c0-0.738,0.598-1.334,1.334-1.334l0,0c0.736,0,1.334,0.596,1.334,1.334l0,0v26.166c0,0.352-0.143,0.696-0.391,0.943l0,0
		c-0.247,0.248-0.59,0.39-0.943,0.39l0,0L14.575,64L14.575,64z"/>
	<path fill="#231F20" d="M14.454,62.348V29.736c0-0.737,0.596-1.332,1.333-1.332l0,0c0.737,0,1.333,0.595,1.333,1.332l0,0v32.609
		c0,0.734-0.596,1.332-1.333,1.332l0,0C15.05,63.68,14.454,63.081,14.454,62.348L14.454,62.348z"/>
	<path fill="#231F20" d="M28.675,16.654"/>
	<path fill="#231F20" d="M28.675,23.303"/>
	<path fill="#231F20" d="M30.563,22.238v-8.231c0-0.738,0.595-1.333,1.334-1.333l0,0c0.733,0,1.332,0.595,1.332,1.333l0,0v8.231
		c0,0.737-0.599,1.334-1.332,1.334l0,0C31.159,23.572,30.563,22.975,30.563,22.238L30.563,22.238z"/>
	<path fill="#231F20" d="M30.563,62.172V31.994c0-0.737,0.598-1.332,1.332-1.332l0,0c0.735,0,1.334,0.595,1.334,1.332l0,0v30.178
		c0,0.734-0.599,1.334-1.334,1.334l0,0C31.161,63.506,30.563,62.906,30.563,62.172L30.563,62.172z"/>
	<path fill="#231F20" d="M35.119,30.704"/>
	<path fill="#231F20" d="M35.119,46.366"/>
	<path fill="#231F20" d="M46.672,62.133V29.736c0-0.737,0.599-1.334,1.334-1.334l0,0c0.737,0,1.333,0.598,1.333,1.334l0,0v32.396
		c0,0.735-0.596,1.331-1.333,1.331l0,0C47.271,63.464,46.672,62.868,46.672,62.133L46.672,62.133z"/>
	<path fill="#231F20" d="M26.16,27.057c0.002-3.223,2.614-5.839,5.838-5.839l0,0c3.228,0,5.84,2.617,5.84,5.839l0,0
		c0,3.224-2.612,5.835-5.84,5.837l0,0C28.774,32.893,26.162,30.28,26.16,27.057L26.16,27.057z M28.826,27.057
		c0.003,1.751,1.422,3.167,3.172,3.171l0,0c1.752-0.004,3.169-1.42,3.173-3.171l0,0c-0.004-1.751-1.422-3.169-3.173-3.172l0,0
		C30.248,23.887,28.83,25.306,28.826,27.057L28.826,27.057z"/>
	<path fill="#231F20" d="M15.888,42.389c-0.733,0-1.333-0.601-1.333-1.336l0,0c0-0.736,0.599-1.332,1.333-1.332l0,0h31.669
		c0.737,0,1.334,0.596,1.334,1.332l0,0c0,0.735-0.597,1.336-1.334,1.336l0,0H15.888L15.888,42.389z"/>
	<path fill="#231F20" d="M31.999,42.844"/>
	<path fill="#231F20" d="M31.999,62.714"/>
</g>
</svg>
