<?xml version="1.0" encoding="utf-8"?>
<!-- Generator: Adobe Illustrator 16.0.0, SVG Export Plug-In . SVG Version: 6.00 Build 0)  -->
<!DOCTYPE svg PUBLIC "-//W3C//DTD SVG 1.1//EN" "http://www.w3.org/Graphics/SVG/1.1/DTD/svg11.dtd">
<svg version="1.1" xmlns="http://www.w3.org/2000/svg" xmlns:xlink="http://www.w3.org/1999/xlink" x="0px" y="0px" width="64px"
	 height="64px" viewBox="0 0 64 64" enable-background="new 0 0 64 64" xml:space="preserve">
<g>
	<g>
		<path fill="#231F20" d="M25.186,13.94c0.686,0,1.278,0.253,1.867,0.801c0.14,0.13,0.271,0.27,0.408,0.413l0.261,0.271l1.434,1.466
			l1.43-1.471l0.171-0.175c0.113-0.115,0.222-0.226,0.334-0.345c0.45-0.479,0.918-0.759,1.472-0.883
			c0.217-0.048,0.437-0.073,0.65-0.073c1.309,0,2.436,0.913,2.684,2.174c0.203,1.027-0.024,1.81-0.736,2.537
			c-1.124,1.146-2.262,2.278-3.399,3.41l-1.44,1.435c-0.389,0.388-0.778,0.777-1.166,1.165l-1.782-1.78
			c-1.425-1.423-2.85-2.846-4.268-4.273c-0.421-0.425-0.662-0.933-0.737-1.555c-0.174-1.444,0.712-2.72,2.106-3.033
			C24.722,13.968,24.961,13.94,25.186,13.94 M25.186,11.94c-0.373,0-0.756,0.044-1.149,0.132c-2.412,0.542-3.948,2.774-3.653,5.223
			c0.127,1.056,0.557,1.973,1.302,2.725c2.064,2.079,4.142,4.145,6.214,6.218c0.411,0.411,0.82,0.828,1.272,1.283
			c0.069-0.086,0.115-0.157,0.173-0.215c0.794-0.798,1.592-1.595,2.389-2.39c1.62-1.619,3.25-3.226,4.854-4.86
			c1.182-1.207,1.598-2.671,1.271-4.325c-0.433-2.202-2.381-3.787-4.646-3.787c-0.355,0-0.72,0.039-1.087,0.121
			c-0.987,0.221-1.805,0.734-2.492,1.465c-0.153,0.162-0.311,0.319-0.482,0.496c-0.258-0.264-0.488-0.521-0.74-0.753
			C27.461,12.39,26.378,11.94,25.186,11.94L25.186,11.94z"/>
	</g>
	<path fill="#202020" d="M32.826,49.682c0.248-0.426,0.496-0.853,0.746-1.283c-0.719-0.64-1.424-1.268-2.137-1.9
		c0.543-0.887,1.081-1.762,1.618-2.641c-0.63-0.727-1.254-1.444-1.883-2.17c0.301-0.604,0.601-1.201,0.896-1.791
		c-0.013-0.023-0.017-0.037-0.026-0.045c-0.038-0.037-0.076-0.072-0.117-0.104c-0.824-0.654-1.737-0.99-2.725-0.99
		c-0.273,0-0.551,0.025-0.835,0.077c-2.702,0.49-4.284,3.287-3.349,5.873c0.254,0.704,0.701,1.271,1.207,1.807
		c2.032,2.146,4.058,4.297,6.087,6.445c0.031,0.033,0.067,0.061,0.139,0.123c-0.159-0.577-0.301-1.104-0.454-1.628
		c-0.047-0.162-0.035-0.293,0.055-0.438C32.316,50.577,32.568,50.127,32.826,49.682z M30.304,44.514l-0.575,0.938l-0.692,1.128
		c-0.454-0.48-0.909-0.961-1.363-1.441c-0.428-0.453-0.662-0.785-0.779-1.111c-0.249-0.688-0.185-1.439,0.175-2.064
		c0.357-0.619,0.943-1.031,1.65-1.16c0.164-0.031,0.325-0.046,0.478-0.046c0.066,0,0.131,0.003,0.196,0.009l-0.014,0.027
		l-0.596,1.193l0.875,1.01l0.923,1.064L30.304,44.514z"/>
	<path fill="#202020" d="M40.598,42.396c-0.438-2.211-2.357-3.57-4.365-3.57c-0.937,0-1.893,0.297-2.726,0.939
		c-0.051,0.039-0.104,0.082-0.137,0.135c-0.323,0.559-0.644,1.117-0.968,1.686c0.599,0.766,1.184,1.516,1.769,2.264
		c-0.59,0.854-1.17,1.694-1.73,2.506c0.674,0.701,1.327,1.383,1.989,2.069c-0.035,0.056-0.08,0.126-0.127,0.196
		c-0.515,0.785-1.029,1.568-1.541,2.355c-0.041,0.062-0.089,0.146-0.076,0.209c0.127,0.603,0.264,1.203,0.401,1.826
		c0.043-0.039,0.071-0.063,0.097-0.09c0.522-0.555,1.047-1.111,1.569-1.667c1.565-1.661,3.138-3.319,4.697-4.985
		C40.479,45.174,40.891,43.87,40.598,42.396z M37.99,44.902c-0.686,0.732-1.374,1.465-2.063,2.195l-0.057-0.061l-0.854-0.891
		l0.801-1.162l0.816-1.233l-0.904-1.157l-0.922-1.181c0.039-0.065,0.076-0.134,0.114-0.2c0.399-0.253,0.849-0.387,1.312-0.387
		c0.972,0,2.138,0.613,2.404,1.962C38.798,43.602,38.6,44.255,37.99,44.902z"/>
	<g>
		<path fill="#231F20" d="M17.055,3.501l0.112,5.342l0.021,0.979h0.979h22.671v19.133H18.167h-1v1v5.186L2.374,19.372L17.055,3.501
			 M18.003,1.004L1.007,19.377l17.16,18.29v-7.712h23.671V8.822H18.167L18.003,1.004L18.003,1.004z"/>
	</g>
	<path fill="#231F20" d="M45.898,27.337v7.712H22.229v21.133h23.669L46.063,64l16.998-18.373L45.898,27.337z M46.9,56.161
		l-0.021-0.979H45.9H23.23V36.049H45.9h1v-1v-5.183l-0.002-0.002H46.9v0.002l14.793,15.766L47.012,61.503L46.9,56.161z"/>
</g>
</svg>
