<?xml version="1.0" encoding="utf-8"?>
<!-- Generator: Adobe Illustrator 16.0.0, SVG Export Plug-In . SVG Version: 6.00 Build 0)  -->
<!DOCTYPE svg PUBLIC "-//W3C//DTD SVG 1.1//EN" "http://www.w3.org/Graphics/SVG/1.1/DTD/svg11.dtd">
<svg version="1.1" xmlns="http://www.w3.org/2000/svg" xmlns:xlink="http://www.w3.org/1999/xlink" x="0px" y="0px" width="64px"
	 height="64px" viewBox="0 0 64 64" enable-background="new 0 0 64 64" xml:space="preserve">
<g>
	<g>
		<path fill="#231F20" d="M52.74,3.781l7.48,7.479L10.205,61.277l-7.48-7.48L52.74,3.781 M52.738,1.059
			c-0.663,0-1.288,0.232-1.758,0.703L0.704,52.036C0.236,52.505,0,53.131,0,53.796s0.236,1.291,0.704,1.76l7.74,7.741
			C8.913,63.764,9.539,64,10.204,64s1.29-0.236,1.761-0.703L62.239,13.02c0.47-0.47,0.704-1.096,0.704-1.762
			c0-0.662-0.234-1.287-0.704-1.758l-7.74-7.74C54.029,1.29,53.405,1.059,52.738,1.059L52.738,1.059z"/>
	</g>
	<g>
		<polygon fill="#231F20" points="13.958,5.005 10.126,6.178 8.954,10.007 7.78,6.178 3.95,5.005 7.78,3.832 8.954,0 10.126,3.832 
					"/>
	</g>
	<g>
		<polygon fill="#231F20" points="31.472,12.512 23.809,14.855 21.463,22.52 19.117,14.855 11.455,12.512 19.117,10.166 
			21.463,2.504 23.809,10.166 		"/>
	</g>
	<g>
		<polygon fill="#231F20" points="38.979,5.005 35.148,6.178 33.975,10.007 32.803,6.178 28.971,5.005 32.803,3.832 33.975,0 
			35.148,3.832 		"/>
	</g>
	<g>
		
			<rect x="46.143" y="6.791" transform="matrix(0.7074 0.7068 -0.7068 0.7074 24.891 -30.3468)" fill="#231F20" width="5.918" height="16.203"/>
	</g>
	<g>
		<polygon fill="#231F20" points="64,30.025 60.168,31.198 58.996,35.029 57.823,31.198 53.991,30.025 57.823,28.854 58.996,25.021 
			60.168,28.854 		"/>
	</g>
</g>
</svg>
