<?xml version="1.0" encoding="utf-8"?>
<!-- Generator: Adobe Illustrator 16.0.0, SVG Export Plug-In . SVG Version: 6.00 Build 0)  -->
<!DOCTYPE svg PUBLIC "-//W3C//DTD SVG 1.1//EN" "http://www.w3.org/Graphics/SVG/1.1/DTD/svg11.dtd">
<svg version="1.1" xmlns="http://www.w3.org/2000/svg" xmlns:xlink="http://www.w3.org/1999/xlink" x="0px" y="0px" width="64px"
	 height="64px" viewBox="0 0 64 64" enable-background="new 0 0 64 64" xml:space="preserve">
<g>
	<path fill="#231F20" d="M31.86,43.426c-2.361,0-4.382-1.439-5.154-3.668l-0.109-0.318c-0.492-1.414-2.199-2.164-3.585-1.521
		l-0.304,0.142c-2.496,1.157-5.505,0.219-6.936-2.072c-1.01-1.609-1.105-3.524-0.26-5.25l0.147-0.31
		c0.328-0.672,0.352-1.429,0.07-2.122c-0.28-0.697-0.825-1.224-1.529-1.479l-0.315-0.116c-2.197-0.803-3.603-2.83-3.583-5.165
		c0.02-2.338,1.462-4.339,3.669-5.107l0.321-0.107c0.708-0.246,1.262-0.76,1.555-1.452c0.293-0.688,0.279-1.448-0.035-2.131
		l-0.143-0.302c-0.801-1.729-0.682-3.624,0.329-5.209c1.46-2.288,4.516-3.2,6.998-1.992l0.301,0.146
		c1.367,0.661,3.097-0.056,3.613-1.46l0.113-0.313c0.793-2.175,2.803-3.581,5.117-3.581c2.359,0,4.381,1.44,5.15,3.671l0.112,0.319
		c0.486,1.414,2.197,2.165,3.58,1.521l0.308-0.145c2.492-1.159,5.502-0.212,6.935,2.072c1.008,1.61,1.104,3.523,0.264,5.252
		l-0.146,0.309c-0.328,0.675-0.355,1.431-0.072,2.126c0.281,0.698,0.828,1.222,1.529,1.479l0.314,0.115
		c2.199,0.801,3.604,2.831,3.586,5.165c-0.021,2.335-1.463,4.339-3.672,5.104l-0.313,0.11c-0.718,0.244-1.27,0.764-1.563,1.452
		c-0.293,0.691-0.28,1.448,0.037,2.127l0.144,0.313c0.8,1.723,0.681,3.619-0.33,5.201c-1.459,2.287-4.517,3.196-6.997,1.994
		l-0.304-0.146c-1.367-0.666-3.097,0.055-3.606,1.457l-0.119,0.318C36.182,42.02,34.173,43.426,31.86,43.426 M24.113,34.844
		c2.326,0,4.396,1.473,5.157,3.668l0.11,0.318c0.449,1.301,1.575,1.764,2.477,1.764c0.883,0,1.993-0.451,2.459-1.719l0.119-0.318
		c0.779-2.143,2.84-3.58,5.119-3.58c0.828,0,1.631,0.188,2.381,0.551l0.305,0.146c1.236,0.598,2.66,0.146,3.376-0.975
		c0.28-0.438,0.678-1.352,0.147-2.485l-0.146-0.312c-0.647-1.396-0.677-3.007-0.076-4.425c0.604-1.419,1.785-2.52,3.237-3.021
		l0.314-0.111c1.293-0.444,1.762-1.563,1.771-2.455c0.003-0.895-0.443-2.015-1.723-2.481l-0.315-0.118
		c-1.449-0.526-2.61-1.646-3.185-3.072c-0.576-1.431-0.522-3.042,0.149-4.428l0.146-0.308c0.556-1.138,0.166-2.063-0.115-2.511
		c-0.7-1.12-2.109-1.588-3.344-1.01l-0.307,0.144c-0.729,0.339-1.502,0.508-2.296,0.508c-2.323,0-4.396-1.475-5.153-3.67
		l-0.111-0.321c-0.448-1.298-1.571-1.762-2.478-1.762c-0.887,0-1.995,0.453-2.459,1.718L29.561,4.9
		c-0.786,2.141-2.842,3.581-5.126,3.581c-0.827,0-1.625-0.188-2.378-0.551l-0.303-0.147c-1.234-0.595-2.662-0.145-3.374,0.97
		c-0.284,0.443-0.678,1.354-0.146,2.493l0.141,0.305c0.647,1.396,0.677,3.013,0.075,4.429c-0.604,1.416-1.78,2.515-3.237,3.021
		l-0.321,0.11c-1.289,0.443-1.756,1.559-1.765,2.453c-0.006,0.896,0.441,2.02,1.722,2.483l0.317,0.116
		c1.447,0.529,2.609,1.65,3.183,3.078c0.579,1.428,0.521,3.036-0.153,4.426l-0.148,0.305c-0.552,1.135-0.163,2.062,0.117,2.51
		c0.702,1.121,2.112,1.586,3.346,1.011l0.306-0.144C22.546,35.014,23.32,34.844,24.113,34.844"/>
	<path fill="#231F20" d="M22.604,63.965c-0.153,0-0.309-0.027-0.458-0.092c-0.451-0.186-0.744-0.625-0.744-1.111V37.537
		c0-0.666,0.538-1.203,1.201-1.203c0.666,0,1.204,0.537,1.204,1.203v22.32l6.542-6.543c0.455-0.457,1.185-0.472,1.66-0.037
		l7.441,6.764V42.354c0-0.666,0.538-1.205,1.204-1.205c0.664,0,1.205,0.539,1.205,1.205v20.408c0,0.478-0.281,0.908-0.715,1.1
		c-0.441,0.189-0.944,0.109-1.302-0.209l-8.604-7.823l-7.782,7.787C23.226,63.842,22.917,63.965,22.604,63.965"/>
</g>
</svg>
