<?xml version="1.0" encoding="utf-8"?>
<!-- Generator: Adobe Illustrator 16.0.0, SVG Export Plug-In . SVG Version: 6.00 Build 0)  -->
<!DOCTYPE svg PUBLIC "-//W3C//DTD SVG 1.1//EN" "http://www.w3.org/Graphics/SVG/1.1/DTD/svg11.dtd">
<svg version="1.1" id="Capa_1" xmlns="http://www.w3.org/2000/svg" xmlns:xlink="http://www.w3.org/1999/xlink" x="0px" y="0px"
	 width="64px" height="64px" viewBox="0 0 64 64" enable-background="new 0 0 64 64" xml:space="preserve">
<g>
	<path fill="#231F20" d="M37.09,43.108H17.545c-0.747,0-1.359,0.448-1.359,0.995s0.613,0.994,1.359,0.994H37.09
		c0.746,0,1.357-0.447,1.357-0.994S37.836,43.108,37.09,43.108z M37.09,53.057H17.545c-0.747,0-1.359,0.447-1.359,0.994
		c0,0.549,0.613,0.994,1.359,0.994H37.09c0.746,0,1.357-0.445,1.357-0.994C38.449,53.504,37.836,53.057,37.09,53.057z M37.09,33.158
		H17.545c-0.747,0-1.359,0.447-1.359,0.995s0.613,0.996,1.359,0.996H37.09c0.746,0,1.357-0.447,1.357-0.996
		C38.447,33.605,37.836,33.158,37.09,33.158z M42.375,10.784h-6.092v2.395h6.092V10.784z M56.992,10.784h-6.09v2.395h6.09V10.784z
		 M49.685,10.784h-6.091v2.395h6.091V10.784z M62.781,0H31.108c-0.671,0-1.219,0.539-1.219,1.199v3.104h-0.202
		c-0.746,0-1.357-0.602-1.357-1.336V1.66c0-0.735-0.612-1.335-1.36-1.335h-7.399c-0.748,0-1.358,0.6-1.358,1.335v1.308
		c0,0.734-0.612,1.336-1.358,1.336h-1.108c-0.747,0-1.506,0.584-1.688,1.297L13.58,7.488c-0.223-0.117-0.479-0.199-0.772-0.199H1.36
		C0.615,7.289,0,7.892,0,8.625v54.038C0,63.398,0.615,64,1.36,64h43.822c0.749,0,1.359-0.602,1.359-1.337V23.958h16.24
		c0.674,0,1.219-0.535,1.219-1.197V1.199C63.998,0.54,63.453,0,62.781,0z M14.776,10.97l0.859-3.377
		c0.181-0.713,0.938-1.3,1.688-1.3h1.552c0.749,0,1.358-0.602,1.358-1.335V3.65c0-0.733,0.615-1.335,1.36-1.335h3.354
		c0.746,0,1.358,0.602,1.358,1.335v1.308c0,0.733,0.611,1.335,1.358,1.335h1.552c0.233,0,0.459,0.071,0.674,0.171v5.799H15.804
		C15.059,12.263,14.595,11.681,14.776,10.97z M44.52,60.671c0,0.735-0.615,1.337-1.361,1.337H3.382
		c-0.748,0-1.359-0.602-1.359-1.337V10.613c0-0.731,0.611-1.335,1.359-1.335l9.425,0.002c0.116,0,0.22-0.029,0.329-0.049
		l-0.948,3.729c-0.183,0.711,0.281,1.297,1.026,1.297H29.89v8.953H17.547c-0.747,0-1.359,0.448-1.359,0.995
		c0,0.548,0.613,0.995,1.359,0.995H29.89v3.551c0,0.482,0.299,0.922,0.753,1.104c0.15,0.063,0.311,0.095,0.466,0.095
		c0.317,0,0.628-0.122,0.862-0.352l4.473-4.396h0.646c0.748,0,1.359-0.447,1.359-0.995c0-0.088-0.039-0.166-0.067-0.245h6.14v36.709
		H44.52z M61.562,21.563H37.197c-0.322,0-0.631,0.125-0.858,0.354l-1.318,1.294l-0.173,0.17l-1.678,1.648L32.996,25.2l-0.669,0.658
		V2.398h29.234L61.562,21.563L61.562,21.563z M13.387,21.662l-3.404,3.769l-1.777-1.399c-0.436-0.342-1.07-0.272-1.42,0.157
		c-0.346,0.427-0.279,1.051,0.159,1.395l2.526,1.986c0.186,0.146,0.407,0.216,0.631,0.216c0.278,0,0.556-0.112,0.755-0.331
		l4.039-4.472c0.37-0.41,0.334-1.039-0.084-1.401C14.395,21.214,13.756,21.251,13.387,21.662z M13.387,31.263l-3.404,3.765
		L8.206,33.63c-0.437-0.344-1.071-0.276-1.421,0.156c-0.346,0.428-0.279,1.052,0.159,1.396l2.526,1.984
		c0.186,0.146,0.407,0.217,0.631,0.217c0.278,0,0.556-0.11,0.755-0.332l4.039-4.469c0.37-0.41,0.334-1.039-0.083-1.402
		C14.395,30.813,13.756,30.851,13.387,31.263z M13.387,40.441l-3.404,3.764L8.206,42.81c-0.437-0.345-1.071-0.273-1.421,0.154
		c-0.346,0.43-0.279,1.057,0.159,1.396l2.526,1.989c0.186,0.145,0.407,0.216,0.631,0.216c0.278,0,0.556-0.111,0.755-0.332
		l4.039-4.471c0.37-0.41,0.334-1.039-0.083-1.404C14.395,39.994,13.756,40.031,13.387,40.441z"/>
	<path fill="#231F20" d="M14.896,51.004l-4.039,4.473c-0.199,0.221-0.478,0.333-0.755,0.333c-0.223,0-0.444-0.071-0.631-0.22
		l-2.526-1.986c-0.438-0.34-0.505-0.966-0.159-1.396c0.35-0.428,0.984-0.499,1.421-0.153l1.777,1.396l3.404-3.765
		c0.368-0.409,1.008-0.445,1.425-0.084C15.229,49.968,15.266,50.596,14.896,51.004z"/>
</g>
</svg>
