<?xml version="1.0" encoding="utf-8"?>
<!-- Generator: Adobe Illustrator 16.0.0, SVG Export Plug-In . SVG Version: 6.00 Build 0)  -->
<!DOCTYPE svg PUBLIC "-//W3C//DTD SVG 1.1//EN" "http://www.w3.org/Graphics/SVG/1.1/DTD/svg11.dtd">
<svg version="1.1" xmlns="http://www.w3.org/2000/svg" xmlns:xlink="http://www.w3.org/1999/xlink" x="0px" y="0px" width="64px"
	 height="64px" viewBox="0 0 64 64" enable-background="new 0 0 64 64" xml:space="preserve">
<g>
	<g>
		<g>
			<path fill="#231F20" d="M13.554,37.934c-0.002-1.455,0.521-2.684,1.374-3.518l0,0c0.852-0.837,2.016-1.283,3.272-1.283l0,0
				c1.252,0,2.418,0.446,3.27,1.283l0,0c0.854,0.834,1.378,2.063,1.374,3.518l0,0c-0.005,2.905-2.044,5.314-4.644,5.32l0,0
				C15.601,43.248,13.559,40.838,13.554,37.934L13.554,37.934z M14.538,37.934c0.002,2.395,1.673,4.271,3.663,4.276l0,0
				c1.988-0.005,3.658-1.883,3.661-4.276l0,0c-0.018-2.365-1.583-3.729-3.661-3.758l0,0C16.123,34.203,14.557,35.568,14.538,37.934
				L14.538,37.934z"/>
		</g>
		<g>
			<path fill="#231F20" d="M12.433,49.604c-1.042-0.381-1.553-1.359-1.523-2.338l0,0c0.042-2.412,2.189-5.414,3.247-6.852l0,0
				c0.171-0.227,0.482-0.262,0.692-0.075l0,0c0.209,0.187,0.241,0.521,0.07,0.749l0,0c-1.034,1.327-3.064,4.445-3.024,6.178l0,0
				c0.028,0.676,0.186,1.034,0.877,1.338l0,0c0.255,0.103,0.385,0.407,0.294,0.686l0,0c-0.073,0.215-0.261,0.348-0.463,0.348l0,0
				C12.545,49.639,12.489,49.626,12.433,49.604L12.433,49.604z"/>
		</g>
		<g>
			<path fill="#231F20" d="M16.961,57.077c-1.536-0.097-2.831-0.375-3.823-1.222l0,0c-0.989-0.849-1.563-2.188-1.805-4.184l0,0
				c-0.033-0.27,0.16-0.514,0.429-0.547l0,0c0.269-0.031,0.514,0.159,0.548,0.428l0,0c0.23,1.885,0.741,2.938,1.469,3.561l0,0
				c0.726,0.625,1.78,0.894,3.242,0.982l0,0c0.272,0.018,0.478,0.25,0.461,0.521l0,0c-0.017,0.26-0.234,0.46-0.491,0.46l0,0
				C16.981,57.077,16.971,57.077,16.961,57.077L16.961,57.077z"/>
		</g>
		<g>
			<path fill="#231F20" d="M18.169,58.341c-0.272,0-0.492-0.233-0.492-0.524l0,0c0-0.287,0.221-0.521,0.492-0.521l0,0
				c3.291-0.034,5.9-2.428,5.939-7.544l0,0h0.001c0-0.287,0.22-0.521,0.491-0.521l0,0c0.273,0,0.494,0.234,0.494,0.521l0,0
				c0.001,2.757-0.75,4.914-2.013,6.38l0,0c-1.257,1.466-3.012,2.209-4.901,2.209l0,0C18.175,58.341,18.173,58.341,18.169,58.341
				L18.169,58.341z"/>
		</g>
		<g>
			<path fill="#231F20" d="M22.749,50.537c-0.063-0.282,0.1-0.563,0.364-0.631l0,0c1.162-0.331,1.425-0.897,1.465-1.883l0,0
				c0.038-2.221-2.35-5.963-3.206-7.018l0,0h0.001c-0.176-0.221-0.147-0.551,0.061-0.734l0,0c0.208-0.185,0.519-0.154,0.693,0.065
				l0,0c0.921,1.21,3.397,4.838,3.436,7.687l0,0c0.039,1.302-0.687,2.556-2.224,2.898l0,0c-0.036,0.012-0.075,0.016-0.112,0.016l0,0
				C23.004,50.938,22.801,50.777,22.749,50.537L22.749,50.537z"/>
		</g>
		<g>
			<path fill="none" d="M33.857,45.736c0-0.805-0.059-1.592-0.166-2.362c-0.012-0.079-0.01-0.155,0-0.231
				c-0.547-3.484-2.173-6.59-4.484-8.936c-2.511-2.543-5.772-4.181-9.364-4.56c-0.015-0.002-0.03-0.004-0.045-0.006
				c-0.027-0.002-0.056-0.004-0.084-0.006c-0.497-0.047-0.996-0.072-1.498-0.073c-0.077,0-0.155,0.004-0.233,0.005
				c-4.138,0.058-7.923,1.772-10.755,4.64c-2.311,2.346-3.938,5.45-4.485,8.936c0.01,0.076,0.012,0.153,0.001,0.231
				c-0.108,0.771-0.167,1.56-0.167,2.362c-0.001,4.531,1.817,8.615,4.688,11.525c2.877,2.915,6.738,4.643,10.953,4.647
				c4.215-0.005,8.076-1.732,10.953-4.647C32.042,54.352,33.859,50.268,33.857,45.736z"/>
			<path fill="#231F20" d="M31.252,32.912c-3.259-3.316-7.872-5.441-13.016-5.44c-0.006,0-0.013,0.001-0.019,0.001
				c-0.006,0-0.013-0.001-0.019-0.001c-5.144-0.001-9.757,2.125-13.016,5.44c-3.266,3.318-5.246,7.845-5.248,12.824
				c0.002,4.979,1.983,9.503,5.248,12.822C8.44,61.874,13.052,64,18.194,64c0.001,0,0.002,0,0.003,0c0.007,0,0.013-0.001,0.02-0.001
				c0.007,0,0.013,0.001,0.02,0.001c0.001,0,0.002,0,0.003,0c5.143,0,9.754-2.126,13.012-5.441
				c3.266-3.318,5.246-7.844,5.248-12.822C36.498,40.757,34.518,36.23,31.252,32.912z M7.264,57.264
				c-2.872-2.912-4.689-6.996-4.688-11.527c0-0.803,0.06-1.59,0.167-2.361c0.011-0.078,0.009-0.154-0.001-0.23
				c0.547-3.485,2.174-6.59,4.485-8.937c2.832-2.868,6.618-4.582,10.755-4.64c0.078-0.001,0.156-0.005,0.233-0.005
				c0.502,0,1.001,0.026,1.498,0.073c0.028,0.002,0.057,0.004,0.084,0.006c0.016,0.001,0.03,0.004,0.045,0.006
				c3.592,0.379,6.853,2.017,9.364,4.56c2.311,2.347,3.938,5.45,4.485,8.937c-0.01,0.076-0.012,0.151-0.002,0.23
				c0.108,0.771,0.168,1.559,0.168,2.361c0,4.531-1.816,8.615-4.688,11.527c-2.877,2.914-6.738,4.643-10.953,4.646
				C14.002,61.904,10.142,60.178,7.264,57.264z"/>
		</g>
	</g>
	<g>
		<g>
			<path fill="#231F20" d="M42.94,12.623c-0.002-1.335,0.477-2.461,1.261-3.227l0,0c0.78-0.767,1.849-1.177,3.001-1.177l0,0
				c1.149,0,2.219,0.409,2.998,1.177l0,0c0.784,0.765,1.265,1.891,1.261,3.227l0,0c-0.005,2.664-1.876,4.875-4.259,4.879l0,0
				C44.818,17.498,42.944,15.286,42.94,12.623L42.94,12.623z M43.843,12.623c0.003,2.195,1.534,3.917,3.359,3.921l0,0
				c1.825-0.004,3.355-1.727,3.357-3.921l0,0c-0.016-2.17-1.452-3.421-3.357-3.447l0,0C45.297,9.201,43.859,10.455,43.843,12.623
				L43.843,12.623z"/>
		</g>
		<g>
			<path fill="#231F20" d="M41.913,23.327c-0.955-0.349-1.425-1.247-1.398-2.145l0,0c0.038-2.213,2.009-4.965,2.979-6.283l0,0
				c0.156-0.207,0.442-0.24,0.635-0.07l0,0c0.191,0.171,0.22,0.479,0.065,0.688l0,0c-0.948,1.217-2.812,4.078-2.774,5.666l0,0
				c0.025,0.621,0.171,0.949,0.804,1.228l0,0c0.233,0.094,0.355,0.374,0.269,0.627l0,0c-0.066,0.197-0.239,0.319-0.423,0.319l0,0
				C42.014,23.359,41.964,23.347,41.913,23.327L41.913,23.327z"/>
		</g>
		<g>
			<path fill="#231F20" d="M46.066,30.181c-1.408-0.088-2.598-0.343-3.507-1.121l0,0c-0.908-0.777-1.435-2.008-1.655-3.836l0,0
				c-0.031-0.248,0.146-0.471,0.394-0.501l0,0c0.246-0.029,0.472,0.145,0.502,0.393l0,0c0.212,1.728,0.679,2.693,1.347,3.264l0,0
				c0.666,0.573,1.634,0.82,2.974,0.903l0,0c0.25,0.014,0.439,0.229,0.423,0.478l0,0c-0.014,0.237-0.214,0.421-0.45,0.421l0,0
				C46.083,30.181,46.073,30.181,46.066,30.181L46.066,30.181z"/>
		</g>
		<g>
			<path fill="#231F20" d="M47.173,31.34c-0.248,0-0.451-0.216-0.451-0.481l0,0c0-0.263,0.203-0.478,0.451-0.478l0,0
				c3.019-0.031,5.413-2.226,5.448-6.918l0,0l0,0c0-0.264,0.203-0.479,0.45-0.479l0,0c0.25,0,0.454,0.215,0.454,0.479l0,0
				c0.002,2.528-0.689,4.507-1.847,5.852l0,0c-1.153,1.343-2.764,2.026-4.495,2.026l0,0C47.179,31.34,47.176,31.34,47.173,31.34
				L47.173,31.34z"/>
		</g>
		<g>
			<path fill="#231F20" d="M51.373,24.183c-0.058-0.259,0.092-0.516,0.334-0.578l0,0c1.066-0.304,1.307-0.824,1.344-1.726l0,0
				c0.033-2.038-2.156-5.471-2.939-6.437l0,0l0,0c-0.161-0.203-0.134-0.505,0.057-0.673l0,0c0.19-0.17,0.477-0.144,0.635,0.059l0,0
				c0.846,1.109,3.118,4.438,3.152,7.051l0,0c0.035,1.193-0.629,2.343-2.039,2.658l0,0c-0.032,0.01-0.068,0.014-0.104,0.014l0,0
				C51.606,24.551,51.421,24.402,51.373,24.183L51.373,24.183z"/>
		</g>
		<g>
			<path fill="none" d="M61.563,19.78c0-0.737-0.054-1.459-0.153-2.167c-0.009-0.072-0.008-0.142,0.001-0.212
				c-0.501-3.197-1.993-6.044-4.114-8.196c-2.303-2.333-5.294-3.834-8.588-4.182c-0.015-0.001-0.026-0.003-0.042-0.004
				c-0.024-0.002-0.051-0.003-0.076-0.005c-0.455-0.043-0.914-0.066-1.373-0.066c-0.072,0-0.143,0.003-0.216,0.004
				c-3.794,0.052-7.267,1.625-9.862,4.255c-2.121,2.152-3.611,4.999-4.115,8.196c0.01,0.07,0.012,0.141,0.002,0.212
				c-0.099,0.708-0.154,1.43-0.154,2.167c0,4.156,1.667,7.901,4.301,10.571c2.64,2.673,6.178,4.259,10.045,4.264
				c3.867-0.005,7.407-1.591,10.046-4.264C59.899,27.682,61.563,23.936,61.563,19.78z"/>
			<path fill="#231F20" d="M59.172,8.017c-2.987-3.041-7.219-4.99-11.938-4.989c-0.005,0-0.012,0.002-0.019,0.002
				c-0.005,0-0.012-0.002-0.017-0.002c-4.718-0.001-8.95,1.949-11.938,4.989c-2.996,3.045-4.812,7.195-4.814,11.762
				c0.002,4.566,1.819,8.714,4.814,11.759c2.985,3.042,7.217,4.991,11.934,4.991h0.003c0.006,0,0.013-0.001,0.018-0.001
				c0.007,0,0.014,0.001,0.021,0.001h0.002c4.717,0,8.946-1.95,11.934-4.991c2.995-3.045,4.812-7.193,4.813-11.759
				C63.983,15.212,62.167,11.062,59.172,8.017z M37.172,30.352c-2.634-2.67-4.302-6.416-4.302-10.572
				c0-0.737,0.057-1.459,0.154-2.167c0.012-0.072,0.01-0.142-0.001-0.212c0.502-3.197,1.994-6.044,4.114-8.196
				c2.598-2.63,6.07-4.203,9.863-4.255c0.071-0.001,0.145-0.004,0.215-0.004c0.46,0,0.919,0.024,1.373,0.067
				c0.025,0.002,0.054,0.003,0.077,0.005c0.015,0.001,0.025,0.003,0.041,0.004c3.295,0.349,6.285,1.849,8.589,4.182
				c2.12,2.152,3.612,4.999,4.114,8.196c-0.009,0.07-0.01,0.14-0.001,0.212c0.1,0.707,0.153,1.43,0.153,2.167
				c0,4.155-1.666,7.901-4.3,10.571c-2.64,2.673-6.18,4.259-10.047,4.263C43.351,34.608,39.811,33.024,37.172,30.352z"/>
		</g>
	</g>
	<g>
		<g>
			<path fill="#231F20" d="M10.126,6.946c-0.001-0.955,0.341-1.76,0.901-2.306l0,0c0.558-0.55,1.321-0.841,2.145-0.841l0,0
				c0.82,0,1.585,0.292,2.144,0.841l0,0c0.56,0.546,0.903,1.351,0.9,2.306l0,0c-0.003,1.904-1.339,3.483-3.044,3.487l0,0
				C11.468,10.428,10.13,8.849,10.126,6.946L10.126,6.946z M10.771,6.946c0.001,1.569,1.097,2.8,2.401,2.803l0,0
				c1.303-0.003,2.398-1.234,2.399-2.803l0,0c-0.011-1.551-1.037-2.445-2.399-2.464l0,0C11.811,4.5,10.785,5.395,10.771,6.946
				L10.771,6.946z"/>
		</g>
		<g>
			<path fill="#231F20" d="M9.392,14.596c-0.683-0.25-1.018-0.892-0.999-1.533l0,0c0.028-1.582,1.435-3.549,2.129-4.492l0,0
				c0.112-0.148,0.316-0.171,0.454-0.048l0,0c0.138,0.122,0.158,0.341,0.046,0.49l0,0c-0.677,0.871-2.009,2.915-1.982,4.05l0,0
				c0.019,0.443,0.122,0.678,0.575,0.877l0,0c0.168,0.067,0.252,0.267,0.193,0.449l0,0c-0.048,0.141-0.171,0.228-0.303,0.228l0,0
				C9.465,14.618,9.429,14.61,9.392,14.596L9.392,14.596z"/>
		</g>
		<g>
			<path fill="#231F20" d="M12.36,19.493c-1.007-0.063-1.856-0.245-2.506-0.8l0,0c-0.649-0.556-1.024-1.435-1.182-2.742l0,0
				c-0.022-0.177,0.104-0.337,0.281-0.358l0,0c0.176-0.021,0.337,0.104,0.36,0.28l0,0c0.15,1.234,0.485,1.925,0.963,2.333l0,0
				c0.476,0.41,1.166,0.585,2.124,0.645l0,0c0.178,0.01,0.313,0.164,0.303,0.341l0,0c-0.01,0.17-0.152,0.301-0.321,0.301l0,0
				C12.374,19.493,12.368,19.493,12.36,19.493L12.36,19.493z"/>
		</g>
		<g>
			<path fill="#231F20" d="M13.152,20.323c-0.178,0-0.321-0.154-0.321-0.344l0,0c0-0.188,0.145-0.342,0.321-0.342l0,0
				c2.157-0.022,3.868-1.591,3.894-4.945l0,0l0,0c0-0.188,0.145-0.342,0.322-0.342l0,0c0.178,0,0.322,0.154,0.322,0.342l0,0
				c0.001,1.807-0.491,3.221-1.319,4.182l0,0c-0.825,0.96-1.975,1.449-3.214,1.449l0,0C13.155,20.323,13.154,20.323,13.152,20.323
				L13.152,20.323z"/>
		</g>
		<g>
			<path fill="#231F20" d="M16.155,15.207c-0.042-0.186,0.065-0.369,0.239-0.414l0,0c0.761-0.218,0.934-0.587,0.96-1.233l0,0
				c0.024-1.455-1.541-3.908-2.101-4.601l0,0l0,0c-0.116-0.145-0.096-0.361,0.041-0.481l0,0c0.137-0.121,0.34-0.102,0.455,0.042l0,0
				c0.604,0.794,2.227,3.172,2.252,5.038l0,0c0.025,0.853-0.45,1.676-1.458,1.9l0,0c-0.024,0.007-0.049,0.01-0.074,0.01l0,0
				C16.322,15.47,16.188,15.364,16.155,15.207L16.155,15.207z"/>
		</g>
		<g>
			<path fill="none" d="M23.437,12.061c0-0.527-0.039-1.042-0.11-1.548c-0.007-0.053-0.005-0.102,0-0.152
				c-0.359-2.285-1.424-4.319-2.94-5.858c-1.646-1.667-3.785-2.741-6.139-2.989c-0.01-0.001-0.02-0.002-0.029-0.003
				c-0.018-0.001-0.037-0.002-0.056-0.003c-0.325-0.031-0.652-0.047-0.982-0.049c-0.051,0-0.102,0.002-0.152,0.003
				C10.316,1.5,7.834,2.624,5.978,4.504c-1.515,1.537-2.581,3.573-2.941,5.857c0.009,0.047,0.011,0.098,0.004,0.15
				c-0.071,0.505-0.11,1.021-0.11,1.548c0,2.97,1.191,5.647,3.075,7.555c1.886,1.911,4.416,3.043,7.18,3.047
				c2.763-0.002,5.294-1.135,7.18-3.047C22.246,17.707,23.438,15.03,23.437,12.061z"/>
			<path fill="#231F20" d="M21.729,3.654c-2.137-2.174-5.16-3.567-8.532-3.567c-0.005,0-0.008,0-0.013,0c-0.004,0-0.008,0-0.012,0
				c-3.372,0-6.395,1.393-8.532,3.567C2.499,5.829,1.201,8.796,1.2,12.061c0.001,3.263,1.3,6.229,3.44,8.405
				c2.136,2.173,5.158,3.567,8.53,3.567h0.001c0.004,0,0.009,0,0.014,0c0.004,0,0.008,0,0.013,0h0.001
				c3.372,0,6.394-1.395,8.53-3.567c2.141-2.175,3.438-5.142,3.44-8.405C25.168,8.796,23.87,5.829,21.729,3.654z M6.004,19.616
				c-1.883-1.908-3.074-4.585-3.074-7.555c0-0.527,0.04-1.042,0.11-1.548c0.008-0.053,0.007-0.104,0-0.153
				c0.358-2.285,1.426-4.319,2.941-5.858c1.856-1.88,4.337-3.003,7.049-3.042c0.051,0,0.102-0.003,0.153-0.003
				c0.329,0,0.656,0.018,0.982,0.048c0.019,0.001,0.037,0.002,0.055,0.003c0.011,0.001,0.02,0.002,0.029,0.003
				c2.354,0.249,4.493,1.323,6.139,2.989c1.515,1.538,2.581,3.573,2.94,5.858c-0.006,0.05-0.007,0.1,0,0.152
				c0.072,0.506,0.11,1.021,0.11,1.548c0,2.97-1.191,5.647-3.073,7.555c-1.886,1.911-4.416,3.042-7.179,3.047
				C10.42,22.659,7.89,21.526,6.004,19.616z"/>
		</g>
	</g>
</g>
</svg>
