<?xml version="1.0" encoding="utf-8"?>
<!-- Generator: Adobe Illustrator 16.0.0, SVG Export Plug-In . SVG Version: 6.00 Build 0)  -->
<!DOCTYPE svg PUBLIC "-//W3C//DTD SVG 1.1//EN" "http://www.w3.org/Graphics/SVG/1.1/DTD/svg11.dtd">
<svg version="1.1" xmlns="http://www.w3.org/2000/svg" xmlns:xlink="http://www.w3.org/1999/xlink" x="0px" y="0px" width="64px"
	 height="64px" viewBox="0 0 64 64" enable-background="new 0 0 64 64" xml:space="preserve">
<g>
	<g>
		<path d="M32,3.001C47.99,3.001,61,16.01,61,32S47.99,61,32,61C16.009,61,3,47.99,3,32S16.009,3.001,32,3.001 M32,0.001
			C14.327,0.001,0,14.328,0,32c0,17.674,14.327,32,32,32s32-14.326,32-32C64,14.328,49.673,0.001,32,0.001L32,0.001z"/>
	</g>
	<g>
		<path d="M44.941,23.709c4.304,0,7.806,3.501,7.806,7.805s-3.502,7.806-7.806,7.806s-7.806-3.502-7.806-7.806
			S40.638,23.709,44.941,23.709 M44.941,22.709c-4.863,0-8.806,3.942-8.806,8.805c0,4.862,3.942,8.806,8.806,8.806
			s8.806-3.943,8.806-8.806C53.747,26.651,49.805,22.709,44.941,22.709L44.941,22.709z"/>
	</g>
	<g>
		<path d="M44.941,28.415c-1.554,0-2.813,1.26-2.813,2.814c0,1.554,1.26,2.813,2.813,2.813c1.555,0,2.814-1.26,2.814-2.813
			C47.756,29.675,46.496,28.415,44.941,28.415L44.941,28.415z"/>
	</g>
	<g>
		<path fill="#FFFFFF" d="M44.941,30.594c-0.776,0-1.406,0.63-1.406,1.406c0,0.777,0.63,1.408,1.406,1.408
			c0.777,0,1.407-0.631,1.407-1.408C46.349,31.224,45.719,30.594,44.941,30.594L44.941,30.594z"/>
	</g>
</g>
</svg>
