<?xml version="1.0" encoding="utf-8"?>
<!-- Generator: Adobe Illustrator 16.0.0, SVG Export Plug-In . SVG Version: 6.00 Build 0)  -->
<!DOCTYPE svg PUBLIC "-//W3C//DTD SVG 1.1//EN" "http://www.w3.org/Graphics/SVG/1.1/DTD/svg11.dtd">
<svg version="1.1" xmlns="http://www.w3.org/2000/svg" xmlns:xlink="http://www.w3.org/1999/xlink" x="0px" y="0px" width="64px"
	 height="64px" viewBox="0 0 64 64" enable-background="new 0 0 64 64" xml:space="preserve">
<g>
	<path fill="#231F20" d="M21.47,34.416c-0.852-0.837-2.018-1.283-3.27-1.283c-1.256,0-2.42,0.446-3.272,1.283
		c-0.853,0.834-1.376,2.063-1.374,3.518c0.005,2.904,2.047,5.314,4.646,5.32c2.6-0.006,4.639-2.415,4.644-5.32
		C22.848,36.479,22.324,35.25,21.47,34.416z M18.201,42.21c-1.99-0.005-3.661-1.881-3.663-4.276c0.019-2.365,1.585-3.73,3.663-3.758
		c2.078,0.029,3.643,1.393,3.661,3.758C21.859,40.327,20.189,42.205,18.201,42.21z"/>
	<path fill="#231F20" d="M12.433,49.604c-1.042-0.381-1.553-1.358-1.523-2.338l0,0c0.042-2.412,2.189-5.414,3.247-6.852l0,0
		c0.171-0.227,0.482-0.262,0.692-0.075l0,0c0.209,0.187,0.241,0.521,0.07,0.749l0,0c-1.034,1.327-3.064,4.445-3.024,6.178l0,0
		c0.028,0.676,0.186,1.034,0.877,1.338l0,0c0.255,0.104,0.385,0.407,0.294,0.687l0,0c-0.073,0.215-0.261,0.349-0.463,0.349l0,0
		C12.545,49.639,12.489,49.626,12.433,49.604L12.433,49.604z"/>
	<path fill="#231F20" d="M16.961,57.077c-1.536-0.097-2.831-0.375-3.823-1.222l0,0c-0.989-0.85-1.563-2.188-1.805-4.185l0,0
		c-0.033-0.271,0.16-0.514,0.429-0.547l0,0c0.269-0.031,0.514,0.159,0.548,0.428l0,0c0.23,1.886,0.741,2.938,1.469,3.562l0,0
		c0.726,0.625,1.78,0.894,3.242,0.982l0,0c0.272,0.018,0.478,0.25,0.461,0.521l0,0c-0.017,0.26-0.234,0.46-0.491,0.46l0,0
		C16.981,57.077,16.971,57.077,16.961,57.077L16.961,57.077z"/>
	<path fill="#231F20" d="M18.169,58.341c-0.272,0-0.492-0.233-0.492-0.524l0,0c0-0.287,0.221-0.521,0.492-0.521l0,0
		c3.291-0.034,5.9-2.428,5.939-7.544l0,0h0.001c0-0.287,0.22-0.521,0.491-0.521l0,0c0.273,0,0.494,0.234,0.494,0.521l0,0
		c0.001,2.757-0.75,4.914-2.013,6.38l0,0c-1.257,1.466-3.012,2.209-4.901,2.209l0,0C18.175,58.341,18.173,58.341,18.169,58.341
		L18.169,58.341z"/>
	<path fill="#231F20" d="M22.749,50.537c-0.063-0.282,0.1-0.563,0.364-0.631l0,0c1.162-0.331,1.425-0.897,1.465-1.883l0,0
		c0.038-2.222-2.35-5.963-3.206-7.019l0,0h0.001c-0.176-0.221-0.147-0.551,0.061-0.733l0,0c0.208-0.186,0.519-0.154,0.693,0.064l0,0
		c0.921,1.21,3.397,4.838,3.436,7.688l0,0c0.039,1.302-0.687,2.556-2.224,2.897l0,0c-0.036,0.013-0.075,0.017-0.112,0.017l0,0
		C23.004,50.938,22.801,50.777,22.749,50.537L22.749,50.537z"/>
	<path fill="#231F20" d="M31.252,32.912c-3.259-3.316-7.872-5.441-13.016-5.44c-0.006,0-0.013,0.001-0.019,0.001
		c-0.006,0-0.013-0.001-0.019-0.001c-5.144-0.001-9.757,2.125-13.016,5.44c-3.266,3.318-5.246,7.845-5.248,12.824
		c0.002,4.979,1.983,9.503,5.248,12.822C8.44,61.874,13.052,64,18.194,64c0.001,0,0.002,0,0.003,0c0.007,0,0.013-0.001,0.02-0.001
		c0.007,0,0.013,0.001,0.02,0.001c0.001,0,0.002,0,0.003,0c5.143,0,9.754-2.126,13.012-5.441c3.266-3.317,5.246-7.844,5.248-12.822
		C36.498,40.757,34.518,36.23,31.252,32.912z M29.169,57.264c-2.877,2.914-6.738,4.644-10.953,4.646
		c-4.214-0.006-8.074-1.732-10.952-4.646c-2.872-2.912-4.689-6.996-4.688-11.527c0-0.803,0.06-1.59,0.167-2.36
		c0.011-0.078,0.009-0.153-0.001-0.229c0.547-3.485,2.174-6.59,4.485-8.938c2.832-2.868,6.618-4.582,10.755-4.64
		c0.078-0.001,0.156-0.005,0.233-0.005c0.502,0,1.001,0.026,1.498,0.073c0.028,0.002,0.057,0.004,0.084,0.006
		c0.016,0.001,0.03,0.004,0.045,0.006c3.592,0.379,6.853,2.017,9.364,4.56c2.311,2.348,3.938,5.45,4.485,8.938
		c-0.01,0.076-0.012,0.15-0.002,0.229c0.107,0.771,0.168,1.56,0.168,2.36C33.857,50.268,32.041,54.352,29.169,57.264z"/>
	<path fill="#231F20" d="M50.2,9.396c-0.779-0.768-1.849-1.177-2.998-1.177c-1.152,0-2.222,0.41-3.001,1.177
		c-0.784,0.766-1.264,1.892-1.262,3.227c0.004,2.663,1.879,4.875,4.263,4.879c2.383-0.004,4.254-2.215,4.259-4.879
		C51.465,11.287,50.984,10.161,50.2,9.396z M47.202,16.544c-1.825-0.004-3.356-1.726-3.359-3.921
		c0.017-2.168,1.454-3.422,3.359-3.447c1.905,0.026,3.341,1.277,3.356,3.447C50.557,14.817,49.027,16.54,47.202,16.544z"/>
	<path fill="#231F20" d="M41.913,23.327c-0.955-0.349-1.425-1.247-1.397-2.145l0,0c0.037-2.213,2.008-4.965,2.979-6.283l0,0
		c0.156-0.207,0.441-0.24,0.635-0.07l0,0c0.191,0.171,0.221,0.479,0.064,0.688l0,0c-0.947,1.217-2.812,4.078-2.773,5.666l0,0
		c0.025,0.621,0.171,0.949,0.805,1.228l0,0c0.232,0.094,0.354,0.374,0.269,0.627l0,0c-0.066,0.197-0.239,0.319-0.423,0.319l0,0
		C42.014,23.359,41.964,23.347,41.913,23.327L41.913,23.327z"/>
	<path fill="#231F20" d="M46.066,30.181c-1.408-0.088-2.599-0.343-3.508-1.121l0,0c-0.908-0.777-1.435-2.008-1.654-3.836l0,0
		c-0.031-0.248,0.146-0.471,0.394-0.501l0,0c0.246-0.029,0.472,0.145,0.502,0.393l0,0c0.212,1.728,0.679,2.693,1.347,3.264l0,0
		c0.666,0.573,1.635,0.82,2.975,0.903l0,0c0.25,0.014,0.439,0.229,0.423,0.478l0,0c-0.015,0.237-0.214,0.421-0.45,0.421l0,0
		C46.083,30.181,46.073,30.181,46.066,30.181L46.066,30.181z"/>
	<path fill="#231F20" d="M47.173,31.34c-0.248,0-0.45-0.216-0.45-0.481l0,0c0-0.263,0.202-0.478,0.45-0.478l0,0
		c3.019-0.031,5.413-2.226,5.448-6.918l0,0l0,0c0-0.264,0.203-0.479,0.449-0.479l0,0c0.25,0,0.455,0.215,0.455,0.479l0,0
		c0.002,2.528-0.689,4.507-1.848,5.852l0,0c-1.152,1.343-2.764,2.026-4.494,2.026l0,0C47.18,31.34,47.176,31.34,47.173,31.34
		L47.173,31.34z"/>
	<path fill="#231F20" d="M51.373,24.183c-0.059-0.259,0.092-0.516,0.334-0.578l0,0c1.066-0.304,1.307-0.824,1.344-1.726l0,0
		c0.033-2.038-2.156-5.471-2.939-6.437l0,0l0,0c-0.16-0.203-0.133-0.505,0.058-0.673l0,0c0.19-0.17,0.478-0.144,0.636,0.059l0,0
		c0.846,1.109,3.117,4.438,3.151,7.051l0,0c0.035,1.193-0.629,2.343-2.039,2.658l0,0c-0.032,0.01-0.067,0.014-0.104,0.014l0,0
		C51.605,24.551,51.421,24.402,51.373,24.183L51.373,24.183z"/>
	<path fill="#231F20" d="M59.172,8.017c-2.986-3.041-7.219-4.99-11.938-4.989c-0.006,0-0.012,0.002-0.02,0.002
		c-0.005,0-0.012-0.002-0.017-0.002c-4.718-0.001-8.95,1.949-11.938,4.989c-2.996,3.045-4.812,7.195-4.814,11.762
		c0.002,4.566,1.819,8.714,4.814,11.759c2.985,3.042,7.217,4.991,11.934,4.991h0.004c0.006,0,0.013-0.002,0.018-0.002
		c0.008,0,0.014,0.002,0.021,0.002h0.002c4.717,0,8.945-1.95,11.934-4.991c2.995-3.045,4.813-7.193,4.813-11.759
		C63.982,15.212,62.167,11.062,59.172,8.017z M57.262,30.35c-2.641,2.673-6.181,4.259-10.048,4.263
		c-3.862-0.006-7.403-1.59-10.042-4.261c-2.634-2.67-4.302-6.416-4.302-10.572c0-0.737,0.057-1.459,0.153-2.167
		c0.013-0.072,0.011-0.142,0-0.212c0.502-3.197,1.994-6.044,4.113-8.196c2.598-2.63,6.07-4.203,9.863-4.255
		c0.07-0.001,0.145-0.004,0.215-0.004c0.46,0,0.919,0.024,1.373,0.067c0.025,0.002,0.055,0.003,0.077,0.005
		c0.015,0.001,0.024,0.003,0.041,0.004c3.295,0.349,6.285,1.849,8.589,4.182c2.12,2.152,3.612,4.999,4.114,8.196
		c-0.009,0.07-0.011,0.14-0.001,0.212c0.1,0.707,0.152,1.43,0.152,2.167C61.561,23.934,59.895,27.68,57.262,30.35z"/>
	<path fill="#231F20" d="M15.316,4.64c-0.559-0.549-1.324-0.841-2.144-0.841c-0.824,0-1.587,0.291-2.145,0.841
		c-0.56,0.546-0.902,1.351-0.901,2.306c0.004,1.903,1.342,3.482,3.046,3.487c1.705-0.004,3.041-1.583,3.044-3.487
		C16.219,5.991,15.876,5.186,15.316,4.64z M13.172,9.749c-1.304-0.003-2.4-1.234-2.401-2.803c0.014-1.551,1.04-2.446,2.401-2.464
		c1.362,0.019,2.388,0.913,2.399,2.464C15.57,8.515,14.475,9.746,13.172,9.749z"/>
	<path fill="#231F20" d="M9.392,14.596c-0.683-0.25-1.018-0.892-0.999-1.533l0,0c0.028-1.582,1.435-3.549,2.129-4.492l0,0
		c0.112-0.148,0.316-0.171,0.454-0.048l0,0c0.138,0.122,0.158,0.341,0.046,0.49l0,0c-0.677,0.871-2.009,2.915-1.982,4.05l0,0
		c0.019,0.443,0.122,0.678,0.575,0.877l0,0c0.168,0.067,0.252,0.267,0.193,0.449l0,0c-0.048,0.141-0.171,0.228-0.303,0.228l0,0
		C9.465,14.618,9.429,14.61,9.392,14.596L9.392,14.596z"/>
	<path fill="#231F20" d="M12.36,19.493c-1.007-0.063-1.856-0.245-2.506-0.8l0,0c-0.649-0.556-1.024-1.435-1.182-2.742l0,0
		c-0.022-0.177,0.104-0.337,0.281-0.358l0,0c0.176-0.021,0.337,0.104,0.36,0.28l0,0c0.15,1.234,0.485,1.925,0.963,2.333l0,0
		c0.476,0.41,1.166,0.585,2.124,0.645l0,0c0.178,0.01,0.313,0.164,0.303,0.341l0,0c-0.01,0.17-0.152,0.301-0.321,0.301l0,0
		C12.374,19.493,12.368,19.493,12.36,19.493L12.36,19.493z"/>
	<path fill="#231F20" d="M13.152,20.323c-0.178,0-0.321-0.154-0.321-0.344l0,0c0-0.188,0.145-0.342,0.321-0.342l0,0
		c2.157-0.022,3.868-1.591,3.894-4.945l0,0l0,0c0-0.188,0.145-0.342,0.322-0.342l0,0c0.178,0,0.322,0.154,0.322,0.342l0,0
		c0.001,1.807-0.491,3.221-1.319,4.182l0,0c-0.825,0.96-1.975,1.449-3.214,1.449l0,0C13.155,20.323,13.154,20.323,13.152,20.323
		L13.152,20.323z"/>
	<path fill="#231F20" d="M16.155,15.207c-0.042-0.186,0.065-0.369,0.239-0.414l0,0c0.761-0.218,0.934-0.587,0.96-1.233l0,0
		c0.024-1.455-1.541-3.908-2.101-4.601l0,0l0,0c-0.116-0.145-0.096-0.361,0.041-0.481l0,0c0.137-0.121,0.34-0.102,0.455,0.042l0,0
		c0.604,0.794,2.227,3.172,2.252,5.038l0,0c0.025,0.853-0.45,1.676-1.458,1.9l0,0c-0.024,0.007-0.049,0.01-0.074,0.01l0,0
		C16.322,15.47,16.188,15.364,16.155,15.207L16.155,15.207z"/>
	<path fill="#231F20" d="M21.729,3.654c-2.137-2.174-5.16-3.567-8.532-3.567c-0.005,0-0.008,0-0.013,0c-0.004,0-0.008,0-0.012,0
		C9.8,0.087,6.777,1.48,4.64,3.654C2.499,5.829,1.201,8.796,1.2,12.061c0.001,3.263,1.3,6.229,3.44,8.405
		c2.136,2.173,5.158,3.567,8.53,3.567h0.001c0.004,0,0.009,0,0.014,0c0.004,0,0.008,0,0.013,0h0.001c3.372,0,6.394-1.395,8.53-3.567
		c2.141-2.175,3.438-5.142,3.44-8.405C25.168,8.796,23.87,5.829,21.729,3.654z M20.365,19.613c-1.886,1.911-4.416,3.042-7.179,3.047
		c-2.766-0.001-5.296-1.134-7.182-3.044c-1.883-1.908-3.074-4.585-3.074-7.555c0-0.527,0.04-1.042,0.11-1.548
		c0.008-0.053,0.007-0.104,0-0.153c0.358-2.285,1.426-4.319,2.941-5.858c1.856-1.88,4.337-3.003,7.049-3.042
		c0.051,0,0.102-0.003,0.153-0.003c0.329,0,0.656,0.018,0.982,0.048c0.019,0.001,0.037,0.002,0.055,0.003
		c0.011,0.001,0.02,0.002,0.029,0.003c2.354,0.249,4.493,1.323,6.139,2.989c1.515,1.538,2.581,3.573,2.94,5.858
		c-0.006,0.05-0.007,0.1,0,0.152c0.072,0.506,0.11,1.021,0.11,1.548C23.438,15.028,22.247,17.705,20.365,19.613z"/>
</g>
</svg>
