<?xml version="1.0" encoding="utf-8"?>
<!-- Generator: Adobe Illustrator 16.0.0, SVG Export Plug-In . SVG Version: 6.00 Build 0)  -->
<!DOCTYPE svg PUBLIC "-//W3C//DTD SVG 1.1//EN" "http://www.w3.org/Graphics/SVG/1.1/DTD/svg11.dtd">
<svg version="1.1" xmlns="http://www.w3.org/2000/svg" xmlns:xlink="http://www.w3.org/1999/xlink" x="0px" y="0px" width="64px"
	 height="64px" viewBox="0 0 64 64" enable-background="new 0 0 64 64" xml:space="preserve">
<g>
	<g>
		<path fill="#231F20" d="M62.672,3.489c-0.127,0.523-0.654,1.936-1.541,2.184c-0.783,0.219-1.736-0.538-2.396-1.221
			c-1.129-1.155-2.387-1.678-3.738-1.564C52.795,3.076,51,4.943,50.236,5.869c-2.518-1.511-5.793-0.931-7.605,1.493l-4.024,5.383
			c-1.948,2.606-1.451,6.342,1.108,8.327c2.563,1.985,6.23,1.478,8.18-1.128l4.023-5.386c1.809-2.412,1.488-5.774-0.596-7.84
			c0.658-0.786,2.121-2.293,3.781-2.438c0.943-0.083,1.813,0.3,2.648,1.157c1.34,1.374,2.6,1.907,3.742,1.583
			C63.305,6.505,63.936,4.094,64,3.819L62.672,3.489z M50.826,13.712l-4.023,5.385c-1.49,1.995-4.295,2.379-6.254,0.862
			s-2.34-4.373-0.851-6.365l4.028-5.387c1.486-1.993,4.295-2.382,6.254-0.863C51.938,8.862,52.318,11.718,50.826,13.712z"/>
	</g>
	<g>
		<path fill="#231F20" d="M36.453,33.201c-0.146,0.697-0.787,2.576-1.943,2.937c-1.018,0.319-2.303-0.646-3.201-1.513
			c-1.521-1.471-3.191-2.111-4.974-1.907c-2.885,0.331-8.907,8.168-9.88,9.415c-3.358-1.889-7.65-0.994-9.939,2.259l-5.085,7.241
			c-2.463,3.504-1.668,8.396,1.773,10.91c3.442,2.509,8.245,1.694,10.711-1.808l5.088-7.244c2.277-3.241,1.738-7.652-1.077-10.284
			c0.834-1.061,6.435-8.411,8.612-8.662c1.237-0.145,2.392,0.322,3.524,1.416c1.818,1.755,3.49,2.408,4.98,1.934
			c2.367-0.744,3.102-3.943,3.178-4.304L36.453,33.201z M17.536,52.423l-5.09,7.239c-1.883,2.683-5.557,3.304-8.188,1.385
			c-2.633-1.919-3.242-5.659-1.355-8.342l5.085-7.24c1.884-2.684,5.561-3.303,8.192-1.381C18.813,46.002,19.42,49.741,17.536,52.423
			z"/>
	</g>
	<g>
		<path fill="#231F20" d="M62.724,41.764c-0.105,0.503-0.568,1.86-1.403,2.12c-0.735,0.23-1.663-0.466-2.311-1.092
			c-1.099-1.063-2.305-1.524-3.592-1.378c-2.082,0.24-6.431,5.898-7.133,6.799c-2.424-1.363-5.523-0.719-7.177,1.631l-3.671,5.228
			c-1.778,2.53-1.204,6.062,1.28,7.878c2.485,1.811,5.953,1.223,7.733-1.306l3.674-5.23c1.644-2.34,1.255-5.524-0.778-7.425
			c0.603-0.767,4.646-6.073,6.219-6.254c0.893-0.104,1.727,0.232,2.544,1.021c1.313,1.268,2.521,1.738,3.597,1.396
			c1.708-0.537,2.239-2.847,2.294-3.107L62.724,41.764z M49.064,55.642l-3.675,5.228c-1.359,1.937-4.012,2.385-5.911,1
			c-1.901-1.386-2.341-4.087-0.979-6.023l3.671-5.228c1.36-1.938,4.016-2.385,5.915-0.997
			C49.987,51.006,50.426,53.706,49.064,55.642z"/>
	</g>
	<g>
		<path fill="#231F20" d="M25.255,7.632c-0.127,0.523-0.654,1.936-1.541,2.184c-0.783,0.219-1.736-0.538-2.396-1.221
			c-1.129-1.155-2.387-1.678-3.738-1.564c-2.201,0.188-3.996,2.055-4.76,2.981C10.302,8.5,7.026,9.081,5.214,11.505l-4.024,5.383
			c-1.948,2.606-1.451,6.342,1.108,8.327c2.563,1.984,6.23,1.478,8.18-1.129l4.023-5.385c1.809-2.412,1.488-5.774-0.596-7.841
			c0.658-0.786,2.121-2.293,3.781-2.438c0.943-0.083,1.813,0.3,2.648,1.157c1.34,1.374,2.6,1.907,3.742,1.583
			c1.811-0.515,2.441-2.926,2.506-3.201L25.255,7.632z M13.409,17.854L9.386,23.24c-1.49,1.994-4.295,2.379-6.254,0.861
			s-2.34-4.373-0.851-6.365L6.31,12.35c1.486-1.993,4.295-2.382,6.254-0.863C14.521,13.005,14.901,15.86,13.409,17.854z"/>
	</g>
</g>
</svg>
