<?xml version="1.0" encoding="utf-8"?>
<!-- Generator: Adobe Illustrator 16.0.0, SVG Export Plug-In . SVG Version: 6.00 Build 0)  -->
<!DOCTYPE svg PUBLIC "-//W3C//DTD SVG 1.1//EN" "http://www.w3.org/Graphics/SVG/1.1/DTD/svg11.dtd">
<svg version="1.1" xmlns="http://www.w3.org/2000/svg" xmlns:xlink="http://www.w3.org/1999/xlink" x="0px" y="0px" width="64px"
	 height="64px" viewBox="0 0 64 64" enable-background="new 0 0 64 64" xml:space="preserve">
<g>
	<path d="M53.383,17.344c0.01,0,0.02,0,0.027,0c1.826-0.016,3.298-1.493,3.305-3.317c0.006-1.874-1.463-3.378-3.307-3.392
		c-0.008,0-0.016,0-0.021,0c-1.805,0-3.341,1.543-3.343,3.36C50.044,15.817,51.57,17.344,53.383,17.344"/>
	<g>
		<path d="M22.47,1.958c6.379,0,12.864,1.347,19.274,4.002c0.526,0.218,0.956,0.315,1.393,0.315c0.467,0,0.919-0.116,1.386-0.356
			c1.104-0.571,2.276-0.648,3.277-0.648c0.499,0,1.021,0.025,1.514,0.051c2.9,0.148,5.408,1.458,7.455,3.896
			c0.256,0.303,0.513,0.607,0.771,0.91c1.092,1.284,2.221,2.611,3.186,4.01c1.455,2.117,1.732,4.724,0.74,6.974
			c-1.004,2.277-3.146,3.851-5.733,4.21c-1.462,0.203-3.051,0.37-4.858,0.51c-1.016,0.079-1.81,0.908-1.845,1.926
			c-0.12,3.541-0.37,7.32-1.376,10.969c-0.496,1.808-1.245,3.254-2.29,4.418c-0.543,0.604-1.102,1.211-1.655,1.806
			c0.976-2.781,1.117-5.675,0.421-8.609c-0.941-3.979-3.722-6.427-7.829-6.894c-0.307-0.035-0.611-0.06-0.916-0.084
			c-0.245-0.02-0.489-0.04-0.731-0.064c-0.262-0.027-0.507-0.04-0.747-0.04c-2.132,0-3.92,0.942-5.467,2.88
			c-0.57,0.715-0.583,1.727-0.03,2.456c0.387,0.511,0.983,0.792,1.594,0.792c0.262,0,0.526-0.051,0.779-0.158
			c0.757-0.32,1.616-0.507,2.541-0.555c0.099-0.005,0.197-0.008,0.296-0.008c1.492,0,2.881,0.581,3.911,1.637
			c1.037,1.063,1.588,2.481,1.551,3.991c-0.048,1.854-0.86,3.418-2.481,4.781c-1.122,0.942-2.465,1.803-4.228,2.708
			c-0.743,0.382-1.17,1.185-1.072,2.014c0.098,0.828,0.7,1.51,1.511,1.708c0.135,0.033,0.27,0.066,0.391,0.098
			c4.848,1.291,8.544,3.327,11.296,6.224c1.351,1.426,1.277,2.467,1.03,3.292c-0.149,0.492-0.377,0.788-1.092,0.847
			c-0.129,0.01-0.255,0.016-0.379,0.016c-0.847,0-1.449-0.246-2.014-0.822c-2.637-2.694-5.985-4.247-10.859-5.037
			c-3.084-0.499-6.388-0.732-10.398-0.734c-0.945,0-1.731-0.422-2.158-1.159c-0.401-0.693-0.381-1.526,0.056-2.289
			c0.411-0.719,0.982-1.373,1.599-2.079c0.309-0.353,0.602-0.689,0.876-1.034c0.475-0.597,0.569-1.412,0.242-2.102
			c-0.327-0.689-1.017-1.133-1.78-1.144c-0.874-0.012-1.748-0.016-2.622-0.016c-0.862,0-1.724,0.004-2.586,0.008l-1.067,0.005
			h-0.058c-0.433,0-0.923,0-1.33-0.167c-0.249-0.103-0.506-0.151-0.759-0.151c-0.786,0-1.532,0.467-1.85,1.238
			c-0.586,1.423-1.985,2.378-3.479,2.378c-0.207,0-0.415-0.018-0.617-0.053c-1.748-0.303-3.085-1.795-3.18-3.549
			c-0.111-2.07,1.427-3.649,2.917-3.926c0.386-0.072,0.795-0.108,1.217-0.108c0.114,0,0.228,0.003,0.341,0.009
			c0.032,0.001,0.063,0.002,0.094,0.002c0.51,0,1.002-0.195,1.375-0.547c0.395-0.374,0.621-0.893,0.625-1.437
			c0.025-3.087,0.454-6.029,1.275-8.748c1.29-4.284,3.269-7.443,6.05-9.658c1.806-1.439,3.897-2.217,6.392-2.38
			c0.634-0.041,1.301-0.062,1.982-0.062c2.65,0,5.258,0.312,7.7,0.632c0.485,0.064,1.005,0.095,1.587,0.095
			c0.368,0,0.781-0.013,1.302-0.042c1.246-0.069,2.804-0.633,3.148-2.925c0.125-0.827,0.252-1.652,0.377-2.468l0.098-0.617
			c0.101-0.637-0.112-1.284-0.571-1.737c-0.378-0.372-0.883-0.576-1.404-0.576c-0.113,0-0.228,0.01-0.341,0.029
			c-0.162,0.028-0.326,0.057-0.478,0.085c-1.288,0.23-2.748,0.491-4.169,0.793c-1.278,0.271-2.477,0.612-3.56,1.011
			c-0.314,0.115-0.624,0.173-0.922,0.173c-1.165,0-1.818-0.836-2-1.278c-0.292-0.711-0.228-1.492,0.174-2.09
			c0.399-0.593,0.451-1.354,0.137-1.995c-0.314-0.642-0.947-1.067-1.66-1.116c-0.192-0.013-0.385-0.024-0.577-0.033
			c-0.327-0.015-0.655-0.019-0.995-0.019c-0.001,0-0.003,0-0.005,0L21.6,6.347L21.014,6.35c-0.15,0-0.299-0.001-0.439-0.002
			c-1.183-0.021-2.153-0.985-2.163-2.149c-0.009-1.147,1.002-2.156,2.209-2.203C21.236,1.971,21.858,1.958,22.47,1.958 M22.47-0.042
			c-0.64,0-1.289,0.013-1.929,0.039c-2.293,0.09-4.146,1.982-4.129,4.217c0.018,2.239,1.869,4.093,4.127,4.133
			c0.159,0.002,0.317,0.003,0.475,0.003l0.596-0.003l0.58-0.003c0.299,0,0.598,0.003,0.896,0.017
			c0.176,0.008,0.354,0.018,0.532,0.03c-0.75,1.116-0.932,2.587-0.364,3.967c0.516,1.253,1.906,2.517,3.849,2.517
			c0.535,0,1.077-0.1,1.611-0.296c0.993-0.366,2.098-0.68,3.286-0.932c1.354-0.288,2.752-0.539,4.105-0.781
			c0.154-0.028,0.312-0.056,0.467-0.083L36.475,13.4c-0.127,0.827-0.254,1.654-0.379,2.483c-0.131,0.87-0.453,1.18-1.281,1.226
			c-0.469,0.026-0.848,0.039-1.191,0.039c-0.495,0-0.93-0.026-1.325-0.078c-2.512-0.329-5.193-0.649-7.962-0.649
			c-0.721,0-1.431,0.022-2.111,0.066c-2.917,0.19-5.373,1.109-7.509,2.811c-3.11,2.477-5.308,5.959-6.719,10.646
			c-0.876,2.901-1.333,6.031-1.36,9.308c-0.145-0.007-0.29-0.011-0.435-0.011c-0.545,0-1.077,0.048-1.582,0.142
			c-2.371,0.44-4.72,2.805-4.548,6c0.145,2.676,2.178,4.952,4.836,5.412c0.316,0.055,0.639,0.082,0.958,0.082
			c2.311,0,4.434-1.445,5.329-3.615c0.772,0.317,1.548,0.317,2.09,0.317h0.058l1.076-0.005c0.859-0.004,1.718-0.008,2.577-0.008
			c0.865,0,1.73,0.004,2.595,0.016c-0.259,0.325-0.537,0.643-0.829,0.977c-0.643,0.736-1.308,1.498-1.817,2.389
			c-0.789,1.376-0.808,2.979-0.05,4.285c0.782,1.352,2.235,2.156,3.888,2.156c3.908,0.002,7.111,0.229,10.079,0.709
			c4.426,0.717,7.433,2.094,9.75,4.461c0.939,0.959,2.065,1.424,3.443,1.424c0.174,0,0.35-0.008,0.53-0.021
			c1.456-0.118,2.442-0.9,2.854-2.262c0.563-1.875,0.074-3.592-1.491-5.246c-3.019-3.176-7.019-5.393-12.234-6.781
			c-0.144-0.037-0.286-0.072-0.43-0.107c1.571-0.808,3.159-1.746,4.6-2.955c2.058-1.73,3.132-3.838,3.194-6.262
			c0.051-2.057-0.702-3.988-2.118-5.439c-1.409-1.444-3.308-2.24-5.343-2.24c-0.129,0-0.258,0.004-0.387,0.01
			c-1.171,0.061-2.25,0.297-3.229,0.711c1.158-1.452,2.401-2.128,3.903-2.128c0.177,0,0.357,0.01,0.545,0.029
			c0.257,0.026,0.514,0.047,0.771,0.068c0.284,0.023,0.568,0.046,0.854,0.078c3.298,0.375,5.354,2.182,6.107,5.368
			c0.645,2.714,0.467,5.384-0.527,7.935c-0.377,0.968-0.803,1.904-1.254,2.897c-0.217,0.474-0.434,0.95-0.646,1.437
			c-0.186,0.421-0.061,0.914,0.305,1.193c0.18,0.139,0.396,0.209,0.61,0.209c0.222,0,0.44-0.072,0.623-0.219
			c0.063-0.051,0.128-0.098,0.188-0.143c0.17-0.125,0.362-0.266,0.543-0.459l1.043-1.104c1.25-1.32,2.543-2.688,3.783-4.066
			c1.258-1.402,2.151-3.111,2.731-5.228c1.056-3.829,1.321-7.753,1.446-11.43c1.845-0.143,3.466-0.313,4.979-0.523
			c3.278-0.456,6.003-2.469,7.288-5.385c1.273-2.889,0.93-6.221-0.923-8.914c-1.015-1.473-2.181-2.846-3.31-4.173
			c-0.256-0.301-0.511-0.602-0.765-0.903c-2.416-2.877-5.405-4.427-8.882-4.604c-0.488-0.025-1.057-0.053-1.616-0.053
			c-1.169,0-2.702,0.099-4.196,0.872c-0.23,0.119-0.377,0.133-0.467,0.133c-0.16,0-0.354-0.05-0.627-0.163
			C35.854,1.355,29.11-0.042,22.47-0.042L22.47-0.042z"/>
	</g>
	<path fill="#FFFDFE" d="M53.402,16.344h-0.02c-1.268,0-2.339-1.076-2.339-2.349c0.001-1.257,1.097-2.36,2.343-2.36
		c1.316,0.009,2.332,1.059,2.328,2.389C55.71,15.292,54.672,16.334,53.402,16.344h-0.02H53.402z"/>
</g>
</svg>
