<?xml version="1.0" encoding="utf-8"?>
<!-- Generator: Adobe Illustrator 16.0.0, SVG Export Plug-In . SVG Version: 6.00 Build 0)  -->
<!DOCTYPE svg PUBLIC "-//W3C//DTD SVG 1.1//EN" "http://www.w3.org/Graphics/SVG/1.1/DTD/svg11.dtd">
<svg version="1.1" xmlns="http://www.w3.org/2000/svg" xmlns:xlink="http://www.w3.org/1999/xlink" x="0px" y="0px" width="64px"
	 height="64px" viewBox="0 0 64 64" enable-background="new 0 0 64 64" xml:space="preserve">
<g>
	<g>
		<path fill="#231F20" d="M62.375,0.754c-0.155,0.64-0.801,2.369-1.886,2.672c-0.959,0.268-2.125-0.659-2.933-1.494
			c-1.382-1.414-2.921-2.054-4.574-1.914c-2.694,0.23-4.891,2.515-5.825,3.648c-3.082-1.85-7.089-1.14-9.308,1.827l-4.924,6.588
			c-2.384,3.189-1.775,7.76,1.355,10.19c3.136,2.429,7.625,1.808,10.01-1.381l4.924-6.591c2.213-2.952,1.821-7.065-0.729-9.594
			c0.805-0.961,2.595-2.806,4.627-2.983c1.153-0.102,2.218,0.367,3.239,1.416c1.64,1.682,3.183,2.333,4.58,1.937
			c2.217-0.63,2.988-3.581,3.067-3.917L62.375,0.754z M47.879,13.264l-4.924,6.59c-1.823,2.441-5.256,2.911-7.653,1.055
			s-2.863-5.352-1.041-7.79l4.93-6.592c1.818-2.439,5.256-2.915,7.653-1.056C49.238,7.329,49.705,10.824,47.879,13.264z"/>
	</g>
	<g>
		<path fill="#231F20" d="M39.751,30.415c-0.16,0.761-0.858,2.81-2.119,3.203c-1.11,0.348-2.512-0.705-3.49-1.65
			c-1.659-1.604-3.48-2.302-5.424-2.08c-3.146,0.361-9.712,8.907-10.773,10.267c-3.662-2.06-8.342-1.085-10.838,2.464l-5.545,7.895
			c-2.686,3.821-1.819,9.156,1.934,11.897c3.753,2.735,8.991,1.847,11.68-1.972l5.548-7.898c2.482-3.535,1.896-8.345-1.175-11.215
			c0.91-1.156,7.017-9.172,9.391-9.446c1.349-0.157,2.609,0.352,3.843,1.544c1.982,1.913,3.806,2.626,5.431,2.108
			c2.581-0.812,3.383-4.299,3.466-4.693L39.751,30.415z M19.123,51.376l-5.551,7.894c-2.053,2.927-6.06,3.603-8.929,1.511
			c-2.871-2.093-3.535-6.171-1.478-9.097l5.545-7.896c2.055-2.926,6.064-3.602,8.934-1.506
			C20.515,44.374,21.177,48.451,19.123,51.376z"/>
	</g>
	<g>
		<path fill="#231F20" d="M62.579,39.222c-0.118,0.562-0.634,2.073-1.564,2.362c-0.818,0.257-1.853-0.52-2.575-1.217
			c-1.224-1.185-2.567-1.698-4.002-1.535c-2.319,0.268-7.166,6.572-7.947,7.575c-2.701-1.519-6.154-0.801-7.998,1.817l-4.089,5.826
			c-1.981,2.817-1.343,6.754,1.426,8.777c2.769,2.018,6.633,1.362,8.616-1.455l4.094-5.827c1.831-2.607,1.398-6.154-0.867-8.273
			c0.673-0.854,5.177-6.767,6.929-6.969c0.996-0.116,1.925,0.259,2.836,1.138c1.463,1.412,2.809,1.937,4.008,1.556
			c1.902-0.598,2.495-3.173,2.556-3.462L62.579,39.222z M47.358,54.686l-4.096,5.825c-1.515,2.157-4.47,2.657-6.585,1.114
			c-2.119-1.544-2.609-4.554-1.092-6.711l4.091-5.825c1.515-2.159,4.474-2.657,6.591-1.111
			C48.386,49.52,48.875,52.528,47.358,54.686z"/>
	</g>
	<g>
		<path fill="#231F20" d="M28.739,0.701c-0.145,0.596-0.744,2.203-1.753,2.485c-0.891,0.25-1.976-0.612-2.727-1.39
			c-1.285-1.314-2.716-1.909-4.253-1.779C17.5,0.231,15.458,2.356,14.588,3.41c-2.866-1.721-6.593-1.06-8.655,1.698l-4.579,6.126
			c-2.216,2.965-1.651,7.217,1.261,9.476c2.917,2.258,7.089,1.682,9.309-1.285l4.578-6.128c2.059-2.745,1.693-6.571-0.679-8.923
			c0.749-0.894,2.414-2.609,4.303-2.774c1.073-0.094,2.063,0.342,3.013,1.317c1.524,1.563,2.958,2.17,4.258,1.801
			c2.061-0.586,2.778-3.33,2.852-3.643L28.739,0.701z M15.259,12.333l-4.578,6.129c-1.696,2.269-4.888,2.707-7.117,0.979
			c-2.229-1.728-2.663-4.976-0.968-7.243L7.181,6.07c1.69-2.268,4.887-2.711,7.117-0.982C16.524,6.815,16.957,10.064,15.259,12.333z
			"/>
	</g>
</g>
</svg>
