<?xml version="1.0" encoding="utf-8"?>
<!-- Generator: Adobe Illustrator 16.0.0, SVG Export Plug-In . SVG Version: 6.00 Build 0)  -->
<!DOCTYPE svg PUBLIC "-//W3C//DTD SVG 1.1//EN" "http://www.w3.org/Graphics/SVG/1.1/DTD/svg11.dtd">
<svg version="1.1" id="Capa_1" xmlns="http://www.w3.org/2000/svg" xmlns:xlink="http://www.w3.org/1999/xlink" x="0px" y="0px"
	 width="64px" height="64px" viewBox="0 0 64 64" enable-background="new 0 0 64 64" xml:space="preserve">
<g>
	<path fill="#231F20" d="M54.666,0.616c-0.127,0.523-0.654,1.936-1.541,2.184c-0.782,0.219-1.736-0.538-2.396-1.221
		C49.6,0.424,48.343-0.099,46.99,0.015c-2.2,0.188-3.995,2.055-4.76,2.981c-2.516-1.511-5.793-0.931-7.604,1.493l-4.025,5.383
		c-1.948,2.606-1.451,6.342,1.109,8.327c2.561,1.985,6.229,1.478,8.178-1.128l4.025-5.386c1.807-2.412,1.488-5.774-0.596-7.84
		c0.658-0.786,2.121-2.293,3.781-2.438c0.944-0.083,1.813,0.3,2.648,1.157c1.341,1.374,2.6,1.907,3.743,1.583
		c1.81-0.515,2.44-2.926,2.506-3.201L54.666,0.616z M42.82,10.839l-4.023,5.385c-1.49,1.995-4.295,2.379-6.254,0.862
		c-1.958-1.517-2.339-4.373-0.85-6.365l4.028-5.387c1.487-1.993,4.295-2.382,6.254-0.863C43.932,5.989,44.313,8.845,42.82,10.839z"
		/>
</g>
<g>
	<path fill="#231F20" d="M53.709,22.82c-0.146,0.696-0.787,2.576-1.943,2.936c-1.019,0.319-2.304-0.646-3.201-1.513
		c-1.521-1.471-3.192-2.111-4.974-1.907c-2.885,0.331-8.907,8.168-9.88,9.415c-3.358-1.888-7.65-0.994-9.939,2.259l-5.085,7.241
		c-2.463,3.504-1.668,8.396,1.773,10.91c3.442,2.509,8.245,1.694,10.711-1.808l5.088-7.244c2.277-3.241,1.738-7.652-1.077-10.284
		c0.834-1.061,6.434-8.411,8.612-8.662c1.237-0.144,2.392,0.323,3.524,1.416c1.818,1.755,3.49,2.408,4.981,1.934
		c2.366-0.744,3.101-3.943,3.177-4.304L53.709,22.82z M34.791,42.041l-5.09,7.239c-1.883,2.683-5.557,3.304-8.188,1.385
		c-2.633-1.919-3.242-5.659-1.355-8.342l5.085-7.24c1.884-2.684,5.561-3.303,8.192-1.381C36.068,35.62,36.676,39.359,34.791,42.041z
		"/>
</g>
<path fill="none" stroke="#231F20" stroke-width="3" stroke-miterlimit="10" d="M24.064,23.15
	C13.621,24.909,6.528,35.003,8.262,45.639c1.729,10.639,11.635,17.858,22.08,16.098c10.446-1.766,17.539-11.852,15.809-22.488
	C44.421,28.611,34.509,21.389,24.064,23.15"/>
</svg>
