<?xml version="1.0" encoding="utf-8"?>
<!-- Generator: Adobe Illustrator 16.0.0, SVG Export Plug-In . SVG Version: 6.00 Build 0)  -->
<!DOCTYPE svg PUBLIC "-//W3C//DTD SVG 1.1//EN" "http://www.w3.org/Graphics/SVG/1.1/DTD/svg11.dtd">
<svg version="1.1" id="Capa_1" xmlns="http://www.w3.org/2000/svg" xmlns:xlink="http://www.w3.org/1999/xlink" x="0px" y="0px"
	 width="64px" height="64px" viewBox="0 0 64 64" enable-background="new 0 0 64 64" xml:space="preserve">
<g>
	<g>
		<path fill="#231F20" d="M-0.001,26.727c0-9.568,7.6-17.324,16.979-17.324l0,0c9.379,0,16.979,7.755,16.979,17.324l0,0
			c0,9.566-7.598,17.323-16.979,17.323l0,0C7.599,44.05-0.001,36.295-0.001,26.727L-0.001,26.727z M2.611,26.727
			c0.012,8.094,6.433,14.646,14.367,14.659l0,0c7.938-0.013,14.352-6.565,14.368-14.659l0,0
			c-0.017-8.094-6.432-14.644-14.368-14.662l0,0C9.044,12.083,2.624,18.632,2.611,26.727L2.611,26.727z"/>
	</g>
	<path fill="#231F20" d="M16.819,64c-0.771,0-1.394-0.639-1.394-1.422V34.602c0-0.786,0.623-1.421,1.394-1.421
		c0.769,0,1.394,0.633,1.394,1.421V62.58C18.213,63.363,17.588,64,16.819,64"/>
	<path fill="#231F20" d="M9.376,55.23c0-0.788,0.625-1.425,1.394-1.425h11.869c0.771,0,1.394,0.637,1.394,1.425
		c0,0.781-0.624,1.421-1.394,1.421H10.77C9.999,56.651,9.376,56.014,9.376,55.23"/>
	<g>
		<path fill="#231F20" d="M49.626,38.975c-6.63,6.766-17.382,6.77-24.013,0l0,0c-6.633-6.766-6.631-17.735,0.001-24.501l0,0
			c6.63-6.765,17.38-6.766,24.012,0.002l0,0C56.258,21.239,56.258,32.207,49.626,38.975L49.626,38.975z M47.779,37.091
			c5.601-5.735,5.602-14.998,0-20.734l0,0c-5.623-5.712-14.697-5.71-20.319,0l0,0c-5.597,5.737-5.602,14.996,0,20.734l0,0
			C33.082,42.802,42.16,42.804,47.779,37.091L47.779,37.091z"/>
	</g>
	<path fill="#231F20" d="M63.564,0.48c0.545,0.558,0.543,1.458,0,2.011l-19.39,19.785c-0.542,0.554-1.425,0.554-1.972,0
		c-0.541-0.556-0.543-1.458,0-2.013L61.594,0.48C62.137-0.072,63.02-0.072,63.564,0.48"/>
	<path fill="#231F20" d="M62.584,15.009c-0.771,0-1.393-0.64-1.393-1.422V1.477c-0.002-0.785,0.623-1.422,1.395-1.422
		c0.768,0.003,1.394,0.637,1.394,1.422l0.001,12.109C63.979,14.369,63.353,15.009,62.584,15.009"/>
	<path fill="#231F20" d="M49.345,1.421C49.345,0.639,49.97,0,50.736,0h11.873c0.766,0,1.392,0.639,1.392,1.421
		c0,0.785-0.62,1.425-1.392,1.423L50.738,2.846C49.97,2.846,49.345,2.208,49.345,1.421"/>
</g>
</svg>
