<?xml version="1.0" encoding="utf-8"?>
<!-- Generator: Adobe Illustrator 16.0.0, SVG Export Plug-In . SVG Version: 6.00 Build 0)  -->
<!DOCTYPE svg PUBLIC "-//W3C//DTD SVG 1.1//EN" "http://www.w3.org/Graphics/SVG/1.1/DTD/svg11.dtd">
<svg version="1.1" xmlns="http://www.w3.org/2000/svg" xmlns:xlink="http://www.w3.org/1999/xlink" x="0px" y="0px" width="64px"
	 height="64px" viewBox="0 0 64 64" enable-background="new 0 0 64 64" xml:space="preserve">
<g>
	<g>
		<path fill="#231F20" d="M32,3.001C47.99,3.001,61,16.01,61,32S47.99,61,32,61C16.009,61,3,47.99,3,32S16.009,3.001,32,3.001
			 M32,0.001C14.327,0.001,0,14.328,0,32c0,17.674,14.327,32,32,32s32-14.326,32-32C64,14.328,49.673,0.001,32,0.001L32,0.001z"/>
	</g>
	<g>
		<path fill="#231F20" d="M42.597,19.427c6.157,0,11.167,5.008,11.167,11.166s-5.01,11.167-11.167,11.167
			c-6.158,0-11.168-5.01-11.168-11.167S36.441,19.427,42.597,19.427 M42.597,17.997c-6.957,0-12.599,5.639-12.599,12.597
			c0,6.956,5.64,12.598,12.599,12.598c6.958,0,12.598-5.642,12.598-12.598C55.194,23.636,49.555,17.997,42.597,17.997L42.597,17.997
			z"/>
	</g>
	<path fill="#231F20" d="M44.483,26.582c-2.683,0-4.854,2.174-4.854,4.856c0,2.682,2.175,4.854,4.854,4.854
		c2.684,0,4.855-2.174,4.855-4.854C49.341,28.755,47.167,26.582,44.483,26.582z M44.483,35.198c-1.34,0-2.427-1.089-2.427-2.431
		c0-1.338,1.087-2.426,2.427-2.426c1.342,0,2.431,1.088,2.427,2.426C46.91,34.109,45.823,35.198,44.483,35.198z"/>
</g>
</svg>
