<?xml version="1.0" encoding="utf-8"?>
<!-- Generator: Adobe Illustrator 16.0.0, SVG Export Plug-In . SVG Version: 6.00 Build 0)  -->
<!DOCTYPE svg PUBLIC "-//W3C//DTD SVG 1.1//EN" "http://www.w3.org/Graphics/SVG/1.1/DTD/svg11.dtd">
<svg version="1.1" xmlns="http://www.w3.org/2000/svg" xmlns:xlink="http://www.w3.org/1999/xlink" x="0px" y="0px" width="64px"
	 height="64px" viewBox="0 0 64 64" enable-background="new 0 0 64 64" xml:space="preserve">
<g>
	<g>
		<g>
			<path fill="#231F20" d="M14.999,35.408c7.495,0,13.593,6.098,13.593,13.592c0,7.496-6.098,13.594-13.593,13.594
				C7.503,62.594,1.406,56.496,1.406,49C1.406,41.506,7.503,35.408,14.999,35.408 M14.999,34.002C6.715,34.002,0,40.717,0,49
				c0,8.285,6.715,15,14.999,15s14.999-6.715,14.999-15C29.998,40.717,23.283,34.002,14.999,34.002L14.999,34.002z"/>
		</g>
		<g>
			<path fill="#231F20" d="M19.966,43.107c2.886,0,5.234,2.348,5.234,5.233c0,2.887-2.348,5.234-5.234,5.234
				c-2.886,0-5.235-2.349-5.235-5.234S17.081,43.107,19.966,43.107 M19.966,42.438c-3.261,0-5.906,2.643-5.906,5.904
				c0,3.26,2.644,5.904,5.906,5.904c3.261,0,5.905-2.645,5.905-5.904C25.87,45.08,23.227,42.438,19.966,42.438L19.966,42.438z"/>
		</g>
		<path fill="#231F20" d="M20.85,46.461c-1.257,0-2.275,1.02-2.275,2.276s1.02,2.274,2.275,2.274c1.258,0,2.276-1.019,2.276-2.274
			C23.127,47.479,22.108,46.461,20.85,46.461z M20.85,50.5c-0.628,0-1.137-0.511-1.137-1.14c0-0.628,0.509-1.138,1.137-1.138
			c0.629,0,1.14,0.51,1.138,1.138C21.988,49.989,21.478,50.5,20.85,50.5z"/>
	</g>
	<g>
		<g>
			<path fill="#231F20" d="M47.251,5.654c8.369,0,15.179,6.809,15.179,15.178c0,8.37-6.81,15.18-15.179,15.18
				c-8.371,0-15.179-6.81-15.179-15.18C32.072,12.463,38.88,5.654,47.251,5.654 M47.251,4.084c-9.25,0-16.749,7.499-16.749,16.748
				c0,9.251,7.499,16.75,16.749,16.75S64,30.083,64,20.832C64,11.583,56.501,4.084,47.251,4.084L47.251,4.084z"/>
		</g>
		<g>
			<path fill="#231F20" d="M52.797,14.252c3.224,0,5.846,2.622,5.846,5.844c0,3.224-2.622,5.846-5.846,5.846
				c-3.222,0-5.845-2.624-5.845-5.846S49.576,14.252,52.797,14.252 M52.797,13.504c-3.64,0-6.594,2.951-6.594,6.593
				c0,3.639,2.952,6.592,6.594,6.592c3.643,0,6.595-2.953,6.595-6.592C59.391,16.455,56.439,13.504,52.797,13.504L52.797,13.504z"/>
		</g>
		<path fill="#231F20" d="M53.784,17.997c-1.403,0-2.54,1.139-2.54,2.542c0,1.403,1.139,2.539,2.54,2.539
			c1.405,0,2.542-1.136,2.542-2.539C56.327,19.134,55.189,17.997,53.784,17.997z M53.784,22.506c-0.701,0-1.27-0.569-1.27-1.272
			c0-0.701,0.568-1.271,1.27-1.271c0.703,0,1.272,0.569,1.271,1.271C55.055,21.937,54.485,22.506,53.784,22.506z"/>
	</g>
	<g>
		<g>
			<path fill="#231F20" d="M10.749,1.008c5.372,0,9.741,4.37,9.741,9.741c0,5.372-4.37,9.741-9.741,9.741
				c-5.372,0-9.741-4.37-9.741-9.741C1.008,5.377,5.377,1.008,10.749,1.008 M10.749,0C4.813,0,0,4.812,0,10.749
				c0,5.937,4.813,10.749,10.749,10.749s10.749-4.812,10.749-10.749C21.498,4.812,16.685,0,10.749,0L10.749,0z"/>
		</g>
		<g>
			<path fill="#231F20" d="M14.309,6.525c2.069,0,3.751,1.683,3.751,3.75c0,2.069-1.682,3.751-3.751,3.751
				c-2.068,0-3.751-1.684-3.751-3.751S12.241,6.525,14.309,6.525 M14.309,6.045c-2.336,0-4.232,1.894-4.232,4.231
				c0,2.335,1.895,4.231,4.232,4.231s4.232-1.896,4.232-4.231C18.54,7.939,16.646,6.045,14.309,6.045L14.309,6.045z"/>
		</g>
		<path fill="#231F20" d="M14.942,8.929c-0.901,0-1.63,0.73-1.63,1.631c0,0.9,0.73,1.629,1.63,1.629
			c0.902,0,1.631-0.729,1.631-1.629C16.574,9.659,15.844,8.929,14.942,8.929z M14.942,11.823c-0.45,0-0.814-0.365-0.814-0.816
			c0-0.45,0.364-0.815,0.814-0.815c0.451,0,0.817,0.365,0.815,0.815C15.757,11.458,15.392,11.823,14.942,11.823z"/>
	</g>
</g>
</svg>
