<?xml version="1.0" encoding="utf-8"?>
<!-- Generator: Adobe Illustrator 16.0.0, SVG Export Plug-In . SVG Version: 6.00 Build 0)  -->
<!DOCTYPE svg PUBLIC "-//W3C//DTD SVG 1.1//EN" "http://www.w3.org/Graphics/SVG/1.1/DTD/svg11.dtd">
<svg version="1.1" xmlns="http://www.w3.org/2000/svg" xmlns:xlink="http://www.w3.org/1999/xlink" x="0px" y="0px" width="64px"
	 height="64px" viewBox="0 0 64 64" enable-background="new 0 0 64 64" xml:space="preserve">
<g>
	<path d="M22.47,0.958c6.812,0,13.348,1.463,19.662,4.074c0.359,0.148,0.682,0.239,1.009,0.239c0.295,0,0.594-0.074,0.926-0.245
		c1.184-0.612,2.45-0.76,3.737-0.76c0.52,0,1.042,0.024,1.564,0.051c3.38,0.174,6.041,1.718,8.168,4.25
		c1.376,1.637,2.806,3.244,4.015,5c3.544,5.153,0.525,11.879-5.679,12.741c-1.74,0.242-3.49,0.411-5.241,0.54
		c-0.632,0.047-0.583,0.384-0.597,0.802c-0.125,3.821-0.393,7.628-1.415,11.338c-0.49,1.786-1.269,3.438-2.512,4.822
		c-1.571,1.747-3.199,3.444-4.812,5.155c-0.176,0.188-0.4,0.323-0.626,0.503c0.655-1.489,1.347-2.907,1.916-4.373
		c1.08-2.771,1.256-5.634,0.569-8.527c-0.855-3.611-3.259-5.709-6.97-6.131c-0.544-0.061-1.09-0.09-1.635-0.146
		c-0.221-0.023-0.437-0.034-0.647-0.034c-2.001,0-3.522,1.011-4.76,2.599c-0.906,1.159-1.601,2.435-2.053,3.828
		c0.058,0.048,0.115,0.094,0.174,0.143c0.134-0.187,0.255-0.384,0.409-0.555c1.489-1.675,3.398-2.487,5.606-2.599
		c0.113-0.006,0.226-0.009,0.337-0.009c3.652,0,6.552,2.972,6.461,6.655c-0.059,2.298-1.116,4.073-2.837,5.521
		c-1.781,1.495-3.817,2.571-5.907,3.567c-0.292,0.141-0.584,0.284-0.869,0.595c0.998,0.208,2.007,0.373,2.992,0.634
		c4.462,1.188,8.529,3.097,11.765,6.501c1.147,1.214,1.769,2.575,1.261,4.271c-0.296,0.981-0.955,1.471-1.979,1.554
		c-0.152,0.013-0.303,0.019-0.449,0.019c-1.043,0-1.946-0.325-2.728-1.122c-2.823-2.887-6.429-4.121-10.304-4.749
		c-3.39-0.55-6.808-0.72-10.239-0.722c-2.679,0-4.303-2.621-2.97-4.945c0.697-1.218,1.762-2.222,2.64-3.338
		c0.296-0.378,0.522-0.805,0.781-1.21c-0.486-0.109-0.971-0.303-1.459-0.311c-0.926-0.014-1.853-0.018-2.779-0.018
		c-1.218,0-2.436,0.007-3.654,0.012c-0.019,0-0.038,0-0.056,0c-0.945,0-1.868-0.056-2.6-0.878c-0.139,0.406-0.239,0.74-0.368,1.062
		c-0.728,1.902-2.521,3.114-4.452,3.114c-0.261,0-0.524-0.021-0.788-0.067c-2.218-0.384-3.891-2.316-4.008-4.48
		c-0.139-2.581,1.708-4.587,3.732-4.963c0.455-0.085,0.929-0.125,1.398-0.125c0.195,0,0.39,0.007,0.583,0.021
		c0.206,0.015,0.362,0.028,0.48,0.028c0.363,0,0.371-0.133,0.372-0.797c0.005-3.148,0.407-6.244,1.318-9.261
		c1.193-3.964,3.073-7.515,6.385-10.152c2.03-1.617,4.323-2.424,6.951-2.595c0.685-0.044,1.367-0.064,2.046-0.064
		c2.629,0,5.225,0.3,7.83,0.641c0.479,0.063,0.968,0.087,1.457,0.087c0.416,0,0.834-0.017,1.247-0.04
		c1.333-0.074,2.018-0.761,2.216-2.075c0.204-1.355,0.414-2.707,0.62-4.059c0.009-0.065-0.013-0.135-0.042-0.405
		c-1.979,0.366-3.935,0.689-5.873,1.102c-1.16,0.246-2.313,0.562-3.424,0.971c-0.442,0.163-0.867,0.235-1.265,0.235
		c-1.429,0-2.524-0.926-2.924-1.897c-0.654-1.591-0.064-3.437,1.654-4.156c0.035-0.015,0.055-0.069,0.176-0.228
		c-1.013-0.085-1.944-0.19-2.877-0.232c-0.313-0.014-0.627-0.018-0.941-0.018c-0.392,0-0.784,0.006-1.175,0.006
		c-0.152,0-0.305-0.001-0.458-0.003c-1.727-0.03-3.131-1.438-3.145-3.14c-0.013-1.728,1.414-3.141,3.169-3.21
		C21.212,0.971,21.842,0.958,22.47,0.958 M53.383,17.344c0.009,0,0.019,0,0.027,0c1.826-0.016,3.298-1.493,3.305-3.317
		c0.006-1.874-1.463-3.378-3.307-3.392c-0.007,0-0.015,0-0.022,0c-1.804,0-3.34,1.543-3.342,3.36
		C50.044,15.817,51.57,17.344,53.383,17.344 M22.47-0.042c-0.64,0-1.289,0.013-1.929,0.039c-2.293,0.09-4.146,1.982-4.129,4.217
		c0.018,2.239,1.869,4.093,4.127,4.133c0.159,0.002,0.317,0.003,0.475,0.003l0.596-0.003l0.58-0.003
		c0.299,0,0.598,0.003,0.896,0.017c0.176,0.008,0.354,0.018,0.532,0.03c-0.75,1.116-0.932,2.587-0.364,3.967
		c0.516,1.253,1.906,2.517,3.849,2.517c0.535,0,1.077-0.1,1.611-0.296c0.993-0.366,2.098-0.68,3.286-0.932
		c1.354-0.288,2.752-0.539,4.105-0.781c0.155-0.028,0.312-0.056,0.467-0.083L36.475,13.4c-0.127,0.827-0.254,1.654-0.379,2.483
		c-0.131,0.87-0.454,1.18-1.282,1.226c-0.469,0.026-0.847,0.039-1.191,0.039c-0.495,0-0.929-0.026-1.325-0.078
		c-2.512-0.329-5.193-0.649-7.962-0.649c-0.721,0-1.431,0.022-2.111,0.066c-2.917,0.19-5.373,1.109-7.509,2.811
		c-3.11,2.477-5.308,5.959-6.719,10.646c-0.876,2.901-1.333,6.031-1.36,9.308c-0.145-0.007-0.29-0.011-0.435-0.011
		c-0.545,0-1.077,0.048-1.582,0.142c-2.371,0.44-4.72,2.805-4.548,6c0.145,2.676,2.178,4.952,4.836,5.412
		c0.316,0.055,0.639,0.082,0.958,0.082c2.311,0,4.434-1.446,5.329-3.615c0.772,0.317,1.548,0.317,2.09,0.317h0.058l1.076-0.005
		c0.859-0.003,1.718-0.007,2.577-0.007c0.865,0,1.73,0.004,2.595,0.015c-0.259,0.325-0.537,0.643-0.829,0.977
		c-0.643,0.736-1.308,1.497-1.817,2.388c-0.789,1.376-0.808,2.979-0.05,4.286c0.782,1.351,2.235,2.156,3.888,2.156
		c3.908,0.002,7.111,0.228,10.079,0.709c4.426,0.717,7.433,2.093,9.75,4.461c0.939,0.958,2.065,1.423,3.442,1.423
		c0.174,0,0.351-0.007,0.531-0.021c1.456-0.118,2.443-0.9,2.854-2.262c0.563-1.875,0.074-3.591-1.491-5.246
		c-3.018-3.176-7.019-5.393-12.234-6.781c-0.143-0.037-0.286-0.073-0.43-0.107c1.572-0.808,3.159-1.746,4.6-2.956
		c2.058-1.73,3.132-3.837,3.194-6.261c0.051-2.057-0.702-3.988-2.118-5.44c-1.409-1.444-3.307-2.24-5.343-2.24
		c-0.128,0-0.257,0.004-0.387,0.01c-1.171,0.06-2.25,0.297-3.229,0.71c1.158-1.451,2.401-2.127,3.903-2.127
		c0.177,0,0.358,0.01,0.545,0.029c0.257,0.026,0.514,0.047,0.771,0.068c0.285,0.023,0.569,0.046,0.854,0.078
		c3.298,0.375,5.354,2.182,6.108,5.368c0.644,2.714,0.466,5.383-0.528,7.934c-0.376,0.968-0.803,1.905-1.254,2.898
		c-0.216,0.474-0.433,0.95-0.646,1.436c-0.186,0.421-0.06,0.914,0.305,1.194c0.18,0.139,0.396,0.208,0.61,0.208
		c0.221,0,0.44-0.072,0.623-0.218c0.063-0.051,0.128-0.098,0.189-0.143c0.17-0.125,0.362-0.266,0.543-0.459l1.042-1.103
		c1.25-1.321,2.543-2.688,3.783-4.067c1.259-1.402,2.152-3.111,2.732-5.227c1.056-3.829,1.322-7.753,1.446-11.43
		c1.845-0.143,3.466-0.313,4.98-0.523c3.278-0.456,6.003-2.469,7.288-5.385c1.273-2.889,0.929-6.221-0.923-8.914
		c-1.015-1.473-2.181-2.846-3.309-4.173c-0.256-0.301-0.511-0.602-0.765-0.903c-2.416-2.877-5.405-4.427-8.882-4.605
		c-0.488-0.025-1.056-0.053-1.616-0.053c-1.169,0-2.702,0.099-4.196,0.872c-0.231,0.119-0.377,0.133-0.467,0.133
		c-0.16,0-0.354-0.05-0.627-0.163C35.854,1.355,29.11-0.042,22.47-0.042L22.47-0.042z M53.383,17.344v-1
		c-1.268,0-2.339-1.076-2.339-2.349c0.001-1.257,1.096-2.36,2.342-2.36c1.317,0.009,2.333,1.059,2.329,2.389
		c-0.005,1.268-1.043,2.31-2.313,2.32L53.383,17.344L53.383,17.344z"/>
</g>
</svg>
