<?xml version="1.0" encoding="utf-8"?>
<!-- Generator: Adobe Illustrator 16.0.0, SVG Export Plug-In . SVG Version: 6.00 Build 0)  -->
<!DOCTYPE svg PUBLIC "-//W3C//DTD SVG 1.1//EN" "http://www.w3.org/Graphics/SVG/1.1/DTD/svg11.dtd">
<svg version="1.1" id="Capa_1" xmlns="http://www.w3.org/2000/svg" xmlns:xlink="http://www.w3.org/1999/xlink" x="0px" y="0px"
	 width="64px" height="64px" viewBox="0 0 64 64" enable-background="new 0 0 64 64" xml:space="preserve">
<g>
	<path fill="none" stroke="#231F20" stroke-width="2" stroke-linejoin="round" stroke-miterlimit="10" d="M40.796,31.35
		c-0.002-0.922-0.614-1.689-1.453-1.936c0.009,0.02,0,0,0.009,0.02c-3.576-0.856-11.188-0.733-14.686-0.02
		c-0.119,0.034-0.23,0.082-0.342,0.137c-0.778,0.328-1.284,1.387-1.072,2.204c0.188,0.927,0.999,1.622,1.976,1.622h1.42
		c0.374,1.037,0.115,1.992-0.773,2.869l0.006,0.006c-1.544,1.566-2.504,3.721-2.504,6.098v12.248l0.117,0.623
		c0.303,0.982,1.202,1.705,2.281,1.705h12.446c1.077,0,1.979-0.723,2.28-1.705l0.116-0.49V42.35c0-2.377-0.961-4.527-2.502-6.096
		l0.005-0.006c-0.896-0.883-1.151-1.848-0.765-2.891l1.424,0.02c0.963,0,1.764-0.679,1.965-1.588
		C40.789,31.637,40.796,31.498,40.796,31.35C40.794,30.428,40.796,31.366,40.796,31.35z"/>
	<g>
		<path fill="#231F20" d="M31.999,8.944L57.527,60H6.472L31.999,8.944 M31.999,0L0,64h64L31.999,0L31.999,0z"/>
	</g>
	<g>
		<path fill="#231F20" d="M29.442,40.38v4.396l4.986-5.199c0.239-0.251,0.443-0.438,0.611-0.557
			c0.169-0.119,0.393-0.181,0.672-0.181c0.365,0,0.66,0.106,0.885,0.321c0.227,0.214,0.338,0.475,0.338,0.781
			c0,0.371-0.189,0.738-0.572,1.104l-3.088,2.925l3.559,5.098c0.251,0.354,0.439,0.664,0.564,0.93s0.188,0.521,0.188,0.773
			c0,0.278-0.109,0.521-0.329,0.728c-0.22,0.205-0.519,0.308-0.894,0.308c-0.354,0-0.643-0.074-0.864-0.227s-0.41-0.354-0.563-0.604
			c-0.154-0.25-0.291-0.479-0.41-0.685l-3.003-4.619l-2.078,1.993v2.592c0,0.524-0.119,0.913-0.359,1.167
			c-0.239,0.255-0.547,0.382-0.923,0.382c-0.217,0-0.425-0.058-0.625-0.172c-0.199-0.113-0.354-0.269-0.462-0.462
			c-0.08-0.159-0.128-0.345-0.146-0.556c-0.017-0.211-0.025-0.518-0.025-0.916V40.38c0-0.514,0.112-0.897,0.338-1.155
			c0.226-0.256,0.531-0.385,0.92-0.385c0.382,0,0.69,0.127,0.928,0.381C29.324,39.475,29.442,39.861,29.442,40.38z"/>
	</g>
</g>
</svg>
