<?xml version="1.0" encoding="utf-8"?>
<!-- Generator: Adobe Illustrator 16.0.0, SVG Export Plug-In . SVG Version: 6.00 Build 0)  -->
<!DOCTYPE svg PUBLIC "-//W3C//DTD SVG 1.1//EN" "http://www.w3.org/Graphics/SVG/1.1/DTD/svg11.dtd">
<svg version="1.1" xmlns="http://www.w3.org/2000/svg" xmlns:xlink="http://www.w3.org/1999/xlink" x="0px" y="0px" width="64px"
	 height="64px" viewBox="0 0 64 64" enable-background="new 0 0 64 64" xml:space="preserve">
<g>
	<g>
		<path fill="#231F20" d="M31.999,8.944L57.527,60H6.472L31.999,8.944 M31.999,0L0,64h64L31.999,0L31.999,0z"/>
	</g>
	<g>
		<g>
			<path fill-rule="evenodd" clip-rule="evenodd" fill="#231F20" d="M45.27,46.318c0,2.82,0,5.642,0,8.465
				c0,1.036-0.388,1.911-1.132,2.621c-0.683,0.649-1.504,0.987-2.455,0.992c-1.156,0-2.313,0-3.469,0c-0.165,0-0.165,0-0.165-0.168
				c0-0.699,0.004-1.399-0.003-2.1c0-0.125,0.038-0.153,0.158-0.153c1.12,0.002,2.24,0,3.362,0c0.277,0,0.54-0.051,0.772-0.212
				c0.355-0.248,0.5-0.6,0.513-1.021c0-0.031,0-0.063,0-0.096c0-5.089,0-10.181,0-15.271c0-0.19,0-0.19-0.186-0.19
				c-2.273,0-4.547,0-6.819,0c-0.199,0-0.199,0-0.199-0.204c0-2.281,0-4.563,0-6.843c0-0.158-0.001-0.158-0.159-0.158
				c-3.516,0-7.03,0-10.542,0c-0.54,0-0.954,0.208-1.187,0.716c-0.087,0.189-0.101,0.395-0.101,0.598
				c-0.001,3.49-0.001,6.98-0.001,10.47c0,0.25,0.024,0.222-0.228,0.222c-0.68,0.002-1.36-0.002-2.041,0.005
				c-0.112,0-0.152-0.03-0.152-0.148c0.003-3.603-0.009-7.204,0.01-10.806c0.005-1.089,0.497-1.982,1.337-2.669
				c0.664-0.545,1.433-0.807,2.295-0.806c4.111,0.001,8.221,0.001,12.331-0.001c0.115,0,0.193,0.036,0.273,0.117
				c2.557,2.56,5.114,5.12,7.675,7.675c0.079,0.079,0.114,0.158,0.114,0.271C45.27,40.521,45.27,43.419,45.27,46.318z
				 M41.058,36.767c-0.994-0.994-2-1.999-2.992-2.991c0,0,0,0.031,0,0.063c0,0.927,0.003,1.854-0.004,2.782
				c0,0.117,0.037,0.148,0.152,0.148c0.85-0.005,1.701-0.003,2.553-0.003C40.876,36.767,40.983,36.767,41.058,36.767z"/>
			<path fill-rule="evenodd" clip-rule="evenodd" fill="#231F20" d="M35.664,54.786c0,0.358-0.004,0.719,0.001,1.079
				c0.002,0.1-0.031,0.131-0.131,0.131c-0.716-0.003-1.432-0.005-2.147,0c-0.112,0-0.143-0.034-0.143-0.144
				c0.003-0.704,0-1.407,0.004-2.112c0-0.113-0.03-0.15-0.147-0.148c-0.699,0.005-1.4,0-2.1,0.003
				c-0.117,0.002-0.16-0.026-0.16-0.151c0.008-0.705,0.004-1.408,0.004-2.112c0-0.155,0-0.156,0.163-0.156
				c0.696,0,1.391-0.003,2.088,0.003c0.125,0.002,0.154-0.038,0.152-0.156c-0.004-0.697-0.002-1.392-0.002-2.089
				c0-0.158,0-0.158,0.159-0.158c0.704,0,1.407,0.002,2.113-0.003c0.115-0.001,0.148,0.035,0.148,0.15
				c-0.005,0.703-0.002,1.407-0.005,2.112c-0.002,0.108,0.028,0.144,0.141,0.144c0.704-0.005,1.409,0,2.114-0.005
				c0.11,0,0.151,0.028,0.151,0.147c-0.007,0.707-0.007,1.417,0,2.123c0,0.128-0.044,0.153-0.161,0.151
				c-0.698-0.003-1.4,0.002-2.1-0.003c-0.117-0.002-0.148,0.036-0.146,0.148C35.668,54.09,35.664,54.438,35.664,54.786z"/>
		</g>
		
			<line fill-rule="evenodd" clip-rule="evenodd" fill="none" stroke="#231F20" stroke-miterlimit="10" x1="26.157" y1="40.375" x2="33.761" y2="40.375"/>
		
			<line fill-rule="evenodd" clip-rule="evenodd" fill="none" stroke="#231F20" stroke-miterlimit="10" x1="26.157" y1="38.854" x2="33.761" y2="38.854"/>
		
			<line fill-rule="evenodd" clip-rule="evenodd" fill="none" stroke="#231F20" stroke-miterlimit="10" x1="26.157" y1="37.503" x2="33.761" y2="37.503"/>
		
			<line fill-rule="evenodd" clip-rule="evenodd" fill="none" stroke="#231F20" stroke-miterlimit="10" x1="26.157" y1="36.15" x2="33.761" y2="36.15"/>
		<g>
			<path fill="#231F20" d="M18.728,58.399c0.583-1.03,1.267-2.305,2.051-3.823l2.211-4.242c0.688-1.312,1.261-2.445,1.714-3.403
				c0.729,0.012,1.243,0.018,1.546,0.018c0.532,0,1.053-0.006,1.563-0.018l1.201,3.437l2.61,7.108l0.361,0.924l-1.259-0.018
				c-0.291,0-0.78,0.007-1.469,0.018c-0.134-0.499-0.346-1.171-0.635-2.016c-0.289-0.847-0.535-1.533-0.737-2.059h-4.42
				c-0.655,1.333-1.293,2.69-1.915,4.074l-1.37-0.018C19.923,58.382,19.439,58.389,18.728,58.399z M24.212,52.577h3.219l-1.322-3.89
				l-0.68,1.414L24.212,52.577z"/>
		</g>
	</g>
</g>
</svg>
