<?xml version="1.0" encoding="utf-8"?>
<!-- Generator: Adobe Illustrator 16.0.0, SVG Export Plug-In . SVG Version: 6.00 Build 0)  -->
<!DOCTYPE svg PUBLIC "-//W3C//DTD SVG 1.1//EN" "http://www.w3.org/Graphics/SVG/1.1/DTD/svg11.dtd">
<svg version="1.1" id="Capa_1" xmlns="http://www.w3.org/2000/svg" xmlns:xlink="http://www.w3.org/1999/xlink" x="0px" y="0px"
	 width="64px" height="64px" viewBox="0 0 64 64" enable-background="new 0 0 64 64" xml:space="preserve">
<g>
	<g>
		<path fill="#231F20" d="M22.067,53.532C14.72,49.729,9.844,41.759,9.844,32.508l0,0c0-6.514,2.479-12.403,6.479-16.625l0,0
			c4.002-4.232,9.527-6.825,15.681-6.825l0,0c0.334,0,0.608,0.339,0.608,0.759l0,0c0,0.418-0.273,0.755-0.608,0.755l0,0
			c-5.882,0-11.131,2.487-14.897,6.47l0,0c-3.77,3.986-6.05,9.447-6.051,15.467l0,0c0.001,8.55,4.497,15.988,11.477,19.62l0,0
			c0.309,0.161,0.456,0.604,0.327,0.991l0,0c-0.097,0.29-0.322,0.466-0.56,0.466l0,0C22.222,53.587,22.144,53.571,22.067,53.532
			L22.067,53.532z"/>
	</g>
	<g>
		<path fill="#231F20" d="M30.492,50.732c-0.246-0.272-0.35-0.521-0.366-0.552l0,0c-0.451-0.976-0.834-1.235-1.139-1.373l0,0
			c-0.328-0.149-0.58-0.072-1.094-0.233l0,0c-0.46-0.183-0.706-0.619-0.795-0.927l0,0c-0.097-0.321-0.1-0.569-0.102-0.67l0,0
			c0-0.008,0-0.01,0-0.018l0,0l0,0c0-0.549,0.25-0.949,0.45-1.169l0,0c0.167-0.179,0.314-0.276,0.388-0.319l0,0l0,0
			c0.646-0.396,1.449-0.533,2.213-0.629l0,0c0.757-0.091,1.456-0.103,1.777-0.103l0,0c0.118,0,0.186,0.004,0.194,0.004l0,0l0,0
			c0.369,0.013,0.663,0.365,0.649,0.788l0,0c-0.009,0.427-0.319,0.758-0.688,0.75l0,0c0,0-0.052-0.005-0.155-0.005l0,0
			c-0.292,0-0.955,0.013-1.642,0.094l0,0c-0.68,0.074-1.403,0.252-1.707,0.452l0,0l-0.042,0.021v0.002
			c-0.017,0.014-0.04,0.03-0.059,0.055l0,0c-0.042,0.052-0.036,0.054-0.037,0.06l0,0v0.017l0,0c0,0,0.001,0.057,0.012,0.102l0,0
			c0.003,0.021,0.009,0.036,0.012,0.05l0,0c0.011,0,0.024,0.005,0.042,0.011l0,0c0.06,0.006,0.144,0.019,0.247,0.026l0,0
			c0.21,0.025,0.49,0.068,0.801,0.203l0,0c0.63,0.256,1.316,0.888,1.869,2.11l0,0h0.001l0,0l0,0c0.001,0.005,0.008,0.018,0.02,0.029
			l0,0c0.018,0.032,0.05,0.082,0.089,0.123l0,0c0.085,0.09,0.153,0.139,0.273,0.141l0,0h0.304c0.369,0,0.67,0.346,0.67,0.769l0,0
			c0,0.427-0.3,0.771-0.67,0.771l0,0h-0.305c-0.003,0-0.005,0-0.007,0l0,0C31.142,51.31,30.725,51.003,30.492,50.732L30.492,50.732z
			"/>
	</g>
	<g>
		<path fill="#231F20" d="M22.896,59.652c-2.417-0.023-4.368-2.271-4.37-5.041l0,0c0-1.175,0.354-2.263,0.939-3.109l0,0l0.027-0.042
			c0.097-0.148,0.169-0.223,0.341-0.435l0,0c0.162-0.194,0.379-0.455,0.637-0.757l0,0c0.512-0.601,1.174-1.377,1.833-2.142l0,0
			c1.316-1.526,2.609-3.021,2.63-3.046l0,0c3.08-3.27,3.749-7.704,3.752-10.92l0,0c0-0.75-0.036-1.422-0.084-1.998l0,0
			c-0.037-0.422,0.233-0.798,0.602-0.838l0,0c0.369-0.044,0.698,0.269,0.733,0.688l0,0c0.056,0.62,0.093,1.344,0.094,2.146l0,0
			c0,3.438-0.713,8.353-4.164,12.024l0,0c-0.003,0.007-2.818,3.256-4.362,5.064l0,0c-0.492,0.579-0.884,1.053-0.934,1.118l0,0l0,0
			l-0.046,0.071c-0.411,0.597-0.656,1.345-0.656,2.168l0,0c0.002,1.936,1.372,3.5,3.063,3.503l0,0l0.101,0.011
			c0,0,0.027,0.004,0.107,0.016l0,0c0.083,0.006,0.207,0.018,0.362,0.018l0,0c0.3,0,0.718-0.033,1.178-0.156l0,0
			c0.26-0.52,0.851-1.618,1.761-2.736l0,0c1.121-1.387,2.763-2.847,4.89-3.156l0,0l0.001-1.098c0-0.427,0.3-0.77,0.67-0.77l0,0
			c0.371,0,0.672,0.342,0.672,0.77l0,0v1.805c0,0.416-0.292,0.757-0.653,0.768l0,0c-3.335,0.036-5.689,4.156-6.184,5.209l0,0
			C25.765,58.933,25.734,59,25.734,59l0,0c-0.084,0.191-0.231,0.331-0.41,0.394l0,0c-0.719,0.242-1.368,0.298-1.821,0.3l0,0
			C23.21,59.688,22.997,59.665,22.896,59.652L22.896,59.652z"/>
	</g>
	<g>
		<path fill="#231F20" d="M25.018,58.797h0.002c-0.251-0.313-0.23-0.8,0.046-1.086l0,0c0.275-0.282,0.7-0.26,0.949,0.056l0,0
			c0.001-0.002,0.015,0.018,0.067,0.078l0,0c0.056,0.059,0.139,0.148,0.257,0.258l0,0c0.236,0.222,0.598,0.521,1.086,0.83l0,0
			c0.979,0.606,2.458,1.229,4.48,1.229l0,0c0.372,0,0.676,0.345,0.676,0.769l0,0c0,0.427-0.303,0.77-0.676,0.77l0,0
			C27.359,61.698,25.083,58.888,25.018,58.797L25.018,58.797z"/>
	</g>
	<g>
		<path fill="#231F20" d="M1.329,59.038c-0.184-0.366-0.077-0.837,0.246-1.048l0,0c6.623-4.381,12.946-5.296,17.062-5.296l0,0
			c2.934,0.003,4.754,0.464,4.792,0.477l0,0h0.001c0.36,0.094,0.588,0.501,0.508,0.914l0,0c-0.082,0.414-0.44,0.676-0.802,0.58l0,0
			c-0.001,0.004-0.404-0.102-1.182-0.21l0,0c-0.778-0.11-1.91-0.222-3.317-0.222l0,0c-3.946,0-10.021,0.871-16.39,5.085l0,0
			c-0.106,0.073-0.222,0.104-0.337,0.104l0,0C1.679,59.425,1.454,59.286,1.329,59.038L1.329,59.038z"/>
	</g>
	<g>
		<path fill="#231F20" d="M23.861,52.052c-0.003,0-0.668-0.43-1.913-1.092l0,0c-1.248-0.663-3.057-1.547-5.304-2.435l0,0
			c-4.495-1.771-7.651-3.537-14.599-3.537l0,0c-0.308,0-0.617,0.002-0.924,0.015l0,0c-0.372,0.01-0.679-0.326-0.689-0.752l0,0
			c-0.008-0.424,0.285-0.773,0.655-0.783l0,0c0.323-0.012,0.642-0.015,0.958-0.015l0,0c14.293,0.008,22.42,7.229,22.474,7.258l0,0
			c0.324,0.21,0.437,0.675,0.255,1.048l0,0c-0.123,0.25-0.353,0.394-0.588,0.394l0,0C24.078,52.149,23.963,52.116,23.861,52.052
			L23.861,52.052z"/>
	</g>
	<g>
		<path fill="#231F20" d="M41.145,53.122c-0.13-0.389,0.02-0.832,0.329-0.992l0,0c6.981-3.632,11.475-11.071,11.475-19.619l0,0
			c0-6.022-2.28-11.482-6.05-15.468l0,0c-3.766-3.984-9.019-6.469-14.896-6.464l0,0c-0.335,0-0.608-0.343-0.608-0.76l0,0
			c0-0.419,0.271-0.759,0.608-0.759l0,0c6.152,0,11.677,2.594,15.679,6.824l0,0c4.002,4.227,6.482,10.114,6.482,16.627l0,0
			c0,9.252-4.876,17.222-12.225,21.025l0,0l0,0c-0.077,0.039-0.153,0.055-0.232,0.055l0,0
			C41.467,53.587,41.242,53.412,41.145,53.122L41.145,53.122z"/>
	</g>
	<g>
		<path fill="#231F20" d="M32.301,51.31h-0.305c-0.369,0-0.671-0.344-0.671-0.771l0,0c0-0.424,0.3-0.769,0.671-0.769l0,0h0.305
			c0.169,0.025,0.334-0.209,0.374-0.286l0,0l0,0c0.006-0.009,0.006-0.009,0.006-0.009l0,0l0.146,0.092l-0.143-0.102
			c0.482-1.061,1.06-1.678,1.627-1.986l0,0c0.563-0.313,1.08-0.313,1.287-0.348l0,0c0.021,0,0.03-0.002,0.041-0.008l0,0
			c0-0.002,0.002-0.002,0.004-0.003l0,0c0.021-0.055,0.021-0.146,0.021-0.146l0,0c0-0.008,0-0.01,0-0.018l0,0l0,0
			c-0.002-0.013,0.003,0-0.016-0.027l0,0c-0.02-0.027-0.06-0.067-0.082-0.084l0,0v-0.002l-0.043-0.021
			c-0.306-0.2-1.026-0.377-1.709-0.451l0,0c-0.684-0.081-1.345-0.094-1.641-0.094l0,0c-0.102,0-0.156,0.004-0.156,0.004l0,0l0,0
			c-0.369,0.011-0.679-0.321-0.688-0.749l0,0c-0.012-0.422,0.282-0.776,0.652-0.788l0,0c0.004,0,0.074-0.003,0.192-0.003l0,0
			c0.324,0,1.022,0.015,1.778,0.101l0,0c0.759,0.098,1.561,0.235,2.203,0.627l0,0c0.068,0.039,0.226,0.139,0.396,0.323l0,0
			c0.202,0.216,0.45,0.619,0.45,1.171l0,0v0.014l0,0c0,0.007,0,0.01,0,0.016l0,0c-0.002,0.107-0.01,0.352-0.104,0.656l0,0
			c-0.09,0.307-0.332,0.744-0.795,0.929l0,0c-0.511,0.159-0.764,0.082-1.092,0.231l0,0c-0.305,0.136-0.685,0.397-1.132,1.354l0,0
			c-0.021,0.048-0.13,0.295-0.37,0.567l0,0c-0.234,0.271-0.65,0.576-1.203,0.576l0,0C32.308,51.31,32.306,51.31,32.301,51.31
			L32.301,51.31z"/>
	</g>
	<g>
		<path fill="#231F20" d="M38.676,59.392c-0.176-0.063-0.325-0.201-0.407-0.396l0,0c0,0-0.031-0.064-0.103-0.212l0,0
			c-0.069-0.146-0.179-0.354-0.323-0.611l0,0c-0.285-0.511-0.716-1.188-1.265-1.872l0,0c-1.109-1.369-2.683-2.676-4.597-2.724l0,0
			c-0.366-0.01-0.654-0.351-0.654-0.769l0,0v-1.801c0-0.428,0.3-0.771,0.674-0.771l0,0c0.369,0,0.671,0.344,0.671,0.771l0,0v1.094
			c2.128,0.313,3.77,1.771,4.891,3.151l0,0c0.91,1.124,1.5,2.224,1.758,2.742l0,0c0.463,0.123,0.882,0.157,1.184,0.157l0,0
			c0.155,0,0.278-0.014,0.36-0.02l0,0c0.079-0.011,0.106-0.015,0.106-0.015l0,0l0.1-0.01c1.691-0.005,3.063-1.567,3.064-3.503l0,0
			c0-0.827-0.246-1.569-0.662-2.178l0,0l-0.037-0.061c-0.002,0-0.004-0.003-0.008-0.006l0,0c-0.012-0.018-0.025-0.036-0.048-0.063
			l0,0c-0.044-0.057-0.106-0.134-0.183-0.226l0,0c-0.156-0.188-0.37-0.44-0.625-0.742l0,0c-0.51-0.597-1.172-1.371-1.828-2.137l0,0
			c-1.314-1.525-2.605-3.017-2.587-2.995l0,0c-3.47-3.697-4.183-8.611-4.183-12.048l0,0c0-0.804,0.039-1.527,0.094-2.147l0,0
			c0.035-0.424,0.365-0.729,0.734-0.688l0,0c0.367,0.04,0.637,0.418,0.602,0.84l0,0c-0.051,0.574-0.086,1.252-0.086,1.996l0,0
			c0,3.216,0.671,7.648,3.772,10.943l0,0c0.005,0.004,3.954,4.565,5.079,5.918l0,0c0.176,0.213,0.244,0.287,0.329,0.414l0,0
			l0.035,0.053c0.591,0.854,0.942,1.942,0.942,3.121l0,0c0,2.768-1.949,5.01-4.361,5.039l0,0c-0.1,0.016-0.313,0.037-0.613,0.037
			l0,0C40.046,59.688,39.397,59.632,38.676,59.392L38.676,59.392z"/>
	</g>
	<g>
		<path fill="#231F20" d="M31.299,60.931c0-0.422,0.299-0.771,0.671-0.771l0,0c3.532,0,5.546-1.905,5.958-2.333l0,0
			c0.059-0.059,0.075-0.077,0.075-0.077l0,0c0.255-0.306,0.679-0.315,0.948-0.021l0,0c0.27,0.289,0.277,0.779,0.021,1.086l0,0
			c-0.065,0.08-2.457,2.882-7.001,2.887l0,0C31.599,61.7,31.299,61.354,31.299,60.931L31.299,60.931z"/>
	</g>
	<g>
		<path fill="#231F20" d="M13.036,21.627c0.343-0.135,0.494-0.525,0.344-0.867l0,0L6.87,5.891C6.858,5.842,6.841,5.799,6.815,5.755
			l0,0c-0.09-0.186-0.152-0.378-0.179-0.562l0,0C6.582,4.74,6.693,4.35,7.109,4.003l0,0c0.226-0.188,0.563-0.325,0.901-0.36l0,0
			c0.332-0.033,0.65,0.023,0.894,0.17l0,0c0.031,0.016,0.059,0.032,0.092,0.046l0,0l14.983,7.951
			c0.33,0.178,0.736,0.055,0.902-0.267l0,0c0.168-0.324,0.032-0.73-0.3-0.908l0,0L9.539,2.651c-0.021-0.01-0.042-0.02-0.064-0.029
			l0,0C8.951,2.342,8.37,2.259,7.826,2.315l0,0C7.241,2.378,6.686,2.598,6.242,2.955l0,0C5.467,3.573,5.18,4.497,5.307,5.333l0,0
			c0.042,0.306,0.136,0.601,0.264,0.883l0,0C5.579,6.243,5.59,6.269,5.601,6.293l0,0l6.55,14.963
			c0.126,0.284,0.42,0.448,0.713,0.417l0,0C12.918,21.665,12.978,21.65,13.036,21.627L13.036,21.627z"/>
	</g>
	<g>
		<path fill="#231F20" d="M20.583,13.579c0.241-0.275,0.21-0.696-0.071-0.945l0,0C12.027,5.159,8.573,3.957,6.747,4.094l0,0
			C5.789,4.177,5.389,4.816,5.353,4.96l0,0l0,0C5.22,5.3,5.395,5.689,5.739,5.837l0,0c0.325,0.134,0.69,0.005,0.842-0.29l0,0
			c0.002-0.005,0.002-0.01,0.014-0.017l0,0c0.026-0.018,0.102-0.083,0.336-0.109l0,0c0.91-0.15,4.346,0.754,12.703,8.195l0,0
			c0.15,0.134,0.344,0.193,0.53,0.173l0,0C20.32,13.776,20.47,13.703,20.583,13.579L20.583,13.579z"/>
	</g>
	<g>
		<path fill="#231F20" d="M61.753,59.317c-6.368-4.215-12.439-5.085-16.391-5.085l0,0c-1.404,0-2.536,0.11-3.314,0.222l0,0
			c-0.777,0.107-1.181,0.21-1.182,0.21l0,0c-0.363,0.097-0.723-0.166-0.803-0.581l0,0c-0.082-0.412,0.146-0.82,0.511-0.915l0,0
			c0.038-0.011,1.854-0.472,4.79-0.472l0,0c4.115,0,10.438,0.913,17.064,5.294l0,0c0.317,0.212,0.428,0.68,0.24,1.05l0,0
			c-0.124,0.247-0.352,0.387-0.582,0.387l0,0C61.978,59.425,61.858,59.39,61.753,59.317L61.753,59.317z"/>
	</g>
	<g>
		<path fill="#231F20" d="M39.229,51.761c-0.183-0.371-0.067-0.839,0.254-1.05l0,0c0.057-0.026,8.18-7.251,22.473-7.257l0,0
			c0.316,0,0.638,0.003,0.958,0.016l0,0c0.37,0.01,0.664,0.358,0.653,0.785l0,0c-0.01,0.424-0.313,0.758-0.688,0.752l0,0
			c-0.309-0.015-0.62-0.016-0.926-0.016l0,0c-10.421-0.003-16.165,3.982-19.898,5.97l0,0c-1.246,0.662-1.914,1.091-1.914,1.091l0,0
			l0,0c-0.103,0.068-0.218,0.102-0.328,0.102l0,0C39.579,52.149,39.351,52.009,39.229,51.761L39.229,51.761z"/>
	</g>
	<g>
		<path fill="#231F20" d="M51.06,21.627c0.059,0.022,0.118,0.037,0.174,0.047l0,0c0.293,0.03,0.586-0.134,0.713-0.418l6.549-14.963
			l0,0c0.011-0.024,0.021-0.051,0.029-0.076l0,0c0.129-0.283,0.223-0.578,0.265-0.884l0,0c0.127-0.837-0.16-1.761-0.935-2.379l0,0
			c-0.443-0.356-1-0.577-1.584-0.64l0,0c-0.545-0.057-1.125,0.027-1.648,0.307l0,0c-0.022,0.01-0.043,0.02-0.064,0.029
			l-15.043,7.984l0,0c-0.332,0.178-0.468,0.584-0.3,0.908l0,0c0.166,0.321,0.571,0.444,0.901,0.267L55.1,3.859l0,0
			c0.033-0.014,0.062-0.03,0.093-0.046l0,0c0.244-0.146,0.562-0.203,0.894-0.17l0,0c0.338,0.035,0.675,0.172,0.901,0.359l0,0
			c0.416,0.348,0.527,0.737,0.473,1.19l0,0c-0.027,0.184-0.09,0.376-0.18,0.562l0,0c-0.025,0.045-0.043,0.088-0.055,0.137
			l-6.51,14.869l0,0C50.565,21.102,50.717,21.492,51.06,21.627L51.06,21.627z"/>
	</g>
	<g>
		<path fill="#231F20" d="M43.514,13.579c0.112,0.125,0.263,0.197,0.418,0.211l0,0c0.187,0.02,0.38-0.039,0.53-0.174l0,0
			c8.357-7.439,11.793-8.344,12.703-8.194l0,0c0.234,0.026,0.31,0.091,0.336,0.109l0,0c0.012,0.007,0.012,0.012,0.014,0.017l0,0
			c0.152,0.295,0.518,0.424,0.842,0.29l0,0c0.346-0.147,0.52-0.537,0.387-0.878l0,0l0,0c-0.036-0.144-0.436-0.782-1.394-0.865l0,0
			c-1.827-0.137-5.28,1.064-13.765,8.539l0,0C43.304,12.882,43.272,13.303,43.514,13.579L43.514,13.579z"/>
	</g>
</g>
</svg>
