<?xml version="1.0" encoding="utf-8"?>
<!-- Generator: Adobe Illustrator 16.0.0, SVG Export Plug-In . SVG Version: 6.00 Build 0)  -->
<!DOCTYPE svg PUBLIC "-//W3C//DTD SVG 1.1//EN" "http://www.w3.org/Graphics/SVG/1.1/DTD/svg11.dtd">
<svg version="1.1" id="Capa_1" xmlns="http://www.w3.org/2000/svg" xmlns:xlink="http://www.w3.org/1999/xlink" x="0px" y="0px"
	 width="64px" height="64px" viewBox="0 0 64 64" enable-background="new 0 0 64 64" xml:space="preserve">
<g>
	<path fill="#231F20" d="M17.22,38.655c1.041-3.472,1.599-8.001,1.599-12.903c0-0.676-0.012-1.363-0.034-2.054
		c-0.005-0.223-0.009-0.445-0.009-0.669c0-4.478,1.41-9.191,4.185-14.028c0.187-0.329,0.438-0.687,0.678-1.027
		c0.56-0.792,1.025-1.492,1.016-2.081c-0.002-0.149-0.027-0.296-0.088-0.449c-0.178-0.428-0.556-0.666-1.233-0.67
		c-1.574-0.006-5.238,1.587-8.919,4.187c-3.688,2.596-7.419,6.202-9.238,10.177C4.39,20.85,4,22.558,4,24.218
		c0,1.854,0.485,3.651,1.457,5.347c4.261,7.421,4.896,11.991,5.194,14.174c0.08,0.595,0.163,1.164,0.332,1.554
		c0.176,0.387,0.387,0.602,0.839,0.605c0.383,0.006,0.819-0.242,1.605-0.813C14.987,43.982,16.274,41.822,17.22,38.655z
		 M12.162,44.347l-0.194,0.119l-0.042-0.251c-0.035-0.209-0.069-0.46-0.101-0.696c-0.315-2.292-0.961-7.019-5.377-14.722
		c-0.838-1.459-1.259-2.993-1.259-4.579c0-1.44,0.347-2.923,1.036-4.426c2.044-4.451,6.419-7.955,8.848-9.661
		c3.26-2.283,6.406-3.721,7.911-3.941l0.382-0.055l-0.237,0.357c-0.133,0.207-0.287,0.427-0.411,0.604
		c-0.26,0.373-0.531,0.758-0.744,1.134c-2.917,5.087-4.384,10.06-4.384,14.798c0,0.239,0.003,0.482,0.011,0.722
		c0.023,0.675,0.032,1.349,0.032,2.013c0,4.739-0.528,9.092-1.529,12.432c-0.836,2.779-1.958,4.758-3.296,5.712
		C12.539,44.099,12.324,44.247,12.162,44.347z"/>
	<path fill="#231F20" d="M53.016,45.301c0.165-0.389,0.246-0.956,0.333-1.552c0.295-2.182,0.929-6.754,5.193-14.176
		C59.515,27.877,60,26.078,60,24.227c0-1.659-0.39-3.365-1.176-5.084c-1.818-3.972-5.551-7.579-9.238-10.175
		c-3.682-2.6-7.348-4.192-8.92-4.184c-0.679,0.003-1.059,0.238-1.234,0.67c-0.062,0.152-0.088,0.299-0.088,0.45
		c-0.012,0.58,0.455,1.285,1.018,2.075c0.24,0.343,0.492,0.7,0.68,1.029c2.77,4.85,4.181,9.572,4.181,14.054
		c0,0.214-0.004,0.43-0.011,0.647c-0.021,0.688-0.035,1.373-0.035,2.052c0,4.904,0.563,9.433,1.6,12.904
		c0.951,3.167,2.235,5.323,3.795,6.434c0.814,0.584,1.229,0.815,1.605,0.812C52.626,45.898,52.837,45.688,53.016,45.301z
		 M52.173,43.528c-0.032,0.234-0.069,0.483-0.102,0.69l-0.042,0.248l-0.196-0.118c-0.163-0.102-0.379-0.248-0.64-0.439
		c-1.335-0.951-2.462-2.931-3.295-5.706c-1.003-3.344-1.529-7.697-1.53-12.438c0-0.663,0.013-1.333,0.032-2.01
		c0.007-0.236,0.01-0.468,0.01-0.705c0-4.736-1.467-9.719-4.383-14.816c-0.215-0.381-0.485-0.764-0.747-1.137
		c-0.124-0.178-0.277-0.393-0.412-0.6l-0.234-0.357l0.384,0.055c1.507,0.217,4.648,1.654,7.914,3.938
		c2.425,1.707,6.801,5.211,8.844,9.659c0.689,1.505,1.038,2.986,1.038,4.428c0,1.588-0.422,3.121-1.258,4.578
		C53.128,36.505,52.485,41.241,52.173,43.528z"/>
	<path fill="#231F20" d="M31.401,55.828v-4.722l-0.362-0.182c-0.717-0.358-1.463-0.973-2.041-1.672
		c-0.572-0.697-0.99-1.468-0.993-2.196c-0.012-0.567,0.204-1.114,0.807-1.42c0.596-0.314,1.559-0.476,3.147-0.476h0.072
		c1.588,0,2.551,0.159,3.148,0.476c0.603,0.306,0.817,0.853,0.808,1.42c-0.008,0.729-0.421,1.499-0.996,2.196
		c-0.574,0.699-1.325,1.313-2.041,1.672l-0.355,0.182v4.722l0.224,0.208c0.717,0.664,1.467,1.197,2.222,1.608
		c0.581-0.174,1.166-0.402,1.746-0.718c-0.827-0.262-1.834-0.761-2.938-1.718l-0.064-0.055v-3.151l0.087-0.054
		c1.513-0.921,3.321-2.897,3.306-4.893c-0.009-1.648-0.821-2.425-1.896-2.86c-1.075-0.419-2.388-0.422-3.246-0.422h-0.072
		c-0.859,0-2.171,0.005-3.245,0.422c-1.08,0.434-1.892,1.212-1.899,2.86c-0.013,1.993,1.798,3.972,3.309,4.893l0.089,0.054v3.154
		l-0.065,0.056c-1.116,0.966-2.131,1.469-2.966,1.725c0.139,0.072,0.819,0.384,1.846,0.673c0.73-0.406,1.458-0.93,2.15-1.576
		L31.401,55.828z"/>
	<path fill="#231F20" d="M25.631,57.198c-0.71,0-1.27-0.174-1.661-0.417c-0.385-0.246-0.627-0.552-0.637-0.908
		c0-0.212,0.003-0.413,0.011-0.621c0.002-0.221,0.008-0.443,0.008-0.662c0-1.755-0.311-3.979-3.572-11.105
		c-0.295-0.646-0.576-1.288-0.836-1.913l-0.036-0.081l0.033-0.082c0.452-1.162,0.847-2.461,1.174-3.864
		c0.794-3.423,1.205-7.45,1.205-11.75c0-0.717-0.011-1.441-0.034-2.171c-0.006-0.191-0.01-0.385-0.01-0.579
		c0-1.672,0.223-3.395,0.661-5.134c0.407-1.616,0.99-3.243,1.734-4.838c1.243-2.667,2.727-4.664,2.748-4.69l0.021-0.029l0.021-0.036
		c0.375-0.642,0.593-1.294,0.661-1.941l0.013-0.121l0.101-0.038c2.1-0.738,3.825-0.823,4.507-0.823c0.13,0,0.212,0.007,0.231,0.007
		h0.013h0.041c0.013,0,0.09-0.007,0.222-0.007c0.538,0.002,2.344,0.063,4.516,0.825l0.103,0.036l0.013,0.124
		c0.068,0.653,0.284,1.301,0.655,1.938l0.021,0.034l0.023,0.034c0.018,0.024,1.507,2.022,2.747,4.688
		c0.746,1.604,1.33,3.23,1.731,4.839c0.44,1.749,0.661,3.474,0.661,5.14c0,0.192-0.002,0.383-0.01,0.571
		c-0.023,0.734-0.033,1.458-0.033,2.176c0,4.3,0.411,8.327,1.207,11.75c0.331,1.417,0.725,2.715,1.174,3.865l0.032,0.083
		l-0.035,0.079c-0.262,0.621-0.542,1.263-0.836,1.909c-3.263,7.13-3.573,9.354-3.576,11.105c0,0.223,0.009,0.439,0.015,0.664
		c0.001,0.208,0.01,0.411,0.011,0.623c-0.011,0.355-0.25,0.659-0.638,0.906c-0.39,0.245-0.947,0.417-1.653,0.417
		c-0.002,0-0.002,0-0.004,0c-0.285,0-0.668-0.036-1.113-0.142l0.633,1.495c0.164,0.016,0.324,0.028,0.485,0.028
		c1.029,0,1.908-0.294,2.521-0.783c0.613-0.491,0.959-1.154,0.959-1.924c0-0.231-0.006-0.45-0.012-0.664
		c-0.002-0.188-0.009-0.375-0.009-0.568c0-1.631,0.318-3.706,3.436-10.507c0.361-0.796,0.705-1.584,1.017-2.342l0.126-0.298
		l-0.127-0.303c-0.484-1.171-0.904-2.521-1.254-4.013c-0.771-3.314-1.166-7.214-1.166-11.382c0-0.705,0.012-1.413,0.035-2.129
		c0.005-0.207,0.01-0.416,0.01-0.624c0.002-1.797-0.237-3.652-0.705-5.527c-0.429-1.698-1.043-3.419-1.832-5.108
		c-1.217-2.614-2.628-4.576-2.864-4.899l-0.007-0.009L38.5,7.492c-0.295-0.522-0.451-1.055-0.451-1.578
		c0-0.046,0.001-0.089,0.006-0.129l0.025-0.531l-0.429-0.169C35.159,4.106,33.042,4,32.255,4c-0.118,0-0.203,0.005-0.245,0.008
		h-0.004h-0.007C31.958,4.006,31.871,4,31.749,4c-0.788,0-2.898,0.106-5.389,1.085l-0.435,0.17l0.031,0.537
		c0.003,0.047,0.004,0.091,0.004,0.142c0,0.511-0.156,1.034-0.453,1.559l-0.006,0.011l-0.007,0.009
		c-0.236,0.32-1.648,2.281-2.863,4.899c-0.785,1.683-1.401,3.399-1.828,5.109c-0.471,1.869-0.706,3.722-0.706,5.524
		c0,0.213,0.001,0.419,0.008,0.631c0.023,0.712,0.036,1.425,0.036,2.123c0,4.172-0.398,8.071-1.17,11.385
		c-0.341,1.478-0.762,2.825-1.249,4.013l-0.125,0.303l0.125,0.301c0.312,0.756,0.654,1.543,1.016,2.338
		c3.113,6.801,3.435,8.875,3.435,10.513c0,0.196-0.005,0.381-0.009,0.567c-0.004,0.212-0.011,0.431-0.011,0.66
		c0,0.771,0.346,1.435,0.962,1.923c0.614,0.485,1.496,0.783,2.525,0.783c0.228,0,0.457-0.012,0.69-0.041l0.59-1.519
		C26.389,57.16,25.952,57.198,25.631,57.198z"/>
	<g>
		<path fill="#231F20" d="M27.147,57.332l-0.446,1.139c0.609-0.115,1.225-0.313,1.842-0.609
			C27.875,57.651,27.377,57.438,27.147,57.332z"/>
	</g>
	<g>
		<g>
			<path fill="#231F20" d="M26.771,58.648c0.669-0.129,1.35-0.371,2.024-0.712c-0.01-0.006-0.021-0.007-0.031-0.011l0.207-0.099
				l-0.392-0.128c-0.667-0.203-1.156-0.413-1.383-0.52l-0.121-0.054l-0.055,0.136l-0.443,1.142l-0.106,0.271l0.252-0.049
				 M28.782,57.738c0.083-0.044,0.165-0.084,0.247-0.128c-1.027-0.287-1.708-0.602-1.846-0.674
				c-0.091,0.029-0.186,0.063-0.272,0.084l-0.591,1.518c0.063-0.007,0.128-0.021,0.191-0.035 M37.246,57.031l-0.066-0.019
				c-0.068-0.018-0.13-0.027-0.194-0.046l-0.008-0.002c-0.081-0.021-0.165-0.052-0.257-0.081l-0.048-0.017l-0.045,0.023
				c-0.575,0.311-1.057,0.421-1.626,0.593l-0.053,0.107l0.342,0.193c0.042,0.022,0.081,0.045,0.12,0.064
				c-0.041,0.015-0.083,0.021-0.124,0.033c-0.948,0.273-2.196,0.402-3.063,0.402c-1.195,0-2.853-0.426-3.718-0.656l-0.047-0.018
				l-0.041,0.021c-0.65,0.349-1.3,0.612-1.947,0.766l-0.469,0.109l1.025,0.423c0.917,0.394,2.837,1.07,5.175,1.07
				c1.474,0,3.227-0.441,4.869-1.221c0.095-0.046,0.192-0.087,0.295-0.139c0.078-0.044,0.166-0.071,0.262-0.121
				c0.056,0.012,0.112,0.022,0.178,0.031c0.073,0.012,0.137,0.009,0.189,0.012l0.239,0.02L37.246,57.031z"/>
		</g>
	</g>
</g>
</svg>
