<?xml version="1.0" encoding="utf-8"?>
<!-- Generator: Adobe Illustrator 16.0.0, SVG Export Plug-In . SVG Version: 6.00 Build 0)  -->
<!DOCTYPE svg PUBLIC "-//W3C//DTD SVG 1.1//EN" "http://www.w3.org/Graphics/SVG/1.1/DTD/svg11.dtd">
<svg version="1.1" id="Capa_1" xmlns="http://www.w3.org/2000/svg" xmlns:xlink="http://www.w3.org/1999/xlink" x="0px" y="0px"
	 width="64px" height="64px" viewBox="0 0 64 64" enable-background="new 0 0 64 64" xml:space="preserve">
<g>
	<g>
		<path fill="#231F20" d="M30.518,63.674c-2.63-1.42-4.119-3.971-4.33-4.33l0,0h-0.001c-1.606-2.547-1.981-4.672-1.977-6.122l0,0
			c-0.002-0.841,0.127-1.49,0.161-1.731l0,0c-0.019-0.074-0.058-0.188-0.111-0.328l0,0c-0.1-0.281-0.254-0.676-0.438-1.131l0,0
			c-0.367-0.916-0.864-2.094-1.356-3.26l0,0c-0.987-2.323-1.976-4.58-1.98-4.59l0,0c-2.437-5.709-3.139-10.666-3.139-14.457l0,0
			c0.002-2.969,0.428-5.22,0.779-6.564l0,0c-1.004,0.232-2.517,0.489-4.273,0.492l0,0C9.525,21.678,3.525,20,0.408,12.356l0,0
			C0.315,12.165,0.004,11.49,0,10.535l0,0c-0.001-0.325,0.039-0.683,0.141-1.05l0,0c0.023-0.123,0.085-0.395,0.238-0.712l0,0
			C0.551,8.396,1,7.84,1.709,7.841l0,0c0.077,0,0.153,0.009,0.223,0.02l0,0c0.379,0.058,4.525,0.571,8.535,1.063l0,0
			c4.019,0.492,7.925,0.97,7.932,0.972l0,0h0.003c0.385,0.047,0.665,0.433,0.623,0.861l0,0c-0.043,0.432-0.392,0.739-0.78,0.691l0,0
			c-0.009,0-15.64-1.902-16.514-2.038l0,0C1.716,9.407,1.711,9.407,1.71,9.407l0,0H1.7C1.699,9.41,1.682,9.417,1.662,9.45l0,0
			C1.617,9.506,1.561,9.649,1.54,9.737l0,0C1.52,9.796,1.52,9.809,1.52,9.809l0,0L1.498,9.914c-0.061,0.218-0.087,0.423-0.087,0.618
			l0,0c-0.002,0.464,0.145,0.865,0.21,1.011l0,0c0.02,0.05,0.021,0.054,0.021,0.054l0,0l0.038,0.078
			c2.864,6.981,8.101,8.383,12.173,8.408l0,0c2.208,0,4.026-0.443,4.777-0.663l0,0c0.251-0.072,0.373-0.116,0.373-0.116l0,0
			c0.265-0.092,0.556-0.005,0.74,0.227l0,0c0.187,0.231,0.23,0.563,0.117,0.845l0,0c0,0.003-0.056,0.139-0.159,0.458l0,0
			c-0.102,0.321-0.242,0.802-0.381,1.435l0,0c-0.279,1.26-0.56,3.117-0.559,5.458l0,0c0,3.58,0.652,8.289,2.999,13.772l0,0
			c0,0.004,0.874,1.993,1.797,4.172l0,0c0.932,2.189,1.897,4.49,2.153,5.315l0,0c0.033,0.14,0.069,0.183,0.081,0.449l0,0
			c-0.009,0.299-0.056,0.455-0.093,0.743l0,0c-0.039,0.273-0.076,0.621-0.076,1.045l0,0c0.002,1.154,0.271,2.904,1.722,5.223l0,0
			l0.026,0.043c0,0,0.074,0.139,0.239,0.393l0,0c0.168,0.256,0.418,0.615,0.745,1.013l0,0c0.653,0.8,1.613,1.753,2.797,2.379l0,0
			l0.045,0.026l0.011,0.004c0.021,0.011,0.061,0.025,0.118,0.048l0,0c0.113,0.039,0.287,0.085,0.512,0.085l0,0
			c0.225,0,0.499-0.046,0.824-0.184l0,0c1.582-0.675,3.08-2.494,3.691-3.354l0,0c0.203-0.284,0.309-0.45,0.309-0.452l0,0
			c1.451-2.315,1.719-4.065,1.723-5.226l0,0c0-0.424-0.037-0.771-0.076-1.045l0,0c-0.037-0.289-0.082-0.444-0.094-0.743l0,0
			c0.014-0.265,0.049-0.308,0.082-0.446l0,0c0.037-0.118,0.084-0.251,0.141-0.41l0,0c0.113-0.314,0.271-0.72,0.457-1.186l0,0
			c0.377-0.934,0.873-2.12,1.369-3.287l0,0c0.99-2.339,1.982-4.604,1.98-4.6l0,0c2.346-5.489,3-10.201,3-13.778l0,0
			c0-3.516-0.637-5.936-0.941-6.895l0,0c-0.102-0.321-0.156-0.458-0.156-0.458l0,0c-0.117-0.281-0.072-0.611,0.113-0.846l0,0
			c0.188-0.229,0.475-0.316,0.742-0.227l0,0c0,0,0.119,0.043,0.373,0.116l0,0c0.248,0.074,0.615,0.172,1.082,0.271l0,0
			c0.924,0.197,2.223,0.395,3.693,0.395l0,0c4.074-0.025,9.311-1.429,12.172-8.407l0,0l0.039-0.08
			c-0.002-0.002,0.002-0.002,0.021-0.052l0,0c0.02-0.048,0.053-0.126,0.084-0.224l0,0c0.061-0.199,0.127-0.479,0.127-0.788l0,0
			c0-0.196-0.025-0.4-0.088-0.618l0,0L62.482,9.81V9.804c-0.002-0.015-0.012-0.036-0.018-0.068l0,0
			c-0.02-0.06-0.045-0.145-0.078-0.206l0,0c-0.076-0.127-0.082-0.127-0.092-0.123l0,0c-0.002,0-0.002,0-0.006,0l0,0
			c-0.012,0-0.012,0.002-0.025,0.004l0,0c-0.867,0.134-16.5,2.036-16.51,2.036l0,0c-0.391,0.05-0.738-0.262-0.779-0.69l0,0
			c-0.045-0.431,0.238-0.818,0.625-0.862l0,0c0.006-0.002,3.914-0.479,7.932-0.971l0,0c4.008-0.492,8.156-1.006,8.52-1.062l0,0
			c0.094-0.019,0.17-0.021,0.24-0.021l0,0c0.707-0.002,1.156,0.556,1.33,0.932l0,0c0.152,0.31,0.211,0.573,0.238,0.703l0,0
			C63.963,9.846,64,10.204,64,10.533l0,0c-0.006,0.939-0.305,1.607-0.402,1.81l0,0c-3.117,7.653-9.121,9.334-13.451,9.31l0,0
			c-1.758-0.003-3.268-0.261-4.271-0.492l0,0c0.354,1.346,0.777,3.597,0.777,6.567l0,0c0,3.79-0.701,8.748-3.141,14.455l0,0
			c-0.002,0.011-2.09,4.784-3.227,7.582l0,0c-0.326,0.799-0.584,1.493-0.654,1.719l0,0c0.002,0.019,0.006,0.035,0.01,0.056l0,0
			c0.014,0.098,0.037,0.233,0.059,0.395l0,0c0.049,0.324,0.094,0.759,0.094,1.287l0,0c0.004,1.449-0.373,3.576-1.979,6.121l0,0
			c-0.047,0.039-1.943,3.164-4.645,4.369l0,0c-0.492,0.211-0.949,0.291-1.339,0.291l0,0C31.108,64.002,30.637,63.742,30.518,63.674
			L30.518,63.674z"/>
	</g>
	<g>
		<path fill="#231F20" d="M18.479,20.821C8.585,17.66,0.918,9.504,0.875,9.464l0,0l0.001,0.002C0.593,9.165,0.583,8.671,0.853,8.358
			l0,0c0.271-0.314,0.716-0.325,0.999-0.024l0,0c0.001,0,0.455,0.481,1.309,1.278l0,0c0.853,0.789,2.095,1.883,3.633,3.073l0,0
			c3.074,2.376,7.348,5.126,12.079,6.632l0,0c0.374,0.12,0.592,0.552,0.484,0.969l0,0c-0.091,0.344-0.371,0.566-0.682,0.566l0,0
			C18.61,20.854,18.544,20.843,18.479,20.821L18.479,20.821z"/>
	</g>
	<g>
		<path fill="#231F20" d="M26.767,57.932c-1.218-1.307-2.073-2.59-2.088-2.61l0,0l0,0c-0.234-0.348-0.169-0.838,0.146-1.095l0,0
			c0.314-0.256,0.757-0.188,0.987,0.16l0,0c0.001,0,0.194,0.293,0.541,0.75l0,0c0.346,0.455,0.835,1.065,1.396,1.668l0,0
			c1.112,1.226,2.587,2.339,3.515,2.296l0,0c0.012,0,0.021,0,0.033,0l0,0v-2.427c0-0.434,0.316-0.783,0.704-0.783l0,0
			c0.394,0,0.709,0.347,0.709,0.783l0,0v3.069c0,0.321-0.186,0.615-0.458,0.729l0,0c-0.32,0.134-0.654,0.199-0.987,0.199l0,0
			C29.536,60.625,28.002,59.223,26.767,57.932L26.767,57.932z"/>
	</g>
	<g>
		<path fill="#231F20" d="M29.714,55.455L27.95,53.81c-0.298-0.276-0.336-0.774-0.085-1.107l0,0c0.25-0.329,0.696-0.372,0.997-0.093
			l0,0l1.76,1.645c0.297,0.273,0.337,0.771,0.085,1.104l0,0c-0.138,0.185-0.339,0.278-0.54,0.278l0,0
			C30.009,55.637,29.846,55.576,29.714,55.455L29.714,55.455z"/>
	</g>
	<g>
		<path fill="#231F20" d="M28.487,18.922c-0.643,0.526-1.445,0.836-2.312,0.836l0,0c-1.882-0.006-3.479-1.468-3.746-3.433l0,0
			c-0.428,0.181-0.897,0.276-1.386,0.276l0,0c-2.061-0.002-3.781-1.757-3.786-4.01l0,0c0-0.712,0.179-1.386,0.488-1.964l0,0
			c-0.309-0.575-0.488-1.25-0.488-1.961l0,0c0.007-2.25,1.728-4.007,3.786-4.011l0,0c0.488,0,0.956,0.099,1.386,0.28l0,0
			c0.271-1.967,1.866-3.433,3.746-3.436l0,0c0.867,0,1.669,0.312,2.311,0.835l0,0c0.603-1.392,1.926-2.338,3.438-2.338l0,0
			c0.391,0,0.708,0.353,0.708,0.784l0,0c0,0.432-0.318,0.784-0.708,0.784l0,0c-1.314,0.001-2.34,1.09-2.369,2.37l0,0
			c-0.009,0.348-0.223,0.646-0.525,0.733l0,0c-0.303,0.091-0.621-0.055-0.782-0.35l0,0c-0.399-0.735-1.17-1.254-2.068-1.251l0,0
			c-1.342,0.002-2.37,1.129-2.373,2.439l0,0c0,0.22,0.03,0.432,0.086,0.646l0,0c0.091,0.337-0.038,0.7-0.308,0.885l0,0
			c-0.271,0.188-0.62,0.146-0.854-0.094l0,0c-0.426-0.443-1.021-0.724-1.684-0.724l0,0c-1.342,0.002-2.372,1.128-2.374,2.441l0,0
			c0,0.549,0.175,1.051,0.481,1.469l0,0c0.212,0.287,0.211,0.701,0,0.989l0,0c-0.305,0.419-0.481,0.918-0.481,1.469l0,0
			c0.002,1.315,1.032,2.438,2.373,2.443l0,0c0.666,0,1.259-0.28,1.684-0.722l0,0c0.232-0.242,0.584-0.281,0.854-0.096l0,0
			c0.27,0.184,0.396,0.548,0.308,0.889l0,0c-0.056,0.211-0.086,0.421-0.086,0.643l0,0c0.003,1.311,1.031,2.438,2.373,2.44l0,0
			c0.9,0,1.669-0.52,2.068-1.249l0,0c0.162-0.3,0.481-0.443,0.784-0.354l0,0c0.303,0.087,0.517,0.386,0.524,0.736l0,0
			c0.03,1.277,1.056,2.365,2.369,2.369l0,0c0.392,0,0.708,0.348,0.708,0.785l0,0c0,0.433-0.318,0.783-0.708,0.783l0,0
			C30.413,21.262,29.089,20.316,28.487,18.922L28.487,18.922z"/>
	</g>
	<g>
		<path fill="#231F20" d="M18.079,44.73c-0.324,0.109-0.675,0.171-1.031,0.171l0,0c-1.956,0-3.536-1.759-3.536-3.924l0,0
			c0-0.384,0.05-0.752,0.144-1.103l0,0c-1.897-0.072-3.416-1.799-3.416-3.92l0,0c0-0.842,0.241-1.623,0.646-2.258l0,0
			c-1.323-0.564-2.261-1.99-2.261-3.66l0,0c0-1.076,0.391-2.052,1.023-2.762l0,0c-1.047-0.676-1.751-1.939-1.752-3.384l0,0
			c0-2.167,1.584-3.924,3.536-3.924l0,0c0.391,0,0.705,0.352,0.705,0.786l0,0c0,0.43-0.316,0.782-0.705,0.782l0,0
			c-1.173,0.003-2.121,1.053-2.123,2.354l0,0c-0.001,1.278,0.921,2.317,2.068,2.353l0,0c0.35,0.011,0.639,0.299,0.683,0.681l0,0
			c0.046,0.385-0.168,0.748-0.501,0.854l0,0c-0.878,0.287-1.521,1.188-1.519,2.261l0,0c0.001,1.299,0.95,2.352,2.121,2.352l0,0
			c0.085,0,0.17-0.006,0.271-0.018l0,0c0.342-0.051,0.665,0.186,0.764,0.549l0,0c0.1,0.362-0.055,0.754-0.359,0.929l0,0
			c-0.7,0.387-1.18,1.186-1.18,2.106l0,0c0.002,1.299,0.951,2.353,2.122,2.353l0,0c0.346,0,0.669-0.091,0.959-0.254l0,0
			c0.308-0.175,0.687-0.075,0.894,0.237l0,0c0.203,0.311,0.17,0.742-0.075,1.016l0,0c-0.391,0.429-0.626,1.016-0.626,1.668l0,0
			c0.001,1.3,0.951,2.354,2.123,2.354l0,0c0.627,0,1.182-0.3,1.575-0.783l0,0c0.243-0.297,0.646-0.347,0.938-0.11l0,0
			c0.293,0.231,0.381,0.674,0.206,1.021l0,0c-0.176,0.344-0.274,0.732-0.278,1.152l0,0c0.004,1.3,0.951,2.354,2.127,2.354l0,0
			c0.506,0,0.969-0.194,1.334-0.524l0,0c0.301-0.272,0.746-0.224,0.992,0.112l0,0c0.246,0.336,0.2,0.828-0.101,1.104l0,0
			c-0.607,0.551-1.386,0.875-2.226,0.875l0,0C19.696,48.532,18.136,46.842,18.079,44.73L18.079,44.73z"/>
	</g>
	<g>
		<path fill="#231F20" d="M44.654,20.287c-0.107-0.419,0.107-0.851,0.484-0.969l0,0c7.098-2.254,13.152-7.323,15.709-9.705l0,0
			c0.852-0.795,1.307-1.279,1.307-1.279l0,0l0,0c0.281-0.3,0.729-0.287,0.998,0.023l0,0c0.27,0.313,0.262,0.81-0.021,1.109l0,0
			c-0.043,0.037-7.707,8.192-17.604,11.354l0,0c-0.066,0.021-0.129,0.035-0.195,0.035l0,0
			C45.025,20.856,44.742,20.629,44.654,20.287L44.654,20.287z"/>
	</g>
	<g>
		<path fill="#231F20" d="M31.753,60.472c-0.274-0.114-0.457-0.405-0.457-0.729l0,0v-3.068c0-0.435,0.315-0.782,0.705-0.782l0,0
			c0.394,0,0.708,0.346,0.708,0.782l0,0v2.428c0.01,0,0.021,0,0.031,0l0,0c0.689,0.02,1.707-0.572,2.627-1.415l0,0
			c0.926-0.834,1.771-1.867,2.287-2.552l0,0c0.348-0.455,0.541-0.748,0.541-0.748l0,0c0.232-0.346,0.676-0.418,0.988-0.16l0,0
			c0.313,0.256,0.379,0.747,0.145,1.094l0,0c-0.018,0.021-0.871,1.307-2.092,2.612l0,0c-1.23,1.291-2.77,2.69-4.494,2.735l0,0
			c-0.004,0-0.008,0-0.01,0l0,0C32.403,60.668,32.069,60.605,31.753,60.472L31.753,60.472z"/>
	</g>
	<g>
		<path fill="#231F20" d="M33.299,55.358c-0.254-0.333-0.215-0.827,0.084-1.104l0,0l1.762-1.645
			c0.299-0.275,0.744-0.236,0.994,0.093l0,0c0.25,0.333,0.213,0.829-0.086,1.107l0,0l-1.76,1.646
			c-0.133,0.121-0.293,0.184-0.457,0.184l0,0C33.639,55.637,33.438,55.543,33.299,55.358L33.299,55.358z"/>
	</g>
	<g>
		<path fill="#231F20" d="M32.081,21.262c-0.389,0-0.707-0.351-0.707-0.783l0,0c0-0.437,0.318-0.784,0.707-0.784l0,0
			c1.318-0.005,2.341-1.093,2.369-2.37l0,0c0.014-0.349,0.225-0.649,0.525-0.736l0,0c0.305-0.09,0.621,0.056,0.785,0.351l0,0
			c0.4,0.737,1.17,1.253,2.066,1.253l0,0c1.344-0.002,2.373-1.131,2.375-2.44l0,0c0-0.222-0.029-0.432-0.084-0.64l0,0
			c-0.094-0.342,0.035-0.707,0.307-0.892l0,0c0.27-0.187,0.621-0.146,0.854,0.096l0,0c0.426,0.441,1.02,0.721,1.682,0.721l0,0
			c1.344-0.004,2.373-1.127,2.377-2.442l0,0c-0.002-0.549-0.18-1.049-0.482-1.469l0,0c-0.211-0.288-0.211-0.702,0-0.989l0,0
			c0.303-0.418,0.48-0.92,0.482-1.469l0,0c-0.002-1.313-1.031-2.438-2.375-2.44l0,0c-0.664,0-1.254,0.279-1.684,0.725l0,0
			c-0.23,0.239-0.584,0.279-0.854,0.093l0,0c-0.271-0.185-0.396-0.548-0.307-0.888l0,0c0.055-0.211,0.084-0.423,0.084-0.642l0,0
			c-0.002-1.313-1.031-2.438-2.373-2.44l0,0C36.93,3.071,36.16,3.591,35.76,4.325l0,0c-0.16,0.297-0.48,0.44-0.783,0.35l0,0
			c-0.303-0.089-0.516-0.385-0.525-0.733l0,0c-0.027-1.28-1.055-2.368-2.37-2.37l0,0l0,0c-0.388,0-0.707-0.352-0.707-0.784l0,0
			c-0.001-0.432,0.319-0.783,0.706-0.783l0,0c1.513,0,2.839,0.946,3.441,2.339l0,0c0.641-0.525,1.441-0.835,2.311-0.835l0,0
			c1.883,0.003,3.477,1.47,3.744,3.436l0,0c0.432-0.183,0.898-0.28,1.387-0.28l0,0c2.063,0.004,3.781,1.761,3.787,4.011l0,0
			c0.002,0.713-0.18,1.386-0.486,1.961l0,0c0.309,0.579,0.488,1.252,0.488,1.965l0,0c-0.008,2.253-1.729,4.007-3.789,4.009l0,0
			c-0.486,0-0.951-0.097-1.387-0.277l0,0c-0.268,1.966-1.863,3.428-3.744,3.435l0,0c-0.869,0-1.67-0.312-2.311-0.837l0,0
			c-0.604,1.392-1.926,2.341-3.437,2.341l0,0C32.083,21.262,32.083,21.262,32.081,21.262L32.081,21.262z"/>
	</g>
	<g>
		<path fill="#231F20" d="M40.168,47.655c-0.305-0.272-0.35-0.764-0.104-1.103l0,0c0.246-0.338,0.691-0.389,0.992-0.113l0,0
			c0.367,0.332,0.826,0.525,1.336,0.525l0,0c1.174-0.004,2.119-1.055,2.123-2.354l0,0c0-0.422-0.098-0.81-0.271-1.151l0,0
			c-0.178-0.348-0.094-0.787,0.203-1.021l0,0c0.293-0.234,0.697-0.188,0.936,0.109l0,0c0.395,0.486,0.951,0.785,1.582,0.785l0,0
			c1.172-0.002,2.119-1.056,2.121-2.354l0,0c-0.002-0.652-0.24-1.241-0.625-1.668l0,0c-0.246-0.275-0.279-0.705-0.072-1.019l0,0
			c0.203-0.31,0.58-0.414,0.893-0.236l0,0c0.285,0.164,0.611,0.255,0.955,0.255l0,0c1.174-0.004,2.121-1.058,2.123-2.354l0,0
			c0-0.923-0.48-1.72-1.178-2.105l0,0c-0.313-0.167-0.465-0.563-0.363-0.93l0,0c0.102-0.364,0.422-0.599,0.764-0.547l0,0
			c0.098,0.012,0.188,0.018,0.271,0.018l0,0c1.174,0,2.121-1.051,2.123-2.352l0,0c0.004-1.07-0.646-1.974-1.52-2.261l0,0
			c-0.338-0.11-0.549-0.47-0.504-0.854l0,0c0.047-0.384,0.336-0.671,0.686-0.681l0,0c1.143-0.032,2.066-1.073,2.066-2.353l0,0
			c-0.004-1.302-0.951-2.354-2.123-2.354l0,0l0,0c-0.393,0-0.707-0.352-0.707-0.782l0,0c0-0.435,0.316-0.786,0.707-0.786l0,0
			c1.953,0,3.535,1.759,3.535,3.924l0,0c0,1.443-0.703,2.708-1.752,3.385l0,0c0.635,0.711,1.025,1.685,1.025,2.761l0,0
			c0,1.668-0.943,3.094-2.264,3.66l0,0c0.404,0.639,0.645,1.417,0.645,2.258l0,0c0,2.123-1.516,3.848-3.414,3.922l0,0
			c0.092,0.348,0.143,0.719,0.143,1.103l0,0c-0.002,2.167-1.582,3.923-3.533,3.923l0,0c-0.361,0-0.707-0.059-1.033-0.17l0,0
			c-0.057,2.111-1.621,3.802-3.535,3.802l0,0C41.553,48.532,40.771,48.202,40.168,47.655L40.168,47.655z"/>
	</g>
</g>
</svg>
