<?xml version="1.0" encoding="utf-8"?>
<!-- Generator: Adobe Illustrator 16.0.0, SVG Export Plug-In . SVG Version: 6.00 Build 0)  -->
<!DOCTYPE svg PUBLIC "-//W3C//DTD SVG 1.1//EN" "http://www.w3.org/Graphics/SVG/1.1/DTD/svg11.dtd">
<svg version="1.1" id="Capa_1" xmlns="http://www.w3.org/2000/svg" xmlns:xlink="http://www.w3.org/1999/xlink" x="0px" y="0px"
	 width="64px" height="64px" viewBox="0 0 64 64" enable-background="new 0 0 64 64" xml:space="preserve">
<g>
	<path fill="none" stroke="#231F20" stroke-width="2" stroke-miterlimit="10" d="M47.516,11.935
		c-2.572-3.463-7.32-7.589-15.359-7.601h-0.315c-8.037,0.012-12.786,4.138-15.355,7.601c-3.561,4.804-5.314,11.6-4.681,18.179
		c0.136,1.454,0.189,1.808,0.571,3.82l0.015,0.063c2.487,9.843,7.561,16.885,11.378,21.059c4.133,4.513,7.65,6.693,7.798,6.787
		L32,62.104l0.434-0.261c0.146-0.092,3.664-2.273,7.799-6.787c3.814-4.174,8.891-11.215,11.381-21.069l0.012-0.063
		c0.383-2.002,0.435-2.355,0.57-3.809C52.829,23.534,51.076,16.739,47.516,11.935"/>
	<g>
		<path fill="#231F20" d="M48.591,26.537c0.133,1.664,0.27,6.587-2.31,10.243C44.305,39.578,41.151,41,36.908,41
			c-0.627,0-1.298-0.034-1.989-0.1c0.015-1.584,0.313-6.092,3.086-9.655C40.354,28.221,43.914,26.638,48.591,26.537 M49.793,24.854
			h-0.715c-5.314,0-9.387,1.762-12.093,5.245c-3.777,4.856-3.464,11.214-3.448,11.481l0.049,0.856l0.71,0.084
			c0.904,0.102,1.785,0.154,2.614,0.154c4.679,0,8.186-1.62,10.438-4.812c3.504-4.971,2.603-11.872,2.563-12.166L49.793,24.854
			L49.793,24.854z"/>
	</g>
	<g>
		<path fill="#231F20" d="M15.29,26.537c4.673,0.103,8.234,1.686,10.584,4.708c2.773,3.566,3.072,8.079,3.085,9.655
			c-0.695,0.063-1.362,0.1-1.992,0.1c-4.245,0-7.399-1.422-9.373-4.22C15.033,33.144,15.162,28.19,15.29,26.537 M14.799,24.854
			h-0.715l-0.116,0.843c-0.041,0.292-0.942,7.193,2.563,12.166c2.251,3.191,5.762,4.81,10.437,4.81c0.831,0,1.709-0.051,2.615-0.152
			l0.71-0.084l0.048-0.856c0.015-0.271,0.327-6.626-3.448-11.482C24.186,26.618,20.116,24.854,14.799,24.854L14.799,24.854z"/>
	</g>
</g>
</svg>
