<?xml version="1.0" encoding="utf-8"?>
<!-- Generator: Adobe Illustrator 16.0.0, SVG Export Plug-In . SVG Version: 6.00 Build 0)  -->
<!DOCTYPE svg PUBLIC "-//W3C//DTD SVG 1.1//EN" "http://www.w3.org/Graphics/SVG/1.1/DTD/svg11.dtd">
<svg version="1.1" id="Capa_1" xmlns="http://www.w3.org/2000/svg" xmlns:xlink="http://www.w3.org/1999/xlink" x="0px" y="0px"
	 width="64px" height="64px" viewBox="0 0 64 64" enable-background="new 0 0 64 64" xml:space="preserve">
<g>
	<g>
		<path fill="#231F20" d="M16.559,14.893c-2.179-2.291-2.391-4.749-2.391-5.659l0,0c0-0.228,0.014-0.361,0.014-0.354l0,0
			c0.094-1.533,0.759-2.481,1.491-2.981l0,0c0.728-0.499,1.419-0.543,1.521-0.55l0,0c0.357-0.018,0.687,0.169,0.802,0.457l0,0
			c0.1,0.272,0.931,1.725,1.687,3.001l0,0c0.766,1.296,1.491,2.489,1.495,2.493l0,0c0.195,0.326,0.049,0.726-0.337,0.895l0,0
			c-1.166,0.512-2.303,1.749-2.748,2.325l0,0c-0.153,0.191-0.228,0.295-0.228,0.298l0,0c-0.13,0.188-0.37,0.312-0.632,0.326l0,0
			c-0.018,0.002-0.036,0.002-0.056,0.002l0,0C16.938,15.145,16.708,15.051,16.559,14.893L16.559,14.893z M17.178,14.475l0.624-0.419
			L17.178,14.475L17.178,14.475z M16.684,6.935c-0.35,0.251-0.817,0.755-0.914,2.041l0,0c0.002,0-0.008,0.074-0.008,0.256l0,0
			c-0.004,0.646,0.141,2.354,1.402,4.065l0,0c0.509-0.578,1.29-1.352,2.263-1.936l0,0c-0.283-0.474-0.723-1.2-1.171-1.96l0,0
			c-0.55-0.935-1.107-1.884-1.457-2.536l0,0C16.762,6.886,16.724,6.91,16.684,6.935L16.684,6.935z"/>
	</g>
	<g>
		<path fill="#231F20" d="M46.634,15.142c-0.263-0.017-0.496-0.138-0.631-0.326l0,0c0,0-0.074-0.105-0.229-0.298l0,0
			c-0.151-0.191-0.373-0.458-0.652-0.743l0,0c-0.547-0.578-1.324-1.236-2.096-1.582l0,0c-0.387-0.169-0.531-0.567-0.334-0.895l0,0
			c0-0.003,0.729-1.199,1.49-2.492l0,0c0.761-1.277,1.591-2.729,1.689-3.001l0,0c0.114-0.288,0.442-0.475,0.803-0.458l0,0
			c0.104,0.007,0.793,0.053,1.521,0.55l0,0c0.73,0.501,1.398,1.447,1.488,2.957l0,0c0,0.02,0.014,0.151,0.014,0.38l0,0
			c0,0.914-0.211,3.37-2.389,5.659l0,0c-0.152,0.159-0.383,0.252-0.621,0.252l0,0C46.671,15.145,46.653,15.145,46.634,15.142
			L46.634,15.142z M46.691,14.475l0.688-0.343L46.691,14.475L46.691,14.475z M46.705,13.297c1.265-1.712,1.406-3.417,1.402-4.065
			l0,0c0-0.183-0.007-0.261-0.011-0.28l0,0c-0.078-1.104-0.453-1.626-0.772-1.907l0,0c-0.087-0.074-0.171-0.134-0.255-0.181l0,0
			c-0.35,0.654-0.906,1.604-1.457,2.538l0,0c-0.448,0.764-0.885,1.488-1.171,1.96l0,0C45.417,11.947,46.196,12.72,46.705,13.297
			L46.705,13.297z"/>
	</g>
	<g>
		<path fill="#231F20" d="M25.013,58.719c0-1.271,1.223-2.299,2.729-2.299l0,0v0.67v0.67c-0.628,0-1.137,0.429-1.137,0.959l0,0
			c0,0.525,0.509,0.951,1.137,0.955l0,0c0.628-0.004,1.139-0.43,1.139-0.955l0,0c0-0.532-0.511-0.959-1.139-0.959l0,0v-0.67v-0.67
			c1.508,0,2.731,1.027,2.731,2.299l0,0c0,1.268-1.224,2.296-2.731,2.296l0,0C26.234,61.015,25.013,59.985,25.013,58.719
			L25.013,58.719z"/>
	</g>
	<g>
		<path fill="#231F20" d="M28.883,58.766c-0.003,0,0-0.006-0.011-0.059l0,0c-0.011-0.055-0.032-0.14-0.066-0.242l0,0
			c-0.069-0.207-0.202-0.486-0.439-0.762l0,0c-0.48-0.539-1.309-1.115-3.281-1.131l0,0c-0.441,0-0.801-0.298-0.801-0.671l0,0
			c0-0.37,0.359-0.672,0.801-0.672l0,0c2.377-0.013,3.847,0.815,4.574,1.688l0,0c0.735,0.863,0.806,1.685,0.813,1.752l0,0
			c0.031,0.369-0.3,0.691-0.735,0.717l0,0c-0.021,0-0.041,0.005-0.059,0.005l0,0C29.263,59.391,28.914,59.12,28.883,58.766
			L28.883,58.766z"/>
	</g>
	<g>
		<path fill="#231F20" d="M22.169,53.682c-0.259-0.303-0.178-0.723,0.18-0.937l0,0c0.004-0.003,1.386-0.84,2.858-1.741l0,0
			c1.463-0.894,3.059-1.886,3.343-2.092l0,0c0.011-0.009,0.011-0.009,0.011-0.009l0,0l0.096-0.067v-0.004
			c0.007-0.006,0.029-0.019,0.055-0.041l0,0c0.056-0.047,0.138-0.123,0.225-0.229l0,0c0.171-0.213,0.358-0.547,0.387-1.061l0,0
			c0.019-0.389,0.027-2.033,0.027-4.004l0,0c0-3.955-0.03-9.312-0.03-9.318l0,0l0.013-0.094h-0.003c0,0,0,0,0-0.004l0,0
			c0-0.002,0.003-0.015,0.003-0.033l0,0c-0.007-0.103-0.021-0.41-0.422-0.808l0,0c-0.446-0.45-1.353-1.628-2.214-2.763l0,0
			c-0.851-1.12-1.604-2.146-1.606-2.148l0,0l-0.046-0.073c-0.026-0.055-0.16-0.293-0.164-0.664l0,0c0-0.186,0.038-0.409,0.153-0.634
			l0,0c0.23-0.449,6.261-10.975,6.27-10.988l0,0c0.189-0.337,0.665-0.477,1.063-0.314l0,0c0.396,0.161,0.563,0.563,0.372,0.896l0,0
			c-0.003,0.005-1.515,2.643-3.051,5.333l0,0c-1.535,2.678-3.118,5.456-3.19,5.604l0,0c-0.017,0.027-0.023,0.063-0.023,0.104l0,0
			c0,0.033,0.009,0.068,0.016,0.094l0,0c0.174,0.233,0.829,1.122,1.552,2.074l0,0c0.832,1.102,1.802,2.336,2.085,2.615l0,0
			c0.675,0.666,0.801,1.338,0.798,1.676l0,0c0,0.07-0.005,0.127-0.013,0.168l0,0c0.004,0.529,0.031,5.533,0.031,9.279l0,0
			c0,1.985-0.007,3.596-0.031,4.063l0,0c-0.074,1.447-1.059,2.186-1.287,2.335l0,0c-0.226,0.171-0.605,0.403-1.183,0.772l0,0
			c-0.615,0.383-1.392,0.861-2.158,1.33l0,0c-1.528,0.938-3.008,1.832-3.008,1.832l0,0l0,0c-0.142,0.088-0.305,0.129-0.464,0.129
			l0,0C22.566,53.963,22.323,53.863,22.169,53.682L22.169,53.682z"/>
	</g>
	<g>
		<path fill="#231F20" d="M28.526,63.995c-1.792,0-3.146-0.68-4.01-1.331l0,0c-0.875-0.652-1.301-1.287-1.327-1.322l0,0
			c-1.307-1.885-1.604-4.022-1.606-6.019l0,0c0-1.434,0.155-2.801,0.238-3.974l0,0c0.011-0.169,0.018-0.338,0.018-0.5l0,0
			c0.002-1.807-0.679-3.344-1.012-3.977l0,0c-0.111-0.211-0.173-0.311-0.173-0.307l0,0c-5.639-8.732-7.087-15.975-7.087-21.074l0,0
			c0.006-4.983,1.368-7.896,1.548-8.235l0,0c0.019-0.04,0.021-0.064,0.023-0.093l0,0c0.005-0.064-0.051-0.169-0.072-0.196l0,0l0,0
			l-0.067-0.092l-0.625-1.033c-1.732-2.588-2.375-4.939-2.375-6.975l0,0c-0.004-4.773,3.514-7.752,4.006-8.242l0,0
			C16.376,0.253,16.814,0.004,17.331,0l0,0c0.382,0,0.679,0.154,0.835,0.279l0,0c0.163,0.129,0.232,0.239,0.262,0.28l0,0l0.032,0.06
			c0.005,0.007,3.668,7.546,4.221,8.83l0,0c0.057,0.138,0.111,0.243,0.159,0.321l0,0c4.085-2.271,8.283-2.378,9.172-2.385l0,0
			c0.104,0,0.165,0.003,0.177,0.003l0,0l0.031,0.003c4.504,0.291,5.594,1.754,5.711,2.006l0,0c0.145,0.266,0.063,0.58-0.194,0.776
			l0,0c-1.604,1.177-4.326,5.211-6.495,8.85l0,0c-2.193,3.65-3.931,6.959-3.937,6.967l0,0c-0.129,0.246-0.43,0.408-0.756,0.398l0,0
			c-0.323-0.01-0.611-0.188-0.721-0.443l0,0c-0.842-1.993-1.46-5.427-1.797-7.608l0,0c-0.138,0.266-0.278,0.544-0.412,0.816l0,0
			c-0.546,1.119-0.981,2.166-0.981,2.166l0,0c-0.122,0.288-0.46,0.475-0.82,0.447l0,0c-0.365-0.025-0.661-0.254-0.72-0.557l0,0
			c-0.245-1.242-0.342-2.433-0.342-3.542l0,0c0-3.092,0.748-5.556,1.171-6.699l0,0c-0.048-0.033-0.09-0.07-0.128-0.108l0,0
			c-0.245-0.231-0.435-0.529-0.619-0.957l0,0c-0.253-0.589-1.309-2.804-2.292-4.843l0,0c-0.708-1.473-1.382-2.864-1.705-3.528l0,0
			c-0.652,0.625-3.577,3.21-3.585,7.337l0,0c0,1.8,0.557,3.907,2.177,6.341l0,0l0.627,1.026c0.104,0.136,0.318,0.452,0.328,0.927
			l0,0c0,0.195-0.045,0.414-0.159,0.635l0,0c-0.084,0.149-1.415,2.932-1.408,7.695l0,0c0,4.886,1.375,11.888,6.894,20.438l0,0
			c0.029,0.054,1.369,2.136,1.374,4.917l0,0c0,0.19-0.006,0.384-0.018,0.579l0,0c-0.088,1.207-0.238,2.541-0.238,3.895l0,0
			c-0.003,1.885,0.297,3.771,1.396,5.348l0,0c0,0,0.007,0.015,0.049,0.068l0,0c0.04,0.051,0.102,0.128,0.187,0.223l0,0
			c0.168,0.188,0.427,0.445,0.768,0.697l0,0c0.685,0.508,1.655,0.992,2.951,0.992l0,0h3.619c0.443,0,0.798,0.299,0.798,0.67l0,0
			c0,0.371-0.355,0.67-0.798,0.67l0,0h-3.619V63.995L28.526,63.995z M24.85,15.642c0.271,0.093,0.455,0.305,0.482,0.549l0,0
			c0,0.004,0.198,1.625,0.552,3.61l0,0c0.225,1.292,0.523,2.747,0.866,3.976l0,0c0.723-1.321,1.822-3.283,3.069-5.354l0,0
			c2.032-3.361,4.353-6.958,6.276-8.753l0,0c-0.058-0.034-0.125-0.074-0.201-0.111l0,0c-0.586-0.301-1.719-0.679-3.789-0.825l0,0
			c-0.004,0-0.006,0-0.009,0l0,0c-0.018-0.001-0.046-0.001-0.086,0l0,0c-0.73-0.004-4.703,0.115-8.403,2.221l0,0
			c-0.032,0.076-0.072,0.182-0.12,0.308l0,0c-0.126,0.331-0.295,0.817-0.462,1.434l0,0c-0.338,1.23-0.678,2.969-0.678,4.979l0,0
			c0,0.179,0.004,0.359,0.01,0.546l0,0c0.222-0.439,0.455-0.875,0.683-1.253l0,0c0.326-0.515,0.566-0.913,1.001-1.229l0,0
			c0.146-0.095,0.32-0.147,0.499-0.147l0,0C24.647,15.587,24.75,15.606,24.85,15.642L24.85,15.642z"/>
	</g>
	<g>
		<path fill="#231F20" d="M33.528,58.715c0.003-1.268,1.224-2.295,2.731-2.297l0,0v0.67v0.672c-0.627,0-1.137,0.43-1.139,0.955l0,0
			c0.002,0.529,0.512,0.955,1.139,0.959l0,0c0.629-0.004,1.137-0.43,1.137-0.959l0,0c0-0.527-0.508-0.955-1.137-0.955l0,0v-0.672
			v-0.67c1.512,0.002,2.729,1.029,2.729,2.297l0,0c0,1.271-1.221,2.297-2.729,2.3l0,0C34.749,61.015,33.53,59.985,33.528,58.715
			L33.528,58.715z"/>
	</g>
	<g>
		<path fill="#231F20" d="M34.268,59.387c-0.438-0.028-0.77-0.35-0.736-0.717l0,0c0.012-0.069,0.077-0.89,0.816-1.754l0,0
			c0.727-0.871,2.197-1.699,4.574-1.685l0,0c0.441,0,0.797,0.3,0.797,0.67l0,0c0,0.372-0.354,0.67-0.797,0.67l0,0
			c-1.729,0.011-2.574,0.463-3.089,0.925l0,0c-0.508,0.469-0.663,1.014-0.702,1.209l0,0c-0.01,0.055-0.01,0.059-0.01,0.059l0,0
			c-0.031,0.354-0.38,0.619-0.792,0.619l0,0C34.305,59.387,34.289,59.387,34.268,59.387L34.268,59.387z"/>
	</g>
	<g>
		<path fill="#231F20" d="M40.727,53.834c-0.002-0.002-3.325-2.008-5.17-3.166l0,0c-0.572-0.36-0.953-0.597-1.176-0.766l0,0
			c-0.229-0.146-1.216-0.885-1.293-2.338l0,0c-0.021-0.467-0.029-2.076-0.029-4.063l0,0c0-3.752,0.025-8.765,0.029-9.279l0,0
			c-0.006-0.045-0.013-0.1-0.013-0.17l0,0c-0.002-0.338,0.124-1.01,0.798-1.674l0,0c0.281-0.278,1.254-1.514,2.086-2.617l0,0
			c0.725-0.951,1.379-1.841,1.555-2.076l0,0c0.004-0.024,0.013-0.058,0.013-0.092l0,0c0-0.04-0.009-0.074-0.022-0.105l0,0
			c-0.072-0.146-1.654-2.924-3.188-5.602l0,0c-1.537-2.69-3.052-5.328-3.055-5.333l0,0c-0.189-0.333-0.023-0.736,0.376-0.896l0,0
			c0.395-0.163,0.869-0.021,1.064,0.314l0,0c0.004,0.011,6.037,10.543,6.266,10.988l0,0c0.117,0.226,0.153,0.446,0.153,0.634l0,0
			c-0.003,0.372-0.135,0.613-0.161,0.663l0,0l-0.049,0.074c0,0.002-0.756,1.029-1.607,2.149l0,0
			c-0.859,1.135-1.767,2.313-2.213,2.762l0,0c-0.399,0.397-0.414,0.705-0.422,0.81l0,0v0.009l0.012,0.123
			c0,0.008-0.028,5.362-0.028,9.317l0,0c0,1.971,0.009,3.616,0.028,4.008l0,0c0.047,0.879,0.59,1.271,0.668,1.328l0,0l0,0
			l0.099,0.068c0,0,0,0,0.007,0.008l0,0c0.018,0.01,0.038,0.025,0.066,0.047l0,0c0.056,0.037,0.138,0.092,0.232,0.151l0,0
			c0.196,0.131,0.457,0.293,0.758,0.483l0,0c0.605,0.379,1.381,0.854,2.143,1.324l0,0c1.523,0.936,2.999,1.828,3.004,1.828l0,0l0,0
			c0.354,0.217,0.438,0.635,0.183,0.938l0,0c-0.159,0.182-0.4,0.279-0.649,0.279l0,0C41.027,53.963,40.864,53.922,40.727,53.834
			L40.727,53.834z"/>
	</g>
	<g>
		<path fill="#231F20" d="M31.06,63.324c0-0.371,0.359-0.671,0.8-0.671l0,0h3.616c2.244,0.021,3.619-1.535,3.906-1.912l0,0
			c0.039-0.058,0.051-0.067,0.057-0.079l0,0c1.09-1.566,1.391-3.451,1.388-5.339l0,0c0-1.353-0.151-2.688-0.235-3.893l0,0
			c-0.016-0.198-0.02-0.392-0.02-0.579l0,0c0.005-2.782,1.345-4.867,1.377-4.921l0,0c5.515-8.546,6.892-15.55,6.892-20.437l0,0
			c0.008-4.761-1.326-7.544-1.408-7.697l0,0c-0.113-0.216-0.16-0.438-0.158-0.631l0,0c0.008-0.476,0.223-0.79,0.33-0.926l0,0
			l0.635-1.054c1.609-2.409,2.163-4.518,2.165-6.317l0,0c-0.007-4.125-2.929-6.706-3.584-7.336l0,0
			c-0.324,0.664-0.998,2.055-1.706,3.528l0,0c-0.982,2.038-2.04,4.254-2.291,4.846l0,0c-0.188,0.426-0.374,0.725-0.619,0.954l0,0
			c-0.236,0.23-0.599,0.395-0.952,0.392l0,0c-0.341-0.008-0.553-0.114-0.668-0.188l0,0c-3.755-2.216-7.854-2.336-8.594-2.333l0,0
			c-0.082,0-0.109,0.001-0.109,0.001l0,0v0.003c-0.44,0.015-0.813-0.273-0.831-0.644l0,0c-0.018-0.373,0.323-0.686,0.764-0.7l0,0
			c0.012,0,0.069-0.003,0.177-0.003l0,0c0.894,0.006,5.089,0.116,9.172,2.384l0,0c0.05-0.079,0.104-0.185,0.161-0.322l0,0
			c0.554-1.285,4.214-8.824,4.22-8.83l0,0l0.033-0.06c0.029-0.043,0.1-0.151,0.262-0.28l0,0c0.155-0.126,0.451-0.279,0.834-0.279
			l0,0c0.52,0.008,0.951,0.253,1.323,0.625l0,0c0.495,0.491,4.013,3.471,4.005,8.244l0,0c0.004,2.037-0.641,4.386-2.354,6.95l0,0
			l-0.641,1.059l-0.067,0.093h0.003c0,0,0,0.002-0.003,0.002l0,0c-0.005,0.009-0.017,0.026-0.029,0.048l0,0
			c-0.024,0.046-0.043,0.103-0.041,0.146l0,0c0,0.028,0.003,0.055,0.021,0.09l0,0c0.182,0.344,1.548,3.256,1.55,8.24l0,0
			c0,5.098-1.448,12.34-7.085,21.07l0,0c0,0-0.063,0.098-0.174,0.311l0,0c-0.109,0.211-0.262,0.521-0.412,0.914l0,0
			c-0.303,0.772-0.603,1.856-0.603,3.063l0,0c0,0.168,0.005,0.333,0.017,0.502l0,0c0.084,1.171,0.236,2.54,0.236,3.975l0,0
			c-0.002,1.993-0.3,4.127-1.601,6.006l0,0c-0.025,0.045-0.457,0.68-1.328,1.332l0,0C38.623,63.322,37.268,64,35.475,64l0,0h-3.615
			C31.42,63.995,31.06,63.693,31.06,63.324L31.06,63.324z"/>
	</g>
</g>
</svg>
