<?xml version="1.0" encoding="utf-8"?>
<!-- Generator: Adobe Illustrator 16.0.0, SVG Export Plug-In . SVG Version: 6.00 Build 0)  -->
<!DOCTYPE svg PUBLIC "-//W3C//DTD SVG 1.1//EN" "http://www.w3.org/Graphics/SVG/1.1/DTD/svg11.dtd">
<svg version="1.1" id="Capa_1" xmlns="http://www.w3.org/2000/svg" xmlns:xlink="http://www.w3.org/1999/xlink" x="0px" y="0px"
	 width="64px" height="64px" viewBox="0 0 64 64" enable-background="new 0 0 64 64" xml:space="preserve">
<g>
	<g>
		<path fill="#231F20" d="M30.658,63.602l-4.961-3.639l-0.044-0.035c-1.488-1.246-1.88-2.662-1.861-3.795l0,0
			c0.004-0.824,0.158-1.521,0.149-1.979l0,0c0-0.092-0.002-0.166-0.013-0.232l0,0c-0.054-0.516-0.578-2.094-1.292-3.736l0,0
			c-0.71-1.662-1.622-3.473-2.43-4.668l0,0c-1.787-2.646-2.811-5.938-2.823-5.973l0,0c-0.843-2.725-1.125-5.076-1.125-6.99l0,0
			c0-2.128,0.346-3.721,0.646-4.696l0,0c-0.37,0.016-0.816,0.022-1.321,0.022l0,0c-2.139-0.002-5.329-0.18-8.342-1.09l0,0
			c-2.994-0.905-5.895-2.583-7.152-5.652l0,0c-0.11-0.278-0.039-0.588,0.186-0.794l0,0c0.07-0.057,1.889-1.734,4.86-1.746l0,0
			c1.288,0,2.778,0.335,4.349,1.244l0,0l0.043,0.026c0.019,0.018,2.162,1.453,3.706,3.014l0,0c0.805,0.817,1.402,1.747,2.001,2.413
			l0,0c0.61,0.682,1.105,1.021,1.731,1.028l0,0c0.095,0,0.186,0.019,0.27,0.049l0,0c0.45-0.021,0.705-0.044,0.705-0.044l0,0
			c0.276-0.027,0.546,0.091,0.707,0.31l0,0c0.158,0.215,0.181,0.5,0.062,0.735l0,0c0,0.002-0.004,0.012-0.028,0.06l0,0
			c-0.023,0.052-0.056,0.129-0.097,0.239l0,0c-0.083,0.215-0.199,0.546-0.315,0.985l0,0c-0.231,0.877-0.471,2.189-0.471,3.892l0,0
			c0,1.777,0.261,3.986,1.059,6.574l0,0c0.002,0,0.245,0.779,0.704,1.885l0,0c0.456,1.104,1.125,2.514,1.938,3.711l0,0
			c0.897,1.332,1.824,3.186,2.563,4.904l0,0c0.738,1.736,1.278,3.254,1.397,4.123l0,0c0.017,0.139,0.021,0.271,0.021,0.402l0,0
			c-0.004,0.693-0.155,1.344-0.149,1.98l0,0c0.02,0.867,0.183,1.672,1.326,2.684l0,0l4.925,3.605v-0.002
			c0.018,0.012,0.047,0.025,0.089,0.045l0,0c0.082,0.033,0.198,0.064,0.325,0.064l0,0c0.425,0,0.767,0.324,0.767,0.729l0,0
			c0,0.404-0.343,0.734-0.767,0.734l0,0C31.216,63.988,30.747,63.654,30.658,63.602L30.658,63.602z M7.707,25.394
			c2.188,0.665,4.568,0.918,6.478,0.992l0,0c-0.043-0.046-0.084-0.092-0.125-0.141l0,0c-0.699-0.794-1.282-1.687-1.946-2.353l0,0
			c-0.691-0.699-1.567-1.415-2.264-1.944l0,0c-0.624-0.474-1.101-0.8-1.196-0.865l0,0c-1.338-0.765-2.514-1.015-3.521-1.018l0,0
			c-1.574-0.004-2.788,0.635-3.388,1.033l0,0C2.858,23.285,5.115,24.605,7.707,25.394L7.707,25.394z"/>
	</g>
	<g>
		<path fill="#231F20" d="M31.351,26.069l-0.146-8.276c-0.191,0.005-0.421,0.012-0.686,0.019l0,0c-0.004,0-0.028,0.001-0.072,0.001
			l0,0c-1.196,0.013-1.764-0.745-1.859-0.94l0,0c-0.206-0.292-1.042-1.486-1.343-2.019l0,0c-0.022-0.063-0.085-0.084-0.125-0.092
			l0,0c-0.244,0.051-0.887,0.187-1.593,0.35l0,0c-0.901,0.202-1.939,0.455-2.305,0.581l0,0c-0.436,0.145-0.666,0.392-0.752,0.505
			l0,0l-0.542,2.473c-0.113,0.798-0.75,1.202-1.18,1.402l0,0c-0.468,0.215-0.874,0.28-0.886,0.287l0,0
			c-0.225,0.046-0.446,0.063-0.66,0.063l0,0c-1.279-0.017-2.272-0.619-2.332-0.643l0,0l-0.084-0.057
			c-3.213-2.463-7.702-2.6-8.331-2.59l0,0c-0.051,0-0.066,0-0.066,0l0,0h-0.05c-0.069,0-0.147,0-0.231,0l0,0
			c-5.023,0.023-6.254,2.968-6.547,3.657l0,0c-0.037,0.093-0.043,0.122-0.043,0.122l0,0l0,0c-0.109,0.394-0.526,0.632-0.936,0.532
			l0,0c-0.413-0.103-0.664-0.5-0.556-0.894l0,0c0.02-0.071,0.346-1.268,1.535-2.484l0,0c1.181-1.219,3.269-2.406,6.545-2.396l0,0
			c0.079,0,0.167-0.001,0.265,0.003l0,0c0.021,0,0.049-0.003,0.083-0.003l0,0c0.776,0.013,5.501,0.084,9.241,2.875l0,0
			c0.019,0.009,0.044,0.022,0.08,0.038l0,0c0.085,0.043,0.213,0.099,0.366,0.159l0,0c0.302,0.113,0.706,0.219,1.06,0.216l0,0
			c0.116,0,0.227-0.009,0.361-0.037l0,0c-0.003-0.001,0.02-0.005,0.077-0.019l0,0c0.059-0.015,0.149-0.04,0.242-0.072l0,0
			c0.191-0.062,0.398-0.179,0.472-0.259l0,0c0.05-0.056,0.045-0.06,0.05-0.081l0,0l0.017-0.097l0.574-2.628l0.065-0.18
			c0.049-0.091,0.488-0.878,1.645-1.276l0,0c1.023-0.343,4.168-0.997,4.191-1.004l0,0l0.044-0.011
			c0.036-0.004,0.085-0.01,0.139-0.01l0,0c0.196-0.004,1.05,0.046,1.526,0.879l0,0c0.11,0.206,0.451,0.717,0.746,1.147l0,0
			c0.296,0.435,0.557,0.802,0.559,0.806l0,0l0.037,0.061l0.001-0.002c0,0,0,0,0,0.002l0,0c0.009,0.01,0.025,0.024,0.053,0.048l0,0
			c0.063,0.044,0.16,0.112,0.448,0.117l0,0c0,0,0.026-0.001,0.046-0.001l0,0c0.969-0.031,1.459-0.031,1.467-0.031l0,0
			c0.417,0,0.761,0.319,0.767,0.722l0,0l0.16,9.009c0.006,0.407-0.332,0.74-0.755,0.745l0,0c-0.005,0-0.01,0-0.013,0l0,0
			C31.699,26.792,31.357,26.47,31.351,26.069L31.351,26.069z"/>
	</g>
	<g>
		<path fill="#231F20" d="M24.534,56.758c-0.301-0.285-0.301-0.752,0-1.039l0,0c0.298-0.283,0.786-0.283,1.085,0l0,0
			c2.028,1.945,4.42,2.439,5.604,2.563l0,0v-1.309c0-0.404,0.346-0.734,0.769-0.734l0,0c0.425,0,0.768,0.33,0.768,0.734l0,0v2.078
			c0,0.395-0.332,0.721-0.746,0.729l0,0c-0.01,0-0.051,0.002-0.119,0.002l0,0C31.187,59.779,27.575,59.646,24.534,56.758
			L24.534,56.758z"/>
	</g>
	<g>
		<path fill="#231F20" d="M29.792,55.824c-1.825-0.877-2.596-2.254-2.64-2.324l0,0l0,0c-0.202-0.355-0.063-0.799,0.312-0.994l0,0
			c0.372-0.189,0.84-0.055,1.041,0.303l0,0c0,0,0,0,0.016,0.023l0,0c0.019,0.023,0.044,0.066,0.083,0.121l0,0
			c0.073,0.105,0.19,0.262,0.355,0.438l0,0c0.325,0.354,0.828,0.793,1.52,1.125l0,0c0.379,0.18,0.535,0.619,0.346,0.98l0,0
			c-0.137,0.258-0.408,0.404-0.689,0.404l0,0C30.019,55.902,29.904,55.875,29.792,55.824L29.792,55.824z"/>
	</g>
	<g>
		<path fill="#231F20" d="M21.071,15.448c0,0-0.165-0.547-0.5-1.461l0,0c-0.339-0.911-0.841-2.18-1.512-3.584l0,0
			c-1.329-2.802-3.334-6.143-5.881-8.282l0,0c-0.094-0.069-0.382-0.285-0.624-0.602l0,0c-0.09-0.136-0.218-0.282-0.235-0.629l0,0
			c-0.023-0.265,0.208-0.638,0.461-0.749l0,0c0.245-0.125,0.437-0.135,0.626-0.139l0,0c0.388,0.003,0.83,0.092,1.512,0.278l0,0
			c0.163,0.037,7.151,2.093,12.521,13.134l0,0c0.177,0.367,0.01,0.802-0.375,0.973l0,0c-0.384,0.171-0.843,0.013-1.021-0.354l0,0
			C21.962,5.669,17.068,2.811,15.23,1.979l0,0c4.915,4.943,7.283,13.02,7.318,13.068l0,0v0.001c0.116,0.389-0.119,0.795-0.525,0.907
			l0,0c-0.072,0.019-0.143,0.027-0.211,0.027l0,0C21.475,15.979,21.168,15.77,21.071,15.448L21.071,15.448z"/>
	</g>
	<g>
		<path fill="#231F20" d="M31.244,63.264c0-0.404,0.346-0.732,0.771-0.732l0,0c0.188,0.002,0.362-0.074,0.41-0.105l0,0v0.002
			l4.917-3.604c1.148-1.016,1.314-1.822,1.332-2.689l0,0c0.004-0.641-0.143-1.285-0.146-1.979l0,0c0-0.133,0.004-0.268,0.021-0.404
			l0,0c0.115-0.869,0.657-2.387,1.396-4.121l0,0c0.738-1.721,1.664-3.574,2.56-4.906l0,0c0.813-1.195,1.482-2.605,1.939-3.709l0,0
			c0.458-1.105,0.704-1.885,0.704-1.883l0,0c0.799-2.592,1.057-4.799,1.057-6.574l0,0c0-2.98-0.729-4.767-0.883-5.118l0,0
			c-0.021-0.052-0.028-0.061-0.028-0.061l0,0c-0.118-0.236-0.095-0.52,0.065-0.735l0,0c0.156-0.219,0.428-0.336,0.703-0.31l0,0
			c0-0.003,0.256,0.02,0.705,0.044l0,0c0.084-0.033,0.174-0.048,0.27-0.048l0,0c0.625-0.008,1.123-0.349,1.732-1.029l0,0
			c0.598-0.667,1.197-1.596,2-2.413l0,0c1.545-1.562,3.688-2.996,3.707-3.014l0,0l0.047-0.026c1.566-0.909,3.054-1.245,4.345-1.245
			l0,0c2.974,0.011,4.792,1.687,4.86,1.744l0,0c0.224,0.203,0.297,0.518,0.186,0.795l0,0c-1.259,3.07-4.159,4.75-7.156,5.653l0,0
			c-3.008,0.909-6.199,1.089-8.338,1.09l0,0c-0.504,0-0.949-0.013-1.32-0.023l0,0c0.299,0.976,0.645,2.567,0.645,4.698l0,0
			c0,1.912-0.283,4.264-1.125,6.988l0,0c-0.014,0.033-1.036,3.326-2.823,5.975l0,0c-0.809,1.195-1.72,3.008-2.431,4.668l0,0
			c-0.712,1.645-1.237,3.221-1.29,3.738l0,0c-0.013,0.068-0.015,0.145-0.015,0.23l0,0c-0.004,0.459,0.145,1.158,0.149,1.979l0,0
			c0.019,1.131-0.374,2.549-1.86,3.795l0,0l-0.045,0.035l-4.979,3.648c-0.067,0.041-0.54,0.375-1.313,0.383l0,0
			C31.589,63.996,31.244,63.668,31.244,63.264L31.244,63.264z M54.155,21.948c-0.699,0.531-1.574,1.245-2.268,1.944l0,0
			c-0.662,0.666-1.244,1.561-1.942,2.353l0,0c-0.042,0.05-0.082,0.095-0.128,0.141l0,0c1.908-0.074,4.289-0.327,6.479-0.992l0,0
			c2.594-0.789,4.854-2.109,5.963-4.295l0,0c-0.158-0.106-0.359-0.23-0.596-0.35l0,0c-0.67-0.345-1.63-0.685-2.791-0.685l0,0
			c-1.008,0.003-2.182,0.251-3.52,1.018l0,0C55.259,21.142,54.783,21.471,54.155,21.948L54.155,21.948z"/>
	</g>
	<g>
		<path fill="#231F20" d="M62.49,20.915c0,0-0.009-0.027-0.041-0.122l0,0c-0.036-0.095-0.097-0.241-0.185-0.417l0,0
			c-0.178-0.353-0.477-0.832-0.942-1.308l0,0c-0.94-0.944-2.522-1.923-5.423-1.934l0,0c-0.086,0-0.162,0.002-0.232,0.002l0,0h-0.051
			c0,0-0.018,0-0.068,0l0,0c-0.63-0.01-5.113,0.127-8.328,2.591l0,0l-0.084,0.056c-0.059,0.022-1.055,0.627-2.33,0.644l0,0
			c-0.213,0-0.437-0.019-0.636-0.06l0,0c-0.039-0.01-0.442-0.076-0.913-0.294l0,0c-0.432-0.202-1.074-0.606-1.182-1.413l0,0
			l-0.542-2.461c-0.022-0.031-0.058-0.072-0.104-0.116l0,0c-0.123-0.123-0.324-0.279-0.646-0.39l0,0
			c-0.364-0.127-1.403-0.38-2.306-0.579l0,0c-0.705-0.164-1.344-0.299-1.592-0.351l0,0c-0.041,0.008-0.101,0.028-0.127,0.093l0,0
			c-0.302,0.535-1.146,1.736-1.346,2.023l0,0c-0.102,0.203-0.67,0.944-1.855,0.934l0,0c-0.047,0-0.071,0-0.099,0l0,0
			c-0.95-0.031-1.414-0.031-1.417-0.029l0,0c-0.425,0-0.768-0.328-0.768-0.733l0,0c0-0.407,0.342-0.735,0.768-0.735l0,0
			c0.008,0,0.499,0,1.439,0.031l0,0c0.05,0,0.072,0.002,0.074,0l0,0c0.416-0.01,0.467-0.144,0.502-0.166l0,0v0.003l0.037-0.065
			c0.002,0,0.262-0.367,0.56-0.802l0,0c0.293-0.43,0.631-0.94,0.745-1.144l0,0c0.476-0.834,1.33-0.886,1.523-0.878l0,0
			c0.057,0,0.102,0.001,0.137,0.007l0,0l0.049,0.01c0.021,0.007,3.17,0.661,4.188,1.003l0,0c1.16,0.397,1.599,1.186,1.647,1.277l0,0
			l0.063,0.18l0.578,2.626l0.014,0.099c0,0.017,0.008,0.062,0.162,0.17l0,0c0.145,0.096,0.381,0.186,0.533,0.225l0,0
			c0.104,0.027,0.146,0.035,0.174,0.04l0,0c0.104,0.022,0.217,0.032,0.332,0.032l0,0c0.532,0.01,1.172-0.244,1.426-0.375l0,0
			c0.041-0.019,0.066-0.032,0.086-0.041l0,0c3.738-2.791,8.457-2.861,9.232-2.872l0,0c0.037,0,0.064,0.003,0.086,0.003l0,0
			c0.096-0.005,0.186-0.003,0.266-0.005l0,0c3.279-0.009,5.365,1.179,6.545,2.397l0,0c1.188,1.216,1.514,2.414,1.535,2.485l0,0
			c0.104,0.394-0.145,0.791-0.555,0.893l0,0c-0.063,0.014-0.129,0.021-0.189,0.021l0,0C62.892,21.468,62.577,21.246,62.49,20.915
			L62.49,20.915z"/>
	</g>
	<g>
		<path fill="#231F20" d="M31.992,59.781c-0.416-0.014-0.746-0.336-0.746-0.73l0,0v-2.078c0-0.402,0.343-0.732,0.768-0.732l0,0
			c0.422,0,0.767,0.33,0.767,0.732l0,0v1.307c1.185-0.119,3.576-0.613,5.605-2.561l0,0c0.297-0.283,0.786-0.283,1.084,0l0,0
			c0.303,0.287,0.303,0.754,0,1.037l0,0c-3.041,2.895-6.654,3.023-7.361,3.025l0,0C32.039,59.781,31.997,59.781,31.992,59.781
			L31.992,59.781z"/>
	</g>
	<g>
		<path fill="#231F20" d="M33.183,55.498c-0.189-0.361-0.033-0.803,0.346-0.982l0,0c1.207-0.572,1.845-1.5,1.958-1.684l0,0
			c0.014-0.021,0.014-0.025,0.014-0.025l0,0v0.004c0.202-0.357,0.667-0.492,1.041-0.303l0,0c0.372,0.191,0.515,0.639,0.313,0.994
			l0,0c-0.043,0.068-0.817,1.447-2.641,2.324l0,0c-0.107,0.055-0.227,0.076-0.343,0.076l0,0
			C33.589,55.902,33.319,55.754,33.183,55.498L33.183,55.498z"/>
	</g>
	<g>
		<path fill="#231F20" d="M41.981,15.952c-0.405-0.113-0.645-0.52-0.524-0.907l0,0c0.03-0.048,2.401-8.123,7.317-13.067l0,0
			c-0.082,0.036-0.168,0.079-0.264,0.124l0,0c-0.67,0.325-1.633,0.873-2.761,1.753l0,0c-2.261,1.759-5.19,4.846-7.79,10.176l0,0
			c-0.179,0.367-0.638,0.527-1.021,0.354l0,0c-0.385-0.169-0.551-0.606-0.371-0.973l0,0c5.367-11.041,12.355-13.1,12.518-13.134l0,0
			C49.769,0.092,50.211,0.003,50.599,0l0,0c0.188,0.003,0.377,0.014,0.621,0.136l0,0c0.256,0.112,0.488,0.483,0.465,0.752l0,0
			c-0.019,0.347-0.145,0.494-0.233,0.629l0,0c-0.097,0.129-0.196,0.229-0.289,0.319l0,0c-0.151,0.142-0.29,0.249-0.342,0.29l0,0
			c-3.829,3.206-6.392,9.123-7.388,11.859l0,0c-0.334,0.914-0.5,1.461-0.5,1.461l0,0v0.003c-0.096,0.321-0.403,0.529-0.738,0.529
			l0,0C42.124,15.979,42.054,15.971,41.981,15.952L41.981,15.952z M50.197,0.667L50.197,0.667L50.197,0.667L50.197,0.667
			L50.197,0.667z"/>
	</g>
</g>
</svg>
