<?xml version="1.0" encoding="utf-8"?>
<!-- Generator: Adobe Illustrator 16.0.0, SVG Export Plug-In . SVG Version: 6.00 Build 0)  -->
<!DOCTYPE svg PUBLIC "-//W3C//DTD SVG 1.1//EN" "http://www.w3.org/Graphics/SVG/1.1/DTD/svg11.dtd">
<svg version="1.1" id="Capa_1" xmlns="http://www.w3.org/2000/svg" xmlns:xlink="http://www.w3.org/1999/xlink" x="0px" y="0px"
	 width="64px" height="64px" viewBox="0 0 64 64" enable-background="new 0 0 64 64" xml:space="preserve">
<g>
	<g>
		<path fill="#231F20" d="M22.033,49.971c-4.807-6.933-6.204-16.328-6.31-17.013l0,0c-0.05-0.252-0.668-3.517-0.668-7.71l0,0
			c0.005-4.45,0.683-10,3.636-14.069l0,0c0.058-0.07,4.888-7.154,13.374-7.18l0,0c0.405,0,0.733,0.376,0.733,0.841l0,0
			c0,0.461-0.329,0.838-0.733,0.838l0,0c-6.748-0.014-11.083,5.043-12.029,6.281l0,0c-0.137,0.175-0.192,0.257-0.207,0.275l0,0
			c-2.619,3.571-3.318,8.747-3.31,13.013l0,0c0,2.073,0.159,3.923,0.318,5.247l0,0c0.162,1.323,0.317,2.105,0.317,2.105l0,0
			l0.009,0.058c0.002,0,0.081,0.571,0.275,1.57l0,0c0.199,1,0.511,2.408,0.973,4.029l0,0c0.921,3.24,2.438,7.32,4.767,10.664l0,0
			c0.251,0.363,0.201,0.892-0.116,1.181l0,0c-0.134,0.125-0.296,0.187-0.455,0.187l0,0C22.392,50.29,22.178,50.178,22.033,49.971
			L22.033,49.971z"/>
	</g>
	<g>
		<path fill="#231F20" d="M40.906,50.103c-0.317-0.288-0.369-0.814-0.114-1.18l0,0c3.497-5.014,5.149-11.694,5.737-14.694l0,0
			c0.196-0.998,0.273-1.569,0.273-1.569l0,0l0.012-0.058c0-0.002,0.154-0.783,0.313-2.105l0,0c0.161-1.324,0.323-3.171,0.323-5.248
			l0,0c0.002-4.265-0.695-9.44-3.326-13.03l0,0c0,0-0.057-0.083-0.19-0.257l0,0c-0.135-0.174-0.34-0.426-0.608-0.734l0,0
			c-0.543-0.615-1.352-1.44-2.399-2.263l0,0c-2.104-1.648-5.159-3.283-9.021-3.283l0,0c-0.405,0-0.733-0.377-0.733-0.838l0,0
			c0-0.465,0.327-0.841,0.733-0.841l0,0c8.485,0.025,13.313,7.108,13.359,7.162l0,0c2.967,4.085,3.645,9.635,3.65,14.085l0,0
			c-0.002,4.208-0.624,7.483-0.672,7.715l0,0c-0.105,0.701-1.508,10.087-6.307,17.008l0,0l0,0c-0.146,0.209-0.359,0.318-0.572,0.318
			l0,0C41.203,50.29,41.043,50.229,40.906,50.103L40.906,50.103z"/>
	</g>
	<g>
		<path fill="#231F20" d="M22.939,50.165c-0.33-0.218-0.415-0.644-0.182-0.955l0,0c2.836-3.799,3.205-13.314,3.199-15.352l0,0
			c0-0.637-0.032-0.984-0.032-0.984l0,0l-0.001-0.043c-0.108-4.458-2.063-7.512-4.249-9.6l0,0c-2.187-2.083-4.614-3.163-5.559-3.524
			l0,0c-0.271-0.104-0.406-0.146-0.423-0.151l0,0c-0.003,0-0.143-0.049-0.431-0.128l0,0c-0.286-0.081-0.707-0.189-1.231-0.3l0,0
			c-1.048-0.218-2.508-0.438-4.124-0.438l0,0c-2.468,0-5.275,0.508-7.657,2.249l0,0c0,0.003,0,0-0.018,0.018l0,0
			c-0.02,0.012-0.052,0.036-0.091,0.069l0,0c-0.078,0.065-0.183,0.166-0.288,0.292l0,0c-0.211,0.254-0.388,0.585-0.386,0.939l0,0
			c0,0.099,0.013,0.204,0.044,0.321l0,0l0.019,0.088c0,0,0,0.008,0.015,0.07l0,0c0.016,0.061,0.04,0.156,0.086,0.277l0,0
			c0.088,0.24,0.251,0.572,0.532,0.917l0,0c0.569,0.685,1.591,1.454,3.715,1.67l0,0l0.08,0.014c0.001-0.002,0.126,0.027,0.399,0.059
			l0,0c0.273,0.032,0.673,0.063,1.165,0.063l0,0c1.932-0.006,5.163-0.488,7.712-3.446l0,0l0.001,0.002
			c0.251-0.296,0.713-0.346,1.03-0.104l0,0c0.315,0.237,0.362,0.67,0.111,0.963l0,0c-2.906,3.377-6.679,3.964-8.854,3.956l0,0
			c-0.993,0-1.672-0.112-1.841-0.146l0,0c-2.438-0.244-3.902-1.234-4.681-2.197l0,0c-0.708-0.871-0.881-1.674-0.916-1.882l0,0
			C0.025,22.666,0,22.457,0,22.257l0,0c0.043-1.568,1.336-2.37,1.366-2.412l0,0c2.709-1.978,5.868-2.525,8.54-2.525l0,0
			c3.514,0.002,6.24,0.936,6.269,0.943l0,0c0.055,0.018,2.752,0.863,5.512,3.102l0,0c2.752,2.226,5.571,5.897,5.699,11.411l0,0
			c0.007,0.088,0.037,0.474,0.037,1.08l0,0c-0.008,2.173-0.348,11.929-3.463,16.134l0,0c-0.142,0.192-0.371,0.299-0.601,0.299l0,0
			C23.213,50.29,23.068,50.249,22.939,50.165L22.939,50.165z"/>
	</g>
	<g>
		<path fill="#231F20" d="M5.841,24.828c-1.1-0.493-1.623-1.309-1.599-2.02l0,0c0.018-0.825,0.498-1.308,0.554-1.382l0,0
			c1.693-1.667,4.707-1.89,7.168-1.915l0,0c2.136,0,3.866,0.243,3.888,0.245l0,0v0.001c0.399,0.057,0.675,0.406,0.616,0.779l0,0
			c-0.006,0.029-0.013,0.057-0.02,0.088l0,0c0.069,0.042,0.132,0.099,0.185,0.168l0,0c0.233,0.311,0.155,0.737-0.175,0.955l0,0
			c-4.202,2.771-7.107,3.375-8.823,3.375l0,0C6.529,25.124,5.933,24.871,5.841,24.828L5.841,24.828z M6.515,23.607
			c0.036,0.016,0.096,0.032,0.19,0.057l0,0c0.187,0.041,0.495,0.091,0.928,0.091l0,0c1.271,0,3.672-0.417,7.341-2.715l0,0
			c-0.129-0.013-0.271-0.026-0.429-0.04l0,0c-0.665-0.06-1.58-0.119-2.583-0.117l0,0c-2.329-0.025-5.095,0.385-6.066,1.442l0,0
			c-0.002,0.008-0.008,0.014-0.018,0.023l0,0c-0.02,0.026-0.048,0.066-0.075,0.117l0,0c-0.056,0.1-0.102,0.234-0.1,0.345l0,0
			c0.019,0.165,0.01,0.395,0.784,0.788l0,0C6.494,23.601,6.501,23.604,6.515,23.607L6.515,23.607z"/>
	</g>
	<g>
		<path fill="#231F20" d="M40.045,49.991c-3.116-4.203-3.455-13.961-3.46-16.134l0,0c0-0.606,0.026-0.999,0.032-1.082l0,0
			c0.131-5.514,2.947-9.185,5.701-11.41l0,0c2.76-2.238,5.455-3.082,5.492-3.095l0,0c0.049-0.017,2.773-0.949,6.288-0.951l0,0
			c2.67,0,5.829,0.548,8.521,2.515l0,0c0.045,0.053,1.339,0.855,1.381,2.424l0,0c0,0.201-0.024,0.416-0.08,0.632l0,0
			c-0.039,0.22-0.215,1.016-0.915,1.875l0,0c-0.777,0.963-2.243,1.954-4.683,2.198l0,0c-0.168,0.032-0.847,0.146-1.84,0.146l0,0
			c-2.177,0.01-5.951-0.58-8.853-3.955l0,0l0,0c-0.257-0.294-0.206-0.727,0.11-0.964l0,0c0.313-0.237,0.774-0.19,1.029,0.103l0,0
			c2.549,2.958,5.779,3.44,7.713,3.446l0,0c0.49,0,0.891-0.03,1.163-0.063l0,0c0.275-0.031,0.397-0.059,0.399-0.059l0,0l0.078-0.015
			c3.673-0.392,4.188-2.416,4.336-2.866l0,0c0.016-0.063,0.018-0.07,0.018-0.07l0,0l0.018-0.088c0.031-0.115,0.043-0.221,0.043-0.32
			l0,0c0.029-0.611-0.608-1.204-0.762-1.303l0,0c-0.02-0.017-0.02-0.017-0.039-0.029l0,0c-2.363-1.728-5.168-2.235-7.637-2.235l0,0
			c-2.428,0-4.494,0.495-5.355,0.738l0,0c-0.287,0.082-0.43,0.129-0.447,0.134l0,0c0,0-0.133,0.041-0.401,0.146l0,0
			c-0.271,0.105-0.659,0.268-1.136,0.495l0,0c-0.943,0.455-2.212,1.169-3.479,2.196l0,0c-2.539,2.069-5.074,5.342-5.196,10.433l0,0
			l-0.003,0.043c0.003,0.002-0.032,0.351-0.032,0.984l0,0c-0.007,2.034,0.362,11.551,3.201,15.354l0,0
			c0.229,0.311,0.147,0.736-0.185,0.955l0,0c-0.127,0.082-0.273,0.123-0.416,0.123l0,0C40.414,50.29,40.187,50.184,40.045,49.991
			L40.045,49.991z"/>
	</g>
	<g>
		<path fill="#231F20" d="M56.369,25.124c-1.715,0-4.621-0.604-8.819-3.375l0,0c-0.329-0.218-0.41-0.645-0.177-0.955l0,0
			c0.053-0.069,0.115-0.128,0.184-0.168l0,0c-0.007-0.029-0.016-0.057-0.02-0.088l0,0c-0.06-0.373,0.217-0.722,0.619-0.78l0,0
			c0.02-0.001,1.752-0.245,3.888-0.245l0,0c2.461,0.023,5.474,0.248,7.187,1.929l0,0c0.038,0.063,0.518,0.542,0.537,1.368l0,0
			c0.02,0.711-0.502,1.526-1.604,2.02l0,0c-0.09,0.043-0.684,0.295-1.784,0.295l0,0C56.376,25.124,56.371,25.124,56.369,25.124
			L56.369,25.124z M56.369,23.754c0.711,0,1.078-0.129,1.143-0.153l0,0c0.775-0.396,0.77-0.626,0.789-0.79l0,0
			c0.009-0.169-0.131-0.408-0.182-0.467l0,0c-0.002-0.007-0.006-0.009-0.008-0.013l0,0l0,0l-0.002-0.002
			c-1.006-1.068-3.75-1.473-6.065-1.446l0,0c-1.011-0.002-1.933,0.056-2.603,0.117l0,0c-0.152,0.012-0.289,0.025-0.41,0.04l0,0
			C52.697,23.336,55.099,23.754,56.369,23.754L56.369,23.754z"/>
	</g>
	<g>
		<path fill="#231F20" d="M23.195,11.334c0-0.378,0.327-0.685,0.732-0.685l0,0c0.404,0,0.733,0.309,0.733,0.685l0,0
			c0.004,0.474,0.348,0.739,0.611,0.739l0,0c0.261,0,0.604-0.267,0.61-0.739l0,0c0-0.378,0.328-0.685,0.733-0.685l0,0
			c0.404,0,0.733,0.309,0.733,0.685l0,0c-0.002,1.103-0.854,2.099-2.074,2.112l0,0C24.048,13.431,23.197,12.437,23.195,11.334
			L23.195,11.334z"/>
	</g>
	<g>
		<path fill="#231F20" d="M28.553,10.816c0-0.381,0.327-0.688,0.732-0.688l0,0c0.401,0,0.731,0.309,0.731,0.688l0,0
			c0.005,0.475,0.349,0.739,0.609,0.739l0,0c0.263,0,0.606-0.265,0.612-0.739l0,0c0-0.381,0.326-0.688,0.732-0.688l0,0
			c0.402,0,0.732,0.309,0.732,0.688l0,0c-0.002,1.102-0.855,2.1-2.075,2.11l0,0C29.404,12.912,28.553,11.917,28.553,10.816
			L28.553,10.816z"/>
	</g>
	<g>
		<path fill="#231F20" d="M25.884,11.134c-0.01-0.083-0.012-0.156-0.012-0.221l0,0c-0.005-1.017,0.736-1.96,1.875-2.069l0,0l0,0
			c0.073-0.009,0.13-0.009,0.173-0.009l0,0c1.14,0.014,1.994,0.892,2.096,1.937l0,0l0,0c0.037,0.378-0.261,0.709-0.663,0.745l0,0
			c-0.402,0.034-0.76-0.244-0.797-0.622l0,0c-0.043-0.446-0.39-0.7-0.636-0.687l0,0c-0.012-0.004-0.012-0.003-0.012-0.003l0,0
			l-0.033,0.004c-0.245,0.011-0.534,0.274-0.54,0.705l0,0c0,0.029,0,0.055,0.005,0.075l0,0c0.042,0.378-0.25,0.715-0.653,0.753l0,0
			c-0.024,0.003-0.052,0.004-0.077,0.004l0,0C26.242,11.746,25.923,11.486,25.884,11.134L25.884,11.134z"/>
	</g>
	<g>
		<path fill="#231F20" d="M24.253,53.229c0.001-1.264,1.092-2.285,2.441-2.285l0,0c1.35,0,2.44,1.021,2.442,2.285l0,0
			c0,1.264-1.093,2.283-2.442,2.283l0,0C25.346,55.513,24.254,54.491,24.253,53.229L24.253,53.229z M25.718,53.229
			c0.001,0.505,0.437,0.911,0.977,0.911l0,0c0.54,0,0.976-0.406,0.978-0.911l0,0c-0.002-0.505-0.438-0.913-0.978-0.915l0,0
			C26.156,52.316,25.719,52.725,25.718,53.229L25.718,53.229z"/>
	</g>
	<g>
		<path fill="#231F20" d="M26.691,58.622c-0.229,0-0.396-0.015-0.485-0.024l0,0c-2.95-0.079-5.107-2.685-5.127-5.31l0,0
			c-0.001-1.176,0.45-2.262,1.196-3.1l0,0c0.949-1.068,2.388-1.753,3.992-1.753l0,0c1.071,0,2.072,0.308,2.896,0.828l0,0h0.004
			c0.332,0.209,0.422,0.636,0.197,0.95l0,0c-0.228,0.312-0.684,0.396-1.018,0.185l0,0c-0.596-0.374-1.307-0.593-2.081-0.593l0,0
			c-1.152,0-2.18,0.486-2.864,1.259l0,0c-0.538,0.606-0.857,1.375-0.857,2.224l0,0c-0.005,0.967,0.427,1.979,1.125,2.728l0,0
			c0.696,0.75,1.62,1.215,2.597,1.215l0,0l0.129,0.011c0.001,0,0.001,0.002,0.055,0.006l0,0c0.052,0.002,0.135,0.01,0.242,0.01l0,0
			c0.452,0,1.312-0.094,2.185-0.715l0,0c1.322-0.957,2.271-1.121,2.83-1.113l0,0c0.113,0,0.197,0.005,0.238,0.005l0,0
			c0.404,0,0.73,0.305,0.73,0.685l0,0c0,0.377-0.326,0.684-0.73,0.684l0,0c-0.101,0-0.17-0.002-0.238-0.002l0,0
			c-0.299,0.013-0.745,0-1.943,0.832l0,0c-1.189,0.844-2.389,0.992-3.058,0.992l0,0C26.7,58.622,26.694,58.622,26.691,58.622
			L26.691,58.622z"/>
	</g>
	<g>
		<path fill="#231F20" d="M27.213,58.223L27.213,58.223c-0.172-0.347-0.016-0.75,0.353-0.91l0,0c0.362-0.16,0.795-0.021,0.97,0.319
			l0,0c0,0,0.003,0.01,0.009,0.019l0,0c0.012,0.021,0.034,0.056,0.069,0.101l0,0c0.069,0.09,0.182,0.215,0.347,0.349l0,0
			c0.334,0.252,0.854,0.524,1.764,0.528l0,0l1.221,0.006c0.403,0,0.733,0.304,0.733,0.682l0,0c0,0.379-0.33,0.686-0.733,0.686l0,0
			h-1.221c-0.004,0-0.008,0-0.011,0l0,0C28.181,59.999,27.243,58.323,27.213,58.223L27.213,58.223z"/>
	</g>
	<g>
		<path fill="#231F20" d="M36.666,11.334c0-0.378,0.324-0.685,0.73-0.685l0,0c0.404,0,0.732,0.309,0.732,0.685l0,0
			c0.006,0.474,0.349,0.739,0.611,0.739l0,0c0.263,0,0.604-0.267,0.609-0.739l0,0c0-0.378,0.328-0.685,0.733-0.685l0,0
			c0.403,0,0.731,0.309,0.731,0.685l0,0c-0.003,1.103-0.854,2.099-2.076,2.112l0,0C37.518,13.431,36.666,12.437,36.666,11.334
			L36.666,11.334z"/>
	</g>
	<g>
		<path fill="#231F20" d="M31.31,10.816c0-0.381,0.327-0.688,0.731-0.688l0,0c0.404,0,0.734,0.309,0.734,0.688l0,0
			c0.004,0.475,0.348,0.739,0.607,0.739l0,0c0.264,0,0.605-0.265,0.611-0.739l0,0c0-0.381,0.326-0.688,0.732-0.688l0,0
			c0.402,0,0.732,0.309,0.732,0.688l0,0c-0.001,1.102-0.852,2.1-2.076,2.11l0,0C32.162,12.912,31.311,11.917,31.31,10.816
			L31.31,10.816z"/>
	</g>
	<g>
		<path fill="#231F20" d="M37.342,11.745c-0.406-0.028-0.706-0.358-0.674-0.736l0,0c0.001-0.038,0.005-0.069,0.005-0.093l0,0
			c-0.005-0.429-0.295-0.694-0.567-0.709l0,0c0,0.003,0,0.003-0.003,0l0,0c-0.004,0-0.007,0-0.016,0.003l0,0
			c-0.244-0.018-0.589,0.238-0.636,0.688l0,0c-0.037,0.378-0.394,0.655-0.795,0.621l0,0c-0.404-0.032-0.699-0.367-0.664-0.745l0,0
			c0.101-1.045,0.955-1.923,2.095-1.937l0,0c0.053,0,0.121,0,0.177,0.009l0,0c1.139,0.106,1.877,1.052,1.873,2.069l0,0
			c0,0.069-0.003,0.139-0.009,0.203l0,0c-0.028,0.355-0.349,0.627-0.728,0.627l0,0C37.381,11.745,37.359,11.745,37.342,11.745
			L37.342,11.745z"/>
	</g>
	<g>
		<path fill="#231F20" d="M34.876,53.229c0-1.264,1.09-2.285,2.44-2.285l0,0c1.348,0,2.439,1.021,2.439,2.285l0,0
			c0,1.264-1.094,2.283-2.439,2.283l0,0C35.968,55.513,34.876,54.491,34.876,53.229L34.876,53.229z M37.316,54.141
			c0.539,0,0.975-0.406,0.975-0.911l0,0c0-0.505-0.438-0.913-0.975-0.915l0,0c-0.541,0.002-0.979,0.41-0.979,0.915l0,0
			C36.338,53.734,36.775,54.141,37.316,54.141L37.316,54.141z"/>
	</g>
	<g>
		<path fill="#231F20" d="M34.248,57.63c-1.2-0.834-1.646-0.822-1.943-0.834l0,0c-0.068,0-0.141,0.002-0.238,0.002l0,0
			c-0.402,0-0.733-0.308-0.733-0.684l0,0c0-0.381,0.329-0.684,0.733-0.684l0,0c0.041,0,0.125-0.005,0.238-0.008l0,0
			c0.557-0.008,1.507,0.156,2.829,1.117l0,0c0.873,0.617,1.733,0.713,2.187,0.713l0,0c0.106,0,0.188-0.006,0.241-0.01l0,0
			c0.052-0.002,0.058-0.005,0.058-0.005l0,0l0.125-0.012c0.978,0,1.902-0.464,2.602-1.214l0,0c0.693-0.747,1.127-1.762,1.125-2.727
			l0,0c0-0.85-0.32-1.617-0.859-2.225l0,0c-0.685-0.771-1.711-1.259-2.867-1.259l0,0c-0.771,0-1.482,0.219-2.078,0.593l0,0v0.002
			c-0.336,0.207-0.793,0.128-1.016-0.188l0,0c-0.228-0.313-0.139-0.741,0.197-0.949l0,0c0.826-0.524,1.825-0.828,2.896-0.828l0,0
			c1.605,0,3.045,0.684,3.992,1.753l0,0c0.748,0.838,1.197,1.924,1.197,3.101l0,0c-0.02,2.625-2.177,5.229-5.128,5.307l0,0
			c-0.09,0.014-0.258,0.027-0.483,0.027l0,0c-0.008,0-0.013,0-0.017,0l0,0C36.638,58.622,35.437,58.473,34.248,57.63L34.248,57.63z"
			/>
	</g>
	<g>
		<path fill="#231F20" d="M31.333,59.314c0-0.38,0.329-0.688,0.733-0.688l0,0h1.219c1.668-0.004,2.146-0.953,2.189-0.996l0,0v0.002
			c0.174-0.336,0.604-0.479,0.969-0.321l0,0c0.366,0.162,0.525,0.567,0.354,0.912l0,0c-0.031,0.101-0.973,1.78-3.514,1.776l0,0
			h-1.219C31.662,59.999,31.333,59.691,31.333,59.314L31.333,59.314z M35.47,57.64L35.47,57.64L35.47,57.64L35.47,57.64L35.47,57.64
			L35.47,57.64z"/>
	</g>
</g>
</svg>
