<?xml version="1.0" encoding="utf-8"?>
<!-- Generator: Adobe Illustrator 16.0.0, SVG Export Plug-In . SVG Version: 6.00 Build 0)  -->
<!DOCTYPE svg PUBLIC "-//W3C//DTD SVG 1.1//EN" "http://www.w3.org/Graphics/SVG/1.1/DTD/svg11.dtd">
<svg version="1.1" id="Capa_1" xmlns="http://www.w3.org/2000/svg" xmlns:xlink="http://www.w3.org/1999/xlink" x="0px" y="0px"
	 width="64px" height="64px" viewBox="0 0 64 64" enable-background="new 0 0 64 64" xml:space="preserve">
<g>
	<g>
		<path fill="#231F20" d="M23.491,47.511c0.003-1.541,1.303-2.784,2.911-2.784l0,0c1.604,0,2.904,1.243,2.904,2.784l0,0
			c0,1.535-1.3,2.781-2.904,2.781l0,0C24.793,50.291,23.494,49.046,23.491,47.511L23.491,47.511z M25.192,47.511
			c0.005,0.632,0.543,1.146,1.208,1.15l0,0c0.666-0.004,1.206-0.52,1.206-1.15l0,0c0-0.643-0.54-1.154-1.206-1.156l0,0
			C25.735,46.354,25.197,46.87,25.192,47.511L25.192,47.511z"/>
	</g>
	<g>
		<path fill="#231F20" d="M25.035,55.649c-2.494-0.033-4.072-1.695-4.17-1.771l0,0c-1.067-1.16-1.859-2.603-1.855-4.378l0,0
			c0.006-2.067,1.007-4.448,3.373-7.5l0,0c3.806-4.914,8.476-5.23,9.469-5.221l0,0c0.119,0,0.193,0.004,0.215,0.01l0,0
			c0.467,0.031,0.818,0.422,0.781,0.869l0,0c-0.033,0.449-0.442,0.783-0.912,0.753l0,0c0,0-0.012-0.003-0.086-0.003l0,0
			c-0.696,0.012-4.693,0.17-8.103,4.562l0,0c-2.259,2.908-3.044,5.005-3.038,6.529l0,0c0.004,1.313,0.534,2.308,1.413,3.28l0,0
			c0,0,0.007,0.008,0.041,0.039l0,0c0.033,0.028,0.09,0.076,0.161,0.135l0,0c0.141,0.119,0.359,0.281,0.627,0.439l0,0
			c0.542,0.322,1.281,0.623,2.083,0.62l0,0c0.589-0.001,1.227-0.147,1.957-0.604l0,0c1.581-1.01,2.362-1.598,3.012-1.994l0,0
			c0.63-0.41,1.314-0.609,2.068-0.585l0,0c0.473,0,0.853,0.362,0.853,0.813l0,0c0,0.448-0.38,0.814-0.853,0.814l0,0
			c-0.593,0.019-0.616,0.021-1.155,0.328l0,0c-0.523,0.313-1.371,0.949-2.98,1.976l0,0c-0.981,0.624-1.985,0.884-2.889,0.884l0,0
			C25.045,55.649,25.039,55.649,25.035,55.649L25.035,55.649z"/>
	</g>
	<g>
		<path fill="#231F20" d="M11.934,57.694c-5.193-4.152-8.444-10.363-8.438-18.26l0,0c0.002-7.887,2.971-15.833,7.988-21.849l0,0
			c5.009-6.011,12.128-10.114,20.377-10.114l0,0c0.468,0,0.848,0.364,0.848,0.815l0,0c0,0.448-0.38,0.813-0.848,0.813l0,0
			c-7.636,0-14.275,3.784-19.047,9.5l0,0c-4.77,5.711-7.618,13.339-7.613,20.833l0,0c0.005,7.473,3.014,13.143,7.827,17.014l0,0
			c4.815,3.871,11.498,5.918,18.834,5.918l0,0l0,0c0.468,0,0.85,0.363,0.85,0.816l0,0c0,0.446-0.382,0.813-0.85,0.813l0,0
			C24.2,63.997,17.123,61.86,11.934,57.694L11.934,57.694z"/>
	</g>
	<g>
		<path fill="#231F20" d="M9.328,21.124C3.831,15.453,1.799,8.12,1.778,4.674l0,0c0-0.025,0-0.048,0-0.073l0,0
			C0.753,4.321,0.003,3.421,0,2.344l0,0C0.003,1.047,1.099,0,2.455,0l0,0c1.136,0,2.092,0.737,2.367,1.742l0,0
			c3.64,0.134,10.633,2.848,16.229,8.54l0,0l0,0c0.32,0.33,0.301,0.842-0.042,1.152l0,0c-0.343,0.306-0.884,0.285-1.202-0.042l0,0
			C14.497,5.906,7.401,3.331,4.614,3.364l0,0c-0.176,0-0.329,0.011-0.448,0.028l0,0c-0.281,0.037-0.562-0.057-0.75-0.26l0,0
			C3.24,2.944,3.166,2.695,3.208,2.45l0,0C3.206,2.418,3.206,2.383,3.206,2.343l0,0c0-0.395-0.335-0.715-0.75-0.715l0,0
			c-0.414,0-0.753,0.318-0.753,0.715l0,0c0,0.397,0.338,0.721,0.753,0.721l0,0c0.041,0,0.083,0,0.116,0.004l0,0
			c0.254-0.033,0.516,0.048,0.7,0.22l0,0c0.2,0.18,0.294,0.45,0.255,0.708l0,0c-0.03,0.172-0.046,0.401-0.046,0.677l0,0
			c-0.02,2.918,1.947,10.095,7.092,15.34l0,0c0.321,0.327,0.303,0.841-0.042,1.149l0,0c-0.163,0.146-0.371,0.218-0.58,0.218l0,0
			C9.721,21.384,9.497,21.295,9.328,21.124L9.328,21.124z"/>
	</g>
	<g>
		<path fill="#231F20" d="M17.393,12.965C11.387,7.822,5.5,7.384,3.607,7.378l0,0c-0.421,0-0.61,0.021-0.61,0.021l0,0l0,0
			C2.528,7.445,2.108,7.122,2.06,6.673l0,0C2.011,6.227,2.351,5.827,2.815,5.779l0,0c0.028-0.005,0.306-0.027,0.791-0.027l0,0
			c2.16-0.005,8.521,0.523,14.922,5.998l0,0c0.347,0.301,0.38,0.813,0.066,1.151l0,0c-0.169,0.179-0.399,0.269-0.635,0.269l0,0
			C17.76,13.171,17.558,13.102,17.393,12.965L17.393,12.965z"/>
	</g>
	<g>
		<path fill="#231F20" d="M34.698,47.511c0-1.541,1.299-2.784,2.904-2.784l0,0c1.604,0,2.908,1.243,2.908,2.784l0,0
			c0,1.535-1.305,2.781-2.908,2.781l0,0C35.997,50.291,34.698,49.046,34.698,47.511L34.698,47.511z M37.604,48.662
			c0.664-0.003,1.201-0.52,1.205-1.15l0,0c-0.004-0.642-0.541-1.153-1.205-1.155l0,0c-0.666,0.002-1.205,0.515-1.209,1.155l0,0
			C36.399,48.143,36.938,48.659,37.604,48.662L37.604,48.662z"/>
	</g>
	<g>
		<path fill="#231F20" d="M36.068,54.767c-1.612-1.025-2.462-1.662-2.981-1.973l0,0c-0.539-0.309-0.564-0.313-1.158-0.331l0,0
			c-0.468,0-0.852-0.366-0.852-0.813l0,0c0-0.451,0.383-0.813,0.852-0.813l0,0c0.754-0.021,1.442,0.174,2.069,0.584l0,0
			c0.651,0.396,1.435,0.985,3.015,1.996l0,0c0.726,0.458,1.362,0.604,1.953,0.604l0,0c1.398,0.021,2.639-0.966,2.875-1.197l0,0
			c0.014-0.014,0.021-0.019,0.024-0.022l0,0c0.892-0.996,1.416-1.987,1.422-3.296l0,0c0.011-1.523-0.771-3.621-3.03-6.529l0,0
			c-3.416-4.394-7.408-4.551-8.104-4.562l0,0c-0.074,0-0.083,0.003-0.083,0.003l0,0l0,0c-0.469,0.035-0.881-0.301-0.917-0.75l0,0
			c-0.034-0.45,0.313-0.844,0.786-0.873l0,0c0.021-0.006,0.095-0.01,0.214-0.01l0,0c0.991-0.012,5.667,0.306,9.468,5.221l0,0
			c2.366,3.052,3.368,5.438,3.374,7.5l0,0c0.007,1.777-0.791,3.217-1.878,4.4l0,0c-0.071,0.052-1.653,1.713-4.146,1.744l0,0
			c-0.008,0-0.014,0-0.018,0l0,0C38.045,55.647,37.045,55.392,36.068,54.767L36.068,54.767z"/>
	</g>
	<g>
		<path fill="#231F20" d="M31.293,63.18c0-0.446,0.378-0.812,0.853-0.812l0,0c7.332,0,14.017-2.047,18.832-5.918l0,0
			c4.813-3.873,7.817-9.543,7.826-17.014l0,0c0.002-7.494-2.846-15.121-7.609-20.833l0,0c-4.778-5.717-11.413-9.501-19.047-9.501
			l0,0c-0.473,0-0.853-0.365-0.853-0.813l0,0c0-0.451,0.38-0.815,0.853-0.815l0,0c8.242,0,15.361,4.101,20.377,10.114l0,0
			c5.015,6.017,7.979,13.962,7.984,21.85l0,0c0.008,7.896-3.244,14.104-8.438,18.26l0,0c-5.188,4.164-12.266,6.3-19.926,6.302l0,0
			l0,0C31.673,63.997,31.293,63.632,31.293,63.18L31.293,63.18z"/>
	</g>
	<g>
		<path fill="#231F20" d="M53.476,21.165c-0.346-0.306-0.365-0.822-0.045-1.154l0,0c5.143-5.241,7.111-12.418,7.096-15.336l0,0
			c0-0.274-0.018-0.505-0.047-0.68l0,0c-0.043-0.259,0.055-0.529,0.258-0.712l0,0c0.186-0.165,0.441-0.246,0.691-0.212l0,0
			c0.034-0.004,0.076-0.004,0.119-0.004l0,0c0.415,0,0.754-0.321,0.754-0.721l0,0c0-0.395-0.338-0.712-0.754-0.715l0,0
			c-0.414,0.003-0.75,0.319-0.75,0.715l0,0c0,0.04-0.003,0.078-0.003,0.109l0,0c0.04,0.238-0.034,0.488-0.202,0.674l0,0
			c-0.188,0.2-0.475,0.302-0.76,0.268l0,0c-0.126-0.019-0.275-0.029-0.449-0.029l0,0c-2.783-0.034-9.882,2.536-15.188,8.028l0,0l0,0
			c-0.32,0.327-0.86,0.348-1.202,0.039l0,0c-0.345-0.307-0.362-0.82-0.043-1.149l0,0c5.597-5.693,12.593-8.407,16.229-8.541l0,0
			c0.276-1.003,1.231-1.742,2.365-1.742l0,0C62.899,0.003,64,1.054,64,2.347l0,0c0,1.075-0.751,1.976-1.778,2.257l0,0
			c0.004,0.024,0.004,0.051,0.004,0.073l0,0c-0.022,3.451-2.058,10.779-7.551,16.451l0,0c-0.172,0.168-0.398,0.26-0.623,0.26l0,0
			C53.847,21.384,53.638,21.312,53.476,21.165L53.476,21.165z"/>
	</g>
	<g>
		<path fill="#231F20" d="M45.408,12.902c-0.317-0.338-0.288-0.851,0.063-1.151l0,0c6.397-5.476,12.763-6.003,14.924-5.998l0,0
			c0.486,0,0.763,0.022,0.787,0.027l0,0h0.004c0.465,0.05,0.806,0.448,0.757,0.896l0,0c-0.05,0.447-0.47,0.769-0.937,0.725l0,0
			c0,0.003-0.189-0.021-0.609-0.021l0,0c-1.897,0.006-7.781,0.444-13.788,5.589l0,0c-0.163,0.138-0.364,0.205-0.567,0.205l0,0
			C45.81,13.171,45.576,13.083,45.408,12.902L45.408,12.902z"/>
	</g>
</g>
</svg>
