<?xml version="1.0" encoding="utf-8"?>
<!-- Generator: Adobe Illustrator 16.0.0, SVG Export Plug-In . SVG Version: 6.00 Build 0)  -->
<!DOCTYPE svg PUBLIC "-//W3C//DTD SVG 1.1//EN" "http://www.w3.org/Graphics/SVG/1.1/DTD/svg11.dtd">
<svg version="1.1" id="Capa_1" xmlns="http://www.w3.org/2000/svg" xmlns:xlink="http://www.w3.org/1999/xlink" x="0px" y="0px"
	 width="64px" height="64px" viewBox="0 0 64 64" enable-background="new 0 0 64 64" xml:space="preserve">
<g>
	<g>
		<g>
			<g>
				<path d="M21.214,51.524c-4.548-6.17-5.868-14.512-5.967-15.125l0,0h-0.004c-0.348-1.846-0.466-3.937-0.466-5.989l0,0
					c0-5.065,0.728-9.929,0.729-9.956l0,0l0,0c0.066-0.449,0.46-0.754,0.875-0.684l0,0c0.418,0.068,0.703,0.494,0.635,0.943l0,0
					c0,0.001-0.175,1.183-0.354,2.998l0,0c-0.18,1.813-0.354,4.245-0.354,6.695l0,0c0,1.983,0.117,3.981,0.436,5.653l0,0
					l0.005,0.037c0,0.002,0.075,0.51,0.258,1.394l0,0c0.188,0.883,0.481,2.131,0.917,3.563l0,0c0.867,2.867,2.295,6.482,4.485,9.436
					l0,0c0.261,0.354,0.207,0.874-0.121,1.158l0,0c-0.142,0.123-0.312,0.183-0.477,0.183l0,0
					C21.586,51.835,21.365,51.728,21.214,51.524L21.214,51.524z"/>
			</g>
		</g>
		<g>
			<g>
				<path d="M27.318,42.703c-2.516-2.717-2.912-6.051-2.909-7.909l0,0c0-0.902,0.094-1.475,0.096-1.513l0,0v0.002
					c0.075-0.447,0.47-0.75,0.887-0.668l0,0c0.416,0.081,0.693,0.508,0.618,0.957l0,0c0,0-0.016,0.089-0.035,0.303l0,0
					c-0.021,0.211-0.039,0.529-0.039,0.919l0,0c0,1.628,0.353,4.475,2.459,6.74l0,0c0.3,0.322,0.3,0.847,0,1.169l0,0
					c-0.149,0.16-0.344,0.241-0.542,0.241l0,0C27.662,42.944,27.468,42.863,27.318,42.703L27.318,42.703z"/>
			</g>
		</g>
		<g>
			<g>
				<path d="M23.292,54.052c0-1.418,1.066-2.563,2.377-2.563l0,0c1.312,0,2.375,1.143,2.375,2.563l0,0
					c0,1.418-1.065,2.563-2.375,2.563l0,0C24.357,56.614,23.292,55.465,23.292,54.052L23.292,54.052z M24.821,54.052
					c0,0.504,0.379,0.912,0.848,0.912l0,0c0.468,0,0.848-0.406,0.848-0.912l0,0c0-0.507-0.381-0.914-0.848-0.916l0,0
					C25.2,53.138,24.821,53.547,24.821,54.052L24.821,54.052z"/>
			</g>
		</g>
		<g>
			<g>
				<path d="M25.663,59.994c-0.215,0-0.377-0.019-0.463-0.03l0,0c-2.831-0.095-4.884-2.956-4.906-5.849l0,0
					c0-1.3,0.431-2.497,1.146-3.423l0,0c0.91-1.18,2.29-1.937,3.824-1.937l0,0c1.023,0,1.985,0.337,2.775,0.911l0,0v0.001
					c0.353,0.257,0.441,0.771,0.206,1.146l0,0c-0.236,0.377-0.711,0.477-1.063,0.225l0,0c-0.549-0.4-1.204-0.633-1.919-0.633l0,0
					c-1.067,0-2.016,0.521-2.649,1.342l0,0c-0.495,0.646-0.79,1.462-0.79,2.368l0,0c-0.007,1.026,0.396,2.114,1.041,2.909l0,0
					c0.65,0.803,1.502,1.297,2.396,1.291l0,0l0.133,0.015c0-0.002,0,0.002,0.046,0.008l0,0c0.047,0.009,0.122,0.013,0.218,0.013l0,0
					c0.418,0,1.212-0.102,2.02-0.761l0,0c1.255-1.049,2.174-1.241,2.715-1.228l0,0c0.108,0,0.188,0.005,0.226,0.007l0,0
					c0.422,0,0.764,0.367,0.764,0.821l0,0c0,0.453-0.342,0.822-0.764,0.822l0,0c-0.096,0-0.166-0.005-0.226-0.005l0,0
					c-0.267,0.019-0.664-0.008-1.788,0.896l0,0c-1.142,0.929-2.292,1.096-2.932,1.096l0,0
					C25.675,59.994,25.669,59.994,25.663,59.994L25.663,59.994z"/>
			</g>
		</g>
		<g>
			<g>
				<path d="M42.021,51.653c-0.329-0.285-0.384-0.803-0.119-1.158l0,0c3.287-4.432,4.847-10.346,5.399-13.001l0,0
					c0.186-0.886,0.26-1.39,0.26-1.392l0,0l0.005-0.037c0.317-1.672,0.437-3.67,0.437-5.653l0,0c0-2.449-0.177-4.883-0.356-6.696
					l0,0c-0.187-1.352-0.196-1.41-0.353-2.997l0,0c-0.066-0.451-0.07-1.229,0.349-1.298l0.284,0.354
					c0.418-0.077,0.521-0.123,0.59,0.33l0.43,1.943c0.001,0.022,0.584,3.3,0.584,8.362l0,0c0,2.052-0.117,4.142-0.467,5.979l0,0
					c-0.094,0.564-1.404,8.943-5.967,15.138l0,0c-0.151,0.202-0.375,0.308-0.602,0.308l0,0
					C42.328,51.835,42.16,51.774,42.021,51.653L42.021,51.653z"/>
			</g>
		</g>
		<g>
			<g>
				<path d="M35.909,42.703c-0.3-0.322-0.3-0.847,0-1.169l0,0c2.11-2.266,2.46-5.115,2.46-6.74l0,0c0-0.393-0.02-0.708-0.039-0.919
					l0,0c-0.02-0.214-0.035-0.305-0.035-0.305l0,0v0.002c-0.074-0.449,0.205-0.876,0.621-0.959l0,0
					c0.414-0.08,0.811,0.223,0.885,0.67l0,0c0.008,0.04,0.096,0.608,0.096,1.511l0,0c0,1.858-0.396,5.192-2.907,7.909l0,0
					c-0.149,0.16-0.346,0.241-0.542,0.241l0,0C36.254,42.944,36.059,42.863,35.909,42.703L35.909,42.703z"/>
			</g>
		</g>
		<g>
			<g>
				<path d="M36.262,54.052c0-1.418,1.066-2.563,2.377-2.566l0,0c1.312,0.005,2.376,1.146,2.376,2.566l0,0
					c0,1.418-1.066,2.563-2.376,2.563l0,0C37.326,56.614,36.262,55.465,36.262,54.052L36.262,54.052z M38.64,54.964
					c0.469,0,0.846-0.406,0.846-0.912l0,0c0-0.507-0.381-0.914-0.846-0.916l0,0c-0.468,0.002-0.845,0.409-0.851,0.916l0,0
					C37.795,54.554,38.172,54.964,38.64,54.964L38.64,54.964z"/>
			</g>
		</g>
		<g>
			<g>
				<path d="M35.701,58.897c-1.123-0.898-1.521-0.877-1.789-0.895l0,0c-0.06,0-0.13,0.006-0.225,0.006l0,0
					c-0.423,0-0.766-0.367-0.766-0.822l0,0c0-0.453,0.342-0.823,0.766-0.823l0,0c0.031,0,0.113-0.005,0.225-0.007l0,0
					c0.541-0.014,1.459,0.181,2.715,1.229l0,0c0.804,0.661,1.602,0.76,2.02,0.762l0,0c0.096,0,0.17-0.006,0.218-0.013l0,0
					c0.048-0.005,0.048-0.007,0.048-0.007l0,0l0.131-0.014c0.896,0.002,1.746-0.489,2.394-1.291l0,0
					c0.651-0.795,1.051-1.885,1.046-2.912l0,0c0-0.905-0.295-1.725-0.791-2.366l0,0c-0.633-0.822-1.582-1.342-2.648-1.342l0,0
					c-0.715,0-1.371,0.231-1.92,0.632l0,0c-0.353,0.258-0.826,0.156-1.063-0.223l0,0c-0.238-0.379-0.146-0.893,0.205-1.146l0,0
					c0.789-0.578,1.751-0.91,2.775-0.91l0,0c1.537,0,2.914,0.751,3.824,1.936l0,0c0.717,0.928,1.146,2.121,1.146,3.421l0,0
					c-0.021,2.892-2.074,5.757-4.907,5.852l0,0c-0.085,0.013-0.243,0.029-0.462,0.029l0,0c-0.003,0-0.006,0-0.008,0l0,0
					C37.994,59.994,36.842,59.833,35.701,58.897L35.701,58.897z"/>
			</g>
		</g>
		<g>
			<path d="M15.231,23.019c0,0-0.452-12.611,16.071-13.043c0,0,16.5-1.468,17.785,13.063l-1.535,0.026
				c0,0-0.409-12.035-16.17-11.778c0,0-13.787-0.205-14.676,12.006"/>
		</g>
	</g>
	<g>
		<g>
			<path d="M55.075,23.892L54.729,22.7l0.306-0.079c0.736-0.189,1.785-0.975,2.127-1.263c0.004-0.003,1.463-1.311,2.383-3.54
				c1.219-2.955,0.979-6.067-0.725-9.251c-0.146-0.195-1.15-1.52-2.695-2.382c-1.646-0.923-4.33-1.403-6.617-0.401
				c-1.811,0.795-2.961,2.382-3.328,4.59c-0.092,0.685-0.03,1.475,0.125,1.673l0.07,0.017l0.061,0.04
				c0.124,0.053,0.425,0.102,0.768-0.368c0.201-0.342,1.478-2.363,3.329-2.485c0.997-0.066,1.917,0.421,2.732,1.449
				c0.138,0.168,1.348,1.733,0.671,4.132c-0.996,3.531-7.646,2.153-7.93,2.091l0.293-1.206c0.056,0.013,5.697,1.143,6.357-1.203
				c0.536-1.898-0.426-3.046-0.434-3.058l-0.018-0.018c-0.529-0.67-1.066-0.993-1.586-0.958c-1.015,0.065-2.008,1.404-2.275,1.869
				l-0.029,0.048c-0.813,1.157-1.902,1.065-2.438,0.827c-1.264-0.357-1.096-2.387-1.01-3.012l0.002-0.017
				c0.551-3.332,2.521-4.846,4.075-5.527c2.358-1.034,5.519-0.855,7.856,0.457c1.936,1.084,3.092,2.725,3.143,2.794l0.037,0.06
				c2.37,4.413,1.727,8.057,0.768,10.337c-1.035,2.474-2.632,3.891-2.697,3.951c-0.16,0.132-1.504,1.245-2.676,1.545L55.075,23.892z
				"/>
		</g>
	</g>
	<g>
		<g>
			<path d="M9.107,23.892L8.8,23.813c-1.174-0.297-2.516-1.413-2.665-1.539c-0.075-0.065-1.671-1.483-2.71-3.957
				c-0.956-2.28-1.598-5.925,0.771-10.338L4.232,7.92c0.049-0.071,1.207-1.711,3.142-2.795c2.339-1.31,5.498-1.492,7.856-0.457
				c1.553,0.684,3.522,2.195,4.075,5.526l0.001,0.018c0.086,0.623,0.253,2.652-1.009,3.012c-0.537,0.232-1.623,0.329-2.438-0.828
				l-0.028-0.048c-0.29-0.498-1.266-1.803-2.278-1.869c-0.52-0.035-1.054,0.289-1.583,0.96l-0.017,0.018
				c-0.037,0.043-0.961,1.189-0.435,3.057c0.663,2.354,6.302,1.213,6.356,1.206l0.295,1.205c-0.282,0.06-6.934,1.44-7.929-2.091
				c-0.678-2.4,0.531-3.964,0.67-4.132c0.813-1.028,1.733-1.515,2.733-1.449c1.853,0.123,3.126,2.144,3.33,2.485
				c0.398,0.553,0.744,0.379,0.759,0.371l0.088-0.05l0.054-0.01c0.151-0.2,0.212-1.002,0.124-1.675
				c-0.368-2.207-1.519-3.795-3.33-4.588c-2.286-1.004-4.971-0.521-6.617,0.399C6.507,7.048,5.503,8.37,5.357,8.569
				C1.286,16.196,6.97,21.315,7.028,21.363c0.332,0.278,1.38,1.067,2.116,1.255l0.306,0.079L9.107,23.892z"/>
		</g>
	</g>
	<g>
		<g>
			<path d="M32.914,22.261c0,0-0.076,0.297-0.666,0.282c-0.621-0.018-0.654-0.282-0.654-0.282c0-6.659-0.004-10.976-0.004-10.976
				l1.322-0.002C32.909,11.283,32.914,15.603,32.914,22.261z"/>
		</g>
	</g>
	<g>
		<g>
			<g>
				<path d="M57.567,36.394c-1.7-0.002-3.569-0.145-5.25-0.637l0,0c-1.669-0.49-3.201-1.336-4.067-2.869l0,0
					c-0.205-0.367-0.096-0.849,0.244-1.068l0,0c0.342-0.225,0.785-0.105,0.991,0.263l0,0c0.563,1.017,1.72,1.738,3.208,2.175l0,0
					c1.484,0.438,3.249,0.579,4.871,0.578l0,0c2.32,0,4.303-0.285,4.889-0.367l0,0c-0.631-1.505-1.354-2.82-2.137-3.974l0,0
					c-4.54-6.685-11.141-7.898-11.702-7.985l0,0c-0.157-0.014-0.304-0.081-0.414-0.185l0,0c0.009,0.008,0.019,0.018,0.025,0.022l0,0
					c-0.022-0.021-0.05-0.042-0.069-0.066l0,0c-0.014-0.016-0.023-0.027-0.035-0.043l0,0c-0.008-0.005-0.01-0.008-0.013-0.013l0,0
					l0,0l0,0c-0.056-0.067-0.094-0.146-0.121-0.228l0,0c0.005,0.017,0.009,0.024,0.015,0.038l0,0
					c-0.006-0.016-0.013-0.03-0.018-0.047l0,0c0,0,0,0,0-0.001l0,0c-0.003-0.003-0.003-0.008-0.007-0.014l0,0
					c-0.011-0.037-0.019-0.075-0.024-0.115l0,0c0,0.007,0.002,0.01,0.002,0.017l0,0c-0.009-0.052-0.015-0.099-0.015-0.15l0,0
					c0-0.205,0.077-0.406,0.21-0.55l0,0c0.133-0.146,0.32-0.228,0.512-0.228l0,0c0,0,0.002,0,0.008,0l0,0
					c0.008,0,0.021,0,0.045,0.002l0,0c0.008,0.002,0.013,0.002,0.013,0.002l0,0c0.005,0,0.012,0.002,0.016,0.002l0,0h0.005h0.008
					l0.011,0.004c0.006,0,0.015,0,0.021,0.002l0,0c0.02,0.006,0.043,0.011,0.073,0.012l0,0c0.06,0.014,0.149,0.028,0.261,0.051l0,0
					c0.225,0.045,0.543,0.117,0.939,0.226l0,0c0.792,0.216,1.89,0.582,3.152,1.184l0,0c2.523,1.207,5.688,3.357,8.266,7.141l0,0
					c0.918,1.348,1.758,2.901,2.466,4.688l0,0c0.036,0.096,0.058,0.202,0.058,0.307l0,0c-0.004,0.072,0,0.328-0.158,0.666l0,0
					c-0.149,0.336-0.572,0.719-1.096,0.764l0,0C62.517,36.021,60.232,36.394,57.567,36.394L57.567,36.394c-0.003,0-0.008,0-0.008,0
					h0.003l0,0H57.567L57.567,36.394z M48.631,22.51c-0.002,0-0.004,0-0.01,0l0,0c0.002,0,0.004,0,0.004,0l0,0
					C48.629,22.51,48.629,22.51,48.631,22.51L48.631,22.51z M48.609,22.51c-0.002-0.001-0.008-0.001-0.01-0.001l0,0l0,0l0,0l0,0
					C48.607,22.509,48.605,22.509,48.609,22.51L48.609,22.51z M48.506,22.493c-0.03-0.009-0.063-0.017-0.094-0.03l0,0
					C48.448,22.476,48.481,22.489,48.506,22.493L48.506,22.493z M48.113,22.231v-0.003l0,0c0.002,0.006,0.008,0.01,0.012,0.013l0,0
					c0.022,0.031,0.053,0.059,0.08,0.088l0,0C48.17,22.298,48.141,22.265,48.113,22.231L48.113,22.231z M47.961,21.882
					c0.008,0.041,0.02,0.083,0.031,0.122l0,0C47.976,21.955,47.965,21.915,47.961,21.882L47.961,21.882z"/>
			</g>
		</g>
		<g>
			<g>
				<path d="M48.463,30.053c-0.281-0.302-0.281-0.798,0-1.103l0,0c0.283-0.305,0.74-0.305,1.024,0l0,0
					c2.289,2.459,4.259,3.167,5.871,3.172l0,0c2.604,0.018,4.508-1.998,4.908-2.487l0,0c0.058-0.067,0.073-0.089,0.073-0.089l0,0
					c0.254-0.336,0.707-0.384,1.018-0.115l0,0c0.311,0.271,0.357,0.761,0.104,1.098l0,0c-0.057,0.052-2.32,3.124-6.104,3.155l0,0
					c-0.008,0-0.014,0-0.02,0l0,0C53.309,33.683,50.931,32.72,48.463,30.053L48.463,30.053z"/>
			</g>
		</g>
	</g>
	<g>
		<g>
			<g>
				<path d="M6.436,36.394c0,0-0.004,0-0.008,0l0,0c-2.666,0-4.95-0.367-5.178-0.396l0,0c-0.522-0.045-0.947-0.427-1.095-0.764l0,0
					c-0.157-0.338-0.154-0.594-0.157-0.666l0,0c0-0.104,0.02-0.211,0.058-0.303l0,0c0.707-1.789,1.548-3.343,2.466-4.689l0,0
					c2.576-3.785,5.743-5.937,8.265-7.141l0,0c1.26-0.602,2.362-0.968,3.152-1.184l0,0c0.396-0.108,0.717-0.181,0.939-0.227l0,0
					c0.11-0.019,0.201-0.036,0.263-0.049l0,0c0.029-0.004,0.056-0.008,0.071-0.012l0,0c0.012-0.001,0.019-0.003,0.021-0.003
					l0.011-0.005h0.007h0.005l0,0c0.004,0,0.011-0.001,0.015-0.001l0,0c0,0,0.007,0,0.011,0l0,0
					c0.022-0.004,0.039-0.002,0.046-0.002l0,0c0.005,0,0.008,0,0.008,0l0,0c0.191,0,0.379,0.082,0.511,0.228l0,0
					c0.134,0.145,0.211,0.346,0.211,0.551l0,0c0,0.051-0.005,0.098-0.013,0.149l0,0c0-0.006,0.002-0.01,0.002-0.017l0,0
					c-0.008,0.04-0.018,0.077-0.025,0.115l0,0c-0.003,0.005-0.003,0.011-0.006,0.013l0,0c0,0.002,0,0.002,0,0.002l0,0
					c-0.005,0.017-0.013,0.031-0.019,0.048l0,0c0.006-0.016,0.011-0.022,0.015-0.038l0,0c-0.024,0.082-0.066,0.158-0.121,0.227l0,0
					l0,0l0,0c-0.003,0.005-0.006,0.008-0.011,0.013l0,0c-0.014,0.015-0.022,0.027-0.037,0.043l0,0
					c-0.021,0.024-0.046,0.048-0.07,0.065l0,0c0.011-0.007,0.019-0.015,0.025-0.021l0,0c-0.109,0.104-0.256,0.17-0.415,0.183l0,0
					c-0.563,0.088-7.164,1.301-11.699,7.986l0,0c-0.784,1.153-1.51,2.467-2.139,3.976l0,0c0.587,0.08,2.569,0.363,4.89,0.363l0,0
					c1.619,0.006,3.386-0.142,4.868-0.578l0,0c1.491-0.437,2.648-1.156,3.21-2.173l0,0c0.206-0.368,0.651-0.485,0.991-0.263l0,0
					c0.341,0.223,0.451,0.697,0.245,1.066l0,0c-0.867,1.533-2.398,2.379-4.07,2.871l0,0c-1.68,0.49-3.55,0.633-5.247,0.639h0.001
					v-0.004h0.002v-0.002H6.436z M15.375,22.51c0.001,0,0.001,0,0.004,0l0,0c0,0,0.001,0,0.005,0l0,0
					C15.379,22.51,15.376,22.51,15.375,22.51L15.375,22.51z M15.396,22.51c0.004-0.001,0.002-0.001,0.01-0.001l0,0l0,0l0,0l0,0
					C15.402,22.509,15.397,22.509,15.396,22.51L15.396,22.51z M15.499,22.493c0.025-0.003,0.059-0.017,0.093-0.03l0,0
					C15.562,22.474,15.529,22.484,15.499,22.493L15.499,22.493z M15.891,22.231c-0.027,0.034-0.06,0.067-0.092,0.094l0,0
					c0.027-0.026,0.058-0.053,0.08-0.087l0,0c0.002-0.003,0.007-0.008,0.012-0.013l0,0V22.231L15.891,22.231z M16.043,21.882
					c-0.004,0.033-0.015,0.074-0.032,0.122l0,0C16.027,21.964,16.034,21.923,16.043,21.882L16.043,21.882z"/>
			</g>
		</g>
		<g>
			<g>
				<path d="M15.542,30.053c0.281-0.302,0.281-0.798,0-1.103l0,0c-0.283-0.305-0.74-0.305-1.023,0l0,0
					c-2.289,2.459-4.259,3.167-5.871,3.172l0,0c-2.604,0.018-4.508-1.998-4.908-2.487l0,0c-0.057-0.067-0.073-0.089-0.073-0.089l0,0
					c-0.255-0.336-0.708-0.384-1.019-0.115l0,0c-0.31,0.271-0.355,0.761-0.104,1.098l0,0c0.059,0.052,2.321,3.124,6.104,3.155l0,0
					c0.008,0,0.013,0,0.018,0l0,0C10.696,33.683,13.074,32.72,15.542,30.053L15.542,30.053z"/>
			</g>
		</g>
	</g>
</g>
</svg>
