<?xml version="1.0" encoding="utf-8"?>
<!-- Generator: Adobe Illustrator 16.0.0, SVG Export Plug-In . SVG Version: 6.00 Build 0)  -->
<!DOCTYPE svg PUBLIC "-//W3C//DTD SVG 1.1//EN" "http://www.w3.org/Graphics/SVG/1.1/DTD/svg11.dtd">
<svg version="1.1" xmlns="http://www.w3.org/2000/svg" xmlns:xlink="http://www.w3.org/1999/xlink" x="0px" y="0px" width="64px"
	 height="64px" viewBox="0 0 64 64" enable-background="new 0 0 64 64" xml:space="preserve">
<g>
	<g>
		<path fill="#231F20" d="M13.677,8.156c1.074,1.433,2.53,2.637,4.424,3.664c2.533,1.373,5.446,2.285,9.168,2.869
			c2.659,0.418,5.447,0.631,8.287,0.631c0.681,0,1.377-0.012,2.071-0.036c3.889-0.136,7.006-0.718,9.811-1.831
			c2.438-0.967,4.319-2.265,5.714-3.947c1.022,0.568,2.03,1.177,3.081,1.812l0.611,0.369c1.06,0.638,2.024,1.227,2.936,1.849
			c-0.086,0.563-0.171,1.118-0.252,1.676c-0.309,2.143-0.499,4.096-0.58,5.975c-0.071,1.681-0.104,3.906,0.282,6.206
			c0.387,2.294,1.088,4.089,2.189,5.602c-1.711,2.3-2.176,4.95-2.377,7.097c-0.37,3.916,0.052,7.691,0.563,11.185l0.063,0.447
			c0.033,0.235,0.066,0.475,0.104,0.717c-0.632,0.429-1.259,0.821-1.813,1.162c-1.688,1.041-3.245,1.991-4.81,2.86
			c-1.415-1.706-3.341-3.021-5.847-3.997c-2.086-0.81-4.433-1.335-7.181-1.604c-1.583-0.151-2.911-0.222-4.18-0.222
			c-0.175,0-0.349,0.001-0.523,0.004c-3.583,0.061-8.289,0.309-12.913,1.704c-3.136,0.947-5.479,2.181-7.377,3.884
			c-0.541,0.486-1.025,1.016-1.449,1.58c-2.411-1.026-4.705-2.127-6.668-3.09c-0.336-0.165-0.669-0.335-1.002-0.504
			c-0.019-0.01-0.037-0.019-0.055-0.028c0.375-1.31,0.654-2.55,0.847-3.766c0.56-3.545,0.105-6.586-1.387-9.297
			c-0.817-1.486-1.832-2.593-3.098-3.373c0.129-2.859,0.064-5.673-0.082-9.19c0.003-0.065,0.015-0.129,0.024-0.194
			c0.003-0.026,0.007-0.053,0.011-0.082c2.369-1.549,3.856-3.975,4.54-7.393c0.492-2.457,0.135-4.819-0.279-6.804
			c-0.164-0.788-0.357-1.566-0.578-2.328c1.123-0.568,2.276-1.111,3.401-1.639l0.328-0.154C10.952,9.369,12.295,8.743,13.677,8.156
			 M14.333,5.769c-0.113,0-0.263,0.06-0.509,0.16c-1.691,0.686-3.346,1.453-4.996,2.23C7.215,8.918,5.6,9.67,4.027,10.507
			c-0.365,0.194-0.441,0.413-0.314,0.79c0.35,1.049,0.634,2.116,0.859,3.199c0.414,1.987,0.679,3.992,0.276,6.005
			c-0.527,2.639-1.615,4.956-4.096,6.37c-0.31,0.175-0.43,0.423-0.432,0.771c-0.002,0.327-0.098,0.651-0.084,0.978
			c0.14,3.389,0.224,6.431,0.057,9.548c-0.032,0.593,0.324,0.914,0.789,1.178c1.142,0.65,1.954,1.607,2.579,2.744
			c1.394,2.531,1.605,5.229,1.164,8.021c-0.248,1.563-0.64,3.097-1.121,4.604c-0.112,0.354-0.036,0.567,0.294,0.729
			c0.714,0.349,1.417,0.72,2.131,1.07c2.562,1.256,5.14,2.475,7.78,3.559c0.217,0.089,0.349,0.142,0.447,0.142
			c0.149,0,0.221-0.121,0.396-0.417c0.462-0.783,1.038-1.473,1.715-2.082c1.909-1.713,4.192-2.723,6.617-3.455
			c4.031-1.217,8.185-1.549,12.368-1.619c0.163-0.003,0.326-0.004,0.49-0.004c1.331,0,2.662,0.086,3.989,0.213
			c2.279,0.224,4.51,0.647,6.647,1.478c2.323,0.905,4.347,2.211,5.72,4.353c0.114,0.177,0.226,0.253,0.358,0.253
			c0.093,0,0.195-0.037,0.317-0.102c2.062-1.09,4.049-2.306,6.033-3.528c0.875-0.539,1.742-1.092,2.576-1.691
			c0.25-0.176,0.361-0.362,0.299-0.687c-0.124-0.64-0.205-1.293-0.299-1.938c-0.52-3.553-0.891-7.115-0.551-10.709
			c0.246-2.625,0.854-5.118,2.836-7.06c0.175-0.17,0.177-0.307-0.01-0.477c-0.213-0.191-0.416-0.4-0.592-0.623
			c-1.185-1.487-1.756-3.223-2.065-5.06c-0.322-1.919-0.339-3.851-0.257-5.789c0.084-1.935,0.285-3.857,0.562-5.774
			c0.13-0.891,0.269-1.779,0.411-2.707c-0.023-0.285-0.297-0.405-0.511-0.557c-1.14-0.812-2.335-1.538-3.531-2.259
			c-1.632-0.983-3.253-1.984-4.948-2.857c-0.108-0.056-0.206-0.1-0.297-0.1c-0.101,0-0.193,0.053-0.285,0.199
			C51,9.353,49.003,10.681,46.7,11.595c-2.935,1.164-6.017,1.581-9.144,1.69c-0.668,0.023-1.335,0.035-2.001,0.035
			c-2.671,0-5.331-0.19-7.976-0.606c-2.972-0.467-5.862-1.208-8.526-2.652c-1.723-0.934-3.227-2.117-4.259-3.819
			C14.589,5.905,14.503,5.769,14.333,5.769L14.333,5.769z"/>
	</g>
	<path fill="none" stroke="#231F20" stroke-miterlimit="10" d="M15.266,53.516c-0.043,0.029-0.103,0.056-0.146,0.099
		c-0.484,0.468-0.965,0.94-1.448,1.41c-0.047,0.047-0.089,0.1-0.03,0.16c0.064,0.063,0.145,0.063,0.207,0.003
		c0.5-0.489,0.997-0.979,1.491-1.476C15.418,53.634,15.413,53.552,15.266,53.516z"/>
	<path fill="none" stroke="#231F20" stroke-miterlimit="10" d="M50.342,13.779c-0.034,0.013-0.063,0.017-0.081,0.03
		c-0.569,0.426-1.155,0.827-1.771,1.186c-0.056,0.032-0.105,0.09-0.058,0.157c0.058,0.079,0.14,0.048,0.206,0.009
		c0.295-0.175,0.59-0.348,0.873-0.537c0.286-0.19,0.56-0.398,0.835-0.602c0.058-0.043,0.124-0.1,0.077-0.19
		C50.41,13.807,50.367,13.793,50.342,13.779z"/>
	<path fill="none" stroke="#231F20" stroke-miterlimit="10" d="M34.363,16.921c0-0.001,0-0.003,0-0.006
		c-0.33,0-0.661-0.002-0.992,0.001c-0.07,0.001-0.169,0-0.158,0.109c0.01,0.077,0.092,0.081,0.153,0.083
		c0.649,0.022,1.296,0.043,1.944,0.06c0.096,0.003,0.23,0.012,0.221-0.136c-0.008-0.114-0.127-0.109-0.213-0.109
		C35.001,16.92,34.683,16.921,34.363,16.921z"/>
	<path fill="none" stroke="#231F20" stroke-miterlimit="10" d="M54.883,53.087c-0.028,0.017-0.065,0.031-0.096,0.051
		c-0.536,0.356-1.145,0.604-1.613,1.06c-0.074,0.071-0.247,0.124-0.133,0.256c0.108,0.118,0.212-0.026,0.287-0.089
		c0.367-0.293,0.737-0.573,1.171-0.771c0.16-0.069,0.298-0.189,0.443-0.289c0.055-0.039,0.101-0.088,0.069-0.158
		C54.989,53.093,54.946,53.075,54.883,53.087z"/>
	<path fill="none" stroke="#231F20" stroke-miterlimit="10" d="M56.103,21.732c0.006,0.046-0.054,0.211,0.106,0.218
		c0.164,0.008,0.13-0.162,0.134-0.264c0.015-0.596,0.074-1.188,0.141-1.78c0.012-0.101,0.077-0.268-0.088-0.278
		c-0.143-0.01-0.139,0.155-0.148,0.266C56.197,20.486,56.155,21.08,56.103,21.732z"/>
	<path fill="none" stroke="#231F20" stroke-miterlimit="10" d="M14.629,11.346c-0.049,0.034-0.103,0.053-0.123,0.088
		c-0.04,0.072,0.04,0.105,0.07,0.157c0.338,0.552,0.849,0.937,1.315,1.364c0.075,0.067,0.165,0.227,0.279,0.099
		c0.108-0.12-0.052-0.196-0.126-0.269c-0.421-0.418-0.943-0.741-1.237-1.283C14.777,11.44,14.699,11.404,14.629,11.346z"/>
	<path fill="none" stroke="#231F20" stroke-miterlimit="10" d="M4.348,35.555c-0.114,0.006-0.109,0.095-0.11,0.167
		c-0.005,0.62,0.093,1.215,0.458,1.736c0.066,0.093,0.148,0.174,0.229,0.257c0.047,0.047,0.11,0.07,0.168,0.016
		c0.058-0.051,0.056-0.115,0.001-0.166c-0.54-0.506-0.599-1.182-0.661-1.854C4.427,35.649,4.425,35.581,4.348,35.555z"/>
	<path fill="none" stroke="#231F20" stroke-miterlimit="10" d="M43.344,49.654c-0.07-0.004-0.165-0.06-0.191,0.055
		c-0.019,0.093,0.05,0.131,0.128,0.154c0.648,0.194,1.294,0.389,1.943,0.58c0.068,0.02,0.165,0.044,0.194-0.058
		c0.026-0.098-0.069-0.125-0.136-0.149C44.646,50.005,44.005,49.796,43.344,49.654z"/>
	<path fill="none" stroke="#231F20" stroke-miterlimit="10" d="M11.913,54.277c-0.016-0.023-0.027-0.068-0.056-0.084
		c-0.657-0.328-1.316-0.654-1.975-0.978c-0.049-0.023-0.101,0-0.128,0.051c-0.038,0.073-0.002,0.125,0.059,0.157
		c0.65,0.313,1.3,0.628,1.952,0.938C11.828,54.392,11.891,54.368,11.913,54.277z"/>
	<path fill="none" stroke="#231F20" stroke-miterlimit="10" d="M8.112,41.528c-0.268-0.637-0.588-1.295-1.011-1.898
		c-0.037-0.053-0.105-0.081-0.167-0.034c-0.086,0.063-0.031,0.137,0.01,0.196c0.257,0.377,0.477,0.776,0.673,1.188
		c0.098,0.205,0.196,0.411,0.295,0.614c0.03,0.061,0.073,0.107,0.146,0.095C8.124,41.679,8.128,41.626,8.112,41.528z"/>
	<path fill="none" stroke="#231F20" stroke-miterlimit="10" d="M8.875,49.619c-0.01-0.16,0.028-0.276-0.1-0.287
		c-0.09-0.006-0.114,0.096-0.125,0.165c-0.095,0.663-0.224,1.318-0.388,1.966c-0.021,0.076-0.027,0.164,0.072,0.182
		c0.09,0.017,0.134-0.06,0.15-0.139C8.621,50.854,8.755,50.198,8.875,49.619z"/>
	<path fill="none" stroke="#231F20" stroke-miterlimit="10" d="M38.12,49.066c0.76,0.083,1.485,0.166,2.213,0.244
		c0.073,0.01,0.174,0.005,0.166-0.098c-0.008-0.113-0.121-0.125-0.202-0.135c-0.631-0.063-1.264-0.121-1.894-0.175
		C38.307,48.895,38.192,48.88,38.12,49.066z"/>
	<path fill="none" stroke="#231F20" stroke-miterlimit="10" d="M45.438,15.486c-0.692,0.241-1.373,0.451-2.066,0.621
		c-0.064,0.016-0.118,0.062-0.092,0.138c0.032,0.094,0.114,0.09,0.189,0.069c0.431-0.121,0.861-0.239,1.286-0.368
		c0.242-0.074,0.483-0.161,0.72-0.25c0.059-0.021,0.119-0.072,0.076-0.145C45.532,15.518,45.473,15.505,45.438,15.486z"/>
	<path fill="none" stroke="#231F20" stroke-miterlimit="10" d="M50.516,52.292c-0.016-0.024-0.026-0.067-0.055-0.085
		c-0.626-0.396-1.284-0.719-1.973-0.984c-0.07-0.025-0.131-0.003-0.148,0.074c-0.016,0.079,0.05,0.11,0.104,0.137
		c0.64,0.284,1.275,0.573,1.873,0.938C50.397,52.423,50.489,52.439,50.516,52.292z"/>
	<path fill="none" stroke="#231F20" stroke-miterlimit="10" d="M30.444,16.849c-0.018-0.023-0.037-0.072-0.062-0.076
		c-0.705-0.081-1.411-0.159-2.116-0.234c-0.076-0.008-0.171,0.009-0.165,0.108c0.004,0.1,0.113,0.09,0.179,0.098
		c0.656,0.071,1.312,0.137,1.97,0.201C30.324,16.953,30.407,16.951,30.444,16.849z"/>
	<path fill="none" stroke="#231F20" stroke-miterlimit="10" d="M55.216,13.647c-0.02-0.029-0.03-0.071-0.058-0.09
		c-0.579-0.409-1.183-0.779-1.828-1.085c-0.062-0.028-0.13-0.03-0.163,0.038c-0.034,0.075,0.024,0.119,0.079,0.152
		c0.588,0.351,1.174,0.7,1.765,1.047C55.094,13.756,55.179,13.792,55.216,13.647z"/>
	<path fill="none" stroke="#231F20" stroke-miterlimit="10" d="M56.81,36.285c0.006,0.075,0.021,0.137,0.101,0.145
		c0.072,0.007,0.111-0.052,0.132-0.114c0.086-0.253,0.164-0.507,0.257-0.758c0.135-0.354,0.287-0.703,0.418-1.06
		c0.035-0.092,0.151-0.23-0.013-0.292c-0.13-0.048-0.151,0.107-0.188,0.191c-0.075,0.16-0.143,0.325-0.207,0.491
		C57.143,35.354,56.975,35.819,56.81,36.285z"/>
	<path fill="none" stroke="#231F20" stroke-miterlimit="10" d="M8.837,16.307c-0.093-0.688-0.245-1.364-0.423-2.033
		c-0.019-0.077-0.053-0.156-0.15-0.126c-0.101,0.032-0.064,0.124-0.048,0.194c0.158,0.662,0.304,1.327,0.405,1.999
		c0.013,0.079,0.052,0.15,0.151,0.123C8.853,16.442,8.84,16.369,8.837,16.307z"/>
	<path fill="none" stroke="#231F20" stroke-miterlimit="10" d="M18.543,13.625c-0.088-0.019-0.138,0.002-0.148,0.058
		c-0.021,0.115,0.083,0.145,0.156,0.188c0.549,0.326,1.127,0.595,1.713,0.849c0.083,0.036,0.208,0.138,0.267,0.01
		c0.073-0.156-0.108-0.175-0.197-0.219c-0.546-0.275-1.097-0.542-1.646-0.812C18.631,13.67,18.574,13.641,18.543,13.625z"/>
	<path fill="none" stroke="#231F20" stroke-miterlimit="10" d="M56.094,44.443c0.051,0.623,0.1,1.226,0.15,1.827
		c0.009,0.089,0.022,0.193,0.138,0.195c0.101,0,0.104-0.087,0.099-0.167c-0.057-0.628-0.105-1.255-0.169-1.882
		c-0.009-0.094,0.017-0.279-0.143-0.25C56.033,44.189,56.108,44.359,56.094,44.443z"/>
	<path fill="none" stroke="#231F20" stroke-miterlimit="10" d="M38.776,17.045c0.536-0.057,1.078-0.113,1.621-0.173
		c0.096-0.011,0.233-0.007,0.198-0.158c-0.026-0.117-0.138-0.073-0.225-0.062c-0.541,0.058-1.088,0.106-1.628,0.179
		c-0.156,0.021-0.452-0.093-0.442,0.119C38.311,17.139,38.604,16.991,38.776,17.045z"/>
	<path fill="none" stroke="#231F20" stroke-miterlimit="10" d="M56.706,17.062c0.016,0.089-0.05,0.243,0.076,0.258
		c0.17,0.021,0.124-0.159,0.136-0.252c0.065-0.476,0.114-0.954,0.176-1.43c0.039-0.333-0.253-0.33-0.439-0.431
		c-0.046-0.027-0.106,0.013-0.111,0.067c-0.004,0.041,0.023,0.11,0.054,0.124c0.336,0.145,0.264,0.412,0.226,0.679
		C56.773,16.402,56.741,16.729,56.706,17.062z"/>
	<path fill="none" stroke="#231F20" stroke-miterlimit="10" d="M34.263,48.812c0,0.009,0,0.017,0,0.026
		c-0.343,0-0.688-0.005-1.032,0.002c-0.088,0-0.199,0.008-0.195,0.129c0.006,0.121,0.117,0.123,0.205,0.112
		c0.675-0.081,1.349-0.051,2.024-0.067c0.076-0.002,0.174,0.004,0.171-0.101c-0.004-0.101-0.101-0.099-0.176-0.099
		C34.927,48.81,34.595,48.812,34.263,48.812z"/>
	<path fill="none" stroke="#231F20" stroke-miterlimit="10" d="M11.851,11.571c-0.581,0.28-1.246,0.6-1.909,0.922
		c-0.044,0.021-0.063,0.083-0.026,0.131c0.05,0.066,0.116,0.041,0.174,0.014c0.244-0.108,0.488-0.219,0.731-0.332
		c0.369-0.17,0.738-0.343,1.108-0.516c0.07-0.033,0.144-0.071,0.134-0.163C12.057,11.566,12.004,11.552,11.851,11.571z"/>
	<path fill="none" stroke="#231F20" stroke-miterlimit="10" d="M23.088,15.638c0,0.103,0.088,0.12,0.155,0.136
		c0.654,0.163,1.309,0.32,1.963,0.475c0.07,0.017,0.171,0.031,0.187-0.072c0.017-0.095-0.075-0.123-0.146-0.14
		c-0.654-0.16-1.31-0.319-1.964-0.473C23.209,15.547,23.127,15.543,23.088,15.638z"/>
	<path fill="none" stroke="#231F20" stroke-miterlimit="10" d="M8.093,24.107C8,24.125,7.977,24.204,7.947,24.271
		c-0.144,0.312-0.274,0.629-0.428,0.937c-0.14,0.284-0.303,0.558-0.453,0.835C7.028,26.114,7,26.193,7.091,26.241
		c0.075,0.041,0.117-0.025,0.15-0.079c0.374-0.579,0.663-1.2,0.917-1.837C8.191,24.244,8.213,24.149,8.093,24.107z"/>
	<path fill="none" stroke="#231F20" stroke-miterlimit="10" d="M20.261,51.236c-0.644,0.284-1.322,0.595-1.958,0.992
		c-0.046,0.029-0.049,0.097-0.005,0.13c0.034,0.025,0.1,0.04,0.135,0.023c0.149-0.071,0.288-0.16,0.436-0.23
		c0.478-0.233,0.958-0.459,1.439-0.688c0.066-0.032,0.156-0.054,0.144-0.149C20.445,51.238,20.377,51.226,20.261,51.236z"/>
	<path fill="none" stroke="#231F20" stroke-miterlimit="10" d="M28.25,49.477c0.619-0.066,1.227-0.13,1.835-0.199
		c0.083-0.01,0.218-0.008,0.211-0.116c-0.007-0.147-0.156-0.105-0.244-0.098c-0.608,0.063-1.215,0.132-1.823,0.206
		c-0.088,0.012-0.249-0.021-0.23,0.126C28.017,49.528,28.167,49.463,28.25,49.477z"/>
	<path fill="none" stroke="#231F20" stroke-miterlimit="10" d="M25.029,49.769c-0.584,0.146-1.249,0.314-1.911,0.483
		c-0.062,0.016-0.129,0.05-0.121,0.123c0.009,0.085,0.089,0.094,0.149,0.08c0.666-0.157,1.331-0.317,1.997-0.479
		c0.06-0.017,0.122-0.061,0.116-0.132C25.25,49.765,25.179,49.761,25.029,49.769z"/>
	<path fill="none" stroke="#231F20" stroke-miterlimit="10" d="M56.068,25.368c0.034,0.405,0.063,0.819,0.108,1.233
		c0.015,0.128,0.003,0.362,0.15,0.34c0.188-0.028,0.09-0.252,0.08-0.386c-0.032-0.402-0.074-0.804-0.126-1.204
		c-0.032-0.228,0.019-0.677-0.08-0.646C55.916,24.792,56.136,25.129,56.068,25.368z"/>
	<path fill="none" stroke="#231F20" stroke-miterlimit="10" d="M57.378,50.678c-0.055-0.373-0.105-0.737-0.162-1.101
		c-0.015-0.07-0.042-0.165-0.14-0.152c-0.097,0.014-0.082,0.112-0.08,0.187c0,0.039,0.006,0.075,0.013,0.113
		c0.109,0.583,0.296,1.183-0.318,1.631c-0.018,0.012-0.032,0.041-0.034,0.063c-0.004,0.036-0.006,0.08,0.015,0.105
		c0.034,0.052,0.085,0.027,0.135,0.007C57.021,51.431,57.385,50.888,57.378,50.678z"/>
	<path fill="none" stroke="#231F20" stroke-miterlimit="10" d="M9.042,45.925c-0.013-0.493-0.063-0.982-0.152-1.467
		c-0.012-0.07-0.02-0.166-0.13-0.141c-0.077,0.014-0.077,0.096-0.071,0.154c0.067,0.665,0.164,1.329,0.162,1.999
		c0,0.063,0.021,0.135,0.101,0.127c0.077-0.006,0.089-0.081,0.09-0.146C9.047,46.276,9.044,46.101,9.042,45.925z"/>
	<path fill="none" stroke="#231F20" stroke-miterlimit="10" d="M8.931,19.179c-0.131,0.067-0.088,0.196-0.088,0.3
		c-0.002,0.582-0.068,1.159-0.128,1.737c-0.009,0.093-0.072,0.234,0.068,0.253c0.129,0.017,0.13-0.138,0.145-0.228
		c0.096-0.625,0.132-1.256,0.116-1.889C9.041,19.28,9.037,19.197,8.931,19.179z"/>
	<path fill="none" stroke="#231F20" stroke-miterlimit="10" d="M56.241,39.544c-0.049,0.622-0.096,1.227-0.141,1.829
		c-0.006,0.089-0.009,0.193,0.105,0.214c0.1,0.016,0.117-0.07,0.123-0.148c0.044-0.628,0.094-1.256,0.132-1.885
		c0.006-0.095,0.062-0.274-0.102-0.271C56.223,39.285,56.269,39.464,56.241,39.544z"/>
	<path fill="none" stroke="#231F20" stroke-miterlimit="10" d="M4.136,31.87c-0.041,0.492-0.043,0.982-0.006,1.474
		c0.004,0.072,0.002,0.168,0.115,0.154c0.078-0.006,0.086-0.086,0.086-0.146c0.004-0.669-0.021-1.337,0.054-2.005
		c0.007-0.063-0.006-0.137-0.087-0.138C4.22,31.207,4.2,31.281,4.192,31.345C4.169,31.519,4.153,31.695,4.136,31.87z"/>
	<path fill="none" stroke="#231F20" stroke-miterlimit="10" d="M6.041,27.68c-0.093,0.017-0.116,0.096-0.146,0.164
		c-0.143,0.312-0.274,0.628-0.427,0.936c-0.14,0.285-0.303,0.559-0.454,0.837c-0.038,0.069-0.066,0.149,0.025,0.196
		c0.075,0.042,0.116-0.024,0.151-0.078c0.374-0.578,0.663-1.2,0.917-1.837C6.14,27.816,6.161,27.721,6.041,27.68z"/>
	<path fill="none" stroke="#231F20" stroke-miterlimit="10" d="M56.837,29.955c0.036,0.405,0.064,0.82,0.109,1.233
		c0.016,0.128,0.004,0.362,0.15,0.34c0.188-0.027,0.09-0.251,0.079-0.385c-0.03-0.404-0.072-0.805-0.125-1.205
		c-0.031-0.227,0.019-0.677-0.079-0.645C56.687,29.379,56.905,29.717,56.837,29.955z"/>
</g>
</svg>
