<?xml version="1.0" encoding="utf-8"?>
<!-- Generator: Adobe Illustrator 16.0.0, SVG Export Plug-In . SVG Version: 6.00 Build 0)  -->
<!DOCTYPE svg PUBLIC "-//W3C//DTD SVG 1.1//EN" "http://www.w3.org/Graphics/SVG/1.1/DTD/svg11.dtd">
<svg version="1.1" xmlns="http://www.w3.org/2000/svg" xmlns:xlink="http://www.w3.org/1999/xlink" x="0px" y="0px" width="64px"
	 height="64px" viewBox="0 0 64 64" enable-background="new 0 0 64 64" xml:space="preserve">
<g>
	<g>
		<path d="M14.524,1.033c6.845,0,12.585,5.119,13.352,11.908c0.694,6.15-3.115,12.089-9.057,14.12
			c-1.653,0.565-1.923,0.94-1.923,2.676v24.71v0.09v0.195c0.02,2.265,1.328,3.568,3.59,3.576c1.543,0.005,3.087,0.006,4.631,0.006
			l3.917-0.002l3.915-0.002l3.341-0.001l8.704-0.001l7.779,0.002c1.2,0,1.567,0.366,1.575,1.566c0.003,0.549,0,1.096-0.003,1.644
			c-0.007,1.088-0.387,1.474-1.451,1.476c-2.861,0.003-5.722,0.003-8.581,0.003h-2.146h-2.146l-3.854-0.001l-4.738,0.001L26.693,63
			c-2.211,0-4.421-0.001-6.631-0.004c-4.388-0.009-7.833-3.439-7.844-7.811c-0.021-8.228-0.018-16.911,0.01-25.807
			c0.004-1.16-0.493-1.848-1.614-2.232c-5.542-1.894-8.684-5.69-9.34-11.284C0.321,7.736,6.319,2.004,12.668,1.157
			C13.285,1.075,13.909,1.033,14.524,1.033 M14.495,25.332l0.182-0.001c5.959-0.103,10.708-4.847,10.813-10.801
			c0.05-2.874-1.104-5.727-3.168-7.827c-2.012-2.047-4.734-3.221-7.47-3.221c-0.077,0-0.152,0.001-0.229,0.002
			c-0.109-0.003-0.219-0.005-0.328-0.005c-5.744,0-10.638,4.956-10.688,10.822c-0.024,2.857,1.148,5.693,3.216,7.778
			C8.903,24.177,11.627,25.332,14.495,25.332 M14.524,0.033c-0.655,0-1.318,0.043-1.987,0.132C5.389,1.119-0.696,7.647,0.282,15.979
			c0.71,6.061,4.208,10.131,10.01,12.113c0.713,0.245,0.94,0.536,0.937,1.282c-0.027,8.604-0.033,17.208-0.01,25.814
			c0.013,4.964,3.884,8.798,8.842,8.808C22.272,63.999,24.482,64,26.693,64c3.158,0,6.316-0.002,9.476-0.002v0.001
			c1.285,0,2.57,0,3.854,0c1.431,0,2.86,0,4.291,0c2.86,0,5.72,0,8.582-0.003c1.617-0.003,2.44-0.842,2.45-2.47
			c0.003-0.552,0.006-1.103,0.003-1.654c-0.011-1.751-0.817-2.562-2.575-2.562c-2.594-0.001-5.187-0.002-7.779-0.002
			c-4.015,0-8.029,0.001-12.045,0.002c-2.61,0-5.221,0.004-7.832,0.004c-1.543,0-3.085-0.001-4.628-0.006
			c-1.737-0.006-2.578-0.865-2.593-2.585c0-0.092,0-0.185,0-0.276c0-8.235,0-16.475,0-24.71c0-1.304,0-1.304,1.247-1.73
			c6.425-2.197,10.478-8.523,9.727-15.179C28.031,5.408,21.815,0.033,14.524,0.033L14.524,0.033z M14.495,24.332
			c-5.419,0-9.934-4.628-9.888-10.023c0.044-5.204,4.375-9.831,9.688-9.831c0.107,0,0.215,0.002,0.323,0.006
			c0.078-0.002,0.155-0.003,0.233-0.003c5.216,0,9.733,4.598,9.638,10.031c-0.095,5.405-4.424,9.726-9.83,9.818
			C14.605,24.332,14.55,24.332,14.495,24.332L14.495,24.332z"/>
	</g>
	<path fill-rule="evenodd" clip-rule="evenodd" fill="none" stroke="#000000" stroke-miterlimit="10" d="M36.537,55.184
		c-3.671,0.002-7.34,0.006-11.01,0c-2.032-0.002-3.303-1.273-3.303-3.306c-0.002-5.895-0.002-11.789,0.004-17.683
		c0.001-2.063,1.237-3.308,3.282-3.315c2.34-0.007,4.679,0.01,7.019-0.015c0.588-0.007,0.811,0.176,0.799,0.786
		c-0.034,1.674-0.014,3.349-0.006,5.023c0,0.192-0.105,0.457,0.132,0.556c0.178,0.073,0.331-0.12,0.479-0.219
		c0.686-0.461,1.377-0.913,2.049-1.393c0.409-0.294,0.758-0.302,1.177,0.005c0.685,0.5,1.411,0.942,2.11,1.421
		c0.427,0.288,0.59,0.212,0.583-0.322c-0.018-1.675,0.016-3.35-0.018-5.023c-0.011-0.621,0.183-0.844,0.821-0.836
		c2.385,0.03,4.771,0.006,7.155,0.018c1.809,0.009,3.125,1.313,3.127,3.133c0.01,6.032,0.01,12.063-0.004,18.096
		c-0.006,1.771-1.325,3.064-3.114,3.07C44.06,55.193,40.298,55.184,36.537,55.184z"/>
	<path fill-rule="evenodd" clip-rule="evenodd" fill="none" d="M14.619,4.484c5.314-0.14,9.968,4.514,9.871,10.028
		c-0.095,5.405-4.424,9.726-9.83,9.818C9.168,24.426,4.561,19.758,4.607,14.309C4.653,9,9.16,4.292,14.619,4.484z M15.442,13.258
		c-0.306,0-0.443,0.001-0.581,0c-0.966-0.005-1.458,0.393-1.44,1.158c0.018,0.732,0.517,1.135,1.425,1.114
		c1.466-0.033,2.924-0.19,4.379-0.364c0.865-0.102,1.732-0.182,2.568-0.447c0.173-0.054,0.39-0.093,0.398-0.318
		c0.007-0.228-0.211-0.274-0.38-0.332c-0.173-0.058-0.353-0.104-0.531-0.138C19.297,13.533,17.283,13.423,15.442,13.258z
		 M14.603,6.646c-1.19,0.004-1.19,0.004-1.189,1.35c0.001,0.932,0.001,0.932,1.265,0.93c1.018-0.003,1.018-0.003,1.015-1.245
		C15.691,6.642,15.691,6.642,14.603,6.646z M8.003,13.255c-1.198,0.004-1.198,0.004-1.197,1.342c0,0.938,0,0.938,1.257,0.936
		c1.025-0.001,1.025-0.001,1.022-1.236C9.082,13.251,9.082,13.251,8.003,13.255z M14.54,22.142c1.153,0,1.153,0,1.154-1.11
		c0-1.167,0-1.167-1.092-1.167c-1.187-0.002-1.187-0.002-1.187,1.143C13.415,22.142,13.415,22.142,14.54,22.142z"/>
	<path fill-rule="evenodd" clip-rule="evenodd" d="M15.442,13.258c1.841,0.165,3.855,0.274,5.837,0.673
		c0.178,0.034,0.358,0.08,0.531,0.138c0.169,0.058,0.388,0.104,0.38,0.332c-0.008,0.225-0.225,0.264-0.398,0.318
		c-0.836,0.265-1.703,0.345-2.568,0.447c-1.455,0.174-2.913,0.331-4.379,0.364c-0.908,0.021-1.407-0.382-1.425-1.114
		c-0.018-0.765,0.474-1.163,1.44-1.158C15,13.259,15.136,13.258,15.442,13.258z"/>
	<path fill-rule="evenodd" clip-rule="evenodd" d="M14.603,6.646c1.088-0.004,1.088-0.004,1.091,1.035
		c0.003,1.241,0.003,1.241-1.015,1.245c-1.264,0.002-1.264,0.002-1.265-0.93C13.413,6.65,13.413,6.65,14.603,6.646z"/>
	<path fill-rule="evenodd" clip-rule="evenodd" d="M8.003,13.255c1.079-0.004,1.079-0.004,1.082,1.042
		c0.003,1.235,0.003,1.235-1.022,1.236c-1.257,0.002-1.257,0.002-1.257-0.936C6.805,13.259,6.805,13.259,8.003,13.255z"/>
	<path fill-rule="evenodd" clip-rule="evenodd" d="M14.54,22.142c-1.125,0-1.125,0-1.124-1.135c0-1.145,0-1.145,1.187-1.143
		c1.092,0.001,1.092,0.001,1.092,1.167C15.692,22.142,15.692,22.142,14.54,22.142z"/>
</g>
</svg>
