<?xml version="1.0" encoding="utf-8"?>
<!-- Generator: Adobe Illustrator 16.0.0, SVG Export Plug-In . SVG Version: 6.00 Build 0)  -->
<!DOCTYPE svg PUBLIC "-//W3C//DTD SVG 1.1//EN" "http://www.w3.org/Graphics/SVG/1.1/DTD/svg11.dtd">
<svg version="1.1" xmlns="http://www.w3.org/2000/svg" xmlns:xlink="http://www.w3.org/1999/xlink" x="0px" y="0px" width="64px"
	 height="64px" viewBox="0 0 64 64" enable-background="new 0 0 64 64" xml:space="preserve">
<g>
	<g>
		<path fill="#231F20" d="M14.524,1.033c6.845,0,12.585,5.119,13.352,11.908c0.694,6.15-3.115,12.089-9.057,14.12
			c-1.653,0.565-1.923,0.94-1.923,2.676v24.71v0.09v0.195c0.02,2.265,1.328,3.566,3.59,3.576c1.543,0.004,3.087,0.006,4.631,0.006
			l3.917-0.002l3.915-0.002l3.341-0.002h8.704l7.779,0.002c1.199,0,1.565,0.364,1.574,1.564c0.004,0.549,0,1.098-0.002,1.645
			c-0.009,1.088-0.389,1.475-1.451,1.477c-2.861,0.003-5.724,0.003-8.582,0.003h-2.146H40.02l-3.854-0.001l-4.738,0.001L26.693,63
			c-2.211,0-4.421-0.001-6.631-0.004c-4.388-0.01-7.833-3.439-7.844-7.811c-0.021-8.229-0.018-16.912,0.01-25.809
			c0.004-1.16-0.493-1.848-1.614-2.232c-5.542-1.894-8.684-5.69-9.34-11.284C0.321,7.736,6.319,2.004,12.668,1.157
			C13.285,1.075,13.909,1.033,14.524,1.033 M14.495,25.332l0.182-0.001c5.959-0.103,10.708-4.847,10.813-10.801
			c0.05-2.874-1.104-5.729-3.168-7.827c-2.012-2.047-4.734-3.221-7.47-3.221c-0.077,0-0.152,0.001-0.229,0.002
			c-0.109-0.003-0.219-0.005-0.328-0.005c-5.744,0-10.638,4.956-10.688,10.822c-0.024,2.857,1.148,5.693,3.216,7.778
			C8.903,24.177,11.627,25.332,14.495,25.332 M14.524,0.033c-0.655,0-1.318,0.043-1.987,0.132C5.389,1.119-0.696,7.647,0.282,15.979
			c0.71,6.061,4.208,10.131,10.01,12.113c0.713,0.245,0.94,0.536,0.937,1.282c-0.027,8.604-0.033,17.208-0.01,25.813
			c0.013,4.965,3.884,8.799,8.842,8.809C22.272,63.999,24.482,64,26.693,64c3.158,0,6.316-0.002,9.476-0.002v0.001
			c1.285,0,2.569,0,3.854,0c1.431,0,2.858,0,4.291,0c2.858,0,5.72,0,8.582-0.003c1.617-0.003,2.438-0.842,2.449-2.471
			c0.004-0.551,0.006-1.104,0.004-1.653c-0.013-1.751-0.817-2.562-2.576-2.562c-2.594-0.002-5.188-0.002-7.778-0.002
			c-4.015,0-8.029,0-12.045,0.002c-2.61,0-5.221,0.004-7.832,0.004c-1.543,0-3.085-0.002-4.628-0.006
			c-1.737-0.008-2.578-0.865-2.593-2.586c0-0.093,0-0.186,0-0.275c0-8.235,0-16.475,0-24.71c0-1.304,0-1.304,1.247-1.73
			c6.425-2.197,10.478-8.523,9.727-15.179C28.031,5.408,21.815,0.033,14.524,0.033L14.524,0.033z M14.495,24.332
			c-5.419,0-9.934-4.628-9.888-10.023c0.044-5.204,4.375-9.831,9.688-9.831c0.107,0,0.215,0.002,0.323,0.006
			c0.078-0.002,0.155-0.003,0.233-0.003c5.216,0,9.733,4.598,9.638,10.031c-0.095,5.405-4.424,9.726-9.83,9.818
			C14.605,24.332,14.55,24.332,14.495,24.332L14.495,24.332z"/>
	</g>
	<path fill="#231F20" d="M15.442,13.258c1.841,0.165,3.855,0.274,5.837,0.673c0.178,0.034,0.358,0.08,0.531,0.138
		c0.169,0.058,0.388,0.104,0.38,0.332c-0.008,0.225-0.225,0.264-0.398,0.318c-0.836,0.265-1.703,0.345-2.568,0.447
		c-1.455,0.174-2.913,0.331-4.379,0.364c-0.908,0.021-1.407-0.382-1.425-1.114c-0.018-0.765,0.474-1.163,1.44-1.158
		C15,13.259,15.136,13.258,15.442,13.258z"/>
	<path fill="#231F20" d="M14.603,6.646c1.088-0.004,1.088-0.004,1.091,1.035c0.003,1.241,0.003,1.241-1.015,1.245
		c-1.264,0.002-1.264,0.002-1.265-0.93C13.413,6.65,13.413,6.65,14.603,6.646z"/>
	<path fill="#231F20" d="M8.003,13.255c1.079-0.004,1.079-0.004,1.082,1.042c0.003,1.235,0.003,1.235-1.022,1.236
		c-1.257,0.002-1.257,0.002-1.257-0.936C6.805,13.259,6.805,13.259,8.003,13.255z"/>
	<path fill="#231F20" d="M14.54,22.142c-1.125,0-1.125,0-1.124-1.135c0-1.145,0-1.145,1.187-1.143
		c1.092,0.001,1.092,0.001,1.092,1.167C15.692,22.142,15.692,22.142,14.54,22.142z"/>
	<g>
		<path fill="#231F20" d="M28.622,31.19c0.514,0.686,1.211,1.262,2.117,1.753c1.212,0.656,2.607,1.094,4.388,1.373
			c1.271,0.199,2.605,0.302,3.966,0.302c0.325,0,0.659-0.005,0.991-0.017c1.859-0.065,3.352-0.345,4.693-0.877
			c1.168-0.463,2.068-1.084,2.734-1.89c0.489,0.272,0.973,0.563,1.475,0.867l0.293,0.177c0.508,0.307,0.969,0.587,1.404,0.885
			c-0.041,0.271-0.082,0.535-0.121,0.803c-0.146,1.025-0.237,1.961-0.275,2.858c-0.035,0.806-0.051,1.869,0.135,2.97
			c0.186,1.1,0.521,1.957,1.047,2.683c-0.818,1.101-1.041,2.368-1.137,3.396c-0.178,1.875,0.023,3.682,0.27,5.354l0.029,0.215
			c0.016,0.111,0.032,0.227,0.051,0.343c-0.303,0.205-0.604,0.394-0.869,0.556c-0.807,0.498-1.553,0.953-2.301,1.369
			c-0.678-0.816-1.6-1.445-2.799-1.912c-0.998-0.389-2.121-0.64-3.436-0.769c-0.758-0.071-1.395-0.106-2-0.106
			c-0.084,0-0.168,0-0.252,0.002c-1.715,0.029-3.967,0.148-6.18,0.815c-1.5,0.453-2.622,1.044-3.53,1.859
			c-0.259,0.231-0.491,0.485-0.693,0.756c-1.154-0.491-2.251-1.019-3.191-1.479c-0.161-0.08-0.32-0.16-0.48-0.242
			c-0.009-0.004-0.018-0.008-0.026-0.014c0.179-0.626,0.313-1.22,0.405-1.802c0.268-1.696,0.05-3.151-0.664-4.449
			c-0.391-0.711-0.876-1.239-1.482-1.612c0.062-1.369,0.031-2.715-0.039-4.398c0.001-0.031,0.007-0.063,0.011-0.093
			c0.002-0.013,0.003-0.025,0.005-0.039c1.134-0.741,1.845-1.902,2.173-3.538c0.235-1.176,0.064-2.307-0.134-3.256
			c-0.078-0.377-0.171-0.749-0.276-1.114c0.537-0.271,1.089-0.531,1.627-0.784l0.157-0.073
			C27.318,31.771,27.961,31.472,28.622,31.19 M28.936,30.048c-0.054,0-0.125,0.029-0.243,0.077c-0.81,0.328-1.602,0.694-2.391,1.066
			c-0.772,0.363-1.544,0.724-2.297,1.124c-0.175,0.093-0.211,0.197-0.15,0.378c0.167,0.502,0.304,1.013,0.411,1.531
			c0.198,0.949,0.325,1.909,0.132,2.873c-0.252,1.262-0.773,2.371-1.96,3.049c-0.148,0.082-0.206,0.201-0.207,0.369
			c-0.001,0.155-0.047,0.311-0.04,0.467c0.067,1.621,0.107,3.078,0.027,4.568c-0.016,0.284,0.155,0.438,0.377,0.564
			c0.546,0.311,0.935,0.769,1.234,1.313c0.667,1.213,0.768,2.502,0.557,3.84c-0.119,0.748-0.306,1.48-0.536,2.203
			c-0.054,0.168-0.018,0.271,0.141,0.348c0.341,0.168,0.678,0.346,1.02,0.513c1.226,0.603,2.46,1.185,3.723,1.704
			c0.104,0.042,0.167,0.066,0.214,0.066c0.071,0,0.106-0.058,0.189-0.199c0.221-0.375,0.497-0.704,0.821-0.996
			c0.914-0.819,2.006-1.303,3.167-1.653c1.93-0.582,3.917-0.741,5.919-0.774c0.078-0.002,0.155-0.002,0.233-0.002
			c0.638,0,1.273,0.043,1.908,0.104c1.092,0.105,2.158,0.311,3.183,0.707c1.11,0.434,2.08,1.059,2.735,2.083
			c0.056,0.085,0.108,0.121,0.172,0.121c0.045,0,0.095-0.019,0.151-0.05c0.987-0.521,1.938-1.104,2.888-1.688
			c0.418-0.258,0.834-0.521,1.232-0.811c0.119-0.084,0.174-0.172,0.143-0.327c-0.059-0.308-0.098-0.619-0.143-0.929
			c-0.249-1.699-0.426-3.403-0.264-5.125c0.117-1.256,0.408-2.447,1.357-3.377c0.082-0.082,0.084-0.147-0.006-0.229
			c-0.102-0.093-0.199-0.19-0.283-0.298c-0.566-0.713-0.84-1.543-0.988-2.422c-0.153-0.918-0.161-1.844-0.122-2.771
			c0.04-0.927,0.137-1.846,0.269-2.764c0.063-0.427,0.129-0.853,0.197-1.295c-0.012-0.138-0.143-0.194-0.245-0.267
			c-0.545-0.39-1.116-0.737-1.688-1.082c-0.78-0.471-1.558-0.949-2.369-1.367c-0.051-0.027-0.098-0.048-0.143-0.048
			c-0.048,0-0.092,0.025-0.136,0.095c-0.644,1.021-1.599,1.658-2.7,2.096c-1.404,0.558-2.88,0.757-4.376,0.81
			c-0.319,0.012-0.64,0.017-0.958,0.017c-1.277,0-2.551-0.091-3.816-0.29c-1.422-0.223-2.805-0.578-4.08-1.269
			c-0.825-0.447-1.544-1.014-2.039-1.828C29.059,30.113,29.018,30.048,28.936,30.048L28.936,30.048z"/>
	</g>
	<path fill="none" stroke="#231F20" stroke-width="0.25" stroke-miterlimit="10" d="M29.383,52.896
		c-0.021,0.015-0.049,0.026-0.07,0.047c-0.231,0.225-0.462,0.449-0.693,0.676c-0.022,0.021-0.043,0.048-0.015,0.076
		c0.031,0.029,0.069,0.029,0.099,0c0.239-0.232,0.477-0.467,0.713-0.705C29.456,52.953,29.453,52.914,29.383,52.896z"/>
	<path fill="none" stroke="#231F20" stroke-width="0.25" stroke-miterlimit="10" d="M46.168,33.881
		c-0.016,0.008-0.029,0.01-0.039,0.016c-0.271,0.203-0.553,0.396-0.848,0.566c-0.026,0.016-0.051,0.043-0.027,0.075
		c0.027,0.038,0.066,0.022,0.1,0.005c0.142-0.084,0.281-0.167,0.418-0.258c0.137-0.092,0.268-0.189,0.398-0.288
		c0.027-0.021,0.061-0.048,0.037-0.091C46.201,33.895,46.18,33.889,46.168,33.881z"/>
	<path fill="none" stroke="#231F20" stroke-width="0.25" stroke-miterlimit="10" d="M38.521,35.385c0-0.001,0-0.002,0-0.003
		c-0.158,0-0.316-0.001-0.476,0c-0.032,0.001-0.081,0-0.075,0.054c0.004,0.037,0.045,0.039,0.073,0.039
		c0.312,0.01,0.619,0.021,0.931,0.028c0.045,0.001,0.108,0.006,0.104-0.065c-0.004-0.055-0.062-0.052-0.103-0.052
		C38.826,35.384,38.675,35.385,38.521,35.385z"/>
	<path fill="none" stroke="#231F20" stroke-width="0.25" stroke-miterlimit="10" d="M48.341,52.691
		c-0.013,0.008-0.03,0.015-0.046,0.023c-0.256,0.171-0.547,0.289-0.771,0.508c-0.035,0.034-0.119,0.06-0.063,0.123
		c0.054,0.057,0.103-0.014,0.14-0.043c0.176-0.141,0.352-0.273,0.56-0.369c0.077-0.033,0.143-0.091,0.212-0.139
		c0.025-0.02,0.049-0.042,0.033-0.076C48.393,52.693,48.371,52.686,48.341,52.691z"/>
	<path fill="none" stroke="#231F20" stroke-width="0.25" stroke-miterlimit="10" d="M48.926,37.688
		c0.002,0.021-0.027,0.102,0.051,0.104c0.078,0.004,0.062-0.077,0.063-0.126c0.008-0.285,0.036-0.567,0.068-0.853
		c0.006-0.049,0.037-0.129-0.043-0.133c-0.068-0.005-0.066,0.073-0.07,0.127C48.971,37.091,48.949,37.375,48.926,37.688z"/>
	<path fill="none" stroke="#231F20" stroke-width="0.25" stroke-miterlimit="10" d="M29.078,32.717
		c-0.023,0.018-0.049,0.025-0.059,0.042c-0.019,0.034,0.019,0.052,0.034,0.075c0.162,0.266,0.406,0.448,0.629,0.652
		c0.036,0.031,0.079,0.108,0.134,0.048c0.052-0.058-0.025-0.095-0.061-0.129c-0.201-0.2-0.451-0.354-0.592-0.614
		C29.148,32.762,29.111,32.744,29.078,32.717z"/>
	<path fill="none" stroke="#231F20" stroke-width="0.25" stroke-miterlimit="10" d="M24.158,44.302
		c-0.055,0.003-0.052,0.046-0.053,0.08c-0.002,0.298,0.044,0.582,0.219,0.831c0.032,0.044,0.071,0.083,0.109,0.122
		c0.022,0.022,0.053,0.034,0.081,0.008c0.028-0.024,0.027-0.055,0-0.079c-0.258-0.242-0.287-0.564-0.316-0.888
		C24.196,44.348,24.195,44.314,24.158,44.302z"/>
	<path fill="none" stroke="#231F20" stroke-width="0.25" stroke-miterlimit="10" d="M42.818,51.049
		c-0.033-0.002-0.078-0.029-0.092,0.026c-0.009,0.044,0.024,0.063,0.063,0.073c0.311,0.093,0.619,0.187,0.93,0.277
		c0.033,0.01,0.079,0.021,0.094-0.027c0.013-0.047-0.033-0.061-0.065-0.071C43.441,51.217,43.135,51.116,42.818,51.049z"/>
	<path fill="none" stroke="#231F20" stroke-width="0.25" stroke-miterlimit="10" d="M27.778,53.261
		c-0.008-0.011-0.013-0.032-0.027-0.04c-0.314-0.156-0.63-0.313-0.945-0.468c-0.023-0.012-0.048,0-0.061,0.024
		c-0.019,0.035-0.001,0.06,0.028,0.074c0.311,0.149,0.622,0.301,0.934,0.449C27.738,53.316,27.768,53.305,27.778,53.261z"/>
	<path fill="none" stroke="#231F20" stroke-width="0.25" stroke-miterlimit="10" d="M25.959,47.16
		c-0.128-0.305-0.281-0.62-0.483-0.908c-0.018-0.025-0.05-0.039-0.08-0.018c-0.041,0.031-0.015,0.065,0.005,0.095
		c0.123,0.181,0.228,0.372,0.322,0.569c0.046,0.098,0.094,0.195,0.141,0.293c0.014,0.029,0.035,0.052,0.07,0.045
		C25.965,47.232,25.967,47.207,25.959,47.16z"/>
	<path fill="none" stroke="#231F20" stroke-width="0.25" stroke-miterlimit="10" d="M26.324,51.032
		c-0.004-0.077,0.014-0.134-0.048-0.138c-0.043-0.004-0.054,0.045-0.06,0.078c-0.045,0.317-0.107,0.631-0.186,0.94
		c-0.01,0.037-0.013,0.079,0.034,0.087c0.043,0.009,0.064-0.027,0.072-0.066C26.203,51.623,26.267,51.311,26.324,51.032z"/>
	<path fill="none" stroke="#231F20" stroke-width="0.25" stroke-miterlimit="10" d="M40.318,50.768
		c0.365,0.039,0.711,0.08,1.061,0.117c0.035,0.004,0.082,0.002,0.079-0.048c-0.004-0.054-0.058-0.06-0.097-0.063
		c-0.303-0.03-0.605-0.059-0.906-0.084C40.408,50.686,40.354,50.68,40.318,50.768z"/>
	<path fill="none" stroke="#231F20" stroke-width="0.25" stroke-miterlimit="10" d="M43.82,34.698
		c-0.33,0.114-0.656,0.216-0.988,0.297c-0.029,0.008-0.057,0.028-0.044,0.065c0.017,0.045,0.056,0.043,0.091,0.032
		c0.207-0.058,0.412-0.114,0.615-0.176c0.115-0.035,0.23-0.077,0.345-0.119c0.028-0.011,0.058-0.034,0.036-0.069
		C43.866,34.713,43.838,34.707,43.82,34.698z"/>
	<path fill="none" stroke="#231F20" stroke-width="0.25" stroke-miterlimit="10" d="M46.251,52.313
		c-0.007-0.013-0.013-0.033-0.026-0.041c-0.299-0.189-0.613-0.345-0.942-0.472c-0.034-0.012-0.063-0.001-0.071,0.035
		c-0.007,0.038,0.023,0.054,0.051,0.065c0.307,0.136,0.608,0.273,0.896,0.449C46.193,52.374,46.238,52.382,46.251,52.313z"/>
	<path fill="none" stroke="#231F20" stroke-width="0.25" stroke-miterlimit="10" d="M36.646,35.352
		c-0.01-0.013-0.018-0.035-0.029-0.037c-0.338-0.039-0.676-0.075-1.014-0.111c-0.035-0.004-0.082,0.004-0.078,0.052
		c0.002,0.048,0.054,0.043,0.086,0.047c0.313,0.033,0.627,0.065,0.941,0.097C36.589,35.4,36.629,35.398,36.646,35.352z"/>
	<path fill="none" stroke="#231F20" stroke-width="0.25" stroke-miterlimit="10" d="M48.5,33.818
		c-0.01-0.016-0.014-0.034-0.027-0.043c-0.277-0.196-0.565-0.373-0.875-0.521c-0.029-0.014-0.063-0.015-0.078,0.019
		c-0.016,0.035,0.013,0.058,0.039,0.072c0.28,0.168,0.562,0.336,0.844,0.502C48.441,33.87,48.482,33.889,48.5,33.818z"/>
	<path fill="none" stroke="#231F20" stroke-width="0.25" stroke-miterlimit="10" d="M49.264,44.65
		c0.002,0.035,0.01,0.065,0.049,0.07c0.033,0.002,0.053-0.025,0.063-0.056c0.041-0.121,0.078-0.243,0.123-0.362
		c0.064-0.17,0.137-0.337,0.199-0.508c0.018-0.044,0.072-0.109-0.006-0.141c-0.063-0.021-0.072,0.052-0.09,0.092
		c-0.037,0.077-0.068,0.156-0.1,0.236C49.422,44.205,49.342,44.428,49.264,44.65z"/>
	<path fill="none" stroke="#231F20" stroke-width="0.25" stroke-miterlimit="10" d="M26.306,35.091
		c-0.044-0.329-0.117-0.651-0.202-0.973c-0.009-0.037-0.026-0.075-0.072-0.062c-0.048,0.017-0.031,0.061-0.023,0.094
		c0.076,0.315,0.146,0.635,0.194,0.957c0.006,0.037,0.024,0.07,0.072,0.059C26.314,35.155,26.308,35.12,26.306,35.091z"/>
	<path fill="none" stroke="#231F20" stroke-width="0.25" stroke-miterlimit="10" d="M30.951,33.809
		c-0.042-0.011-0.066,0-0.071,0.026c-0.01,0.056,0.04,0.069,0.075,0.09c0.263,0.156,0.54,0.285,0.82,0.406
		c0.04,0.019,0.1,0.065,0.128,0.005c0.035-0.074-0.052-0.083-0.094-0.104c-0.261-0.133-0.525-0.26-0.788-0.39
		C30.993,33.829,30.966,33.814,30.951,33.809z"/>
	<path fill="none" stroke="#231F20" stroke-width="0.25" stroke-miterlimit="10" d="M48.92,48.557
		c0.025,0.297,0.049,0.586,0.072,0.873c0.004,0.043,0.011,0.092,0.066,0.094c0.047,0,0.049-0.041,0.047-0.08
		c-0.027-0.301-0.051-0.602-0.08-0.9c-0.006-0.045,0.008-0.134-0.068-0.119C48.893,48.434,48.928,48.516,48.92,48.557z"/>
	<path fill="none" stroke="#231F20" stroke-width="0.25" stroke-miterlimit="10" d="M40.633,35.443
		c0.258-0.026,0.516-0.055,0.775-0.082c0.047-0.006,0.111-0.004,0.096-0.076c-0.014-0.057-0.066-0.034-0.107-0.029
		c-0.26,0.028-0.521,0.051-0.778,0.086c-0.074,0.01-0.218-0.045-0.212,0.057C40.41,35.489,40.551,35.418,40.633,35.443z"/>
	<path fill="none" stroke="#231F20" stroke-width="0.25" stroke-miterlimit="10" d="M49.213,35.452
		c0.01,0.043-0.023,0.116,0.037,0.123c0.081,0.011,0.059-0.075,0.064-0.12c0.031-0.229,0.055-0.456,0.084-0.686
		c0.02-0.158-0.121-0.156-0.211-0.205c-0.021-0.014-0.049,0.006-0.053,0.031c-0.001,0.021,0.012,0.053,0.026,0.061
		c0.159,0.068,0.125,0.197,0.106,0.324C49.246,35.137,49.23,35.293,49.213,35.452z"/>
	<path fill="none" stroke="#231F20" stroke-width="0.25" stroke-miterlimit="10" d="M38.475,50.646c0,0.002,0,0.008,0,0.012
		c-0.164,0-0.33-0.002-0.494,0.001c-0.043,0-0.096,0.004-0.094,0.062c0.002,0.059,0.055,0.059,0.098,0.055
		c0.324-0.039,0.646-0.024,0.97-0.032c0.036-0.001,0.084,0.002,0.082-0.048c-0.002-0.049-0.05-0.047-0.084-0.047
		C38.791,50.646,38.633,50.646,38.475,50.646z"/>
	<path fill="none" stroke="#231F20" stroke-width="0.25" stroke-miterlimit="10" d="M27.749,32.824
		c-0.278,0.135-0.596,0.287-0.914,0.441c-0.021,0.01-0.03,0.039-0.012,0.063c0.023,0.031,0.055,0.02,0.083,0.007
		c0.117-0.052,0.234-0.104,0.35-0.158c0.177-0.082,0.354-0.165,0.531-0.247c0.033-0.017,0.069-0.033,0.064-0.078
		C27.847,32.822,27.822,32.814,27.749,32.824z"/>
	<path fill="none" stroke="#231F20" stroke-width="0.25" stroke-miterlimit="10" d="M33.126,34.771c0,0.049,0.042,0.058,0.074,0.064
		c0.313,0.078,0.626,0.153,0.938,0.229c0.033,0.008,0.082,0.015,0.09-0.035c0.008-0.045-0.035-0.06-0.069-0.066
		c-0.313-0.077-0.627-0.152-0.94-0.227C33.184,34.729,33.145,34.727,33.126,34.771z"/>
	<path fill="none" stroke="#231F20" stroke-width="0.25" stroke-miterlimit="10" d="M25.95,38.823
		c-0.044,0.009-0.056,0.047-0.07,0.079c-0.069,0.147-0.131,0.301-0.205,0.447c-0.067,0.137-0.145,0.268-0.217,0.399
		c-0.018,0.034-0.031,0.071,0.012,0.095c0.036,0.021,0.056-0.012,0.072-0.037c0.179-0.277,0.317-0.574,0.439-0.88
		C25.997,38.889,26.007,38.844,25.95,38.823z"/>
	<path fill="none" stroke="#231F20" stroke-width="0.25" stroke-miterlimit="10" d="M31.773,51.807
		c-0.308,0.135-0.632,0.284-0.937,0.475c-0.022,0.014-0.023,0.047-0.002,0.063c0.017,0.012,0.048,0.021,0.065,0.012
		c0.071-0.033,0.138-0.076,0.208-0.11c0.229-0.111,0.458-0.22,0.688-0.329c0.032-0.016,0.075-0.025,0.069-0.07
		C31.861,51.807,31.829,51.802,31.773,51.807z"/>
	<path fill="none" stroke="#231F20" stroke-width="0.25" stroke-miterlimit="10" d="M35.596,50.964
		c0.297-0.03,0.588-0.062,0.879-0.096c0.039-0.004,0.104-0.003,0.102-0.056c-0.003-0.069-0.074-0.051-0.116-0.047
		c-0.292,0.03-0.582,0.063-0.873,0.1c-0.042,0.006-0.119-0.012-0.108,0.061C35.484,50.988,35.557,50.957,35.596,50.964z"/>
	<path fill="none" stroke="#231F20" stroke-width="0.25" stroke-miterlimit="10" d="M34.055,51.104
		c-0.279,0.069-0.598,0.149-0.914,0.23c-0.029,0.008-0.063,0.023-0.059,0.059c0.004,0.041,0.043,0.045,0.072,0.039
		c0.318-0.076,0.637-0.152,0.955-0.229c0.029-0.009,0.059-0.029,0.055-0.063C34.16,51.104,34.127,51.1,34.055,51.104z"/>
	<path fill="none" stroke="#231F20" stroke-width="0.25" stroke-miterlimit="10" d="M48.908,39.427
		c0.016,0.194,0.029,0.394,0.052,0.591c0.007,0.062,0.001,0.174,0.071,0.162c0.09-0.014,0.043-0.121,0.039-0.185
		c-0.016-0.192-0.035-0.386-0.062-0.576c-0.016-0.108,0.009-0.323-0.038-0.31C48.836,39.15,48.941,39.313,48.908,39.427z"/>
	<path fill="none" stroke="#231F20" stroke-width="0.25" stroke-miterlimit="10" d="M49.535,51.539
		c-0.026-0.18-0.051-0.354-0.078-0.527c-0.007-0.033-0.02-0.078-0.066-0.072c-0.045,0.008-0.039,0.055-0.039,0.09
		c0,0.019,0.004,0.035,0.008,0.055c0.052,0.279,0.142,0.566-0.151,0.78c-0.01,0.006-0.017,0.02-0.019,0.03
		c-0.002,0.017-0.002,0.037,0.009,0.049c0.016,0.025,0.04,0.014,0.063,0.005C49.363,51.898,49.538,51.641,49.535,51.539z"/>
	<path fill="none" stroke="#231F20" stroke-width="0.25" stroke-miterlimit="10" d="M26.404,49.266
		c-0.006-0.236-0.03-0.471-0.073-0.703c-0.006-0.033-0.009-0.08-0.063-0.067c-0.037,0.008-0.037,0.047-0.034,0.073
		c0.032,0.318,0.079,0.637,0.078,0.957c0,0.031,0.01,0.064,0.048,0.062c0.037-0.003,0.042-0.039,0.043-0.069
		C26.407,49.432,26.405,49.35,26.404,49.266z"/>
	<path fill="none" stroke="#231F20" stroke-width="0.25" stroke-miterlimit="10" d="M26.351,36.465
		c-0.063,0.032-0.042,0.094-0.042,0.145c-0.001,0.279-0.033,0.555-0.062,0.83c-0.004,0.045-0.034,0.112,0.033,0.121
		c0.062,0.01,0.063-0.064,0.07-0.107c0.045-0.299,0.063-0.602,0.055-0.904C26.404,36.514,26.402,36.475,26.351,36.465z"/>
	<path fill="none" stroke="#231F20" stroke-width="0.25" stroke-miterlimit="10" d="M48.991,46.211
		c-0.024,0.298-0.046,0.587-0.067,0.875c-0.004,0.043-0.005,0.094,0.051,0.104c0.047,0.008,0.055-0.033,0.06-0.07
		c0.021-0.303,0.045-0.602,0.063-0.902c0.002-0.046,0.028-0.132-0.05-0.13C48.982,46.087,49.004,46.173,48.991,46.211z"/>
	<path fill="none" stroke="#231F20" stroke-width="0.25" stroke-miterlimit="10" d="M24.057,42.538
		c-0.02,0.235-0.021,0.47-0.003,0.705c0.002,0.034,0.001,0.081,0.055,0.073c0.037-0.002,0.041-0.041,0.041-0.069
		c0.002-0.319-0.01-0.64,0.026-0.959c0.003-0.03-0.003-0.065-0.042-0.065c-0.038-0.002-0.047,0.034-0.051,0.064
		C24.072,42.371,24.064,42.455,24.057,42.538z"/>
	<path fill="none" stroke="#231F20" stroke-width="0.25" stroke-miterlimit="10" d="M24.968,40.533
		c-0.044,0.009-0.056,0.046-0.07,0.078c-0.068,0.148-0.131,0.302-0.205,0.447c-0.067,0.137-0.145,0.269-0.217,0.4
		c-0.019,0.033-0.032,0.07,0.012,0.094c0.036,0.021,0.055-0.011,0.072-0.037c0.179-0.275,0.317-0.574,0.439-0.879
		C25.016,40.6,25.026,40.553,24.968,40.533z"/>
	<path fill="none" stroke="#231F20" stroke-width="0.25" stroke-miterlimit="10" d="M49.275,41.622
		c0.018,0.192,0.031,0.394,0.053,0.59c0.008,0.062,0.002,0.173,0.072,0.162c0.09-0.013,0.043-0.119,0.037-0.185
		c-0.015-0.192-0.033-0.385-0.061-0.576c-0.016-0.108,0.01-0.323-0.038-0.309C49.205,41.348,49.309,41.508,49.275,41.622z"/>
</g>
</svg>
