<?xml version="1.0" encoding="utf-8"?>
<!-- Generator: Adobe Illustrator 16.0.0, SVG Export Plug-In . SVG Version: 6.00 Build 0)  -->
<!DOCTYPE svg PUBLIC "-//W3C//DTD SVG 1.1//EN" "http://www.w3.org/Graphics/SVG/1.1/DTD/svg11.dtd">
<svg version="1.1" xmlns="http://www.w3.org/2000/svg" xmlns:xlink="http://www.w3.org/1999/xlink" x="0px" y="0px" width="64px"
	 height="64px" viewBox="0 0 64 64" enable-background="new 0 0 64 64" xml:space="preserve">
<g>
	<path fill-rule="evenodd" clip-rule="evenodd" d="M61.918,12.79c-0.142,0.928-0.281,1.816-0.411,2.707
		c-0.277,1.917-0.478,3.839-0.561,5.774c-0.082,1.938-0.066,3.87,0.256,5.789c0.309,1.837,0.881,3.573,2.065,5.06
		c0.177,0.223,0.379,0.432,0.592,0.623c0.187,0.17,0.185,0.307,0.01,0.477c-1.982,1.941-2.59,4.434-2.836,7.059
		c-0.34,3.594,0.031,7.156,0.551,10.709c0.094,0.646,0.175,1.299,0.299,1.939c0.063,0.324-0.049,0.51-0.299,0.686
		c-0.834,0.6-1.701,1.152-2.576,1.691c-1.985,1.223-3.972,2.439-6.034,3.529c-0.297,0.158-0.482,0.148-0.675-0.152
		c-1.373-2.141-3.396-3.447-5.72-4.352c-2.138-0.83-4.368-1.254-6.647-1.477c-1.491-0.143-2.985-0.234-4.48-0.209
		c-4.183,0.07-8.337,0.402-12.368,1.619c-2.425,0.732-4.708,1.742-6.617,3.455c-0.677,0.609-1.253,1.299-1.715,2.082
		c-0.29,0.49-0.296,0.5-0.843,0.275c-2.64-1.084-5.218-2.303-7.78-3.559c-0.714-0.35-1.417-0.721-2.131-1.07
		c-0.33-0.162-0.406-0.375-0.294-0.729c0.481-1.508,0.873-3.041,1.121-4.605c0.441-2.793,0.23-5.49-1.164-8.021
		c-0.625-1.137-1.437-2.094-2.579-2.744c-0.465-0.264-0.821-0.585-0.789-1.178c0.167-3.117,0.083-6.159-0.057-9.548
		c-0.014-0.327,0.082-0.651,0.084-0.978c0.002-0.348,0.122-0.596,0.432-0.771c2.481-1.414,3.569-3.731,4.096-6.37
		c0.403-2.013,0.138-4.018-0.276-6.005c-0.225-1.083-0.509-2.15-0.859-3.199c-0.127-0.377-0.051-0.596,0.314-0.79
		C5.6,9.67,7.215,8.918,8.828,8.159c1.65-0.777,3.305-1.544,4.996-2.23c0.618-0.251,0.629-0.248,0.971,0.314
		c1.032,1.702,2.536,2.885,4.259,3.819c2.664,1.444,5.554,2.185,8.526,2.652c3.305,0.52,6.634,0.687,9.976,0.571
		c3.127-0.109,6.209-0.526,9.144-1.69c2.303-0.914,4.3-2.242,5.646-4.378c0.175-0.28,0.353-0.218,0.582-0.1
		c1.695,0.873,3.316,1.874,4.948,2.857c1.196,0.721,2.392,1.447,3.531,2.259C61.621,12.385,61.895,12.505,61.918,12.79z
		 M15.169,55.381c-0.047,0.031-0.111,0.061-0.158,0.105c-0.52,0.504-1.037,1.012-1.555,1.516c-0.051,0.051-0.096,0.107-0.032,0.172
		c0.068,0.068,0.156,0.068,0.222,0.004c0.537-0.525,1.071-1.053,1.602-1.586C15.332,55.508,15.327,55.42,15.169,55.381z
		 M51.614,11.576c-0.037,0.014-0.067,0.018-0.087,0.033c-0.611,0.458-1.242,0.888-1.903,1.274c-0.06,0.034-0.112,0.097-0.062,0.169
		c0.062,0.085,0.151,0.051,0.221,0.01c0.316-0.189,0.635-0.374,0.94-0.578c0.307-0.204,0.6-0.428,0.896-0.646
		c0.063-0.047,0.134-0.108,0.083-0.204C51.688,11.606,51.64,11.592,51.614,11.576z M34.891,15.718c0-0.002,0-0.005,0-0.008
		c-0.355,0-0.711-0.002-1.067,0.001c-0.075,0.001-0.182,0-0.17,0.117c0.009,0.083,0.099,0.087,0.165,0.089
		c0.696,0.024,1.393,0.047,2.089,0.064c0.104,0.003,0.248,0.013,0.236-0.146c-0.008-0.123-0.134-0.116-0.227-0.116
		C35.575,15.716,35.233,15.718,34.891,15.718z M55.856,54.061c-0.031,0.016-0.07,0.031-0.103,0.053
		c-0.576,0.383-1.23,0.65-1.734,1.139c-0.08,0.076-0.266,0.133-0.142,0.275c0.116,0.127,0.227-0.029,0.309-0.096
		c0.394-0.314,0.793-0.615,1.257-0.826c0.173-0.076,0.32-0.205,0.477-0.313c0.059-0.041,0.107-0.094,0.074-0.17
		C55.971,54.066,55.924,54.047,55.856,54.061z M58.252,20.887c0.006,0.05-0.059,0.227,0.114,0.235
		c0.177,0.009,0.14-0.174,0.144-0.284c0.016-0.641,0.079-1.277,0.151-1.913c0.012-0.108,0.083-0.288-0.095-0.299
		c-0.153-0.011-0.149,0.167-0.159,0.285C58.354,19.549,58.308,20.187,58.252,20.887z M13.69,8.751
		c-0.053,0.036-0.11,0.056-0.132,0.095c-0.043,0.078,0.042,0.113,0.076,0.168c0.363,0.593,0.912,1.007,1.414,1.466
		c0.08,0.073,0.176,0.243,0.299,0.106c0.116-0.129-0.055-0.211-0.135-0.289c-0.453-0.45-1.014-0.796-1.329-1.379
		C13.849,8.852,13.765,8.813,13.69,8.751z M2.635,35.742c-0.122,0.006-0.117,0.102-0.118,0.178c-0.006,0.668,0.1,1.307,0.492,1.867
		c0.07,0.1,0.159,0.188,0.246,0.275c0.05,0.051,0.118,0.076,0.181,0.018c0.061-0.055,0.059-0.125,0.001-0.18
		c-0.58-0.543-0.644-1.268-0.711-1.992C2.72,35.844,2.718,35.77,2.635,35.742z M44.54,50.893c-0.075-0.004-0.176-0.064-0.205,0.059
		c-0.021,0.1,0.054,0.141,0.138,0.166c0.696,0.209,1.391,0.418,2.087,0.623c0.075,0.021,0.179,0.047,0.209-0.061
		c0.029-0.105-0.073-0.135-0.146-0.16C45.94,51.27,45.252,51.045,44.54,50.893z M10.764,55.861c-0.017-0.025-0.029-0.074-0.06-0.09
		c-0.706-0.352-1.414-0.703-2.122-1.051c-0.052-0.025-0.108,0-0.137,0.055c-0.041,0.078-0.002,0.135,0.063,0.168
		c0.698,0.338,1.397,0.676,2.097,1.01C10.673,55.984,10.74,55.959,10.764,55.861z M6.68,42.16c-0.288-0.684-0.632-1.391-1.086-2.039
		c-0.04-0.057-0.113-0.088-0.18-0.037c-0.093,0.068-0.033,0.146,0.011,0.211c0.276,0.406,0.513,0.834,0.723,1.277
		c0.105,0.221,0.211,0.441,0.317,0.66c0.032,0.066,0.078,0.115,0.157,0.102C6.692,42.322,6.697,42.266,6.68,42.16z M7.5,50.855
		c-0.011-0.172,0.03-0.297-0.108-0.307c-0.097-0.008-0.123,0.102-0.134,0.176c-0.102,0.713-0.241,1.416-0.417,2.113
		c-0.022,0.082-0.029,0.176,0.077,0.195c0.097,0.018,0.144-0.064,0.161-0.148C7.226,52.184,7.37,51.479,7.5,50.855z M38.927,50.262
		c0.816,0.09,1.597,0.178,2.378,0.262c0.08,0.01,0.187,0.006,0.179-0.105c-0.008-0.121-0.13-0.135-0.219-0.145
		c-0.676-0.068-1.356-0.129-2.035-0.188C39.127,50.076,39.005,50.061,38.927,50.262z M46.792,14.176
		c-0.744,0.258-1.476,0.484-2.221,0.667c-0.069,0.017-0.128,0.066-0.099,0.148c0.035,0.101,0.124,0.097,0.205,0.075
		c0.462-0.13,0.924-0.257,1.381-0.396c0.261-0.079,0.519-0.173,0.774-0.268c0.063-0.023,0.128-0.078,0.081-0.156
		C46.892,14.209,46.829,14.196,46.792,14.176z M51.628,54.209c-0.014-0.029-0.021-0.076-0.049-0.098
		c-0.624-0.492-1.292-0.912-1.998-1.273c-0.071-0.035-0.14-0.018-0.166,0.063c-0.027,0.084,0.04,0.123,0.097,0.158
		c0.651,0.375,1.296,0.756,1.895,1.213C51.486,54.334,51.583,54.363,51.628,54.209z M30.678,15.639
		c-0.018-0.024-0.039-0.077-0.065-0.081c-0.758-0.087-1.517-0.171-2.274-0.252c-0.081-0.008-0.184,0.01-0.177,0.117
		c0.005,0.107,0.121,0.097,0.193,0.105c0.705,0.076,1.409,0.147,2.116,0.216C30.549,15.752,30.638,15.75,30.678,15.639z
		 M56.193,11.855c-0.021-0.031-0.032-0.076-0.062-0.097c-0.623-0.44-1.272-0.837-1.965-1.166c-0.066-0.031-0.138-0.033-0.175,0.041
		c-0.037,0.08,0.027,0.128,0.084,0.163c0.632,0.377,1.263,0.752,1.898,1.125C56.06,11.972,56.153,12.011,56.193,11.855z
		 M59.012,36.525c0.006,0.082,0.02,0.148,0.107,0.156c0.079,0.008,0.12-0.055,0.142-0.123c0.093-0.27,0.176-0.545,0.275-0.813
		c0.146-0.381,0.309-0.756,0.45-1.139c0.038-0.098,0.162-0.246-0.014-0.313c-0.14-0.053-0.161,0.115-0.202,0.205
		c-0.081,0.172-0.153,0.35-0.221,0.527C59.369,35.525,59.19,36.025,59.012,36.525z M2.601,29.981
		c0.126-0.177,0.132-0.177,0.135-0.298c0.015-0.668,0.127-1.281,0.853-1.57c0.069-0.028,0.164-0.093,0.114-0.186
		c-0.063-0.118-0.162-0.046-0.249-0.012C2.695,28.21,2.297,29.174,2.601,29.981z M7.459,15.057
		c-0.099-0.739-0.263-1.465-0.454-2.185c-0.021-0.082-0.058-0.168-0.162-0.135c-0.108,0.034-0.07,0.133-0.052,0.208
		c0.17,0.711,0.327,1.425,0.436,2.148c0.013,0.085,0.056,0.161,0.162,0.132C7.476,15.202,7.462,15.124,7.459,15.057z M17.889,12.176
		c-0.094-0.021-0.148,0.002-0.159,0.062c-0.022,0.124,0.09,0.156,0.168,0.202c0.59,0.35,1.211,0.639,1.841,0.912
		c0.089,0.039,0.224,0.148,0.287,0.011c0.078-0.168-0.116-0.188-0.212-0.236c-0.587-0.296-1.179-0.582-1.769-0.872
		C17.984,12.224,17.923,12.193,17.889,12.176z M58.242,45.293c0.055,0.67,0.108,1.318,0.163,1.965
		c0.008,0.096,0.023,0.207,0.147,0.209c0.108,0,0.112-0.094,0.106-0.18c-0.061-0.674-0.114-1.348-0.181-2.021
		c-0.01-0.102,0.018-0.301-0.155-0.27C58.178,45.021,58.258,45.203,58.242,45.293z M58.498,39.518
		c-0.221,0.832-0.324,1.67-0.169,2.527C58.441,41.205,58.599,40.369,58.498,39.518z M39.633,15.851
		c0.576-0.061,1.158-0.122,1.742-0.186c0.103-0.011,0.25-0.008,0.213-0.169c-0.029-0.126-0.149-0.078-0.242-0.067
		c-0.582,0.063-1.168,0.115-1.748,0.193c-0.17,0.022-0.486-0.1-0.477,0.128C39.131,15.951,39.448,15.793,39.633,15.851z
		 M58.809,15.403c0.016,0.096-0.053,0.26,0.081,0.277c0.183,0.023,0.134-0.17,0.147-0.271c0.07-0.511,0.122-1.024,0.187-1.536
		c0.043-0.357-0.27-0.354-0.47-0.463c-0.05-0.029-0.116,0.014-0.12,0.072c-0.004,0.044,0.025,0.118,0.057,0.133
		c0.362,0.156,0.283,0.443,0.242,0.73C58.882,14.694,58.848,15.046,58.809,15.403z M34.782,49.988c0,0.01,0,0.018,0,0.027
		c-0.369,0-0.739-0.004-1.11,0.002c-0.093,0-0.213,0.008-0.209,0.139c0.006,0.131,0.126,0.133,0.22,0.121
		c0.725-0.086,1.45-0.055,2.176-0.072c0.081-0.002,0.187,0.004,0.183-0.107c-0.004-0.109-0.109-0.107-0.188-0.107
		C35.496,49.986,35.139,49.988,34.782,49.988z M10.697,9.968c-0.624,0.301-1.339,0.644-2.051,0.991
		c-0.048,0.023-0.067,0.089-0.028,0.141c0.054,0.07,0.124,0.043,0.186,0.014c0.263-0.117,0.525-0.235,0.786-0.356
		c0.397-0.183,0.794-0.369,1.191-0.554c0.075-0.035,0.154-0.077,0.145-0.175C10.919,9.963,10.863,9.947,10.697,9.968z
		 M22.774,14.338c0,0.11,0.095,0.129,0.167,0.147c0.702,0.174,1.406,0.344,2.11,0.51c0.075,0.018,0.183,0.034,0.201-0.077
		c0.018-0.102-0.082-0.132-0.158-0.151c-0.703-0.172-1.407-0.342-2.111-0.508C22.904,14.24,22.816,14.237,22.774,14.338z
		 M6.659,23.44c-0.1,0.019-0.125,0.104-0.157,0.176c-0.154,0.335-0.295,0.676-0.459,1.006c-0.151,0.306-0.326,0.6-0.488,0.899
		c-0.04,0.075-0.07,0.16,0.027,0.212c0.081,0.044,0.125-0.027,0.162-0.084c0.402-0.622,0.712-1.29,0.986-1.975
		C6.765,23.587,6.788,23.485,6.659,23.44z M19.736,52.594c-0.692,0.305-1.421,0.639-2.104,1.066
		c-0.05,0.031-0.053,0.104-0.005,0.139c0.036,0.027,0.107,0.043,0.145,0.025c0.16-0.076,0.309-0.172,0.468-0.248
		c0.514-0.25,1.031-0.492,1.547-0.738c0.071-0.035,0.167-0.057,0.155-0.16C19.933,52.596,19.86,52.582,19.736,52.594z
		 M28.321,50.703c0.665-0.072,1.319-0.141,1.972-0.215c0.089-0.01,0.234-0.008,0.227-0.125c-0.008-0.158-0.167-0.113-0.262-0.104
		c-0.654,0.068-1.306,0.141-1.959,0.221c-0.095,0.012-0.268-0.023-0.247,0.135C28.07,50.758,28.231,50.688,28.321,50.703z
		 M24.859,51.016c-0.628,0.158-1.342,0.338-2.054,0.52c-0.066,0.016-0.138,0.053-0.129,0.133c0.009,0.09,0.095,0.1,0.159,0.084
		c0.716-0.168,1.431-0.34,2.147-0.514c0.065-0.016,0.131-0.064,0.124-0.141C25.097,51.012,25.02,51.008,24.859,51.016z
		 M58.215,24.794c0.037,0.435,0.068,0.881,0.116,1.325c0.016,0.138,0.004,0.389,0.161,0.366c0.204-0.03,0.097-0.271,0.086-0.415
		c-0.033-0.433-0.078-0.864-0.135-1.294c-0.034-0.245,0.021-0.728-0.085-0.694C58.052,24.176,58.287,24.538,58.215,24.794z
		 M59.233,51.727c-0.059-0.402-0.114-0.793-0.175-1.184c-0.014-0.076-0.045-0.178-0.149-0.164c-0.104,0.016-0.089,0.121-0.087,0.201
		c0,0.041,0.006,0.08,0.014,0.121c0.118,0.627,0.319,1.271-0.342,1.752c-0.02,0.014-0.035,0.045-0.037,0.068
		c-0.004,0.039-0.006,0.086,0.016,0.115c0.037,0.055,0.092,0.029,0.144,0.006C58.85,52.535,59.241,51.951,59.233,51.727z
		 M59.969,31.774c0.016-0.049,0.054-0.103,0.044-0.145c-0.168-0.76-0.549-1.444-0.764-2.188c-0.02-0.07-0.082-0.115-0.159-0.07
		c-0.072,0.042-0.057,0.116-0.039,0.181C59.263,30.322,59.6,31.044,59.969,31.774z M7.679,46.885
		c-0.014-0.529-0.068-1.055-0.163-1.576c-0.013-0.074-0.022-0.178-0.14-0.152C7.293,45.174,7.293,45.26,7.3,45.324
		c0.072,0.715,0.176,1.428,0.173,2.148c0,0.068,0.022,0.145,0.109,0.137c0.083-0.006,0.096-0.088,0.097-0.156
		C7.684,47.264,7.681,47.074,7.679,46.885z M7.559,18.143c-0.141,0.073-0.094,0.211-0.094,0.323
		c-0.002,0.626-0.073,1.246-0.138,1.867c-0.01,0.1-0.077,0.252,0.073,0.272c0.139,0.018,0.14-0.148,0.155-0.245
		c0.103-0.672,0.142-1.35,0.125-2.03C7.678,18.252,7.674,18.163,7.559,18.143z"/>
	<g>
		<path fill-rule="evenodd" clip-rule="evenodd" fill="#FFFFFF" d="M50.284,24.717c0.105-1.402,0.716-1.948,1.79-1.662
			c1.259,0.337,1.674,1.679,0.771,2.71c-0.379,0.435-0.418,0.791-0.276,1.31c0.674,2.466,0.205,4.858-0.612,7.193
			c-0.512,1.467-1.16,2.884-1.717,4.335c-0.164,0.425-0.348,0.901,0.14,1.291c0.062,0.049,0.06,0.235,0.024,0.337
			c-0.313,0.899-0.709,1.776-0.945,2.695c-0.217,0.84-0.265,1.722-0.393,2.584c-0.029,0.196-0.079,0.388-0.12,0.582
			c-0.122-0.053-0.243-0.104-0.377-0.162c-0.076,0.483-0.155,0.977-0.214,1.35c-1.084,0.165-2.054,0.314-3.17,0.483
			c0.128-0.783,0.297-1.522,0.361-2.271c0.098-1.145,0.184-2.296,0.156-3.44c-0.012-0.46-0.391-0.899-0.506-1.37
			c-0.268-1.083-0.487-2.178-0.706-3.271c-0.199-0.994-0.499-1.159-1.515-1.098c-2.363,0.147-4.733,0.335-7.098,0.298
			c-1.439-0.022-2.869-0.357-4.332-0.14c-0.636,0.095-1.099,0.277-1.254,0.939c-0.613,2.629-1.246,5.253-1.822,7.888
			c-0.146,0.669-0.262,1.211-1.062,1.384c-0.243,0.051-0.401,0.489-0.513,0.636c-0.466,0.034-0.819,0.066-1.172,0.081
			c-0.192,0.008-0.483,0.057-0.555-0.039c-0.093-0.128-0.051-0.392-0.002-0.58c0.249-0.95,0.721-1.892,0.737-2.84
			c0.031-1.839-0.137-3.688-0.345-5.517c-0.049-0.424-0.51-0.932-0.917-1.159c-1.928-1.086-3.893-2.11-5.875-3.095
			c-0.353-0.175-0.853-0.045-1.282-0.081c-0.683-0.053-1.378-0.062-2.042-0.209c-0.741-0.161-1.466-0.42-2.172-0.699
			c-0.636-0.256-1.346-0.484-1.821-0.938c-0.42-0.399-0.559-1.092-0.84-1.69c1.5-0.028,2.262-0.955,2.894-2.012
			c0.356-0.595,0.611-1.248,0.967-1.995c-1.505,0.653-2.425-0.655-3.672-0.881c-0.017-0.081-0.034-0.166-0.052-0.247
			c0.815-0.34,1.604-0.8,2.451-0.992c1.365-0.307,2.768-0.442,4.156-0.642c0.205-0.028,0.417-0.013,0.626-0.013
			c0.85,0,1.703,0.045,2.549-0.007c1.9-0.117,3.809-0.198,5.693-0.446c2.398-0.316,4.767-0.843,7.163-1.173
			c3.971-0.548,7.976-0.839,11.89,0.252c1.602,0.446,3.069,1.37,4.597,2.082C50.012,24.54,50.136,24.63,50.284,24.717z
			 M51.616,24.38c0.083,0.017,0.167,0.032,0.251,0.047c-0.104,0.395-0.206,0.792-0.309,1.184c0.708-0.15,1.107-0.653,0.933-1.207
			c-0.186-0.589-0.651-0.77-1.173-0.582c-0.197,0.072-0.328,0.463-0.389,0.73c-0.03,0.134,0.167,0.318,0.261,0.48
			c0.12-0.203,0.241-0.407,0.363-0.608C51.565,24.404,51.594,24.395,51.616,24.38z"/>
		<path fill-rule="evenodd" clip-rule="evenodd" d="M51.616,24.38c-0.022,0.015-0.051,0.024-0.063,0.045
			c-0.122,0.201-0.243,0.405-0.363,0.608c-0.094-0.162-0.291-0.346-0.261-0.48c0.061-0.267,0.191-0.659,0.389-0.73
			c0.521-0.188,0.987-0.007,1.173,0.582c0.175,0.554-0.225,1.056-0.933,1.207c0.103-0.391,0.205-0.789,0.309-1.184
			C51.783,24.412,51.699,24.397,51.616,24.38z"/>
	</g>
</g>
</svg>
